%TF.GenerationSoftware,KiCad,Pcbnew,7.0.8+1*%
%TF.CreationDate,2023-12-11T13:56:50+01:00*%
%TF.ProjectId,Receiver,52656365-6976-4657-922e-6b696361645f,rev?*%
%TF.SameCoordinates,Original*%
%TF.FileFunction,Copper,L3,Inr*%
%TF.FilePolarity,Positive*%
%FSLAX46Y46*%
G04 Gerber Fmt 4.6, Leading zero omitted, Abs format (unit mm)*
G04 Created by KiCad (PCBNEW 7.0.8+1) date 2023-12-11 13:56:50*
%MOMM*%
%LPD*%
G01*
G04 APERTURE LIST*
%TA.AperFunction,ComponentPad*%
%ADD10O,2.100000X1.000000*%
%TD*%
%TA.AperFunction,ComponentPad*%
%ADD11O,1.600000X1.000000*%
%TD*%
%TA.AperFunction,ViaPad*%
%ADD12C,0.600000*%
%TD*%
%TA.AperFunction,Conductor*%
%ADD13C,0.300000*%
%TD*%
G04 APERTURE END LIST*
D10*
%TO.N,GND*%
%TO.C,J6*%
X56820000Y-56680000D03*
D11*
X52640000Y-56680000D03*
D10*
X56820000Y-65320000D03*
D11*
X52640000Y-65320000D03*
%TD*%
D12*
%TO.N,GND*%
X122700000Y-50700000D03*
%TO.N,+2V5*%
X105041814Y-70199998D03*
X100500000Y-50700000D03*
X96400000Y-50700000D03*
X75274831Y-70050000D03*
X70600000Y-51000000D03*
X60000000Y-70875000D03*
X85500000Y-50800000D03*
X55200004Y-50900000D03*
X90541740Y-70200000D03*
%TO.N,/PWM_SEND_1*%
X132400000Y-58100000D03*
X63100000Y-60000000D03*
%TO.N,/PWM_RCV_1*%
X59200000Y-67100000D03*
X128900002Y-63900000D03*
%TO.N,-2V5*%
X73225000Y-67300000D03*
X72922334Y-55025000D03*
X57500000Y-54500000D03*
X88700000Y-67832313D03*
X57900000Y-67700000D03*
X87796688Y-54950000D03*
X102836639Y-55000000D03*
X104110312Y-67825000D03*
%TO.N,/LED_1*%
X57100000Y-70200000D03*
X139116407Y-67835646D03*
%TO.N,GND*%
X69500000Y-67300000D03*
X143300000Y-60600000D03*
X143300000Y-57800000D03*
X95100000Y-62300000D03*
X109400000Y-61600000D03*
X59200000Y-54400000D03*
X84613454Y-67875000D03*
X89392758Y-54900000D03*
X54600000Y-67800000D03*
X120328930Y-63375000D03*
X148320000Y-53900000D03*
X99600000Y-59600000D03*
X126115000Y-50700000D03*
X98514081Y-60125000D03*
X58600000Y-64200000D03*
X102325312Y-64125000D03*
X148310000Y-67690000D03*
X89400000Y-60800000D03*
X83000000Y-60800000D03*
X128400000Y-61500000D03*
X107500000Y-59500000D03*
X137900000Y-57900000D03*
X128600000Y-56500000D03*
X74553084Y-55025000D03*
X125599846Y-67650000D03*
X71875000Y-67300000D03*
X104274021Y-54920698D03*
X90946177Y-54950369D03*
X58700000Y-57800000D03*
X60700000Y-54400000D03*
X81000000Y-60900000D03*
X119169059Y-63325000D03*
X76122334Y-55025000D03*
X72302298Y-59052298D03*
X115590000Y-58600000D03*
X106240853Y-54666615D03*
X86501322Y-67848540D03*
X56300000Y-67800000D03*
X125565320Y-54175000D03*
X138000000Y-60600000D03*
X107116852Y-64125000D03*
%TO.N,/DOG_1*%
X145800000Y-67500000D03*
X55500000Y-70400000D03*
%TO.N,/PWM_SEND_2*%
X133100000Y-62875000D03*
X73900000Y-63600000D03*
%TO.N,/PWM_RCV_2*%
X74715474Y-67300000D03*
X136800000Y-67100000D03*
%TO.N,/LED_2*%
X140300000Y-67000000D03*
X72300000Y-70000000D03*
%TO.N,/DOG_2*%
X144600000Y-65200000D03*
X70600000Y-67200000D03*
%TO.N,/PWM_SEND_3*%
X70100000Y-60300000D03*
X132410585Y-60058324D03*
%TO.N,/PWM_RCV_3*%
X128900000Y-70800000D03*
X79000000Y-70400000D03*
%TO.N,/LED_3*%
X73817206Y-52225000D03*
X79624586Y-66275000D03*
X79300000Y-53000000D03*
X142000000Y-67800000D03*
%TO.N,/DOG_3*%
X75410000Y-55850000D03*
X143410000Y-56110000D03*
%TO.N,/PWM_SEND_0*%
X132100000Y-56100000D03*
X55900000Y-54700000D03*
%TO.N,/PWM_RCV_0*%
X56700000Y-51900000D03*
X136127298Y-53472702D03*
%TO.N,/LED_0*%
X135100000Y-55900000D03*
X58300000Y-55300000D03*
%TO.N,/DOG_0*%
X147800000Y-55100000D03*
X59894822Y-52030178D03*
%TO.N,+3.3V*%
X147000000Y-57000000D03*
X96400000Y-62200000D03*
X67600000Y-63200000D03*
X85149809Y-60154622D03*
X109400000Y-59700000D03*
X121100000Y-59400000D03*
%TO.N,/DOG_5*%
X90200000Y-52300000D03*
X140700000Y-53400000D03*
%TO.N,/DOG_4*%
X142000000Y-53600000D03*
X83681095Y-53775000D03*
%TO.N,Net-(U2-GPIO19{slash}U1RTS{slash}ADC2_CH8{slash}CLK_OUT2{slash}USB_D-)*%
X134400000Y-57132997D03*
X64574345Y-57315312D03*
%TO.N,Net-(U2-GPIO20{slash}U1CTS{slash}ADC2_CH9{slash}CLK_OUT1{slash}USB_D+)*%
X64600000Y-58500000D03*
X134100000Y-58000000D03*
%TO.N,/PWM_RCV_5*%
X128900000Y-64800000D03*
X88586289Y-65132811D03*
%TO.N,/PWM_SEND_4*%
X93421669Y-63100000D03*
X132200000Y-61300000D03*
%TO.N,/PWM_SEND_5*%
X87100000Y-63625000D03*
X132100000Y-62600000D03*
%TO.N,/PWM_SEND_6*%
X101300000Y-52200000D03*
X137123493Y-53385515D03*
%TO.N,/PWM_RCV_4*%
X132033280Y-54401063D03*
X94300000Y-54900000D03*
%TO.N,/LED_4*%
X133100000Y-67900000D03*
X87600000Y-67832313D03*
%TO.N,/LED_5*%
X133775000Y-60617690D03*
X87700000Y-60000000D03*
%TO.N,/PWM_RCV_6*%
X100632072Y-67100000D03*
X128473892Y-66550000D03*
%TO.N,/LED_6*%
X101600000Y-69600000D03*
X135600000Y-68000000D03*
%TO.N,/DOG_6*%
X134300000Y-54875000D03*
X105273744Y-54944302D03*
%TO.N,Net-(J8-Pin_3)*%
X71351360Y-64977526D03*
X143000000Y-64700000D03*
%TO.N,Net-(J8-Pin_2)*%
X68400000Y-67300000D03*
X144400000Y-67100000D03*
%TO.N,VBUS*%
X120000000Y-59300000D03*
X55400000Y-61100000D03*
%TO.N,Net-(U2-EN)*%
X91270207Y-62880516D03*
X145800000Y-57100000D03*
X83740853Y-62676244D03*
X85040853Y-62688267D03*
X90206969Y-56850000D03*
%TO.N,Net-(U2-GPIO15{slash}U0RTS{slash}ADC2_CH4{slash}XTAL_32K_P)*%
X128500000Y-59600000D03*
X135780000Y-59540000D03*
%TO.N,Net-(U2-GPIO16{slash}U0CTS{slash}ADC2_CH5{slash}XTAL_32K_N)*%
X128521407Y-58850303D03*
X135700000Y-58600000D03*
%TO.N,Net-(U2-GPIO0{slash}BOOT)*%
X80600000Y-70200000D03*
X131800000Y-70899980D03*
%TD*%
D13*
%TO.N,VBUS*%
X120000000Y-59300000D02*
X118450000Y-60850000D01*
X95989339Y-61550000D02*
X81710661Y-61550000D01*
X108989339Y-60850000D02*
X108939339Y-60900000D01*
X108939339Y-60900000D02*
X96639339Y-60900000D01*
X81710661Y-61550000D02*
X81510661Y-61750000D01*
X81510661Y-61750000D02*
X56050000Y-61750000D01*
X56050000Y-61750000D02*
X55400000Y-61100000D01*
X96639339Y-60900000D02*
X95989339Y-61550000D01*
X118450000Y-60850000D02*
X108989339Y-60850000D01*
%TD*%
%TA.AperFunction,Conductor*%
%TO.N,+2V5*%
G36*
X149773566Y-50017813D02*
G01*
X149798876Y-50061650D01*
X149800000Y-50074500D01*
X149800000Y-51770500D01*
X149782687Y-51818066D01*
X149738850Y-51843376D01*
X149726000Y-51844500D01*
X101811772Y-51844500D01*
X101787213Y-51846453D01*
X101787212Y-51846453D01*
X101763660Y-51850222D01*
X101751892Y-51851152D01*
X101611889Y-51851011D01*
X101571957Y-51839264D01*
X101489068Y-51785995D01*
X101364772Y-51749500D01*
X101235228Y-51749500D01*
X101110932Y-51785995D01*
X101110930Y-51785996D01*
X101029011Y-51838641D01*
X100988931Y-51850388D01*
X100827101Y-51850226D01*
X100814327Y-51849102D01*
X100788229Y-51844501D01*
X100788226Y-51844500D01*
X100788222Y-51844500D01*
X95099747Y-51844500D01*
X74047303Y-51823446D01*
X74011249Y-51812841D01*
X74011088Y-51813194D01*
X74008625Y-51812069D01*
X74007373Y-51811701D01*
X74006277Y-51810997D01*
X74006275Y-51810996D01*
X73881978Y-51774500D01*
X73752434Y-51774500D01*
X73628137Y-51810996D01*
X73628132Y-51810998D01*
X73627752Y-51811243D01*
X73627319Y-51811369D01*
X73623325Y-51813194D01*
X73623061Y-51812617D01*
X73587676Y-51822987D01*
X60333622Y-51809733D01*
X60286073Y-51792373D01*
X60277770Y-51784192D01*
X60277704Y-51784116D01*
X60277704Y-51784115D01*
X60192871Y-51686211D01*
X60125854Y-51643142D01*
X60083890Y-51616173D01*
X59959594Y-51579678D01*
X59830050Y-51579678D01*
X59705753Y-51616173D01*
X59596776Y-51686209D01*
X59596769Y-51686214D01*
X59512632Y-51783316D01*
X59468399Y-51807927D01*
X59456632Y-51808857D01*
X57200083Y-51806600D01*
X57152534Y-51789240D01*
X57132847Y-51763344D01*
X57082882Y-51653937D01*
X56998049Y-51556033D01*
X56931032Y-51512964D01*
X56889068Y-51485995D01*
X56764772Y-51449500D01*
X56635228Y-51449500D01*
X56510931Y-51485995D01*
X56401954Y-51556031D01*
X56401950Y-51556034D01*
X56317118Y-51653936D01*
X56317115Y-51653940D01*
X56267610Y-51762340D01*
X56232102Y-51798416D01*
X56200224Y-51805599D01*
X52000546Y-51801400D01*
X52008299Y-56079093D01*
X51991072Y-56126690D01*
X51977795Y-56139094D01*
X51891164Y-56202035D01*
X51786402Y-56328669D01*
X51786397Y-56328678D01*
X51716421Y-56477384D01*
X51716419Y-56477391D01*
X51685624Y-56638826D01*
X51695943Y-56802856D01*
X51695944Y-56802862D01*
X51746729Y-56959165D01*
X51746733Y-56959173D01*
X51834794Y-57097935D01*
X51834796Y-57097937D01*
X51834798Y-57097940D01*
X51954607Y-57210448D01*
X51972135Y-57220084D01*
X52005477Y-57258171D01*
X52010485Y-57284797D01*
X52023938Y-64707731D01*
X52006711Y-64755328D01*
X51993434Y-64767732D01*
X51891164Y-64842035D01*
X51786402Y-64968669D01*
X51786397Y-64968678D01*
X51716421Y-65117384D01*
X51716419Y-65117391D01*
X51685624Y-65278826D01*
X51695943Y-65442856D01*
X51695944Y-65442862D01*
X51746729Y-65599165D01*
X51746733Y-65599173D01*
X51834794Y-65737935D01*
X51834796Y-65737937D01*
X51834798Y-65737940D01*
X51954607Y-65850448D01*
X51987811Y-65868702D01*
X52021152Y-65906788D01*
X52026160Y-65933414D01*
X52032081Y-69199998D01*
X101134628Y-69282710D01*
X101182162Y-69300102D01*
X101207397Y-69343982D01*
X101201813Y-69387450D01*
X101163302Y-69471776D01*
X101144867Y-69600000D01*
X101163302Y-69728223D01*
X101163302Y-69728224D01*
X101163303Y-69728226D01*
X101217118Y-69846063D01*
X101301951Y-69943967D01*
X101410931Y-70014004D01*
X101535228Y-70050500D01*
X101664772Y-70050500D01*
X101789069Y-70014004D01*
X101898049Y-69943967D01*
X101982882Y-69846063D01*
X102036697Y-69728226D01*
X102055133Y-69600000D01*
X102036697Y-69471774D01*
X101998903Y-69389019D01*
X101994891Y-69338561D01*
X102024253Y-69297327D01*
X102066338Y-69284279D01*
X149726126Y-69364561D01*
X149773662Y-69381954D01*
X149798897Y-69425834D01*
X149800000Y-69438561D01*
X149800000Y-71925500D01*
X149782687Y-71973066D01*
X149738850Y-71998376D01*
X149726000Y-71999500D01*
X50074500Y-71999500D01*
X50026934Y-71982187D01*
X50001624Y-71938350D01*
X50000500Y-71925500D01*
X50000500Y-70400000D01*
X55044867Y-70400000D01*
X55063302Y-70528223D01*
X55063302Y-70528224D01*
X55063303Y-70528226D01*
X55117118Y-70646063D01*
X55201951Y-70743967D01*
X55310931Y-70814004D01*
X55435228Y-70850500D01*
X55564772Y-70850500D01*
X55689069Y-70814004D01*
X55798049Y-70743967D01*
X55882882Y-70646063D01*
X55936697Y-70528226D01*
X55955133Y-70400000D01*
X55936697Y-70271774D01*
X55903919Y-70200000D01*
X56644867Y-70200000D01*
X56663302Y-70328223D01*
X56663302Y-70328224D01*
X56663303Y-70328226D01*
X56717118Y-70446063D01*
X56801951Y-70543967D01*
X56910931Y-70614004D01*
X57035228Y-70650500D01*
X57164772Y-70650500D01*
X57289069Y-70614004D01*
X57398049Y-70543967D01*
X57482882Y-70446063D01*
X57536697Y-70328226D01*
X57555133Y-70200000D01*
X57536697Y-70071774D01*
X57503919Y-70000000D01*
X71844867Y-70000000D01*
X71863302Y-70128223D01*
X71863302Y-70128224D01*
X71863303Y-70128226D01*
X71917118Y-70246063D01*
X72001951Y-70343967D01*
X72110931Y-70414004D01*
X72235228Y-70450500D01*
X72364772Y-70450500D01*
X72489069Y-70414004D01*
X72510860Y-70400000D01*
X78544867Y-70400000D01*
X78563302Y-70528223D01*
X78563302Y-70528224D01*
X78563303Y-70528226D01*
X78617118Y-70646063D01*
X78701951Y-70743967D01*
X78810931Y-70814004D01*
X78935228Y-70850500D01*
X79064772Y-70850500D01*
X79189069Y-70814004D01*
X79210860Y-70800000D01*
X128444867Y-70800000D01*
X128463302Y-70928223D01*
X128463302Y-70928224D01*
X128463303Y-70928226D01*
X128517118Y-71046063D01*
X128601951Y-71143967D01*
X128710931Y-71214004D01*
X128835228Y-71250500D01*
X128964772Y-71250500D01*
X129089069Y-71214004D01*
X129198049Y-71143967D01*
X129282882Y-71046063D01*
X129336697Y-70928226D01*
X129340758Y-70899980D01*
X131344867Y-70899980D01*
X131363302Y-71028203D01*
X131363302Y-71028204D01*
X131363303Y-71028206D01*
X131417118Y-71146043D01*
X131501951Y-71243947D01*
X131610931Y-71313984D01*
X131735228Y-71350480D01*
X131864772Y-71350480D01*
X131989069Y-71313984D01*
X132098049Y-71243947D01*
X132182882Y-71146043D01*
X132236697Y-71028206D01*
X132255133Y-70899980D01*
X132236697Y-70771754D01*
X132182882Y-70653917D01*
X132098049Y-70556013D01*
X132031032Y-70512944D01*
X131989068Y-70485975D01*
X131864772Y-70449480D01*
X131735228Y-70449480D01*
X131610931Y-70485975D01*
X131501954Y-70556011D01*
X131501950Y-70556014D01*
X131417119Y-70653915D01*
X131363302Y-70771756D01*
X131344867Y-70899980D01*
X129340758Y-70899980D01*
X129355133Y-70800000D01*
X129336697Y-70671774D01*
X129282882Y-70553937D01*
X129198049Y-70456033D01*
X129110860Y-70400000D01*
X129089068Y-70385995D01*
X128964772Y-70349500D01*
X128835228Y-70349500D01*
X128710931Y-70385995D01*
X128601954Y-70456031D01*
X128601950Y-70456034D01*
X128517119Y-70553935D01*
X128517118Y-70553936D01*
X128517118Y-70553937D01*
X128490210Y-70612855D01*
X128463302Y-70671776D01*
X128444867Y-70800000D01*
X79210860Y-70800000D01*
X79298049Y-70743967D01*
X79382882Y-70646063D01*
X79436697Y-70528226D01*
X79455133Y-70400000D01*
X79436697Y-70271774D01*
X79403919Y-70200000D01*
X80144867Y-70200000D01*
X80163302Y-70328223D01*
X80163302Y-70328224D01*
X80163303Y-70328226D01*
X80217118Y-70446063D01*
X80301951Y-70543967D01*
X80410931Y-70614004D01*
X80535228Y-70650500D01*
X80664772Y-70650500D01*
X80789069Y-70614004D01*
X80898049Y-70543967D01*
X80982882Y-70446063D01*
X81036697Y-70328226D01*
X81055133Y-70200000D01*
X81036697Y-70071774D01*
X80982882Y-69953937D01*
X80898049Y-69856033D01*
X80831032Y-69812964D01*
X80789068Y-69785995D01*
X80664772Y-69749500D01*
X80535228Y-69749500D01*
X80410931Y-69785995D01*
X80301954Y-69856031D01*
X80301950Y-69856034D01*
X80217119Y-69953935D01*
X80163302Y-70071776D01*
X80144867Y-70200000D01*
X79403919Y-70200000D01*
X79382882Y-70153937D01*
X79298049Y-70056033D01*
X79210860Y-70000000D01*
X79189068Y-69985995D01*
X79064772Y-69949500D01*
X78935228Y-69949500D01*
X78810931Y-69985995D01*
X78701954Y-70056031D01*
X78701950Y-70056034D01*
X78617119Y-70153935D01*
X78563302Y-70271776D01*
X78544867Y-70400000D01*
X72510860Y-70400000D01*
X72598049Y-70343967D01*
X72682882Y-70246063D01*
X72736697Y-70128226D01*
X72755133Y-70000000D01*
X72736697Y-69871774D01*
X72682882Y-69753937D01*
X72598049Y-69656033D01*
X72510860Y-69600000D01*
X72489068Y-69585995D01*
X72364772Y-69549500D01*
X72235228Y-69549500D01*
X72110931Y-69585995D01*
X72001954Y-69656031D01*
X72001950Y-69656034D01*
X71917119Y-69753935D01*
X71863302Y-69871776D01*
X71844867Y-70000000D01*
X57503919Y-70000000D01*
X57482882Y-69953937D01*
X57398049Y-69856033D01*
X57331032Y-69812964D01*
X57289068Y-69785995D01*
X57164772Y-69749500D01*
X57035228Y-69749500D01*
X56910931Y-69785995D01*
X56801954Y-69856031D01*
X56801950Y-69856034D01*
X56717119Y-69953935D01*
X56663302Y-70071776D01*
X56644867Y-70200000D01*
X55903919Y-70200000D01*
X55882882Y-70153937D01*
X55798049Y-70056033D01*
X55710860Y-70000000D01*
X55689068Y-69985995D01*
X55564772Y-69949500D01*
X55435228Y-69949500D01*
X55310931Y-69985995D01*
X55201954Y-70056031D01*
X55201950Y-70056034D01*
X55117119Y-70153935D01*
X55063302Y-70271776D01*
X55044867Y-70400000D01*
X50000500Y-70400000D01*
X50000500Y-50700000D01*
X122244867Y-50700000D01*
X122263302Y-50828223D01*
X122263302Y-50828224D01*
X122263303Y-50828226D01*
X122317118Y-50946063D01*
X122401951Y-51043967D01*
X122510931Y-51114004D01*
X122635228Y-51150500D01*
X122764772Y-51150500D01*
X122889069Y-51114004D01*
X122998049Y-51043967D01*
X123082882Y-50946063D01*
X123136697Y-50828226D01*
X123155133Y-50700000D01*
X125659867Y-50700000D01*
X125678302Y-50828223D01*
X125678302Y-50828224D01*
X125678303Y-50828226D01*
X125732118Y-50946063D01*
X125816951Y-51043967D01*
X125925931Y-51114004D01*
X126050228Y-51150500D01*
X126179772Y-51150500D01*
X126304069Y-51114004D01*
X126413049Y-51043967D01*
X126497882Y-50946063D01*
X126551697Y-50828226D01*
X126570133Y-50700000D01*
X126551697Y-50571774D01*
X126497882Y-50453937D01*
X126413049Y-50356033D01*
X126346032Y-50312964D01*
X126304068Y-50285995D01*
X126179772Y-50249500D01*
X126050228Y-50249500D01*
X125925931Y-50285995D01*
X125816954Y-50356031D01*
X125816950Y-50356034D01*
X125732119Y-50453935D01*
X125678302Y-50571776D01*
X125659867Y-50700000D01*
X123155133Y-50700000D01*
X123136697Y-50571774D01*
X123082882Y-50453937D01*
X122998049Y-50356033D01*
X122931032Y-50312964D01*
X122889068Y-50285995D01*
X122764772Y-50249500D01*
X122635228Y-50249500D01*
X122510931Y-50285995D01*
X122401954Y-50356031D01*
X122401950Y-50356034D01*
X122317119Y-50453935D01*
X122263302Y-50571776D01*
X122244867Y-50700000D01*
X50000500Y-50700000D01*
X50000500Y-50074500D01*
X50017813Y-50026934D01*
X50061650Y-50001624D01*
X50074500Y-50000500D01*
X149726000Y-50000500D01*
X149773566Y-50017813D01*
G37*
%TD.AperFunction*%
%TD*%
%TA.AperFunction,Conductor*%
%TO.N,-2V5*%
G36*
X56250422Y-52017313D02*
G01*
X56270167Y-52043257D01*
X56317118Y-52146063D01*
X56401951Y-52243967D01*
X56510931Y-52314004D01*
X56635228Y-52350500D01*
X56764772Y-52350500D01*
X56889069Y-52314004D01*
X56998049Y-52243967D01*
X57082882Y-52146063D01*
X57129832Y-52043257D01*
X57165339Y-52007183D01*
X57197144Y-52000000D01*
X59371229Y-52000000D01*
X59418795Y-52017313D01*
X59444105Y-52061150D01*
X59444470Y-52063437D01*
X59450907Y-52108204D01*
X59458124Y-52158401D01*
X59458124Y-52158402D01*
X59458125Y-52158404D01*
X59511940Y-52276241D01*
X59596773Y-52374145D01*
X59705753Y-52444182D01*
X59830050Y-52480678D01*
X59959594Y-52480678D01*
X60083891Y-52444182D01*
X60192871Y-52374145D01*
X60277704Y-52276241D01*
X60331519Y-52158404D01*
X60345168Y-52063467D01*
X60369074Y-52018851D01*
X60416067Y-52000037D01*
X60418415Y-52000000D01*
X73310072Y-52000000D01*
X73357638Y-52017313D01*
X73382948Y-52061150D01*
X73381257Y-52091534D01*
X73381262Y-52091535D01*
X73381254Y-52091585D01*
X73381073Y-52094852D01*
X73380508Y-52096772D01*
X73362073Y-52225000D01*
X73380508Y-52353223D01*
X73380508Y-52353224D01*
X73380509Y-52353226D01*
X73434324Y-52471063D01*
X73519157Y-52568967D01*
X73628137Y-52639004D01*
X73752434Y-52675500D01*
X73881978Y-52675500D01*
X74006275Y-52639004D01*
X74115255Y-52568967D01*
X74200088Y-52471063D01*
X74253903Y-52353226D01*
X74272339Y-52225000D01*
X74258020Y-52125409D01*
X74253903Y-52096772D01*
X74253339Y-52094852D01*
X74253427Y-52093462D01*
X74253150Y-52091535D01*
X74253553Y-52091477D01*
X74256546Y-52044335D01*
X74291475Y-52007698D01*
X74324340Y-52000000D01*
X89726604Y-52000000D01*
X89774170Y-52017313D01*
X89799480Y-52061150D01*
X89793917Y-52104738D01*
X89775045Y-52146063D01*
X89763302Y-52171776D01*
X89744867Y-52300000D01*
X89763302Y-52428223D01*
X89763302Y-52428224D01*
X89763303Y-52428226D01*
X89817118Y-52546063D01*
X89901951Y-52643967D01*
X90010931Y-52714004D01*
X90135228Y-52750500D01*
X90264772Y-52750500D01*
X90389069Y-52714004D01*
X90498049Y-52643967D01*
X90582882Y-52546063D01*
X90636697Y-52428226D01*
X90655133Y-52300000D01*
X90636697Y-52171774D01*
X90606082Y-52104739D01*
X90602072Y-52054281D01*
X90631433Y-52013048D01*
X90673396Y-52000000D01*
X100788222Y-52000000D01*
X100835788Y-52017313D01*
X100861098Y-52061150D01*
X100861469Y-52084531D01*
X100844867Y-52200000D01*
X100863302Y-52328223D01*
X100863302Y-52328224D01*
X100863303Y-52328226D01*
X100917118Y-52446063D01*
X101001951Y-52543967D01*
X101110931Y-52614004D01*
X101235228Y-52650500D01*
X101364772Y-52650500D01*
X101489069Y-52614004D01*
X101598049Y-52543967D01*
X101682882Y-52446063D01*
X101736697Y-52328226D01*
X101755133Y-52200000D01*
X101738531Y-52084530D01*
X101748898Y-52034985D01*
X101788688Y-52003695D01*
X101811778Y-52000000D01*
X149726000Y-52000000D01*
X149773566Y-52017313D01*
X149798876Y-52061150D01*
X149800000Y-52074000D01*
X149800000Y-55526000D01*
X149782687Y-55573566D01*
X149738850Y-55598876D01*
X149726000Y-55600000D01*
X148107277Y-55600000D01*
X148059711Y-55582687D01*
X148034401Y-55538850D01*
X148043191Y-55489000D01*
X148067268Y-55463748D01*
X148098049Y-55443967D01*
X148182882Y-55346063D01*
X148236697Y-55228226D01*
X148255133Y-55100000D01*
X148236697Y-54971774D01*
X148182882Y-54853937D01*
X148098049Y-54756033D01*
X148010860Y-54700000D01*
X147989068Y-54685995D01*
X147864772Y-54649500D01*
X147735228Y-54649500D01*
X147610931Y-54685995D01*
X147501954Y-54756031D01*
X147501950Y-54756034D01*
X147417119Y-54853935D01*
X147363302Y-54971776D01*
X147344867Y-55100000D01*
X147363302Y-55228223D01*
X147363302Y-55228224D01*
X147363303Y-55228226D01*
X147417118Y-55346063D01*
X147501951Y-55443967D01*
X147532730Y-55463747D01*
X147563386Y-55504028D01*
X147560977Y-55554589D01*
X147526632Y-55591774D01*
X147492723Y-55600000D01*
X135469941Y-55600000D01*
X135422375Y-55582687D01*
X135414015Y-55574459D01*
X135398052Y-55556036D01*
X135398050Y-55556035D01*
X135398049Y-55556033D01*
X135320244Y-55506031D01*
X135289068Y-55485995D01*
X135164772Y-55449500D01*
X135035228Y-55449500D01*
X134910931Y-55485995D01*
X134801954Y-55556031D01*
X134801947Y-55556036D01*
X134785985Y-55574459D01*
X134741752Y-55599070D01*
X134730059Y-55600000D01*
X76277783Y-55600000D01*
X76230217Y-55582687D01*
X76204907Y-55538850D01*
X76213697Y-55489000D01*
X76252474Y-55456463D01*
X76256935Y-55454997D01*
X76275656Y-55449500D01*
X76311403Y-55439004D01*
X76420383Y-55368967D01*
X76505216Y-55271063D01*
X76559031Y-55153226D01*
X76577467Y-55025000D01*
X76559495Y-54900000D01*
X88937625Y-54900000D01*
X88956060Y-55028223D01*
X88956060Y-55028224D01*
X88956061Y-55028226D01*
X89009876Y-55146063D01*
X89094709Y-55243967D01*
X89203689Y-55314004D01*
X89327986Y-55350500D01*
X89457530Y-55350500D01*
X89581827Y-55314004D01*
X89690807Y-55243967D01*
X89775640Y-55146063D01*
X89829455Y-55028226D01*
X89840649Y-54950369D01*
X90491044Y-54950369D01*
X90509479Y-55078592D01*
X90509479Y-55078593D01*
X90509480Y-55078595D01*
X90563295Y-55196432D01*
X90648128Y-55294336D01*
X90757108Y-55364373D01*
X90881405Y-55400869D01*
X91010949Y-55400869D01*
X91135246Y-55364373D01*
X91244226Y-55294336D01*
X91329059Y-55196432D01*
X91382874Y-55078595D01*
X91401310Y-54950369D01*
X91394068Y-54900000D01*
X93844867Y-54900000D01*
X93863302Y-55028223D01*
X93863302Y-55028224D01*
X93863303Y-55028226D01*
X93917118Y-55146063D01*
X94001951Y-55243967D01*
X94110931Y-55314004D01*
X94235228Y-55350500D01*
X94364772Y-55350500D01*
X94489069Y-55314004D01*
X94598049Y-55243967D01*
X94682882Y-55146063D01*
X94736697Y-55028226D01*
X94752157Y-54920698D01*
X103818888Y-54920698D01*
X103837323Y-55048921D01*
X103837323Y-55048922D01*
X103837324Y-55048924D01*
X103891139Y-55166761D01*
X103975972Y-55264665D01*
X104084952Y-55334702D01*
X104209249Y-55371198D01*
X104338793Y-55371198D01*
X104463090Y-55334702D01*
X104572070Y-55264665D01*
X104656903Y-55166761D01*
X104701180Y-55069807D01*
X104736687Y-55033733D01*
X104787077Y-55028921D01*
X104828770Y-55057625D01*
X104835805Y-55069808D01*
X104837046Y-55072527D01*
X104837047Y-55072528D01*
X104890862Y-55190365D01*
X104975695Y-55288269D01*
X105084675Y-55358306D01*
X105208972Y-55394802D01*
X105338516Y-55394802D01*
X105462813Y-55358306D01*
X105571793Y-55288269D01*
X105656626Y-55190365D01*
X105710441Y-55072528D01*
X105728088Y-54949786D01*
X105751994Y-54905169D01*
X105798987Y-54886355D01*
X105847078Y-54902150D01*
X105857261Y-54911859D01*
X105942800Y-55010578D01*
X105942801Y-55010579D01*
X105942804Y-55010582D01*
X106051784Y-55080619D01*
X106176081Y-55117115D01*
X106305625Y-55117115D01*
X106429922Y-55080619D01*
X106538902Y-55010582D01*
X106623735Y-54912678D01*
X106640942Y-54875000D01*
X133844867Y-54875000D01*
X133863302Y-55003223D01*
X133863302Y-55003224D01*
X133863303Y-55003226D01*
X133917118Y-55121063D01*
X134001951Y-55218967D01*
X134110931Y-55289004D01*
X134235228Y-55325500D01*
X134364772Y-55325500D01*
X134489069Y-55289004D01*
X134598049Y-55218967D01*
X134682882Y-55121063D01*
X134736697Y-55003226D01*
X134755133Y-54875000D01*
X134736697Y-54746774D01*
X134682882Y-54628937D01*
X134598049Y-54531033D01*
X134503388Y-54470198D01*
X134489068Y-54460995D01*
X134364772Y-54424500D01*
X134235228Y-54424500D01*
X134110931Y-54460995D01*
X134001954Y-54531031D01*
X134001950Y-54531034D01*
X133917119Y-54628935D01*
X133863302Y-54746776D01*
X133844867Y-54875000D01*
X106640942Y-54875000D01*
X106677550Y-54794841D01*
X106695986Y-54666615D01*
X106677550Y-54538389D01*
X106623735Y-54420552D01*
X106538902Y-54322648D01*
X106471885Y-54279579D01*
X106429921Y-54252610D01*
X106305625Y-54216115D01*
X106176081Y-54216115D01*
X106051784Y-54252610D01*
X105942807Y-54322646D01*
X105942803Y-54322649D01*
X105857972Y-54420550D01*
X105804155Y-54538391D01*
X105786508Y-54661130D01*
X105762602Y-54705748D01*
X105715609Y-54724561D01*
X105667517Y-54708766D01*
X105657335Y-54699057D01*
X105571796Y-54600338D01*
X105571794Y-54600337D01*
X105571793Y-54600335D01*
X105475403Y-54538389D01*
X105462812Y-54530297D01*
X105338516Y-54493802D01*
X105208972Y-54493802D01*
X105084675Y-54530297D01*
X104975698Y-54600333D01*
X104975694Y-54600336D01*
X104890862Y-54698237D01*
X104846585Y-54795191D01*
X104811076Y-54831267D01*
X104760686Y-54836078D01*
X104718993Y-54807374D01*
X104711959Y-54795191D01*
X104710718Y-54792474D01*
X104710718Y-54792472D01*
X104656903Y-54674635D01*
X104572070Y-54576731D01*
X104482189Y-54518968D01*
X104463089Y-54506693D01*
X104338793Y-54470198D01*
X104209249Y-54470198D01*
X104084952Y-54506693D01*
X103975975Y-54576729D01*
X103975971Y-54576732D01*
X103891140Y-54674633D01*
X103891139Y-54674634D01*
X103891139Y-54674635D01*
X103877589Y-54704306D01*
X103837323Y-54792474D01*
X103818888Y-54920698D01*
X94752157Y-54920698D01*
X94755133Y-54900000D01*
X94736697Y-54771774D01*
X94682882Y-54653937D01*
X94598049Y-54556033D01*
X94510656Y-54499869D01*
X94489068Y-54485995D01*
X94364772Y-54449500D01*
X94235228Y-54449500D01*
X94110931Y-54485995D01*
X94001954Y-54556031D01*
X94001950Y-54556034D01*
X93917119Y-54653935D01*
X93863302Y-54771776D01*
X93844867Y-54900000D01*
X91394068Y-54900000D01*
X91382874Y-54822143D01*
X91329059Y-54704306D01*
X91244226Y-54606402D01*
X91138399Y-54538391D01*
X91135245Y-54536364D01*
X91010949Y-54499869D01*
X90881405Y-54499869D01*
X90757108Y-54536364D01*
X90648131Y-54606400D01*
X90648127Y-54606403D01*
X90563296Y-54704304D01*
X90563295Y-54704305D01*
X90563295Y-54704306D01*
X90561258Y-54708766D01*
X90509479Y-54822145D01*
X90491044Y-54950369D01*
X89840649Y-54950369D01*
X89847891Y-54900000D01*
X89829455Y-54771774D01*
X89775640Y-54653937D01*
X89690807Y-54556033D01*
X89603414Y-54499869D01*
X89581826Y-54485995D01*
X89457530Y-54449500D01*
X89327986Y-54449500D01*
X89203689Y-54485995D01*
X89094712Y-54556031D01*
X89094708Y-54556034D01*
X89009877Y-54653935D01*
X88956060Y-54771776D01*
X88937625Y-54900000D01*
X76559495Y-54900000D01*
X76559031Y-54896774D01*
X76505216Y-54778937D01*
X76420383Y-54681033D01*
X76333972Y-54625500D01*
X76311402Y-54610995D01*
X76187106Y-54574500D01*
X76057562Y-54574500D01*
X75933265Y-54610995D01*
X75824288Y-54681031D01*
X75824284Y-54681034D01*
X75739453Y-54778935D01*
X75685636Y-54896776D01*
X75667201Y-55025000D01*
X75685636Y-55153223D01*
X75685636Y-55153224D01*
X75685637Y-55153226D01*
X75739452Y-55271063D01*
X75824285Y-55368967D01*
X75933265Y-55439004D01*
X75987733Y-55454997D01*
X76028495Y-55485010D01*
X76040429Y-55534202D01*
X76017951Y-55579556D01*
X75971579Y-55599851D01*
X75966885Y-55600000D01*
X75823266Y-55600000D01*
X75775700Y-55582687D01*
X75767340Y-55574459D01*
X75708052Y-55506036D01*
X75708050Y-55506035D01*
X75708049Y-55506033D01*
X75611474Y-55443968D01*
X75599068Y-55435995D01*
X75474772Y-55399500D01*
X75345228Y-55399500D01*
X75220931Y-55435995D01*
X75111954Y-55506031D01*
X75111947Y-55506036D01*
X75052660Y-55574459D01*
X75008426Y-55599070D01*
X74996734Y-55600000D01*
X74708533Y-55600000D01*
X74660967Y-55582687D01*
X74635657Y-55538850D01*
X74644447Y-55489000D01*
X74683224Y-55456463D01*
X74687685Y-55454997D01*
X74706406Y-55449500D01*
X74742153Y-55439004D01*
X74851133Y-55368967D01*
X74935966Y-55271063D01*
X74989781Y-55153226D01*
X75008217Y-55025000D01*
X74989781Y-54896774D01*
X74935966Y-54778937D01*
X74851133Y-54681033D01*
X74764722Y-54625500D01*
X74742152Y-54610995D01*
X74617856Y-54574500D01*
X74488312Y-54574500D01*
X74364015Y-54610995D01*
X74255038Y-54681031D01*
X74255034Y-54681034D01*
X74170203Y-54778935D01*
X74116386Y-54896776D01*
X74097951Y-55025000D01*
X74116386Y-55153223D01*
X74116386Y-55153224D01*
X74116387Y-55153226D01*
X74170202Y-55271063D01*
X74255035Y-55368967D01*
X74364015Y-55439004D01*
X74418483Y-55454997D01*
X74459245Y-55485010D01*
X74471179Y-55534202D01*
X74448701Y-55579556D01*
X74402329Y-55599851D01*
X74397635Y-55600000D01*
X58773396Y-55600000D01*
X58725830Y-55582687D01*
X58700520Y-55538850D01*
X58706082Y-55495261D01*
X58736697Y-55428226D01*
X58755133Y-55300000D01*
X58736697Y-55171774D01*
X58682882Y-55053937D01*
X58598049Y-54956033D01*
X58489628Y-54886355D01*
X58489068Y-54885995D01*
X58364772Y-54849500D01*
X58235228Y-54849500D01*
X58110931Y-54885995D01*
X58001954Y-54956031D01*
X58001950Y-54956034D01*
X57917119Y-55053935D01*
X57863302Y-55171776D01*
X57844867Y-55300000D01*
X57863302Y-55428223D01*
X57863302Y-55428224D01*
X57863303Y-55428226D01*
X57893917Y-55495260D01*
X57897928Y-55545719D01*
X57868567Y-55586952D01*
X57826604Y-55600000D01*
X54700000Y-55600000D01*
X54700000Y-66498355D01*
X54700001Y-66498356D01*
X54774635Y-66498049D01*
X79137595Y-66397893D01*
X79185229Y-66415009D01*
X79205207Y-66441148D01*
X79241704Y-66521063D01*
X79326537Y-66618967D01*
X79435517Y-66689004D01*
X79559814Y-66725500D01*
X79689358Y-66725500D01*
X79813655Y-66689004D01*
X79922635Y-66618967D01*
X80007468Y-66521063D01*
X80045794Y-66437140D01*
X80081301Y-66401066D01*
X80112796Y-66393884D01*
X128024436Y-66196920D01*
X128072070Y-66214036D01*
X128097559Y-66257769D01*
X128092050Y-66301659D01*
X128037194Y-66421776D01*
X128018759Y-66550000D01*
X128037194Y-66678223D01*
X128037194Y-66678224D01*
X128037195Y-66678226D01*
X128091010Y-66796063D01*
X128175843Y-66893967D01*
X128284823Y-66964004D01*
X128409120Y-67000500D01*
X128538664Y-67000500D01*
X128662961Y-66964004D01*
X128771941Y-66893967D01*
X128856774Y-66796063D01*
X128910589Y-66678226D01*
X128929025Y-66550000D01*
X128910589Y-66421774D01*
X128856774Y-66303937D01*
X128856772Y-66303935D01*
X128854575Y-66299123D01*
X128856835Y-66298090D01*
X128847741Y-66257891D01*
X128870920Y-66212891D01*
X128917601Y-66193318D01*
X128920800Y-66193235D01*
X149725697Y-66107706D01*
X149773333Y-66124823D01*
X149798822Y-66168556D01*
X149800000Y-66181705D01*
X149800000Y-68826000D01*
X149782687Y-68873566D01*
X149738850Y-68898876D01*
X149726000Y-68900000D01*
X52574000Y-68900000D01*
X52526434Y-68882687D01*
X52501124Y-68838850D01*
X52500000Y-68826000D01*
X52500000Y-67800000D01*
X54144867Y-67800000D01*
X54163302Y-67928223D01*
X54163302Y-67928224D01*
X54163303Y-67928226D01*
X54217118Y-68046063D01*
X54301951Y-68143967D01*
X54410931Y-68214004D01*
X54535228Y-68250500D01*
X54664772Y-68250500D01*
X54789069Y-68214004D01*
X54898049Y-68143967D01*
X54982882Y-68046063D01*
X55036697Y-67928226D01*
X55055133Y-67800000D01*
X55844867Y-67800000D01*
X55863302Y-67928223D01*
X55863302Y-67928224D01*
X55863303Y-67928226D01*
X55917118Y-68046063D01*
X56001951Y-68143967D01*
X56110931Y-68214004D01*
X56235228Y-68250500D01*
X56364772Y-68250500D01*
X56489069Y-68214004D01*
X56598049Y-68143967D01*
X56682882Y-68046063D01*
X56736697Y-67928226D01*
X56744350Y-67875000D01*
X84158321Y-67875000D01*
X84176756Y-68003223D01*
X84176756Y-68003224D01*
X84176757Y-68003226D01*
X84230572Y-68121063D01*
X84315405Y-68218967D01*
X84424385Y-68289004D01*
X84548682Y-68325500D01*
X84678226Y-68325500D01*
X84802523Y-68289004D01*
X84911503Y-68218967D01*
X84996336Y-68121063D01*
X85050151Y-68003226D01*
X85068587Y-67875000D01*
X85064783Y-67848540D01*
X86046189Y-67848540D01*
X86064624Y-67976763D01*
X86064624Y-67976764D01*
X86064625Y-67976766D01*
X86118440Y-68094603D01*
X86203273Y-68192507D01*
X86312253Y-68262544D01*
X86436550Y-68299040D01*
X86566094Y-68299040D01*
X86690391Y-68262544D01*
X86799371Y-68192507D01*
X86884204Y-68094603D01*
X86938019Y-67976766D01*
X86956455Y-67848540D01*
X86954122Y-67832313D01*
X87144867Y-67832313D01*
X87163302Y-67960536D01*
X87163302Y-67960537D01*
X87163303Y-67960539D01*
X87217118Y-68078376D01*
X87301951Y-68176280D01*
X87410931Y-68246317D01*
X87535228Y-68282813D01*
X87664772Y-68282813D01*
X87789069Y-68246317D01*
X87898049Y-68176280D01*
X87982882Y-68078376D01*
X88036697Y-67960539D01*
X88055133Y-67832313D01*
X88036697Y-67704087D01*
X88011996Y-67650000D01*
X125144713Y-67650000D01*
X125163148Y-67778223D01*
X125163148Y-67778224D01*
X125163149Y-67778226D01*
X125216964Y-67896063D01*
X125301797Y-67993967D01*
X125410777Y-68064004D01*
X125535074Y-68100500D01*
X125664618Y-68100500D01*
X125788915Y-68064004D01*
X125897895Y-67993967D01*
X125979317Y-67900000D01*
X132644867Y-67900000D01*
X132663302Y-68028223D01*
X132663302Y-68028224D01*
X132663303Y-68028226D01*
X132717118Y-68146063D01*
X132801951Y-68243967D01*
X132910931Y-68314004D01*
X133035228Y-68350500D01*
X133164772Y-68350500D01*
X133289069Y-68314004D01*
X133398049Y-68243967D01*
X133482882Y-68146063D01*
X133536697Y-68028226D01*
X133540755Y-68000000D01*
X135144867Y-68000000D01*
X135163302Y-68128223D01*
X135163302Y-68128224D01*
X135163303Y-68128226D01*
X135217118Y-68246063D01*
X135301951Y-68343967D01*
X135410931Y-68414004D01*
X135535228Y-68450500D01*
X135664772Y-68450500D01*
X135789069Y-68414004D01*
X135898049Y-68343967D01*
X135982882Y-68246063D01*
X136036697Y-68128226D01*
X136055133Y-68000000D01*
X136036697Y-67871774D01*
X136020198Y-67835646D01*
X138661274Y-67835646D01*
X138679709Y-67963869D01*
X138679709Y-67963870D01*
X138679710Y-67963872D01*
X138733525Y-68081709D01*
X138818358Y-68179613D01*
X138927338Y-68249650D01*
X139051635Y-68286146D01*
X139181179Y-68286146D01*
X139305476Y-68249650D01*
X139414456Y-68179613D01*
X139499289Y-68081709D01*
X139553104Y-67963872D01*
X139571540Y-67835646D01*
X139566415Y-67800000D01*
X141544867Y-67800000D01*
X141563302Y-67928223D01*
X141563302Y-67928224D01*
X141563303Y-67928226D01*
X141617118Y-68046063D01*
X141701951Y-68143967D01*
X141810931Y-68214004D01*
X141935228Y-68250500D01*
X142064772Y-68250500D01*
X142189069Y-68214004D01*
X142298049Y-68143967D01*
X142382882Y-68046063D01*
X142436697Y-67928226D01*
X142455133Y-67800000D01*
X142436697Y-67671774D01*
X142382882Y-67553937D01*
X142298049Y-67456033D01*
X142207810Y-67398040D01*
X142189068Y-67385995D01*
X142064772Y-67349500D01*
X141935228Y-67349500D01*
X141810931Y-67385995D01*
X141701954Y-67456031D01*
X141701950Y-67456034D01*
X141617119Y-67553935D01*
X141563302Y-67671776D01*
X141544867Y-67800000D01*
X139566415Y-67800000D01*
X139553104Y-67707420D01*
X139499289Y-67589583D01*
X139414456Y-67491679D01*
X139347439Y-67448610D01*
X139305475Y-67421641D01*
X139181179Y-67385146D01*
X139051635Y-67385146D01*
X138927338Y-67421641D01*
X138818361Y-67491677D01*
X138818357Y-67491680D01*
X138733526Y-67589581D01*
X138733525Y-67589582D01*
X138733525Y-67589583D01*
X138715877Y-67628226D01*
X138679709Y-67707422D01*
X138661274Y-67835646D01*
X136020198Y-67835646D01*
X135982882Y-67753937D01*
X135898049Y-67656033D01*
X135814711Y-67602475D01*
X135789068Y-67585995D01*
X135664772Y-67549500D01*
X135535228Y-67549500D01*
X135410931Y-67585995D01*
X135301954Y-67656031D01*
X135301950Y-67656034D01*
X135217119Y-67753935D01*
X135217118Y-67753936D01*
X135217118Y-67753937D01*
X135196081Y-67800000D01*
X135163302Y-67871776D01*
X135144867Y-68000000D01*
X133540755Y-68000000D01*
X133555133Y-67900000D01*
X133536697Y-67771774D01*
X133482882Y-67653937D01*
X133398049Y-67556033D01*
X133317977Y-67504574D01*
X133289068Y-67485995D01*
X133164772Y-67449500D01*
X133035228Y-67449500D01*
X132910931Y-67485995D01*
X132801954Y-67556031D01*
X132801950Y-67556034D01*
X132717119Y-67653935D01*
X132663302Y-67771776D01*
X132644867Y-67900000D01*
X125979317Y-67900000D01*
X125982728Y-67896063D01*
X126036543Y-67778226D01*
X126054979Y-67650000D01*
X126036543Y-67521774D01*
X125982728Y-67403937D01*
X125897895Y-67306033D01*
X125816829Y-67253935D01*
X125788914Y-67235995D01*
X125664618Y-67199500D01*
X125535074Y-67199500D01*
X125410777Y-67235995D01*
X125301800Y-67306031D01*
X125301796Y-67306034D01*
X125216965Y-67403935D01*
X125216964Y-67403936D01*
X125216964Y-67403937D01*
X125202990Y-67434535D01*
X125163148Y-67521776D01*
X125144713Y-67650000D01*
X88011996Y-67650000D01*
X87982882Y-67586250D01*
X87898049Y-67488346D01*
X87814317Y-67434535D01*
X87789068Y-67418308D01*
X87664772Y-67381813D01*
X87535228Y-67381813D01*
X87410931Y-67418308D01*
X87301954Y-67488344D01*
X87301950Y-67488347D01*
X87217119Y-67586248D01*
X87163302Y-67704089D01*
X87144867Y-67832313D01*
X86954122Y-67832313D01*
X86938019Y-67720314D01*
X86884204Y-67602477D01*
X86799371Y-67504573D01*
X86708329Y-67446064D01*
X86690390Y-67434535D01*
X86566094Y-67398040D01*
X86436550Y-67398040D01*
X86312253Y-67434535D01*
X86203276Y-67504571D01*
X86203272Y-67504574D01*
X86118441Y-67602475D01*
X86064624Y-67720316D01*
X86046189Y-67848540D01*
X85064783Y-67848540D01*
X85050151Y-67746774D01*
X84996336Y-67628937D01*
X84911503Y-67531033D01*
X84841422Y-67485995D01*
X84802522Y-67460995D01*
X84678226Y-67424500D01*
X84548682Y-67424500D01*
X84424385Y-67460995D01*
X84315408Y-67531031D01*
X84315404Y-67531034D01*
X84230573Y-67628935D01*
X84230572Y-67628936D01*
X84230572Y-67628937D01*
X84220953Y-67650000D01*
X84176756Y-67746776D01*
X84158321Y-67875000D01*
X56744350Y-67875000D01*
X56755133Y-67800000D01*
X56736697Y-67671774D01*
X56682882Y-67553937D01*
X56598049Y-67456033D01*
X56507810Y-67398040D01*
X56489068Y-67385995D01*
X56364772Y-67349500D01*
X56235228Y-67349500D01*
X56110931Y-67385995D01*
X56001954Y-67456031D01*
X56001950Y-67456034D01*
X55917119Y-67553935D01*
X55863302Y-67671776D01*
X55844867Y-67800000D01*
X55055133Y-67800000D01*
X55036697Y-67671774D01*
X54982882Y-67553937D01*
X54898049Y-67456033D01*
X54807810Y-67398040D01*
X54789068Y-67385995D01*
X54664772Y-67349500D01*
X54535228Y-67349500D01*
X54410931Y-67385995D01*
X54301954Y-67456031D01*
X54301950Y-67456034D01*
X54217119Y-67553935D01*
X54163302Y-67671776D01*
X54144867Y-67800000D01*
X52500000Y-67800000D01*
X52500000Y-67100000D01*
X58744867Y-67100000D01*
X58763302Y-67228223D01*
X58763302Y-67228224D01*
X58763303Y-67228226D01*
X58817118Y-67346063D01*
X58901951Y-67443967D01*
X59010931Y-67514004D01*
X59135228Y-67550500D01*
X59264772Y-67550500D01*
X59389069Y-67514004D01*
X59498049Y-67443967D01*
X59582882Y-67346063D01*
X59603919Y-67300000D01*
X67944867Y-67300000D01*
X67963302Y-67428223D01*
X67963302Y-67428224D01*
X67963303Y-67428226D01*
X68017118Y-67546063D01*
X68101951Y-67643967D01*
X68210931Y-67714004D01*
X68335228Y-67750500D01*
X68464772Y-67750500D01*
X68589069Y-67714004D01*
X68698049Y-67643967D01*
X68782882Y-67546063D01*
X68836697Y-67428226D01*
X68855133Y-67300000D01*
X69044867Y-67300000D01*
X69063302Y-67428223D01*
X69063302Y-67428224D01*
X69063303Y-67428226D01*
X69117118Y-67546063D01*
X69201951Y-67643967D01*
X69310931Y-67714004D01*
X69435228Y-67750500D01*
X69564772Y-67750500D01*
X69689069Y-67714004D01*
X69798049Y-67643967D01*
X69882882Y-67546063D01*
X69936697Y-67428226D01*
X69955133Y-67300000D01*
X69940755Y-67200000D01*
X70144867Y-67200000D01*
X70163302Y-67328223D01*
X70163302Y-67328224D01*
X70163303Y-67328226D01*
X70217118Y-67446063D01*
X70301951Y-67543967D01*
X70410931Y-67614004D01*
X70535228Y-67650500D01*
X70664772Y-67650500D01*
X70789069Y-67614004D01*
X70898049Y-67543967D01*
X70982882Y-67446063D01*
X71036697Y-67328226D01*
X71040755Y-67300000D01*
X71419867Y-67300000D01*
X71438302Y-67428223D01*
X71438302Y-67428224D01*
X71438303Y-67428226D01*
X71492118Y-67546063D01*
X71576951Y-67643967D01*
X71685931Y-67714004D01*
X71810228Y-67750500D01*
X71939772Y-67750500D01*
X72064069Y-67714004D01*
X72173049Y-67643967D01*
X72257882Y-67546063D01*
X72311697Y-67428226D01*
X72330133Y-67300000D01*
X74260341Y-67300000D01*
X74278776Y-67428223D01*
X74278776Y-67428224D01*
X74278777Y-67428226D01*
X74332592Y-67546063D01*
X74417425Y-67643967D01*
X74526405Y-67714004D01*
X74650702Y-67750500D01*
X74780246Y-67750500D01*
X74904543Y-67714004D01*
X75013523Y-67643967D01*
X75098356Y-67546063D01*
X75152171Y-67428226D01*
X75170607Y-67300000D01*
X75152171Y-67171774D01*
X75119393Y-67100000D01*
X100176939Y-67100000D01*
X100195374Y-67228223D01*
X100195374Y-67228224D01*
X100195375Y-67228226D01*
X100249190Y-67346063D01*
X100334023Y-67443967D01*
X100443003Y-67514004D01*
X100567300Y-67550500D01*
X100696844Y-67550500D01*
X100821141Y-67514004D01*
X100930121Y-67443967D01*
X101014954Y-67346063D01*
X101068769Y-67228226D01*
X101087205Y-67100000D01*
X136344867Y-67100000D01*
X136363302Y-67228223D01*
X136363302Y-67228224D01*
X136363303Y-67228226D01*
X136417118Y-67346063D01*
X136501951Y-67443967D01*
X136610931Y-67514004D01*
X136735228Y-67550500D01*
X136864772Y-67550500D01*
X136989069Y-67514004D01*
X137098049Y-67443967D01*
X137182882Y-67346063D01*
X137236697Y-67228226D01*
X137255133Y-67100000D01*
X137240755Y-67000000D01*
X139844867Y-67000000D01*
X139863302Y-67128223D01*
X139863302Y-67128224D01*
X139863303Y-67128226D01*
X139917118Y-67246063D01*
X140001951Y-67343967D01*
X140110931Y-67414004D01*
X140235228Y-67450500D01*
X140364772Y-67450500D01*
X140489069Y-67414004D01*
X140598049Y-67343967D01*
X140682882Y-67246063D01*
X140736697Y-67128226D01*
X140740755Y-67100000D01*
X143944867Y-67100000D01*
X143963302Y-67228223D01*
X143963302Y-67228224D01*
X143963303Y-67228226D01*
X144017118Y-67346063D01*
X144101951Y-67443967D01*
X144210931Y-67514004D01*
X144335228Y-67550500D01*
X144464772Y-67550500D01*
X144589069Y-67514004D01*
X144610860Y-67500000D01*
X145344867Y-67500000D01*
X145363302Y-67628223D01*
X145363302Y-67628224D01*
X145363303Y-67628226D01*
X145417118Y-67746063D01*
X145501951Y-67843967D01*
X145610931Y-67914004D01*
X145735228Y-67950500D01*
X145864772Y-67950500D01*
X145989069Y-67914004D01*
X146098049Y-67843967D01*
X146182882Y-67746063D01*
X146208485Y-67690000D01*
X147854867Y-67690000D01*
X147873302Y-67818223D01*
X147873302Y-67818224D01*
X147873303Y-67818226D01*
X147927118Y-67936063D01*
X148011951Y-68033967D01*
X148120931Y-68104004D01*
X148245228Y-68140500D01*
X148374772Y-68140500D01*
X148499069Y-68104004D01*
X148608049Y-68033967D01*
X148692882Y-67936063D01*
X148746697Y-67818226D01*
X148765133Y-67690000D01*
X148746697Y-67561774D01*
X148692882Y-67443937D01*
X148608049Y-67346033D01*
X148536420Y-67300000D01*
X148499068Y-67275995D01*
X148374772Y-67239500D01*
X148245228Y-67239500D01*
X148120931Y-67275995D01*
X148011954Y-67346031D01*
X148011950Y-67346034D01*
X147927119Y-67443935D01*
X147927118Y-67443936D01*
X147927118Y-67443937D01*
X147924121Y-67450500D01*
X147873302Y-67561776D01*
X147854867Y-67690000D01*
X146208485Y-67690000D01*
X146236697Y-67628226D01*
X146255133Y-67500000D01*
X146236697Y-67371774D01*
X146182882Y-67253937D01*
X146098049Y-67156033D01*
X146010860Y-67100000D01*
X145989068Y-67085995D01*
X145864772Y-67049500D01*
X145735228Y-67049500D01*
X145610931Y-67085995D01*
X145501954Y-67156031D01*
X145501950Y-67156034D01*
X145417119Y-67253935D01*
X145363302Y-67371776D01*
X145344867Y-67500000D01*
X144610860Y-67500000D01*
X144698049Y-67443967D01*
X144782882Y-67346063D01*
X144836697Y-67228226D01*
X144855133Y-67100000D01*
X144836697Y-66971774D01*
X144782882Y-66853937D01*
X144698049Y-66756033D01*
X144593750Y-66689004D01*
X144589068Y-66685995D01*
X144464772Y-66649500D01*
X144335228Y-66649500D01*
X144210931Y-66685995D01*
X144101954Y-66756031D01*
X144101950Y-66756034D01*
X144017119Y-66853935D01*
X143963302Y-66971776D01*
X143944867Y-67100000D01*
X140740755Y-67100000D01*
X140755133Y-67000000D01*
X140736697Y-66871774D01*
X140682882Y-66753937D01*
X140598049Y-66656033D01*
X140531032Y-66612964D01*
X140489068Y-66585995D01*
X140364772Y-66549500D01*
X140235228Y-66549500D01*
X140110931Y-66585995D01*
X140001954Y-66656031D01*
X140001950Y-66656034D01*
X139917119Y-66753935D01*
X139863302Y-66871776D01*
X139844867Y-67000000D01*
X137240755Y-67000000D01*
X137236697Y-66971774D01*
X137182882Y-66853937D01*
X137098049Y-66756033D01*
X136993750Y-66689004D01*
X136989068Y-66685995D01*
X136864772Y-66649500D01*
X136735228Y-66649500D01*
X136610931Y-66685995D01*
X136501954Y-66756031D01*
X136501950Y-66756034D01*
X136417119Y-66853935D01*
X136363302Y-66971776D01*
X136344867Y-67100000D01*
X101087205Y-67100000D01*
X101068769Y-66971774D01*
X101014954Y-66853937D01*
X100930121Y-66756033D01*
X100825822Y-66689004D01*
X100821140Y-66685995D01*
X100696844Y-66649500D01*
X100567300Y-66649500D01*
X100443003Y-66685995D01*
X100334026Y-66756031D01*
X100334022Y-66756034D01*
X100249191Y-66853935D01*
X100195374Y-66971776D01*
X100176939Y-67100000D01*
X75119393Y-67100000D01*
X75098356Y-67053937D01*
X75013523Y-66956033D01*
X74916948Y-66893968D01*
X74904542Y-66885995D01*
X74780246Y-66849500D01*
X74650702Y-66849500D01*
X74526405Y-66885995D01*
X74417428Y-66956031D01*
X74417424Y-66956034D01*
X74332593Y-67053935D01*
X74278776Y-67171776D01*
X74260341Y-67300000D01*
X72330133Y-67300000D01*
X72311697Y-67171774D01*
X72257882Y-67053937D01*
X72173049Y-66956033D01*
X72076474Y-66893968D01*
X72064068Y-66885995D01*
X71939772Y-66849500D01*
X71810228Y-66849500D01*
X71685931Y-66885995D01*
X71576954Y-66956031D01*
X71576950Y-66956034D01*
X71492119Y-67053935D01*
X71438302Y-67171776D01*
X71419867Y-67300000D01*
X71040755Y-67300000D01*
X71055133Y-67200000D01*
X71036697Y-67071774D01*
X70982882Y-66953937D01*
X70898049Y-66856033D01*
X70831032Y-66812964D01*
X70789068Y-66785995D01*
X70664772Y-66749500D01*
X70535228Y-66749500D01*
X70410931Y-66785995D01*
X70301954Y-66856031D01*
X70301950Y-66856034D01*
X70217119Y-66953935D01*
X70163302Y-67071776D01*
X70144867Y-67200000D01*
X69940755Y-67200000D01*
X69936697Y-67171774D01*
X69882882Y-67053937D01*
X69798049Y-66956033D01*
X69701474Y-66893968D01*
X69689068Y-66885995D01*
X69564772Y-66849500D01*
X69435228Y-66849500D01*
X69310931Y-66885995D01*
X69201954Y-66956031D01*
X69201950Y-66956034D01*
X69117119Y-67053935D01*
X69063302Y-67171776D01*
X69044867Y-67300000D01*
X68855133Y-67300000D01*
X68836697Y-67171774D01*
X68782882Y-67053937D01*
X68698049Y-66956033D01*
X68601474Y-66893968D01*
X68589068Y-66885995D01*
X68464772Y-66849500D01*
X68335228Y-66849500D01*
X68210931Y-66885995D01*
X68101954Y-66956031D01*
X68101950Y-66956034D01*
X68017119Y-67053935D01*
X67963302Y-67171776D01*
X67944867Y-67300000D01*
X59603919Y-67300000D01*
X59636697Y-67228226D01*
X59655133Y-67100000D01*
X59636697Y-66971774D01*
X59582882Y-66853937D01*
X59498049Y-66756033D01*
X59393750Y-66689004D01*
X59389068Y-66685995D01*
X59264772Y-66649500D01*
X59135228Y-66649500D01*
X59010931Y-66685995D01*
X58901954Y-66756031D01*
X58901950Y-66756034D01*
X58817119Y-66853935D01*
X58763302Y-66971776D01*
X58744867Y-67100000D01*
X52500000Y-67100000D01*
X52500000Y-66044500D01*
X52517313Y-65996934D01*
X52561150Y-65971624D01*
X52574000Y-65970500D01*
X52980924Y-65970500D01*
X52980925Y-65970500D01*
X53020428Y-65965509D01*
X53103052Y-65955072D01*
X53103052Y-65955071D01*
X53103058Y-65955071D01*
X53255871Y-65894568D01*
X53388837Y-65797963D01*
X53493600Y-65671326D01*
X53563579Y-65522613D01*
X53578793Y-65442860D01*
X53594376Y-65361172D01*
X53594376Y-65361170D01*
X53591880Y-65321493D01*
X53584056Y-65197140D01*
X53566779Y-65143967D01*
X53533270Y-65040834D01*
X53533266Y-65040826D01*
X53445205Y-64902064D01*
X53445203Y-64902062D01*
X53445202Y-64902060D01*
X53325393Y-64789552D01*
X53325392Y-64789551D01*
X53181368Y-64710373D01*
X53181369Y-64710373D01*
X53022181Y-64669501D01*
X53022180Y-64669500D01*
X53022177Y-64669500D01*
X52574000Y-64669500D01*
X52526434Y-64652187D01*
X52501124Y-64608350D01*
X52500000Y-64595500D01*
X52500000Y-57404500D01*
X52517313Y-57356934D01*
X52561150Y-57331624D01*
X52574000Y-57330500D01*
X52980924Y-57330500D01*
X52980925Y-57330500D01*
X53020428Y-57325509D01*
X53103052Y-57315072D01*
X53103052Y-57315071D01*
X53103058Y-57315071D01*
X53255871Y-57254568D01*
X53388837Y-57157963D01*
X53493600Y-57031326D01*
X53563579Y-56882613D01*
X53587726Y-56756033D01*
X53594376Y-56721172D01*
X53594376Y-56721170D01*
X53589867Y-56649500D01*
X53584056Y-56557140D01*
X53570040Y-56514004D01*
X53533270Y-56400834D01*
X53533266Y-56400826D01*
X53532424Y-56399500D01*
X53514829Y-56371774D01*
X53445205Y-56262064D01*
X53445203Y-56262062D01*
X53445202Y-56262060D01*
X53325393Y-56149552D01*
X53325392Y-56149551D01*
X53181368Y-56070373D01*
X53181369Y-56070373D01*
X53022181Y-56029501D01*
X53022180Y-56029500D01*
X53022177Y-56029500D01*
X52574000Y-56029500D01*
X52526434Y-56012187D01*
X52501124Y-55968350D01*
X52500000Y-55955500D01*
X52500000Y-54700000D01*
X55444867Y-54700000D01*
X55463302Y-54828223D01*
X55463302Y-54828224D01*
X55463303Y-54828226D01*
X55517118Y-54946063D01*
X55601951Y-55043967D01*
X55710931Y-55114004D01*
X55835228Y-55150500D01*
X55964772Y-55150500D01*
X56089069Y-55114004D01*
X56198049Y-55043967D01*
X56282882Y-54946063D01*
X56336697Y-54828226D01*
X56355133Y-54700000D01*
X56336697Y-54571774D01*
X56282882Y-54453937D01*
X56236146Y-54400000D01*
X58744867Y-54400000D01*
X58763302Y-54528223D01*
X58763302Y-54528224D01*
X58763303Y-54528226D01*
X58817118Y-54646063D01*
X58901951Y-54743967D01*
X59010931Y-54814004D01*
X59135228Y-54850500D01*
X59264772Y-54850500D01*
X59389069Y-54814004D01*
X59498049Y-54743967D01*
X59582882Y-54646063D01*
X59636697Y-54528226D01*
X59655133Y-54400000D01*
X60244867Y-54400000D01*
X60263302Y-54528223D01*
X60263302Y-54528224D01*
X60263303Y-54528226D01*
X60317118Y-54646063D01*
X60401951Y-54743967D01*
X60510931Y-54814004D01*
X60635228Y-54850500D01*
X60764772Y-54850500D01*
X60889069Y-54814004D01*
X60998049Y-54743967D01*
X61082882Y-54646063D01*
X61136697Y-54528226D01*
X61155133Y-54400000D01*
X61136697Y-54271774D01*
X61082882Y-54153937D01*
X60998049Y-54056033D01*
X60931032Y-54012964D01*
X60889068Y-53985995D01*
X60764772Y-53949500D01*
X60635228Y-53949500D01*
X60510931Y-53985995D01*
X60401954Y-54056031D01*
X60401950Y-54056034D01*
X60317119Y-54153935D01*
X60317118Y-54153936D01*
X60317118Y-54153937D01*
X60316633Y-54155000D01*
X60263302Y-54271776D01*
X60244867Y-54400000D01*
X59655133Y-54400000D01*
X59636697Y-54271774D01*
X59582882Y-54153937D01*
X59498049Y-54056033D01*
X59431032Y-54012964D01*
X59389068Y-53985995D01*
X59264772Y-53949500D01*
X59135228Y-53949500D01*
X59010931Y-53985995D01*
X58901954Y-54056031D01*
X58901950Y-54056034D01*
X58817119Y-54153935D01*
X58817118Y-54153936D01*
X58817118Y-54153937D01*
X58816633Y-54155000D01*
X58763302Y-54271776D01*
X58744867Y-54400000D01*
X56236146Y-54400000D01*
X56198049Y-54356033D01*
X56131032Y-54312964D01*
X56089068Y-54285995D01*
X55964772Y-54249500D01*
X55835228Y-54249500D01*
X55710931Y-54285995D01*
X55601954Y-54356031D01*
X55601950Y-54356034D01*
X55517119Y-54453935D01*
X55463302Y-54571776D01*
X55444867Y-54700000D01*
X52500000Y-54700000D01*
X52500000Y-53775000D01*
X83225962Y-53775000D01*
X83244397Y-53903223D01*
X83244397Y-53903224D01*
X83244398Y-53903226D01*
X83298213Y-54021063D01*
X83383046Y-54118967D01*
X83492026Y-54189004D01*
X83616323Y-54225500D01*
X83745867Y-54225500D01*
X83870164Y-54189004D01*
X83891955Y-54175000D01*
X125110187Y-54175000D01*
X125128622Y-54303223D01*
X125128622Y-54303224D01*
X125128623Y-54303226D01*
X125182438Y-54421063D01*
X125267271Y-54518967D01*
X125376251Y-54589004D01*
X125500548Y-54625500D01*
X125630092Y-54625500D01*
X125754389Y-54589004D01*
X125863369Y-54518967D01*
X125948202Y-54421063D01*
X125957336Y-54401063D01*
X131578147Y-54401063D01*
X131596582Y-54529286D01*
X131596582Y-54529287D01*
X131596583Y-54529289D01*
X131650398Y-54647126D01*
X131735231Y-54745030D01*
X131844211Y-54815067D01*
X131968508Y-54851563D01*
X132098052Y-54851563D01*
X132222349Y-54815067D01*
X132331329Y-54745030D01*
X132416162Y-54647126D01*
X132469977Y-54529289D01*
X132488413Y-54401063D01*
X132469977Y-54272837D01*
X132416162Y-54155000D01*
X132331329Y-54057096D01*
X132264276Y-54014004D01*
X132222348Y-53987058D01*
X132098052Y-53950563D01*
X131968508Y-53950563D01*
X131844211Y-53987058D01*
X131735234Y-54057094D01*
X131735230Y-54057097D01*
X131650399Y-54154998D01*
X131596582Y-54272839D01*
X131578147Y-54401063D01*
X125957336Y-54401063D01*
X126002017Y-54303226D01*
X126020453Y-54175000D01*
X126002017Y-54046774D01*
X125948202Y-53928937D01*
X125863369Y-53831033D01*
X125771160Y-53771774D01*
X125754388Y-53760995D01*
X125630092Y-53724500D01*
X125500548Y-53724500D01*
X125376251Y-53760995D01*
X125267274Y-53831031D01*
X125267270Y-53831034D01*
X125182439Y-53928935D01*
X125182438Y-53928936D01*
X125182438Y-53928937D01*
X125173047Y-53949500D01*
X125128622Y-54046776D01*
X125110187Y-54175000D01*
X83891955Y-54175000D01*
X83979144Y-54118967D01*
X84063977Y-54021063D01*
X84117792Y-53903226D01*
X84136228Y-53775000D01*
X84117792Y-53646774D01*
X84063977Y-53528937D01*
X84015250Y-53472702D01*
X135672165Y-53472702D01*
X135690600Y-53600925D01*
X135690600Y-53600926D01*
X135690601Y-53600928D01*
X135744416Y-53718765D01*
X135829249Y-53816669D01*
X135938229Y-53886706D01*
X136062526Y-53923202D01*
X136192070Y-53923202D01*
X136316367Y-53886706D01*
X136425347Y-53816669D01*
X136510180Y-53718765D01*
X136563995Y-53600928D01*
X136567067Y-53579562D01*
X136590973Y-53534944D01*
X136637966Y-53516130D01*
X136686057Y-53531925D01*
X136707624Y-53559349D01*
X136740611Y-53631578D01*
X136825444Y-53729482D01*
X136934424Y-53799519D01*
X137058721Y-53836015D01*
X137188265Y-53836015D01*
X137312562Y-53799519D01*
X137421542Y-53729482D01*
X137506375Y-53631578D01*
X137560190Y-53513741D01*
X137576543Y-53400000D01*
X140244867Y-53400000D01*
X140263302Y-53528223D01*
X140263302Y-53528224D01*
X140263303Y-53528226D01*
X140317118Y-53646063D01*
X140401951Y-53743967D01*
X140510931Y-53814004D01*
X140635228Y-53850500D01*
X140764772Y-53850500D01*
X140889069Y-53814004D01*
X140998049Y-53743967D01*
X141082882Y-53646063D01*
X141103919Y-53600000D01*
X141544867Y-53600000D01*
X141563302Y-53728223D01*
X141563302Y-53728224D01*
X141563303Y-53728226D01*
X141617118Y-53846063D01*
X141701951Y-53943967D01*
X141810931Y-54014004D01*
X141935228Y-54050500D01*
X142064772Y-54050500D01*
X142189069Y-54014004D01*
X142298049Y-53943967D01*
X142336146Y-53900000D01*
X147864867Y-53900000D01*
X147883302Y-54028223D01*
X147883302Y-54028224D01*
X147883303Y-54028226D01*
X147937118Y-54146063D01*
X148021951Y-54243967D01*
X148130931Y-54314004D01*
X148255228Y-54350500D01*
X148384772Y-54350500D01*
X148509069Y-54314004D01*
X148618049Y-54243967D01*
X148702882Y-54146063D01*
X148756697Y-54028226D01*
X148775133Y-53900000D01*
X148756697Y-53771774D01*
X148702882Y-53653937D01*
X148618049Y-53556033D01*
X148551032Y-53512964D01*
X148509068Y-53485995D01*
X148384772Y-53449500D01*
X148255228Y-53449500D01*
X148130931Y-53485995D01*
X148021954Y-53556031D01*
X148021950Y-53556034D01*
X147937119Y-53653935D01*
X147883302Y-53771776D01*
X147864867Y-53900000D01*
X142336146Y-53900000D01*
X142382882Y-53846063D01*
X142436697Y-53728226D01*
X142455133Y-53600000D01*
X142436697Y-53471774D01*
X142382882Y-53353937D01*
X142298049Y-53256033D01*
X142231032Y-53212964D01*
X142189068Y-53185995D01*
X142064772Y-53149500D01*
X141935228Y-53149500D01*
X141810931Y-53185995D01*
X141701954Y-53256031D01*
X141701950Y-53256034D01*
X141617119Y-53353935D01*
X141563302Y-53471776D01*
X141544867Y-53600000D01*
X141103919Y-53600000D01*
X141136697Y-53528226D01*
X141155133Y-53400000D01*
X141136697Y-53271774D01*
X141082882Y-53153937D01*
X140998049Y-53056033D01*
X140910860Y-53000000D01*
X140889068Y-52985995D01*
X140764772Y-52949500D01*
X140635228Y-52949500D01*
X140510931Y-52985995D01*
X140401954Y-53056031D01*
X140401950Y-53056034D01*
X140317119Y-53153935D01*
X140263302Y-53271776D01*
X140244867Y-53400000D01*
X137576543Y-53400000D01*
X137578626Y-53385515D01*
X137560190Y-53257289D01*
X137506375Y-53139452D01*
X137421542Y-53041548D01*
X137335100Y-52985995D01*
X137312561Y-52971510D01*
X137188265Y-52935015D01*
X137058721Y-52935015D01*
X136934424Y-52971510D01*
X136825447Y-53041546D01*
X136825443Y-53041549D01*
X136740612Y-53139450D01*
X136686794Y-53257293D01*
X136683722Y-53278657D01*
X136659815Y-53323274D01*
X136612821Y-53342086D01*
X136564730Y-53326289D01*
X136543165Y-53298866D01*
X136510180Y-53226639D01*
X136425347Y-53128735D01*
X136358330Y-53085666D01*
X136316366Y-53058697D01*
X136192070Y-53022202D01*
X136062526Y-53022202D01*
X135938229Y-53058697D01*
X135829252Y-53128733D01*
X135829248Y-53128736D01*
X135744417Y-53226637D01*
X135690600Y-53344478D01*
X135672165Y-53472702D01*
X84015250Y-53472702D01*
X83979144Y-53431033D01*
X83908316Y-53385515D01*
X83870163Y-53360995D01*
X83745867Y-53324500D01*
X83616323Y-53324500D01*
X83492026Y-53360995D01*
X83383049Y-53431031D01*
X83383045Y-53431034D01*
X83298214Y-53528935D01*
X83244397Y-53646776D01*
X83225962Y-53775000D01*
X52500000Y-53775000D01*
X52500000Y-53000000D01*
X78844867Y-53000000D01*
X78863302Y-53128223D01*
X78863302Y-53128224D01*
X78863303Y-53128226D01*
X78917118Y-53246063D01*
X79001951Y-53343967D01*
X79110931Y-53414004D01*
X79235228Y-53450500D01*
X79364772Y-53450500D01*
X79489069Y-53414004D01*
X79598049Y-53343967D01*
X79682882Y-53246063D01*
X79736697Y-53128226D01*
X79755133Y-53000000D01*
X79736697Y-52871774D01*
X79682882Y-52753937D01*
X79598049Y-52656033D01*
X79531032Y-52612964D01*
X79489068Y-52585995D01*
X79364772Y-52549500D01*
X79235228Y-52549500D01*
X79110931Y-52585995D01*
X79001954Y-52656031D01*
X79001950Y-52656034D01*
X78917119Y-52753935D01*
X78863302Y-52871776D01*
X78844867Y-53000000D01*
X52500000Y-53000000D01*
X52500000Y-52074000D01*
X52517313Y-52026434D01*
X52561150Y-52001124D01*
X52574000Y-52000000D01*
X56202856Y-52000000D01*
X56250422Y-52017313D01*
G37*
%TD.AperFunction*%
%TD*%
%TA.AperFunction,Conductor*%
%TO.N,+3.3V*%
G36*
X56133200Y-55917313D02*
G01*
X56158510Y-55961150D01*
X56149720Y-56011000D01*
X56110943Y-56043537D01*
X56108728Y-56044222D01*
X56106942Y-56044928D01*
X56106942Y-56044929D01*
X56095397Y-56049500D01*
X55954131Y-56105431D01*
X55954130Y-56105431D01*
X55954129Y-56105432D01*
X55903059Y-56142536D01*
X55821162Y-56202037D01*
X55716402Y-56328669D01*
X55716397Y-56328678D01*
X55646421Y-56477384D01*
X55646419Y-56477391D01*
X55615624Y-56638826D01*
X55625943Y-56802856D01*
X55625944Y-56802862D01*
X55676729Y-56959165D01*
X55676733Y-56959173D01*
X55764794Y-57097935D01*
X55764796Y-57097937D01*
X55764798Y-57097940D01*
X55884607Y-57210448D01*
X56028632Y-57289627D01*
X56187823Y-57330500D01*
X56187826Y-57330500D01*
X57410924Y-57330500D01*
X57410925Y-57330500D01*
X57450428Y-57325509D01*
X57531152Y-57315312D01*
X64119212Y-57315312D01*
X64137647Y-57443535D01*
X64137647Y-57443536D01*
X64137648Y-57443538D01*
X64191463Y-57561375D01*
X64276296Y-57659279D01*
X64385276Y-57729316D01*
X64509573Y-57765812D01*
X64639117Y-57765812D01*
X64763414Y-57729316D01*
X64872394Y-57659279D01*
X64957227Y-57561375D01*
X65011042Y-57443538D01*
X65029478Y-57315312D01*
X65011042Y-57187086D01*
X64957227Y-57069249D01*
X64872394Y-56971345D01*
X64805377Y-56928276D01*
X64763413Y-56901307D01*
X64639117Y-56864812D01*
X64509573Y-56864812D01*
X64385276Y-56901307D01*
X64276299Y-56971343D01*
X64276295Y-56971346D01*
X64191464Y-57069247D01*
X64191463Y-57069248D01*
X64191463Y-57069249D01*
X64178360Y-57097940D01*
X64137647Y-57187088D01*
X64119212Y-57315312D01*
X57531152Y-57315312D01*
X57533052Y-57315072D01*
X57533052Y-57315071D01*
X57533058Y-57315071D01*
X57685871Y-57254568D01*
X57818837Y-57157963D01*
X57923600Y-57031326D01*
X57993579Y-56882613D01*
X57999801Y-56850000D01*
X89751836Y-56850000D01*
X89770271Y-56978223D01*
X89770271Y-56978224D01*
X89770272Y-56978226D01*
X89824087Y-57096063D01*
X89908920Y-57193967D01*
X90017900Y-57264004D01*
X90142197Y-57300500D01*
X90271741Y-57300500D01*
X90396038Y-57264004D01*
X90505018Y-57193967D01*
X90589851Y-57096063D01*
X90643666Y-56978226D01*
X90662102Y-56850000D01*
X90643666Y-56721774D01*
X90589851Y-56603937D01*
X90505018Y-56506033D01*
X90495630Y-56500000D01*
X128144867Y-56500000D01*
X128163302Y-56628223D01*
X128163302Y-56628224D01*
X128163303Y-56628226D01*
X128217118Y-56746063D01*
X128301951Y-56843967D01*
X128410931Y-56914004D01*
X128535228Y-56950500D01*
X128664772Y-56950500D01*
X128789069Y-56914004D01*
X128898049Y-56843967D01*
X128982882Y-56746063D01*
X129036697Y-56628226D01*
X129055133Y-56500000D01*
X129036697Y-56371774D01*
X128982882Y-56253937D01*
X128898049Y-56156033D01*
X128810860Y-56100000D01*
X128789068Y-56085995D01*
X128664772Y-56049500D01*
X128535228Y-56049500D01*
X128410931Y-56085995D01*
X128301954Y-56156031D01*
X128301950Y-56156034D01*
X128217119Y-56253935D01*
X128217118Y-56253936D01*
X128217118Y-56253937D01*
X128212521Y-56264004D01*
X128163302Y-56371776D01*
X128144867Y-56500000D01*
X90495630Y-56500000D01*
X90424003Y-56453968D01*
X90396037Y-56435995D01*
X90271741Y-56399500D01*
X90142197Y-56399500D01*
X90017900Y-56435995D01*
X89908923Y-56506031D01*
X89908919Y-56506034D01*
X89824088Y-56603935D01*
X89824087Y-56603936D01*
X89824087Y-56603937D01*
X89808154Y-56638826D01*
X89770271Y-56721776D01*
X89751836Y-56850000D01*
X57999801Y-56850000D01*
X58002819Y-56834178D01*
X58024376Y-56721172D01*
X58024376Y-56721170D01*
X58019867Y-56649500D01*
X58014056Y-56557140D01*
X57997451Y-56506034D01*
X57963270Y-56400834D01*
X57963266Y-56400826D01*
X57962424Y-56399500D01*
X57934859Y-56356064D01*
X57875205Y-56262064D01*
X57875203Y-56262062D01*
X57875202Y-56262060D01*
X57755393Y-56149552D01*
X57755392Y-56149551D01*
X57611368Y-56070373D01*
X57611369Y-56070373D01*
X57515175Y-56045675D01*
X57473408Y-56017077D01*
X57459796Y-55968323D01*
X57480707Y-55922225D01*
X57526357Y-55900353D01*
X57533578Y-55900000D01*
X74897934Y-55900000D01*
X74945500Y-55917313D01*
X74970810Y-55961150D01*
X74971181Y-55963469D01*
X74973302Y-55978223D01*
X74973302Y-55978224D01*
X74973303Y-55978226D01*
X75027118Y-56096063D01*
X75111951Y-56193967D01*
X75220931Y-56264004D01*
X75345228Y-56300500D01*
X75474772Y-56300500D01*
X75599069Y-56264004D01*
X75708049Y-56193967D01*
X75792882Y-56096063D01*
X75846697Y-55978226D01*
X75848819Y-55963469D01*
X75872725Y-55918850D01*
X75919718Y-55900037D01*
X75922066Y-55900000D01*
X131588222Y-55900000D01*
X131635788Y-55917313D01*
X131661098Y-55961150D01*
X131661468Y-55984529D01*
X131655003Y-56029500D01*
X131644867Y-56100000D01*
X131663302Y-56228223D01*
X131663302Y-56228224D01*
X131663303Y-56228226D01*
X131717118Y-56346063D01*
X131801951Y-56443967D01*
X131910931Y-56514004D01*
X132035228Y-56550500D01*
X132164772Y-56550500D01*
X132289069Y-56514004D01*
X132398049Y-56443967D01*
X132482882Y-56346063D01*
X132536697Y-56228226D01*
X132555133Y-56100000D01*
X132538531Y-55984530D01*
X132548898Y-55934985D01*
X132588688Y-55903695D01*
X132611778Y-55900000D01*
X134580745Y-55900000D01*
X134628311Y-55917313D01*
X134653621Y-55961150D01*
X134653992Y-55963469D01*
X134663302Y-56028223D01*
X134663302Y-56028224D01*
X134663303Y-56028226D01*
X134717118Y-56146063D01*
X134801951Y-56243967D01*
X134910931Y-56314004D01*
X135035228Y-56350500D01*
X135164772Y-56350500D01*
X135289069Y-56314004D01*
X135398049Y-56243967D01*
X135482882Y-56146063D01*
X135536697Y-56028226D01*
X135543886Y-55978226D01*
X135546008Y-55963469D01*
X135569914Y-55918850D01*
X135616907Y-55900037D01*
X135619255Y-55900000D01*
X142899659Y-55900000D01*
X142947225Y-55917313D01*
X142972535Y-55961150D01*
X142972906Y-55984531D01*
X142954867Y-56109999D01*
X142973302Y-56238223D01*
X142973302Y-56238224D01*
X142973303Y-56238226D01*
X143027118Y-56356063D01*
X143111951Y-56453967D01*
X143220931Y-56524004D01*
X143345228Y-56560500D01*
X143474772Y-56560500D01*
X143599069Y-56524004D01*
X143708049Y-56453967D01*
X143792882Y-56356063D01*
X143846697Y-56238226D01*
X143865133Y-56110000D01*
X143850899Y-56011000D01*
X143847094Y-55984531D01*
X143857462Y-55934985D01*
X143897251Y-55903695D01*
X143920341Y-55900000D01*
X149726000Y-55900000D01*
X149773566Y-55917313D01*
X149798876Y-55961150D01*
X149800000Y-55974000D01*
X149800000Y-65878202D01*
X149782687Y-65925768D01*
X149738850Y-65951078D01*
X149726304Y-65952201D01*
X138099432Y-66000000D01*
X80016189Y-66000000D01*
X79968623Y-65982687D01*
X79960263Y-65974459D01*
X79922638Y-65931036D01*
X79922636Y-65931035D01*
X79922635Y-65931033D01*
X79821647Y-65866132D01*
X79813654Y-65860995D01*
X79689358Y-65824500D01*
X79559814Y-65824500D01*
X79435517Y-65860995D01*
X79326540Y-65931031D01*
X79326533Y-65931036D01*
X79288909Y-65974459D01*
X79244676Y-65999070D01*
X79232983Y-66000000D01*
X57768505Y-66000000D01*
X57720939Y-65982687D01*
X57695629Y-65938850D01*
X57704419Y-65889000D01*
X57725007Y-65866134D01*
X57818837Y-65797963D01*
X57923600Y-65671326D01*
X57993579Y-65522613D01*
X58008182Y-65446063D01*
X58024376Y-65361172D01*
X58024376Y-65361170D01*
X58021880Y-65321491D01*
X58014056Y-65197140D01*
X57996779Y-65143965D01*
X57963270Y-65040834D01*
X57963266Y-65040826D01*
X57923095Y-64977526D01*
X70896227Y-64977526D01*
X70914662Y-65105749D01*
X70914662Y-65105750D01*
X70914663Y-65105752D01*
X70968478Y-65223589D01*
X71053311Y-65321493D01*
X71162291Y-65391530D01*
X71286588Y-65428026D01*
X71416132Y-65428026D01*
X71540429Y-65391530D01*
X71649409Y-65321493D01*
X71734242Y-65223589D01*
X71775699Y-65132811D01*
X88131156Y-65132811D01*
X88149591Y-65261034D01*
X88149591Y-65261035D01*
X88149592Y-65261037D01*
X88203407Y-65378874D01*
X88288240Y-65476778D01*
X88397220Y-65546815D01*
X88521517Y-65583311D01*
X88651061Y-65583311D01*
X88775358Y-65546815D01*
X88884338Y-65476778D01*
X88969171Y-65378874D01*
X89022986Y-65261037D01*
X89041422Y-65132811D01*
X89022986Y-65004585D01*
X88969171Y-64886748D01*
X88894005Y-64800000D01*
X128444867Y-64800000D01*
X128463302Y-64928223D01*
X128463302Y-64928224D01*
X128463303Y-64928226D01*
X128517118Y-65046063D01*
X128601951Y-65143967D01*
X128710931Y-65214004D01*
X128835228Y-65250500D01*
X128964772Y-65250500D01*
X129089069Y-65214004D01*
X129110860Y-65200000D01*
X144144867Y-65200000D01*
X144163302Y-65328223D01*
X144163302Y-65328224D01*
X144163303Y-65328226D01*
X144217118Y-65446063D01*
X144301951Y-65543967D01*
X144410931Y-65614004D01*
X144535228Y-65650500D01*
X144664772Y-65650500D01*
X144789069Y-65614004D01*
X144898049Y-65543967D01*
X144982882Y-65446063D01*
X145036697Y-65328226D01*
X145055133Y-65200000D01*
X145036697Y-65071774D01*
X144982882Y-64953937D01*
X144898049Y-64856033D01*
X144810860Y-64800000D01*
X144789068Y-64785995D01*
X144664772Y-64749500D01*
X144535228Y-64749500D01*
X144410931Y-64785995D01*
X144301954Y-64856031D01*
X144301950Y-64856034D01*
X144217119Y-64953935D01*
X144163302Y-65071776D01*
X144144867Y-65200000D01*
X129110860Y-65200000D01*
X129198049Y-65143967D01*
X129282882Y-65046063D01*
X129336697Y-64928226D01*
X129355133Y-64800000D01*
X129340755Y-64700000D01*
X142544867Y-64700000D01*
X142563302Y-64828223D01*
X142563302Y-64828224D01*
X142563303Y-64828226D01*
X142617118Y-64946063D01*
X142701951Y-65043967D01*
X142810931Y-65114004D01*
X142935228Y-65150500D01*
X143064772Y-65150500D01*
X143189069Y-65114004D01*
X143298049Y-65043967D01*
X143382882Y-64946063D01*
X143436697Y-64828226D01*
X143455133Y-64700000D01*
X143436697Y-64571774D01*
X143382882Y-64453937D01*
X143298049Y-64356033D01*
X143191794Y-64287747D01*
X143189068Y-64285995D01*
X143064772Y-64249500D01*
X142935228Y-64249500D01*
X142810931Y-64285995D01*
X142701954Y-64356031D01*
X142701950Y-64356034D01*
X142617119Y-64453935D01*
X142617118Y-64453936D01*
X142617118Y-64453937D01*
X142590210Y-64512855D01*
X142563302Y-64571776D01*
X142544867Y-64700000D01*
X129340755Y-64700000D01*
X129336697Y-64671774D01*
X129282882Y-64553937D01*
X129198049Y-64456033D01*
X129129924Y-64412251D01*
X129099270Y-64371972D01*
X129101679Y-64321410D01*
X129129923Y-64287749D01*
X129198051Y-64243967D01*
X129282884Y-64146063D01*
X129336699Y-64028226D01*
X129355135Y-63900000D01*
X129336699Y-63771774D01*
X129282884Y-63653937D01*
X129198051Y-63556033D01*
X129131034Y-63512964D01*
X129089070Y-63485995D01*
X128964774Y-63449500D01*
X128835230Y-63449500D01*
X128710933Y-63485995D01*
X128601956Y-63556031D01*
X128601952Y-63556034D01*
X128517121Y-63653935D01*
X128517120Y-63653936D01*
X128517120Y-63653937D01*
X128507729Y-63674500D01*
X128463304Y-63771776D01*
X128444869Y-63900000D01*
X128463304Y-64028223D01*
X128463304Y-64028224D01*
X128463305Y-64028226D01*
X128517120Y-64146063D01*
X128601953Y-64243967D01*
X128667350Y-64285995D01*
X128670075Y-64287746D01*
X128700731Y-64328027D01*
X128698322Y-64378588D01*
X128670076Y-64412251D01*
X128665022Y-64415500D01*
X128601951Y-64456033D01*
X128601950Y-64456034D01*
X128517119Y-64553935D01*
X128517118Y-64553936D01*
X128517118Y-64553937D01*
X128493492Y-64605671D01*
X128463302Y-64671776D01*
X128444867Y-64800000D01*
X88894005Y-64800000D01*
X88884338Y-64788844D01*
X88792680Y-64729939D01*
X88775357Y-64718806D01*
X88651061Y-64682311D01*
X88521517Y-64682311D01*
X88397220Y-64718806D01*
X88288243Y-64788842D01*
X88288239Y-64788845D01*
X88203408Y-64886746D01*
X88149591Y-65004587D01*
X88131156Y-65132811D01*
X71775699Y-65132811D01*
X71788057Y-65105752D01*
X71806493Y-64977526D01*
X71788057Y-64849300D01*
X71734242Y-64731463D01*
X71649409Y-64633559D01*
X71553273Y-64571776D01*
X71540428Y-64563521D01*
X71416132Y-64527026D01*
X71286588Y-64527026D01*
X71162291Y-64563521D01*
X71053314Y-64633557D01*
X71053310Y-64633560D01*
X70968479Y-64731461D01*
X70968478Y-64731462D01*
X70968478Y-64731463D01*
X70960241Y-64749500D01*
X70914662Y-64849302D01*
X70896227Y-64977526D01*
X57923095Y-64977526D01*
X57875205Y-64902064D01*
X57875203Y-64902062D01*
X57875202Y-64902060D01*
X57755393Y-64789552D01*
X57755392Y-64789551D01*
X57611368Y-64710373D01*
X57611369Y-64710373D01*
X57452181Y-64669501D01*
X57452180Y-64669500D01*
X57452177Y-64669500D01*
X56229075Y-64669500D01*
X56229067Y-64669500D01*
X56106947Y-64684927D01*
X55954131Y-64745431D01*
X55954130Y-64745431D01*
X55954129Y-64745432D01*
X55903059Y-64782536D01*
X55821162Y-64842037D01*
X55716402Y-64968669D01*
X55716397Y-64968678D01*
X55646421Y-65117384D01*
X55646419Y-65117391D01*
X55615624Y-65278826D01*
X55625943Y-65442856D01*
X55625944Y-65442862D01*
X55676729Y-65599165D01*
X55676733Y-65599173D01*
X55764794Y-65737935D01*
X55764796Y-65737937D01*
X55764798Y-65737940D01*
X55884607Y-65850448D01*
X55884609Y-65850449D01*
X55884610Y-65850450D01*
X55904079Y-65861154D01*
X55937421Y-65899240D01*
X55938481Y-65949848D01*
X55906763Y-65989297D01*
X55868429Y-66000000D01*
X55274000Y-66000000D01*
X55226434Y-65982687D01*
X55201124Y-65938850D01*
X55200000Y-65926000D01*
X55200000Y-63926197D01*
X55790795Y-63926197D01*
X55805700Y-63997924D01*
X55820186Y-64067634D01*
X55820187Y-64067636D01*
X55820189Y-64067642D01*
X55886643Y-64195892D01*
X55886646Y-64195896D01*
X55985245Y-64301469D01*
X56108672Y-64376526D01*
X56195204Y-64400771D01*
X56247771Y-64415500D01*
X56247772Y-64415500D01*
X56355942Y-64415500D01*
X56355949Y-64415500D01*
X56463111Y-64400771D01*
X56595609Y-64343219D01*
X56707665Y-64252054D01*
X56744409Y-64200000D01*
X58144867Y-64200000D01*
X58163302Y-64328223D01*
X58163302Y-64328224D01*
X58163303Y-64328226D01*
X58217118Y-64446063D01*
X58301951Y-64543967D01*
X58410931Y-64614004D01*
X58535228Y-64650500D01*
X58664772Y-64650500D01*
X58789069Y-64614004D01*
X58898049Y-64543967D01*
X58982882Y-64446063D01*
X59036697Y-64328226D01*
X59055133Y-64200000D01*
X59044350Y-64125000D01*
X101870179Y-64125000D01*
X101888614Y-64253223D01*
X101888614Y-64253224D01*
X101888615Y-64253226D01*
X101942430Y-64371063D01*
X102027263Y-64468967D01*
X102136243Y-64539004D01*
X102260540Y-64575500D01*
X102390084Y-64575500D01*
X102514381Y-64539004D01*
X102623361Y-64468967D01*
X102708194Y-64371063D01*
X102762009Y-64253226D01*
X102780445Y-64125000D01*
X106661719Y-64125000D01*
X106680154Y-64253223D01*
X106680154Y-64253224D01*
X106680155Y-64253226D01*
X106733970Y-64371063D01*
X106818803Y-64468967D01*
X106927783Y-64539004D01*
X107052080Y-64575500D01*
X107181624Y-64575500D01*
X107305921Y-64539004D01*
X107414901Y-64468967D01*
X107499734Y-64371063D01*
X107553549Y-64253226D01*
X107571985Y-64125000D01*
X107553549Y-63996774D01*
X107499734Y-63878937D01*
X107414901Y-63781033D01*
X107347884Y-63737964D01*
X107305920Y-63710995D01*
X107181624Y-63674500D01*
X107052080Y-63674500D01*
X106927783Y-63710995D01*
X106818806Y-63781031D01*
X106818802Y-63781034D01*
X106733971Y-63878935D01*
X106680154Y-63996776D01*
X106661719Y-64125000D01*
X102780445Y-64125000D01*
X102762009Y-63996774D01*
X102708194Y-63878937D01*
X102623361Y-63781033D01*
X102556344Y-63737964D01*
X102514380Y-63710995D01*
X102390084Y-63674500D01*
X102260540Y-63674500D01*
X102136243Y-63710995D01*
X102027266Y-63781031D01*
X102027262Y-63781034D01*
X101942431Y-63878935D01*
X101888614Y-63996776D01*
X101870179Y-64125000D01*
X59044350Y-64125000D01*
X59036697Y-64071774D01*
X58982882Y-63953937D01*
X58898049Y-63856033D01*
X58793750Y-63789004D01*
X58789068Y-63785995D01*
X58664772Y-63749500D01*
X58535228Y-63749500D01*
X58410931Y-63785995D01*
X58301954Y-63856031D01*
X58301950Y-63856034D01*
X58217119Y-63953935D01*
X58217118Y-63953936D01*
X58217118Y-63953937D01*
X58197555Y-63996774D01*
X58163302Y-64071776D01*
X58144867Y-64200000D01*
X56744409Y-64200000D01*
X56790971Y-64134037D01*
X56839346Y-63997921D01*
X56839425Y-63996776D01*
X56849204Y-63853802D01*
X56849204Y-63853801D01*
X56834083Y-63781034D01*
X56819814Y-63712366D01*
X56819810Y-63712360D01*
X56819810Y-63712357D01*
X56761591Y-63600000D01*
X73444867Y-63600000D01*
X73463302Y-63728223D01*
X73463302Y-63728224D01*
X73463303Y-63728226D01*
X73517118Y-63846063D01*
X73601951Y-63943967D01*
X73710931Y-64014004D01*
X73835228Y-64050500D01*
X73964772Y-64050500D01*
X74089069Y-64014004D01*
X74198049Y-63943967D01*
X74282882Y-63846063D01*
X74336697Y-63728226D01*
X74351539Y-63625000D01*
X86644867Y-63625000D01*
X86663302Y-63753223D01*
X86663302Y-63753224D01*
X86663303Y-63753226D01*
X86717118Y-63871063D01*
X86801951Y-63968967D01*
X86910931Y-64039004D01*
X87035228Y-64075500D01*
X87164772Y-64075500D01*
X87289069Y-64039004D01*
X87398049Y-63968967D01*
X87482882Y-63871063D01*
X87536697Y-63753226D01*
X87555133Y-63625000D01*
X87536697Y-63496774D01*
X87482882Y-63378937D01*
X87398049Y-63281033D01*
X87331032Y-63237964D01*
X87289068Y-63210995D01*
X87164772Y-63174500D01*
X87035228Y-63174500D01*
X86910931Y-63210995D01*
X86801954Y-63281031D01*
X86801950Y-63281034D01*
X86717119Y-63378935D01*
X86663302Y-63496776D01*
X86644867Y-63625000D01*
X74351539Y-63625000D01*
X74355133Y-63600000D01*
X74336697Y-63471774D01*
X74282882Y-63353937D01*
X74198049Y-63256033D01*
X74105840Y-63196774D01*
X74089068Y-63185995D01*
X73964772Y-63149500D01*
X73835228Y-63149500D01*
X73710931Y-63185995D01*
X73601954Y-63256031D01*
X73601950Y-63256034D01*
X73517119Y-63353935D01*
X73463302Y-63471776D01*
X73444867Y-63600000D01*
X56761591Y-63600000D01*
X56753356Y-63584107D01*
X56753353Y-63584103D01*
X56654754Y-63478530D01*
X56531328Y-63403474D01*
X56392229Y-63364500D01*
X56392228Y-63364500D01*
X56284051Y-63364500D01*
X56284046Y-63364500D01*
X56176892Y-63379228D01*
X56176890Y-63379228D01*
X56176889Y-63379229D01*
X56044391Y-63436781D01*
X56044389Y-63436782D01*
X56044388Y-63436782D01*
X55932334Y-63527946D01*
X55932333Y-63527947D01*
X55849032Y-63645958D01*
X55849027Y-63645966D01*
X55800655Y-63782075D01*
X55800652Y-63782087D01*
X55790795Y-63926197D01*
X55200000Y-63926197D01*
X55200000Y-62676244D01*
X83285720Y-62676244D01*
X83304155Y-62804467D01*
X83304155Y-62804468D01*
X83304156Y-62804470D01*
X83357971Y-62922307D01*
X83442804Y-63020211D01*
X83551784Y-63090248D01*
X83676081Y-63126744D01*
X83805625Y-63126744D01*
X83929922Y-63090248D01*
X84038902Y-63020211D01*
X84123735Y-62922307D01*
X84177550Y-62804470D01*
X84194257Y-62688267D01*
X84585720Y-62688267D01*
X84604155Y-62816490D01*
X84604155Y-62816491D01*
X84604156Y-62816493D01*
X84657971Y-62934330D01*
X84742804Y-63032234D01*
X84851784Y-63102271D01*
X84976081Y-63138767D01*
X85105625Y-63138767D01*
X85229922Y-63102271D01*
X85338902Y-63032234D01*
X85423735Y-62934330D01*
X85448311Y-62880516D01*
X90815074Y-62880516D01*
X90833509Y-63008739D01*
X90833509Y-63008740D01*
X90833510Y-63008742D01*
X90887325Y-63126579D01*
X90972158Y-63224483D01*
X91081138Y-63294520D01*
X91205435Y-63331016D01*
X91334979Y-63331016D01*
X91459276Y-63294520D01*
X91568256Y-63224483D01*
X91653089Y-63126579D01*
X91665227Y-63100000D01*
X92966536Y-63100000D01*
X92984971Y-63228223D01*
X92984971Y-63228224D01*
X92984972Y-63228226D01*
X93038787Y-63346063D01*
X93123620Y-63443967D01*
X93232600Y-63514004D01*
X93356897Y-63550500D01*
X93486441Y-63550500D01*
X93610738Y-63514004D01*
X93719718Y-63443967D01*
X93804551Y-63346063D01*
X93814170Y-63325000D01*
X118713926Y-63325000D01*
X118732361Y-63453223D01*
X118732361Y-63453224D01*
X118732362Y-63453226D01*
X118786177Y-63571063D01*
X118871010Y-63668967D01*
X118979990Y-63739004D01*
X119104287Y-63775500D01*
X119233831Y-63775500D01*
X119358128Y-63739004D01*
X119467108Y-63668967D01*
X119551941Y-63571063D01*
X119605756Y-63453226D01*
X119617003Y-63375000D01*
X119873797Y-63375000D01*
X119892232Y-63503223D01*
X119892232Y-63503224D01*
X119892233Y-63503226D01*
X119946048Y-63621063D01*
X120030881Y-63718967D01*
X120139861Y-63789004D01*
X120264158Y-63825500D01*
X120393702Y-63825500D01*
X120517999Y-63789004D01*
X120626979Y-63718967D01*
X120711812Y-63621063D01*
X120765627Y-63503226D01*
X120784063Y-63375000D01*
X120765627Y-63246774D01*
X120711812Y-63128937D01*
X120626979Y-63031033D01*
X120534770Y-62971774D01*
X120517998Y-62960995D01*
X120393702Y-62924500D01*
X120264158Y-62924500D01*
X120139861Y-62960995D01*
X120030884Y-63031031D01*
X120030880Y-63031034D01*
X119946049Y-63128935D01*
X119892232Y-63246776D01*
X119873797Y-63375000D01*
X119617003Y-63375000D01*
X119624192Y-63325000D01*
X119605756Y-63196774D01*
X119551941Y-63078937D01*
X119467108Y-62981033D01*
X119375730Y-62922308D01*
X119358127Y-62910995D01*
X119233831Y-62874500D01*
X119104287Y-62874500D01*
X118979990Y-62910995D01*
X118871013Y-62981031D01*
X118871009Y-62981034D01*
X118786178Y-63078935D01*
X118786177Y-63078936D01*
X118786177Y-63078937D01*
X118759269Y-63137855D01*
X118732361Y-63196776D01*
X118713926Y-63325000D01*
X93814170Y-63325000D01*
X93858366Y-63228226D01*
X93876802Y-63100000D01*
X93858366Y-62971774D01*
X93804551Y-62853937D01*
X93719718Y-62756033D01*
X93652701Y-62712964D01*
X93610737Y-62685995D01*
X93486441Y-62649500D01*
X93356897Y-62649500D01*
X93232600Y-62685995D01*
X93123623Y-62756031D01*
X93123619Y-62756034D01*
X93038788Y-62853935D01*
X92984971Y-62971776D01*
X92966536Y-63100000D01*
X91665227Y-63100000D01*
X91706904Y-63008742D01*
X91725340Y-62880516D01*
X91706904Y-62752290D01*
X91653089Y-62634453D01*
X91568256Y-62536549D01*
X91467464Y-62471774D01*
X91459275Y-62466511D01*
X91334979Y-62430016D01*
X91205435Y-62430016D01*
X91081138Y-62466511D01*
X90972161Y-62536547D01*
X90972157Y-62536550D01*
X90887326Y-62634451D01*
X90833509Y-62752292D01*
X90815074Y-62880516D01*
X85448311Y-62880516D01*
X85477550Y-62816493D01*
X85495986Y-62688267D01*
X85477550Y-62560041D01*
X85423735Y-62442204D01*
X85338902Y-62344300D01*
X85269970Y-62300000D01*
X85229921Y-62274262D01*
X85105625Y-62237767D01*
X84976081Y-62237767D01*
X84851784Y-62274262D01*
X84742807Y-62344298D01*
X84742803Y-62344301D01*
X84657972Y-62442202D01*
X84604155Y-62560043D01*
X84585720Y-62688267D01*
X84194257Y-62688267D01*
X84195986Y-62676244D01*
X84177550Y-62548018D01*
X84123735Y-62430181D01*
X84038902Y-62332277D01*
X83971885Y-62289208D01*
X83929921Y-62262239D01*
X83805625Y-62225744D01*
X83676081Y-62225744D01*
X83551784Y-62262239D01*
X83442807Y-62332275D01*
X83442803Y-62332278D01*
X83357972Y-62430179D01*
X83304155Y-62548020D01*
X83285720Y-62676244D01*
X55200000Y-62676244D01*
X55200000Y-61609646D01*
X55217313Y-61562080D01*
X55261150Y-61536770D01*
X55294849Y-61538644D01*
X55335226Y-61550500D01*
X55335228Y-61550500D01*
X55394877Y-61550500D01*
X55442443Y-61567813D01*
X55447203Y-61572174D01*
X55794318Y-61919289D01*
X55801404Y-61929137D01*
X55801910Y-61928756D01*
X55806041Y-61934227D01*
X55806042Y-61934228D01*
X55823891Y-61950500D01*
X55841785Y-61966812D01*
X55843022Y-61967993D01*
X55857203Y-61982174D01*
X55860856Y-61984676D01*
X55864858Y-61987847D01*
X55877990Y-61999818D01*
X55889065Y-62009915D01*
X55889066Y-62009915D01*
X55889067Y-62009916D01*
X55896528Y-62012806D01*
X55900931Y-62014512D01*
X55916021Y-62022465D01*
X55926519Y-62029657D01*
X55958388Y-62037152D01*
X55963287Y-62038668D01*
X55993827Y-62050500D01*
X56006553Y-62050500D01*
X56023488Y-62052464D01*
X56035881Y-62055379D01*
X56068315Y-62050854D01*
X56073426Y-62050500D01*
X81449574Y-62050500D01*
X81461550Y-62052453D01*
X81461638Y-62051826D01*
X81468426Y-62052773D01*
X81516764Y-62050538D01*
X81518449Y-62050500D01*
X81538503Y-62050500D01*
X81538505Y-62050500D01*
X81542848Y-62049687D01*
X81547927Y-62049097D01*
X81580653Y-62047585D01*
X81592300Y-62042441D01*
X81608588Y-62037398D01*
X81621094Y-62035061D01*
X81648942Y-62017818D01*
X81653455Y-62015438D01*
X81683426Y-62002206D01*
X81692422Y-61993208D01*
X81705799Y-61982614D01*
X81706517Y-61982170D01*
X81716613Y-61975919D01*
X81736348Y-61949783D01*
X81739705Y-61945925D01*
X81813459Y-61872173D01*
X81859335Y-61850782D01*
X81865784Y-61850500D01*
X94731359Y-61850500D01*
X94778925Y-61867813D01*
X94804235Y-61911650D01*
X94795445Y-61961500D01*
X94787284Y-61972960D01*
X94717121Y-62053932D01*
X94717119Y-62053934D01*
X94663302Y-62171776D01*
X94644867Y-62300000D01*
X94663302Y-62428223D01*
X94663302Y-62428224D01*
X94663303Y-62428226D01*
X94717118Y-62546063D01*
X94801951Y-62643967D01*
X94910931Y-62714004D01*
X95035228Y-62750500D01*
X95164772Y-62750500D01*
X95289069Y-62714004D01*
X95398049Y-62643967D01*
X95436146Y-62600000D01*
X131644867Y-62600000D01*
X131663302Y-62728223D01*
X131663302Y-62728224D01*
X131663303Y-62728226D01*
X131717118Y-62846063D01*
X131801951Y-62943967D01*
X131910931Y-63014004D01*
X132035228Y-63050500D01*
X132164772Y-63050500D01*
X132289069Y-63014004D01*
X132398049Y-62943967D01*
X132482882Y-62846063D01*
X132511564Y-62783257D01*
X132547071Y-62747183D01*
X132597461Y-62742372D01*
X132639155Y-62771076D01*
X132652643Y-62819864D01*
X132652123Y-62824531D01*
X132644867Y-62874999D01*
X132663302Y-63003223D01*
X132663302Y-63003224D01*
X132663303Y-63003226D01*
X132717118Y-63121063D01*
X132801951Y-63218967D01*
X132910931Y-63289004D01*
X133035228Y-63325500D01*
X133164772Y-63325500D01*
X133289069Y-63289004D01*
X133398049Y-63218967D01*
X133482882Y-63121063D01*
X133536697Y-63003226D01*
X133555133Y-62875000D01*
X133536697Y-62746774D01*
X133482882Y-62628937D01*
X133398049Y-62531033D01*
X133305840Y-62471774D01*
X133289068Y-62460995D01*
X133164772Y-62424500D01*
X133035228Y-62424500D01*
X132910931Y-62460995D01*
X132801954Y-62531031D01*
X132801950Y-62531034D01*
X132717118Y-62628936D01*
X132717117Y-62628938D01*
X132688435Y-62691741D01*
X132652927Y-62727816D01*
X132602537Y-62732627D01*
X132560844Y-62703922D01*
X132547356Y-62655133D01*
X132547872Y-62650497D01*
X132555133Y-62600000D01*
X132536697Y-62471774D01*
X132482882Y-62353937D01*
X132398049Y-62256033D01*
X132331032Y-62212964D01*
X132289068Y-62185995D01*
X132164772Y-62149500D01*
X132035228Y-62149500D01*
X131910931Y-62185995D01*
X131801954Y-62256031D01*
X131801950Y-62256034D01*
X131717119Y-62353935D01*
X131663302Y-62471776D01*
X131644867Y-62600000D01*
X95436146Y-62600000D01*
X95482882Y-62546063D01*
X95536697Y-62428226D01*
X95555133Y-62300000D01*
X95536697Y-62171774D01*
X95482882Y-62053937D01*
X95482880Y-62053935D01*
X95482880Y-62053934D01*
X95482878Y-62053932D01*
X95412716Y-61972960D01*
X95394650Y-61925674D01*
X95411206Y-61877839D01*
X95454636Y-61851837D01*
X95468641Y-61850500D01*
X95928252Y-61850500D01*
X95940228Y-61852453D01*
X95940316Y-61851826D01*
X95947104Y-61852773D01*
X95995442Y-61850538D01*
X95997127Y-61850500D01*
X96017181Y-61850500D01*
X96017183Y-61850500D01*
X96021526Y-61849687D01*
X96026605Y-61849097D01*
X96059331Y-61847585D01*
X96070978Y-61842441D01*
X96087266Y-61837398D01*
X96099772Y-61835061D01*
X96127620Y-61817818D01*
X96132133Y-61815438D01*
X96162104Y-61802206D01*
X96171100Y-61793208D01*
X96184477Y-61782614D01*
X96195291Y-61775919D01*
X96215026Y-61749783D01*
X96218390Y-61745919D01*
X96742136Y-61222174D01*
X96788013Y-61200782D01*
X96794462Y-61200500D01*
X108878252Y-61200500D01*
X108890228Y-61202453D01*
X108890316Y-61201826D01*
X108897104Y-61202773D01*
X108945442Y-61200538D01*
X108947127Y-61200500D01*
X108967180Y-61200500D01*
X108967183Y-61200500D01*
X108971528Y-61199687D01*
X108976616Y-61199096D01*
X108986291Y-61198649D01*
X109034605Y-61213748D01*
X109061910Y-61256371D01*
X109055430Y-61306573D01*
X109045631Y-61321029D01*
X109017121Y-61353932D01*
X109017119Y-61353934D01*
X108963302Y-61471776D01*
X108944867Y-61600000D01*
X108963302Y-61728223D01*
X108963302Y-61728224D01*
X108963303Y-61728226D01*
X109017118Y-61846063D01*
X109101951Y-61943967D01*
X109210931Y-62014004D01*
X109335228Y-62050500D01*
X109464772Y-62050500D01*
X109589069Y-62014004D01*
X109698049Y-61943967D01*
X109782882Y-61846063D01*
X109836697Y-61728226D01*
X109855133Y-61600000D01*
X109840755Y-61500000D01*
X127944867Y-61500000D01*
X127963302Y-61628223D01*
X127963302Y-61628224D01*
X127963303Y-61628226D01*
X128017118Y-61746063D01*
X128101951Y-61843967D01*
X128210931Y-61914004D01*
X128335228Y-61950500D01*
X128464772Y-61950500D01*
X128589069Y-61914004D01*
X128698049Y-61843967D01*
X128782882Y-61746063D01*
X128836697Y-61628226D01*
X128855133Y-61500000D01*
X128836697Y-61371774D01*
X128803919Y-61300000D01*
X131744867Y-61300000D01*
X131763302Y-61428223D01*
X131763302Y-61428224D01*
X131763303Y-61428226D01*
X131817118Y-61546063D01*
X131901951Y-61643967D01*
X132010931Y-61714004D01*
X132135228Y-61750500D01*
X132264772Y-61750500D01*
X132389069Y-61714004D01*
X132498049Y-61643967D01*
X132582882Y-61546063D01*
X132636697Y-61428226D01*
X132655133Y-61300000D01*
X132636697Y-61171774D01*
X132582882Y-61053937D01*
X132498049Y-60956033D01*
X132410860Y-60900000D01*
X132389068Y-60885995D01*
X132264772Y-60849500D01*
X132135228Y-60849500D01*
X132010931Y-60885995D01*
X131901954Y-60956031D01*
X131901950Y-60956034D01*
X131817119Y-61053935D01*
X131817118Y-61053936D01*
X131817118Y-61053937D01*
X131802477Y-61085995D01*
X131763302Y-61171776D01*
X131744867Y-61300000D01*
X128803919Y-61300000D01*
X128782882Y-61253937D01*
X128698049Y-61156033D01*
X128620134Y-61105960D01*
X128589068Y-61085995D01*
X128464772Y-61049500D01*
X128335228Y-61049500D01*
X128210931Y-61085995D01*
X128101954Y-61156031D01*
X128101950Y-61156034D01*
X128017119Y-61253935D01*
X128017118Y-61253936D01*
X128017118Y-61253937D01*
X128008430Y-61272960D01*
X127963302Y-61371776D01*
X127944867Y-61500000D01*
X109840755Y-61500000D01*
X109836697Y-61471774D01*
X109782882Y-61353937D01*
X109782880Y-61353935D01*
X109782880Y-61353934D01*
X109782878Y-61353932D01*
X109712716Y-61272960D01*
X109694650Y-61225674D01*
X109711206Y-61177839D01*
X109754636Y-61151837D01*
X109768641Y-61150500D01*
X118388913Y-61150500D01*
X118400889Y-61152453D01*
X118400977Y-61151826D01*
X118407765Y-61152773D01*
X118456103Y-61150538D01*
X118457788Y-61150500D01*
X118477842Y-61150500D01*
X118477844Y-61150500D01*
X118482187Y-61149687D01*
X118487266Y-61149097D01*
X118519992Y-61147585D01*
X118531639Y-61142441D01*
X118547927Y-61137398D01*
X118560433Y-61135061D01*
X118588281Y-61117818D01*
X118592794Y-61115438D01*
X118622765Y-61102206D01*
X118631761Y-61093208D01*
X118645138Y-61082614D01*
X118655952Y-61075919D01*
X118672551Y-61053937D01*
X118675687Y-61049783D01*
X118679051Y-61045919D01*
X119107280Y-60617690D01*
X133319867Y-60617690D01*
X133338302Y-60745913D01*
X133338302Y-60745914D01*
X133338303Y-60745916D01*
X133392118Y-60863753D01*
X133476951Y-60961657D01*
X133585931Y-61031694D01*
X133710228Y-61068190D01*
X133839772Y-61068190D01*
X133964069Y-61031694D01*
X134073049Y-60961657D01*
X134157882Y-60863753D01*
X134211697Y-60745916D01*
X134230133Y-60617690D01*
X134227590Y-60600000D01*
X137544867Y-60600000D01*
X137563302Y-60728223D01*
X137563302Y-60728224D01*
X137563303Y-60728226D01*
X137617118Y-60846063D01*
X137701951Y-60943967D01*
X137810931Y-61014004D01*
X137935228Y-61050500D01*
X138064772Y-61050500D01*
X138189069Y-61014004D01*
X138298049Y-60943967D01*
X138382882Y-60846063D01*
X138436697Y-60728226D01*
X138455133Y-60600000D01*
X142844867Y-60600000D01*
X142863302Y-60728223D01*
X142863302Y-60728224D01*
X142863303Y-60728226D01*
X142917118Y-60846063D01*
X143001951Y-60943967D01*
X143110931Y-61014004D01*
X143235228Y-61050500D01*
X143364772Y-61050500D01*
X143489069Y-61014004D01*
X143598049Y-60943967D01*
X143682882Y-60846063D01*
X143736697Y-60728226D01*
X143755133Y-60600000D01*
X143736697Y-60471774D01*
X143682882Y-60353937D01*
X143598049Y-60256033D01*
X143516594Y-60203685D01*
X143489068Y-60185995D01*
X143364772Y-60149500D01*
X143235228Y-60149500D01*
X143110931Y-60185995D01*
X143001954Y-60256031D01*
X143001950Y-60256034D01*
X142917119Y-60353935D01*
X142863302Y-60471776D01*
X142844867Y-60600000D01*
X138455133Y-60600000D01*
X138436697Y-60471774D01*
X138382882Y-60353937D01*
X138298049Y-60256033D01*
X138216594Y-60203685D01*
X138189068Y-60185995D01*
X138064772Y-60149500D01*
X137935228Y-60149500D01*
X137810931Y-60185995D01*
X137701954Y-60256031D01*
X137701950Y-60256034D01*
X137617119Y-60353935D01*
X137563302Y-60471776D01*
X137544867Y-60600000D01*
X134227590Y-60600000D01*
X134211697Y-60489464D01*
X134157882Y-60371627D01*
X134073049Y-60273723D01*
X134006032Y-60230654D01*
X133964068Y-60203685D01*
X133839772Y-60167190D01*
X133710228Y-60167190D01*
X133585931Y-60203685D01*
X133476954Y-60273721D01*
X133476950Y-60273724D01*
X133392119Y-60371625D01*
X133338302Y-60489466D01*
X133319867Y-60617690D01*
X119107280Y-60617690D01*
X119666647Y-60058324D01*
X131955452Y-60058324D01*
X131973887Y-60186547D01*
X131973887Y-60186548D01*
X131973888Y-60186550D01*
X132027703Y-60304387D01*
X132112536Y-60402291D01*
X132221516Y-60472328D01*
X132345813Y-60508824D01*
X132475357Y-60508824D01*
X132599654Y-60472328D01*
X132708634Y-60402291D01*
X132793467Y-60304387D01*
X132847282Y-60186550D01*
X132865718Y-60058324D01*
X132847282Y-59930098D01*
X132793467Y-59812261D01*
X132708634Y-59714357D01*
X132636848Y-59668223D01*
X132599653Y-59644319D01*
X132475357Y-59607824D01*
X132345813Y-59607824D01*
X132221516Y-59644319D01*
X132112539Y-59714355D01*
X132112535Y-59714358D01*
X132027704Y-59812259D01*
X131973887Y-59930100D01*
X131955452Y-60058324D01*
X119666647Y-60058324D01*
X119952797Y-59772174D01*
X119998674Y-59750782D01*
X120005123Y-59750500D01*
X120064772Y-59750500D01*
X120189069Y-59714004D01*
X120298049Y-59643967D01*
X120336146Y-59600000D01*
X128044867Y-59600000D01*
X128063302Y-59728223D01*
X128063302Y-59728224D01*
X128063303Y-59728226D01*
X128117118Y-59846063D01*
X128201951Y-59943967D01*
X128310931Y-60014004D01*
X128435228Y-60050500D01*
X128564772Y-60050500D01*
X128689069Y-60014004D01*
X128798049Y-59943967D01*
X128882882Y-59846063D01*
X128936697Y-59728226D01*
X128955133Y-59600000D01*
X128936697Y-59471774D01*
X128882882Y-59353937D01*
X128882880Y-59353935D01*
X128882880Y-59353934D01*
X128882878Y-59353932D01*
X128823984Y-59285964D01*
X128805918Y-59238678D01*
X128822474Y-59190843D01*
X128823984Y-59189044D01*
X128826626Y-59185995D01*
X128904289Y-59096366D01*
X128958104Y-58978529D01*
X128976540Y-58850303D01*
X128958104Y-58722077D01*
X128904289Y-58604240D01*
X128900615Y-58600000D01*
X135244867Y-58600000D01*
X135263302Y-58728223D01*
X135263302Y-58728224D01*
X135263303Y-58728226D01*
X135317118Y-58846063D01*
X135401951Y-58943967D01*
X135510931Y-59014004D01*
X135529980Y-59019597D01*
X135570742Y-59049608D01*
X135582677Y-59098800D01*
X135560200Y-59144155D01*
X135549142Y-59152851D01*
X135497569Y-59185996D01*
X135481951Y-59196033D01*
X135481950Y-59196034D01*
X135397119Y-59293935D01*
X135343302Y-59411776D01*
X135324867Y-59540000D01*
X135343302Y-59668223D01*
X135343302Y-59668224D01*
X135343303Y-59668226D01*
X135397118Y-59786063D01*
X135481951Y-59883967D01*
X135590931Y-59954004D01*
X135715228Y-59990500D01*
X135844772Y-59990500D01*
X135969069Y-59954004D01*
X136078049Y-59883967D01*
X136162882Y-59786063D01*
X136216697Y-59668226D01*
X136235133Y-59540000D01*
X136216697Y-59411774D01*
X136162882Y-59293937D01*
X136078049Y-59196033D01*
X135969069Y-59125996D01*
X135969066Y-59125994D01*
X135969065Y-59125993D01*
X135950018Y-59120401D01*
X135909256Y-59090389D01*
X135897322Y-59041197D01*
X135919800Y-58995843D01*
X135930850Y-58987152D01*
X135998049Y-58943967D01*
X136082882Y-58846063D01*
X136136697Y-58728226D01*
X136155133Y-58600000D01*
X136136697Y-58471774D01*
X136082882Y-58353937D01*
X135998049Y-58256033D01*
X135931032Y-58212964D01*
X135889068Y-58185995D01*
X135764772Y-58149500D01*
X135635228Y-58149500D01*
X135510931Y-58185995D01*
X135401954Y-58256031D01*
X135401950Y-58256034D01*
X135317119Y-58353935D01*
X135263302Y-58471776D01*
X135244867Y-58600000D01*
X128900615Y-58600000D01*
X128819456Y-58506336D01*
X128752439Y-58463267D01*
X128710475Y-58436298D01*
X128586179Y-58399803D01*
X128456635Y-58399803D01*
X128332338Y-58436298D01*
X128223361Y-58506334D01*
X128223357Y-58506337D01*
X128138526Y-58604238D01*
X128138525Y-58604239D01*
X128138525Y-58604240D01*
X128127572Y-58628223D01*
X128084709Y-58722079D01*
X128066274Y-58850303D01*
X128084709Y-58978526D01*
X128084709Y-58978527D01*
X128084710Y-58978529D01*
X128138525Y-59096366D01*
X128197423Y-59164339D01*
X128215488Y-59211624D01*
X128198932Y-59259459D01*
X128197423Y-59261257D01*
X128117121Y-59353932D01*
X128117119Y-59353934D01*
X128063302Y-59471776D01*
X128044867Y-59600000D01*
X120336146Y-59600000D01*
X120382882Y-59546063D01*
X120436697Y-59428226D01*
X120455133Y-59300000D01*
X120436697Y-59171774D01*
X120382882Y-59053937D01*
X120298049Y-58956033D01*
X120231032Y-58912964D01*
X120189068Y-58885995D01*
X120064772Y-58849500D01*
X119935228Y-58849500D01*
X119810931Y-58885995D01*
X119701954Y-58956031D01*
X119701950Y-58956034D01*
X119617119Y-59053935D01*
X119563302Y-59171776D01*
X119544114Y-59305238D01*
X119542848Y-59305055D01*
X119527554Y-59347075D01*
X119523193Y-59351835D01*
X118347203Y-60527826D01*
X118301327Y-60549218D01*
X118294877Y-60549500D01*
X109050427Y-60549500D01*
X109038450Y-60547546D01*
X109038363Y-60548174D01*
X109031574Y-60547226D01*
X109000311Y-60548672D01*
X108983236Y-60549461D01*
X108981552Y-60549500D01*
X108961488Y-60549500D01*
X108957154Y-60550311D01*
X108952064Y-60550902D01*
X108928383Y-60551997D01*
X108919345Y-60552415D01*
X108907702Y-60557556D01*
X108891416Y-60562599D01*
X108878911Y-60564937D01*
X108878904Y-60564939D01*
X108851066Y-60582175D01*
X108846529Y-60584566D01*
X108826988Y-60593195D01*
X108797099Y-60599500D01*
X98859888Y-60599500D01*
X98812322Y-60582187D01*
X98787012Y-60538350D01*
X98795802Y-60488500D01*
X98811430Y-60469573D01*
X98812122Y-60468971D01*
X98812130Y-60468967D01*
X98896963Y-60371063D01*
X98950778Y-60253226D01*
X98969214Y-60125000D01*
X98950778Y-59996774D01*
X98896963Y-59878937D01*
X98812130Y-59781033D01*
X98745113Y-59737964D01*
X98703149Y-59710995D01*
X98578853Y-59674500D01*
X98449309Y-59674500D01*
X98325012Y-59710995D01*
X98216035Y-59781031D01*
X98216031Y-59781034D01*
X98131200Y-59878935D01*
X98077383Y-59996776D01*
X98058948Y-60125000D01*
X98077383Y-60253223D01*
X98077383Y-60253224D01*
X98077384Y-60253226D01*
X98131199Y-60371063D01*
X98216032Y-60468967D01*
X98216035Y-60468969D01*
X98216732Y-60469573D01*
X98217044Y-60470134D01*
X98219498Y-60472966D01*
X98218905Y-60473479D01*
X98241344Y-60513805D01*
X98231766Y-60563510D01*
X98192480Y-60595429D01*
X98168274Y-60599500D01*
X96700427Y-60599500D01*
X96688450Y-60597546D01*
X96688363Y-60598174D01*
X96681574Y-60597226D01*
X96650311Y-60598672D01*
X96633236Y-60599461D01*
X96631552Y-60599500D01*
X96611488Y-60599500D01*
X96607154Y-60600311D01*
X96602064Y-60600902D01*
X96578383Y-60601997D01*
X96569345Y-60602415D01*
X96557702Y-60607556D01*
X96541416Y-60612599D01*
X96528911Y-60614937D01*
X96528905Y-60614939D01*
X96501067Y-60632175D01*
X96496535Y-60634564D01*
X96489462Y-60637687D01*
X96466573Y-60647793D01*
X96457573Y-60656794D01*
X96444209Y-60667380D01*
X96433385Y-60674082D01*
X96433383Y-60674084D01*
X96413652Y-60700212D01*
X96410285Y-60704081D01*
X95886542Y-61227826D01*
X95840666Y-61249218D01*
X95834216Y-61249500D01*
X89768641Y-61249500D01*
X89721075Y-61232187D01*
X89695765Y-61188350D01*
X89704555Y-61138500D01*
X89712716Y-61127040D01*
X89730982Y-61105960D01*
X89782882Y-61046063D01*
X89836697Y-60928226D01*
X89855133Y-60800000D01*
X89836697Y-60671774D01*
X89782882Y-60553937D01*
X89698049Y-60456033D01*
X89614425Y-60402291D01*
X89589068Y-60385995D01*
X89464772Y-60349500D01*
X89335228Y-60349500D01*
X89210931Y-60385995D01*
X89101954Y-60456031D01*
X89101950Y-60456034D01*
X89017119Y-60553935D01*
X89017118Y-60553936D01*
X89017118Y-60553937D01*
X89007270Y-60575500D01*
X88963302Y-60671776D01*
X88944867Y-60800000D01*
X88963302Y-60928223D01*
X88963302Y-60928224D01*
X88963303Y-60928226D01*
X88976002Y-60956033D01*
X89017119Y-61046065D01*
X89017121Y-61046067D01*
X89087284Y-61127040D01*
X89105350Y-61174326D01*
X89088794Y-61222161D01*
X89045364Y-61248163D01*
X89031359Y-61249500D01*
X83368641Y-61249500D01*
X83321075Y-61232187D01*
X83295765Y-61188350D01*
X83304555Y-61138500D01*
X83312716Y-61127040D01*
X83330982Y-61105960D01*
X83382882Y-61046063D01*
X83436697Y-60928226D01*
X83455133Y-60800000D01*
X83436697Y-60671774D01*
X83382882Y-60553937D01*
X83298049Y-60456033D01*
X83214425Y-60402291D01*
X83189068Y-60385995D01*
X83064772Y-60349500D01*
X82935228Y-60349500D01*
X82810931Y-60385995D01*
X82701954Y-60456031D01*
X82701950Y-60456034D01*
X82617119Y-60553935D01*
X82617118Y-60553936D01*
X82617118Y-60553937D01*
X82607270Y-60575500D01*
X82563302Y-60671776D01*
X82544867Y-60800000D01*
X82563302Y-60928223D01*
X82563302Y-60928224D01*
X82563303Y-60928226D01*
X82576002Y-60956033D01*
X82617119Y-61046065D01*
X82617121Y-61046067D01*
X82687284Y-61127040D01*
X82705350Y-61174326D01*
X82688794Y-61222161D01*
X82645364Y-61248163D01*
X82631359Y-61249500D01*
X81771749Y-61249500D01*
X81759772Y-61247546D01*
X81759685Y-61248174D01*
X81752896Y-61247226D01*
X81721633Y-61248672D01*
X81704558Y-61249461D01*
X81702874Y-61249500D01*
X81682810Y-61249500D01*
X81678476Y-61250311D01*
X81673386Y-61250902D01*
X81649705Y-61251997D01*
X81640667Y-61252415D01*
X81629024Y-61257556D01*
X81612738Y-61262599D01*
X81600233Y-61264937D01*
X81600227Y-61264939D01*
X81572389Y-61282175D01*
X81567857Y-61284564D01*
X81560784Y-61287687D01*
X81537895Y-61297793D01*
X81528895Y-61306794D01*
X81515531Y-61317380D01*
X81504707Y-61324082D01*
X81504705Y-61324084D01*
X81484974Y-61350211D01*
X81481608Y-61354080D01*
X81407865Y-61427825D01*
X81361989Y-61449218D01*
X81355538Y-61449500D01*
X81230254Y-61449500D01*
X81182688Y-61432187D01*
X81157378Y-61388350D01*
X81166168Y-61338500D01*
X81190247Y-61313247D01*
X81200632Y-61306573D01*
X81298049Y-61243967D01*
X81382882Y-61146063D01*
X81436697Y-61028226D01*
X81455133Y-60900000D01*
X81436697Y-60771774D01*
X81382882Y-60653937D01*
X81298049Y-60556033D01*
X81224590Y-60508824D01*
X81189068Y-60485995D01*
X81064772Y-60449500D01*
X80935228Y-60449500D01*
X80810931Y-60485995D01*
X80701954Y-60556031D01*
X80701950Y-60556034D01*
X80617119Y-60653935D01*
X80563302Y-60771776D01*
X80544867Y-60900000D01*
X80563302Y-61028223D01*
X80563302Y-61028224D01*
X80563303Y-61028226D01*
X80617118Y-61146063D01*
X80701951Y-61243967D01*
X80799368Y-61306573D01*
X80809753Y-61313247D01*
X80840409Y-61353528D01*
X80838000Y-61404090D01*
X80803655Y-61441274D01*
X80769746Y-61449500D01*
X56205123Y-61449500D01*
X56157557Y-61432187D01*
X56152797Y-61427826D01*
X55876807Y-61151836D01*
X55855415Y-61105960D01*
X55855163Y-61100216D01*
X55855132Y-61100003D01*
X55855133Y-61100000D01*
X55836697Y-60971774D01*
X55782882Y-60853937D01*
X55698049Y-60756033D01*
X55617210Y-60704081D01*
X55589068Y-60685995D01*
X55464772Y-60649500D01*
X55335228Y-60649500D01*
X55335227Y-60649500D01*
X55294847Y-60661356D01*
X55244330Y-60658145D01*
X55207696Y-60623213D01*
X55200000Y-60590353D01*
X55200000Y-60000000D01*
X62644867Y-60000000D01*
X62663302Y-60128223D01*
X62663302Y-60128224D01*
X62663303Y-60128226D01*
X62717118Y-60246063D01*
X62801951Y-60343967D01*
X62910931Y-60414004D01*
X63035228Y-60450500D01*
X63164772Y-60450500D01*
X63289069Y-60414004D01*
X63398049Y-60343967D01*
X63436146Y-60300000D01*
X69644867Y-60300000D01*
X69663302Y-60428223D01*
X69663302Y-60428224D01*
X69663303Y-60428226D01*
X69717118Y-60546063D01*
X69801951Y-60643967D01*
X69910931Y-60714004D01*
X70035228Y-60750500D01*
X70164772Y-60750500D01*
X70289069Y-60714004D01*
X70398049Y-60643967D01*
X70482882Y-60546063D01*
X70536697Y-60428226D01*
X70555133Y-60300000D01*
X70536697Y-60171774D01*
X70482882Y-60053937D01*
X70436146Y-60000000D01*
X87244867Y-60000000D01*
X87263302Y-60128223D01*
X87263302Y-60128224D01*
X87263303Y-60128226D01*
X87317118Y-60246063D01*
X87401951Y-60343967D01*
X87510931Y-60414004D01*
X87635228Y-60450500D01*
X87764772Y-60450500D01*
X87889069Y-60414004D01*
X87998049Y-60343967D01*
X88082882Y-60246063D01*
X88136697Y-60128226D01*
X88155133Y-60000000D01*
X88136697Y-59871774D01*
X88082882Y-59753937D01*
X87998049Y-59656033D01*
X87910860Y-59600000D01*
X99144867Y-59600000D01*
X99163302Y-59728223D01*
X99163302Y-59728224D01*
X99163303Y-59728226D01*
X99217118Y-59846063D01*
X99301951Y-59943967D01*
X99410931Y-60014004D01*
X99535228Y-60050500D01*
X99664772Y-60050500D01*
X99789069Y-60014004D01*
X99898049Y-59943967D01*
X99982882Y-59846063D01*
X100036697Y-59728226D01*
X100055133Y-59600000D01*
X100040755Y-59500000D01*
X107044867Y-59500000D01*
X107063302Y-59628223D01*
X107063302Y-59628224D01*
X107063303Y-59628226D01*
X107117118Y-59746063D01*
X107201951Y-59843967D01*
X107310931Y-59914004D01*
X107435228Y-59950500D01*
X107564772Y-59950500D01*
X107689069Y-59914004D01*
X107798049Y-59843967D01*
X107882882Y-59746063D01*
X107936697Y-59628226D01*
X107955133Y-59500000D01*
X107936697Y-59371774D01*
X107882882Y-59253937D01*
X107798049Y-59156033D01*
X107731032Y-59112964D01*
X107689068Y-59085995D01*
X107564772Y-59049500D01*
X107435228Y-59049500D01*
X107310931Y-59085995D01*
X107201954Y-59156031D01*
X107201950Y-59156034D01*
X107117119Y-59253935D01*
X107063302Y-59371776D01*
X107044867Y-59500000D01*
X100040755Y-59500000D01*
X100036697Y-59471774D01*
X99982882Y-59353937D01*
X99898049Y-59256033D01*
X99828947Y-59211624D01*
X99789068Y-59185995D01*
X99664772Y-59149500D01*
X99535228Y-59149500D01*
X99410931Y-59185995D01*
X99301954Y-59256031D01*
X99301950Y-59256034D01*
X99217119Y-59353935D01*
X99163302Y-59471776D01*
X99144867Y-59600000D01*
X87910860Y-59600000D01*
X87889068Y-59585995D01*
X87764772Y-59549500D01*
X87635228Y-59549500D01*
X87510931Y-59585995D01*
X87401954Y-59656031D01*
X87401950Y-59656034D01*
X87317119Y-59753935D01*
X87263302Y-59871776D01*
X87244867Y-60000000D01*
X70436146Y-60000000D01*
X70398049Y-59956033D01*
X70331032Y-59912964D01*
X70289068Y-59885995D01*
X70164772Y-59849500D01*
X70035228Y-59849500D01*
X69910931Y-59885995D01*
X69801954Y-59956031D01*
X69801950Y-59956034D01*
X69717119Y-60053935D01*
X69663302Y-60171776D01*
X69644867Y-60300000D01*
X63436146Y-60300000D01*
X63482882Y-60246063D01*
X63536697Y-60128226D01*
X63555133Y-60000000D01*
X63536697Y-59871774D01*
X63482882Y-59753937D01*
X63398049Y-59656033D01*
X63310860Y-59600000D01*
X63289068Y-59585995D01*
X63164772Y-59549500D01*
X63035228Y-59549500D01*
X62910931Y-59585995D01*
X62801954Y-59656031D01*
X62801950Y-59656034D01*
X62717119Y-59753935D01*
X62663302Y-59871776D01*
X62644867Y-60000000D01*
X55200000Y-60000000D01*
X55200000Y-59052298D01*
X71847165Y-59052298D01*
X71865600Y-59180521D01*
X71865600Y-59180522D01*
X71865601Y-59180524D01*
X71919416Y-59298361D01*
X72004249Y-59396265D01*
X72113229Y-59466302D01*
X72237526Y-59502798D01*
X72367070Y-59502798D01*
X72491367Y-59466302D01*
X72600347Y-59396265D01*
X72685180Y-59298361D01*
X72738995Y-59180524D01*
X72757431Y-59052298D01*
X72738995Y-58924072D01*
X72685180Y-58806235D01*
X72600347Y-58708331D01*
X72533330Y-58665262D01*
X72491366Y-58638293D01*
X72367070Y-58601798D01*
X72237526Y-58601798D01*
X72113229Y-58638293D01*
X72004252Y-58708329D01*
X72004248Y-58708332D01*
X71919417Y-58806233D01*
X71919416Y-58806234D01*
X71919416Y-58806235D01*
X71899657Y-58849500D01*
X71865600Y-58924074D01*
X71847165Y-59052298D01*
X55200000Y-59052298D01*
X55200000Y-58146197D01*
X55790795Y-58146197D01*
X55818346Y-58278782D01*
X55820186Y-58287634D01*
X55820187Y-58287636D01*
X55820189Y-58287642D01*
X55886643Y-58415892D01*
X55886646Y-58415896D01*
X55965194Y-58500000D01*
X55985245Y-58521469D01*
X56108672Y-58596526D01*
X56195204Y-58620771D01*
X56247771Y-58635500D01*
X56247772Y-58635500D01*
X56355942Y-58635500D01*
X56355949Y-58635500D01*
X56463111Y-58620771D01*
X56595609Y-58563219D01*
X56673315Y-58500000D01*
X64144867Y-58500000D01*
X64163302Y-58628223D01*
X64163302Y-58628224D01*
X64163303Y-58628226D01*
X64217118Y-58746063D01*
X64301951Y-58843967D01*
X64410931Y-58914004D01*
X64535228Y-58950500D01*
X64664772Y-58950500D01*
X64789069Y-58914004D01*
X64898049Y-58843967D01*
X64982882Y-58746063D01*
X65036697Y-58628226D01*
X65040755Y-58600000D01*
X115134867Y-58600000D01*
X115153302Y-58728223D01*
X115153302Y-58728224D01*
X115153303Y-58728226D01*
X115207118Y-58846063D01*
X115291951Y-58943967D01*
X115400931Y-59014004D01*
X115525228Y-59050500D01*
X115654772Y-59050500D01*
X115779069Y-59014004D01*
X115888049Y-58943967D01*
X115972882Y-58846063D01*
X116026697Y-58728226D01*
X116045133Y-58600000D01*
X116026697Y-58471774D01*
X115972882Y-58353937D01*
X115888049Y-58256033D01*
X115821032Y-58212964D01*
X115779068Y-58185995D01*
X115654772Y-58149500D01*
X115525228Y-58149500D01*
X115400931Y-58185995D01*
X115291954Y-58256031D01*
X115291950Y-58256034D01*
X115207119Y-58353935D01*
X115153302Y-58471776D01*
X115134867Y-58600000D01*
X65040755Y-58600000D01*
X65055133Y-58500000D01*
X65036697Y-58371774D01*
X64982882Y-58253937D01*
X64898049Y-58156033D01*
X64810860Y-58100000D01*
X131944867Y-58100000D01*
X131963302Y-58228223D01*
X131963302Y-58228224D01*
X131963303Y-58228226D01*
X132017118Y-58346063D01*
X132101951Y-58443967D01*
X132210931Y-58514004D01*
X132335228Y-58550500D01*
X132464772Y-58550500D01*
X132589069Y-58514004D01*
X132698049Y-58443967D01*
X132782882Y-58346063D01*
X132836697Y-58228226D01*
X132855133Y-58100000D01*
X132840755Y-58000000D01*
X133644867Y-58000000D01*
X133663302Y-58128223D01*
X133663302Y-58128224D01*
X133663303Y-58128226D01*
X133717118Y-58246063D01*
X133801951Y-58343967D01*
X133910931Y-58414004D01*
X134035228Y-58450500D01*
X134164772Y-58450500D01*
X134289069Y-58414004D01*
X134398049Y-58343967D01*
X134482882Y-58246063D01*
X134536697Y-58128226D01*
X134555133Y-58000000D01*
X134540755Y-57900000D01*
X137444867Y-57900000D01*
X137463302Y-58028223D01*
X137463302Y-58028224D01*
X137463303Y-58028226D01*
X137517118Y-58146063D01*
X137601951Y-58243967D01*
X137710931Y-58314004D01*
X137835228Y-58350500D01*
X137964772Y-58350500D01*
X138089069Y-58314004D01*
X138198049Y-58243967D01*
X138282882Y-58146063D01*
X138336697Y-58028226D01*
X138355133Y-57900000D01*
X138340755Y-57800000D01*
X142844867Y-57800000D01*
X142863302Y-57928223D01*
X142863302Y-57928224D01*
X142863303Y-57928226D01*
X142917118Y-58046063D01*
X143001951Y-58143967D01*
X143110931Y-58214004D01*
X143235228Y-58250500D01*
X143364772Y-58250500D01*
X143489069Y-58214004D01*
X143598049Y-58143967D01*
X143682882Y-58046063D01*
X143736697Y-57928226D01*
X143755133Y-57800000D01*
X143736697Y-57671774D01*
X143682882Y-57553937D01*
X143598049Y-57456033D01*
X143517862Y-57404500D01*
X143489068Y-57385995D01*
X143364772Y-57349500D01*
X143235228Y-57349500D01*
X143110931Y-57385995D01*
X143001954Y-57456031D01*
X143001950Y-57456034D01*
X142917119Y-57553935D01*
X142863302Y-57671776D01*
X142844867Y-57800000D01*
X138340755Y-57800000D01*
X138336697Y-57771774D01*
X138282882Y-57653937D01*
X138198049Y-57556033D01*
X138131032Y-57512964D01*
X138089068Y-57485995D01*
X137964772Y-57449500D01*
X137835228Y-57449500D01*
X137710931Y-57485995D01*
X137601954Y-57556031D01*
X137601950Y-57556034D01*
X137517119Y-57653935D01*
X137463302Y-57771776D01*
X137444867Y-57900000D01*
X134540755Y-57900000D01*
X134536697Y-57871774D01*
X134482882Y-57753937D01*
X134482880Y-57753935D01*
X134482880Y-57753934D01*
X134482878Y-57753932D01*
X134436882Y-57700849D01*
X134418816Y-57653563D01*
X134435372Y-57605728D01*
X134471958Y-57581386D01*
X134589069Y-57547001D01*
X134698049Y-57476964D01*
X134782882Y-57379060D01*
X134836697Y-57261223D01*
X134855133Y-57132997D01*
X134850389Y-57100000D01*
X145344867Y-57100000D01*
X145363302Y-57228223D01*
X145363302Y-57228224D01*
X145363303Y-57228226D01*
X145417118Y-57346063D01*
X145501951Y-57443967D01*
X145610931Y-57514004D01*
X145735228Y-57550500D01*
X145864772Y-57550500D01*
X145989069Y-57514004D01*
X146098049Y-57443967D01*
X146182882Y-57346063D01*
X146236697Y-57228226D01*
X146255133Y-57100000D01*
X146236697Y-56971774D01*
X146182882Y-56853937D01*
X146098049Y-56756033D01*
X146028483Y-56711326D01*
X145989068Y-56685995D01*
X145864772Y-56649500D01*
X145735228Y-56649500D01*
X145610931Y-56685995D01*
X145501954Y-56756031D01*
X145501950Y-56756034D01*
X145417119Y-56853935D01*
X145417118Y-56853936D01*
X145417118Y-56853937D01*
X145404024Y-56882608D01*
X145363302Y-56971776D01*
X145344867Y-57100000D01*
X134850389Y-57100000D01*
X134836697Y-57004771D01*
X134782882Y-56886934D01*
X134698049Y-56789030D01*
X134631032Y-56745961D01*
X134589068Y-56718992D01*
X134464772Y-56682497D01*
X134335228Y-56682497D01*
X134210931Y-56718992D01*
X134101954Y-56789028D01*
X134101950Y-56789031D01*
X134017119Y-56886932D01*
X133963302Y-57004773D01*
X133944867Y-57132997D01*
X133963302Y-57261220D01*
X133963302Y-57261221D01*
X133963303Y-57261223D01*
X134017118Y-57379060D01*
X134063118Y-57432148D01*
X134081183Y-57479433D01*
X134064627Y-57527268D01*
X134028040Y-57551610D01*
X133910931Y-57585995D01*
X133801954Y-57656031D01*
X133801950Y-57656034D01*
X133717119Y-57753935D01*
X133663302Y-57871776D01*
X133644867Y-58000000D01*
X132840755Y-58000000D01*
X132836697Y-57971774D01*
X132782882Y-57853937D01*
X132698049Y-57756033D01*
X132608574Y-57698531D01*
X132589068Y-57685995D01*
X132464772Y-57649500D01*
X132335228Y-57649500D01*
X132210931Y-57685995D01*
X132101954Y-57756031D01*
X132101950Y-57756034D01*
X132017119Y-57853935D01*
X132017118Y-57853936D01*
X132017118Y-57853937D01*
X132008972Y-57871774D01*
X131963302Y-57971776D01*
X131944867Y-58100000D01*
X64810860Y-58100000D01*
X64789068Y-58085995D01*
X64664772Y-58049500D01*
X64535228Y-58049500D01*
X64410931Y-58085995D01*
X64301954Y-58156031D01*
X64301950Y-58156034D01*
X64217119Y-58253935D01*
X64163302Y-58371776D01*
X64144867Y-58500000D01*
X56673315Y-58500000D01*
X56707665Y-58472054D01*
X56790971Y-58354037D01*
X56839346Y-58217921D01*
X56843580Y-58156031D01*
X56849204Y-58073802D01*
X56849204Y-58073801D01*
X56843440Y-58046063D01*
X56819814Y-57932366D01*
X56819810Y-57932360D01*
X56819810Y-57932357D01*
X56753356Y-57804107D01*
X56753353Y-57804103D01*
X56749521Y-57800000D01*
X58244867Y-57800000D01*
X58263302Y-57928223D01*
X58263302Y-57928224D01*
X58263303Y-57928226D01*
X58317118Y-58046063D01*
X58401951Y-58143967D01*
X58510931Y-58214004D01*
X58635228Y-58250500D01*
X58764772Y-58250500D01*
X58889069Y-58214004D01*
X58998049Y-58143967D01*
X59082882Y-58046063D01*
X59136697Y-57928226D01*
X59155133Y-57800000D01*
X59136697Y-57671774D01*
X59082882Y-57553937D01*
X58998049Y-57456033D01*
X58917862Y-57404500D01*
X58889068Y-57385995D01*
X58764772Y-57349500D01*
X58635228Y-57349500D01*
X58510931Y-57385995D01*
X58401954Y-57456031D01*
X58401950Y-57456034D01*
X58317119Y-57553935D01*
X58263302Y-57671776D01*
X58244867Y-57800000D01*
X56749521Y-57800000D01*
X56654754Y-57698530D01*
X56531328Y-57623474D01*
X56392229Y-57584500D01*
X56392228Y-57584500D01*
X56284051Y-57584500D01*
X56284046Y-57584500D01*
X56176892Y-57599228D01*
X56176890Y-57599228D01*
X56176889Y-57599229D01*
X56061154Y-57649500D01*
X56044389Y-57656782D01*
X56044388Y-57656782D01*
X55932334Y-57747946D01*
X55932333Y-57747947D01*
X55849032Y-57865958D01*
X55849027Y-57865966D01*
X55800655Y-58002075D01*
X55800652Y-58002087D01*
X55790795Y-58146197D01*
X55200000Y-58146197D01*
X55200000Y-55974000D01*
X55217313Y-55926434D01*
X55261150Y-55901124D01*
X55274000Y-55900000D01*
X56085634Y-55900000D01*
X56133200Y-55917313D01*
G37*
%TD.AperFunction*%
%TD*%
M02*
