M48
; DRILL file {KiCad 7.0.8+1} date Mon 11 Dec 2023 01:56:49 PM CET
; FORMAT={-:-/ absolute / metric / decimal}
; #@! TF.CreationDate,2023-12-11T13:56:49+01:00
; #@! TF.GenerationSoftware,Kicad,Pcbnew,7.0.8+1
; #@! TF.FileFunction,Plated,1,4,PTH
FMAT,2
METRIC
; #@! TA.AperFunction,Plated,PTH,ViaDrill
T1C0.300
; #@! TA.AperFunction,Plated,PTH,ComponentDrill
T2C0.600
%
G90
G05
T1
X54.6Y-67.8
X55.2Y-50.9
X55.4Y-61.1
X55.5Y-70.4
X55.9Y-54.7
X56.3Y-67.8
X56.7Y-51.9
X57.1Y-70.2
X57.5Y-54.5
X57.9Y-67.7
X58.3Y-55.3
X58.6Y-64.2
X58.7Y-57.8
X59.2Y-54.4
X59.2Y-67.1
X59.895Y-52.03
X60.0Y-70.875
X60.7Y-54.4
X63.1Y-60.0
X64.574Y-57.315
X64.6Y-58.5
X67.6Y-63.2
X68.4Y-67.3
X69.5Y-67.3
X70.1Y-60.3
X70.6Y-51.0
X70.6Y-67.2
X71.351Y-64.978
X71.875Y-67.3
X72.3Y-70.0
X72.302Y-59.052
X72.922Y-55.025
X73.225Y-67.3
X73.817Y-52.225
X73.9Y-63.6
X74.553Y-55.025
X74.715Y-67.3
X75.275Y-70.05
X75.41Y-55.85
X76.122Y-55.025
X79.0Y-70.4
X79.3Y-53.0
X79.625Y-66.275
X80.6Y-70.2
X81.0Y-60.9
X83.0Y-60.8
X83.681Y-53.775
X83.741Y-62.676
X84.613Y-67.875
X85.041Y-62.688
X85.15Y-60.155
X85.5Y-50.8
X86.501Y-67.849
X87.1Y-63.625
X87.6Y-67.832
X87.7Y-60.0
X87.797Y-54.95
X88.586Y-65.133
X88.7Y-67.832
X89.393Y-54.9
X89.4Y-60.8
X90.2Y-52.3
X90.207Y-56.85
X90.542Y-70.2
X90.946Y-54.95
X91.27Y-62.881
X93.422Y-63.1
X94.3Y-54.9
X95.1Y-62.3
X96.4Y-50.7
X96.4Y-62.2
X98.514Y-60.125
X99.6Y-59.6
X100.5Y-50.7
X100.632Y-67.1
X101.3Y-52.2
X101.6Y-69.6
X102.325Y-64.125
X102.837Y-55.0
X104.11Y-67.825
X104.274Y-54.921
X105.042Y-70.2
X105.274Y-54.944
X106.241Y-54.667
X107.117Y-64.125
X107.5Y-59.5
X109.4Y-59.7
X109.4Y-61.6
X115.59Y-58.6
X119.169Y-63.325
X120.0Y-59.3
X120.329Y-63.375
X121.1Y-59.4
X122.7Y-50.7
X125.565Y-54.175
X125.6Y-67.65
X126.115Y-50.7
X128.4Y-61.5
X128.474Y-66.55
X128.5Y-59.6
X128.521Y-58.85
X128.6Y-56.5
X128.9Y-64.8
X128.9Y-70.8
X128.9Y-63.9
X131.8Y-70.9
X132.033Y-54.401
X132.1Y-56.1
X132.1Y-62.6
X132.2Y-61.3
X132.4Y-58.1
X132.411Y-60.058
X133.1Y-62.875
X133.1Y-67.9
X133.775Y-60.618
X134.1Y-58.0
X134.3Y-54.875
X134.4Y-57.133
X135.1Y-55.9
X135.6Y-68.0
X135.7Y-58.6
X135.78Y-59.54
X136.127Y-53.473
X136.8Y-67.1
X137.123Y-53.386
X137.9Y-57.9
X138.0Y-60.6
X139.116Y-67.836
X140.3Y-67.0
X140.7Y-53.4
X142.0Y-53.6
X142.0Y-67.8
X143.0Y-64.7
X143.3Y-57.8
X143.3Y-60.6
X143.41Y-56.11
X144.4Y-67.1
X144.6Y-65.2
X145.8Y-57.1
X145.8Y-67.5
X147.0Y-57.0
X147.8Y-55.1
X148.31Y-67.69
X148.32Y-53.9
T2
G00X52.94Y-56.68
M15
G01X52.34Y-56.68
M16
G05
G00X52.94Y-65.32
M15
G01X52.34Y-65.32
M16
G05
G00X57.37Y-56.68
M15
G01X56.27Y-56.68
M16
G05
G00X57.37Y-65.32
M15
G01X56.27Y-65.32
M16
G05
T0
M30
