%TF.GenerationSoftware,KiCad,Pcbnew,7.0.8+1*%
%TF.CreationDate,2023-12-11T13:56:50+01:00*%
%TF.ProjectId,Receiver,52656365-6976-4657-922e-6b696361645f,rev?*%
%TF.SameCoordinates,Original*%
%TF.FileFunction,Soldermask,Top*%
%TF.FilePolarity,Negative*%
%FSLAX46Y46*%
G04 Gerber Fmt 4.6, Leading zero omitted, Abs format (unit mm)*
G04 Created by KiCad (PCBNEW 7.0.8+1) date 2023-12-11 13:56:50*
%MOMM*%
%LPD*%
G01*
G04 APERTURE LIST*
G04 Aperture macros list*
%AMRoundRect*
0 Rectangle with rounded corners*
0 $1 Rounding radius*
0 $2 $3 $4 $5 $6 $7 $8 $9 X,Y pos of 4 corners*
0 Add a 4 corners polygon primitive as box body*
4,1,4,$2,$3,$4,$5,$6,$7,$8,$9,$2,$3,0*
0 Add four circle primitives for the rounded corners*
1,1,$1+$1,$2,$3*
1,1,$1+$1,$4,$5*
1,1,$1+$1,$6,$7*
1,1,$1+$1,$8,$9*
0 Add four rect primitives between the rounded corners*
20,1,$1+$1,$2,$3,$4,$5,0*
20,1,$1+$1,$4,$5,$6,$7,0*
20,1,$1+$1,$6,$7,$8,$9,0*
20,1,$1+$1,$8,$9,$2,$3,0*%
G04 Aperture macros list end*
%ADD10RoundRect,0.150000X0.150000X-0.512500X0.150000X0.512500X-0.150000X0.512500X-0.150000X-0.512500X0*%
%ADD11RoundRect,0.250000X-0.250000X-0.475000X0.250000X-0.475000X0.250000X0.475000X-0.250000X0.475000X0*%
%ADD12RoundRect,0.140000X-0.170000X0.140000X-0.170000X-0.140000X0.170000X-0.140000X0.170000X0.140000X0*%
%ADD13RoundRect,0.125000X0.125000X0.425000X-0.125000X0.425000X-0.125000X-0.425000X0.125000X-0.425000X0*%
%ADD14RoundRect,0.250000X0.350000X0.600000X-0.350000X0.600000X-0.350000X-0.600000X0.350000X-0.600000X0*%
%ADD15RoundRect,0.250000X0.475000X-0.250000X0.475000X0.250000X-0.475000X0.250000X-0.475000X-0.250000X0*%
%ADD16RoundRect,0.125000X-0.125000X-0.425000X0.125000X-0.425000X0.125000X0.425000X-0.125000X0.425000X0*%
%ADD17RoundRect,0.250000X-0.350000X-0.600000X0.350000X-0.600000X0.350000X0.600000X-0.350000X0.600000X0*%
%ADD18RoundRect,0.140000X0.170000X-0.140000X0.170000X0.140000X-0.170000X0.140000X-0.170000X-0.140000X0*%
%ADD19RoundRect,0.140000X-0.140000X-0.170000X0.140000X-0.170000X0.140000X0.170000X-0.140000X0.170000X0*%
%ADD20RoundRect,0.250000X0.250000X0.475000X-0.250000X0.475000X-0.250000X-0.475000X0.250000X-0.475000X0*%
%ADD21RoundRect,0.250000X0.850000X-0.375000X0.850000X0.375000X-0.850000X0.375000X-0.850000X-0.375000X0*%
%ADD22RoundRect,0.135000X0.135000X0.185000X-0.135000X0.185000X-0.135000X-0.185000X0.135000X-0.185000X0*%
%ADD23RoundRect,0.135000X-0.185000X0.135000X-0.185000X-0.135000X0.185000X-0.135000X0.185000X0.135000X0*%
%ADD24RoundRect,0.150000X-0.512500X-0.150000X0.512500X-0.150000X0.512500X0.150000X-0.512500X0.150000X0*%
%ADD25C,0.650000*%
%ADD26R,1.150000X0.600000*%
%ADD27R,1.150000X0.300000*%
%ADD28O,2.100000X1.000000*%
%ADD29O,1.600000X1.000000*%
%ADD30RoundRect,0.140000X0.140000X0.170000X-0.140000X0.170000X-0.140000X-0.170000X0.140000X-0.170000X0*%
%ADD31R,0.800000X1.225000*%
%ADD32RoundRect,0.135000X-0.135000X-0.185000X0.135000X-0.185000X0.135000X0.185000X-0.135000X0.185000X0*%
%ADD33R,1.800000X1.000000*%
%ADD34R,1.000000X2.510000*%
%ADD35R,0.900000X1.500000*%
%ADD36R,1.500000X0.900000*%
%ADD37R,0.900000X0.900000*%
%ADD38RoundRect,0.150000X-0.150000X0.512500X-0.150000X-0.512500X0.150000X-0.512500X0.150000X0.512500X0*%
%ADD39RoundRect,0.135000X0.185000X-0.135000X0.185000X0.135000X-0.185000X0.135000X-0.185000X-0.135000X0*%
G04 APERTURE END LIST*
D10*
%TO.C,U3*%
X104195000Y-62137500D03*
X105145000Y-62137500D03*
X106095000Y-62137500D03*
X106095000Y-59862500D03*
X104195000Y-59862500D03*
%TD*%
D11*
%TO.C,C14*%
X122675000Y-52105000D03*
X124575000Y-52105000D03*
%TD*%
D12*
%TO.C,C12*%
X99585000Y-60520000D03*
X99585000Y-61480000D03*
%TD*%
D13*
%TO.C,J1*%
X90575000Y-69225000D03*
X89775000Y-69225000D03*
X88975000Y-69225000D03*
X88175000Y-69225000D03*
X87375000Y-69225000D03*
X86575000Y-69225000D03*
X85775000Y-69225000D03*
X84975000Y-69225000D03*
D14*
X91875000Y-70625000D03*
X83675000Y-70625000D03*
%TD*%
D12*
%TO.C,C3*%
X84005000Y-60835000D03*
X84005000Y-61795000D03*
%TD*%
D15*
%TO.C,C7*%
X111085000Y-61595000D03*
X111085000Y-59695000D03*
%TD*%
D16*
%TO.C,J2*%
X85425000Y-53625000D03*
X86225000Y-53625000D03*
X87025000Y-53625000D03*
X87825000Y-53625000D03*
X88625000Y-53625000D03*
X89425000Y-53625000D03*
X90225000Y-53625000D03*
X91025000Y-53625000D03*
D17*
X84125000Y-52225000D03*
X92325000Y-52225000D03*
%TD*%
D18*
%TO.C,C13*%
X95135000Y-61480000D03*
X95135000Y-60520000D03*
%TD*%
D19*
%TO.C,C10*%
X103185000Y-64005000D03*
X104145000Y-64005000D03*
%TD*%
%TO.C,C5*%
X126635000Y-53875000D03*
X127595000Y-53875000D03*
%TD*%
D20*
%TO.C,C6*%
X118025000Y-63415000D03*
X116125000Y-63415000D03*
%TD*%
D21*
%TO.C,L1*%
X113565000Y-61830000D03*
X113565000Y-59680000D03*
%TD*%
D22*
%TO.C,R5*%
X127585000Y-67695000D03*
X126565000Y-67695000D03*
%TD*%
D23*
%TO.C,R1*%
X85215000Y-60785000D03*
X85215000Y-61805000D03*
%TD*%
D24*
%TO.C,U1*%
X116147500Y-59685000D03*
X116147500Y-60635000D03*
X116147500Y-61585000D03*
X118422500Y-61585000D03*
X118422500Y-60635000D03*
X118422500Y-59685000D03*
%TD*%
D22*
%TO.C,R4*%
X127655000Y-54925000D03*
X126635000Y-54925000D03*
%TD*%
D25*
%TO.C,J6*%
X56320000Y-58110000D03*
X56320000Y-63890000D03*
D26*
X57445000Y-57800000D03*
X57445000Y-58600000D03*
D27*
X57440000Y-59750000D03*
X57440000Y-60750000D03*
X57440000Y-61250000D03*
X57440000Y-59250000D03*
D26*
X57445000Y-63400000D03*
X57445000Y-64200000D03*
D27*
X57440000Y-62750000D03*
X57440000Y-61750000D03*
X57440000Y-60250000D03*
X57440000Y-62250000D03*
D28*
X56820000Y-56680000D03*
D29*
X52640000Y-56680000D03*
D28*
X56820000Y-65320000D03*
D29*
X52640000Y-65320000D03*
%TD*%
D30*
%TO.C,C1*%
X127565000Y-56515000D03*
X126605000Y-56515000D03*
%TD*%
D31*
%TO.C,SW1*%
X79965000Y-62912500D03*
X79965000Y-59087500D03*
X81565000Y-62912500D03*
X81565000Y-59087500D03*
%TD*%
D11*
%TO.C,C4*%
X126115000Y-52145000D03*
X128015000Y-52145000D03*
%TD*%
D32*
%TO.C,R7*%
X120050000Y-62640000D03*
X121070000Y-62640000D03*
%TD*%
D23*
%TO.C,R3*%
X59805000Y-58455000D03*
X59805000Y-59475000D03*
%TD*%
D13*
%TO.C,J3*%
X60275000Y-69125000D03*
X59475000Y-69125000D03*
X58675000Y-69125000D03*
X57875000Y-69125000D03*
X57075000Y-69125000D03*
X56275000Y-69125000D03*
X55475000Y-69125000D03*
X54675000Y-69125000D03*
D14*
X61575000Y-70525000D03*
X53375000Y-70525000D03*
%TD*%
D16*
%TO.C,J7*%
X55125000Y-53225000D03*
X55925000Y-53225000D03*
X56725000Y-53225000D03*
X57525000Y-53225000D03*
X58325000Y-53225000D03*
X59125000Y-53225000D03*
X59925000Y-53225000D03*
X60725000Y-53225000D03*
D17*
X53825000Y-51825000D03*
X62025000Y-51825000D03*
%TD*%
D31*
%TO.C,SW2*%
X88655000Y-62912500D03*
X88655000Y-59087500D03*
X90255000Y-62912500D03*
X90255000Y-59087500D03*
%TD*%
D33*
%TO.C,Y1*%
X126985000Y-60275000D03*
X126985000Y-57775000D03*
%TD*%
D34*
%TO.C,J8*%
X66190000Y-62655000D03*
X68730000Y-59345000D03*
X71270000Y-62655000D03*
X73810000Y-59345000D03*
%TD*%
D19*
%TO.C,C8*%
X116565000Y-58265000D03*
X117525000Y-58265000D03*
%TD*%
D22*
%TO.C,R6*%
X121075000Y-60595000D03*
X120055000Y-60595000D03*
%TD*%
D35*
%TO.C,U2*%
X148310000Y-51990000D03*
X147040000Y-51990000D03*
X145770000Y-51990000D03*
X144500000Y-51990000D03*
X143230000Y-51990000D03*
X141960000Y-51990000D03*
X140690000Y-51990000D03*
X139420000Y-51990000D03*
X138150000Y-51990000D03*
X136880000Y-51990000D03*
X135610000Y-51990000D03*
X134340000Y-51990000D03*
X133070000Y-51990000D03*
X131800000Y-51990000D03*
D36*
X130550000Y-53755000D03*
X130550000Y-55025000D03*
X130550000Y-56295000D03*
X130550000Y-57565000D03*
X130550000Y-58835000D03*
X130550000Y-60105000D03*
X130550000Y-61375000D03*
X130550000Y-62645000D03*
X130550000Y-63915000D03*
X130550000Y-65185000D03*
X130550000Y-66455000D03*
X130550000Y-67725000D03*
D35*
X131800000Y-69490000D03*
X133070000Y-69490000D03*
X134340000Y-69490000D03*
X135610000Y-69490000D03*
X136880000Y-69490000D03*
X138150000Y-69490000D03*
X139420000Y-69490000D03*
X140690000Y-69490000D03*
X141960000Y-69490000D03*
X143230000Y-69490000D03*
X144500000Y-69490000D03*
X145770000Y-69490000D03*
X147040000Y-69490000D03*
X148310000Y-69490000D03*
D37*
X141990000Y-57840000D03*
X140590000Y-57840000D03*
X139190000Y-57840000D03*
X139190000Y-57840000D03*
X141990000Y-59240000D03*
X141990000Y-59240000D03*
X140590000Y-59240000D03*
X139190000Y-59240000D03*
X141990000Y-60640000D03*
X140590000Y-60640000D03*
X139190000Y-60640000D03*
%TD*%
D13*
%TO.C,J4*%
X75475000Y-68875000D03*
X74675000Y-68875000D03*
X73875000Y-68875000D03*
X73075000Y-68875000D03*
X72275000Y-68875000D03*
X71475000Y-68875000D03*
X70675000Y-68875000D03*
X69875000Y-68875000D03*
D14*
X76775000Y-70275000D03*
X68575000Y-70275000D03*
%TD*%
D38*
%TO.C,U5*%
X98325000Y-59862500D03*
X96425000Y-59862500D03*
X97375000Y-62137500D03*
%TD*%
D19*
%TO.C,C2*%
X126505000Y-61545000D03*
X127465000Y-61545000D03*
%TD*%
D16*
%TO.C,J9*%
X100495000Y-53605000D03*
X101295000Y-53605000D03*
X102095000Y-53605000D03*
X102895000Y-53605000D03*
X103695000Y-53605000D03*
X104495000Y-53605000D03*
X105295000Y-53605000D03*
X106095000Y-53605000D03*
D17*
X99195000Y-52205000D03*
X107395000Y-52205000D03*
%TD*%
D32*
%TO.C,R8*%
X120055000Y-61615000D03*
X121075000Y-61615000D03*
%TD*%
D18*
%TO.C,C11*%
X107470000Y-61385000D03*
X107470000Y-60425000D03*
%TD*%
D39*
%TO.C,R2*%
X59815000Y-64525000D03*
X59815000Y-63505000D03*
%TD*%
D16*
%TO.C,J5*%
X70575000Y-53225000D03*
X71375000Y-53225000D03*
X72175000Y-53225000D03*
X72975000Y-53225000D03*
X73775000Y-53225000D03*
X74575000Y-53225000D03*
X75375000Y-53225000D03*
X76175000Y-53225000D03*
D17*
X69275000Y-51825000D03*
X77475000Y-51825000D03*
%TD*%
D30*
%TO.C,C9*%
X106105000Y-64005000D03*
X105145000Y-64005000D03*
%TD*%
M02*
