%TF.GenerationSoftware,KiCad,Pcbnew,7.0.8+1*%
%TF.CreationDate,2023-12-11T13:56:50+01:00*%
%TF.ProjectId,Receiver,52656365-6976-4657-922e-6b696361645f,rev?*%
%TF.SameCoordinates,Original*%
%TF.FileFunction,Legend,Top*%
%TF.FilePolarity,Positive*%
%FSLAX46Y46*%
G04 Gerber Fmt 4.6, Leading zero omitted, Abs format (unit mm)*
G04 Created by KiCad (PCBNEW 7.0.8+1) date 2023-12-11 13:56:50*
%MOMM*%
%LPD*%
G01*
G04 APERTURE LIST*
%ADD10C,0.150000*%
%ADD11C,0.120000*%
G04 APERTURE END LIST*
D10*
X110136779Y-68359819D02*
X110136779Y-67359819D01*
X110136779Y-67359819D02*
X110374874Y-67359819D01*
X110374874Y-67359819D02*
X110517731Y-67407438D01*
X110517731Y-67407438D02*
X110612969Y-67502676D01*
X110612969Y-67502676D02*
X110660588Y-67597914D01*
X110660588Y-67597914D02*
X110708207Y-67788390D01*
X110708207Y-67788390D02*
X110708207Y-67931247D01*
X110708207Y-67931247D02*
X110660588Y-68121723D01*
X110660588Y-68121723D02*
X110612969Y-68216961D01*
X110612969Y-68216961D02*
X110517731Y-68312200D01*
X110517731Y-68312200D02*
X110374874Y-68359819D01*
X110374874Y-68359819D02*
X110136779Y-68359819D01*
X111517731Y-68312200D02*
X111422493Y-68359819D01*
X111422493Y-68359819D02*
X111232017Y-68359819D01*
X111232017Y-68359819D02*
X111136779Y-68312200D01*
X111136779Y-68312200D02*
X111089160Y-68216961D01*
X111089160Y-68216961D02*
X111089160Y-67836009D01*
X111089160Y-67836009D02*
X111136779Y-67740771D01*
X111136779Y-67740771D02*
X111232017Y-67693152D01*
X111232017Y-67693152D02*
X111422493Y-67693152D01*
X111422493Y-67693152D02*
X111517731Y-67740771D01*
X111517731Y-67740771D02*
X111565350Y-67836009D01*
X111565350Y-67836009D02*
X111565350Y-67931247D01*
X111565350Y-67931247D02*
X111089160Y-68026485D01*
X111898684Y-67693152D02*
X112136779Y-68359819D01*
X112136779Y-68359819D02*
X112374874Y-67693152D01*
X113136779Y-68312200D02*
X113041541Y-68359819D01*
X113041541Y-68359819D02*
X112851065Y-68359819D01*
X112851065Y-68359819D02*
X112755827Y-68312200D01*
X112755827Y-68312200D02*
X112708208Y-68216961D01*
X112708208Y-68216961D02*
X112708208Y-67836009D01*
X112708208Y-67836009D02*
X112755827Y-67740771D01*
X112755827Y-67740771D02*
X112851065Y-67693152D01*
X112851065Y-67693152D02*
X113041541Y-67693152D01*
X113041541Y-67693152D02*
X113136779Y-67740771D01*
X113136779Y-67740771D02*
X113184398Y-67836009D01*
X113184398Y-67836009D02*
X113184398Y-67931247D01*
X113184398Y-67931247D02*
X112708208Y-68026485D01*
X113612970Y-67693152D02*
X113612970Y-68359819D01*
X113612970Y-67788390D02*
X113660589Y-67740771D01*
X113660589Y-67740771D02*
X113755827Y-67693152D01*
X113755827Y-67693152D02*
X113898684Y-67693152D01*
X113898684Y-67693152D02*
X113993922Y-67740771D01*
X113993922Y-67740771D02*
X114041541Y-67836009D01*
X114041541Y-67836009D02*
X114041541Y-68359819D01*
X114374875Y-67693152D02*
X114755827Y-67693152D01*
X114517732Y-67359819D02*
X114517732Y-68216961D01*
X114517732Y-68216961D02*
X114565351Y-68312200D01*
X114565351Y-68312200D02*
X114660589Y-68359819D01*
X114660589Y-68359819D02*
X114755827Y-68359819D01*
X116422494Y-68359819D02*
X116089161Y-67883628D01*
X115851066Y-68359819D02*
X115851066Y-67359819D01*
X115851066Y-67359819D02*
X116232018Y-67359819D01*
X116232018Y-67359819D02*
X116327256Y-67407438D01*
X116327256Y-67407438D02*
X116374875Y-67455057D01*
X116374875Y-67455057D02*
X116422494Y-67550295D01*
X116422494Y-67550295D02*
X116422494Y-67693152D01*
X116422494Y-67693152D02*
X116374875Y-67788390D01*
X116374875Y-67788390D02*
X116327256Y-67836009D01*
X116327256Y-67836009D02*
X116232018Y-67883628D01*
X116232018Y-67883628D02*
X115851066Y-67883628D01*
X117232018Y-68312200D02*
X117136780Y-68359819D01*
X117136780Y-68359819D02*
X116946304Y-68359819D01*
X116946304Y-68359819D02*
X116851066Y-68312200D01*
X116851066Y-68312200D02*
X116803447Y-68216961D01*
X116803447Y-68216961D02*
X116803447Y-67836009D01*
X116803447Y-67836009D02*
X116851066Y-67740771D01*
X116851066Y-67740771D02*
X116946304Y-67693152D01*
X116946304Y-67693152D02*
X117136780Y-67693152D01*
X117136780Y-67693152D02*
X117232018Y-67740771D01*
X117232018Y-67740771D02*
X117279637Y-67836009D01*
X117279637Y-67836009D02*
X117279637Y-67931247D01*
X117279637Y-67931247D02*
X116803447Y-68026485D01*
X118136780Y-68312200D02*
X118041542Y-68359819D01*
X118041542Y-68359819D02*
X117851066Y-68359819D01*
X117851066Y-68359819D02*
X117755828Y-68312200D01*
X117755828Y-68312200D02*
X117708209Y-68264580D01*
X117708209Y-68264580D02*
X117660590Y-68169342D01*
X117660590Y-68169342D02*
X117660590Y-67883628D01*
X117660590Y-67883628D02*
X117708209Y-67788390D01*
X117708209Y-67788390D02*
X117755828Y-67740771D01*
X117755828Y-67740771D02*
X117851066Y-67693152D01*
X117851066Y-67693152D02*
X118041542Y-67693152D01*
X118041542Y-67693152D02*
X118136780Y-67740771D01*
X118946304Y-68312200D02*
X118851066Y-68359819D01*
X118851066Y-68359819D02*
X118660590Y-68359819D01*
X118660590Y-68359819D02*
X118565352Y-68312200D01*
X118565352Y-68312200D02*
X118517733Y-68216961D01*
X118517733Y-68216961D02*
X118517733Y-67836009D01*
X118517733Y-67836009D02*
X118565352Y-67740771D01*
X118565352Y-67740771D02*
X118660590Y-67693152D01*
X118660590Y-67693152D02*
X118851066Y-67693152D01*
X118851066Y-67693152D02*
X118946304Y-67740771D01*
X118946304Y-67740771D02*
X118993923Y-67836009D01*
X118993923Y-67836009D02*
X118993923Y-67931247D01*
X118993923Y-67931247D02*
X118517733Y-68026485D01*
X119422495Y-68359819D02*
X119422495Y-67693152D01*
X119422495Y-67359819D02*
X119374876Y-67407438D01*
X119374876Y-67407438D02*
X119422495Y-67455057D01*
X119422495Y-67455057D02*
X119470114Y-67407438D01*
X119470114Y-67407438D02*
X119422495Y-67359819D01*
X119422495Y-67359819D02*
X119422495Y-67455057D01*
X119803447Y-67693152D02*
X120041542Y-68359819D01*
X120041542Y-68359819D02*
X120279637Y-67693152D01*
X121041542Y-68312200D02*
X120946304Y-68359819D01*
X120946304Y-68359819D02*
X120755828Y-68359819D01*
X120755828Y-68359819D02*
X120660590Y-68312200D01*
X120660590Y-68312200D02*
X120612971Y-68216961D01*
X120612971Y-68216961D02*
X120612971Y-67836009D01*
X120612971Y-67836009D02*
X120660590Y-67740771D01*
X120660590Y-67740771D02*
X120755828Y-67693152D01*
X120755828Y-67693152D02*
X120946304Y-67693152D01*
X120946304Y-67693152D02*
X121041542Y-67740771D01*
X121041542Y-67740771D02*
X121089161Y-67836009D01*
X121089161Y-67836009D02*
X121089161Y-67931247D01*
X121089161Y-67931247D02*
X120612971Y-68026485D01*
X121517733Y-68359819D02*
X121517733Y-67693152D01*
X121517733Y-67883628D02*
X121565352Y-67788390D01*
X121565352Y-67788390D02*
X121612971Y-67740771D01*
X121612971Y-67740771D02*
X121708209Y-67693152D01*
X121708209Y-67693152D02*
X121803447Y-67693152D01*
X110708207Y-69969819D02*
X110374874Y-69493628D01*
X110136779Y-69969819D02*
X110136779Y-68969819D01*
X110136779Y-68969819D02*
X110517731Y-68969819D01*
X110517731Y-68969819D02*
X110612969Y-69017438D01*
X110612969Y-69017438D02*
X110660588Y-69065057D01*
X110660588Y-69065057D02*
X110708207Y-69160295D01*
X110708207Y-69160295D02*
X110708207Y-69303152D01*
X110708207Y-69303152D02*
X110660588Y-69398390D01*
X110660588Y-69398390D02*
X110612969Y-69446009D01*
X110612969Y-69446009D02*
X110517731Y-69493628D01*
X110517731Y-69493628D02*
X110136779Y-69493628D01*
X111517731Y-69922200D02*
X111422493Y-69969819D01*
X111422493Y-69969819D02*
X111232017Y-69969819D01*
X111232017Y-69969819D02*
X111136779Y-69922200D01*
X111136779Y-69922200D02*
X111089160Y-69826961D01*
X111089160Y-69826961D02*
X111089160Y-69446009D01*
X111089160Y-69446009D02*
X111136779Y-69350771D01*
X111136779Y-69350771D02*
X111232017Y-69303152D01*
X111232017Y-69303152D02*
X111422493Y-69303152D01*
X111422493Y-69303152D02*
X111517731Y-69350771D01*
X111517731Y-69350771D02*
X111565350Y-69446009D01*
X111565350Y-69446009D02*
X111565350Y-69541247D01*
X111565350Y-69541247D02*
X111089160Y-69636485D01*
X111898684Y-69303152D02*
X112136779Y-69969819D01*
X112136779Y-69969819D02*
X112374874Y-69303152D01*
X113470113Y-69684104D02*
X113946303Y-69684104D01*
X113374875Y-69969819D02*
X113708208Y-68969819D01*
X113708208Y-68969819D02*
X114041541Y-69969819D01*
X114565351Y-68969819D02*
X114660589Y-68969819D01*
X114660589Y-68969819D02*
X114755827Y-69017438D01*
X114755827Y-69017438D02*
X114803446Y-69065057D01*
X114803446Y-69065057D02*
X114851065Y-69160295D01*
X114851065Y-69160295D02*
X114898684Y-69350771D01*
X114898684Y-69350771D02*
X114898684Y-69588866D01*
X114898684Y-69588866D02*
X114851065Y-69779342D01*
X114851065Y-69779342D02*
X114803446Y-69874580D01*
X114803446Y-69874580D02*
X114755827Y-69922200D01*
X114755827Y-69922200D02*
X114660589Y-69969819D01*
X114660589Y-69969819D02*
X114565351Y-69969819D01*
X114565351Y-69969819D02*
X114470113Y-69922200D01*
X114470113Y-69922200D02*
X114422494Y-69874580D01*
X114422494Y-69874580D02*
X114374875Y-69779342D01*
X114374875Y-69779342D02*
X114327256Y-69588866D01*
X114327256Y-69588866D02*
X114327256Y-69350771D01*
X114327256Y-69350771D02*
X114374875Y-69160295D01*
X114374875Y-69160295D02*
X114422494Y-69065057D01*
X114422494Y-69065057D02*
X114470113Y-69017438D01*
X114470113Y-69017438D02*
X114565351Y-68969819D01*
X152969104Y-65501905D02*
X152969104Y-65025715D01*
X153254819Y-65597143D02*
X152254819Y-65263810D01*
X152254819Y-65263810D02*
X153254819Y-64930477D01*
X152588152Y-64597143D02*
X153254819Y-64597143D01*
X152683390Y-64597143D02*
X152635771Y-64549524D01*
X152635771Y-64549524D02*
X152588152Y-64454286D01*
X152588152Y-64454286D02*
X152588152Y-64311429D01*
X152588152Y-64311429D02*
X152635771Y-64216191D01*
X152635771Y-64216191D02*
X152731009Y-64168572D01*
X152731009Y-64168572D02*
X153254819Y-64168572D01*
X152588152Y-63835238D02*
X152588152Y-63454286D01*
X152254819Y-63692381D02*
X153111961Y-63692381D01*
X153111961Y-63692381D02*
X153207200Y-63644762D01*
X153207200Y-63644762D02*
X153254819Y-63549524D01*
X153254819Y-63549524D02*
X153254819Y-63454286D01*
X153207200Y-62740000D02*
X153254819Y-62835238D01*
X153254819Y-62835238D02*
X153254819Y-63025714D01*
X153254819Y-63025714D02*
X153207200Y-63120952D01*
X153207200Y-63120952D02*
X153111961Y-63168571D01*
X153111961Y-63168571D02*
X152731009Y-63168571D01*
X152731009Y-63168571D02*
X152635771Y-63120952D01*
X152635771Y-63120952D02*
X152588152Y-63025714D01*
X152588152Y-63025714D02*
X152588152Y-62835238D01*
X152588152Y-62835238D02*
X152635771Y-62740000D01*
X152635771Y-62740000D02*
X152731009Y-62692381D01*
X152731009Y-62692381D02*
X152826247Y-62692381D01*
X152826247Y-62692381D02*
X152921485Y-63168571D01*
X152588152Y-62263809D02*
X153254819Y-62263809D01*
X152683390Y-62263809D02*
X152635771Y-62216190D01*
X152635771Y-62216190D02*
X152588152Y-62120952D01*
X152588152Y-62120952D02*
X152588152Y-61978095D01*
X152588152Y-61978095D02*
X152635771Y-61882857D01*
X152635771Y-61882857D02*
X152731009Y-61835238D01*
X152731009Y-61835238D02*
X153254819Y-61835238D01*
X152588152Y-61359047D02*
X153254819Y-61359047D01*
X152683390Y-61359047D02*
X152635771Y-61311428D01*
X152635771Y-61311428D02*
X152588152Y-61216190D01*
X152588152Y-61216190D02*
X152588152Y-61073333D01*
X152588152Y-61073333D02*
X152635771Y-60978095D01*
X152635771Y-60978095D02*
X152731009Y-60930476D01*
X152731009Y-60930476D02*
X153254819Y-60930476D01*
X153254819Y-60025714D02*
X152731009Y-60025714D01*
X152731009Y-60025714D02*
X152635771Y-60073333D01*
X152635771Y-60073333D02*
X152588152Y-60168571D01*
X152588152Y-60168571D02*
X152588152Y-60359047D01*
X152588152Y-60359047D02*
X152635771Y-60454285D01*
X153207200Y-60025714D02*
X153254819Y-60120952D01*
X153254819Y-60120952D02*
X153254819Y-60359047D01*
X153254819Y-60359047D02*
X153207200Y-60454285D01*
X153207200Y-60454285D02*
X153111961Y-60501904D01*
X153111961Y-60501904D02*
X153016723Y-60501904D01*
X153016723Y-60501904D02*
X152921485Y-60454285D01*
X152921485Y-60454285D02*
X152873866Y-60359047D01*
X152873866Y-60359047D02*
X152873866Y-60120952D01*
X152873866Y-60120952D02*
X152826247Y-60025714D01*
X152969104Y-58835237D02*
X152969104Y-58359047D01*
X153254819Y-58930475D02*
X152254819Y-58597142D01*
X152254819Y-58597142D02*
X153254819Y-58263809D01*
X153254819Y-57930475D02*
X152588152Y-57930475D01*
X152778628Y-57930475D02*
X152683390Y-57882856D01*
X152683390Y-57882856D02*
X152635771Y-57835237D01*
X152635771Y-57835237D02*
X152588152Y-57739999D01*
X152588152Y-57739999D02*
X152588152Y-57644761D01*
X153207200Y-56930475D02*
X153254819Y-57025713D01*
X153254819Y-57025713D02*
X153254819Y-57216189D01*
X153254819Y-57216189D02*
X153207200Y-57311427D01*
X153207200Y-57311427D02*
X153111961Y-57359046D01*
X153111961Y-57359046D02*
X152731009Y-57359046D01*
X152731009Y-57359046D02*
X152635771Y-57311427D01*
X152635771Y-57311427D02*
X152588152Y-57216189D01*
X152588152Y-57216189D02*
X152588152Y-57025713D01*
X152588152Y-57025713D02*
X152635771Y-56930475D01*
X152635771Y-56930475D02*
X152731009Y-56882856D01*
X152731009Y-56882856D02*
X152826247Y-56882856D01*
X152826247Y-56882856D02*
X152921485Y-57359046D01*
X153254819Y-56025713D02*
X152731009Y-56025713D01*
X152731009Y-56025713D02*
X152635771Y-56073332D01*
X152635771Y-56073332D02*
X152588152Y-56168570D01*
X152588152Y-56168570D02*
X152588152Y-56359046D01*
X152588152Y-56359046D02*
X152635771Y-56454284D01*
X153207200Y-56025713D02*
X153254819Y-56120951D01*
X153254819Y-56120951D02*
X153254819Y-56359046D01*
X153254819Y-56359046D02*
X153207200Y-56454284D01*
X153207200Y-56454284D02*
X153111961Y-56501903D01*
X153111961Y-56501903D02*
X153016723Y-56501903D01*
X153016723Y-56501903D02*
X152921485Y-56454284D01*
X152921485Y-56454284D02*
X152873866Y-56359046D01*
X152873866Y-56359046D02*
X152873866Y-56120951D01*
X152873866Y-56120951D02*
X152826247Y-56025713D01*
D11*
%TO.C,U3*%
X106705000Y-61000000D02*
X106705000Y-61800000D01*
X103585000Y-61000000D02*
X103585000Y-62800000D01*
X103585000Y-61000000D02*
X103585000Y-60200000D01*
X106705000Y-61000000D02*
X106705000Y-60200000D01*
%TO.C,C14*%
X123363748Y-52840000D02*
X123886252Y-52840000D01*
X123363748Y-51370000D02*
X123886252Y-51370000D01*
%TO.C,C12*%
X99945000Y-60892164D02*
X99945000Y-61107836D01*
X99225000Y-60892164D02*
X99225000Y-61107836D01*
%TO.C,J1*%
X92185000Y-69515000D02*
X92185000Y-69065000D01*
X92185000Y-69065000D02*
X91085000Y-69065000D01*
X91085000Y-69065000D02*
X91085000Y-68675000D01*
X91015000Y-71285000D02*
X84535000Y-71285000D01*
X83365000Y-69515000D02*
X83365000Y-69065000D01*
X83365000Y-69065000D02*
X84465000Y-69065000D01*
%TO.C,C3*%
X84365000Y-61207164D02*
X84365000Y-61422836D01*
X83645000Y-61207164D02*
X83645000Y-61422836D01*
%TO.C,C7*%
X110350000Y-60906252D02*
X110350000Y-60383748D01*
X111820000Y-60906252D02*
X111820000Y-60383748D01*
%TO.C,J2*%
X83815000Y-53335000D02*
X83815000Y-53785000D01*
X83815000Y-53785000D02*
X84915000Y-53785000D01*
X84915000Y-53785000D02*
X84915000Y-54175000D01*
X84985000Y-51565000D02*
X91465000Y-51565000D01*
X92635000Y-53335000D02*
X92635000Y-53785000D01*
X92635000Y-53785000D02*
X91535000Y-53785000D01*
%TO.C,C13*%
X94775000Y-61107836D02*
X94775000Y-60892164D01*
X95495000Y-61107836D02*
X95495000Y-60892164D01*
%TO.C,C10*%
X103557164Y-63645000D02*
X103772836Y-63645000D01*
X103557164Y-64365000D02*
X103772836Y-64365000D01*
%TO.C,C5*%
X127007164Y-53515000D02*
X127222836Y-53515000D01*
X127007164Y-54235000D02*
X127222836Y-54235000D01*
%TO.C,C6*%
X117336252Y-64150000D02*
X116813748Y-64150000D01*
X117336252Y-62680000D02*
X116813748Y-62680000D01*
%TO.C,L1*%
X112455000Y-61016252D02*
X112455000Y-60493748D01*
X114675000Y-61016252D02*
X114675000Y-60493748D01*
%TO.C,R5*%
X127228641Y-68075000D02*
X126921359Y-68075000D01*
X127228641Y-67315000D02*
X126921359Y-67315000D01*
%TO.C,R1*%
X85595000Y-61141359D02*
X85595000Y-61448641D01*
X84835000Y-61141359D02*
X84835000Y-61448641D01*
%TO.C,U1*%
X117285000Y-59075000D02*
X115485000Y-59075000D01*
X117285000Y-59075000D02*
X118085000Y-59075000D01*
X117285000Y-62195000D02*
X116485000Y-62195000D01*
X117285000Y-62195000D02*
X118085000Y-62195000D01*
%TO.C,R4*%
X127298641Y-55305000D02*
X126991359Y-55305000D01*
X127298641Y-54545000D02*
X126991359Y-54545000D01*
%TO.C,C1*%
X127192836Y-56875000D02*
X126977164Y-56875000D01*
X127192836Y-56155000D02*
X126977164Y-56155000D01*
%TO.C,C4*%
X126803748Y-51410000D02*
X127326252Y-51410000D01*
X126803748Y-52880000D02*
X127326252Y-52880000D01*
%TO.C,R7*%
X120406359Y-62260000D02*
X120713641Y-62260000D01*
X120406359Y-63020000D02*
X120713641Y-63020000D01*
%TO.C,R3*%
X60185000Y-58811359D02*
X60185000Y-59118641D01*
X59425000Y-58811359D02*
X59425000Y-59118641D01*
%TO.C,J3*%
X61885000Y-69415000D02*
X61885000Y-68965000D01*
X61885000Y-68965000D02*
X60785000Y-68965000D01*
X60785000Y-68965000D02*
X60785000Y-68575000D01*
X60715000Y-71185000D02*
X54235000Y-71185000D01*
X53065000Y-69415000D02*
X53065000Y-68965000D01*
X53065000Y-68965000D02*
X54165000Y-68965000D01*
%TO.C,J7*%
X53515000Y-52935000D02*
X53515000Y-53385000D01*
X53515000Y-53385000D02*
X54615000Y-53385000D01*
X54615000Y-53385000D02*
X54615000Y-53775000D01*
X54685000Y-51165000D02*
X61165000Y-51165000D01*
X62335000Y-52935000D02*
X62335000Y-53385000D01*
X62335000Y-53385000D02*
X61235000Y-53385000D01*
%TO.C,Y1*%
X127860000Y-58350000D02*
X127860000Y-59700000D01*
X126110000Y-58350000D02*
X126110000Y-59700000D01*
%TO.C,J8*%
X64860000Y-62330000D02*
X65430000Y-62330000D01*
X64860000Y-62330000D02*
X64860000Y-59670000D01*
X65430000Y-62330000D02*
X65430000Y-63850000D01*
X66950000Y-62330000D02*
X70510000Y-62330000D01*
X72030000Y-62330000D02*
X75140000Y-62330000D01*
X75140000Y-62330000D02*
X75140000Y-59670000D01*
X64860000Y-59670000D02*
X67970000Y-59670000D01*
X69490000Y-59670000D02*
X73050000Y-59670000D01*
X74570000Y-59670000D02*
X75140000Y-59670000D01*
%TO.C,C8*%
X116937164Y-57905000D02*
X117152836Y-57905000D01*
X116937164Y-58625000D02*
X117152836Y-58625000D01*
%TO.C,R6*%
X120718641Y-60975000D02*
X120411359Y-60975000D01*
X120718641Y-60215000D02*
X120411359Y-60215000D01*
%TO.C,U2*%
X155800000Y-51740000D02*
X149050000Y-51740000D01*
X155800000Y-51740000D02*
X155800000Y-69740000D01*
X131050000Y-51740000D02*
X130300000Y-51740000D01*
X130300000Y-51740000D02*
X130300000Y-52740000D01*
X155800000Y-69740000D02*
X149050000Y-69740000D01*
X149860000Y-69740000D02*
X149860000Y-51740000D01*
X131050000Y-69740000D02*
X130300000Y-69740000D01*
X130300000Y-69740000D02*
X130300000Y-68740000D01*
%TO.C,J4*%
X77085000Y-69165000D02*
X77085000Y-68715000D01*
X77085000Y-68715000D02*
X75985000Y-68715000D01*
X75985000Y-68715000D02*
X75985000Y-68325000D01*
X75915000Y-70935000D02*
X69435000Y-70935000D01*
X68265000Y-69165000D02*
X68265000Y-68715000D01*
X68265000Y-68715000D02*
X69365000Y-68715000D01*
%TO.C,U5*%
X98935000Y-61000000D02*
X98935000Y-59200000D01*
X98935000Y-61000000D02*
X98935000Y-61800000D01*
X95815000Y-61000000D02*
X95815000Y-60200000D01*
X95815000Y-61000000D02*
X95815000Y-61800000D01*
%TO.C,C2*%
X126877164Y-61185000D02*
X127092836Y-61185000D01*
X126877164Y-61905000D02*
X127092836Y-61905000D01*
%TO.C,J9*%
X98885000Y-53315000D02*
X98885000Y-53765000D01*
X98885000Y-53765000D02*
X99985000Y-53765000D01*
X99985000Y-53765000D02*
X99985000Y-54155000D01*
X100055000Y-51545000D02*
X106535000Y-51545000D01*
X107705000Y-53315000D02*
X107705000Y-53765000D01*
X107705000Y-53765000D02*
X106605000Y-53765000D01*
%TO.C,R8*%
X120411359Y-61235000D02*
X120718641Y-61235000D01*
X120411359Y-61995000D02*
X120718641Y-61995000D01*
%TO.C,C11*%
X107110000Y-61012836D02*
X107110000Y-60797164D01*
X107830000Y-61012836D02*
X107830000Y-60797164D01*
%TO.C,R2*%
X59435000Y-64168641D02*
X59435000Y-63861359D01*
X60195000Y-64168641D02*
X60195000Y-63861359D01*
%TO.C,J5*%
X68965000Y-52935000D02*
X68965000Y-53385000D01*
X68965000Y-53385000D02*
X70065000Y-53385000D01*
X70065000Y-53385000D02*
X70065000Y-53775000D01*
X70135000Y-51165000D02*
X76615000Y-51165000D01*
X77785000Y-52935000D02*
X77785000Y-53385000D01*
X77785000Y-53385000D02*
X76685000Y-53385000D01*
%TO.C,C9*%
X105732836Y-64365000D02*
X105517164Y-64365000D01*
X105732836Y-63645000D02*
X105517164Y-63645000D01*
%TD*%
M02*
