%TF.GenerationSoftware,KiCad,Pcbnew,7.0.9+1*%
%TF.CreationDate,2023-12-11T14:48:35+01:00*%
%TF.ProjectId,IR-sensor,49522d73-656e-4736-9f72-2e6b69636164,rev?*%
%TF.SameCoordinates,Original*%
%TF.FileFunction,Copper,L1,Top*%
%TF.FilePolarity,Positive*%
%FSLAX46Y46*%
G04 Gerber Fmt 4.6, Leading zero omitted, Abs format (unit mm)*
G04 Created by KiCad (PCBNEW 7.0.9+1) date 2023-12-11 14:48:35*
%MOMM*%
%LPD*%
G01*
G04 APERTURE LIST*
G04 Aperture macros list*
%AMRoundRect*
0 Rectangle with rounded corners*
0 $1 Rounding radius*
0 $2 $3 $4 $5 $6 $7 $8 $9 X,Y pos of 4 corners*
0 Add a 4 corners polygon primitive as box body*
4,1,4,$2,$3,$4,$5,$6,$7,$8,$9,$2,$3,0*
0 Add four circle primitives for the rounded corners*
1,1,$1+$1,$2,$3*
1,1,$1+$1,$4,$5*
1,1,$1+$1,$6,$7*
1,1,$1+$1,$8,$9*
0 Add four rect primitives between the rounded corners*
20,1,$1+$1,$2,$3,$4,$5,0*
20,1,$1+$1,$4,$5,$6,$7,0*
20,1,$1+$1,$6,$7,$8,$9,0*
20,1,$1+$1,$8,$9,$2,$3,0*%
G04 Aperture macros list end*
%TA.AperFunction,SMDPad,CuDef*%
%ADD10RoundRect,0.218750X-0.218750X-0.256250X0.218750X-0.256250X0.218750X0.256250X-0.218750X0.256250X0*%
%TD*%
%TA.AperFunction,SMDPad,CuDef*%
%ADD11RoundRect,0.125000X-0.425000X0.125000X-0.425000X-0.125000X0.425000X-0.125000X0.425000X0.125000X0*%
%TD*%
%TA.AperFunction,SMDPad,CuDef*%
%ADD12RoundRect,0.250000X-0.600000X0.350000X-0.600000X-0.350000X0.600000X-0.350000X0.600000X0.350000X0*%
%TD*%
%TA.AperFunction,SMDPad,CuDef*%
%ADD13RoundRect,0.135000X-0.185000X0.135000X-0.185000X-0.135000X0.185000X-0.135000X0.185000X0.135000X0*%
%TD*%
%TA.AperFunction,SMDPad,CuDef*%
%ADD14RoundRect,0.140000X0.140000X0.170000X-0.140000X0.170000X-0.140000X-0.170000X0.140000X-0.170000X0*%
%TD*%
%TA.AperFunction,SMDPad,CuDef*%
%ADD15RoundRect,0.140000X-0.170000X0.140000X-0.170000X-0.140000X0.170000X-0.140000X0.170000X0.140000X0*%
%TD*%
%TA.AperFunction,SMDPad,CuDef*%
%ADD16RoundRect,0.135000X-0.135000X-0.185000X0.135000X-0.185000X0.135000X0.185000X-0.135000X0.185000X0*%
%TD*%
%TA.AperFunction,SMDPad,CuDef*%
%ADD17RoundRect,0.150000X-0.825000X-0.150000X0.825000X-0.150000X0.825000X0.150000X-0.825000X0.150000X0*%
%TD*%
%TA.AperFunction,SMDPad,CuDef*%
%ADD18RoundRect,0.150000X-0.587500X-0.150000X0.587500X-0.150000X0.587500X0.150000X-0.587500X0.150000X0*%
%TD*%
%TA.AperFunction,SMDPad,CuDef*%
%ADD19RoundRect,0.135000X0.185000X-0.135000X0.185000X0.135000X-0.185000X0.135000X-0.185000X-0.135000X0*%
%TD*%
%TA.AperFunction,SMDPad,CuDef*%
%ADD20RoundRect,0.135000X0.135000X0.185000X-0.135000X0.185000X-0.135000X-0.185000X0.135000X-0.185000X0*%
%TD*%
%TA.AperFunction,SMDPad,CuDef*%
%ADD21RoundRect,0.250000X1.075000X-0.375000X1.075000X0.375000X-1.075000X0.375000X-1.075000X-0.375000X0*%
%TD*%
%TA.AperFunction,SMDPad,CuDef*%
%ADD22RoundRect,0.140000X-0.140000X-0.170000X0.140000X-0.170000X0.140000X0.170000X-0.140000X0.170000X0*%
%TD*%
%TA.AperFunction,SMDPad,CuDef*%
%ADD23RoundRect,0.140000X0.170000X-0.140000X0.170000X0.140000X-0.170000X0.140000X-0.170000X-0.140000X0*%
%TD*%
%TA.AperFunction,ViaPad*%
%ADD24C,0.800000*%
%TD*%
%TA.AperFunction,Conductor*%
%ADD25C,0.250000*%
%TD*%
G04 APERTURE END LIST*
D10*
%TO.P,D3,1,K*%
%TO.N,GND*%
X58212500Y-60000000D03*
%TO.P,D3,2,A*%
%TO.N,Net-(D3-A)*%
X59787500Y-60000000D03*
%TD*%
D11*
%TO.P,J1,1,Pin_1*%
%TO.N,+2V5*%
X99225000Y-57225000D03*
%TO.P,J1,2,Pin_2*%
%TO.N,/PWM_SEND*%
X99225000Y-58025000D03*
%TO.P,J1,3,Pin_3*%
%TO.N,/PWM_RCV*%
X99225000Y-58825000D03*
%TO.P,J1,4,Pin_4*%
%TO.N,-2V5*%
X99225000Y-59625000D03*
%TO.P,J1,5,Pin_5*%
%TO.N,/INDICATOR*%
X99225000Y-60425000D03*
%TO.P,J1,6,Pin_6*%
%TO.N,GND*%
X99225000Y-61225000D03*
%TO.P,J1,7,Pin_7*%
%TO.N,/DOG*%
X99225000Y-62025000D03*
%TO.P,J1,8,Pin_8*%
%TO.N,GND*%
X99225000Y-62825000D03*
D12*
%TO.P,J1,MP*%
%TO.N,N/C*%
X100625000Y-55925000D03*
X100625000Y-64125000D03*
%TD*%
D13*
%TO.P,R3,1*%
%TO.N,GND*%
X70875000Y-60815000D03*
%TO.P,R3,2*%
%TO.N,Net-(U1B--)*%
X70875000Y-61835000D03*
%TD*%
D14*
%TO.P,C7,1*%
%TO.N,+2V5*%
X62945000Y-61145000D03*
%TO.P,C7,2*%
%TO.N,GND*%
X61985000Y-61145000D03*
%TD*%
D15*
%TO.P,C5,1*%
%TO.N,Net-(U1B--)*%
X69335000Y-62755000D03*
%TO.P,C5,2*%
%TO.N,Net-(C5-Pad2)*%
X69335000Y-63715000D03*
%TD*%
D16*
%TO.P,R12,1*%
%TO.N,GND*%
X64145000Y-63085000D03*
%TO.P,R12,2*%
%TO.N,/PWM_SEND*%
X65165000Y-63085000D03*
%TD*%
D17*
%TO.P,U1,1*%
%TO.N,Net-(U1B-+)*%
X73150000Y-56190000D03*
%TO.P,U1,2,-*%
%TO.N,Net-(D2-K)*%
X73150000Y-57460000D03*
%TO.P,U1,3,+*%
%TO.N,GND*%
X73150000Y-58730000D03*
%TO.P,U1,4,V+*%
%TO.N,+2V5*%
X73150000Y-60000000D03*
%TO.P,U1,5,+*%
%TO.N,Net-(U1B-+)*%
X73150000Y-61270000D03*
%TO.P,U1,6,-*%
%TO.N,Net-(U1B--)*%
X73150000Y-62540000D03*
%TO.P,U1,7*%
%TO.N,Net-(C5-Pad2)*%
X73150000Y-63810000D03*
%TO.P,U1,8*%
%TO.N,Net-(R4-Pad1)*%
X78100000Y-63810000D03*
%TO.P,U1,9,-*%
%TO.N,Net-(U1C--)*%
X78100000Y-62540000D03*
%TO.P,U1,10,+*%
%TO.N,Net-(U1C-+)*%
X78100000Y-61270000D03*
%TO.P,U1,11,V-*%
%TO.N,-2V5*%
X78100000Y-60000000D03*
%TO.P,U1,12,+*%
%TO.N,GND*%
X78100000Y-58730000D03*
%TO.P,U1,13,-*%
%TO.N,Net-(U1D--)*%
X78100000Y-57460000D03*
%TO.P,U1,14*%
%TO.N,Net-(C13-Pad1)*%
X78100000Y-56190000D03*
%TD*%
D18*
%TO.P,Q1,1,G*%
%TO.N,/PWM_SEND*%
X62407500Y-64525000D03*
%TO.P,Q1,2,S*%
%TO.N,GND*%
X62407500Y-66425000D03*
%TO.P,Q1,3,D*%
%TO.N,Net-(D1-K)*%
X64282500Y-65475000D03*
%TD*%
D16*
%TO.P,R13,1*%
%TO.N,Net-(D3-A)*%
X61945000Y-60045000D03*
%TO.P,R13,2*%
%TO.N,/INDICATOR*%
X62965000Y-60045000D03*
%TD*%
D19*
%TO.P,R1,1*%
%TO.N,Net-(D2-K)*%
X70945000Y-57385000D03*
%TO.P,R1,2*%
%TO.N,Net-(U1B-+)*%
X70945000Y-56365000D03*
%TD*%
D20*
%TO.P,R18,1*%
%TO.N,/DOG*%
X84880000Y-56295000D03*
%TO.P,R18,2*%
%TO.N,Net-(C13-Pad1)*%
X83860000Y-56295000D03*
%TD*%
D19*
%TO.P,R7,1*%
%TO.N,GND*%
X89530000Y-59380000D03*
%TO.P,R7,2*%
%TO.N,/PWM_RCV*%
X89530000Y-58360000D03*
%TD*%
D16*
%TO.P,R11,1*%
%TO.N,Net-(D1-A)*%
X61935000Y-63075000D03*
%TO.P,R11,2*%
%TO.N,+2V5*%
X62955000Y-63075000D03*
%TD*%
D18*
%TO.P,Q2,1,G*%
%TO.N,/PWM_RCV*%
X83457500Y-59925000D03*
%TO.P,Q2,2,S*%
%TO.N,GND*%
X83457500Y-61825000D03*
%TO.P,Q2,3,D*%
%TO.N,Net-(Q2-D)*%
X85332500Y-60875000D03*
%TD*%
D14*
%TO.P,C13,1*%
%TO.N,Net-(C13-Pad1)*%
X82585000Y-57385000D03*
%TO.P,C13,2*%
%TO.N,Net-(U1D--)*%
X81625000Y-57385000D03*
%TD*%
D21*
%TO.P,D1,1,K*%
%TO.N,Net-(D1-K)*%
X59000000Y-66400000D03*
%TO.P,D1,2,A*%
%TO.N,Net-(D1-A)*%
X59000000Y-63600000D03*
%TD*%
D19*
%TO.P,R16,1*%
%TO.N,Net-(U1D--)*%
X80225000Y-57955000D03*
%TO.P,R16,2*%
%TO.N,Net-(Q2-D)*%
X80225000Y-56935000D03*
%TD*%
D16*
%TO.P,R14,1*%
%TO.N,Net-(C6-Pad1)*%
X68221000Y-60627000D03*
%TO.P,R14,2*%
%TO.N,GND*%
X69241000Y-60627000D03*
%TD*%
D13*
%TO.P,R6,1*%
%TO.N,Net-(Q2-D)*%
X87705000Y-60320000D03*
%TO.P,R6,2*%
%TO.N,Net-(R4-Pad1)*%
X87705000Y-61340000D03*
%TD*%
D22*
%TO.P,C9,1*%
%TO.N,Net-(U1C-+)*%
X80765000Y-61305000D03*
%TO.P,C9,2*%
%TO.N,GND*%
X81725000Y-61305000D03*
%TD*%
D16*
%TO.P,R4,1*%
%TO.N,Net-(R4-Pad1)*%
X80615000Y-63965000D03*
%TO.P,R4,2*%
%TO.N,Net-(U1C--)*%
X81635000Y-63965000D03*
%TD*%
D21*
%TO.P,D2,1,K*%
%TO.N,Net-(D2-K)*%
X59000000Y-56400000D03*
%TO.P,D2,2,A*%
%TO.N,GND*%
X59000000Y-53600000D03*
%TD*%
D20*
%TO.P,R17,1*%
%TO.N,Net-(C13-Pad1)*%
X82605000Y-58485000D03*
%TO.P,R17,2*%
%TO.N,Net-(U1D--)*%
X81585000Y-58485000D03*
%TD*%
D23*
%TO.P,C1,1*%
%TO.N,Net-(D2-K)*%
X69385000Y-57345000D03*
%TO.P,C1,2*%
%TO.N,Net-(U1B-+)*%
X69385000Y-56385000D03*
%TD*%
D15*
%TO.P,C2,1*%
%TO.N,GND*%
X70865000Y-58865000D03*
%TO.P,C2,2*%
%TO.N,+2V5*%
X70865000Y-59825000D03*
%TD*%
D16*
%TO.P,R15,1*%
%TO.N,Net-(C6-Pad1)*%
X68165000Y-61675000D03*
%TO.P,R15,2*%
%TO.N,Net-(U1C-+)*%
X69185000Y-61675000D03*
%TD*%
D13*
%TO.P,R2,1*%
%TO.N,Net-(U1B--)*%
X70865000Y-62715000D03*
%TO.P,R2,2*%
%TO.N,Net-(C5-Pad2)*%
X70865000Y-63735000D03*
%TD*%
D15*
%TO.P,C11,1*%
%TO.N,/DOG*%
X85855000Y-56240000D03*
%TO.P,C11,2*%
%TO.N,GND*%
X85855000Y-57200000D03*
%TD*%
D14*
%TO.P,C4,1*%
%TO.N,+2V5*%
X62945000Y-62115000D03*
%TO.P,C4,2*%
%TO.N,GND*%
X61985000Y-62115000D03*
%TD*%
D15*
%TO.P,C6,1*%
%TO.N,Net-(C6-Pad1)*%
X68140000Y-62780000D03*
%TO.P,C6,2*%
%TO.N,Net-(C5-Pad2)*%
X68140000Y-63740000D03*
%TD*%
D22*
%TO.P,C3,1*%
%TO.N,+2V5*%
X75205000Y-65585000D03*
%TO.P,C3,2*%
%TO.N,-2V5*%
X76165000Y-65585000D03*
%TD*%
D16*
%TO.P,R5,1*%
%TO.N,Net-(U1C--)*%
X80675000Y-62795000D03*
%TO.P,R5,2*%
%TO.N,GND*%
X81695000Y-62795000D03*
%TD*%
D15*
%TO.P,C10,1*%
%TO.N,GND*%
X80125000Y-58965000D03*
%TO.P,C10,2*%
%TO.N,-2V5*%
X80125000Y-59925000D03*
%TD*%
D24*
%TO.N,Net-(U1C-+)*%
X79800000Y-61270000D03*
X69955500Y-61700000D03*
%TO.N,GND*%
X69800000Y-58850000D03*
X60800000Y-61200000D03*
X60800000Y-62100000D03*
X59700000Y-51800000D03*
X85800000Y-58400000D03*
X76200000Y-58700000D03*
X97500000Y-61200000D03*
X56801100Y-59989427D03*
X85700000Y-62000000D03*
X84100000Y-63200000D03*
X58100000Y-51800000D03*
X97500000Y-63100000D03*
X88300000Y-59400000D03*
%TO.N,/PWM_SEND*%
X97575000Y-57941816D03*
X66300000Y-68400000D03*
%TO.N,/PWM_RCV*%
X89530000Y-57350004D03*
X84956890Y-59475000D03*
X94400004Y-57350004D03*
%TO.N,+2V5*%
X96850000Y-56975000D03*
X75150000Y-66650000D03*
%TO.N,Net-(Q2-D)*%
X86400000Y-60200000D03*
X81100000Y-56525000D03*
%TO.N,-2V5*%
X81300000Y-59900000D03*
X83100000Y-65600000D03*
X93950000Y-59300000D03*
%TO.N,/INDICATOR*%
X63900000Y-60100000D03*
X96005851Y-61005851D03*
%TD*%
D25*
%TO.N,Net-(U1C-+)*%
X80670000Y-61270000D02*
X80700000Y-61300000D01*
X69185000Y-61675000D02*
X69930500Y-61675000D01*
X69930500Y-61675000D02*
X69955500Y-61700000D01*
X78100000Y-61270000D02*
X80670000Y-61270000D01*
%TO.N,GND*%
X61985000Y-61145000D02*
X60855000Y-61145000D01*
X97775000Y-62825000D02*
X97500000Y-63100000D01*
X99225000Y-62825000D02*
X97775000Y-62825000D01*
X97525000Y-61225000D02*
X97500000Y-61200000D01*
X99225000Y-61225000D02*
X97525000Y-61225000D01*
X60855000Y-61145000D02*
X60800000Y-61200000D01*
%TO.N,Net-(D1-K)*%
X60100000Y-65300000D02*
X61000000Y-65300000D01*
X61200000Y-65500000D02*
X64300000Y-65500000D01*
X59000000Y-66400000D02*
X60100000Y-65300000D01*
X61000000Y-65300000D02*
X61200000Y-65500000D01*
%TO.N,Net-(U1B-+)*%
X74500000Y-56200000D02*
X73500000Y-56200000D01*
X74900000Y-60450000D02*
X74900000Y-56600000D01*
X71000000Y-56400000D02*
X69500000Y-56400000D01*
X74080000Y-61270000D02*
X74900000Y-60450000D01*
X71210000Y-56190000D02*
X71000000Y-56400000D01*
X73150000Y-56190000D02*
X71210000Y-56190000D01*
X74900000Y-56600000D02*
X74500000Y-56200000D01*
X73150000Y-61270000D02*
X74080000Y-61270000D01*
%TO.N,Net-(D2-K)*%
X66800000Y-56400000D02*
X67700000Y-57300000D01*
X71100000Y-57300000D02*
X71700000Y-57300000D01*
X71800000Y-57400000D02*
X73100000Y-57400000D01*
X71700000Y-57300000D02*
X71800000Y-57400000D01*
X59000000Y-56400000D02*
X66800000Y-56400000D01*
X69500000Y-57300000D02*
X71100000Y-57300000D01*
X67700000Y-57300000D02*
X69500000Y-57300000D01*
%TO.N,Net-(U1B--)*%
X73150000Y-62540000D02*
X71060000Y-62540000D01*
X71060000Y-62540000D02*
X70900000Y-62700000D01*
X70900000Y-62000000D02*
X70950000Y-61950000D01*
X69335000Y-62755000D02*
X70595000Y-62755000D01*
X70900000Y-62700000D02*
X70900000Y-62000000D01*
X70595000Y-62755000D02*
X70700000Y-62650000D01*
%TO.N,/PWM_SEND*%
X65165000Y-64490000D02*
X65200000Y-64525000D01*
X66200000Y-64900000D02*
X66200000Y-68300000D01*
X65825000Y-64525000D02*
X66200000Y-64900000D01*
X66200000Y-68300000D02*
X66300000Y-68400000D01*
X99300000Y-58100000D02*
X99141816Y-57941816D01*
X99141816Y-57941816D02*
X97575000Y-57941816D01*
X62407500Y-64525000D02*
X65200000Y-64525000D01*
X65200000Y-64525000D02*
X65825000Y-64525000D01*
X65165000Y-63085000D02*
X65165000Y-64490000D01*
%TO.N,/PWM_RCV*%
X84531890Y-59900000D02*
X84956890Y-59475000D01*
X99225000Y-58825000D02*
X95875000Y-58825000D01*
X89530000Y-58360000D02*
X89530000Y-57350004D01*
X95875000Y-58825000D02*
X94400000Y-57350000D01*
X83600000Y-59900000D02*
X84531890Y-59900000D01*
%TO.N,Net-(U1C--)*%
X80675000Y-62795000D02*
X80675000Y-62975000D01*
X80340000Y-62540000D02*
X80600000Y-62800000D01*
X80675000Y-62975000D02*
X81600000Y-63900000D01*
X78100000Y-62540000D02*
X80340000Y-62540000D01*
%TO.N,+2V5*%
X98300000Y-57250000D02*
X98025000Y-56975000D01*
X75205000Y-65585000D02*
X75205000Y-66595000D01*
X62955000Y-63075000D02*
X62955000Y-62345000D01*
X67000000Y-60340000D02*
X67510000Y-59830000D01*
X67000000Y-61600000D02*
X67000000Y-60340000D01*
X62945000Y-62055000D02*
X62900000Y-62100000D01*
X63700000Y-61600000D02*
X67000000Y-61600000D01*
X98025000Y-56975000D02*
X96850000Y-56975000D01*
X71100000Y-60000000D02*
X70900000Y-59800000D01*
X62955000Y-62345000D02*
X63700000Y-61600000D01*
X67000000Y-61600000D02*
X67000000Y-64500000D01*
X70770000Y-59830000D02*
X70800000Y-59800000D01*
X67000000Y-64500000D02*
X68050000Y-65550000D01*
X67510000Y-59830000D02*
X70770000Y-59830000D01*
X75325000Y-65475000D02*
X75300000Y-65500000D01*
X98300000Y-57250000D02*
X99300000Y-57250000D01*
X62945000Y-61145000D02*
X62945000Y-62055000D01*
X73150000Y-60000000D02*
X71100000Y-60000000D01*
X68050000Y-65550000D02*
X75050000Y-65550000D01*
X75205000Y-66595000D02*
X75150000Y-66650000D01*
%TO.N,Net-(C5-Pad2)*%
X71010000Y-63810000D02*
X70900000Y-63700000D01*
X69335000Y-63715000D02*
X68205000Y-63715000D01*
X73150000Y-63810000D02*
X71010000Y-63810000D01*
X70800000Y-63800000D02*
X69300000Y-63800000D01*
X68205000Y-63715000D02*
X68200000Y-63720000D01*
X70900000Y-63700000D02*
X70800000Y-63800000D01*
%TO.N,Net-(C6-Pad1)*%
X68140000Y-62780000D02*
X68140000Y-61740000D01*
X68165000Y-60735000D02*
X68200000Y-60700000D01*
X68165000Y-61675000D02*
X68165000Y-60735000D01*
%TO.N,Net-(Q2-D)*%
X86520000Y-60320000D02*
X86400000Y-60200000D01*
X85332500Y-60875000D02*
X85725000Y-60875000D01*
X85725000Y-60875000D02*
X86400000Y-60200000D01*
X80675000Y-56950000D02*
X81100000Y-56525000D01*
X80300000Y-56950000D02*
X80675000Y-56950000D01*
X87705000Y-60320000D02*
X86520000Y-60320000D01*
%TO.N,Net-(R4-Pad1)*%
X78100000Y-63810000D02*
X80510000Y-63810000D01*
X87500000Y-64400000D02*
X87500000Y-61600000D01*
X80510000Y-63810000D02*
X80700000Y-64000000D01*
X87500000Y-61600000D02*
X87700000Y-61400000D01*
X81100000Y-64700000D02*
X87200000Y-64700000D01*
X80615000Y-64215000D02*
X81100000Y-64700000D01*
X87200000Y-64700000D02*
X87500000Y-64400000D01*
X80615000Y-63965000D02*
X80615000Y-64215000D01*
%TO.N,/DOG*%
X99200000Y-62100000D02*
X92200000Y-62100000D01*
X86225000Y-56300000D02*
X85750000Y-56300000D01*
X90000000Y-56275000D02*
X86250000Y-56275000D01*
X84880000Y-56295000D02*
X85755000Y-56295000D01*
X85755000Y-56295000D02*
X85775000Y-56275000D01*
X90850000Y-57125000D02*
X90000000Y-56275000D01*
X92200000Y-62100000D02*
X90850000Y-60750000D01*
X86250000Y-56275000D02*
X86225000Y-56300000D01*
X90850000Y-60750000D02*
X90850000Y-57125000D01*
%TO.N,-2V5*%
X83085000Y-65585000D02*
X83100000Y-65600000D01*
X99225000Y-59625000D02*
X94275000Y-59625000D01*
X81275000Y-59925000D02*
X81300000Y-59900000D01*
X94275000Y-59625000D02*
X93950000Y-59300000D01*
X76165000Y-65585000D02*
X83085000Y-65585000D01*
X78100000Y-60000000D02*
X80200000Y-60000000D01*
X80125000Y-59925000D02*
X81275000Y-59925000D01*
%TO.N,Net-(D1-A)*%
X60650000Y-63600000D02*
X61150000Y-63100000D01*
X61150000Y-63100000D02*
X62000000Y-63100000D01*
X59000000Y-63600000D02*
X60650000Y-63600000D01*
%TO.N,/INDICATOR*%
X63900000Y-60100000D02*
X63000000Y-60100000D01*
X99225000Y-60425000D02*
X96586702Y-60425000D01*
X96586702Y-60425000D02*
X96005851Y-61005851D01*
%TO.N,Net-(D3-A)*%
X59787500Y-60000000D02*
X61900000Y-60000000D01*
%TO.N,Net-(C13-Pad1)*%
X82585000Y-57385000D02*
X82585000Y-55840000D01*
X79390000Y-56190000D02*
X79780000Y-55800000D01*
X82500000Y-57400000D02*
X82500000Y-58400000D01*
X82585000Y-55840000D02*
X82625000Y-55800000D01*
X79780000Y-55800000D02*
X82625000Y-55800000D01*
X83300000Y-55800000D02*
X83825000Y-56325000D01*
X78100000Y-56190000D02*
X79390000Y-56190000D01*
X82625000Y-55800000D02*
X83300000Y-55800000D01*
%TO.N,Net-(U1D--)*%
X79800000Y-57950000D02*
X81150000Y-57950000D01*
X81535000Y-57365000D02*
X81575000Y-57325000D01*
X81535000Y-58485000D02*
X81535000Y-57365000D01*
X81150000Y-57950000D02*
X81600000Y-58400000D01*
X78100000Y-57460000D02*
X79310000Y-57460000D01*
X79310000Y-57460000D02*
X79800000Y-57950000D01*
%TD*%
%TA.AperFunction,Conductor*%
%TO.N,GND*%
G36*
X102473066Y-50017813D02*
G01*
X102498376Y-50061650D01*
X102499500Y-50074500D01*
X102499500Y-69925500D01*
X102482187Y-69973066D01*
X102438350Y-69998376D01*
X102425500Y-69999500D01*
X50074500Y-69999500D01*
X50026934Y-69982187D01*
X50001624Y-69938350D01*
X50000500Y-69925500D01*
X50000500Y-67124337D01*
X51499500Y-67124337D01*
X51521417Y-67255681D01*
X51540429Y-67369614D01*
X51543930Y-67379811D01*
X51621172Y-67604811D01*
X51694743Y-67740757D01*
X51739526Y-67823509D01*
X51892262Y-68019744D01*
X52075215Y-68188164D01*
X52283393Y-68324173D01*
X52511119Y-68424063D01*
X52752179Y-68485108D01*
X52752182Y-68485108D01*
X52752185Y-68485109D01*
X52937929Y-68500500D01*
X52937933Y-68500500D01*
X53062071Y-68500500D01*
X53247814Y-68485109D01*
X53247816Y-68485108D01*
X53247821Y-68485108D01*
X53488881Y-68424063D01*
X53716607Y-68324173D01*
X53924785Y-68188164D01*
X54107738Y-68019744D01*
X54260474Y-67823509D01*
X54378828Y-67604810D01*
X54459571Y-67369614D01*
X54500500Y-67124335D01*
X54500500Y-66875665D01*
X54492758Y-66829266D01*
X57474500Y-66829266D01*
X57477354Y-66859699D01*
X57477354Y-66859701D01*
X57477355Y-66859704D01*
X57522206Y-66987881D01*
X57522207Y-66987883D01*
X57602846Y-67097146D01*
X57602853Y-67097153D01*
X57712116Y-67177792D01*
X57712118Y-67177793D01*
X57840295Y-67222644D01*
X57840301Y-67222646D01*
X57870734Y-67225500D01*
X57870741Y-67225500D01*
X60129258Y-67225500D01*
X60129266Y-67225500D01*
X60159699Y-67222646D01*
X60287882Y-67177793D01*
X60397150Y-67097150D01*
X60477793Y-66987882D01*
X60522646Y-66859699D01*
X60525500Y-66829266D01*
X60525500Y-65970734D01*
X60522646Y-65940301D01*
X60477793Y-65812118D01*
X60476664Y-65810588D01*
X60427109Y-65743442D01*
X60412793Y-65694890D01*
X60433035Y-65648495D01*
X60478364Y-65625965D01*
X60486649Y-65625500D01*
X60834522Y-65625500D01*
X60882088Y-65642813D01*
X60886848Y-65647174D01*
X60958647Y-65718973D01*
X60960819Y-65721343D01*
X60987545Y-65753194D01*
X61023546Y-65773979D01*
X61026270Y-65775715D01*
X61060314Y-65799553D01*
X61060316Y-65799554D01*
X61064949Y-65800795D01*
X61082795Y-65808186D01*
X61086955Y-65810588D01*
X61086958Y-65810588D01*
X61086959Y-65810589D01*
X61086958Y-65810589D01*
X61127888Y-65817806D01*
X61131038Y-65818504D01*
X61171193Y-65829264D01*
X61171193Y-65829263D01*
X61171194Y-65829264D01*
X61179040Y-65828577D01*
X61212610Y-65825640D01*
X61215829Y-65825500D01*
X63369167Y-65825500D01*
X63416733Y-65842813D01*
X63421493Y-65847174D01*
X63488517Y-65914198D01*
X63593607Y-65965573D01*
X63661740Y-65975500D01*
X63661746Y-65975500D01*
X64903254Y-65975500D01*
X64903260Y-65975500D01*
X64971393Y-65965573D01*
X65076483Y-65914198D01*
X65159198Y-65831483D01*
X65210573Y-65726393D01*
X65220500Y-65658260D01*
X65220500Y-65291740D01*
X65210573Y-65223607D01*
X65159198Y-65118517D01*
X65076483Y-65035802D01*
X65076482Y-65035801D01*
X64984800Y-64990981D01*
X64949670Y-64954537D01*
X64946185Y-64904038D01*
X64975976Y-64863113D01*
X65017300Y-64850500D01*
X65147407Y-64850500D01*
X65166560Y-64853022D01*
X65171193Y-64854263D01*
X65212598Y-64850640D01*
X65215817Y-64850500D01*
X65659522Y-64850500D01*
X65707088Y-64867813D01*
X65711848Y-64872174D01*
X65852826Y-65013152D01*
X65874218Y-65059028D01*
X65874500Y-65065478D01*
X65874500Y-67942973D01*
X65859208Y-67988021D01*
X65775464Y-68097158D01*
X65714955Y-68243238D01*
X65714955Y-68243239D01*
X65694318Y-68400000D01*
X65714955Y-68556760D01*
X65714955Y-68556761D01*
X65775464Y-68702841D01*
X65871715Y-68828279D01*
X65871720Y-68828284D01*
X65955345Y-68892451D01*
X65997159Y-68924536D01*
X66143238Y-68985044D01*
X66300000Y-69005682D01*
X66456762Y-68985044D01*
X66602841Y-68924536D01*
X66728282Y-68828282D01*
X66824536Y-68702841D01*
X66885044Y-68556762D01*
X66905682Y-68400000D01*
X66885044Y-68243238D01*
X66824536Y-68097159D01*
X66792451Y-68055345D01*
X66728284Y-67971720D01*
X66728279Y-67971715D01*
X66602840Y-67875463D01*
X66602838Y-67875462D01*
X66571180Y-67862348D01*
X66533860Y-67828150D01*
X66525500Y-67793982D01*
X66525500Y-64915825D01*
X66525641Y-64912598D01*
X66528687Y-64877793D01*
X66529264Y-64871193D01*
X66518502Y-64831033D01*
X66517806Y-64827889D01*
X66510589Y-64786958D01*
X66510588Y-64786956D01*
X66510588Y-64786955D01*
X66508186Y-64782795D01*
X66500795Y-64764949D01*
X66499554Y-64760316D01*
X66475715Y-64726270D01*
X66473979Y-64723546D01*
X66453193Y-64687543D01*
X66421347Y-64660821D01*
X66418966Y-64658640D01*
X66066357Y-64306031D01*
X66064176Y-64303651D01*
X66058721Y-64297150D01*
X66037455Y-64271806D01*
X66020088Y-64261778D01*
X66001458Y-64251022D01*
X65998736Y-64249288D01*
X65964685Y-64225446D01*
X65964682Y-64225445D01*
X65960047Y-64224203D01*
X65942200Y-64216811D01*
X65938044Y-64214411D01*
X65897114Y-64207193D01*
X65893964Y-64206495D01*
X65853806Y-64195735D01*
X65853805Y-64195735D01*
X65820818Y-64198622D01*
X65812394Y-64199359D01*
X65809174Y-64199500D01*
X65564500Y-64199500D01*
X65516934Y-64182187D01*
X65491624Y-64138350D01*
X65490500Y-64125500D01*
X65490500Y-63584621D01*
X65507813Y-63537055D01*
X65512174Y-63532295D01*
X65543534Y-63500935D01*
X65579065Y-63465404D01*
X65629068Y-63358173D01*
X65635500Y-63309316D01*
X65635500Y-62860684D01*
X65629068Y-62811827D01*
X65579065Y-62704596D01*
X65495404Y-62620935D01*
X65388173Y-62570932D01*
X65388171Y-62570931D01*
X65352178Y-62566193D01*
X65339316Y-62564500D01*
X64990684Y-62564500D01*
X64979318Y-62565996D01*
X64941828Y-62570931D01*
X64834595Y-62620935D01*
X64750935Y-62704595D01*
X64700931Y-62811828D01*
X64694500Y-62860685D01*
X64694500Y-63309314D01*
X64700931Y-63358171D01*
X64750935Y-63465404D01*
X64817826Y-63532295D01*
X64839218Y-63578171D01*
X64839500Y-63584621D01*
X64839500Y-64125500D01*
X64822187Y-64173066D01*
X64778350Y-64198376D01*
X64765500Y-64199500D01*
X63344411Y-64199500D01*
X63296845Y-64182187D01*
X63284249Y-64168568D01*
X63201482Y-64085801D01*
X63096394Y-64034427D01*
X63028264Y-64024500D01*
X63028260Y-64024500D01*
X61786740Y-64024500D01*
X61786735Y-64024500D01*
X61718606Y-64034427D01*
X61718605Y-64034427D01*
X61613517Y-64085801D01*
X61530801Y-64168517D01*
X61479427Y-64273605D01*
X61479427Y-64273606D01*
X61469500Y-64341735D01*
X61469500Y-64708264D01*
X61479427Y-64776393D01*
X61479427Y-64776394D01*
X61530801Y-64881482D01*
X61530802Y-64881483D01*
X61613517Y-64964198D01*
X61718607Y-65015573D01*
X61786740Y-65025500D01*
X61786746Y-65025500D01*
X63028254Y-65025500D01*
X63028260Y-65025500D01*
X63096393Y-65015573D01*
X63201483Y-64964198D01*
X63284198Y-64881483D01*
X63284198Y-64881482D01*
X63288534Y-64877147D01*
X63289344Y-64877957D01*
X63325919Y-64852848D01*
X63344411Y-64850500D01*
X63547700Y-64850500D01*
X63595266Y-64867813D01*
X63620576Y-64911650D01*
X63611786Y-64961500D01*
X63580200Y-64990981D01*
X63488517Y-65035801D01*
X63405802Y-65118516D01*
X63405802Y-65118517D01*
X63398721Y-65133000D01*
X63362279Y-65168129D01*
X63332241Y-65174500D01*
X61365478Y-65174500D01*
X61317912Y-65157187D01*
X61313152Y-65152826D01*
X61241357Y-65081031D01*
X61239176Y-65078651D01*
X61235693Y-65074500D01*
X61212455Y-65046806D01*
X61191706Y-65034826D01*
X61176458Y-65026022D01*
X61173736Y-65024288D01*
X61139685Y-65000446D01*
X61139682Y-65000445D01*
X61135047Y-64999203D01*
X61117200Y-64991811D01*
X61113044Y-64989411D01*
X61072114Y-64982193D01*
X61068964Y-64981495D01*
X61028806Y-64970735D01*
X61028805Y-64970735D01*
X60995818Y-64973622D01*
X60987394Y-64974359D01*
X60984174Y-64974500D01*
X60115826Y-64974500D01*
X60112605Y-64974359D01*
X60103650Y-64973575D01*
X60071194Y-64970735D01*
X60071192Y-64970735D01*
X60031033Y-64981495D01*
X60027884Y-64982193D01*
X59986952Y-64989412D01*
X59986951Y-64989412D01*
X59982790Y-64991815D01*
X59964959Y-64999201D01*
X59960317Y-65000445D01*
X59960312Y-65000447D01*
X59926268Y-65024285D01*
X59923547Y-65026019D01*
X59887547Y-65046804D01*
X59887543Y-65046808D01*
X59860827Y-65078645D01*
X59858646Y-65081025D01*
X59386848Y-65552826D01*
X59340972Y-65574218D01*
X59334522Y-65574500D01*
X57870734Y-65574500D01*
X57840301Y-65577354D01*
X57840299Y-65577354D01*
X57840295Y-65577355D01*
X57712118Y-65622206D01*
X57712116Y-65622207D01*
X57602853Y-65702846D01*
X57602846Y-65702853D01*
X57522207Y-65812116D01*
X57522206Y-65812118D01*
X57477355Y-65940295D01*
X57477354Y-65940299D01*
X57477354Y-65940301D01*
X57474500Y-65970734D01*
X57474500Y-66829266D01*
X54492758Y-66829266D01*
X54459571Y-66630386D01*
X54378828Y-66395190D01*
X54260474Y-66176491D01*
X54107738Y-65980256D01*
X54097394Y-65970734D01*
X53924785Y-65811836D01*
X53716607Y-65675827D01*
X53488887Y-65575939D01*
X53488883Y-65575938D01*
X53488881Y-65575937D01*
X53325233Y-65534495D01*
X53247814Y-65514890D01*
X53062071Y-65499500D01*
X53062067Y-65499500D01*
X52937933Y-65499500D01*
X52937929Y-65499500D01*
X52752185Y-65514890D01*
X52602382Y-65552826D01*
X52511119Y-65575937D01*
X52511117Y-65575937D01*
X52511112Y-65575939D01*
X52283392Y-65675827D01*
X52075214Y-65811836D01*
X51892263Y-65980254D01*
X51739529Y-66176486D01*
X51739522Y-66176498D01*
X51621172Y-66395188D01*
X51540428Y-66630389D01*
X51499500Y-66875662D01*
X51499500Y-67124337D01*
X50000500Y-67124337D01*
X50000500Y-64029266D01*
X57474500Y-64029266D01*
X57477354Y-64059699D01*
X57477354Y-64059701D01*
X57477355Y-64059704D01*
X57522206Y-64187881D01*
X57522207Y-64187883D01*
X57602846Y-64297146D01*
X57602853Y-64297153D01*
X57712116Y-64377792D01*
X57712118Y-64377793D01*
X57840295Y-64422644D01*
X57840301Y-64422646D01*
X57870734Y-64425500D01*
X57870741Y-64425500D01*
X60129258Y-64425500D01*
X60129266Y-64425500D01*
X60159699Y-64422646D01*
X60287882Y-64377793D01*
X60397150Y-64297150D01*
X60477793Y-64187882D01*
X60522646Y-64059699D01*
X60525500Y-64029266D01*
X60525500Y-63999500D01*
X60542813Y-63951934D01*
X60586650Y-63926624D01*
X60599500Y-63925500D01*
X60634174Y-63925500D01*
X60637394Y-63925640D01*
X60663546Y-63927928D01*
X60678805Y-63929264D01*
X60678805Y-63929263D01*
X60678807Y-63929264D01*
X60718967Y-63918502D01*
X60722100Y-63917807D01*
X60763045Y-63910588D01*
X60767194Y-63908191D01*
X60785055Y-63900794D01*
X60789684Y-63899554D01*
X60823733Y-63875712D01*
X60826450Y-63873980D01*
X60862455Y-63853194D01*
X60889187Y-63821334D01*
X60891348Y-63818976D01*
X61263152Y-63447174D01*
X61309029Y-63425782D01*
X61315478Y-63425500D01*
X61461474Y-63425500D01*
X61509040Y-63442813D01*
X61516660Y-63451129D01*
X61520935Y-63455404D01*
X61604596Y-63539065D01*
X61711827Y-63589068D01*
X61760684Y-63595500D01*
X61760686Y-63595500D01*
X62109314Y-63595500D01*
X62109316Y-63595500D01*
X62158173Y-63589068D01*
X62265404Y-63539065D01*
X62349065Y-63455404D01*
X62351059Y-63451129D01*
X62362878Y-63425782D01*
X62377933Y-63393495D01*
X62413726Y-63357702D01*
X62464152Y-63353290D01*
X62505617Y-63382324D01*
X62512067Y-63393496D01*
X62540933Y-63455402D01*
X62540935Y-63455404D01*
X62624596Y-63539065D01*
X62731827Y-63589068D01*
X62780684Y-63595500D01*
X62780686Y-63595500D01*
X63129314Y-63595500D01*
X63129316Y-63595500D01*
X63178173Y-63589068D01*
X63285404Y-63539065D01*
X63369065Y-63455404D01*
X63419068Y-63348173D01*
X63425500Y-63299316D01*
X63425500Y-62850684D01*
X63419068Y-62801827D01*
X63369065Y-62694596D01*
X63315330Y-62640861D01*
X63293938Y-62594985D01*
X63307039Y-62546090D01*
X63315331Y-62536209D01*
X63368221Y-62483319D01*
X63368224Y-62483316D01*
X63418972Y-62374487D01*
X63420716Y-62361234D01*
X63441755Y-62318569D01*
X63813152Y-61947174D01*
X63859029Y-61925782D01*
X63865478Y-61925500D01*
X66600500Y-61925500D01*
X66648066Y-61942813D01*
X66673376Y-61986650D01*
X66674500Y-61999500D01*
X66674500Y-64484173D01*
X66674359Y-64487400D01*
X66670735Y-64528805D01*
X66670735Y-64528806D01*
X66681495Y-64568964D01*
X66682193Y-64572114D01*
X66689411Y-64613044D01*
X66691811Y-64617200D01*
X66699203Y-64635047D01*
X66700445Y-64639682D01*
X66700446Y-64639685D01*
X66724288Y-64673736D01*
X66726022Y-64676458D01*
X66732423Y-64687543D01*
X66746806Y-64712455D01*
X66746808Y-64712457D01*
X66746807Y-64712457D01*
X66761691Y-64724945D01*
X66778658Y-64739182D01*
X66781027Y-64741353D01*
X67808652Y-65768979D01*
X67810824Y-65771349D01*
X67837545Y-65803194D01*
X67864065Y-65818505D01*
X67873548Y-65823980D01*
X67876267Y-65825713D01*
X67884508Y-65831483D01*
X67910314Y-65849553D01*
X67910315Y-65849553D01*
X67910316Y-65849554D01*
X67914945Y-65850794D01*
X67932800Y-65858189D01*
X67936955Y-65860588D01*
X67977915Y-65867809D01*
X67981028Y-65868500D01*
X68021193Y-65879263D01*
X68062598Y-65875640D01*
X68065817Y-65875500D01*
X74698346Y-65875500D01*
X74745912Y-65892813D01*
X74765413Y-65918226D01*
X74781735Y-65953229D01*
X74781776Y-65953315D01*
X74781776Y-65953316D01*
X74847902Y-66019442D01*
X74869294Y-66065318D01*
X74856193Y-66114213D01*
X74840625Y-66130476D01*
X74721717Y-66221718D01*
X74721715Y-66221720D01*
X74625464Y-66347158D01*
X74564955Y-66493238D01*
X74564955Y-66493239D01*
X74544318Y-66650000D01*
X74564955Y-66806760D01*
X74564955Y-66806761D01*
X74625464Y-66952841D01*
X74721715Y-67078279D01*
X74721720Y-67078284D01*
X74781738Y-67124337D01*
X74847159Y-67174536D01*
X74993238Y-67235044D01*
X75150000Y-67255682D01*
X75306762Y-67235044D01*
X75452841Y-67174536D01*
X75578282Y-67078282D01*
X75674536Y-66952841D01*
X75696698Y-66899337D01*
X92674500Y-66899337D01*
X92707509Y-67097153D01*
X92715429Y-67144614D01*
X92743197Y-67225500D01*
X92796172Y-67379811D01*
X92869743Y-67515757D01*
X92914526Y-67598509D01*
X93067262Y-67794744D01*
X93250215Y-67963164D01*
X93458393Y-68099173D01*
X93686119Y-68199063D01*
X93927179Y-68260108D01*
X93927182Y-68260108D01*
X93927185Y-68260109D01*
X94112929Y-68275500D01*
X94112933Y-68275500D01*
X94237071Y-68275500D01*
X94422814Y-68260109D01*
X94422816Y-68260108D01*
X94422821Y-68260108D01*
X94663881Y-68199063D01*
X94891607Y-68099173D01*
X95099785Y-67963164D01*
X95282738Y-67794744D01*
X95435474Y-67598509D01*
X95553828Y-67379810D01*
X95634571Y-67144614D01*
X95675500Y-66899335D01*
X95675500Y-66650665D01*
X95634571Y-66405386D01*
X95553828Y-66170190D01*
X95435474Y-65951491D01*
X95282738Y-65755256D01*
X95251385Y-65726394D01*
X95099785Y-65586836D01*
X94891607Y-65450827D01*
X94663887Y-65350939D01*
X94663883Y-65350938D01*
X94663881Y-65350937D01*
X94451514Y-65297158D01*
X94422814Y-65289890D01*
X94237071Y-65274500D01*
X94237067Y-65274500D01*
X94112933Y-65274500D01*
X94112929Y-65274500D01*
X93927185Y-65289890D01*
X93763531Y-65331333D01*
X93686119Y-65350937D01*
X93686117Y-65350937D01*
X93686112Y-65350939D01*
X93458392Y-65450827D01*
X93250214Y-65586836D01*
X93067263Y-65755254D01*
X92914529Y-65951486D01*
X92914522Y-65951498D01*
X92796172Y-66170188D01*
X92715428Y-66405389D01*
X92674500Y-66650662D01*
X92674500Y-66899337D01*
X75696698Y-66899337D01*
X75735044Y-66806762D01*
X75755682Y-66650000D01*
X75735044Y-66493238D01*
X75674536Y-66347159D01*
X75578282Y-66221718D01*
X75578281Y-66221717D01*
X75559450Y-66207267D01*
X75532254Y-66164575D01*
X75530500Y-66148560D01*
X75530500Y-66081692D01*
X75547813Y-66034126D01*
X75552174Y-66029366D01*
X75632674Y-65948866D01*
X75678550Y-65927474D01*
X75727445Y-65940575D01*
X75737326Y-65948866D01*
X75741776Y-65953316D01*
X75826684Y-66038224D01*
X75935513Y-66088972D01*
X75985099Y-66095500D01*
X76344900Y-66095499D01*
X76394487Y-66088972D01*
X76503316Y-66038224D01*
X76588224Y-65953316D01*
X76588265Y-65953227D01*
X76588335Y-65953157D01*
X76591936Y-65948015D01*
X76592842Y-65948649D01*
X76624056Y-65917434D01*
X76655332Y-65910500D01*
X82544848Y-65910500D01*
X82592414Y-65927813D01*
X82603556Y-65939452D01*
X82671715Y-66028279D01*
X82671720Y-66028284D01*
X82719984Y-66065318D01*
X82797159Y-66124536D01*
X82943238Y-66185044D01*
X83100000Y-66205682D01*
X83256762Y-66185044D01*
X83402841Y-66124536D01*
X83528282Y-66028282D01*
X83624536Y-65902841D01*
X83685044Y-65756762D01*
X83705682Y-65600000D01*
X83685044Y-65443238D01*
X83624536Y-65297159D01*
X83563096Y-65217088D01*
X83528284Y-65171720D01*
X83528279Y-65171715D01*
X83510676Y-65158208D01*
X83483478Y-65115517D01*
X83490085Y-65065331D01*
X83527405Y-65031133D01*
X83555724Y-65025500D01*
X87184174Y-65025500D01*
X87187394Y-65025640D01*
X87213546Y-65027928D01*
X87228805Y-65029264D01*
X87228805Y-65029263D01*
X87228807Y-65029264D01*
X87268967Y-65018502D01*
X87272100Y-65017807D01*
X87313045Y-65010588D01*
X87317194Y-65008191D01*
X87335055Y-65000794D01*
X87336358Y-65000445D01*
X87339684Y-64999554D01*
X87373733Y-64975712D01*
X87376450Y-64973980D01*
X87412455Y-64953194D01*
X87439187Y-64921334D01*
X87441352Y-64918973D01*
X87718983Y-64641341D01*
X87721329Y-64639191D01*
X87753194Y-64612455D01*
X87773980Y-64576450D01*
X87775712Y-64573733D01*
X87799553Y-64539685D01*
X87799554Y-64539684D01*
X87800794Y-64535054D01*
X87803192Y-64529266D01*
X99574500Y-64529266D01*
X99577354Y-64559699D01*
X99577354Y-64559701D01*
X99577355Y-64559704D01*
X99622206Y-64687881D01*
X99622207Y-64687883D01*
X99702846Y-64797146D01*
X99702853Y-64797153D01*
X99812116Y-64877792D01*
X99812118Y-64877793D01*
X99940295Y-64922644D01*
X99940301Y-64922646D01*
X99970734Y-64925500D01*
X99970741Y-64925500D01*
X101279258Y-64925500D01*
X101279266Y-64925500D01*
X101309699Y-64922646D01*
X101437882Y-64877793D01*
X101547150Y-64797150D01*
X101627793Y-64687882D01*
X101672646Y-64559699D01*
X101675500Y-64529266D01*
X101675500Y-63720734D01*
X101672646Y-63690301D01*
X101627793Y-63562118D01*
X101625202Y-63558607D01*
X101547153Y-63452853D01*
X101547146Y-63452846D01*
X101437883Y-63372207D01*
X101437881Y-63372206D01*
X101309704Y-63327355D01*
X101309705Y-63327355D01*
X101309700Y-63327354D01*
X101309699Y-63327354D01*
X101279266Y-63324500D01*
X99970734Y-63324500D01*
X99940301Y-63327354D01*
X99940299Y-63327354D01*
X99940295Y-63327355D01*
X99812118Y-63372206D01*
X99812116Y-63372207D01*
X99702853Y-63452846D01*
X99702846Y-63452853D01*
X99622207Y-63562116D01*
X99622206Y-63562118D01*
X99577355Y-63690295D01*
X99577354Y-63690299D01*
X99577354Y-63690301D01*
X99574500Y-63720734D01*
X99574500Y-64529266D01*
X87803192Y-64529266D01*
X87808193Y-64517192D01*
X87810588Y-64513045D01*
X87817807Y-64472100D01*
X87818504Y-64468960D01*
X87829264Y-64428807D01*
X87825640Y-64387395D01*
X87825500Y-64384173D01*
X87825500Y-61884500D01*
X87842813Y-61836934D01*
X87886650Y-61811624D01*
X87899500Y-61810500D01*
X87929314Y-61810500D01*
X87929316Y-61810500D01*
X87978173Y-61804068D01*
X88085404Y-61754065D01*
X88169065Y-61670404D01*
X88219068Y-61563173D01*
X88225500Y-61514316D01*
X88225500Y-61165684D01*
X88219068Y-61116827D01*
X88169065Y-61009596D01*
X88085404Y-60925935D01*
X88085402Y-60925933D01*
X88039499Y-60904529D01*
X88023495Y-60897066D01*
X87987702Y-60861274D01*
X87983290Y-60810848D01*
X88012324Y-60769383D01*
X88023492Y-60762934D01*
X88081713Y-60735786D01*
X88085402Y-60734066D01*
X88085402Y-60734065D01*
X88085404Y-60734065D01*
X88169065Y-60650404D01*
X88219068Y-60543173D01*
X88225500Y-60494316D01*
X88225500Y-60145684D01*
X88219068Y-60096827D01*
X88169065Y-59989596D01*
X88085404Y-59905935D01*
X87978173Y-59855932D01*
X87978171Y-59855931D01*
X87942178Y-59851193D01*
X87929316Y-59849500D01*
X87480684Y-59849500D01*
X87469318Y-59850996D01*
X87431828Y-59855931D01*
X87324595Y-59905935D01*
X87305979Y-59924552D01*
X87257704Y-59972826D01*
X87211830Y-59994218D01*
X87205380Y-59994500D01*
X87014301Y-59994500D01*
X86966735Y-59977187D01*
X86945934Y-59948818D01*
X86924536Y-59897159D01*
X86828284Y-59771720D01*
X86828279Y-59771715D01*
X86702841Y-59675464D01*
X86556761Y-59614955D01*
X86400000Y-59594318D01*
X86243239Y-59614955D01*
X86243238Y-59614955D01*
X86097158Y-59675464D01*
X85971720Y-59771715D01*
X85971715Y-59771720D01*
X85875464Y-59897158D01*
X85814955Y-60043238D01*
X85814955Y-60043239D01*
X85794318Y-60200000D01*
X85806277Y-60290841D01*
X85795321Y-60340261D01*
X85755162Y-60371075D01*
X85732910Y-60374500D01*
X84711735Y-60374500D01*
X84643606Y-60384427D01*
X84643605Y-60384427D01*
X84538517Y-60435801D01*
X84455801Y-60518517D01*
X84404427Y-60623605D01*
X84404427Y-60623606D01*
X84394500Y-60691735D01*
X84394500Y-61058264D01*
X84404427Y-61126393D01*
X84404427Y-61126394D01*
X84455801Y-61231482D01*
X84455802Y-61231483D01*
X84538517Y-61314198D01*
X84643607Y-61365573D01*
X84711740Y-61375500D01*
X84711746Y-61375500D01*
X85953254Y-61375500D01*
X85953260Y-61375500D01*
X86021393Y-61365573D01*
X86126483Y-61314198D01*
X86209198Y-61231483D01*
X86260573Y-61126393D01*
X86270500Y-61058260D01*
X86270500Y-60873013D01*
X86287813Y-60825447D01*
X86331650Y-60800137D01*
X86354154Y-60799646D01*
X86400000Y-60805682D01*
X86556762Y-60785044D01*
X86702841Y-60724536D01*
X86785914Y-60660791D01*
X86830962Y-60645500D01*
X87205380Y-60645500D01*
X87252946Y-60662813D01*
X87257694Y-60667163D01*
X87324596Y-60734065D01*
X87386504Y-60762933D01*
X87422297Y-60798726D01*
X87426709Y-60849153D01*
X87397675Y-60890617D01*
X87386507Y-60897065D01*
X87370501Y-60904529D01*
X87324595Y-60925935D01*
X87240935Y-61009595D01*
X87190931Y-61116828D01*
X87184500Y-61165685D01*
X87184500Y-61508332D01*
X87183374Y-61521193D01*
X87182192Y-61527891D01*
X87181494Y-61531036D01*
X87170735Y-61571193D01*
X87170735Y-61571194D01*
X87172980Y-61596845D01*
X87174291Y-61611828D01*
X87174359Y-61612598D01*
X87174500Y-61615825D01*
X87174500Y-64234522D01*
X87157187Y-64282088D01*
X87152826Y-64286848D01*
X87086848Y-64352826D01*
X87040972Y-64374218D01*
X87034522Y-64374500D01*
X82151654Y-64374500D01*
X82104088Y-64357187D01*
X82078778Y-64313350D01*
X82084586Y-64269227D01*
X82099068Y-64238173D01*
X82105500Y-64189316D01*
X82105500Y-63740684D01*
X82099068Y-63691827D01*
X82049065Y-63584596D01*
X81965404Y-63500935D01*
X81858173Y-63450932D01*
X81858171Y-63450931D01*
X81822178Y-63446193D01*
X81809316Y-63444500D01*
X81809314Y-63444500D01*
X81635478Y-63444500D01*
X81587912Y-63427187D01*
X81583152Y-63422826D01*
X81167174Y-63006848D01*
X81145782Y-62960972D01*
X81145500Y-62954522D01*
X81145500Y-62570685D01*
X81142845Y-62550514D01*
X81139068Y-62521827D01*
X81089065Y-62414596D01*
X81005404Y-62330935D01*
X80898173Y-62280932D01*
X80898171Y-62280931D01*
X80862178Y-62276193D01*
X80849316Y-62274500D01*
X80849314Y-62274500D01*
X80551651Y-62274500D01*
X80509207Y-62261118D01*
X80491993Y-62249065D01*
X80479684Y-62240446D01*
X80479683Y-62240445D01*
X80479682Y-62240445D01*
X80475047Y-62239203D01*
X80457200Y-62231811D01*
X80453044Y-62229411D01*
X80412114Y-62222193D01*
X80408964Y-62221495D01*
X80368806Y-62210735D01*
X80368805Y-62210735D01*
X80335818Y-62213622D01*
X80327394Y-62214359D01*
X80324174Y-62214500D01*
X79274411Y-62214500D01*
X79226845Y-62197187D01*
X79214249Y-62183568D01*
X79131482Y-62100801D01*
X79026394Y-62049427D01*
X78958264Y-62039500D01*
X78958260Y-62039500D01*
X77241740Y-62039500D01*
X77241735Y-62039500D01*
X77173606Y-62049427D01*
X77173605Y-62049427D01*
X77068517Y-62100801D01*
X76985801Y-62183517D01*
X76934427Y-62288605D01*
X76934427Y-62288606D01*
X76924501Y-62356731D01*
X76924500Y-62356746D01*
X76924500Y-62723264D01*
X76934427Y-62791393D01*
X76934427Y-62791394D01*
X76985801Y-62896482D01*
X76985802Y-62896483D01*
X77068517Y-62979198D01*
X77173607Y-63030573D01*
X77241740Y-63040500D01*
X77241746Y-63040500D01*
X78958254Y-63040500D01*
X78958260Y-63040500D01*
X79026393Y-63030573D01*
X79131483Y-62979198D01*
X79214198Y-62896483D01*
X79214198Y-62896482D01*
X79218534Y-62892147D01*
X79219344Y-62892957D01*
X79255919Y-62867848D01*
X79274411Y-62865500D01*
X80130500Y-62865500D01*
X80178066Y-62882813D01*
X80203376Y-62926650D01*
X80204500Y-62939500D01*
X80204500Y-63019314D01*
X80210931Y-63068171D01*
X80210932Y-63068173D01*
X80260935Y-63175404D01*
X80344596Y-63259065D01*
X80445769Y-63306243D01*
X80481561Y-63342035D01*
X80485973Y-63392462D01*
X80456939Y-63433926D01*
X80424153Y-63446676D01*
X80391828Y-63450931D01*
X80334709Y-63477567D01*
X80303435Y-63484500D01*
X79274411Y-63484500D01*
X79226845Y-63467187D01*
X79214249Y-63453568D01*
X79131482Y-63370801D01*
X79026394Y-63319427D01*
X78958264Y-63309500D01*
X78958260Y-63309500D01*
X77241740Y-63309500D01*
X77241735Y-63309500D01*
X77173606Y-63319427D01*
X77173605Y-63319427D01*
X77068517Y-63370801D01*
X76985801Y-63453517D01*
X76934427Y-63558605D01*
X76934427Y-63558606D01*
X76924500Y-63626735D01*
X76924500Y-63993264D01*
X76934427Y-64061393D01*
X76934427Y-64061394D01*
X76985801Y-64166482D01*
X76985802Y-64166483D01*
X77068517Y-64249198D01*
X77173607Y-64300573D01*
X77241740Y-64310500D01*
X77241746Y-64310500D01*
X78958254Y-64310500D01*
X78958260Y-64310500D01*
X79026393Y-64300573D01*
X79131483Y-64249198D01*
X79214198Y-64166483D01*
X79214198Y-64166482D01*
X79218534Y-64162147D01*
X79219344Y-64162957D01*
X79255919Y-64137848D01*
X79274411Y-64135500D01*
X80072519Y-64135500D01*
X80120085Y-64152813D01*
X80145395Y-64196650D01*
X80145884Y-64199830D01*
X80147191Y-64209763D01*
X80150931Y-64238171D01*
X80150932Y-64238173D01*
X80200935Y-64345404D01*
X80284596Y-64429065D01*
X80391827Y-64479068D01*
X80397913Y-64479869D01*
X80440584Y-64500910D01*
X80858647Y-64918973D01*
X80860819Y-64921343D01*
X80887545Y-64953194D01*
X80923546Y-64973979D01*
X80926270Y-64975715D01*
X80960314Y-64999553D01*
X80960316Y-64999554D01*
X80964949Y-65000795D01*
X80982795Y-65008186D01*
X80986955Y-65010588D01*
X80986958Y-65010588D01*
X80986959Y-65010589D01*
X80986958Y-65010589D01*
X81027888Y-65017806D01*
X81031038Y-65018504D01*
X81071193Y-65029264D01*
X81071193Y-65029263D01*
X81071194Y-65029264D01*
X81079040Y-65028577D01*
X81112610Y-65025640D01*
X81115829Y-65025500D01*
X82644276Y-65025500D01*
X82691842Y-65042813D01*
X82717152Y-65086650D01*
X82708362Y-65136500D01*
X82689324Y-65158208D01*
X82671720Y-65171715D01*
X82671715Y-65171720D01*
X82626576Y-65230548D01*
X82583885Y-65257746D01*
X82567868Y-65259500D01*
X76655332Y-65259500D01*
X76607766Y-65242187D01*
X76592149Y-65221835D01*
X76591936Y-65221985D01*
X76588507Y-65217088D01*
X76588265Y-65216772D01*
X76588224Y-65216684D01*
X76503316Y-65131776D01*
X76394487Y-65081028D01*
X76394485Y-65081027D01*
X76352223Y-65075464D01*
X76344901Y-65074500D01*
X76344899Y-65074500D01*
X75985100Y-65074500D01*
X75935514Y-65081027D01*
X75935512Y-65081028D01*
X75826683Y-65131776D01*
X75737326Y-65221134D01*
X75691450Y-65242526D01*
X75642555Y-65229425D01*
X75632674Y-65221134D01*
X75543316Y-65131776D01*
X75514880Y-65118516D01*
X75434487Y-65081028D01*
X75434485Y-65081027D01*
X75392223Y-65075464D01*
X75384901Y-65074500D01*
X75384899Y-65074500D01*
X75025100Y-65074500D01*
X74975514Y-65081027D01*
X74975512Y-65081028D01*
X74866683Y-65131776D01*
X74845634Y-65152826D01*
X74795633Y-65202826D01*
X74749759Y-65224218D01*
X74743309Y-65224500D01*
X68215479Y-65224500D01*
X68167913Y-65207187D01*
X68163153Y-65202826D01*
X67347174Y-64386847D01*
X67325782Y-64340971D01*
X67325500Y-64334521D01*
X67325500Y-60505478D01*
X67342813Y-60457912D01*
X67347174Y-60453152D01*
X67623152Y-60177174D01*
X67669028Y-60155782D01*
X67675478Y-60155500D01*
X67733257Y-60155500D01*
X67780823Y-60172813D01*
X67806133Y-60216650D01*
X67800324Y-60260772D01*
X67796267Y-60269474D01*
X67756931Y-60353828D01*
X67752509Y-60387420D01*
X67750500Y-60402684D01*
X67750500Y-60851316D01*
X67750561Y-60851776D01*
X67756931Y-60900171D01*
X67806935Y-61007404D01*
X67817826Y-61018295D01*
X67839218Y-61064171D01*
X67839500Y-61070621D01*
X67839500Y-61175379D01*
X67822187Y-61222945D01*
X67817826Y-61227705D01*
X67750935Y-61294595D01*
X67700931Y-61401828D01*
X67696582Y-61434869D01*
X67694500Y-61450684D01*
X67694500Y-61899316D01*
X67696193Y-61912178D01*
X67700931Y-61948171D01*
X67750935Y-62055404D01*
X67792826Y-62097295D01*
X67814218Y-62143171D01*
X67814500Y-62149621D01*
X67814500Y-62289667D01*
X67797187Y-62337233D01*
X67776836Y-62352851D01*
X67776985Y-62353064D01*
X67772127Y-62356465D01*
X67771781Y-62356731D01*
X67771683Y-62356776D01*
X67686776Y-62441683D01*
X67636027Y-62550514D01*
X67629500Y-62600100D01*
X67629500Y-62959899D01*
X67636027Y-63009485D01*
X67636028Y-63009487D01*
X67686776Y-63118316D01*
X67776134Y-63207674D01*
X67797526Y-63253550D01*
X67784425Y-63302445D01*
X67776134Y-63312326D01*
X67686776Y-63401683D01*
X67636027Y-63510514D01*
X67632269Y-63539064D01*
X67629697Y-63558607D01*
X67629500Y-63560100D01*
X67629500Y-63919899D01*
X67636027Y-63969485D01*
X67636028Y-63969487D01*
X67686776Y-64078316D01*
X67771684Y-64163224D01*
X67880513Y-64213972D01*
X67930099Y-64220500D01*
X68349900Y-64220499D01*
X68399487Y-64213972D01*
X68508316Y-64163224D01*
X68593224Y-64078316D01*
X68593225Y-64078311D01*
X68596937Y-64073013D01*
X68599415Y-64074748D01*
X68626712Y-64047440D01*
X68658001Y-64040500D01*
X68838308Y-64040500D01*
X68885874Y-64057813D01*
X68890634Y-64062174D01*
X68966684Y-64138224D01*
X69075513Y-64188972D01*
X69125099Y-64195500D01*
X69544900Y-64195499D01*
X69594487Y-64188972D01*
X69703316Y-64138224D01*
X69703316Y-64138223D01*
X69709183Y-64135488D01*
X69709690Y-64136576D01*
X69744820Y-64125500D01*
X70430379Y-64125500D01*
X70477945Y-64142813D01*
X70482705Y-64147174D01*
X70484596Y-64149065D01*
X70591827Y-64199068D01*
X70640684Y-64205500D01*
X70640686Y-64205500D01*
X71089314Y-64205500D01*
X71089316Y-64205500D01*
X71138173Y-64199068D01*
X71245404Y-64149065D01*
X71245407Y-64149061D01*
X71245664Y-64148883D01*
X71246065Y-64148756D01*
X71251271Y-64146329D01*
X71251590Y-64147014D01*
X71288109Y-64135500D01*
X71975589Y-64135500D01*
X72023155Y-64152813D01*
X72035750Y-64166431D01*
X72035802Y-64166483D01*
X72118517Y-64249198D01*
X72223607Y-64300573D01*
X72291740Y-64310500D01*
X72291746Y-64310500D01*
X74008254Y-64310500D01*
X74008260Y-64310500D01*
X74076393Y-64300573D01*
X74181483Y-64249198D01*
X74264198Y-64166483D01*
X74315573Y-64061393D01*
X74325500Y-63993260D01*
X74325500Y-63626740D01*
X74315573Y-63558607D01*
X74264198Y-63453517D01*
X74181483Y-63370802D01*
X74181482Y-63370801D01*
X74076394Y-63319427D01*
X74008264Y-63309500D01*
X74008260Y-63309500D01*
X72291740Y-63309500D01*
X72291735Y-63309500D01*
X72223606Y-63319427D01*
X72223605Y-63319427D01*
X72118517Y-63370801D01*
X72031466Y-63457853D01*
X72030655Y-63457042D01*
X71994081Y-63482152D01*
X71975589Y-63484500D01*
X71413468Y-63484500D01*
X71365902Y-63467187D01*
X71346401Y-63441773D01*
X71329066Y-63404597D01*
X71245402Y-63320933D01*
X71199038Y-63299314D01*
X71183495Y-63292066D01*
X71147702Y-63256274D01*
X71143290Y-63205848D01*
X71172324Y-63164383D01*
X71183492Y-63157934D01*
X71245404Y-63129065D01*
X71329065Y-63045404D01*
X71379068Y-62938173D01*
X71380165Y-62929841D01*
X71403539Y-62884941D01*
X71450305Y-62865570D01*
X71453532Y-62865500D01*
X71975589Y-62865500D01*
X72023155Y-62882813D01*
X72035750Y-62896431D01*
X72035802Y-62896483D01*
X72118517Y-62979198D01*
X72223607Y-63030573D01*
X72291740Y-63040500D01*
X72291746Y-63040500D01*
X74008254Y-63040500D01*
X74008260Y-63040500D01*
X74076393Y-63030573D01*
X74181483Y-62979198D01*
X74264198Y-62896483D01*
X74315573Y-62791393D01*
X74325500Y-62723260D01*
X74325500Y-62356740D01*
X74325487Y-62356653D01*
X74319046Y-62312445D01*
X74315573Y-62288607D01*
X74264198Y-62183517D01*
X74181483Y-62100802D01*
X74181482Y-62100801D01*
X74076394Y-62049427D01*
X74008264Y-62039500D01*
X74008260Y-62039500D01*
X72291740Y-62039500D01*
X72291735Y-62039500D01*
X72223606Y-62049427D01*
X72223605Y-62049427D01*
X72118517Y-62100801D01*
X72031466Y-62187853D01*
X72030655Y-62187042D01*
X71994081Y-62212152D01*
X71975589Y-62214500D01*
X71432328Y-62214500D01*
X71384762Y-62197187D01*
X71359452Y-62153350D01*
X71365261Y-62109226D01*
X71389068Y-62058173D01*
X71395500Y-62009316D01*
X71395500Y-61660684D01*
X71389068Y-61611827D01*
X71339065Y-61504596D01*
X71255404Y-61420935D01*
X71148173Y-61370932D01*
X71148171Y-61370931D01*
X71107466Y-61365573D01*
X71099316Y-61364500D01*
X70650684Y-61364500D01*
X70642534Y-61365573D01*
X70601828Y-61370931D01*
X70551136Y-61394570D01*
X70500709Y-61398981D01*
X70461154Y-61372551D01*
X70383784Y-61271720D01*
X70383779Y-61271715D01*
X70258341Y-61175464D01*
X70112261Y-61114955D01*
X69955500Y-61094318D01*
X69798739Y-61114955D01*
X69798738Y-61114955D01*
X69652657Y-61175464D01*
X69652657Y-61175465D01*
X69606044Y-61211231D01*
X69557767Y-61226451D01*
X69518553Y-61213140D01*
X69515404Y-61210935D01*
X69452986Y-61181829D01*
X69408173Y-61160932D01*
X69408171Y-61160931D01*
X69372178Y-61156193D01*
X69359316Y-61154500D01*
X69010684Y-61154500D01*
X68999318Y-61155996D01*
X68961828Y-61160931D01*
X68854595Y-61210935D01*
X68770935Y-61294595D01*
X68742067Y-61356504D01*
X68706274Y-61392297D01*
X68655847Y-61396709D01*
X68614383Y-61367675D01*
X68607933Y-61356504D01*
X68579065Y-61294596D01*
X68512174Y-61227705D01*
X68490782Y-61181829D01*
X68490500Y-61175379D01*
X68490500Y-61166608D01*
X68507813Y-61119042D01*
X68533227Y-61099541D01*
X68551404Y-61091065D01*
X68635065Y-61007404D01*
X68685068Y-60900173D01*
X68691500Y-60851316D01*
X68691500Y-60402684D01*
X68685068Y-60353827D01*
X68641675Y-60260773D01*
X68637264Y-60210347D01*
X68666298Y-60168883D01*
X68708743Y-60155500D01*
X70373309Y-60155500D01*
X70420875Y-60172813D01*
X70425623Y-60177163D01*
X70496684Y-60248224D01*
X70605513Y-60298972D01*
X70655099Y-60305500D01*
X70959923Y-60305499D01*
X70985228Y-60309960D01*
X70986954Y-60310588D01*
X71027888Y-60317806D01*
X71031038Y-60318504D01*
X71071193Y-60329264D01*
X71071193Y-60329263D01*
X71071194Y-60329264D01*
X71082395Y-60328284D01*
X71112610Y-60325640D01*
X71115829Y-60325500D01*
X71975589Y-60325500D01*
X72023155Y-60342813D01*
X72035750Y-60356431D01*
X72035802Y-60356483D01*
X72118517Y-60439198D01*
X72223607Y-60490573D01*
X72291740Y-60500500D01*
X72291746Y-60500500D01*
X74008254Y-60500500D01*
X74008260Y-60500500D01*
X74076393Y-60490573D01*
X74181483Y-60439198D01*
X74264198Y-60356483D01*
X74315573Y-60251393D01*
X74325500Y-60183260D01*
X74325500Y-59816740D01*
X74315573Y-59748607D01*
X74264198Y-59643517D01*
X74181483Y-59560802D01*
X74181482Y-59560801D01*
X74076394Y-59509427D01*
X74008264Y-59499500D01*
X74008260Y-59499500D01*
X72291740Y-59499500D01*
X72291735Y-59499500D01*
X72223606Y-59509427D01*
X72223605Y-59509427D01*
X72118517Y-59560801D01*
X72031466Y-59647853D01*
X72030655Y-59647042D01*
X71994081Y-59672152D01*
X71975589Y-59674500D01*
X71444267Y-59674500D01*
X71396701Y-59657187D01*
X71371391Y-59613350D01*
X71370900Y-59610159D01*
X71370595Y-59607847D01*
X71368972Y-59595513D01*
X71318224Y-59486684D01*
X71233316Y-59401776D01*
X71124487Y-59351028D01*
X71124485Y-59351027D01*
X71087955Y-59346218D01*
X71074901Y-59344500D01*
X71074899Y-59344500D01*
X70655100Y-59344500D01*
X70605514Y-59351027D01*
X70605512Y-59351028D01*
X70496683Y-59401776D01*
X70415634Y-59482826D01*
X70369758Y-59504218D01*
X70363308Y-59504500D01*
X67525826Y-59504500D01*
X67522605Y-59504359D01*
X67513650Y-59503575D01*
X67481194Y-59500735D01*
X67481192Y-59500735D01*
X67441033Y-59511495D01*
X67437884Y-59512193D01*
X67396952Y-59519412D01*
X67396951Y-59519412D01*
X67392790Y-59521815D01*
X67374959Y-59529201D01*
X67370317Y-59530445D01*
X67370312Y-59530447D01*
X67336268Y-59554285D01*
X67333547Y-59556019D01*
X67297547Y-59576804D01*
X67297543Y-59576808D01*
X67270827Y-59608645D01*
X67268646Y-59611026D01*
X66781030Y-60098641D01*
X66778650Y-60100822D01*
X66746808Y-60127542D01*
X66746805Y-60127545D01*
X66726019Y-60163546D01*
X66724285Y-60166268D01*
X66700447Y-60200312D01*
X66700445Y-60200317D01*
X66699201Y-60204959D01*
X66691815Y-60222790D01*
X66689412Y-60226951D01*
X66689412Y-60226952D01*
X66682193Y-60267884D01*
X66681495Y-60271033D01*
X66670735Y-60311192D01*
X66670735Y-60311194D01*
X66673279Y-60340261D01*
X66674319Y-60352147D01*
X66674359Y-60352598D01*
X66674500Y-60355825D01*
X66674500Y-61200500D01*
X66657187Y-61248066D01*
X66613350Y-61273376D01*
X66600500Y-61274500D01*
X63715818Y-61274500D01*
X63712599Y-61274359D01*
X63701359Y-61273376D01*
X63671195Y-61270736D01*
X63671194Y-61270736D01*
X63631044Y-61281494D01*
X63627894Y-61282192D01*
X63586953Y-61289412D01*
X63586951Y-61289412D01*
X63582790Y-61291815D01*
X63564959Y-61299201D01*
X63560317Y-61300445D01*
X63560316Y-61300445D01*
X63541942Y-61313311D01*
X63493047Y-61326410D01*
X63447171Y-61305016D01*
X63425780Y-61259139D01*
X63425499Y-61252709D01*
X63425499Y-60935100D01*
X63418972Y-60885513D01*
X63368224Y-60776684D01*
X63283316Y-60691776D01*
X63268691Y-60684956D01*
X63237272Y-60670305D01*
X63201479Y-60634511D01*
X63197068Y-60584085D01*
X63226102Y-60542620D01*
X63237262Y-60536176D01*
X63295404Y-60509065D01*
X63327157Y-60477311D01*
X63373032Y-60455919D01*
X63421927Y-60469019D01*
X63438191Y-60484589D01*
X63471715Y-60528279D01*
X63471720Y-60528284D01*
X63533432Y-60575637D01*
X63597159Y-60624536D01*
X63743238Y-60685044D01*
X63900000Y-60705682D01*
X64056762Y-60685044D01*
X64202841Y-60624536D01*
X64328282Y-60528282D01*
X64424536Y-60402841D01*
X64485044Y-60256762D01*
X64505682Y-60100000D01*
X64485044Y-59943238D01*
X64424536Y-59797159D01*
X64382008Y-59741735D01*
X64328284Y-59671720D01*
X64328279Y-59671715D01*
X64202841Y-59575464D01*
X64056761Y-59514955D01*
X63900000Y-59494318D01*
X63743239Y-59514955D01*
X63743238Y-59514955D01*
X63609027Y-59570548D01*
X63597159Y-59575464D01*
X63550814Y-59611026D01*
X63474807Y-59669347D01*
X63426531Y-59684568D01*
X63379765Y-59665196D01*
X63377433Y-59662964D01*
X63295404Y-59580935D01*
X63273129Y-59570548D01*
X63188173Y-59530932D01*
X63188171Y-59530931D01*
X63152178Y-59526193D01*
X63139316Y-59524500D01*
X62790684Y-59524500D01*
X62779318Y-59525996D01*
X62741828Y-59530931D01*
X62634595Y-59580935D01*
X62550935Y-59664595D01*
X62545867Y-59675464D01*
X62529412Y-59710753D01*
X62522067Y-59726504D01*
X62486274Y-59762297D01*
X62435847Y-59766709D01*
X62394383Y-59737675D01*
X62387933Y-59726504D01*
X62380589Y-59710754D01*
X62359065Y-59664596D01*
X62275404Y-59580935D01*
X62168173Y-59530932D01*
X62168171Y-59530931D01*
X62132178Y-59526193D01*
X62119316Y-59524500D01*
X61770684Y-59524500D01*
X61759318Y-59525996D01*
X61721828Y-59530931D01*
X61614595Y-59580935D01*
X61542705Y-59652826D01*
X61496829Y-59674218D01*
X61490379Y-59674500D01*
X60482960Y-59674500D01*
X60435394Y-59657187D01*
X60412667Y-59617824D01*
X60411752Y-59618122D01*
X60410352Y-59613814D01*
X60410084Y-59613350D01*
X60409960Y-59612608D01*
X60409951Y-59612583D01*
X60409951Y-59612580D01*
X60368102Y-59530447D01*
X60349659Y-59494250D01*
X60255749Y-59400340D01*
X60137420Y-59340049D01*
X60137420Y-59340048D01*
X60039247Y-59324500D01*
X60039246Y-59324500D01*
X59535754Y-59324500D01*
X59535753Y-59324500D01*
X59437579Y-59340048D01*
X59437579Y-59340049D01*
X59319250Y-59400340D01*
X59225340Y-59494250D01*
X59165049Y-59612579D01*
X59165048Y-59612579D01*
X59149500Y-59710753D01*
X59149500Y-60289246D01*
X59165049Y-60387420D01*
X59225340Y-60505749D01*
X59319250Y-60599659D01*
X59369091Y-60625054D01*
X59437579Y-60659950D01*
X59437579Y-60659951D01*
X59535753Y-60675500D01*
X59535754Y-60675500D01*
X60039247Y-60675500D01*
X60137420Y-60659951D01*
X60255751Y-60599658D01*
X60349658Y-60505751D01*
X60409951Y-60387420D01*
X60409951Y-60387414D01*
X60411752Y-60381878D01*
X60412999Y-60382283D01*
X60434410Y-60343653D01*
X60481666Y-60325511D01*
X60482960Y-60325500D01*
X61437206Y-60325500D01*
X61484772Y-60342813D01*
X61504273Y-60368227D01*
X61530933Y-60425402D01*
X61530935Y-60425404D01*
X61614596Y-60509065D01*
X61721827Y-60559068D01*
X61770684Y-60565500D01*
X61770686Y-60565500D01*
X62119314Y-60565500D01*
X62119316Y-60565500D01*
X62168173Y-60559068D01*
X62275404Y-60509065D01*
X62359065Y-60425404D01*
X62387933Y-60363495D01*
X62423726Y-60327702D01*
X62474152Y-60323290D01*
X62515617Y-60352324D01*
X62522067Y-60363496D01*
X62550933Y-60425402D01*
X62550935Y-60425404D01*
X62634596Y-60509065D01*
X62672726Y-60526845D01*
X62708519Y-60562637D01*
X62712932Y-60613064D01*
X62683898Y-60654529D01*
X62672727Y-60660978D01*
X62606688Y-60691773D01*
X62606683Y-60691776D01*
X62521776Y-60776683D01*
X62471027Y-60885514D01*
X62464500Y-60935100D01*
X62464500Y-61354899D01*
X62471027Y-61404485D01*
X62471028Y-61404487D01*
X62521776Y-61513316D01*
X62586134Y-61577674D01*
X62607526Y-61623550D01*
X62594425Y-61672445D01*
X62586134Y-61682326D01*
X62521776Y-61746683D01*
X62471027Y-61855514D01*
X62464500Y-61905100D01*
X62464500Y-62324899D01*
X62471027Y-62374485D01*
X62471028Y-62374487D01*
X62521776Y-62483316D01*
X62584669Y-62546209D01*
X62606061Y-62592085D01*
X62592960Y-62640980D01*
X62584669Y-62650860D01*
X62540938Y-62694591D01*
X62540935Y-62694595D01*
X62512067Y-62756504D01*
X62476274Y-62792297D01*
X62425847Y-62796709D01*
X62384383Y-62767675D01*
X62377933Y-62756504D01*
X62353728Y-62704596D01*
X62349065Y-62694596D01*
X62265404Y-62610935D01*
X62158173Y-62560932D01*
X62158171Y-62560931D01*
X62122178Y-62556193D01*
X62109316Y-62554500D01*
X61760684Y-62554500D01*
X61749318Y-62555996D01*
X61711828Y-62560931D01*
X61604595Y-62610935D01*
X61520933Y-62694597D01*
X61503599Y-62731773D01*
X61467806Y-62767567D01*
X61436532Y-62774500D01*
X61165826Y-62774500D01*
X61162605Y-62774359D01*
X61153650Y-62773575D01*
X61121194Y-62770735D01*
X61121192Y-62770735D01*
X61081033Y-62781495D01*
X61077884Y-62782193D01*
X61036952Y-62789412D01*
X61036951Y-62789412D01*
X61032790Y-62791815D01*
X61014959Y-62799201D01*
X61010317Y-62800445D01*
X61010312Y-62800447D01*
X60976268Y-62824285D01*
X60973547Y-62826019D01*
X60937547Y-62846804D01*
X60937543Y-62846808D01*
X60910827Y-62878645D01*
X60908646Y-62881026D01*
X60638771Y-63150901D01*
X60592895Y-63172293D01*
X60544000Y-63159192D01*
X60516598Y-63123015D01*
X60477794Y-63012119D01*
X60477792Y-63012116D01*
X60397153Y-62902853D01*
X60397146Y-62902846D01*
X60287883Y-62822207D01*
X60287881Y-62822206D01*
X60159704Y-62777355D01*
X60159705Y-62777355D01*
X60159700Y-62777354D01*
X60159699Y-62777354D01*
X60129266Y-62774500D01*
X57870734Y-62774500D01*
X57840301Y-62777354D01*
X57840299Y-62777354D01*
X57840295Y-62777355D01*
X57712118Y-62822206D01*
X57712116Y-62822207D01*
X57602853Y-62902846D01*
X57602846Y-62902853D01*
X57522207Y-63012116D01*
X57522206Y-63012118D01*
X57477355Y-63140295D01*
X57477354Y-63140299D01*
X57477354Y-63140301D01*
X57474500Y-63170734D01*
X57474500Y-64029266D01*
X50000500Y-64029266D01*
X50000500Y-56829266D01*
X57474500Y-56829266D01*
X57477354Y-56859699D01*
X57477354Y-56859701D01*
X57477355Y-56859704D01*
X57522206Y-56987881D01*
X57522207Y-56987883D01*
X57602846Y-57097146D01*
X57602853Y-57097153D01*
X57712116Y-57177792D01*
X57712118Y-57177793D01*
X57840295Y-57222644D01*
X57840301Y-57222646D01*
X57870734Y-57225500D01*
X57870741Y-57225500D01*
X60129258Y-57225500D01*
X60129266Y-57225500D01*
X60159699Y-57222646D01*
X60287882Y-57177793D01*
X60397150Y-57097150D01*
X60477793Y-56987882D01*
X60522646Y-56859699D01*
X60525500Y-56829266D01*
X60525500Y-56799500D01*
X60542813Y-56751934D01*
X60586650Y-56726624D01*
X60599500Y-56725500D01*
X66634522Y-56725500D01*
X66682088Y-56742813D01*
X66686847Y-56747173D01*
X67074032Y-57134359D01*
X67458652Y-57518979D01*
X67460824Y-57521349D01*
X67487545Y-57553194D01*
X67521286Y-57572674D01*
X67523548Y-57573980D01*
X67526267Y-57575713D01*
X67533364Y-57580682D01*
X67560314Y-57599553D01*
X67560315Y-57599553D01*
X67560316Y-57599554D01*
X67564945Y-57600794D01*
X67582800Y-57608189D01*
X67586955Y-57610588D01*
X67627915Y-57617809D01*
X67631028Y-57618500D01*
X67671193Y-57629263D01*
X67712598Y-57625640D01*
X67715817Y-57625500D01*
X68857673Y-57625500D01*
X68905239Y-57642813D01*
X68924739Y-57668226D01*
X68931776Y-57683316D01*
X69016684Y-57768224D01*
X69125513Y-57818972D01*
X69175099Y-57825500D01*
X69594900Y-57825499D01*
X69644487Y-57818972D01*
X69753316Y-57768224D01*
X69838224Y-57683316D01*
X69845260Y-57668226D01*
X69881052Y-57632434D01*
X69912327Y-57625500D01*
X70391869Y-57625500D01*
X70439435Y-57642813D01*
X70458936Y-57668227D01*
X70480933Y-57715402D01*
X70480935Y-57715404D01*
X70564596Y-57799065D01*
X70671827Y-57849068D01*
X70720684Y-57855500D01*
X70720686Y-57855500D01*
X71169314Y-57855500D01*
X71169316Y-57855500D01*
X71218173Y-57849068D01*
X71325404Y-57799065D01*
X71409065Y-57715404D01*
X71431064Y-57668226D01*
X71466857Y-57632433D01*
X71498131Y-57625500D01*
X71529800Y-57625500D01*
X71577366Y-57642813D01*
X71586488Y-57651935D01*
X71587252Y-57652845D01*
X71587545Y-57653194D01*
X71623548Y-57673980D01*
X71626272Y-57675716D01*
X71660314Y-57699553D01*
X71660315Y-57699553D01*
X71660316Y-57699554D01*
X71664945Y-57700794D01*
X71682800Y-57708189D01*
X71686955Y-57710588D01*
X71727915Y-57717809D01*
X71731028Y-57718500D01*
X71771193Y-57729263D01*
X71812598Y-57725640D01*
X71815817Y-57725500D01*
X71945130Y-57725500D01*
X71992696Y-57742813D01*
X72011610Y-57766997D01*
X72035802Y-57816483D01*
X72118517Y-57899198D01*
X72223607Y-57950573D01*
X72291740Y-57960500D01*
X72291746Y-57960500D01*
X74008254Y-57960500D01*
X74008260Y-57960500D01*
X74076393Y-57950573D01*
X74181483Y-57899198D01*
X74264198Y-57816483D01*
X74315573Y-57711393D01*
X74325500Y-57643260D01*
X74325500Y-57276740D01*
X74315573Y-57208607D01*
X74264198Y-57103517D01*
X74181483Y-57020802D01*
X74181482Y-57020801D01*
X74076394Y-56969427D01*
X74008264Y-56959500D01*
X74008260Y-56959500D01*
X72291740Y-56959500D01*
X72291735Y-56959500D01*
X72223606Y-56969427D01*
X72223605Y-56969427D01*
X72118517Y-57020801D01*
X72086493Y-57052826D01*
X72040617Y-57074218D01*
X72034167Y-57074500D01*
X71970200Y-57074500D01*
X71922634Y-57057187D01*
X71913512Y-57048065D01*
X71912457Y-57046807D01*
X71876458Y-57026022D01*
X71873736Y-57024288D01*
X71839685Y-57000446D01*
X71839682Y-57000445D01*
X71835047Y-56999203D01*
X71817200Y-56991811D01*
X71813044Y-56989411D01*
X71772114Y-56982193D01*
X71768964Y-56981495D01*
X71728806Y-56970735D01*
X71728805Y-56970735D01*
X71695818Y-56973622D01*
X71687394Y-56974359D01*
X71684174Y-56974500D01*
X71349455Y-56974500D01*
X71318182Y-56967567D01*
X71286569Y-56952826D01*
X71263495Y-56942066D01*
X71227702Y-56906274D01*
X71223290Y-56855848D01*
X71252324Y-56814383D01*
X71263492Y-56807934D01*
X71325404Y-56779065D01*
X71409065Y-56695404D01*
X71459068Y-56588173D01*
X71460165Y-56579841D01*
X71483539Y-56534941D01*
X71530305Y-56515570D01*
X71533532Y-56515500D01*
X71975589Y-56515500D01*
X72023155Y-56532813D01*
X72035750Y-56546431D01*
X72035802Y-56546483D01*
X72118517Y-56629198D01*
X72223607Y-56680573D01*
X72291740Y-56690500D01*
X72291746Y-56690500D01*
X74008254Y-56690500D01*
X74008260Y-56690500D01*
X74076393Y-56680573D01*
X74181483Y-56629198D01*
X74263507Y-56547174D01*
X74309383Y-56525782D01*
X74315833Y-56525500D01*
X74334522Y-56525500D01*
X74382088Y-56542813D01*
X74386848Y-56547174D01*
X74552826Y-56713152D01*
X74574218Y-56759028D01*
X74574500Y-56765478D01*
X74574500Y-60284521D01*
X74557187Y-60332087D01*
X74552826Y-60336847D01*
X74132194Y-60757478D01*
X74086317Y-60778870D01*
X74069200Y-60778379D01*
X74055557Y-60776391D01*
X74008264Y-60769500D01*
X74008260Y-60769500D01*
X72291740Y-60769500D01*
X72291735Y-60769500D01*
X72223606Y-60779427D01*
X72223605Y-60779427D01*
X72118517Y-60830801D01*
X72035801Y-60913517D01*
X71984427Y-61018605D01*
X71984427Y-61018606D01*
X71974500Y-61086735D01*
X71974500Y-61453264D01*
X71984427Y-61521393D01*
X71984427Y-61521394D01*
X72035801Y-61626482D01*
X72035802Y-61626483D01*
X72118517Y-61709198D01*
X72223607Y-61760573D01*
X72291740Y-61770500D01*
X72291746Y-61770500D01*
X74008254Y-61770500D01*
X74008260Y-61770500D01*
X74076393Y-61760573D01*
X74181483Y-61709198D01*
X74264198Y-61626483D01*
X74315573Y-61521393D01*
X74316576Y-61514504D01*
X74337475Y-61472849D01*
X74357060Y-61453264D01*
X76924500Y-61453264D01*
X76934427Y-61521393D01*
X76934427Y-61521394D01*
X76985801Y-61626482D01*
X76985802Y-61626483D01*
X77068517Y-61709198D01*
X77173607Y-61760573D01*
X77241740Y-61770500D01*
X77241746Y-61770500D01*
X78958254Y-61770500D01*
X78958260Y-61770500D01*
X79026393Y-61760573D01*
X79131483Y-61709198D01*
X79212488Y-61628192D01*
X79258363Y-61606801D01*
X79307257Y-61619902D01*
X79323521Y-61635471D01*
X79371715Y-61698279D01*
X79371720Y-61698284D01*
X79434797Y-61746684D01*
X79497159Y-61794536D01*
X79643238Y-61855044D01*
X79800000Y-61875682D01*
X79956762Y-61855044D01*
X80102841Y-61794536D01*
X80228282Y-61698282D01*
X80237029Y-61686881D01*
X80279721Y-61659684D01*
X80329907Y-61666291D01*
X80348064Y-61679604D01*
X80426684Y-61758224D01*
X80535513Y-61808972D01*
X80585099Y-61815500D01*
X80944900Y-61815499D01*
X80994487Y-61808972D01*
X81103316Y-61758224D01*
X81188224Y-61673316D01*
X81238972Y-61564487D01*
X81245500Y-61514901D01*
X81245499Y-61095100D01*
X81238972Y-61045513D01*
X81188224Y-60936684D01*
X81103316Y-60851776D01*
X80994487Y-60801028D01*
X80994485Y-60801027D01*
X80957955Y-60796218D01*
X80944901Y-60794500D01*
X80944899Y-60794500D01*
X80585100Y-60794500D01*
X80535514Y-60801027D01*
X80535512Y-60801028D01*
X80426683Y-60851776D01*
X80378456Y-60900004D01*
X80332580Y-60921396D01*
X80283685Y-60908295D01*
X80267422Y-60892726D01*
X80228284Y-60841720D01*
X80228279Y-60841715D01*
X80102841Y-60745464D01*
X79956761Y-60684955D01*
X79800000Y-60664318D01*
X79643239Y-60684955D01*
X79643238Y-60684955D01*
X79497158Y-60745464D01*
X79371720Y-60841715D01*
X79371718Y-60841717D01*
X79323521Y-60904529D01*
X79280829Y-60931726D01*
X79230643Y-60925119D01*
X79212487Y-60911806D01*
X79131482Y-60830801D01*
X79026394Y-60779427D01*
X78958264Y-60769500D01*
X78958260Y-60769500D01*
X77241740Y-60769500D01*
X77241735Y-60769500D01*
X77173606Y-60779427D01*
X77173605Y-60779427D01*
X77068517Y-60830801D01*
X76985801Y-60913517D01*
X76934427Y-61018605D01*
X76934427Y-61018606D01*
X76924500Y-61086735D01*
X76924500Y-61453264D01*
X74357060Y-61453264D01*
X75118983Y-60691341D01*
X75121329Y-60689191D01*
X75153194Y-60662455D01*
X75173980Y-60626450D01*
X75175712Y-60623733D01*
X75199553Y-60589685D01*
X75199554Y-60589684D01*
X75200794Y-60585054D01*
X75208193Y-60567192D01*
X75209170Y-60565500D01*
X75210588Y-60563045D01*
X75217808Y-60522093D01*
X75218505Y-60518953D01*
X75222043Y-60505751D01*
X75229263Y-60478807D01*
X75225640Y-60437402D01*
X75225500Y-60434181D01*
X75225500Y-60183264D01*
X76924500Y-60183264D01*
X76934427Y-60251393D01*
X76934427Y-60251394D01*
X76985801Y-60356482D01*
X76985802Y-60356483D01*
X77068517Y-60439198D01*
X77173607Y-60490573D01*
X77241740Y-60500500D01*
X77241746Y-60500500D01*
X78958254Y-60500500D01*
X78958260Y-60500500D01*
X79026393Y-60490573D01*
X79131483Y-60439198D01*
X79214198Y-60356483D01*
X79214198Y-60356482D01*
X79218534Y-60352147D01*
X79219344Y-60352957D01*
X79255919Y-60327848D01*
X79274411Y-60325500D01*
X79703308Y-60325500D01*
X79750874Y-60342813D01*
X79755634Y-60347174D01*
X79756684Y-60348224D01*
X79865513Y-60398972D01*
X79915099Y-60405500D01*
X80334900Y-60405499D01*
X80384487Y-60398972D01*
X80493316Y-60348224D01*
X80569366Y-60272174D01*
X80615242Y-60250782D01*
X80621692Y-60250500D01*
X80775541Y-60250500D01*
X80823107Y-60267813D01*
X80834249Y-60279452D01*
X80871715Y-60328279D01*
X80871720Y-60328284D01*
X80941566Y-60381878D01*
X80997159Y-60424536D01*
X81143238Y-60485044D01*
X81300000Y-60505682D01*
X81456762Y-60485044D01*
X81602841Y-60424536D01*
X81728282Y-60328282D01*
X81824536Y-60202841D01*
X81863711Y-60108264D01*
X82519500Y-60108264D01*
X82529427Y-60176393D01*
X82529427Y-60176394D01*
X82580801Y-60281482D01*
X82580802Y-60281483D01*
X82663517Y-60364198D01*
X82768607Y-60415573D01*
X82836740Y-60425500D01*
X82836746Y-60425500D01*
X84078254Y-60425500D01*
X84078260Y-60425500D01*
X84146393Y-60415573D01*
X84251483Y-60364198D01*
X84334198Y-60281483D01*
X84341278Y-60266999D01*
X84377721Y-60231871D01*
X84407759Y-60225500D01*
X84516064Y-60225500D01*
X84519284Y-60225640D01*
X84545436Y-60227928D01*
X84560695Y-60229264D01*
X84560695Y-60229263D01*
X84560697Y-60229264D01*
X84600857Y-60218502D01*
X84603990Y-60217807D01*
X84644935Y-60210588D01*
X84649084Y-60208191D01*
X84666945Y-60200794D01*
X84671574Y-60199554D01*
X84705623Y-60175712D01*
X84708340Y-60173980D01*
X84744345Y-60153194D01*
X84771077Y-60121334D01*
X84773238Y-60118976D01*
X84802640Y-60089574D01*
X84848515Y-60068183D01*
X84864620Y-60068533D01*
X84956890Y-60080682D01*
X85113652Y-60060044D01*
X85259731Y-59999536D01*
X85385172Y-59903282D01*
X85481426Y-59777841D01*
X85541934Y-59631762D01*
X85562572Y-59475000D01*
X85541934Y-59318238D01*
X85481426Y-59172159D01*
X85445848Y-59125793D01*
X85385174Y-59046720D01*
X85385169Y-59046715D01*
X85259731Y-58950464D01*
X85113651Y-58889955D01*
X84956890Y-58869318D01*
X84800129Y-58889955D01*
X84800128Y-58889955D01*
X84654048Y-58950464D01*
X84528610Y-59046715D01*
X84528605Y-59046720D01*
X84432354Y-59172158D01*
X84371845Y-59318238D01*
X84371845Y-59318239D01*
X84357271Y-59428941D01*
X84333897Y-59473841D01*
X84287131Y-59493212D01*
X84251404Y-59485763D01*
X84146394Y-59434427D01*
X84078264Y-59424500D01*
X84078260Y-59424500D01*
X82836740Y-59424500D01*
X82836735Y-59424500D01*
X82768606Y-59434427D01*
X82768605Y-59434427D01*
X82663517Y-59485801D01*
X82580801Y-59568517D01*
X82529427Y-59673605D01*
X82529427Y-59673606D01*
X82519500Y-59741735D01*
X82519500Y-60108264D01*
X81863711Y-60108264D01*
X81885044Y-60056762D01*
X81905682Y-59900000D01*
X81885044Y-59743238D01*
X81824536Y-59597159D01*
X81791638Y-59554285D01*
X81728284Y-59471720D01*
X81728279Y-59471715D01*
X81602841Y-59375464D01*
X81456761Y-59314955D01*
X81300000Y-59294318D01*
X81143239Y-59314955D01*
X81143238Y-59314955D01*
X80997158Y-59375464D01*
X80871720Y-59471715D01*
X80871715Y-59471720D01*
X80795883Y-59570548D01*
X80753192Y-59597746D01*
X80737175Y-59599500D01*
X80621692Y-59599500D01*
X80574126Y-59582187D01*
X80569366Y-59577826D01*
X80493316Y-59501776D01*
X80477322Y-59494318D01*
X80384487Y-59451028D01*
X80384485Y-59451027D01*
X80347955Y-59446218D01*
X80334901Y-59444500D01*
X80334899Y-59444500D01*
X79915100Y-59444500D01*
X79865514Y-59451027D01*
X79865512Y-59451028D01*
X79756683Y-59501776D01*
X79671776Y-59586683D01*
X79671776Y-59586684D01*
X79650750Y-59631774D01*
X79614956Y-59667567D01*
X79583683Y-59674500D01*
X79274411Y-59674500D01*
X79226845Y-59657187D01*
X79214249Y-59643568D01*
X79131482Y-59560801D01*
X79026394Y-59509427D01*
X78958264Y-59499500D01*
X78958260Y-59499500D01*
X77241740Y-59499500D01*
X77241735Y-59499500D01*
X77173606Y-59509427D01*
X77173605Y-59509427D01*
X77068517Y-59560801D01*
X76985801Y-59643517D01*
X76934427Y-59748605D01*
X76934427Y-59748606D01*
X76924500Y-59816735D01*
X76924500Y-60183264D01*
X75225500Y-60183264D01*
X75225500Y-57643264D01*
X76924500Y-57643264D01*
X76934427Y-57711393D01*
X76934427Y-57711394D01*
X76985801Y-57816482D01*
X76985802Y-57816483D01*
X77068517Y-57899198D01*
X77173607Y-57950573D01*
X77241740Y-57960500D01*
X77241746Y-57960500D01*
X78958254Y-57960500D01*
X78958260Y-57960500D01*
X79026393Y-57950573D01*
X79131483Y-57899198D01*
X79157851Y-57872829D01*
X79203726Y-57851437D01*
X79252621Y-57864537D01*
X79262503Y-57872829D01*
X79558647Y-58168973D01*
X79560819Y-58171343D01*
X79587545Y-58203194D01*
X79623546Y-58223979D01*
X79626270Y-58225715D01*
X79660314Y-58249553D01*
X79660316Y-58249554D01*
X79664949Y-58250795D01*
X79682795Y-58258186D01*
X79686955Y-58260588D01*
X79686958Y-58260588D01*
X79686959Y-58260589D01*
X79686958Y-58260589D01*
X79706860Y-58264097D01*
X79723664Y-58267060D01*
X79763141Y-58287610D01*
X79844596Y-58369065D01*
X79951827Y-58419068D01*
X80000684Y-58425500D01*
X80000686Y-58425500D01*
X80449314Y-58425500D01*
X80449316Y-58425500D01*
X80498173Y-58419068D01*
X80605404Y-58369065D01*
X80677295Y-58297174D01*
X80723171Y-58275782D01*
X80729621Y-58275500D01*
X80984522Y-58275500D01*
X81032088Y-58292813D01*
X81036848Y-58297174D01*
X81092826Y-58353152D01*
X81114218Y-58399028D01*
X81114500Y-58405478D01*
X81114500Y-58709316D01*
X81115243Y-58714956D01*
X81120931Y-58758171D01*
X81120932Y-58758173D01*
X81170935Y-58865404D01*
X81254596Y-58949065D01*
X81361827Y-58999068D01*
X81410684Y-59005500D01*
X81410686Y-59005500D01*
X81759314Y-59005500D01*
X81759316Y-59005500D01*
X81808173Y-58999068D01*
X81915404Y-58949065D01*
X81999065Y-58865404D01*
X82027933Y-58803495D01*
X82063726Y-58767702D01*
X82114152Y-58763290D01*
X82155617Y-58792324D01*
X82162067Y-58803496D01*
X82190933Y-58865402D01*
X82190935Y-58865404D01*
X82274596Y-58949065D01*
X82381827Y-58999068D01*
X82430684Y-59005500D01*
X82430686Y-59005500D01*
X82779314Y-59005500D01*
X82779316Y-59005500D01*
X82828173Y-58999068D01*
X82935404Y-58949065D01*
X83019065Y-58865404D01*
X83069068Y-58758173D01*
X83075500Y-58709316D01*
X83075500Y-58260684D01*
X83069068Y-58211827D01*
X83019065Y-58104596D01*
X82935404Y-58020935D01*
X82877270Y-57993826D01*
X82841479Y-57958035D01*
X82837067Y-57907609D01*
X82866101Y-57866144D01*
X82877273Y-57859694D01*
X82923314Y-57838225D01*
X82923314Y-57838224D01*
X82923316Y-57838224D01*
X83008224Y-57753316D01*
X83058972Y-57644487D01*
X83065500Y-57594901D01*
X83065499Y-57350004D01*
X88924318Y-57350004D01*
X88944955Y-57506764D01*
X88944955Y-57506765D01*
X89005464Y-57652845D01*
X89101715Y-57778283D01*
X89101720Y-57778288D01*
X89158966Y-57822214D01*
X89186164Y-57864905D01*
X89179557Y-57915091D01*
X89153421Y-57940115D01*
X89154897Y-57942223D01*
X89149597Y-57945933D01*
X89065935Y-58029595D01*
X89015931Y-58136828D01*
X89009500Y-58185684D01*
X89009500Y-58534314D01*
X89015931Y-58583171D01*
X89015932Y-58583173D01*
X89065935Y-58690404D01*
X89149596Y-58774065D01*
X89256827Y-58824068D01*
X89305684Y-58830500D01*
X89305686Y-58830500D01*
X89754314Y-58830500D01*
X89754316Y-58830500D01*
X89803173Y-58824068D01*
X89910404Y-58774065D01*
X89994065Y-58690404D01*
X90044068Y-58583173D01*
X90050500Y-58534316D01*
X90050500Y-58185684D01*
X90044068Y-58136827D01*
X89994065Y-58029596D01*
X89910404Y-57945935D01*
X89910402Y-57945933D01*
X89905103Y-57942223D01*
X89906725Y-57939905D01*
X89879017Y-57912201D01*
X89874601Y-57861775D01*
X89901030Y-57822216D01*
X89958282Y-57778286D01*
X90054536Y-57652845D01*
X90115044Y-57506766D01*
X90135682Y-57350004D01*
X90115044Y-57193242D01*
X90054536Y-57047163D01*
X90010222Y-56989412D01*
X89958284Y-56921724D01*
X89958279Y-56921719D01*
X89832841Y-56825468D01*
X89686761Y-56764959D01*
X89556927Y-56747867D01*
X89530533Y-56734127D01*
X89518723Y-56744037D01*
X89503073Y-56747867D01*
X89373239Y-56764959D01*
X89373238Y-56764959D01*
X89227158Y-56825468D01*
X89101720Y-56921719D01*
X89101715Y-56921724D01*
X89005464Y-57047162D01*
X88944955Y-57193242D01*
X88944955Y-57193243D01*
X88924318Y-57350004D01*
X83065499Y-57350004D01*
X83065499Y-57175100D01*
X83058972Y-57125513D01*
X83008224Y-57016684D01*
X82932174Y-56940634D01*
X82910782Y-56894758D01*
X82910500Y-56888308D01*
X82910500Y-56199500D01*
X82927813Y-56151934D01*
X82971650Y-56126624D01*
X82984500Y-56125500D01*
X83134522Y-56125500D01*
X83182088Y-56142813D01*
X83186848Y-56147174D01*
X83367826Y-56328152D01*
X83389218Y-56374028D01*
X83389500Y-56380478D01*
X83389500Y-56519314D01*
X83395931Y-56568171D01*
X83419402Y-56618504D01*
X83445935Y-56675404D01*
X83529596Y-56759065D01*
X83636827Y-56809068D01*
X83685684Y-56815500D01*
X83685686Y-56815500D01*
X84034314Y-56815500D01*
X84034316Y-56815500D01*
X84083173Y-56809068D01*
X84190404Y-56759065D01*
X84274065Y-56675404D01*
X84302933Y-56613495D01*
X84338726Y-56577702D01*
X84389152Y-56573290D01*
X84430617Y-56602324D01*
X84437065Y-56613492D01*
X84439080Y-56617813D01*
X84465933Y-56675402D01*
X84465935Y-56675404D01*
X84549596Y-56759065D01*
X84656827Y-56809068D01*
X84705684Y-56815500D01*
X84705686Y-56815500D01*
X85054314Y-56815500D01*
X85054316Y-56815500D01*
X85103173Y-56809068D01*
X85210404Y-56759065D01*
X85294065Y-56675404D01*
X85299191Y-56664412D01*
X85299745Y-56663225D01*
X85335539Y-56627433D01*
X85366811Y-56620500D01*
X85413308Y-56620500D01*
X85460874Y-56637813D01*
X85465634Y-56642174D01*
X85486684Y-56663224D01*
X85595513Y-56713972D01*
X85645099Y-56720500D01*
X86064900Y-56720499D01*
X86114487Y-56713972D01*
X86223316Y-56663224D01*
X86244526Y-56642013D01*
X86277695Y-56622862D01*
X86293977Y-56618499D01*
X86297090Y-56617808D01*
X86338045Y-56610588D01*
X86338346Y-56610415D01*
X86339013Y-56610236D01*
X86344129Y-56608374D01*
X86344291Y-56608821D01*
X86375347Y-56600500D01*
X89493414Y-56600500D01*
X89531540Y-56614377D01*
X89550569Y-56602254D01*
X89566586Y-56600500D01*
X89834522Y-56600500D01*
X89882088Y-56617813D01*
X89886848Y-56622174D01*
X90502826Y-57238152D01*
X90524218Y-57284028D01*
X90524500Y-57290478D01*
X90524500Y-60734173D01*
X90524359Y-60737400D01*
X90520735Y-60778805D01*
X90520735Y-60778806D01*
X90531495Y-60818964D01*
X90532193Y-60822114D01*
X90539411Y-60863044D01*
X90541811Y-60867200D01*
X90549203Y-60885047D01*
X90550445Y-60889682D01*
X90550446Y-60889685D01*
X90574288Y-60923736D01*
X90576022Y-60926458D01*
X90581012Y-60935100D01*
X90596806Y-60962455D01*
X90596808Y-60962457D01*
X90596807Y-60962457D01*
X90613938Y-60976830D01*
X90628658Y-60989182D01*
X90631027Y-60991353D01*
X91958652Y-62318979D01*
X91960824Y-62321349D01*
X91976121Y-62339579D01*
X91986676Y-62352159D01*
X91987545Y-62353194D01*
X92023548Y-62373980D01*
X92026272Y-62375716D01*
X92060314Y-62399553D01*
X92060315Y-62399553D01*
X92060316Y-62399554D01*
X92064945Y-62400794D01*
X92082800Y-62408189D01*
X92086955Y-62410588D01*
X92127915Y-62417809D01*
X92131028Y-62418500D01*
X92171193Y-62429263D01*
X92212598Y-62425640D01*
X92215817Y-62425500D01*
X98604208Y-62425500D01*
X98635481Y-62432432D01*
X98714455Y-62469259D01*
X98761861Y-62475500D01*
X99688138Y-62475499D01*
X99735545Y-62469259D01*
X99839579Y-62420747D01*
X99920747Y-62339579D01*
X99969259Y-62235545D01*
X99975500Y-62188139D01*
X99975499Y-61861862D01*
X99969259Y-61814455D01*
X99920747Y-61710421D01*
X99839579Y-61629253D01*
X99735545Y-61580741D01*
X99735543Y-61580740D01*
X99700619Y-61576142D01*
X99688139Y-61574500D01*
X99688137Y-61574500D01*
X98761862Y-61574500D01*
X98714456Y-61580740D01*
X98714454Y-61580741D01*
X98610420Y-61629253D01*
X98529252Y-61710421D01*
X98529251Y-61710423D01*
X98519296Y-61731773D01*
X98483503Y-61767566D01*
X98452229Y-61774500D01*
X92365479Y-61774500D01*
X92317913Y-61757187D01*
X92313153Y-61752826D01*
X91197174Y-60636847D01*
X91175782Y-60590971D01*
X91175500Y-60584521D01*
X91175500Y-59300000D01*
X93344318Y-59300000D01*
X93364955Y-59456760D01*
X93364955Y-59456761D01*
X93425464Y-59602841D01*
X93521715Y-59728279D01*
X93521720Y-59728284D01*
X93578467Y-59771827D01*
X93647159Y-59824536D01*
X93793238Y-59885044D01*
X93950000Y-59905682D01*
X94054771Y-59891888D01*
X94104189Y-59902844D01*
X94106873Y-59904638D01*
X94135314Y-59924552D01*
X94135312Y-59924552D01*
X94135316Y-59924553D01*
X94139949Y-59925794D01*
X94157790Y-59933183D01*
X94161955Y-59935588D01*
X94170717Y-59937133D01*
X94202899Y-59942808D01*
X94206049Y-59943506D01*
X94246193Y-59954263D01*
X94246193Y-59954262D01*
X94246194Y-59954263D01*
X94254006Y-59953579D01*
X94287598Y-59950640D01*
X94290817Y-59950500D01*
X96537842Y-59950500D01*
X96563707Y-59959914D01*
X96573553Y-59953021D01*
X96592704Y-59950500D01*
X98509522Y-59950500D01*
X98557088Y-59967813D01*
X98561848Y-59972174D01*
X98562348Y-59972674D01*
X98583740Y-60018550D01*
X98570639Y-60067445D01*
X98562348Y-60077326D01*
X98561848Y-60077826D01*
X98515972Y-60099218D01*
X98509522Y-60099500D01*
X96602517Y-60099500D01*
X96599296Y-60099359D01*
X96588947Y-60098453D01*
X96586253Y-60098218D01*
X96568200Y-60089799D01*
X96563151Y-60094037D01*
X96556992Y-60095979D01*
X96517746Y-60106494D01*
X96514596Y-60107192D01*
X96473655Y-60114412D01*
X96473653Y-60114412D01*
X96469492Y-60116815D01*
X96451661Y-60124201D01*
X96447019Y-60125445D01*
X96447014Y-60125447D01*
X96412967Y-60149287D01*
X96410246Y-60151021D01*
X96374251Y-60171803D01*
X96374245Y-60171808D01*
X96347534Y-60203639D01*
X96345353Y-60206019D01*
X96160100Y-60391274D01*
X96114224Y-60412666D01*
X96098116Y-60412315D01*
X96005851Y-60400169D01*
X95849090Y-60420806D01*
X95849089Y-60420806D01*
X95703009Y-60481315D01*
X95577571Y-60577566D01*
X95577566Y-60577571D01*
X95481315Y-60703009D01*
X95420806Y-60849089D01*
X95420806Y-60849090D01*
X95400169Y-61005851D01*
X95420806Y-61162611D01*
X95420806Y-61162612D01*
X95481315Y-61308692D01*
X95577566Y-61434130D01*
X95577571Y-61434135D01*
X95602501Y-61453264D01*
X95703010Y-61530387D01*
X95849089Y-61590895D01*
X96005851Y-61611533D01*
X96162613Y-61590895D01*
X96308692Y-61530387D01*
X96434133Y-61434133D01*
X96530387Y-61308692D01*
X96590895Y-61162613D01*
X96611533Y-61005851D01*
X96599385Y-60913584D01*
X96610341Y-60864166D01*
X96620421Y-60851606D01*
X96699856Y-60772172D01*
X96745731Y-60750782D01*
X96752180Y-60750500D01*
X98509522Y-60750500D01*
X98557088Y-60767813D01*
X98561847Y-60772173D01*
X98610421Y-60820747D01*
X98714455Y-60869259D01*
X98761861Y-60875500D01*
X99688138Y-60875499D01*
X99735545Y-60869259D01*
X99839579Y-60820747D01*
X99920747Y-60739579D01*
X99969259Y-60635545D01*
X99975500Y-60588139D01*
X99975499Y-60261862D01*
X99969259Y-60214455D01*
X99920747Y-60110421D01*
X99887652Y-60077326D01*
X99866260Y-60031450D01*
X99879361Y-59982555D01*
X99887652Y-59972674D01*
X99900412Y-59959914D01*
X99920747Y-59939579D01*
X99969259Y-59835545D01*
X99975500Y-59788139D01*
X99975499Y-59461862D01*
X99969259Y-59414455D01*
X99920747Y-59310421D01*
X99887652Y-59277326D01*
X99866260Y-59231450D01*
X99879361Y-59182555D01*
X99887652Y-59172674D01*
X99901446Y-59158880D01*
X99920747Y-59139579D01*
X99969259Y-59035545D01*
X99975500Y-58988139D01*
X99975499Y-58661862D01*
X99969259Y-58614455D01*
X99920747Y-58510421D01*
X99887652Y-58477326D01*
X99866260Y-58431450D01*
X99879361Y-58382555D01*
X99887652Y-58372674D01*
X99891262Y-58369064D01*
X99920747Y-58339579D01*
X99969259Y-58235545D01*
X99975500Y-58188139D01*
X99975499Y-57861862D01*
X99969259Y-57814455D01*
X99920747Y-57710421D01*
X99887652Y-57677326D01*
X99866260Y-57631450D01*
X99879361Y-57582555D01*
X99887652Y-57572674D01*
X99900282Y-57560044D01*
X99920747Y-57539579D01*
X99969259Y-57435545D01*
X99975500Y-57388139D01*
X99975499Y-57061862D01*
X99969259Y-57014455D01*
X99920747Y-56910421D01*
X99850630Y-56840304D01*
X99829238Y-56794428D01*
X99842339Y-56745533D01*
X99883803Y-56716499D01*
X99927397Y-56718130D01*
X99940301Y-56722646D01*
X99970734Y-56725500D01*
X99970741Y-56725500D01*
X101279258Y-56725500D01*
X101279266Y-56725500D01*
X101309699Y-56722646D01*
X101437882Y-56677793D01*
X101547150Y-56597150D01*
X101627793Y-56487882D01*
X101672646Y-56359699D01*
X101675500Y-56329266D01*
X101675500Y-55520734D01*
X101672646Y-55490301D01*
X101627793Y-55362118D01*
X101627792Y-55362116D01*
X101547153Y-55252853D01*
X101547146Y-55252846D01*
X101437883Y-55172207D01*
X101437881Y-55172206D01*
X101309704Y-55127355D01*
X101309705Y-55127355D01*
X101309700Y-55127354D01*
X101309699Y-55127354D01*
X101279266Y-55124500D01*
X99970734Y-55124500D01*
X99940301Y-55127354D01*
X99940299Y-55127354D01*
X99940295Y-55127355D01*
X99812118Y-55172206D01*
X99812116Y-55172207D01*
X99702853Y-55252846D01*
X99702846Y-55252853D01*
X99622207Y-55362116D01*
X99622206Y-55362118D01*
X99577355Y-55490295D01*
X99577354Y-55490299D01*
X99577354Y-55490301D01*
X99574500Y-55520734D01*
X99574500Y-56329266D01*
X99577354Y-56359699D01*
X99577354Y-56359701D01*
X99577355Y-56359704D01*
X99622206Y-56487881D01*
X99622207Y-56487883D01*
X99702846Y-56597146D01*
X99702849Y-56597149D01*
X99702850Y-56597150D01*
X99767698Y-56645010D01*
X99795690Y-56687185D01*
X99790023Y-56737486D01*
X99753349Y-56772375D01*
X99714099Y-56777917D01*
X99688139Y-56774500D01*
X98761862Y-56774500D01*
X98714456Y-56780740D01*
X98714454Y-56780741D01*
X98610420Y-56829253D01*
X98536848Y-56902826D01*
X98490972Y-56924218D01*
X98484522Y-56924500D01*
X98465478Y-56924500D01*
X98417912Y-56907187D01*
X98413152Y-56902826D01*
X98266357Y-56756031D01*
X98264176Y-56753651D01*
X98261363Y-56750299D01*
X98237455Y-56721806D01*
X98220088Y-56711778D01*
X98201458Y-56701022D01*
X98198736Y-56699288D01*
X98164685Y-56675446D01*
X98164682Y-56675445D01*
X98160047Y-56674203D01*
X98142200Y-56666811D01*
X98138044Y-56664411D01*
X98097114Y-56657193D01*
X98093964Y-56656495D01*
X98053806Y-56645735D01*
X98053805Y-56645735D01*
X98020818Y-56648622D01*
X98012394Y-56649359D01*
X98009174Y-56649500D01*
X97393642Y-56649500D01*
X97346076Y-56632187D01*
X97334934Y-56620548D01*
X97278284Y-56546720D01*
X97278279Y-56546715D01*
X97152841Y-56450464D01*
X97006761Y-56389955D01*
X96850000Y-56369318D01*
X96693239Y-56389955D01*
X96693238Y-56389955D01*
X96547158Y-56450464D01*
X96421720Y-56546715D01*
X96421715Y-56546720D01*
X96325464Y-56672158D01*
X96264955Y-56818238D01*
X96264955Y-56818239D01*
X96244318Y-56975000D01*
X96264955Y-57131760D01*
X96264955Y-57131761D01*
X96325464Y-57277841D01*
X96421715Y-57403279D01*
X96421720Y-57403284D01*
X96451125Y-57425847D01*
X96547159Y-57499536D01*
X96693238Y-57560044D01*
X96850000Y-57580682D01*
X96960491Y-57566135D01*
X97009908Y-57577091D01*
X97040723Y-57617249D01*
X97038515Y-57667820D01*
X96989956Y-57785051D01*
X96989955Y-57785055D01*
X96969318Y-57941816D01*
X96989955Y-58098576D01*
X96989955Y-58098577D01*
X97050464Y-58244657D01*
X97146715Y-58370095D01*
X97149794Y-58373174D01*
X97171186Y-58419050D01*
X97158085Y-58467945D01*
X97116621Y-58496979D01*
X97097468Y-58499500D01*
X96040478Y-58499500D01*
X95992912Y-58482187D01*
X95988152Y-58477826D01*
X95014579Y-57504253D01*
X94993187Y-57458377D01*
X94993537Y-57442273D01*
X95005686Y-57350004D01*
X94985048Y-57193242D01*
X94924540Y-57047163D01*
X94880226Y-56989412D01*
X94828288Y-56921724D01*
X94828283Y-56921719D01*
X94702845Y-56825468D01*
X94556765Y-56764959D01*
X94400004Y-56744322D01*
X94243243Y-56764959D01*
X94243242Y-56764959D01*
X94097162Y-56825468D01*
X93971724Y-56921719D01*
X93971719Y-56921724D01*
X93875468Y-57047162D01*
X93814959Y-57193242D01*
X93814959Y-57193243D01*
X93794322Y-57350004D01*
X93814959Y-57506764D01*
X93814959Y-57506765D01*
X93875468Y-57652845D01*
X93971719Y-57778283D01*
X93971724Y-57778288D01*
X94049834Y-57838223D01*
X94097163Y-57874540D01*
X94243242Y-57935048D01*
X94400004Y-57955686D01*
X94492268Y-57943538D01*
X94541686Y-57954494D01*
X94554253Y-57964579D01*
X95633647Y-59043973D01*
X95635819Y-59046343D01*
X95662545Y-59078194D01*
X95698546Y-59098979D01*
X95701270Y-59100715D01*
X95735314Y-59124553D01*
X95735316Y-59124554D01*
X95739949Y-59125795D01*
X95757795Y-59133186D01*
X95761955Y-59135588D01*
X95761958Y-59135588D01*
X95761959Y-59135589D01*
X95761958Y-59135589D01*
X95802888Y-59142806D01*
X95806038Y-59143504D01*
X95821949Y-59147767D01*
X95845289Y-59154022D01*
X95852227Y-59158880D01*
X95855705Y-59155963D01*
X95874563Y-59151782D01*
X95878956Y-59151397D01*
X95887605Y-59150640D01*
X95890826Y-59150500D01*
X98509522Y-59150500D01*
X98557088Y-59167813D01*
X98561848Y-59172174D01*
X98562348Y-59172674D01*
X98583740Y-59218550D01*
X98570639Y-59267445D01*
X98562348Y-59277326D01*
X98561848Y-59277826D01*
X98515972Y-59299218D01*
X98509522Y-59299500D01*
X95881014Y-59299500D01*
X95853476Y-59289476D01*
X95832583Y-59299219D01*
X95826135Y-59299500D01*
X94620513Y-59299500D01*
X94572947Y-59282187D01*
X94547637Y-59238350D01*
X94547146Y-59235159D01*
X94535044Y-59143239D01*
X94535044Y-59143238D01*
X94530882Y-59133189D01*
X94474536Y-58997159D01*
X94437632Y-58949064D01*
X94378284Y-58871720D01*
X94378279Y-58871715D01*
X94252841Y-58775464D01*
X94106761Y-58714955D01*
X93950000Y-58694318D01*
X93793239Y-58714955D01*
X93793238Y-58714955D01*
X93647158Y-58775464D01*
X93521720Y-58871715D01*
X93521715Y-58871720D01*
X93425464Y-58997158D01*
X93364955Y-59143238D01*
X93364955Y-59143239D01*
X93344318Y-59300000D01*
X91175500Y-59300000D01*
X91175500Y-57140826D01*
X91175641Y-57137599D01*
X91176247Y-57130682D01*
X91179264Y-57096194D01*
X91168503Y-57056037D01*
X91167804Y-57052885D01*
X91166954Y-57048065D01*
X91160588Y-57011955D01*
X91158189Y-57007800D01*
X91150794Y-56989945D01*
X91149554Y-56985317D01*
X91149553Y-56985314D01*
X91125715Y-56951270D01*
X91123979Y-56948546D01*
X91120238Y-56942067D01*
X91103194Y-56912545D01*
X91103193Y-56912543D01*
X91071347Y-56885821D01*
X91068966Y-56883640D01*
X90241357Y-56056031D01*
X90239176Y-56053651D01*
X90226564Y-56038621D01*
X90212455Y-56021806D01*
X90186352Y-56006735D01*
X90176458Y-56001022D01*
X90173736Y-55999288D01*
X90139685Y-55975446D01*
X90139682Y-55975445D01*
X90135047Y-55974203D01*
X90117200Y-55966811D01*
X90113044Y-55964411D01*
X90072114Y-55957193D01*
X90068964Y-55956495D01*
X90028806Y-55945735D01*
X90028805Y-55945735D01*
X89995818Y-55948622D01*
X89987394Y-55949359D01*
X89984174Y-55949500D01*
X86377664Y-55949500D01*
X86330098Y-55932187D01*
X86310597Y-55906773D01*
X86308224Y-55901684D01*
X86223316Y-55816776D01*
X86114487Y-55766028D01*
X86114485Y-55766027D01*
X86077955Y-55761218D01*
X86064901Y-55759500D01*
X86064899Y-55759500D01*
X85645100Y-55759500D01*
X85595514Y-55766027D01*
X85595512Y-55766028D01*
X85486683Y-55816776D01*
X85397198Y-55906262D01*
X85396002Y-55905066D01*
X85361211Y-55929424D01*
X85310785Y-55925008D01*
X85289739Y-55910270D01*
X85210404Y-55830935D01*
X85170051Y-55812118D01*
X85103173Y-55780932D01*
X85103171Y-55780931D01*
X85067178Y-55776193D01*
X85054316Y-55774500D01*
X84705684Y-55774500D01*
X84694318Y-55775996D01*
X84656828Y-55780931D01*
X84549595Y-55830935D01*
X84465935Y-55914595D01*
X84457732Y-55932187D01*
X84437561Y-55975445D01*
X84437067Y-55976504D01*
X84401274Y-56012297D01*
X84350847Y-56016709D01*
X84309383Y-55987675D01*
X84302933Y-55976504D01*
X84302440Y-55975446D01*
X84274065Y-55914596D01*
X84190404Y-55830935D01*
X84083173Y-55780932D01*
X84083171Y-55780931D01*
X84047178Y-55776193D01*
X84034316Y-55774500D01*
X84034314Y-55774500D01*
X83765478Y-55774500D01*
X83717912Y-55757187D01*
X83713152Y-55752826D01*
X83541357Y-55581031D01*
X83539176Y-55578651D01*
X83535693Y-55574500D01*
X83512455Y-55546806D01*
X83495088Y-55536778D01*
X83476458Y-55526022D01*
X83473736Y-55524288D01*
X83439685Y-55500446D01*
X83439682Y-55500445D01*
X83435047Y-55499203D01*
X83417200Y-55491811D01*
X83413044Y-55489411D01*
X83372114Y-55482193D01*
X83368964Y-55481495D01*
X83328806Y-55470735D01*
X83328805Y-55470735D01*
X83295818Y-55473622D01*
X83287394Y-55474359D01*
X83284174Y-55474500D01*
X82640827Y-55474500D01*
X82637606Y-55474359D01*
X82628651Y-55473575D01*
X82596195Y-55470735D01*
X82592857Y-55471630D01*
X82591557Y-55471978D01*
X82572406Y-55474500D01*
X79795818Y-55474500D01*
X79792599Y-55474359D01*
X79782620Y-55473486D01*
X79751195Y-55470736D01*
X79751194Y-55470736D01*
X79711044Y-55481494D01*
X79707894Y-55482192D01*
X79666953Y-55489412D01*
X79666951Y-55489412D01*
X79662790Y-55491815D01*
X79644959Y-55499201D01*
X79640317Y-55500445D01*
X79640312Y-55500447D01*
X79606265Y-55524287D01*
X79603544Y-55526021D01*
X79567549Y-55546803D01*
X79567543Y-55546808D01*
X79540832Y-55578639D01*
X79538651Y-55581019D01*
X79302503Y-55817170D01*
X79256627Y-55838562D01*
X79207733Y-55825461D01*
X79197851Y-55817170D01*
X79131482Y-55750801D01*
X79026394Y-55699427D01*
X78958264Y-55689500D01*
X78958260Y-55689500D01*
X77241740Y-55689500D01*
X77241735Y-55689500D01*
X77173606Y-55699427D01*
X77173605Y-55699427D01*
X77068517Y-55750801D01*
X76985801Y-55833517D01*
X76934427Y-55938605D01*
X76934427Y-55938606D01*
X76924500Y-56006735D01*
X76924500Y-56373264D01*
X76934427Y-56441393D01*
X76934427Y-56441394D01*
X76985801Y-56546482D01*
X76985802Y-56546483D01*
X77068517Y-56629198D01*
X77173607Y-56680573D01*
X77241740Y-56690500D01*
X77241746Y-56690500D01*
X78958254Y-56690500D01*
X78958260Y-56690500D01*
X79026393Y-56680573D01*
X79131483Y-56629198D01*
X79214198Y-56546483D01*
X79214198Y-56546482D01*
X79218534Y-56542147D01*
X79219344Y-56542957D01*
X79255919Y-56517848D01*
X79274411Y-56515500D01*
X79374174Y-56515500D01*
X79377394Y-56515640D01*
X79402623Y-56517848D01*
X79418805Y-56519264D01*
X79418805Y-56519263D01*
X79418807Y-56519264D01*
X79458967Y-56508502D01*
X79462100Y-56507807D01*
X79503045Y-56500588D01*
X79507194Y-56498191D01*
X79525055Y-56490794D01*
X79529684Y-56489554D01*
X79563733Y-56465712D01*
X79566450Y-56463980D01*
X79602455Y-56443194D01*
X79629187Y-56411334D01*
X79631347Y-56408977D01*
X79893153Y-56147174D01*
X79939030Y-56125782D01*
X79945479Y-56125500D01*
X80504752Y-56125500D01*
X80552318Y-56142813D01*
X80577628Y-56186650D01*
X80573119Y-56227818D01*
X80514956Y-56368235D01*
X80514955Y-56368238D01*
X80510753Y-56400160D01*
X80487379Y-56445059D01*
X80440613Y-56464430D01*
X80437386Y-56464500D01*
X80000684Y-56464500D01*
X79991478Y-56465712D01*
X79951828Y-56470931D01*
X79844595Y-56520935D01*
X79760935Y-56604595D01*
X79710931Y-56711828D01*
X79706187Y-56747867D01*
X79704500Y-56760684D01*
X79704500Y-57109316D01*
X79705536Y-57117187D01*
X79710931Y-57158171D01*
X79710932Y-57158173D01*
X79740996Y-57222646D01*
X79745393Y-57232074D01*
X79749804Y-57282501D01*
X79720771Y-57323965D01*
X79671876Y-57337066D01*
X79626000Y-57315674D01*
X79551357Y-57241031D01*
X79549176Y-57238651D01*
X79538141Y-57225500D01*
X79522455Y-57206806D01*
X79498962Y-57193242D01*
X79486458Y-57186022D01*
X79483736Y-57184288D01*
X79449685Y-57160446D01*
X79449682Y-57160445D01*
X79445047Y-57159203D01*
X79427200Y-57151811D01*
X79423044Y-57149411D01*
X79382114Y-57142193D01*
X79378964Y-57141495D01*
X79338806Y-57130735D01*
X79338805Y-57130735D01*
X79305818Y-57133622D01*
X79297394Y-57134359D01*
X79294174Y-57134500D01*
X79274411Y-57134500D01*
X79226845Y-57117187D01*
X79214249Y-57103568D01*
X79131482Y-57020801D01*
X79026394Y-56969427D01*
X78958264Y-56959500D01*
X78958260Y-56959500D01*
X77241740Y-56959500D01*
X77241735Y-56959500D01*
X77173606Y-56969427D01*
X77173605Y-56969427D01*
X77068517Y-57020801D01*
X76985801Y-57103517D01*
X76934427Y-57208605D01*
X76934427Y-57208606D01*
X76924500Y-57276735D01*
X76924500Y-57643264D01*
X75225500Y-57643264D01*
X75225500Y-56615814D01*
X75225641Y-56612587D01*
X75226341Y-56604595D01*
X75229263Y-56571193D01*
X75222642Y-56546483D01*
X75218507Y-56531052D01*
X75217808Y-56527899D01*
X75211046Y-56489553D01*
X75210588Y-56486955D01*
X75208183Y-56482790D01*
X75200794Y-56464948D01*
X75200655Y-56464430D01*
X75199553Y-56460316D01*
X75175700Y-56426250D01*
X75173981Y-56423550D01*
X75153194Y-56387545D01*
X75130181Y-56368235D01*
X75121353Y-56360827D01*
X75118973Y-56358645D01*
X74741358Y-55981031D01*
X74739176Y-55978651D01*
X74725016Y-55961776D01*
X74712455Y-55946806D01*
X74687135Y-55932187D01*
X74676458Y-55926022D01*
X74673736Y-55924288D01*
X74639685Y-55900446D01*
X74639682Y-55900445D01*
X74635047Y-55899203D01*
X74617200Y-55891811D01*
X74613044Y-55889411D01*
X74572114Y-55882193D01*
X74568964Y-55881495D01*
X74528806Y-55870735D01*
X74528805Y-55870735D01*
X74495818Y-55873622D01*
X74487394Y-55874359D01*
X74484174Y-55874500D01*
X74330426Y-55874500D01*
X74282860Y-55857187D01*
X74268075Y-55838280D01*
X74267760Y-55838506D01*
X74264198Y-55833517D01*
X74181482Y-55750801D01*
X74076394Y-55699427D01*
X74008264Y-55689500D01*
X74008260Y-55689500D01*
X72291740Y-55689500D01*
X72291735Y-55689500D01*
X72223606Y-55699427D01*
X72223605Y-55699427D01*
X72118517Y-55750801D01*
X72031466Y-55837853D01*
X72030655Y-55837042D01*
X71994081Y-55862152D01*
X71975589Y-55864500D01*
X71225826Y-55864500D01*
X71222605Y-55864359D01*
X71213650Y-55863575D01*
X71181194Y-55860735D01*
X71181192Y-55860735D01*
X71141033Y-55871495D01*
X71137884Y-55872193D01*
X71096952Y-55879412D01*
X71096951Y-55879412D01*
X71092790Y-55881815D01*
X71074959Y-55889201D01*
X71064608Y-55891976D01*
X71045446Y-55894500D01*
X70720684Y-55894500D01*
X70709318Y-55895996D01*
X70671828Y-55900931D01*
X70564595Y-55950935D01*
X70480933Y-56034597D01*
X70477223Y-56039897D01*
X70475401Y-56038621D01*
X70446465Y-56067564D01*
X70415185Y-56074500D01*
X69896223Y-56074500D01*
X69848657Y-56057187D01*
X69843024Y-56051039D01*
X69842802Y-56051262D01*
X69753316Y-55961776D01*
X69703628Y-55938606D01*
X69644487Y-55911028D01*
X69644485Y-55911027D01*
X69607955Y-55906218D01*
X69594901Y-55904500D01*
X69594899Y-55904500D01*
X69175100Y-55904500D01*
X69125514Y-55911027D01*
X69125512Y-55911028D01*
X69016683Y-55961776D01*
X68931776Y-56046683D01*
X68881027Y-56155514D01*
X68874500Y-56205100D01*
X68874500Y-56564899D01*
X68881027Y-56614485D01*
X68881028Y-56614487D01*
X68931776Y-56723316D01*
X69021134Y-56812674D01*
X69042526Y-56858550D01*
X69029425Y-56907445D01*
X69021134Y-56917326D01*
X68985634Y-56952826D01*
X68939758Y-56974218D01*
X68933308Y-56974500D01*
X67865479Y-56974500D01*
X67817913Y-56957187D01*
X67813153Y-56952826D01*
X67041357Y-56181031D01*
X67039176Y-56178651D01*
X67036363Y-56175299D01*
X67012455Y-56146806D01*
X66995088Y-56136778D01*
X66976458Y-56126022D01*
X66973736Y-56124288D01*
X66939685Y-56100446D01*
X66939682Y-56100445D01*
X66935047Y-56099203D01*
X66917200Y-56091811D01*
X66913044Y-56089411D01*
X66872114Y-56082193D01*
X66868964Y-56081495D01*
X66828806Y-56070735D01*
X66828805Y-56070735D01*
X66795818Y-56073622D01*
X66787394Y-56074359D01*
X66784174Y-56074500D01*
X60599500Y-56074500D01*
X60551934Y-56057187D01*
X60526624Y-56013350D01*
X60525500Y-56000500D01*
X60525500Y-55970740D01*
X60525500Y-55970734D01*
X60522646Y-55940301D01*
X60513651Y-55914596D01*
X60477793Y-55812118D01*
X60477792Y-55812116D01*
X60397153Y-55702853D01*
X60397146Y-55702846D01*
X60287883Y-55622207D01*
X60287881Y-55622206D01*
X60159704Y-55577355D01*
X60159705Y-55577355D01*
X60159700Y-55577354D01*
X60159699Y-55577354D01*
X60129266Y-55574500D01*
X57870734Y-55574500D01*
X57840301Y-55577354D01*
X57840299Y-55577354D01*
X57840295Y-55577355D01*
X57712118Y-55622206D01*
X57712116Y-55622207D01*
X57602853Y-55702846D01*
X57602846Y-55702853D01*
X57522207Y-55812116D01*
X57522206Y-55812118D01*
X57477355Y-55940295D01*
X57477354Y-55940299D01*
X57477354Y-55940301D01*
X57474500Y-55970734D01*
X57474500Y-56829266D01*
X50000500Y-56829266D01*
X50000500Y-53124337D01*
X51499500Y-53124337D01*
X51540428Y-53369610D01*
X51621172Y-53604811D01*
X51694743Y-53740757D01*
X51739526Y-53823509D01*
X51892262Y-54019744D01*
X52075215Y-54188164D01*
X52283393Y-54324173D01*
X52511119Y-54424063D01*
X52752179Y-54485108D01*
X52752182Y-54485108D01*
X52752185Y-54485109D01*
X52937929Y-54500500D01*
X52937933Y-54500500D01*
X53062071Y-54500500D01*
X53247814Y-54485109D01*
X53247816Y-54485108D01*
X53247821Y-54485108D01*
X53488881Y-54424063D01*
X53716607Y-54324173D01*
X53924785Y-54188164D01*
X54107738Y-54019744D01*
X54260474Y-53823509D01*
X54378828Y-53604810D01*
X54459571Y-53369614D01*
X54500500Y-53124335D01*
X54500500Y-53099337D01*
X92374500Y-53099337D01*
X92415428Y-53344610D01*
X92496172Y-53579811D01*
X92569743Y-53715757D01*
X92614526Y-53798509D01*
X92767262Y-53994744D01*
X92950215Y-54163164D01*
X93158393Y-54299173D01*
X93386119Y-54399063D01*
X93627179Y-54460108D01*
X93627182Y-54460108D01*
X93627185Y-54460109D01*
X93812929Y-54475500D01*
X93812933Y-54475500D01*
X93937071Y-54475500D01*
X94122814Y-54460109D01*
X94122816Y-54460108D01*
X94122821Y-54460108D01*
X94363881Y-54399063D01*
X94591607Y-54299173D01*
X94799785Y-54163164D01*
X94982738Y-53994744D01*
X95135474Y-53798509D01*
X95253828Y-53579810D01*
X95334571Y-53344614D01*
X95375500Y-53099335D01*
X95375500Y-52850665D01*
X95334571Y-52605386D01*
X95253828Y-52370190D01*
X95135474Y-52151491D01*
X94982738Y-51955256D01*
X94799785Y-51786836D01*
X94591607Y-51650827D01*
X94363887Y-51550939D01*
X94363883Y-51550938D01*
X94363881Y-51550937D01*
X94160762Y-51499500D01*
X94122814Y-51489890D01*
X93937071Y-51474500D01*
X93937067Y-51474500D01*
X93812933Y-51474500D01*
X93812929Y-51474500D01*
X93627185Y-51489890D01*
X93463531Y-51531333D01*
X93386119Y-51550937D01*
X93386117Y-51550937D01*
X93386112Y-51550939D01*
X93158392Y-51650827D01*
X92950214Y-51786836D01*
X92767263Y-51955254D01*
X92614529Y-52151486D01*
X92614522Y-52151498D01*
X92496172Y-52370188D01*
X92415428Y-52605389D01*
X92374500Y-52850662D01*
X92374500Y-53099337D01*
X54500500Y-53099337D01*
X54500500Y-52875665D01*
X54459571Y-52630386D01*
X54378828Y-52395190D01*
X54260474Y-52176491D01*
X54107738Y-51980256D01*
X53924785Y-51811836D01*
X53716607Y-51675827D01*
X53659613Y-51650827D01*
X53488887Y-51575939D01*
X53488883Y-51575938D01*
X53488881Y-51575937D01*
X53325233Y-51534495D01*
X53247814Y-51514890D01*
X53062071Y-51499500D01*
X53062067Y-51499500D01*
X52937933Y-51499500D01*
X52937929Y-51499500D01*
X52752185Y-51514890D01*
X52609841Y-51550937D01*
X52511119Y-51575937D01*
X52511117Y-51575937D01*
X52511112Y-51575939D01*
X52283392Y-51675827D01*
X52075214Y-51811836D01*
X51892263Y-51980254D01*
X51739529Y-52176486D01*
X51739522Y-52176498D01*
X51621172Y-52395188D01*
X51540428Y-52630389D01*
X51499500Y-52875662D01*
X51499500Y-53124337D01*
X50000500Y-53124337D01*
X50000500Y-50074500D01*
X50017813Y-50026934D01*
X50061650Y-50001624D01*
X50074500Y-50000500D01*
X102425500Y-50000500D01*
X102473066Y-50017813D01*
G37*
%TD.AperFunction*%
%TD*%
M02*
