%TF.GenerationSoftware,KiCad,Pcbnew,7.0.9+1*%
%TF.CreationDate,2023-12-11T14:48:35+01:00*%
%TF.ProjectId,IR-sensor,49522d73-656e-4736-9f72-2e6b69636164,rev?*%
%TF.SameCoordinates,Original*%
%TF.FileFunction,Legend,Top*%
%TF.FilePolarity,Positive*%
%FSLAX46Y46*%
G04 Gerber Fmt 4.6, Leading zero omitted, Abs format (unit mm)*
G04 Created by KiCad (PCBNEW 7.0.9+1) date 2023-12-11 14:48:35*
%MOMM*%
%LPD*%
G01*
G04 APERTURE LIST*
%ADD10C,0.100000*%
%ADD11C,0.120000*%
G04 APERTURE END LIST*
D10*
X69003884Y-52162419D02*
X69003884Y-51162419D01*
X69003884Y-51162419D02*
X69241979Y-51162419D01*
X69241979Y-51162419D02*
X69384836Y-51210038D01*
X69384836Y-51210038D02*
X69480074Y-51305276D01*
X69480074Y-51305276D02*
X69527693Y-51400514D01*
X69527693Y-51400514D02*
X69575312Y-51590990D01*
X69575312Y-51590990D02*
X69575312Y-51733847D01*
X69575312Y-51733847D02*
X69527693Y-51924323D01*
X69527693Y-51924323D02*
X69480074Y-52019561D01*
X69480074Y-52019561D02*
X69384836Y-52114800D01*
X69384836Y-52114800D02*
X69241979Y-52162419D01*
X69241979Y-52162419D02*
X69003884Y-52162419D01*
X70384836Y-52114800D02*
X70289598Y-52162419D01*
X70289598Y-52162419D02*
X70099122Y-52162419D01*
X70099122Y-52162419D02*
X70003884Y-52114800D01*
X70003884Y-52114800D02*
X69956265Y-52019561D01*
X69956265Y-52019561D02*
X69956265Y-51638609D01*
X69956265Y-51638609D02*
X70003884Y-51543371D01*
X70003884Y-51543371D02*
X70099122Y-51495752D01*
X70099122Y-51495752D02*
X70289598Y-51495752D01*
X70289598Y-51495752D02*
X70384836Y-51543371D01*
X70384836Y-51543371D02*
X70432455Y-51638609D01*
X70432455Y-51638609D02*
X70432455Y-51733847D01*
X70432455Y-51733847D02*
X69956265Y-51829085D01*
X70765789Y-51495752D02*
X71003884Y-52162419D01*
X71003884Y-52162419D02*
X71241979Y-51495752D01*
X72003884Y-52114800D02*
X71908646Y-52162419D01*
X71908646Y-52162419D02*
X71718170Y-52162419D01*
X71718170Y-52162419D02*
X71622932Y-52114800D01*
X71622932Y-52114800D02*
X71575313Y-52019561D01*
X71575313Y-52019561D02*
X71575313Y-51638609D01*
X71575313Y-51638609D02*
X71622932Y-51543371D01*
X71622932Y-51543371D02*
X71718170Y-51495752D01*
X71718170Y-51495752D02*
X71908646Y-51495752D01*
X71908646Y-51495752D02*
X72003884Y-51543371D01*
X72003884Y-51543371D02*
X72051503Y-51638609D01*
X72051503Y-51638609D02*
X72051503Y-51733847D01*
X72051503Y-51733847D02*
X71575313Y-51829085D01*
X72480075Y-51495752D02*
X72480075Y-52162419D01*
X72480075Y-51590990D02*
X72527694Y-51543371D01*
X72527694Y-51543371D02*
X72622932Y-51495752D01*
X72622932Y-51495752D02*
X72765789Y-51495752D01*
X72765789Y-51495752D02*
X72861027Y-51543371D01*
X72861027Y-51543371D02*
X72908646Y-51638609D01*
X72908646Y-51638609D02*
X72908646Y-52162419D01*
X73241980Y-51495752D02*
X73622932Y-51495752D01*
X73384837Y-51162419D02*
X73384837Y-52019561D01*
X73384837Y-52019561D02*
X73432456Y-52114800D01*
X73432456Y-52114800D02*
X73527694Y-52162419D01*
X73527694Y-52162419D02*
X73622932Y-52162419D01*
X74718171Y-52162419D02*
X74718171Y-51162419D01*
X75765789Y-52162419D02*
X75432456Y-51686228D01*
X75194361Y-52162419D02*
X75194361Y-51162419D01*
X75194361Y-51162419D02*
X75575313Y-51162419D01*
X75575313Y-51162419D02*
X75670551Y-51210038D01*
X75670551Y-51210038D02*
X75718170Y-51257657D01*
X75718170Y-51257657D02*
X75765789Y-51352895D01*
X75765789Y-51352895D02*
X75765789Y-51495752D01*
X75765789Y-51495752D02*
X75718170Y-51590990D01*
X75718170Y-51590990D02*
X75670551Y-51638609D01*
X75670551Y-51638609D02*
X75575313Y-51686228D01*
X75575313Y-51686228D02*
X75194361Y-51686228D01*
X76194361Y-51781466D02*
X76956266Y-51781466D01*
X77384837Y-52114800D02*
X77480075Y-52162419D01*
X77480075Y-52162419D02*
X77670551Y-52162419D01*
X77670551Y-52162419D02*
X77765789Y-52114800D01*
X77765789Y-52114800D02*
X77813408Y-52019561D01*
X77813408Y-52019561D02*
X77813408Y-51971942D01*
X77813408Y-51971942D02*
X77765789Y-51876704D01*
X77765789Y-51876704D02*
X77670551Y-51829085D01*
X77670551Y-51829085D02*
X77527694Y-51829085D01*
X77527694Y-51829085D02*
X77432456Y-51781466D01*
X77432456Y-51781466D02*
X77384837Y-51686228D01*
X77384837Y-51686228D02*
X77384837Y-51638609D01*
X77384837Y-51638609D02*
X77432456Y-51543371D01*
X77432456Y-51543371D02*
X77527694Y-51495752D01*
X77527694Y-51495752D02*
X77670551Y-51495752D01*
X77670551Y-51495752D02*
X77765789Y-51543371D01*
X78622932Y-52114800D02*
X78527694Y-52162419D01*
X78527694Y-52162419D02*
X78337218Y-52162419D01*
X78337218Y-52162419D02*
X78241980Y-52114800D01*
X78241980Y-52114800D02*
X78194361Y-52019561D01*
X78194361Y-52019561D02*
X78194361Y-51638609D01*
X78194361Y-51638609D02*
X78241980Y-51543371D01*
X78241980Y-51543371D02*
X78337218Y-51495752D01*
X78337218Y-51495752D02*
X78527694Y-51495752D01*
X78527694Y-51495752D02*
X78622932Y-51543371D01*
X78622932Y-51543371D02*
X78670551Y-51638609D01*
X78670551Y-51638609D02*
X78670551Y-51733847D01*
X78670551Y-51733847D02*
X78194361Y-51829085D01*
X79099123Y-51495752D02*
X79099123Y-52162419D01*
X79099123Y-51590990D02*
X79146742Y-51543371D01*
X79146742Y-51543371D02*
X79241980Y-51495752D01*
X79241980Y-51495752D02*
X79384837Y-51495752D01*
X79384837Y-51495752D02*
X79480075Y-51543371D01*
X79480075Y-51543371D02*
X79527694Y-51638609D01*
X79527694Y-51638609D02*
X79527694Y-52162419D01*
X79956266Y-52114800D02*
X80051504Y-52162419D01*
X80051504Y-52162419D02*
X80241980Y-52162419D01*
X80241980Y-52162419D02*
X80337218Y-52114800D01*
X80337218Y-52114800D02*
X80384837Y-52019561D01*
X80384837Y-52019561D02*
X80384837Y-51971942D01*
X80384837Y-51971942D02*
X80337218Y-51876704D01*
X80337218Y-51876704D02*
X80241980Y-51829085D01*
X80241980Y-51829085D02*
X80099123Y-51829085D01*
X80099123Y-51829085D02*
X80003885Y-51781466D01*
X80003885Y-51781466D02*
X79956266Y-51686228D01*
X79956266Y-51686228D02*
X79956266Y-51638609D01*
X79956266Y-51638609D02*
X80003885Y-51543371D01*
X80003885Y-51543371D02*
X80099123Y-51495752D01*
X80099123Y-51495752D02*
X80241980Y-51495752D01*
X80241980Y-51495752D02*
X80337218Y-51543371D01*
X80956266Y-52162419D02*
X80861028Y-52114800D01*
X80861028Y-52114800D02*
X80813409Y-52067180D01*
X80813409Y-52067180D02*
X80765790Y-51971942D01*
X80765790Y-51971942D02*
X80765790Y-51686228D01*
X80765790Y-51686228D02*
X80813409Y-51590990D01*
X80813409Y-51590990D02*
X80861028Y-51543371D01*
X80861028Y-51543371D02*
X80956266Y-51495752D01*
X80956266Y-51495752D02*
X81099123Y-51495752D01*
X81099123Y-51495752D02*
X81194361Y-51543371D01*
X81194361Y-51543371D02*
X81241980Y-51590990D01*
X81241980Y-51590990D02*
X81289599Y-51686228D01*
X81289599Y-51686228D02*
X81289599Y-51971942D01*
X81289599Y-51971942D02*
X81241980Y-52067180D01*
X81241980Y-52067180D02*
X81194361Y-52114800D01*
X81194361Y-52114800D02*
X81099123Y-52162419D01*
X81099123Y-52162419D02*
X80956266Y-52162419D01*
X81718171Y-52162419D02*
X81718171Y-51495752D01*
X81718171Y-51686228D02*
X81765790Y-51590990D01*
X81765790Y-51590990D02*
X81813409Y-51543371D01*
X81813409Y-51543371D02*
X81908647Y-51495752D01*
X81908647Y-51495752D02*
X82003885Y-51495752D01*
X69575312Y-53772419D02*
X69241979Y-53296228D01*
X69003884Y-53772419D02*
X69003884Y-52772419D01*
X69003884Y-52772419D02*
X69384836Y-52772419D01*
X69384836Y-52772419D02*
X69480074Y-52820038D01*
X69480074Y-52820038D02*
X69527693Y-52867657D01*
X69527693Y-52867657D02*
X69575312Y-52962895D01*
X69575312Y-52962895D02*
X69575312Y-53105752D01*
X69575312Y-53105752D02*
X69527693Y-53200990D01*
X69527693Y-53200990D02*
X69480074Y-53248609D01*
X69480074Y-53248609D02*
X69384836Y-53296228D01*
X69384836Y-53296228D02*
X69003884Y-53296228D01*
X70384836Y-53724800D02*
X70289598Y-53772419D01*
X70289598Y-53772419D02*
X70099122Y-53772419D01*
X70099122Y-53772419D02*
X70003884Y-53724800D01*
X70003884Y-53724800D02*
X69956265Y-53629561D01*
X69956265Y-53629561D02*
X69956265Y-53248609D01*
X69956265Y-53248609D02*
X70003884Y-53153371D01*
X70003884Y-53153371D02*
X70099122Y-53105752D01*
X70099122Y-53105752D02*
X70289598Y-53105752D01*
X70289598Y-53105752D02*
X70384836Y-53153371D01*
X70384836Y-53153371D02*
X70432455Y-53248609D01*
X70432455Y-53248609D02*
X70432455Y-53343847D01*
X70432455Y-53343847D02*
X69956265Y-53439085D01*
X70765789Y-53105752D02*
X71003884Y-53772419D01*
X71003884Y-53772419D02*
X71241979Y-53105752D01*
X72337218Y-53486704D02*
X72813408Y-53486704D01*
X72241980Y-53772419D02*
X72575313Y-52772419D01*
X72575313Y-52772419D02*
X72908646Y-53772419D01*
X73432456Y-52772419D02*
X73527694Y-52772419D01*
X73527694Y-52772419D02*
X73622932Y-52820038D01*
X73622932Y-52820038D02*
X73670551Y-52867657D01*
X73670551Y-52867657D02*
X73718170Y-52962895D01*
X73718170Y-52962895D02*
X73765789Y-53153371D01*
X73765789Y-53153371D02*
X73765789Y-53391466D01*
X73765789Y-53391466D02*
X73718170Y-53581942D01*
X73718170Y-53581942D02*
X73670551Y-53677180D01*
X73670551Y-53677180D02*
X73622932Y-53724800D01*
X73622932Y-53724800D02*
X73527694Y-53772419D01*
X73527694Y-53772419D02*
X73432456Y-53772419D01*
X73432456Y-53772419D02*
X73337218Y-53724800D01*
X73337218Y-53724800D02*
X73289599Y-53677180D01*
X73289599Y-53677180D02*
X73241980Y-53581942D01*
X73241980Y-53581942D02*
X73194361Y-53391466D01*
X73194361Y-53391466D02*
X73194361Y-53153371D01*
X73194361Y-53153371D02*
X73241980Y-52962895D01*
X73241980Y-52962895D02*
X73289599Y-52867657D01*
X73289599Y-52867657D02*
X73337218Y-52820038D01*
X73337218Y-52820038D02*
X73432456Y-52772419D01*
D11*
%TO.C,D3*%
X57515000Y-60735000D02*
X59800000Y-60735000D01*
X57515000Y-59265000D02*
X57515000Y-60735000D01*
X59800000Y-59265000D02*
X57515000Y-59265000D01*
%TO.C,J1*%
X99515000Y-55615000D02*
X99065000Y-55615000D01*
X101285000Y-56785000D02*
X101285000Y-63265000D01*
X99065000Y-55615000D02*
X99065000Y-56715000D01*
X99065000Y-64435000D02*
X99065000Y-63335000D01*
X99065000Y-56715000D02*
X98675000Y-56715000D01*
X99515000Y-64435000D02*
X99065000Y-64435000D01*
%TO.C,R3*%
X71255000Y-61171359D02*
X71255000Y-61478641D01*
X70495000Y-61171359D02*
X70495000Y-61478641D01*
%TO.C,C7*%
X62572836Y-60785000D02*
X62357164Y-60785000D01*
X62572836Y-61505000D02*
X62357164Y-61505000D01*
%TO.C,C5*%
X68975000Y-63127164D02*
X68975000Y-63342836D01*
X69695000Y-63127164D02*
X69695000Y-63342836D01*
%TO.C,R12*%
X64501359Y-62705000D02*
X64808641Y-62705000D01*
X64501359Y-63465000D02*
X64808641Y-63465000D01*
%TO.C,U1*%
X75625000Y-55565000D02*
X77575000Y-55565000D01*
X75625000Y-64435000D02*
X77575000Y-64435000D01*
X75625000Y-55565000D02*
X72175000Y-55565000D01*
X75625000Y-64435000D02*
X73675000Y-64435000D01*
%TO.C,Q1*%
X63345000Y-63915000D02*
X63995000Y-63915000D01*
X63345000Y-67035000D02*
X63995000Y-67035000D01*
X63345000Y-63915000D02*
X61670000Y-63915000D01*
X63345000Y-67035000D02*
X62695000Y-67035000D01*
%TO.C,R13*%
X62301359Y-59665000D02*
X62608641Y-59665000D01*
X62301359Y-60425000D02*
X62608641Y-60425000D01*
%TO.C,R1*%
X70565000Y-57028641D02*
X70565000Y-56721359D01*
X71325000Y-57028641D02*
X71325000Y-56721359D01*
%TO.C,R18*%
X84523641Y-56675000D02*
X84216359Y-56675000D01*
X84523641Y-55915000D02*
X84216359Y-55915000D01*
%TO.C,R7*%
X89150000Y-59023641D02*
X89150000Y-58716359D01*
X89910000Y-59023641D02*
X89910000Y-58716359D01*
%TO.C,R11*%
X62291359Y-62695000D02*
X62598641Y-62695000D01*
X62291359Y-63455000D02*
X62598641Y-63455000D01*
%TO.C,Q2*%
X84395000Y-59315000D02*
X85045000Y-59315000D01*
X84395000Y-62435000D02*
X85045000Y-62435000D01*
X84395000Y-59315000D02*
X82720000Y-59315000D01*
X84395000Y-62435000D02*
X83745000Y-62435000D01*
%TO.C,C13*%
X82212836Y-57025000D02*
X81997164Y-57025000D01*
X82212836Y-57745000D02*
X81997164Y-57745000D01*
%TO.C,D1*%
X57415000Y-67285000D02*
X60585000Y-67285000D01*
X60585000Y-67285000D02*
X60585000Y-63400000D01*
X57415000Y-63400000D02*
X57415000Y-67285000D01*
%TO.C,R16*%
X79845000Y-57598641D02*
X79845000Y-57291359D01*
X80605000Y-57598641D02*
X80605000Y-57291359D01*
%TO.C,R14*%
X68577359Y-60247000D02*
X68884641Y-60247000D01*
X68577359Y-61007000D02*
X68884641Y-61007000D01*
%TO.C,R6*%
X88085000Y-60676359D02*
X88085000Y-60983641D01*
X87325000Y-60676359D02*
X87325000Y-60983641D01*
%TO.C,C9*%
X81137164Y-61665000D02*
X81352836Y-61665000D01*
X81137164Y-60945000D02*
X81352836Y-60945000D01*
%TO.C,R4*%
X80971359Y-63585000D02*
X81278641Y-63585000D01*
X80971359Y-64345000D02*
X81278641Y-64345000D01*
%TO.C,D2*%
X57415000Y-57285000D02*
X60585000Y-57285000D01*
X60585000Y-57285000D02*
X60585000Y-53400000D01*
X57415000Y-53400000D02*
X57415000Y-57285000D01*
%TO.C,R17*%
X82248641Y-58865000D02*
X81941359Y-58865000D01*
X82248641Y-58105000D02*
X81941359Y-58105000D01*
%TO.C,C1*%
X69745000Y-56972836D02*
X69745000Y-56757164D01*
X69025000Y-56972836D02*
X69025000Y-56757164D01*
%TO.C,C2*%
X70505000Y-59237164D02*
X70505000Y-59452836D01*
X71225000Y-59237164D02*
X71225000Y-59452836D01*
%TO.C,R15*%
X68521359Y-61295000D02*
X68828641Y-61295000D01*
X68521359Y-62055000D02*
X68828641Y-62055000D01*
%TO.C,R2*%
X71245000Y-63071359D02*
X71245000Y-63378641D01*
X70485000Y-63071359D02*
X70485000Y-63378641D01*
%TO.C,C11*%
X85495000Y-56612164D02*
X85495000Y-56827836D01*
X86215000Y-56612164D02*
X86215000Y-56827836D01*
%TO.C,C4*%
X62572836Y-61755000D02*
X62357164Y-61755000D01*
X62572836Y-62475000D02*
X62357164Y-62475000D01*
%TO.C,C6*%
X67780000Y-63152164D02*
X67780000Y-63367836D01*
X68500000Y-63152164D02*
X68500000Y-63367836D01*
%TO.C,C3*%
X75577164Y-65945000D02*
X75792836Y-65945000D01*
X75577164Y-65225000D02*
X75792836Y-65225000D01*
%TO.C,R5*%
X81031359Y-62415000D02*
X81338641Y-62415000D01*
X81031359Y-63175000D02*
X81338641Y-63175000D01*
%TO.C,C10*%
X79765000Y-59337164D02*
X79765000Y-59552836D01*
X80485000Y-59337164D02*
X80485000Y-59552836D01*
%TD*%
M02*
