%TF.GenerationSoftware,KiCad,Pcbnew,7.0.9+1*%
%TF.CreationDate,2023-12-11T14:48:35+01:00*%
%TF.ProjectId,IR-sensor,49522d73-656e-4736-9f72-2e6b69636164,rev?*%
%TF.SameCoordinates,Original*%
%TF.FileFunction,Copper,L2,Bot*%
%TF.FilePolarity,Positive*%
%FSLAX46Y46*%
G04 Gerber Fmt 4.6, Leading zero omitted, Abs format (unit mm)*
G04 Created by KiCad (PCBNEW 7.0.9+1) date 2023-12-11 14:48:35*
%MOMM*%
%LPD*%
G01*
G04 APERTURE LIST*
%TA.AperFunction,ViaPad*%
%ADD10C,0.800000*%
%TD*%
%TA.AperFunction,Conductor*%
%ADD11C,0.250000*%
%TD*%
G04 APERTURE END LIST*
D10*
%TO.N,Net-(U1C-+)*%
X79800000Y-61270000D03*
X69955500Y-61700000D03*
%TO.N,GND*%
X69800000Y-58850000D03*
X60800000Y-61200000D03*
X60800000Y-62100000D03*
X59700000Y-51800000D03*
X85800000Y-58400000D03*
X76200000Y-58700000D03*
X97500000Y-61200000D03*
X56801100Y-59989427D03*
X85700000Y-62000000D03*
X84100000Y-63200000D03*
X58100000Y-51800000D03*
X97500000Y-63100000D03*
X88300000Y-59400000D03*
%TO.N,/PWM_SEND*%
X97575000Y-57941816D03*
X66300000Y-68400000D03*
%TO.N,/PWM_RCV*%
X89530000Y-57350004D03*
X84956890Y-59475000D03*
X94400004Y-57350004D03*
%TO.N,+2V5*%
X96850000Y-56975000D03*
X75150000Y-66650000D03*
%TO.N,Net-(Q2-D)*%
X86400000Y-60200000D03*
X81100000Y-56525000D03*
%TO.N,-2V5*%
X81300000Y-59900000D03*
X83100000Y-65600000D03*
X93950000Y-59300000D03*
%TO.N,/INDICATOR*%
X63900000Y-60100000D03*
X96005851Y-61005851D03*
%TD*%
D11*
%TO.N,Net-(U1C-+)*%
X70400000Y-65200000D02*
X79000000Y-65200000D01*
X79800000Y-64600000D02*
X79800000Y-61270000D01*
X69955500Y-61700000D02*
X69955500Y-64755500D01*
X79100000Y-65300000D02*
X79800000Y-64600000D01*
X69955500Y-64755500D02*
X70400000Y-65200000D01*
X79000000Y-65200000D02*
X79100000Y-65300000D01*
%TO.N,/PWM_SEND*%
X88886396Y-67100000D02*
X97575000Y-58411396D01*
X87536396Y-68400000D02*
X88836396Y-67100000D01*
X66300000Y-68400000D02*
X87536396Y-68400000D01*
X88836396Y-67100000D02*
X88886396Y-67100000D01*
X97575000Y-58411396D02*
X97575000Y-57941816D01*
%TO.N,/PWM_RCV*%
X86099695Y-59475000D02*
X84956890Y-59475000D01*
X94400004Y-57350004D02*
X89530000Y-57350004D01*
X88224691Y-57350004D02*
X86099695Y-59475000D01*
X89530000Y-57350004D02*
X88224691Y-57350004D01*
%TO.N,+2V5*%
X96850000Y-58500000D02*
X96850000Y-56975000D01*
X75150000Y-66650000D02*
X88700000Y-66650000D01*
X88700000Y-66650000D02*
X96850000Y-58500000D01*
%TO.N,Net-(Q2-D)*%
X83500000Y-59950000D02*
X83500000Y-59513487D01*
X86400000Y-60200000D02*
X83750000Y-60200000D01*
X83750000Y-60200000D02*
X83500000Y-59950000D01*
X81100000Y-57113487D02*
X81100000Y-56525000D01*
X83500000Y-59513487D02*
X81100000Y-57113487D01*
%TO.N,-2V5*%
X92325000Y-60925000D02*
X93950000Y-59300000D01*
X83150000Y-60900000D02*
X83175000Y-60925000D01*
X83175000Y-60925000D02*
X92325000Y-60925000D01*
X81300000Y-59900000D02*
X82300000Y-60900000D01*
X82300000Y-60900000D02*
X83150000Y-60900000D01*
X83100000Y-65600000D02*
X83100000Y-60950000D01*
X83100000Y-60950000D02*
X83150000Y-60900000D01*
%TO.N,/INDICATOR*%
X63900000Y-60100000D02*
X63900000Y-68300000D01*
X64800000Y-69200000D02*
X87811702Y-69200000D01*
X87811702Y-69200000D02*
X96005851Y-61005851D01*
X63900000Y-68300000D02*
X64800000Y-69200000D01*
%TD*%
%TA.AperFunction,Conductor*%
%TO.N,GND*%
G36*
X102473066Y-50017813D02*
G01*
X102498376Y-50061650D01*
X102499500Y-50074500D01*
X102499500Y-69925500D01*
X102482187Y-69973066D01*
X102438350Y-69998376D01*
X102425500Y-69999500D01*
X50074500Y-69999500D01*
X50026934Y-69982187D01*
X50001624Y-69938350D01*
X50000500Y-69925500D01*
X50000500Y-67124337D01*
X51499500Y-67124337D01*
X51521417Y-67255681D01*
X51540429Y-67369614D01*
X51555473Y-67413436D01*
X51621172Y-67604811D01*
X51694743Y-67740757D01*
X51739526Y-67823509D01*
X51892262Y-68019744D01*
X52075215Y-68188164D01*
X52283393Y-68324173D01*
X52511119Y-68424063D01*
X52752179Y-68485108D01*
X52752182Y-68485108D01*
X52752185Y-68485109D01*
X52937929Y-68500500D01*
X52937933Y-68500500D01*
X53062071Y-68500500D01*
X53247814Y-68485109D01*
X53247816Y-68485108D01*
X53247821Y-68485108D01*
X53488881Y-68424063D01*
X53716607Y-68324173D01*
X53924785Y-68188164D01*
X54107738Y-68019744D01*
X54260474Y-67823509D01*
X54378828Y-67604810D01*
X54459571Y-67369614D01*
X54500500Y-67124335D01*
X54500500Y-66875665D01*
X54459571Y-66630386D01*
X54378828Y-66395190D01*
X54260474Y-66176491D01*
X54107738Y-65980256D01*
X54076498Y-65951498D01*
X53924785Y-65811836D01*
X53716607Y-65675827D01*
X53488887Y-65575939D01*
X53488883Y-65575938D01*
X53488881Y-65575937D01*
X53325233Y-65534495D01*
X53247814Y-65514890D01*
X53062071Y-65499500D01*
X53062067Y-65499500D01*
X52937933Y-65499500D01*
X52937929Y-65499500D01*
X52752185Y-65514890D01*
X52624701Y-65547174D01*
X52511119Y-65575937D01*
X52511117Y-65575937D01*
X52511112Y-65575939D01*
X52283392Y-65675827D01*
X52075214Y-65811836D01*
X51892263Y-65980254D01*
X51739529Y-66176486D01*
X51739522Y-66176498D01*
X51621172Y-66395188D01*
X51540428Y-66630389D01*
X51499500Y-66875662D01*
X51499500Y-67124337D01*
X50000500Y-67124337D01*
X50000500Y-60100000D01*
X63294318Y-60100000D01*
X63314955Y-60256760D01*
X63314955Y-60256761D01*
X63375464Y-60402841D01*
X63471715Y-60528279D01*
X63471716Y-60528280D01*
X63471718Y-60528282D01*
X63545549Y-60584934D01*
X63572746Y-60627624D01*
X63574500Y-60643641D01*
X63574500Y-68284173D01*
X63574359Y-68287400D01*
X63570735Y-68328805D01*
X63570735Y-68328806D01*
X63581495Y-68368964D01*
X63582193Y-68372114D01*
X63589411Y-68413044D01*
X63591811Y-68417200D01*
X63599203Y-68435047D01*
X63600445Y-68439682D01*
X63600446Y-68439685D01*
X63624288Y-68473736D01*
X63626022Y-68476458D01*
X63631017Y-68485108D01*
X63646806Y-68512455D01*
X63646808Y-68512457D01*
X63646807Y-68512457D01*
X63663938Y-68526830D01*
X63678658Y-68539182D01*
X63681027Y-68541353D01*
X64558652Y-69418979D01*
X64560821Y-69421346D01*
X64587545Y-69453194D01*
X64623541Y-69473976D01*
X64623548Y-69473980D01*
X64626272Y-69475716D01*
X64660314Y-69499553D01*
X64660315Y-69499553D01*
X64660316Y-69499554D01*
X64664945Y-69500794D01*
X64682800Y-69508189D01*
X64686955Y-69510588D01*
X64727915Y-69517809D01*
X64731028Y-69518500D01*
X64771193Y-69529263D01*
X64812598Y-69525640D01*
X64815817Y-69525500D01*
X87795876Y-69525500D01*
X87799096Y-69525640D01*
X87825248Y-69527928D01*
X87840507Y-69529264D01*
X87840507Y-69529263D01*
X87840509Y-69529264D01*
X87880669Y-69518502D01*
X87883802Y-69517807D01*
X87924747Y-69510588D01*
X87928896Y-69508191D01*
X87946757Y-69500794D01*
X87951386Y-69499554D01*
X87985435Y-69475712D01*
X87988152Y-69473980D01*
X88024157Y-69453194D01*
X88050889Y-69421334D01*
X88053050Y-69418976D01*
X90572689Y-66899337D01*
X92674500Y-66899337D01*
X92708289Y-67101826D01*
X92715429Y-67144614D01*
X92746474Y-67235044D01*
X92796172Y-67379811D01*
X92808893Y-67403317D01*
X92914526Y-67598509D01*
X93067262Y-67794744D01*
X93250215Y-67963164D01*
X93458393Y-68099173D01*
X93686119Y-68199063D01*
X93927179Y-68260108D01*
X93927182Y-68260108D01*
X93927185Y-68260109D01*
X94112929Y-68275500D01*
X94112933Y-68275500D01*
X94237071Y-68275500D01*
X94422814Y-68260109D01*
X94422816Y-68260108D01*
X94422821Y-68260108D01*
X94663881Y-68199063D01*
X94891607Y-68099173D01*
X95099785Y-67963164D01*
X95282738Y-67794744D01*
X95435474Y-67598509D01*
X95553828Y-67379810D01*
X95634571Y-67144614D01*
X95675500Y-66899335D01*
X95675500Y-66650665D01*
X95634571Y-66405386D01*
X95553828Y-66170190D01*
X95435474Y-65951491D01*
X95282738Y-65755256D01*
X95137129Y-65621214D01*
X95099785Y-65586836D01*
X94891607Y-65450827D01*
X94663887Y-65350939D01*
X94663883Y-65350938D01*
X94663881Y-65350937D01*
X94451514Y-65297158D01*
X94422814Y-65289890D01*
X94237071Y-65274500D01*
X94237067Y-65274500D01*
X94112933Y-65274500D01*
X94112929Y-65274500D01*
X93927185Y-65289890D01*
X93763531Y-65331333D01*
X93686119Y-65350937D01*
X93686117Y-65350937D01*
X93686112Y-65350939D01*
X93458392Y-65450827D01*
X93250214Y-65586836D01*
X93067263Y-65755254D01*
X92914529Y-65951486D01*
X92914522Y-65951498D01*
X92796172Y-66170188D01*
X92715428Y-66405389D01*
X92674500Y-66650662D01*
X92674500Y-66899337D01*
X90572689Y-66899337D01*
X95851601Y-61620425D01*
X95897476Y-61599034D01*
X95913581Y-61599384D01*
X96005851Y-61611533D01*
X96162613Y-61590895D01*
X96308692Y-61530387D01*
X96434133Y-61434133D01*
X96530387Y-61308692D01*
X96590895Y-61162613D01*
X96611533Y-61005851D01*
X96590895Y-60849089D01*
X96530387Y-60703010D01*
X96484832Y-60643641D01*
X96434135Y-60577571D01*
X96434130Y-60577566D01*
X96308692Y-60481315D01*
X96168270Y-60423150D01*
X96130950Y-60388952D01*
X96124343Y-60338766D01*
X96144261Y-60302459D01*
X97793983Y-58652737D01*
X97796329Y-58650587D01*
X97828194Y-58623851D01*
X97848980Y-58587846D01*
X97850712Y-58585129D01*
X97874553Y-58551081D01*
X97874554Y-58551080D01*
X97875794Y-58546450D01*
X97883193Y-58528588D01*
X97885588Y-58524441D01*
X97892805Y-58483503D01*
X97893502Y-58480365D01*
X97895780Y-58471863D01*
X97922210Y-58432305D01*
X98003282Y-58370098D01*
X98099536Y-58244657D01*
X98160044Y-58098578D01*
X98180682Y-57941816D01*
X98160044Y-57785054D01*
X98099536Y-57638975D01*
X98003282Y-57513534D01*
X98003279Y-57513531D01*
X97877841Y-57417280D01*
X97731761Y-57356771D01*
X97595637Y-57338850D01*
X97575000Y-57336134D01*
X97574999Y-57336134D01*
X97464510Y-57350680D01*
X97415091Y-57339724D01*
X97384276Y-57299565D01*
X97386483Y-57248996D01*
X97435044Y-57131762D01*
X97455682Y-56975000D01*
X97435044Y-56818238D01*
X97374536Y-56672159D01*
X97278282Y-56546718D01*
X97278279Y-56546715D01*
X97152841Y-56450464D01*
X97006761Y-56389955D01*
X96850000Y-56369318D01*
X96693239Y-56389955D01*
X96693238Y-56389955D01*
X96547158Y-56450464D01*
X96421720Y-56546715D01*
X96421715Y-56546720D01*
X96325464Y-56672158D01*
X96264955Y-56818238D01*
X96264955Y-56818239D01*
X96244318Y-56975000D01*
X96264955Y-57131760D01*
X96264955Y-57131761D01*
X96325464Y-57277841D01*
X96421715Y-57403279D01*
X96421716Y-57403280D01*
X96421718Y-57403282D01*
X96495549Y-57459934D01*
X96522746Y-57502624D01*
X96524500Y-57518641D01*
X96524500Y-58334522D01*
X96507187Y-58382088D01*
X96502826Y-58386848D01*
X88586848Y-66302826D01*
X88540972Y-66324218D01*
X88534522Y-66324500D01*
X83292109Y-66324500D01*
X83244543Y-66307187D01*
X83219233Y-66263350D01*
X83228023Y-66213500D01*
X83263790Y-66182133D01*
X83277423Y-66176486D01*
X83402841Y-66124536D01*
X83528282Y-66028282D01*
X83624536Y-65902841D01*
X83685044Y-65756762D01*
X83705682Y-65600000D01*
X83685044Y-65443238D01*
X83624536Y-65297159D01*
X83605285Y-65272070D01*
X83528286Y-65171722D01*
X83528284Y-65171720D01*
X83528282Y-65171719D01*
X83528282Y-65171718D01*
X83454451Y-65115065D01*
X83427254Y-65072373D01*
X83425500Y-65056357D01*
X83425500Y-61324500D01*
X83442813Y-61276934D01*
X83486650Y-61251624D01*
X83499500Y-61250500D01*
X92309174Y-61250500D01*
X92312394Y-61250640D01*
X92338546Y-61252928D01*
X92353805Y-61254264D01*
X92353805Y-61254263D01*
X92353807Y-61254264D01*
X92393967Y-61243502D01*
X92397100Y-61242807D01*
X92438045Y-61235588D01*
X92442194Y-61233191D01*
X92460055Y-61225794D01*
X92460626Y-61225641D01*
X92464684Y-61224554D01*
X92498733Y-61200712D01*
X92501450Y-61198980D01*
X92537455Y-61178194D01*
X92564187Y-61146334D01*
X92566348Y-61143976D01*
X93795750Y-59914574D01*
X93841625Y-59893183D01*
X93857730Y-59893533D01*
X93950000Y-59905682D01*
X94106762Y-59885044D01*
X94252841Y-59824536D01*
X94378282Y-59728282D01*
X94474536Y-59602841D01*
X94535044Y-59456762D01*
X94555682Y-59300000D01*
X94535044Y-59143238D01*
X94474536Y-58997159D01*
X94438706Y-58950464D01*
X94378284Y-58871720D01*
X94378279Y-58871715D01*
X94252841Y-58775464D01*
X94106761Y-58714955D01*
X93950000Y-58694318D01*
X93793239Y-58714955D01*
X93793238Y-58714955D01*
X93647158Y-58775464D01*
X93521720Y-58871715D01*
X93521715Y-58871720D01*
X93425464Y-58997158D01*
X93364955Y-59143238D01*
X93364955Y-59143239D01*
X93344318Y-59300000D01*
X93356464Y-59392265D01*
X93345508Y-59441684D01*
X93335423Y-59454249D01*
X92211848Y-60577826D01*
X92165972Y-60599218D01*
X92159522Y-60599500D01*
X86995248Y-60599500D01*
X86947682Y-60582187D01*
X86922372Y-60538350D01*
X86926881Y-60497182D01*
X86985043Y-60356764D01*
X86985044Y-60356762D01*
X87005682Y-60200000D01*
X86985044Y-60043238D01*
X86924536Y-59897159D01*
X86847803Y-59797158D01*
X86828284Y-59771720D01*
X86828279Y-59771715D01*
X86702841Y-59675464D01*
X86562420Y-59617299D01*
X86525100Y-59583101D01*
X86518493Y-59532915D01*
X86538411Y-59496608D01*
X88337844Y-57697178D01*
X88383721Y-57675786D01*
X88390170Y-57675504D01*
X88986358Y-57675504D01*
X89033924Y-57692817D01*
X89045066Y-57704456D01*
X89101715Y-57778283D01*
X89101720Y-57778288D01*
X89185345Y-57842455D01*
X89227159Y-57874540D01*
X89373238Y-57935048D01*
X89530000Y-57955686D01*
X89686762Y-57935048D01*
X89832841Y-57874540D01*
X89958282Y-57778286D01*
X89978659Y-57751729D01*
X90014934Y-57704456D01*
X90057625Y-57677258D01*
X90073642Y-57675504D01*
X93856362Y-57675504D01*
X93903928Y-57692817D01*
X93915070Y-57704456D01*
X93971719Y-57778283D01*
X93971724Y-57778288D01*
X94055349Y-57842455D01*
X94097163Y-57874540D01*
X94243242Y-57935048D01*
X94400004Y-57955686D01*
X94556766Y-57935048D01*
X94702845Y-57874540D01*
X94828286Y-57778286D01*
X94924540Y-57652845D01*
X94985048Y-57506766D01*
X95005686Y-57350004D01*
X94985048Y-57193242D01*
X94924540Y-57047163D01*
X94852503Y-56953282D01*
X94828288Y-56921724D01*
X94828283Y-56921719D01*
X94702845Y-56825468D01*
X94556765Y-56764959D01*
X94400004Y-56744322D01*
X94243243Y-56764959D01*
X94243242Y-56764959D01*
X94097162Y-56825468D01*
X93971724Y-56921719D01*
X93971719Y-56921724D01*
X93915070Y-56995552D01*
X93872379Y-57022750D01*
X93856362Y-57024504D01*
X90073642Y-57024504D01*
X90026076Y-57007191D01*
X90014934Y-56995552D01*
X89958284Y-56921724D01*
X89958279Y-56921719D01*
X89832841Y-56825468D01*
X89686761Y-56764959D01*
X89530000Y-56744322D01*
X89373239Y-56764959D01*
X89373238Y-56764959D01*
X89227158Y-56825468D01*
X89101720Y-56921719D01*
X89101715Y-56921724D01*
X89045066Y-56995552D01*
X89002375Y-57022750D01*
X88986358Y-57024504D01*
X88240509Y-57024504D01*
X88237290Y-57024363D01*
X88227311Y-57023490D01*
X88195886Y-57020740D01*
X88195885Y-57020740D01*
X88155735Y-57031498D01*
X88152585Y-57032196D01*
X88111644Y-57039416D01*
X88111642Y-57039416D01*
X88107481Y-57041819D01*
X88089650Y-57049205D01*
X88085008Y-57050449D01*
X88085003Y-57050451D01*
X88050956Y-57074291D01*
X88048235Y-57076025D01*
X88012240Y-57096807D01*
X88012234Y-57096812D01*
X87985523Y-57128643D01*
X87983342Y-57131024D01*
X85986543Y-59127826D01*
X85940667Y-59149218D01*
X85934217Y-59149500D01*
X85500532Y-59149500D01*
X85452966Y-59132187D01*
X85441824Y-59120548D01*
X85385174Y-59046720D01*
X85385169Y-59046715D01*
X85259731Y-58950464D01*
X85113651Y-58889955D01*
X84956890Y-58869318D01*
X84800129Y-58889955D01*
X84800128Y-58889955D01*
X84654048Y-58950464D01*
X84528610Y-59046715D01*
X84528605Y-59046720D01*
X84432354Y-59172158D01*
X84371845Y-59318238D01*
X84371845Y-59318239D01*
X84351208Y-59475000D01*
X84371845Y-59631760D01*
X84371846Y-59631764D01*
X84430009Y-59772182D01*
X84432217Y-59822752D01*
X84401402Y-59862911D01*
X84361642Y-59874500D01*
X83915479Y-59874500D01*
X83867913Y-59857187D01*
X83863153Y-59852826D01*
X83847174Y-59836847D01*
X83825782Y-59790971D01*
X83825500Y-59784521D01*
X83825500Y-59529312D01*
X83825641Y-59526085D01*
X83828221Y-59496606D01*
X83829264Y-59484680D01*
X83818502Y-59444520D01*
X83817806Y-59441376D01*
X83810589Y-59400445D01*
X83810588Y-59400443D01*
X83810588Y-59400442D01*
X83808186Y-59396282D01*
X83800795Y-59378436D01*
X83799554Y-59373803D01*
X83775715Y-59339757D01*
X83773979Y-59337033D01*
X83763128Y-59318239D01*
X83753194Y-59301032D01*
X83753193Y-59301030D01*
X83721347Y-59274308D01*
X83718966Y-59272127D01*
X81515431Y-57068592D01*
X81494039Y-57022716D01*
X81507140Y-56973821D01*
X81522713Y-56957555D01*
X81528282Y-56953282D01*
X81624536Y-56827841D01*
X81685044Y-56681762D01*
X81705682Y-56525000D01*
X81685044Y-56368238D01*
X81624536Y-56222159D01*
X81528282Y-56096718D01*
X81528279Y-56096715D01*
X81402841Y-56000464D01*
X81256761Y-55939955D01*
X81100000Y-55919318D01*
X80943239Y-55939955D01*
X80943238Y-55939955D01*
X80797158Y-56000464D01*
X80671720Y-56096715D01*
X80671715Y-56096720D01*
X80575464Y-56222158D01*
X80514955Y-56368238D01*
X80514955Y-56368239D01*
X80494318Y-56525000D01*
X80514955Y-56681760D01*
X80514955Y-56681761D01*
X80575464Y-56827841D01*
X80671715Y-56953279D01*
X80671716Y-56953280D01*
X80671718Y-56953282D01*
X80745549Y-57009934D01*
X80772746Y-57052624D01*
X80774500Y-57068641D01*
X80774500Y-57097660D01*
X80774359Y-57100887D01*
X80770735Y-57142292D01*
X80770735Y-57142293D01*
X80781495Y-57182451D01*
X80782193Y-57185601D01*
X80789411Y-57226531D01*
X80791811Y-57230687D01*
X80799203Y-57248534D01*
X80800445Y-57253169D01*
X80800446Y-57253172D01*
X80824288Y-57287223D01*
X80826022Y-57289945D01*
X80831577Y-57299565D01*
X80846806Y-57325942D01*
X80846808Y-57325944D01*
X80846807Y-57325944D01*
X80858952Y-57336134D01*
X80878658Y-57352669D01*
X80881027Y-57354840D01*
X83152826Y-59626639D01*
X83174218Y-59672515D01*
X83174500Y-59678965D01*
X83174500Y-59934173D01*
X83174359Y-59937400D01*
X83170735Y-59978805D01*
X83170735Y-59978806D01*
X83181495Y-60018964D01*
X83182193Y-60022114D01*
X83189411Y-60063044D01*
X83191811Y-60067200D01*
X83199203Y-60085047D01*
X83200445Y-60089682D01*
X83200444Y-60089682D01*
X83224288Y-60123734D01*
X83226018Y-60126451D01*
X83246806Y-60162455D01*
X83265287Y-60177963D01*
X83278650Y-60189177D01*
X83281030Y-60191358D01*
X83508651Y-60418978D01*
X83510823Y-60421348D01*
X83537545Y-60453194D01*
X83551784Y-60461415D01*
X83584321Y-60500189D01*
X83584322Y-60550808D01*
X83551785Y-60589585D01*
X83514784Y-60599500D01*
X83300346Y-60599500D01*
X83269293Y-60591179D01*
X83269131Y-60591627D01*
X83264016Y-60589765D01*
X83263346Y-60589586D01*
X83263344Y-60589585D01*
X83263045Y-60589412D01*
X83258316Y-60588578D01*
X83239899Y-60582770D01*
X83235548Y-60580741D01*
X83235545Y-60580740D01*
X83213189Y-60578784D01*
X83200491Y-60576545D01*
X83178805Y-60570735D01*
X83156448Y-60572691D01*
X83143550Y-60572691D01*
X83121195Y-60570735D01*
X83121194Y-60570735D01*
X83116558Y-60571978D01*
X83097404Y-60574500D01*
X82465478Y-60574500D01*
X82417912Y-60557187D01*
X82413152Y-60552826D01*
X81914575Y-60054249D01*
X81893183Y-60008373D01*
X81893533Y-59992269D01*
X81905682Y-59900000D01*
X81885044Y-59743238D01*
X81824536Y-59597159D01*
X81772475Y-59529312D01*
X81728284Y-59471720D01*
X81728279Y-59471715D01*
X81602841Y-59375464D01*
X81456761Y-59314955D01*
X81300000Y-59294318D01*
X81143239Y-59314955D01*
X81143238Y-59314955D01*
X80997158Y-59375464D01*
X80871720Y-59471715D01*
X80871715Y-59471720D01*
X80775464Y-59597158D01*
X80714955Y-59743238D01*
X80714955Y-59743239D01*
X80694318Y-59900000D01*
X80714955Y-60056760D01*
X80714955Y-60056761D01*
X80775464Y-60202841D01*
X80871715Y-60328279D01*
X80871720Y-60328284D01*
X80950785Y-60388952D01*
X80997159Y-60424536D01*
X81143238Y-60485044D01*
X81300000Y-60505682D01*
X81392264Y-60493534D01*
X81441682Y-60504490D01*
X81454249Y-60514575D01*
X82058647Y-61118973D01*
X82060819Y-61121343D01*
X82087545Y-61153194D01*
X82123546Y-61173979D01*
X82126270Y-61175715D01*
X82160314Y-61199553D01*
X82160316Y-61199554D01*
X82164949Y-61200795D01*
X82182795Y-61208186D01*
X82186955Y-61210588D01*
X82186958Y-61210588D01*
X82186959Y-61210589D01*
X82186958Y-61210589D01*
X82227888Y-61217806D01*
X82231038Y-61218504D01*
X82271193Y-61229264D01*
X82271193Y-61229263D01*
X82271194Y-61229264D01*
X82279040Y-61228577D01*
X82312610Y-61225640D01*
X82315829Y-61225500D01*
X82700500Y-61225500D01*
X82748066Y-61242813D01*
X82773376Y-61286650D01*
X82774500Y-61299500D01*
X82774500Y-65056357D01*
X82757187Y-65103923D01*
X82745549Y-65115065D01*
X82671715Y-65171720D01*
X82671713Y-65171722D01*
X82575464Y-65297158D01*
X82514955Y-65443238D01*
X82514955Y-65443239D01*
X82494318Y-65600000D01*
X82514955Y-65756760D01*
X82514955Y-65756761D01*
X82575464Y-65902841D01*
X82671715Y-66028279D01*
X82671720Y-66028284D01*
X82755345Y-66092451D01*
X82797159Y-66124536D01*
X82907373Y-66170188D01*
X82936210Y-66182133D01*
X82973530Y-66216331D01*
X82980137Y-66266517D01*
X82952939Y-66309208D01*
X82907891Y-66324500D01*
X75693642Y-66324500D01*
X75646076Y-66307187D01*
X75634934Y-66295548D01*
X75578284Y-66221720D01*
X75578279Y-66221715D01*
X75452841Y-66125464D01*
X75306761Y-66064955D01*
X75150000Y-66044318D01*
X74993239Y-66064955D01*
X74993238Y-66064955D01*
X74847158Y-66125464D01*
X74721720Y-66221715D01*
X74721715Y-66221720D01*
X74625464Y-66347158D01*
X74564955Y-66493238D01*
X74564955Y-66493239D01*
X74544318Y-66650000D01*
X74564955Y-66806760D01*
X74564955Y-66806761D01*
X74625464Y-66952841D01*
X74721715Y-67078279D01*
X74721720Y-67078284D01*
X74781738Y-67124337D01*
X74847159Y-67174536D01*
X74993238Y-67235044D01*
X75150000Y-67255682D01*
X75306762Y-67235044D01*
X75452841Y-67174536D01*
X75578282Y-67078282D01*
X75610227Y-67036650D01*
X75634934Y-67004452D01*
X75677625Y-66977254D01*
X75693642Y-66975500D01*
X88321918Y-66975500D01*
X88369484Y-66992813D01*
X88394794Y-67036650D01*
X88386004Y-67086500D01*
X88374244Y-67101826D01*
X87423244Y-68052826D01*
X87377368Y-68074218D01*
X87370918Y-68074500D01*
X66843642Y-68074500D01*
X66796076Y-68057187D01*
X66784934Y-68045548D01*
X66728284Y-67971720D01*
X66728279Y-67971715D01*
X66602841Y-67875464D01*
X66456761Y-67814955D01*
X66300000Y-67794318D01*
X66143239Y-67814955D01*
X66143238Y-67814955D01*
X65997158Y-67875464D01*
X65871720Y-67971715D01*
X65871715Y-67971720D01*
X65775464Y-68097158D01*
X65714955Y-68243238D01*
X65714955Y-68243239D01*
X65694318Y-68400000D01*
X65714955Y-68556760D01*
X65714955Y-68556761D01*
X65775464Y-68702841D01*
X65815833Y-68755452D01*
X65831055Y-68803728D01*
X65811683Y-68850494D01*
X65766784Y-68873867D01*
X65757125Y-68874500D01*
X64965479Y-68874500D01*
X64917913Y-68857187D01*
X64913153Y-68852826D01*
X64247174Y-68186847D01*
X64225782Y-68140971D01*
X64225500Y-68134521D01*
X64225500Y-61700000D01*
X69349818Y-61700000D01*
X69370455Y-61856760D01*
X69370455Y-61856761D01*
X69430964Y-62002841D01*
X69527215Y-62128279D01*
X69527216Y-62128280D01*
X69527218Y-62128282D01*
X69601049Y-62184934D01*
X69628246Y-62227624D01*
X69630000Y-62243641D01*
X69630000Y-64739673D01*
X69629859Y-64742900D01*
X69626235Y-64784305D01*
X69626235Y-64784306D01*
X69636995Y-64824464D01*
X69637693Y-64827614D01*
X69644911Y-64868544D01*
X69647311Y-64872700D01*
X69654703Y-64890547D01*
X69655945Y-64895182D01*
X69655946Y-64895185D01*
X69679788Y-64929236D01*
X69681522Y-64931958D01*
X69690312Y-64947181D01*
X69702306Y-64967955D01*
X69702308Y-64967957D01*
X69702307Y-64967957D01*
X69719438Y-64982330D01*
X69734158Y-64994682D01*
X69736527Y-64996853D01*
X70158647Y-65418973D01*
X70160819Y-65421343D01*
X70187545Y-65453194D01*
X70223546Y-65473979D01*
X70226270Y-65475715D01*
X70260314Y-65499553D01*
X70260316Y-65499554D01*
X70264949Y-65500795D01*
X70282795Y-65508186D01*
X70286955Y-65510588D01*
X70286958Y-65510588D01*
X70286959Y-65510589D01*
X70286958Y-65510589D01*
X70327888Y-65517806D01*
X70331038Y-65518504D01*
X70371193Y-65529264D01*
X70412605Y-65525640D01*
X70415826Y-65525500D01*
X78834521Y-65525500D01*
X78882087Y-65542813D01*
X78886847Y-65547174D01*
X78910420Y-65570747D01*
X78930754Y-65580229D01*
X78930765Y-65580234D01*
X78941932Y-65586681D01*
X78953476Y-65594764D01*
X78960314Y-65599553D01*
X78960316Y-65599554D01*
X78981993Y-65605362D01*
X78994110Y-65609773D01*
X79004456Y-65614596D01*
X79014454Y-65619259D01*
X79036825Y-65621215D01*
X79049509Y-65623452D01*
X79071193Y-65629263D01*
X79093549Y-65627307D01*
X79106441Y-65627307D01*
X79128807Y-65629264D01*
X79150485Y-65623454D01*
X79163182Y-65621214D01*
X79185545Y-65619259D01*
X79205888Y-65609771D01*
X79218005Y-65605362D01*
X79239684Y-65599554D01*
X79258082Y-65586670D01*
X79269223Y-65580238D01*
X79289579Y-65570747D01*
X79370747Y-65489579D01*
X79370746Y-65489579D01*
X80018989Y-64841336D01*
X80021335Y-64839186D01*
X80053194Y-64812455D01*
X80073981Y-64776448D01*
X80075711Y-64773733D01*
X80099553Y-64739684D01*
X80100794Y-64735051D01*
X80108188Y-64717200D01*
X80110588Y-64713045D01*
X80117809Y-64672089D01*
X80118506Y-64668949D01*
X80125634Y-64642348D01*
X80129263Y-64628807D01*
X80128551Y-64620674D01*
X80125641Y-64587407D01*
X80125500Y-64584181D01*
X80125500Y-61813641D01*
X80142813Y-61766075D01*
X80154444Y-61754939D01*
X80228282Y-61698282D01*
X80324536Y-61572841D01*
X80385044Y-61426762D01*
X80405682Y-61270000D01*
X80385044Y-61113238D01*
X80324536Y-60967159D01*
X80228282Y-60841718D01*
X80228279Y-60841715D01*
X80102841Y-60745464D01*
X79956761Y-60684955D01*
X79800000Y-60664318D01*
X79643239Y-60684955D01*
X79643238Y-60684955D01*
X79497158Y-60745464D01*
X79371720Y-60841715D01*
X79371715Y-60841720D01*
X79275464Y-60967158D01*
X79214955Y-61113238D01*
X79214955Y-61113239D01*
X79194318Y-61270000D01*
X79214955Y-61426760D01*
X79214955Y-61426761D01*
X79275464Y-61572841D01*
X79371715Y-61698279D01*
X79371716Y-61698280D01*
X79371718Y-61698282D01*
X79445549Y-61754934D01*
X79472746Y-61797624D01*
X79474500Y-61813641D01*
X79474500Y-64434520D01*
X79457187Y-64482086D01*
X79452826Y-64486846D01*
X79090107Y-64849564D01*
X79044230Y-64870956D01*
X79031332Y-64870956D01*
X79028809Y-64870735D01*
X78998438Y-64873393D01*
X78987394Y-64874359D01*
X78984174Y-64874500D01*
X70565478Y-64874500D01*
X70517912Y-64857187D01*
X70513152Y-64852826D01*
X70302674Y-64642348D01*
X70281282Y-64596472D01*
X70281000Y-64590022D01*
X70281000Y-62243641D01*
X70298313Y-62196075D01*
X70309944Y-62184939D01*
X70383782Y-62128282D01*
X70480036Y-62002841D01*
X70540544Y-61856762D01*
X70561182Y-61700000D01*
X70540544Y-61543238D01*
X70480036Y-61397159D01*
X70395240Y-61286650D01*
X70383784Y-61271720D01*
X70383779Y-61271715D01*
X70258341Y-61175464D01*
X70112261Y-61114955D01*
X69955500Y-61094318D01*
X69798739Y-61114955D01*
X69798738Y-61114955D01*
X69652658Y-61175464D01*
X69527220Y-61271715D01*
X69527215Y-61271720D01*
X69430964Y-61397158D01*
X69370455Y-61543238D01*
X69370455Y-61543239D01*
X69349818Y-61700000D01*
X64225500Y-61700000D01*
X64225500Y-60643641D01*
X64242813Y-60596075D01*
X64254444Y-60584939D01*
X64328282Y-60528282D01*
X64424536Y-60402841D01*
X64485044Y-60256762D01*
X64505682Y-60100000D01*
X64485044Y-59943238D01*
X64424536Y-59797159D01*
X64383161Y-59743238D01*
X64328284Y-59671720D01*
X64328279Y-59671715D01*
X64202841Y-59575464D01*
X64056761Y-59514955D01*
X63900000Y-59494318D01*
X63743239Y-59514955D01*
X63743238Y-59514955D01*
X63597158Y-59575464D01*
X63471720Y-59671715D01*
X63471715Y-59671720D01*
X63375464Y-59797158D01*
X63314955Y-59943238D01*
X63314955Y-59943239D01*
X63294318Y-60100000D01*
X50000500Y-60100000D01*
X50000500Y-53124337D01*
X51499500Y-53124337D01*
X51540428Y-53369610D01*
X51621172Y-53604811D01*
X51694743Y-53740757D01*
X51739526Y-53823509D01*
X51892262Y-54019744D01*
X52075215Y-54188164D01*
X52283393Y-54324173D01*
X52511119Y-54424063D01*
X52752179Y-54485108D01*
X52752182Y-54485108D01*
X52752185Y-54485109D01*
X52937929Y-54500500D01*
X52937933Y-54500500D01*
X53062071Y-54500500D01*
X53247814Y-54485109D01*
X53247816Y-54485108D01*
X53247821Y-54485108D01*
X53488881Y-54424063D01*
X53716607Y-54324173D01*
X53924785Y-54188164D01*
X54107738Y-54019744D01*
X54260474Y-53823509D01*
X54378828Y-53604810D01*
X54459571Y-53369614D01*
X54500500Y-53124335D01*
X54500500Y-53099337D01*
X92374500Y-53099337D01*
X92415428Y-53344610D01*
X92496172Y-53579811D01*
X92569743Y-53715757D01*
X92614526Y-53798509D01*
X92767262Y-53994744D01*
X92950215Y-54163164D01*
X93158393Y-54299173D01*
X93386119Y-54399063D01*
X93627179Y-54460108D01*
X93627182Y-54460108D01*
X93627185Y-54460109D01*
X93812929Y-54475500D01*
X93812933Y-54475500D01*
X93937071Y-54475500D01*
X94122814Y-54460109D01*
X94122816Y-54460108D01*
X94122821Y-54460108D01*
X94363881Y-54399063D01*
X94591607Y-54299173D01*
X94799785Y-54163164D01*
X94982738Y-53994744D01*
X95135474Y-53798509D01*
X95253828Y-53579810D01*
X95334571Y-53344614D01*
X95375500Y-53099335D01*
X95375500Y-52850665D01*
X95334571Y-52605386D01*
X95253828Y-52370190D01*
X95135474Y-52151491D01*
X94982738Y-51955256D01*
X94799785Y-51786836D01*
X94591607Y-51650827D01*
X94363887Y-51550939D01*
X94363883Y-51550938D01*
X94363881Y-51550937D01*
X94160762Y-51499500D01*
X94122814Y-51489890D01*
X93937071Y-51474500D01*
X93937067Y-51474500D01*
X93812933Y-51474500D01*
X93812929Y-51474500D01*
X93627185Y-51489890D01*
X93463531Y-51531333D01*
X93386119Y-51550937D01*
X93386117Y-51550937D01*
X93386112Y-51550939D01*
X93158392Y-51650827D01*
X92950214Y-51786836D01*
X92767263Y-51955254D01*
X92614529Y-52151486D01*
X92614522Y-52151498D01*
X92496172Y-52370188D01*
X92415428Y-52605389D01*
X92374500Y-52850662D01*
X92374500Y-53099337D01*
X54500500Y-53099337D01*
X54500500Y-52875665D01*
X54459571Y-52630386D01*
X54378828Y-52395190D01*
X54260474Y-52176491D01*
X54107738Y-51980256D01*
X53924785Y-51811836D01*
X53716607Y-51675827D01*
X53659613Y-51650827D01*
X53488887Y-51575939D01*
X53488883Y-51575938D01*
X53488881Y-51575937D01*
X53325233Y-51534495D01*
X53247814Y-51514890D01*
X53062071Y-51499500D01*
X53062067Y-51499500D01*
X52937933Y-51499500D01*
X52937929Y-51499500D01*
X52752185Y-51514890D01*
X52609841Y-51550937D01*
X52511119Y-51575937D01*
X52511117Y-51575937D01*
X52511112Y-51575939D01*
X52283392Y-51675827D01*
X52075214Y-51811836D01*
X51892263Y-51980254D01*
X51739529Y-52176486D01*
X51739522Y-52176498D01*
X51621172Y-52395188D01*
X51540428Y-52630389D01*
X51499500Y-52875662D01*
X51499500Y-53124337D01*
X50000500Y-53124337D01*
X50000500Y-50074500D01*
X50017813Y-50026934D01*
X50061650Y-50001624D01*
X50074500Y-50000500D01*
X102425500Y-50000500D01*
X102473066Y-50017813D01*
G37*
%TD.AperFunction*%
%TD*%
M02*
