M48
; DRILL file {KiCad 7.0.9+1} date Mon 11 Dec 2023 02:48:37 PM CET
; FORMAT={-:-/ absolute / metric / decimal}
; #@! TF.CreationDate,2023-12-11T14:48:37+01:00
; #@! TF.GenerationSoftware,Kicad,Pcbnew,7.0.9+1
; #@! TF.FileFunction,Plated,1,2,PTH
FMAT,2
METRIC
; #@! TA.AperFunction,Plated,PTH,ViaDrill
T1C0.400
%
G90
G05
T1
X56.801Y-59.989
X58.1Y-51.8
X59.7Y-51.8
X60.8Y-61.2
X60.8Y-62.1
X63.9Y-60.1
X66.3Y-68.4
X69.8Y-58.85
X69.956Y-61.7
X75.15Y-66.65
X76.2Y-58.7
X79.8Y-61.27
X81.1Y-56.525
X81.3Y-59.9
X83.1Y-65.6
X84.1Y-63.2
X84.957Y-59.475
X85.7Y-62.0
X85.8Y-58.4
X86.4Y-60.2
X88.3Y-59.4
X89.53Y-57.35
X93.95Y-59.3
X94.4Y-57.35
X96.006Y-61.006
X96.85Y-56.975
X97.5Y-61.2
X97.5Y-63.1
X97.575Y-57.942
T0
M30
