%TF.GenerationSoftware,KiCad,Pcbnew,7.0.10+1*%
%TF.CreationDate,2024-03-12T12:47:15+01:00*%
%TF.ProjectId,Receiver-A1,52656365-6976-4657-922d-41312e6b6963,rev?*%
%TF.SameCoordinates,Original*%
%TF.FileFunction,Copper,L2,Inr*%
%TF.FilePolarity,Positive*%
%FSLAX46Y46*%
G04 Gerber Fmt 4.6, Leading zero omitted, Abs format (unit mm)*
G04 Created by KiCad (PCBNEW 7.0.10+1) date 2024-03-12 12:47:15*
%MOMM*%
%LPD*%
G01*
G04 APERTURE LIST*
%TA.AperFunction,ComponentPad*%
%ADD10O,2.100000X1.000000*%
%TD*%
%TA.AperFunction,ComponentPad*%
%ADD11O,1.600000X1.000000*%
%TD*%
%TA.AperFunction,ViaPad*%
%ADD12C,0.600000*%
%TD*%
G04 APERTURE END LIST*
D10*
%TO.N,GND*%
%TO.C,J6*%
X56820000Y-56680000D03*
D11*
X52640000Y-56680000D03*
D10*
X56820000Y-65320000D03*
D11*
X52640000Y-65320000D03*
%TD*%
D12*
%TO.N,Net-(JP10-B)*%
X96916645Y-55697861D03*
X81420000Y-56350000D03*
X66880000Y-55610000D03*
X51260000Y-55100000D03*
X96110000Y-68650000D03*
X79170000Y-67810000D03*
X63900000Y-67670000D03*
%TO.N,/PWM_SEND_1*%
X85260000Y-58900000D03*
X85289547Y-56955000D03*
%TO.N,/PWM_SEND_0*%
X98690000Y-56590000D03*
%TO.N,/PWM_SEND_2*%
X101650000Y-64370000D03*
%TO.N,/PWM_SEND_5*%
X99190000Y-64005000D03*
%TO.N,/PWM_SEND_1*%
X96511778Y-56823169D03*
%TO.N,/PWM_SEND_4*%
X92620000Y-63420000D03*
%TO.N,/PWM_SEND_3*%
X92640000Y-59740000D03*
%TO.N,+5V*%
X69900007Y-67700007D03*
X107530000Y-63350000D03*
X100500000Y-55000000D03*
X84855000Y-67725000D03*
X54710000Y-67660000D03*
X85474280Y-54755000D03*
X55440002Y-63000000D03*
X55410000Y-59310000D03*
X106490000Y-63350000D03*
X60760236Y-54460000D03*
X76095000Y-54690000D03*
%TO.N,/PWM_SEND_1*%
X132400000Y-58100000D03*
X63100000Y-60000000D03*
%TO.N,/PWM_RCV_1*%
X57065000Y-67800000D03*
X128900002Y-63900000D03*
%TO.N,/LED_1*%
X57920000Y-67710000D03*
X139116407Y-67835646D03*
%TO.N,GND*%
X143300000Y-60600000D03*
X111500000Y-62840000D03*
X143300000Y-57800000D03*
X110670000Y-62790000D03*
X59285000Y-54595000D03*
X75450000Y-67820000D03*
X122700000Y-50700000D03*
X89433983Y-54778737D03*
X120328930Y-63375000D03*
X148320000Y-53900000D03*
X70490000Y-54685000D03*
X87033581Y-54755000D03*
X126115000Y-50700000D03*
X58600000Y-64200000D03*
X60376587Y-67733413D03*
X56266575Y-67749785D03*
X148310000Y-67690000D03*
X89400000Y-60800000D03*
X89030000Y-67730000D03*
X55170854Y-54577985D03*
X83000000Y-60800000D03*
X128400000Y-61500000D03*
X73880000Y-67880000D03*
X137900000Y-57900000D03*
X128600000Y-56500000D03*
X101900000Y-54900000D03*
X74495000Y-54645000D03*
X72078372Y-54615361D03*
X125599846Y-67650000D03*
X71480000Y-67830000D03*
X104494996Y-54699723D03*
X90954624Y-54805000D03*
X58700000Y-57800000D03*
X90650000Y-67725000D03*
X81000000Y-60900000D03*
X119169059Y-63325000D03*
X72302298Y-59052298D03*
X115648594Y-58613835D03*
X106240853Y-54666615D03*
X86625000Y-67720000D03*
X56860865Y-54635143D03*
X58680000Y-67860000D03*
X125565320Y-54175000D03*
X138000000Y-60600000D03*
%TO.N,/DOG_1*%
X145800000Y-67500000D03*
X59480000Y-67650000D03*
%TO.N,/PWM_SEND_2*%
X133100000Y-62875000D03*
X73900000Y-63600000D03*
%TO.N,/PWM_RCV_2*%
X72260000Y-67410000D03*
X136800000Y-67100000D03*
%TO.N,/LED_2*%
X140300000Y-67000000D03*
X72966719Y-66739911D03*
%TO.N,/DOG_2*%
X144600000Y-65200000D03*
X74690000Y-65410000D03*
%TO.N,/PWM_SEND_3*%
X76770000Y-60600000D03*
X132410585Y-60058324D03*
%TO.N,/PWM_RCV_3*%
X128900000Y-70800000D03*
X80880000Y-70640000D03*
%TO.N,/LED_3*%
X72848650Y-54492133D03*
X79624586Y-66075000D03*
X79300000Y-55220000D03*
X142000000Y-67800000D03*
%TO.N,/DOG_3*%
X71282003Y-54691522D03*
X143410000Y-56110000D03*
%TO.N,/PWM_SEND_0*%
X59956337Y-56185000D03*
X132100000Y-56100000D03*
%TO.N,/PWM_RCV_0*%
X58310000Y-54460000D03*
X136127298Y-53472702D03*
%TO.N,/LED_0*%
X135100000Y-55900000D03*
X57545000Y-55275000D03*
%TO.N,/DOG_0*%
X55970000Y-54615000D03*
X147800000Y-55100000D03*
%TO.N,+3.3V*%
X147000000Y-57000000D03*
X124600000Y-50800000D03*
X67600000Y-63200000D03*
X128000000Y-50700000D03*
X109600000Y-61730000D03*
X85190000Y-60070000D03*
X114270000Y-58430000D03*
X120070000Y-59710000D03*
X113020000Y-58450000D03*
%TO.N,/DOG_5*%
X90200000Y-52300000D03*
X140700000Y-53400000D03*
%TO.N,/DOG_4*%
X142000000Y-53600000D03*
X95320000Y-54150000D03*
%TO.N,Net-(U2-GPIO19{slash}U1RTS{slash}ADC2_CH8{slash}CLK_OUT2{slash}USB_D-)*%
X134400000Y-57132997D03*
X64574345Y-57315312D03*
%TO.N,Net-(U2-GPIO20{slash}U1CTS{slash}ADC2_CH9{slash}CLK_OUT1{slash}USB_D+)*%
X64600000Y-58500000D03*
X134100000Y-58000000D03*
%TO.N,/PWM_RCV_5*%
X128900000Y-64800000D03*
X88586289Y-65132811D03*
%TO.N,/PWM_SEND_4*%
X85380000Y-63610000D03*
X132200000Y-61300000D03*
%TO.N,/PWM_SEND_5*%
X87100000Y-63625000D03*
X132100000Y-62600000D03*
%TO.N,/PWM_SEND_6*%
X101300000Y-52200000D03*
X137123493Y-53385515D03*
%TO.N,/PWM_RCV_4*%
X132033280Y-54401063D03*
X93285913Y-54720913D03*
%TO.N,/LED_4*%
X133100000Y-67900000D03*
X88250000Y-67725000D03*
%TO.N,/LED_5*%
X133775000Y-60617690D03*
X87700000Y-60275000D03*
%TO.N,/PWM_RCV_6*%
X100632072Y-67100000D03*
X128473892Y-66550000D03*
%TO.N,/LED_6*%
X101600000Y-69600000D03*
X135600000Y-68000000D03*
%TO.N,/DOG_6*%
X134300000Y-54875000D03*
X105273744Y-54944302D03*
%TO.N,Net-(J8-Pin_3)*%
X71351360Y-64977526D03*
X143000000Y-64700000D03*
%TO.N,Net-(J8-Pin_2)*%
X68370000Y-66270000D03*
X144400000Y-67100000D03*
%TO.N,Net-(U2-EN)*%
X91375909Y-62613481D03*
X145800000Y-57100000D03*
X83740853Y-62676244D03*
X85040853Y-62688267D03*
X90275431Y-57295000D03*
%TO.N,Net-(U2-GPIO15{slash}U0RTS{slash}ADC2_CH4{slash}XTAL_32K_P)*%
X128500000Y-59600000D03*
X135780000Y-59540000D03*
%TO.N,Net-(U2-GPIO16{slash}U0CTS{slash}ADC2_CH5{slash}XTAL_32K_N)*%
X128521407Y-58850303D03*
X135700000Y-58600000D03*
%TO.N,Net-(U2-GPIO0{slash}BOOT)*%
X81405000Y-69885308D03*
X131800000Y-70775000D03*
%TD*%
%TA.AperFunction,Conductor*%
%TO.N,GND*%
G36*
X149773566Y-50017813D02*
G01*
X149798876Y-50061650D01*
X149800000Y-50074500D01*
X149800000Y-71925500D01*
X149782687Y-71973066D01*
X149738850Y-71998376D01*
X149726000Y-71999500D01*
X50074500Y-71999500D01*
X50026934Y-71982187D01*
X50001624Y-71938350D01*
X50000500Y-71925500D01*
X50000500Y-70640000D01*
X80424867Y-70640000D01*
X80443302Y-70768223D01*
X80443302Y-70768224D01*
X80443303Y-70768226D01*
X80497118Y-70886063D01*
X80581951Y-70983967D01*
X80690931Y-71054004D01*
X80815228Y-71090500D01*
X80944772Y-71090500D01*
X81069069Y-71054004D01*
X81178049Y-70983967D01*
X81262882Y-70886063D01*
X81302186Y-70800000D01*
X128444867Y-70800000D01*
X128463302Y-70928223D01*
X128463302Y-70928224D01*
X128463303Y-70928226D01*
X128517118Y-71046063D01*
X128601951Y-71143967D01*
X128710931Y-71214004D01*
X128835228Y-71250500D01*
X128964772Y-71250500D01*
X129089069Y-71214004D01*
X129198049Y-71143967D01*
X129282882Y-71046063D01*
X129336697Y-70928226D01*
X129355133Y-70800000D01*
X129351539Y-70775000D01*
X131344867Y-70775000D01*
X131363302Y-70903223D01*
X131363302Y-70903224D01*
X131363303Y-70903226D01*
X131417118Y-71021063D01*
X131501951Y-71118967D01*
X131610931Y-71189004D01*
X131735228Y-71225500D01*
X131864772Y-71225500D01*
X131989069Y-71189004D01*
X132098049Y-71118967D01*
X132182882Y-71021063D01*
X132236697Y-70903226D01*
X132255133Y-70775000D01*
X132236697Y-70646774D01*
X132182882Y-70528937D01*
X132098049Y-70431033D01*
X132027968Y-70385995D01*
X131989068Y-70360995D01*
X131864772Y-70324500D01*
X131735228Y-70324500D01*
X131610931Y-70360995D01*
X131501954Y-70431031D01*
X131501950Y-70431034D01*
X131417119Y-70528935D01*
X131363302Y-70646776D01*
X131344867Y-70775000D01*
X129351539Y-70775000D01*
X129336697Y-70671774D01*
X129282882Y-70553937D01*
X129198049Y-70456033D01*
X129131032Y-70412964D01*
X129089068Y-70385995D01*
X128964772Y-70349500D01*
X128835228Y-70349500D01*
X128710931Y-70385995D01*
X128601954Y-70456031D01*
X128601950Y-70456034D01*
X128517119Y-70553935D01*
X128463302Y-70671776D01*
X128444867Y-70800000D01*
X81302186Y-70800000D01*
X81316697Y-70768226D01*
X81335133Y-70640000D01*
X81316697Y-70511774D01*
X81284168Y-70440548D01*
X81280158Y-70390089D01*
X81309519Y-70348856D01*
X81351482Y-70335808D01*
X81469772Y-70335808D01*
X81594069Y-70299312D01*
X81703049Y-70229275D01*
X81787882Y-70131371D01*
X81841697Y-70013534D01*
X81860133Y-69885308D01*
X81841697Y-69757082D01*
X81787882Y-69639245D01*
X81753877Y-69600000D01*
X101144867Y-69600000D01*
X101163302Y-69728223D01*
X101163302Y-69728224D01*
X101163303Y-69728226D01*
X101217118Y-69846063D01*
X101301951Y-69943967D01*
X101410931Y-70014004D01*
X101535228Y-70050500D01*
X101664772Y-70050500D01*
X101789069Y-70014004D01*
X101898049Y-69943967D01*
X101982882Y-69846063D01*
X102036697Y-69728226D01*
X102055133Y-69600000D01*
X102036697Y-69471774D01*
X101982882Y-69353937D01*
X101898049Y-69256033D01*
X101831032Y-69212964D01*
X101789068Y-69185995D01*
X101664772Y-69149500D01*
X101535228Y-69149500D01*
X101410931Y-69185995D01*
X101301954Y-69256031D01*
X101301950Y-69256034D01*
X101217119Y-69353935D01*
X101163302Y-69471776D01*
X101144867Y-69600000D01*
X81753877Y-69600000D01*
X81703049Y-69541341D01*
X81636032Y-69498272D01*
X81594068Y-69471303D01*
X81469772Y-69434808D01*
X81340228Y-69434808D01*
X81215931Y-69471303D01*
X81106954Y-69541339D01*
X81106950Y-69541342D01*
X81022119Y-69639243D01*
X80968302Y-69757084D01*
X80949867Y-69885308D01*
X80968302Y-70013531D01*
X81000831Y-70084759D01*
X81004842Y-70135219D01*
X80975481Y-70176452D01*
X80933518Y-70189500D01*
X80815228Y-70189500D01*
X80690931Y-70225995D01*
X80581954Y-70296031D01*
X80581950Y-70296034D01*
X80497119Y-70393935D01*
X80443302Y-70511776D01*
X80424867Y-70640000D01*
X50000500Y-70640000D01*
X50000500Y-68650000D01*
X95654867Y-68650000D01*
X95673302Y-68778223D01*
X95673302Y-68778224D01*
X95673303Y-68778226D01*
X95727118Y-68896063D01*
X95811951Y-68993967D01*
X95920931Y-69064004D01*
X96045228Y-69100500D01*
X96174772Y-69100500D01*
X96299069Y-69064004D01*
X96408049Y-68993967D01*
X96492882Y-68896063D01*
X96546697Y-68778226D01*
X96565133Y-68650000D01*
X96546697Y-68521774D01*
X96492882Y-68403937D01*
X96408049Y-68306033D01*
X96320315Y-68249650D01*
X96299068Y-68235995D01*
X96174772Y-68199500D01*
X96045228Y-68199500D01*
X95920931Y-68235995D01*
X95811954Y-68306031D01*
X95811950Y-68306034D01*
X95727119Y-68403935D01*
X95673302Y-68521776D01*
X95654867Y-68650000D01*
X50000500Y-68650000D01*
X50000500Y-67660000D01*
X54254867Y-67660000D01*
X54273302Y-67788223D01*
X54273302Y-67788224D01*
X54273303Y-67788226D01*
X54327118Y-67906063D01*
X54411951Y-68003967D01*
X54520931Y-68074004D01*
X54645228Y-68110500D01*
X54774772Y-68110500D01*
X54899069Y-68074004D01*
X55008049Y-68003967D01*
X55092882Y-67906063D01*
X55141320Y-67800000D01*
X56609867Y-67800000D01*
X56628302Y-67928223D01*
X56628302Y-67928224D01*
X56628303Y-67928226D01*
X56682118Y-68046063D01*
X56766951Y-68143967D01*
X56875931Y-68214004D01*
X57000228Y-68250500D01*
X57129772Y-68250500D01*
X57254069Y-68214004D01*
X57363049Y-68143967D01*
X57447882Y-68046063D01*
X57457763Y-68024425D01*
X57493269Y-67988351D01*
X57543658Y-67983538D01*
X57581000Y-68006706D01*
X57621951Y-68053967D01*
X57730931Y-68124004D01*
X57855228Y-68160500D01*
X57984772Y-68160500D01*
X58109069Y-68124004D01*
X58218049Y-68053967D01*
X58302882Y-67956063D01*
X58356697Y-67838226D01*
X58375133Y-67710000D01*
X58366506Y-67650000D01*
X59024867Y-67650000D01*
X59043302Y-67778223D01*
X59043302Y-67778224D01*
X59043303Y-67778226D01*
X59097118Y-67896063D01*
X59181951Y-67993967D01*
X59290931Y-68064004D01*
X59415228Y-68100500D01*
X59544772Y-68100500D01*
X59669069Y-68064004D01*
X59778049Y-67993967D01*
X59862882Y-67896063D01*
X59916697Y-67778226D01*
X59932257Y-67670000D01*
X63444867Y-67670000D01*
X63463302Y-67798223D01*
X63463302Y-67798224D01*
X63463303Y-67798226D01*
X63517118Y-67916063D01*
X63601951Y-68013967D01*
X63710931Y-68084004D01*
X63835228Y-68120500D01*
X63964772Y-68120500D01*
X64089069Y-68084004D01*
X64198049Y-68013967D01*
X64282882Y-67916063D01*
X64336697Y-67798226D01*
X64350819Y-67700007D01*
X69444874Y-67700007D01*
X69463309Y-67828230D01*
X69463309Y-67828231D01*
X69463310Y-67828233D01*
X69517125Y-67946070D01*
X69601958Y-68043974D01*
X69710938Y-68114011D01*
X69835235Y-68150507D01*
X69964779Y-68150507D01*
X70089076Y-68114011D01*
X70198056Y-68043974D01*
X70282889Y-67946070D01*
X70336704Y-67828233D01*
X70355140Y-67700007D01*
X70336704Y-67571781D01*
X70282889Y-67453944D01*
X70244812Y-67410000D01*
X71804867Y-67410000D01*
X71823302Y-67538223D01*
X71823302Y-67538224D01*
X71823303Y-67538226D01*
X71877118Y-67656063D01*
X71961951Y-67753967D01*
X72070931Y-67824004D01*
X72195228Y-67860500D01*
X72324772Y-67860500D01*
X72449069Y-67824004D01*
X72470860Y-67810000D01*
X78714867Y-67810000D01*
X78733302Y-67938223D01*
X78733302Y-67938224D01*
X78733303Y-67938226D01*
X78787118Y-68056063D01*
X78871951Y-68153967D01*
X78980931Y-68224004D01*
X79105228Y-68260500D01*
X79234772Y-68260500D01*
X79359069Y-68224004D01*
X79468049Y-68153967D01*
X79552882Y-68056063D01*
X79606697Y-67938226D01*
X79625133Y-67810000D01*
X79612912Y-67725000D01*
X84399867Y-67725000D01*
X84418302Y-67853223D01*
X84418302Y-67853224D01*
X84418303Y-67853226D01*
X84472118Y-67971063D01*
X84556951Y-68068967D01*
X84665931Y-68139004D01*
X84790228Y-68175500D01*
X84919772Y-68175500D01*
X85044069Y-68139004D01*
X85153049Y-68068967D01*
X85237882Y-67971063D01*
X85291697Y-67853226D01*
X85310133Y-67725000D01*
X87794867Y-67725000D01*
X87813302Y-67853223D01*
X87813302Y-67853224D01*
X87813303Y-67853226D01*
X87867118Y-67971063D01*
X87951951Y-68068967D01*
X88060931Y-68139004D01*
X88185228Y-68175500D01*
X88314772Y-68175500D01*
X88439069Y-68139004D01*
X88548049Y-68068967D01*
X88632882Y-67971063D01*
X88665336Y-67900000D01*
X132644867Y-67900000D01*
X132663302Y-68028223D01*
X132663302Y-68028224D01*
X132663303Y-68028226D01*
X132717118Y-68146063D01*
X132801951Y-68243967D01*
X132910931Y-68314004D01*
X133035228Y-68350500D01*
X133164772Y-68350500D01*
X133289069Y-68314004D01*
X133398049Y-68243967D01*
X133482882Y-68146063D01*
X133536697Y-68028226D01*
X133540755Y-68000000D01*
X135144867Y-68000000D01*
X135163302Y-68128223D01*
X135163302Y-68128224D01*
X135163303Y-68128226D01*
X135217118Y-68246063D01*
X135301951Y-68343967D01*
X135410931Y-68414004D01*
X135535228Y-68450500D01*
X135664772Y-68450500D01*
X135789069Y-68414004D01*
X135898049Y-68343967D01*
X135982882Y-68246063D01*
X136036697Y-68128226D01*
X136055133Y-68000000D01*
X136036697Y-67871774D01*
X136020198Y-67835646D01*
X138661274Y-67835646D01*
X138679709Y-67963869D01*
X138679709Y-67963870D01*
X138679710Y-67963872D01*
X138733525Y-68081709D01*
X138818358Y-68179613D01*
X138927338Y-68249650D01*
X139051635Y-68286146D01*
X139181179Y-68286146D01*
X139305476Y-68249650D01*
X139414456Y-68179613D01*
X139499289Y-68081709D01*
X139553104Y-67963872D01*
X139571540Y-67835646D01*
X139566415Y-67800000D01*
X141544867Y-67800000D01*
X141563302Y-67928223D01*
X141563302Y-67928224D01*
X141563303Y-67928226D01*
X141617118Y-68046063D01*
X141701951Y-68143967D01*
X141810931Y-68214004D01*
X141935228Y-68250500D01*
X142064772Y-68250500D01*
X142189069Y-68214004D01*
X142298049Y-68143967D01*
X142382882Y-68046063D01*
X142436697Y-67928226D01*
X142455133Y-67800000D01*
X142436697Y-67671774D01*
X142382882Y-67553937D01*
X142298049Y-67456033D01*
X142216983Y-67403935D01*
X142189068Y-67385995D01*
X142064772Y-67349500D01*
X141935228Y-67349500D01*
X141810931Y-67385995D01*
X141701954Y-67456031D01*
X141701950Y-67456034D01*
X141617119Y-67553935D01*
X141563302Y-67671776D01*
X141544867Y-67800000D01*
X139566415Y-67800000D01*
X139553104Y-67707420D01*
X139499289Y-67589583D01*
X139414456Y-67491679D01*
X139340216Y-67443968D01*
X139305475Y-67421641D01*
X139181179Y-67385146D01*
X139051635Y-67385146D01*
X138927338Y-67421641D01*
X138818361Y-67491677D01*
X138818357Y-67491680D01*
X138733526Y-67589581D01*
X138733525Y-67589582D01*
X138733525Y-67589583D01*
X138715877Y-67628226D01*
X138679709Y-67707422D01*
X138661274Y-67835646D01*
X136020198Y-67835646D01*
X135982882Y-67753937D01*
X135898049Y-67656033D01*
X135805840Y-67596774D01*
X135789068Y-67585995D01*
X135664772Y-67549500D01*
X135535228Y-67549500D01*
X135410931Y-67585995D01*
X135301954Y-67656031D01*
X135301950Y-67656034D01*
X135217119Y-67753935D01*
X135217118Y-67753936D01*
X135217118Y-67753937D01*
X135201460Y-67788223D01*
X135163302Y-67871776D01*
X135144867Y-68000000D01*
X133540755Y-68000000D01*
X133555133Y-67900000D01*
X133536697Y-67771774D01*
X133482882Y-67653937D01*
X133398049Y-67556033D01*
X133297909Y-67491677D01*
X133289068Y-67485995D01*
X133164772Y-67449500D01*
X133035228Y-67449500D01*
X132910931Y-67485995D01*
X132801954Y-67556031D01*
X132801950Y-67556034D01*
X132717119Y-67653935D01*
X132663302Y-67771776D01*
X132644867Y-67900000D01*
X88665336Y-67900000D01*
X88686697Y-67853226D01*
X88705133Y-67725000D01*
X88686697Y-67596774D01*
X88632882Y-67478937D01*
X88548049Y-67381033D01*
X88462464Y-67326031D01*
X88439068Y-67310995D01*
X88314772Y-67274500D01*
X88185228Y-67274500D01*
X88060931Y-67310995D01*
X87951954Y-67381031D01*
X87951950Y-67381034D01*
X87867119Y-67478935D01*
X87813302Y-67596776D01*
X87794867Y-67725000D01*
X85310133Y-67725000D01*
X85291697Y-67596774D01*
X85237882Y-67478937D01*
X85153049Y-67381033D01*
X85067464Y-67326031D01*
X85044068Y-67310995D01*
X84919772Y-67274500D01*
X84790228Y-67274500D01*
X84665931Y-67310995D01*
X84556954Y-67381031D01*
X84556950Y-67381034D01*
X84472119Y-67478935D01*
X84418302Y-67596776D01*
X84399867Y-67725000D01*
X79612912Y-67725000D01*
X79606697Y-67681774D01*
X79552882Y-67563937D01*
X79468049Y-67466033D01*
X79380860Y-67410000D01*
X79359068Y-67395995D01*
X79234772Y-67359500D01*
X79105228Y-67359500D01*
X78980931Y-67395995D01*
X78871954Y-67466031D01*
X78871950Y-67466034D01*
X78787119Y-67563935D01*
X78733302Y-67681776D01*
X78714867Y-67810000D01*
X72470860Y-67810000D01*
X72558049Y-67753967D01*
X72642882Y-67656063D01*
X72696697Y-67538226D01*
X72715133Y-67410000D01*
X72696697Y-67281774D01*
X72684003Y-67253980D01*
X72679993Y-67203523D01*
X72709354Y-67162289D01*
X72758351Y-67149576D01*
X72772309Y-67153318D01*
X72772572Y-67152424D01*
X72777649Y-67153914D01*
X72777650Y-67153915D01*
X72901947Y-67190411D01*
X73031491Y-67190411D01*
X73155788Y-67153915D01*
X73239682Y-67100000D01*
X100176939Y-67100000D01*
X100195374Y-67228223D01*
X100195374Y-67228224D01*
X100195375Y-67228226D01*
X100249190Y-67346063D01*
X100334023Y-67443967D01*
X100443003Y-67514004D01*
X100567300Y-67550500D01*
X100696844Y-67550500D01*
X100821141Y-67514004D01*
X100930121Y-67443967D01*
X101014954Y-67346063D01*
X101068769Y-67228226D01*
X101087205Y-67100000D01*
X136344867Y-67100000D01*
X136363302Y-67228223D01*
X136363302Y-67228224D01*
X136363303Y-67228226D01*
X136417118Y-67346063D01*
X136501951Y-67443967D01*
X136610931Y-67514004D01*
X136735228Y-67550500D01*
X136864772Y-67550500D01*
X136989069Y-67514004D01*
X137098049Y-67443967D01*
X137182882Y-67346063D01*
X137236697Y-67228226D01*
X137255133Y-67100000D01*
X137240755Y-67000000D01*
X139844867Y-67000000D01*
X139863302Y-67128223D01*
X139863302Y-67128224D01*
X139863303Y-67128226D01*
X139917118Y-67246063D01*
X140001951Y-67343967D01*
X140110931Y-67414004D01*
X140235228Y-67450500D01*
X140364772Y-67450500D01*
X140489069Y-67414004D01*
X140598049Y-67343967D01*
X140682882Y-67246063D01*
X140736697Y-67128226D01*
X140740755Y-67100000D01*
X143944867Y-67100000D01*
X143963302Y-67228223D01*
X143963302Y-67228224D01*
X143963303Y-67228226D01*
X144017118Y-67346063D01*
X144101951Y-67443967D01*
X144210931Y-67514004D01*
X144335228Y-67550500D01*
X144464772Y-67550500D01*
X144589069Y-67514004D01*
X144610860Y-67500000D01*
X145344867Y-67500000D01*
X145363302Y-67628223D01*
X145363302Y-67628224D01*
X145363303Y-67628226D01*
X145417118Y-67746063D01*
X145501951Y-67843967D01*
X145610931Y-67914004D01*
X145735228Y-67950500D01*
X145864772Y-67950500D01*
X145989069Y-67914004D01*
X146098049Y-67843967D01*
X146182882Y-67746063D01*
X146236697Y-67628226D01*
X146255133Y-67500000D01*
X146236697Y-67371774D01*
X146182882Y-67253937D01*
X146098049Y-67156033D01*
X146010860Y-67100000D01*
X145989068Y-67085995D01*
X145864772Y-67049500D01*
X145735228Y-67049500D01*
X145610931Y-67085995D01*
X145501954Y-67156031D01*
X145501950Y-67156034D01*
X145417119Y-67253935D01*
X145417118Y-67253936D01*
X145417118Y-67253937D01*
X145407727Y-67274500D01*
X145363302Y-67371776D01*
X145344867Y-67500000D01*
X144610860Y-67500000D01*
X144698049Y-67443967D01*
X144782882Y-67346063D01*
X144836697Y-67228226D01*
X144855133Y-67100000D01*
X144836697Y-66971774D01*
X144782882Y-66853937D01*
X144698049Y-66756033D01*
X144631032Y-66712964D01*
X144589068Y-66685995D01*
X144464772Y-66649500D01*
X144335228Y-66649500D01*
X144210931Y-66685995D01*
X144101954Y-66756031D01*
X144101950Y-66756034D01*
X144017119Y-66853935D01*
X144017118Y-66853936D01*
X144017118Y-66853937D01*
X144010633Y-66868137D01*
X143963302Y-66971776D01*
X143944867Y-67100000D01*
X140740755Y-67100000D01*
X140755133Y-67000000D01*
X140736697Y-66871774D01*
X140682882Y-66753937D01*
X140598049Y-66656033D01*
X140529042Y-66611685D01*
X140489068Y-66585995D01*
X140364772Y-66549500D01*
X140235228Y-66549500D01*
X140110931Y-66585995D01*
X140001954Y-66656031D01*
X140001950Y-66656034D01*
X139917119Y-66753935D01*
X139863302Y-66871776D01*
X139844867Y-67000000D01*
X137240755Y-67000000D01*
X137236697Y-66971774D01*
X137182882Y-66853937D01*
X137098049Y-66756033D01*
X137031032Y-66712964D01*
X136989068Y-66685995D01*
X136864772Y-66649500D01*
X136735228Y-66649500D01*
X136610931Y-66685995D01*
X136501954Y-66756031D01*
X136501950Y-66756034D01*
X136417119Y-66853935D01*
X136417118Y-66853936D01*
X136417118Y-66853937D01*
X136410633Y-66868137D01*
X136363302Y-66971776D01*
X136344867Y-67100000D01*
X101087205Y-67100000D01*
X101068769Y-66971774D01*
X101014954Y-66853937D01*
X100930121Y-66756033D01*
X100863104Y-66712964D01*
X100821140Y-66685995D01*
X100696844Y-66649500D01*
X100567300Y-66649500D01*
X100443003Y-66685995D01*
X100334026Y-66756031D01*
X100334022Y-66756034D01*
X100249191Y-66853935D01*
X100249190Y-66853936D01*
X100249190Y-66853937D01*
X100242705Y-66868137D01*
X100195374Y-66971776D01*
X100176939Y-67100000D01*
X73239682Y-67100000D01*
X73264768Y-67083878D01*
X73349601Y-66985974D01*
X73403416Y-66868137D01*
X73421852Y-66739911D01*
X73403416Y-66611685D01*
X73375245Y-66550000D01*
X128018759Y-66550000D01*
X128037194Y-66678223D01*
X128037194Y-66678224D01*
X128037195Y-66678226D01*
X128091010Y-66796063D01*
X128175843Y-66893967D01*
X128284823Y-66964004D01*
X128409120Y-67000500D01*
X128538664Y-67000500D01*
X128662961Y-66964004D01*
X128771941Y-66893967D01*
X128856774Y-66796063D01*
X128910589Y-66678226D01*
X128929025Y-66550000D01*
X128910589Y-66421774D01*
X128856774Y-66303937D01*
X128771941Y-66206033D01*
X128676961Y-66144993D01*
X128662960Y-66135995D01*
X128538664Y-66099500D01*
X128409120Y-66099500D01*
X128284823Y-66135995D01*
X128175846Y-66206031D01*
X128175842Y-66206034D01*
X128091011Y-66303935D01*
X128091010Y-66303936D01*
X128091010Y-66303937D01*
X128083675Y-66319999D01*
X128037194Y-66421776D01*
X128018759Y-66550000D01*
X73375245Y-66550000D01*
X73349601Y-66493848D01*
X73264768Y-66395944D01*
X73197751Y-66352875D01*
X73155787Y-66325906D01*
X73031491Y-66289411D01*
X72901947Y-66289411D01*
X72777650Y-66325906D01*
X72668673Y-66395942D01*
X72668669Y-66395945D01*
X72583838Y-66493846D01*
X72530021Y-66611687D01*
X72511586Y-66739911D01*
X72530021Y-66868136D01*
X72542714Y-66895929D01*
X72546725Y-66946388D01*
X72517363Y-66987621D01*
X72468366Y-67000334D01*
X72454407Y-66996600D01*
X72454147Y-66997487D01*
X72324772Y-66959500D01*
X72195228Y-66959500D01*
X72070931Y-66995995D01*
X71961954Y-67066031D01*
X71961950Y-67066034D01*
X71877119Y-67163935D01*
X71823302Y-67281776D01*
X71804867Y-67410000D01*
X70244812Y-67410000D01*
X70198056Y-67356040D01*
X70120245Y-67306034D01*
X70089075Y-67286002D01*
X69964779Y-67249507D01*
X69835235Y-67249507D01*
X69710938Y-67286002D01*
X69601961Y-67356038D01*
X69601957Y-67356041D01*
X69517126Y-67453942D01*
X69463309Y-67571783D01*
X69444874Y-67700007D01*
X64350819Y-67700007D01*
X64355133Y-67670000D01*
X64336697Y-67541774D01*
X64282882Y-67423937D01*
X64198049Y-67326033D01*
X64117862Y-67274500D01*
X64089068Y-67255995D01*
X63964772Y-67219500D01*
X63835228Y-67219500D01*
X63710931Y-67255995D01*
X63601954Y-67326031D01*
X63601950Y-67326034D01*
X63517119Y-67423935D01*
X63517118Y-67423936D01*
X63517118Y-67423937D01*
X63507970Y-67443968D01*
X63463302Y-67541776D01*
X63444867Y-67670000D01*
X59932257Y-67670000D01*
X59935133Y-67650000D01*
X59916697Y-67521774D01*
X59862882Y-67403937D01*
X59778049Y-67306033D01*
X59690093Y-67249507D01*
X59669068Y-67235995D01*
X59544772Y-67199500D01*
X59415228Y-67199500D01*
X59290931Y-67235995D01*
X59181954Y-67306031D01*
X59181950Y-67306034D01*
X59097119Y-67403935D01*
X59043302Y-67521776D01*
X59024867Y-67650000D01*
X58366506Y-67650000D01*
X58356697Y-67581774D01*
X58302882Y-67463937D01*
X58218049Y-67366033D01*
X58132408Y-67310995D01*
X58109068Y-67295995D01*
X57984772Y-67259500D01*
X57855228Y-67259500D01*
X57730931Y-67295995D01*
X57621954Y-67366031D01*
X57621950Y-67366034D01*
X57537118Y-67463936D01*
X57537117Y-67463938D01*
X57527236Y-67485574D01*
X57491727Y-67521649D01*
X57441338Y-67526460D01*
X57403999Y-67503292D01*
X57363049Y-67456033D01*
X57281983Y-67403935D01*
X57254068Y-67385995D01*
X57129772Y-67349500D01*
X57000228Y-67349500D01*
X56875931Y-67385995D01*
X56766954Y-67456031D01*
X56766950Y-67456034D01*
X56682119Y-67553935D01*
X56628302Y-67671776D01*
X56609867Y-67800000D01*
X55141320Y-67800000D01*
X55146697Y-67788226D01*
X55165133Y-67660000D01*
X55146697Y-67531774D01*
X55092882Y-67413937D01*
X55008049Y-67316033D01*
X54920082Y-67259500D01*
X54899068Y-67245995D01*
X54774772Y-67209500D01*
X54645228Y-67209500D01*
X54520931Y-67245995D01*
X54411954Y-67316031D01*
X54411950Y-67316034D01*
X54327119Y-67413935D01*
X54327118Y-67413936D01*
X54327118Y-67413937D01*
X54304283Y-67463938D01*
X54273302Y-67531776D01*
X54254867Y-67660000D01*
X50000500Y-67660000D01*
X50000500Y-65570000D01*
X51366633Y-65570000D01*
X51366930Y-65571940D01*
X51366931Y-65571945D01*
X51437565Y-65762665D01*
X51545144Y-65935260D01*
X51685268Y-66082671D01*
X51852198Y-66198857D01*
X52039088Y-66279058D01*
X52039098Y-66279061D01*
X52238303Y-66319999D01*
X52238311Y-66320000D01*
X52390000Y-66320000D01*
X52390000Y-65620000D01*
X52890000Y-65620000D01*
X52890000Y-66320000D01*
X52990711Y-66320000D01*
X52990719Y-66319999D01*
X53142333Y-66304582D01*
X53142338Y-66304580D01*
X53336384Y-66243699D01*
X53336385Y-66243698D01*
X53514217Y-66144993D01*
X53514222Y-66144989D01*
X53668528Y-66012522D01*
X53668531Y-66012520D01*
X53793017Y-65851696D01*
X53793019Y-65851694D01*
X53882586Y-65669097D01*
X53882588Y-65669092D01*
X53908246Y-65570000D01*
X55296633Y-65570000D01*
X55296930Y-65571940D01*
X55296931Y-65571945D01*
X55367565Y-65762665D01*
X55475144Y-65935260D01*
X55615268Y-66082671D01*
X55782198Y-66198857D01*
X55969088Y-66279058D01*
X55969098Y-66279061D01*
X56168303Y-66319999D01*
X56168311Y-66320000D01*
X56570000Y-66320000D01*
X56570000Y-65620000D01*
X57070000Y-65620000D01*
X57070000Y-66320000D01*
X57420711Y-66320000D01*
X57420719Y-66319999D01*
X57572333Y-66304582D01*
X57572338Y-66304580D01*
X57682555Y-66270000D01*
X67914867Y-66270000D01*
X67933302Y-66398223D01*
X67933302Y-66398224D01*
X67933303Y-66398226D01*
X67987118Y-66516063D01*
X68071951Y-66613967D01*
X68180931Y-66684004D01*
X68305228Y-66720500D01*
X68434772Y-66720500D01*
X68559069Y-66684004D01*
X68668049Y-66613967D01*
X68752882Y-66516063D01*
X68806697Y-66398226D01*
X68825133Y-66270000D01*
X68806697Y-66141774D01*
X68776202Y-66075000D01*
X79169453Y-66075000D01*
X79187888Y-66203223D01*
X79187888Y-66203224D01*
X79187889Y-66203226D01*
X79241704Y-66321063D01*
X79326537Y-66418967D01*
X79435517Y-66489004D01*
X79559814Y-66525500D01*
X79689358Y-66525500D01*
X79813655Y-66489004D01*
X79922635Y-66418967D01*
X80007468Y-66321063D01*
X80061283Y-66203226D01*
X80079719Y-66075000D01*
X80061283Y-65946774D01*
X80007468Y-65828937D01*
X79922635Y-65731033D01*
X79855618Y-65687964D01*
X79813654Y-65660995D01*
X79689358Y-65624500D01*
X79559814Y-65624500D01*
X79435517Y-65660995D01*
X79326540Y-65731031D01*
X79326536Y-65731034D01*
X79241705Y-65828935D01*
X79241704Y-65828936D01*
X79241704Y-65828937D01*
X79214796Y-65887855D01*
X79187888Y-65946776D01*
X79169453Y-66075000D01*
X68776202Y-66075000D01*
X68752882Y-66023937D01*
X68668049Y-65926033D01*
X68601032Y-65882964D01*
X68559068Y-65855995D01*
X68434772Y-65819500D01*
X68305228Y-65819500D01*
X68180931Y-65855995D01*
X68071954Y-65926031D01*
X68071950Y-65926034D01*
X67987119Y-66023935D01*
X67933302Y-66141776D01*
X67914867Y-66270000D01*
X57682555Y-66270000D01*
X57766384Y-66243699D01*
X57766385Y-66243698D01*
X57944217Y-66144993D01*
X57944222Y-66144989D01*
X58098528Y-66012522D01*
X58098531Y-66012520D01*
X58223017Y-65851696D01*
X58223019Y-65851694D01*
X58312586Y-65669097D01*
X58312588Y-65669092D01*
X58338246Y-65570000D01*
X57536111Y-65570000D01*
X57575610Y-65545543D01*
X57643201Y-65456038D01*
X57673895Y-65348160D01*
X57663546Y-65236479D01*
X57613552Y-65136078D01*
X57541069Y-65070000D01*
X58343367Y-65070000D01*
X58343069Y-65068059D01*
X58343068Y-65068054D01*
X58309541Y-64977526D01*
X70896227Y-64977526D01*
X70914662Y-65105749D01*
X70914662Y-65105750D01*
X70914663Y-65105752D01*
X70968478Y-65223589D01*
X71053311Y-65321493D01*
X71162291Y-65391530D01*
X71286588Y-65428026D01*
X71416132Y-65428026D01*
X71477524Y-65410000D01*
X74234867Y-65410000D01*
X74253302Y-65538223D01*
X74253302Y-65538224D01*
X74253303Y-65538226D01*
X74307118Y-65656063D01*
X74391951Y-65753967D01*
X74500931Y-65824004D01*
X74625228Y-65860500D01*
X74754772Y-65860500D01*
X74879069Y-65824004D01*
X74988049Y-65753967D01*
X75072882Y-65656063D01*
X75126697Y-65538226D01*
X75145133Y-65410000D01*
X75126697Y-65281774D01*
X75072882Y-65163937D01*
X75045912Y-65132811D01*
X88131156Y-65132811D01*
X88149591Y-65261034D01*
X88149591Y-65261035D01*
X88149592Y-65261037D01*
X88203407Y-65378874D01*
X88288240Y-65476778D01*
X88397220Y-65546815D01*
X88521517Y-65583311D01*
X88651061Y-65583311D01*
X88775358Y-65546815D01*
X88884338Y-65476778D01*
X88969171Y-65378874D01*
X89022986Y-65261037D01*
X89041422Y-65132811D01*
X89022986Y-65004585D01*
X88969171Y-64886748D01*
X88884338Y-64788844D01*
X88795048Y-64731461D01*
X88775357Y-64718806D01*
X88651061Y-64682311D01*
X88521517Y-64682311D01*
X88397220Y-64718806D01*
X88288243Y-64788842D01*
X88288239Y-64788845D01*
X88203408Y-64886746D01*
X88149591Y-65004587D01*
X88131156Y-65132811D01*
X75045912Y-65132811D01*
X74988049Y-65066033D01*
X74892434Y-65004585D01*
X74879068Y-64995995D01*
X74754772Y-64959500D01*
X74625228Y-64959500D01*
X74500931Y-64995995D01*
X74391954Y-65066031D01*
X74391950Y-65066034D01*
X74307119Y-65163935D01*
X74253302Y-65281776D01*
X74234867Y-65410000D01*
X71477524Y-65410000D01*
X71540429Y-65391530D01*
X71649409Y-65321493D01*
X71734242Y-65223589D01*
X71788057Y-65105752D01*
X71806493Y-64977526D01*
X71788057Y-64849300D01*
X71734242Y-64731463D01*
X71649409Y-64633559D01*
X71553273Y-64571776D01*
X71540428Y-64563521D01*
X71416132Y-64527026D01*
X71286588Y-64527026D01*
X71162291Y-64563521D01*
X71053314Y-64633557D01*
X71053310Y-64633560D01*
X70968479Y-64731461D01*
X70914662Y-64849302D01*
X70896227Y-64977526D01*
X58309541Y-64977526D01*
X58272434Y-64877334D01*
X58164855Y-64704739D01*
X58024731Y-64557328D01*
X57857801Y-64441142D01*
X57670911Y-64360941D01*
X57670901Y-64360938D01*
X57471696Y-64320000D01*
X57070000Y-64320000D01*
X57070000Y-65020000D01*
X56570000Y-65020000D01*
X56570000Y-64399246D01*
X56587313Y-64351680D01*
X56597299Y-64341844D01*
X56614282Y-64328027D01*
X56707665Y-64252054D01*
X56790971Y-64134037D01*
X56839346Y-63997921D01*
X56841327Y-63968968D01*
X56849204Y-63853802D01*
X56849204Y-63853801D01*
X56832159Y-63771776D01*
X56819814Y-63712366D01*
X56819810Y-63712360D01*
X56819810Y-63712357D01*
X56753356Y-63584107D01*
X56753353Y-63584103D01*
X56654754Y-63478530D01*
X56531328Y-63403474D01*
X56392229Y-63364500D01*
X56392228Y-63364500D01*
X56284051Y-63364500D01*
X56284046Y-63364500D01*
X56176892Y-63379228D01*
X56176890Y-63379228D01*
X56176889Y-63379229D01*
X56109998Y-63408284D01*
X56044389Y-63436782D01*
X56044388Y-63436782D01*
X55932334Y-63527946D01*
X55932333Y-63527947D01*
X55849032Y-63645958D01*
X55849027Y-63645966D01*
X55800655Y-63782075D01*
X55800652Y-63782087D01*
X55790795Y-63926197D01*
X55811996Y-64028223D01*
X55820186Y-64067634D01*
X55820187Y-64067636D01*
X55820189Y-64067642D01*
X55886643Y-64195892D01*
X55886646Y-64195896D01*
X55929494Y-64241774D01*
X55936709Y-64249500D01*
X55948199Y-64261802D01*
X55968013Y-64308382D01*
X55953250Y-64356800D01*
X55916271Y-64382917D01*
X55873614Y-64396301D01*
X55695782Y-64495006D01*
X55695777Y-64495010D01*
X55541471Y-64627477D01*
X55541468Y-64627479D01*
X55416982Y-64788303D01*
X55416980Y-64788305D01*
X55327413Y-64970902D01*
X55327411Y-64970907D01*
X55301754Y-65070000D01*
X56103889Y-65070000D01*
X56064390Y-65094457D01*
X55996799Y-65183962D01*
X55966105Y-65291840D01*
X55976454Y-65403521D01*
X56026448Y-65503922D01*
X56098931Y-65570000D01*
X55296633Y-65570000D01*
X53908246Y-65570000D01*
X53106111Y-65570000D01*
X53145610Y-65545543D01*
X53213201Y-65456038D01*
X53243895Y-65348160D01*
X53233546Y-65236479D01*
X53183552Y-65136078D01*
X53111069Y-65070000D01*
X53913367Y-65070000D01*
X53913069Y-65068059D01*
X53913068Y-65068054D01*
X53842434Y-64877334D01*
X53734855Y-64704739D01*
X53594731Y-64557328D01*
X53427801Y-64441142D01*
X53240911Y-64360941D01*
X53240901Y-64360938D01*
X53041696Y-64320000D01*
X52890000Y-64320000D01*
X52890000Y-65020000D01*
X52390000Y-65020000D01*
X52390000Y-64320000D01*
X52289280Y-64320000D01*
X52137666Y-64335417D01*
X52137661Y-64335419D01*
X51943615Y-64396300D01*
X51943614Y-64396301D01*
X51765782Y-64495006D01*
X51765777Y-64495010D01*
X51611471Y-64627477D01*
X51611468Y-64627479D01*
X51486982Y-64788303D01*
X51486980Y-64788305D01*
X51397413Y-64970902D01*
X51397411Y-64970907D01*
X51371754Y-65070000D01*
X52173889Y-65070000D01*
X52134390Y-65094457D01*
X52066799Y-65183962D01*
X52036105Y-65291840D01*
X52046454Y-65403521D01*
X52096448Y-65503922D01*
X52168931Y-65570000D01*
X51366633Y-65570000D01*
X50000500Y-65570000D01*
X50000500Y-63000000D01*
X54984869Y-63000000D01*
X55003304Y-63128223D01*
X55003304Y-63128224D01*
X55003305Y-63128226D01*
X55057120Y-63246063D01*
X55141953Y-63343967D01*
X55250933Y-63414004D01*
X55375230Y-63450500D01*
X55504774Y-63450500D01*
X55629071Y-63414004D01*
X55738051Y-63343967D01*
X55822884Y-63246063D01*
X55843921Y-63200000D01*
X67144867Y-63200000D01*
X67163302Y-63328223D01*
X67163302Y-63328224D01*
X67163303Y-63328226D01*
X67217118Y-63446063D01*
X67301951Y-63543967D01*
X67410931Y-63614004D01*
X67535228Y-63650500D01*
X67664772Y-63650500D01*
X67789069Y-63614004D01*
X67810860Y-63600000D01*
X73444867Y-63600000D01*
X73463302Y-63728223D01*
X73463302Y-63728224D01*
X73463303Y-63728226D01*
X73517118Y-63846063D01*
X73601951Y-63943967D01*
X73710931Y-64014004D01*
X73835228Y-64050500D01*
X73964772Y-64050500D01*
X74089069Y-64014004D01*
X74198049Y-63943967D01*
X74282882Y-63846063D01*
X74336697Y-63728226D01*
X74355133Y-63600000D01*
X74336697Y-63471774D01*
X74282882Y-63353937D01*
X74198049Y-63256033D01*
X74110731Y-63199917D01*
X74089068Y-63185995D01*
X73964772Y-63149500D01*
X73835228Y-63149500D01*
X73710931Y-63185995D01*
X73601954Y-63256031D01*
X73601950Y-63256034D01*
X73517119Y-63353935D01*
X73463302Y-63471776D01*
X73444867Y-63600000D01*
X67810860Y-63600000D01*
X67898049Y-63543967D01*
X67982882Y-63446063D01*
X68036697Y-63328226D01*
X68055133Y-63200000D01*
X68036697Y-63071774D01*
X67982882Y-62953937D01*
X67898049Y-62856033D01*
X67817811Y-62804467D01*
X67789068Y-62785995D01*
X67664772Y-62749500D01*
X67535228Y-62749500D01*
X67410931Y-62785995D01*
X67301954Y-62856031D01*
X67301950Y-62856034D01*
X67217119Y-62953935D01*
X67217118Y-62953936D01*
X67217118Y-62953937D01*
X67215515Y-62957448D01*
X67163302Y-63071776D01*
X67144867Y-63200000D01*
X55843921Y-63200000D01*
X55876699Y-63128226D01*
X55895135Y-63000000D01*
X55876699Y-62871774D01*
X55822884Y-62753937D01*
X55755564Y-62676244D01*
X83285720Y-62676244D01*
X83304155Y-62804467D01*
X83304155Y-62804468D01*
X83304156Y-62804470D01*
X83357971Y-62922307D01*
X83442804Y-63020211D01*
X83551784Y-63090248D01*
X83676081Y-63126744D01*
X83805625Y-63126744D01*
X83929922Y-63090248D01*
X84038902Y-63020211D01*
X84123735Y-62922307D01*
X84177550Y-62804470D01*
X84194257Y-62688267D01*
X84585720Y-62688267D01*
X84604155Y-62816490D01*
X84604155Y-62816491D01*
X84604156Y-62816493D01*
X84657971Y-62934330D01*
X84742804Y-63032234D01*
X84833076Y-63090248D01*
X84851784Y-63102271D01*
X84976081Y-63138767D01*
X85030422Y-63138767D01*
X85077988Y-63156080D01*
X85103298Y-63199917D01*
X85094508Y-63249767D01*
X85084813Y-63261510D01*
X85085417Y-63262034D01*
X85081952Y-63266031D01*
X85081951Y-63266033D01*
X85036756Y-63318190D01*
X84997119Y-63363935D01*
X84943302Y-63481776D01*
X84924867Y-63610000D01*
X84943302Y-63738223D01*
X84943302Y-63738224D01*
X84943303Y-63738226D01*
X84997118Y-63856063D01*
X85081951Y-63953967D01*
X85190931Y-64024004D01*
X85315228Y-64060500D01*
X85444772Y-64060500D01*
X85569069Y-64024004D01*
X85678049Y-63953967D01*
X85762882Y-63856063D01*
X85816697Y-63738226D01*
X85832976Y-63625000D01*
X86644867Y-63625000D01*
X86663302Y-63753223D01*
X86663302Y-63753224D01*
X86663303Y-63753226D01*
X86717118Y-63871063D01*
X86801951Y-63968967D01*
X86910931Y-64039004D01*
X87035228Y-64075500D01*
X87164772Y-64075500D01*
X87289069Y-64039004D01*
X87341980Y-64005000D01*
X98734867Y-64005000D01*
X98753302Y-64133223D01*
X98753302Y-64133224D01*
X98753303Y-64133226D01*
X98807118Y-64251063D01*
X98891951Y-64348967D01*
X99000931Y-64419004D01*
X99125228Y-64455500D01*
X99254772Y-64455500D01*
X99379069Y-64419004D01*
X99455321Y-64370000D01*
X101194867Y-64370000D01*
X101213302Y-64498223D01*
X101213302Y-64498224D01*
X101213303Y-64498226D01*
X101267118Y-64616063D01*
X101351951Y-64713967D01*
X101460931Y-64784004D01*
X101585228Y-64820500D01*
X101714772Y-64820500D01*
X101784590Y-64800000D01*
X128444867Y-64800000D01*
X128463302Y-64928223D01*
X128463302Y-64928224D01*
X128463303Y-64928226D01*
X128517118Y-65046063D01*
X128601951Y-65143967D01*
X128710931Y-65214004D01*
X128835228Y-65250500D01*
X128964772Y-65250500D01*
X129089069Y-65214004D01*
X129110860Y-65200000D01*
X144144867Y-65200000D01*
X144163302Y-65328223D01*
X144163302Y-65328224D01*
X144163303Y-65328226D01*
X144217118Y-65446063D01*
X144301951Y-65543967D01*
X144410931Y-65614004D01*
X144535228Y-65650500D01*
X144664772Y-65650500D01*
X144789069Y-65614004D01*
X144898049Y-65543967D01*
X144982882Y-65446063D01*
X145036697Y-65328226D01*
X145055133Y-65200000D01*
X145036697Y-65071774D01*
X144982882Y-64953937D01*
X144898049Y-64856033D01*
X144810860Y-64800000D01*
X144789068Y-64785995D01*
X144664772Y-64749500D01*
X144535228Y-64749500D01*
X144410931Y-64785995D01*
X144301954Y-64856031D01*
X144301950Y-64856034D01*
X144217119Y-64953935D01*
X144217118Y-64953936D01*
X144217118Y-64953937D01*
X144209370Y-64970902D01*
X144163302Y-65071776D01*
X144144867Y-65200000D01*
X129110860Y-65200000D01*
X129198049Y-65143967D01*
X129282882Y-65046063D01*
X129336697Y-64928226D01*
X129355133Y-64800000D01*
X129340755Y-64700000D01*
X142544867Y-64700000D01*
X142563302Y-64828223D01*
X142563302Y-64828224D01*
X142563303Y-64828226D01*
X142617118Y-64946063D01*
X142701951Y-65043967D01*
X142810931Y-65114004D01*
X142935228Y-65150500D01*
X143064772Y-65150500D01*
X143189069Y-65114004D01*
X143298049Y-65043967D01*
X143382882Y-64946063D01*
X143436697Y-64828226D01*
X143455133Y-64700000D01*
X143436697Y-64571774D01*
X143382882Y-64453937D01*
X143298049Y-64356033D01*
X143191794Y-64287747D01*
X143189068Y-64285995D01*
X143064772Y-64249500D01*
X142935228Y-64249500D01*
X142810931Y-64285995D01*
X142701954Y-64356031D01*
X142701950Y-64356034D01*
X142617119Y-64453935D01*
X142563302Y-64571776D01*
X142544867Y-64700000D01*
X129340755Y-64700000D01*
X129336697Y-64671774D01*
X129282882Y-64553937D01*
X129198049Y-64456033D01*
X129129924Y-64412251D01*
X129099270Y-64371972D01*
X129101679Y-64321410D01*
X129129923Y-64287749D01*
X129198051Y-64243967D01*
X129282884Y-64146063D01*
X129336699Y-64028226D01*
X129355135Y-63900000D01*
X129336699Y-63771774D01*
X129282884Y-63653937D01*
X129198051Y-63556033D01*
X129105842Y-63496774D01*
X129089070Y-63485995D01*
X128964774Y-63449500D01*
X128835230Y-63449500D01*
X128710933Y-63485995D01*
X128601956Y-63556031D01*
X128601952Y-63556034D01*
X128517121Y-63653935D01*
X128463304Y-63771776D01*
X128444869Y-63900000D01*
X128463304Y-64028223D01*
X128463304Y-64028224D01*
X128463305Y-64028226D01*
X128517120Y-64146063D01*
X128601953Y-64243967D01*
X128667350Y-64285995D01*
X128670075Y-64287746D01*
X128700731Y-64328027D01*
X128698322Y-64378588D01*
X128670076Y-64412251D01*
X128625122Y-64441142D01*
X128601951Y-64456033D01*
X128601950Y-64456034D01*
X128517119Y-64553935D01*
X128463302Y-64671776D01*
X128444867Y-64800000D01*
X101784590Y-64800000D01*
X101839069Y-64784004D01*
X101948049Y-64713967D01*
X102032882Y-64616063D01*
X102086697Y-64498226D01*
X102105133Y-64370000D01*
X102086697Y-64241774D01*
X102032882Y-64123937D01*
X101948049Y-64026033D01*
X101859254Y-63968968D01*
X101839068Y-63955995D01*
X101714772Y-63919500D01*
X101585228Y-63919500D01*
X101460931Y-63955995D01*
X101351954Y-64026031D01*
X101351950Y-64026034D01*
X101267119Y-64123935D01*
X101267118Y-64123936D01*
X101267118Y-64123937D01*
X101262504Y-64134041D01*
X101213302Y-64241776D01*
X101194867Y-64370000D01*
X99455321Y-64370000D01*
X99488049Y-64348967D01*
X99572882Y-64251063D01*
X99626697Y-64133226D01*
X99645133Y-64005000D01*
X99626697Y-63876774D01*
X99572882Y-63758937D01*
X99488049Y-63661033D01*
X99386955Y-63596064D01*
X99379068Y-63590995D01*
X99254772Y-63554500D01*
X99125228Y-63554500D01*
X99000931Y-63590995D01*
X98891954Y-63661031D01*
X98891950Y-63661034D01*
X98807119Y-63758935D01*
X98807118Y-63758936D01*
X98807118Y-63758937D01*
X98801255Y-63771776D01*
X98753302Y-63876776D01*
X98734867Y-64005000D01*
X87341980Y-64005000D01*
X87398049Y-63968967D01*
X87482882Y-63871063D01*
X87536697Y-63753226D01*
X87555133Y-63625000D01*
X87536697Y-63496774D01*
X87501635Y-63420000D01*
X92164867Y-63420000D01*
X92183302Y-63548223D01*
X92183302Y-63548224D01*
X92183303Y-63548226D01*
X92237118Y-63666063D01*
X92321951Y-63763967D01*
X92430931Y-63834004D01*
X92555228Y-63870500D01*
X92684772Y-63870500D01*
X92809069Y-63834004D01*
X92918049Y-63763967D01*
X93002882Y-63666063D01*
X93056697Y-63548226D01*
X93075133Y-63420000D01*
X93065069Y-63350000D01*
X106034867Y-63350000D01*
X106053302Y-63478223D01*
X106053302Y-63478224D01*
X106053303Y-63478226D01*
X106107118Y-63596063D01*
X106191951Y-63693967D01*
X106300931Y-63764004D01*
X106425228Y-63800500D01*
X106554772Y-63800500D01*
X106679069Y-63764004D01*
X106788049Y-63693967D01*
X106872882Y-63596063D01*
X106926697Y-63478226D01*
X106936753Y-63408283D01*
X106960659Y-63363666D01*
X106993949Y-63350338D01*
X107024357Y-63350338D01*
X107055743Y-63360647D01*
X107082431Y-63403659D01*
X107083247Y-63408284D01*
X107093302Y-63478223D01*
X107093302Y-63478224D01*
X107093303Y-63478226D01*
X107147118Y-63596063D01*
X107231951Y-63693967D01*
X107340931Y-63764004D01*
X107465228Y-63800500D01*
X107594772Y-63800500D01*
X107719069Y-63764004D01*
X107828049Y-63693967D01*
X107912882Y-63596063D01*
X107966697Y-63478226D01*
X107985133Y-63350000D01*
X107966697Y-63221774D01*
X107912882Y-63103937D01*
X107828049Y-63006033D01*
X107731474Y-62943968D01*
X107719068Y-62935995D01*
X107594772Y-62899500D01*
X107465228Y-62899500D01*
X107340931Y-62935995D01*
X107231954Y-63006031D01*
X107231950Y-63006034D01*
X107147119Y-63103935D01*
X107147118Y-63103936D01*
X107147118Y-63103937D01*
X107129650Y-63142187D01*
X107093302Y-63221776D01*
X107083247Y-63291715D01*
X107059341Y-63336333D01*
X107024357Y-63350338D01*
X106993949Y-63350338D01*
X106995642Y-63349660D01*
X106964256Y-63339352D01*
X106937569Y-63296340D01*
X106936753Y-63291715D01*
X106926697Y-63221776D01*
X106926697Y-63221774D01*
X106872882Y-63103937D01*
X106788049Y-63006033D01*
X106691474Y-62943968D01*
X106679068Y-62935995D01*
X106554772Y-62899500D01*
X106425228Y-62899500D01*
X106300931Y-62935995D01*
X106191954Y-63006031D01*
X106191950Y-63006034D01*
X106107119Y-63103935D01*
X106107118Y-63103936D01*
X106107118Y-63103937D01*
X106089650Y-63142187D01*
X106053302Y-63221776D01*
X106034867Y-63350000D01*
X93065069Y-63350000D01*
X93056697Y-63291774D01*
X93002882Y-63173937D01*
X92918049Y-63076033D01*
X92821530Y-63014004D01*
X92809068Y-63005995D01*
X92684772Y-62969500D01*
X92555228Y-62969500D01*
X92430931Y-63005995D01*
X92321954Y-63076031D01*
X92321950Y-63076034D01*
X92237119Y-63173935D01*
X92183302Y-63291776D01*
X92164867Y-63420000D01*
X87501635Y-63420000D01*
X87482882Y-63378937D01*
X87398049Y-63281033D01*
X87301474Y-63218968D01*
X87289068Y-63210995D01*
X87164772Y-63174500D01*
X87035228Y-63174500D01*
X86910931Y-63210995D01*
X86801954Y-63281031D01*
X86801950Y-63281034D01*
X86717119Y-63378935D01*
X86663302Y-63496776D01*
X86644867Y-63625000D01*
X85832976Y-63625000D01*
X85835133Y-63610000D01*
X85816697Y-63481774D01*
X85762882Y-63363937D01*
X85678049Y-63266033D01*
X85592408Y-63210995D01*
X85569068Y-63195995D01*
X85444772Y-63159500D01*
X85390431Y-63159500D01*
X85342865Y-63142187D01*
X85317555Y-63098350D01*
X85326345Y-63048500D01*
X85336039Y-63036756D01*
X85335436Y-63036233D01*
X85338899Y-63032235D01*
X85338902Y-63032234D01*
X85423735Y-62934330D01*
X85477550Y-62816493D01*
X85495986Y-62688267D01*
X85485233Y-62613481D01*
X90920776Y-62613481D01*
X90939211Y-62741704D01*
X90939211Y-62741705D01*
X90939212Y-62741707D01*
X90993027Y-62859544D01*
X91077860Y-62957448D01*
X91186840Y-63027485D01*
X91311137Y-63063981D01*
X91440681Y-63063981D01*
X91564978Y-63027485D01*
X91673958Y-62957448D01*
X91758791Y-62859544D01*
X91812606Y-62741707D01*
X91831042Y-62613481D01*
X91829104Y-62600000D01*
X131644867Y-62600000D01*
X131663302Y-62728223D01*
X131663302Y-62728224D01*
X131663303Y-62728226D01*
X131717118Y-62846063D01*
X131801951Y-62943967D01*
X131910931Y-63014004D01*
X132035228Y-63050500D01*
X132164772Y-63050500D01*
X132289069Y-63014004D01*
X132398049Y-62943967D01*
X132482882Y-62846063D01*
X132511564Y-62783257D01*
X132547071Y-62747183D01*
X132597461Y-62742372D01*
X132639155Y-62771076D01*
X132652643Y-62819864D01*
X132652123Y-62824531D01*
X132644867Y-62874999D01*
X132663302Y-63003223D01*
X132663302Y-63003224D01*
X132663303Y-63003226D01*
X132717118Y-63121063D01*
X132801951Y-63218967D01*
X132910931Y-63289004D01*
X133035228Y-63325500D01*
X133164772Y-63325500D01*
X133289069Y-63289004D01*
X133398049Y-63218967D01*
X133482882Y-63121063D01*
X133536697Y-63003226D01*
X133555133Y-62875000D01*
X133536697Y-62746774D01*
X133482882Y-62628937D01*
X133398049Y-62531033D01*
X133305840Y-62471774D01*
X133289068Y-62460995D01*
X133164772Y-62424500D01*
X133035228Y-62424500D01*
X132910931Y-62460995D01*
X132801954Y-62531031D01*
X132801950Y-62531034D01*
X132717118Y-62628936D01*
X132717117Y-62628938D01*
X132688435Y-62691741D01*
X132652927Y-62727816D01*
X132602537Y-62732627D01*
X132560844Y-62703922D01*
X132547356Y-62655133D01*
X132547872Y-62650497D01*
X132555133Y-62600000D01*
X132536697Y-62471774D01*
X132482882Y-62353937D01*
X132398049Y-62256033D01*
X132310046Y-62199477D01*
X132289068Y-62185995D01*
X132164772Y-62149500D01*
X132035228Y-62149500D01*
X131910931Y-62185995D01*
X131801954Y-62256031D01*
X131801950Y-62256034D01*
X131717119Y-62353935D01*
X131663302Y-62471776D01*
X131644867Y-62600000D01*
X91829104Y-62600000D01*
X91812606Y-62485255D01*
X91758791Y-62367418D01*
X91673958Y-62269514D01*
X91605850Y-62225744D01*
X91564977Y-62199476D01*
X91440681Y-62162981D01*
X91311137Y-62162981D01*
X91186840Y-62199476D01*
X91077863Y-62269512D01*
X91077859Y-62269515D01*
X90993028Y-62367416D01*
X90939211Y-62485257D01*
X90920776Y-62613481D01*
X85485233Y-62613481D01*
X85477550Y-62560041D01*
X85423735Y-62442204D01*
X85338902Y-62344300D01*
X85271885Y-62301231D01*
X85229921Y-62274262D01*
X85105625Y-62237767D01*
X84976081Y-62237767D01*
X84851784Y-62274262D01*
X84742807Y-62344298D01*
X84742803Y-62344301D01*
X84657972Y-62442202D01*
X84604155Y-62560043D01*
X84585720Y-62688267D01*
X84194257Y-62688267D01*
X84195986Y-62676244D01*
X84177550Y-62548018D01*
X84123735Y-62430181D01*
X84038902Y-62332277D01*
X83971885Y-62289208D01*
X83929921Y-62262239D01*
X83805625Y-62225744D01*
X83676081Y-62225744D01*
X83551784Y-62262239D01*
X83442807Y-62332275D01*
X83442803Y-62332278D01*
X83357972Y-62430179D01*
X83304155Y-62548020D01*
X83285720Y-62676244D01*
X55755564Y-62676244D01*
X55738051Y-62656033D01*
X55650860Y-62599999D01*
X55629070Y-62585995D01*
X55504774Y-62549500D01*
X55375230Y-62549500D01*
X55250933Y-62585995D01*
X55141956Y-62656031D01*
X55141952Y-62656034D01*
X55057121Y-62753935D01*
X55003304Y-62871776D01*
X54984869Y-63000000D01*
X50000500Y-63000000D01*
X50000500Y-61730000D01*
X109144867Y-61730000D01*
X109163302Y-61858223D01*
X109163302Y-61858224D01*
X109163303Y-61858226D01*
X109217118Y-61976063D01*
X109301951Y-62073967D01*
X109410931Y-62144004D01*
X109535228Y-62180500D01*
X109664772Y-62180500D01*
X109789069Y-62144004D01*
X109898049Y-62073967D01*
X109982882Y-61976063D01*
X110036697Y-61858226D01*
X110055133Y-61730000D01*
X110036697Y-61601774D01*
X109982882Y-61483937D01*
X109898049Y-61386033D01*
X109831032Y-61342964D01*
X109789068Y-61315995D01*
X109734592Y-61300000D01*
X131744867Y-61300000D01*
X131763302Y-61428223D01*
X131763302Y-61428224D01*
X131763303Y-61428226D01*
X131817118Y-61546063D01*
X131901951Y-61643967D01*
X132010931Y-61714004D01*
X132135228Y-61750500D01*
X132264772Y-61750500D01*
X132389069Y-61714004D01*
X132498049Y-61643967D01*
X132582882Y-61546063D01*
X132636697Y-61428226D01*
X132655133Y-61300000D01*
X132636697Y-61171774D01*
X132582882Y-61053937D01*
X132498049Y-60956033D01*
X132431032Y-60912964D01*
X132389068Y-60885995D01*
X132264772Y-60849500D01*
X132135228Y-60849500D01*
X132010931Y-60885995D01*
X131901954Y-60956031D01*
X131901950Y-60956034D01*
X131817119Y-61053935D01*
X131763302Y-61171776D01*
X131744867Y-61300000D01*
X109734592Y-61300000D01*
X109664772Y-61279500D01*
X109535228Y-61279500D01*
X109410931Y-61315995D01*
X109301954Y-61386031D01*
X109301950Y-61386034D01*
X109217119Y-61483935D01*
X109163302Y-61601776D01*
X109144867Y-61730000D01*
X50000500Y-61730000D01*
X50000500Y-60600000D01*
X76314867Y-60600000D01*
X76333302Y-60728223D01*
X76333302Y-60728224D01*
X76333303Y-60728226D01*
X76387118Y-60846063D01*
X76471951Y-60943967D01*
X76580931Y-61014004D01*
X76705228Y-61050500D01*
X76834772Y-61050500D01*
X76959069Y-61014004D01*
X77068049Y-60943967D01*
X77152882Y-60846063D01*
X77206697Y-60728226D01*
X77225133Y-60600000D01*
X77206697Y-60471774D01*
X77152882Y-60353937D01*
X77068049Y-60256033D01*
X76986594Y-60203685D01*
X76959068Y-60185995D01*
X76834772Y-60149500D01*
X76705228Y-60149500D01*
X76580931Y-60185995D01*
X76471954Y-60256031D01*
X76471950Y-60256034D01*
X76387119Y-60353935D01*
X76333302Y-60471776D01*
X76314867Y-60600000D01*
X50000500Y-60600000D01*
X50000500Y-60000000D01*
X62644867Y-60000000D01*
X62663302Y-60128223D01*
X62663302Y-60128224D01*
X62663303Y-60128226D01*
X62717118Y-60246063D01*
X62801951Y-60343967D01*
X62910931Y-60414004D01*
X63035228Y-60450500D01*
X63164772Y-60450500D01*
X63289069Y-60414004D01*
X63398049Y-60343967D01*
X63482882Y-60246063D01*
X63536697Y-60128226D01*
X63545069Y-60070000D01*
X84734867Y-60070000D01*
X84753302Y-60198223D01*
X84753302Y-60198224D01*
X84753303Y-60198226D01*
X84807118Y-60316063D01*
X84891951Y-60413967D01*
X85000931Y-60484004D01*
X85125228Y-60520500D01*
X85254772Y-60520500D01*
X85379069Y-60484004D01*
X85488049Y-60413967D01*
X85572882Y-60316063D01*
X85591635Y-60275000D01*
X87244867Y-60275000D01*
X87263302Y-60403223D01*
X87263302Y-60403224D01*
X87263303Y-60403226D01*
X87317118Y-60521063D01*
X87401951Y-60618967D01*
X87510931Y-60689004D01*
X87635228Y-60725500D01*
X87764772Y-60725500D01*
X87889069Y-60689004D01*
X87998049Y-60618967D01*
X87999156Y-60617690D01*
X133319867Y-60617690D01*
X133338302Y-60745913D01*
X133338302Y-60745914D01*
X133338303Y-60745916D01*
X133392118Y-60863753D01*
X133476951Y-60961657D01*
X133585931Y-61031694D01*
X133710228Y-61068190D01*
X133839772Y-61068190D01*
X133964069Y-61031694D01*
X134073049Y-60961657D01*
X134157882Y-60863753D01*
X134211697Y-60745916D01*
X134230133Y-60617690D01*
X134211697Y-60489464D01*
X134157882Y-60371627D01*
X134073049Y-60273723D01*
X134006032Y-60230654D01*
X133964068Y-60203685D01*
X133839772Y-60167190D01*
X133710228Y-60167190D01*
X133585931Y-60203685D01*
X133476954Y-60273721D01*
X133476950Y-60273724D01*
X133392119Y-60371625D01*
X133338302Y-60489466D01*
X133319867Y-60617690D01*
X87999156Y-60617690D01*
X88082882Y-60521063D01*
X88136697Y-60403226D01*
X88155133Y-60275000D01*
X88136697Y-60146774D01*
X88082882Y-60028937D01*
X87998049Y-59931033D01*
X87905840Y-59871774D01*
X87889068Y-59860995D01*
X87764772Y-59824500D01*
X87635228Y-59824500D01*
X87510931Y-59860995D01*
X87401954Y-59931031D01*
X87401950Y-59931034D01*
X87317119Y-60028935D01*
X87263302Y-60146776D01*
X87244867Y-60275000D01*
X85591635Y-60275000D01*
X85626697Y-60198226D01*
X85645133Y-60070000D01*
X85626697Y-59941774D01*
X85572882Y-59823937D01*
X85500151Y-59740000D01*
X92184867Y-59740000D01*
X92203302Y-59868223D01*
X92203302Y-59868224D01*
X92203303Y-59868226D01*
X92257118Y-59986063D01*
X92341951Y-60083967D01*
X92450931Y-60154004D01*
X92575228Y-60190500D01*
X92704772Y-60190500D01*
X92829069Y-60154004D01*
X92938049Y-60083967D01*
X93022882Y-59986063D01*
X93076697Y-59868226D01*
X93095133Y-59740000D01*
X93090820Y-59710000D01*
X119614867Y-59710000D01*
X119633302Y-59838223D01*
X119633302Y-59838224D01*
X119633303Y-59838226D01*
X119687118Y-59956063D01*
X119771951Y-60053967D01*
X119880931Y-60124004D01*
X120005228Y-60160500D01*
X120134772Y-60160500D01*
X120259069Y-60124004D01*
X120361269Y-60058324D01*
X131955452Y-60058324D01*
X131973887Y-60186547D01*
X131973887Y-60186548D01*
X131973888Y-60186550D01*
X132027703Y-60304387D01*
X132112536Y-60402291D01*
X132221516Y-60472328D01*
X132345813Y-60508824D01*
X132475357Y-60508824D01*
X132599654Y-60472328D01*
X132708634Y-60402291D01*
X132793467Y-60304387D01*
X132847282Y-60186550D01*
X132865718Y-60058324D01*
X132847282Y-59930098D01*
X132793467Y-59812261D01*
X132708634Y-59714357D01*
X132636848Y-59668223D01*
X132599653Y-59644319D01*
X132475357Y-59607824D01*
X132345813Y-59607824D01*
X132221516Y-59644319D01*
X132112539Y-59714355D01*
X132112535Y-59714358D01*
X132027704Y-59812259D01*
X131973887Y-59930100D01*
X131955452Y-60058324D01*
X120361269Y-60058324D01*
X120368049Y-60053967D01*
X120452882Y-59956063D01*
X120506697Y-59838226D01*
X120525133Y-59710000D01*
X120509317Y-59600000D01*
X128044867Y-59600000D01*
X128063302Y-59728223D01*
X128063302Y-59728224D01*
X128063303Y-59728226D01*
X128117118Y-59846063D01*
X128201951Y-59943967D01*
X128310931Y-60014004D01*
X128435228Y-60050500D01*
X128564772Y-60050500D01*
X128689069Y-60014004D01*
X128798049Y-59943967D01*
X128882882Y-59846063D01*
X128936697Y-59728226D01*
X128955133Y-59600000D01*
X128936697Y-59471774D01*
X128882882Y-59353937D01*
X128882880Y-59353935D01*
X128882880Y-59353934D01*
X128882878Y-59353932D01*
X128823984Y-59285964D01*
X128805918Y-59238678D01*
X128822474Y-59190843D01*
X128823984Y-59189044D01*
X128830282Y-59181776D01*
X128904289Y-59096366D01*
X128958104Y-58978529D01*
X128976540Y-58850303D01*
X128958104Y-58722077D01*
X128904289Y-58604240D01*
X128900615Y-58600000D01*
X135244867Y-58600000D01*
X135263302Y-58728223D01*
X135263302Y-58728224D01*
X135263303Y-58728226D01*
X135317118Y-58846063D01*
X135401951Y-58943967D01*
X135510931Y-59014004D01*
X135529980Y-59019597D01*
X135570742Y-59049608D01*
X135582677Y-59098800D01*
X135560200Y-59144155D01*
X135549142Y-59152851D01*
X135492826Y-59189044D01*
X135481951Y-59196033D01*
X135481950Y-59196034D01*
X135397119Y-59293935D01*
X135343302Y-59411776D01*
X135324867Y-59540000D01*
X135343302Y-59668223D01*
X135343302Y-59668224D01*
X135343303Y-59668226D01*
X135397118Y-59786063D01*
X135481951Y-59883967D01*
X135590931Y-59954004D01*
X135715228Y-59990500D01*
X135844772Y-59990500D01*
X135969069Y-59954004D01*
X136078049Y-59883967D01*
X136162882Y-59786063D01*
X136216697Y-59668226D01*
X136235133Y-59540000D01*
X136216697Y-59411774D01*
X136162882Y-59293937D01*
X136078049Y-59196033D01*
X135969069Y-59125996D01*
X135969066Y-59125994D01*
X135969065Y-59125993D01*
X135950018Y-59120401D01*
X135909256Y-59090389D01*
X135897322Y-59041197D01*
X135919800Y-58995843D01*
X135930850Y-58987152D01*
X135998049Y-58943967D01*
X136082882Y-58846063D01*
X136136697Y-58728226D01*
X136155133Y-58600000D01*
X136136697Y-58471774D01*
X136082882Y-58353937D01*
X135998049Y-58256033D01*
X135916983Y-58203935D01*
X135889068Y-58185995D01*
X135764772Y-58149500D01*
X135635228Y-58149500D01*
X135510931Y-58185995D01*
X135401954Y-58256031D01*
X135401950Y-58256034D01*
X135317119Y-58353935D01*
X135263302Y-58471776D01*
X135244867Y-58600000D01*
X128900615Y-58600000D01*
X128819456Y-58506336D01*
X128752439Y-58463267D01*
X128710475Y-58436298D01*
X128586179Y-58399803D01*
X128456635Y-58399803D01*
X128332338Y-58436298D01*
X128223361Y-58506334D01*
X128223357Y-58506337D01*
X128138526Y-58604238D01*
X128138525Y-58604239D01*
X128138525Y-58604240D01*
X128127572Y-58628223D01*
X128084709Y-58722079D01*
X128066274Y-58850303D01*
X128084709Y-58978526D01*
X128084709Y-58978527D01*
X128084710Y-58978529D01*
X128138525Y-59096366D01*
X128197423Y-59164339D01*
X128215488Y-59211624D01*
X128198932Y-59259459D01*
X128197423Y-59261257D01*
X128117121Y-59353932D01*
X128117119Y-59353934D01*
X128063302Y-59471776D01*
X128044867Y-59600000D01*
X120509317Y-59600000D01*
X120506697Y-59581774D01*
X120452882Y-59463937D01*
X120368049Y-59366033D01*
X120280860Y-59310000D01*
X120259068Y-59295995D01*
X120134772Y-59259500D01*
X120005228Y-59259500D01*
X119880931Y-59295995D01*
X119771954Y-59366031D01*
X119771950Y-59366034D01*
X119687119Y-59463935D01*
X119633302Y-59581776D01*
X119614867Y-59710000D01*
X93090820Y-59710000D01*
X93076697Y-59611774D01*
X93022882Y-59493937D01*
X92938049Y-59396033D01*
X92867198Y-59350500D01*
X92829068Y-59325995D01*
X92704772Y-59289500D01*
X92575228Y-59289500D01*
X92450931Y-59325995D01*
X92341954Y-59396031D01*
X92341950Y-59396034D01*
X92257119Y-59493935D01*
X92203302Y-59611776D01*
X92184867Y-59740000D01*
X85500151Y-59740000D01*
X85488049Y-59726033D01*
X85421032Y-59682964D01*
X85379068Y-59655995D01*
X85254772Y-59619500D01*
X85125228Y-59619500D01*
X85000931Y-59655995D01*
X84891954Y-59726031D01*
X84891950Y-59726034D01*
X84807119Y-59823935D01*
X84753302Y-59941776D01*
X84734867Y-60070000D01*
X63545069Y-60070000D01*
X63555133Y-60000000D01*
X63536697Y-59871774D01*
X63482882Y-59753937D01*
X63398049Y-59656033D01*
X63310860Y-59600000D01*
X63289068Y-59585995D01*
X63164772Y-59549500D01*
X63035228Y-59549500D01*
X62910931Y-59585995D01*
X62801954Y-59656031D01*
X62801950Y-59656034D01*
X62717119Y-59753935D01*
X62663302Y-59871776D01*
X62644867Y-60000000D01*
X50000500Y-60000000D01*
X50000500Y-59310000D01*
X54954867Y-59310000D01*
X54973302Y-59438223D01*
X54973302Y-59438224D01*
X54973303Y-59438226D01*
X55027118Y-59556063D01*
X55111951Y-59653967D01*
X55220931Y-59724004D01*
X55345228Y-59760500D01*
X55474772Y-59760500D01*
X55599069Y-59724004D01*
X55708049Y-59653967D01*
X55792882Y-59556063D01*
X55846697Y-59438226D01*
X55865133Y-59310000D01*
X55846697Y-59181774D01*
X55792882Y-59063937D01*
X55708049Y-58966033D01*
X55627090Y-58914004D01*
X55599068Y-58895995D01*
X55474772Y-58859500D01*
X55345228Y-58859500D01*
X55220931Y-58895995D01*
X55111954Y-58966031D01*
X55111950Y-58966034D01*
X55027119Y-59063935D01*
X54973302Y-59181776D01*
X54954867Y-59310000D01*
X50000500Y-59310000D01*
X50000500Y-56930000D01*
X51366633Y-56930000D01*
X51366930Y-56931940D01*
X51366931Y-56931945D01*
X51437565Y-57122665D01*
X51545144Y-57295260D01*
X51685268Y-57442671D01*
X51852198Y-57558857D01*
X52039088Y-57639058D01*
X52039098Y-57639061D01*
X52238303Y-57679999D01*
X52238311Y-57680000D01*
X52390000Y-57680000D01*
X52390000Y-56980000D01*
X52890000Y-56980000D01*
X52890000Y-57680000D01*
X52990711Y-57680000D01*
X52990719Y-57679999D01*
X53142333Y-57664582D01*
X53142338Y-57664580D01*
X53336384Y-57603699D01*
X53336385Y-57603698D01*
X53514217Y-57504993D01*
X53514222Y-57504989D01*
X53668528Y-57372522D01*
X53668531Y-57372520D01*
X53793017Y-57211696D01*
X53793019Y-57211694D01*
X53882586Y-57029097D01*
X53882588Y-57029092D01*
X53908246Y-56930000D01*
X55296633Y-56930000D01*
X55296930Y-56931940D01*
X55296931Y-56931945D01*
X55367565Y-57122665D01*
X55475144Y-57295260D01*
X55615268Y-57442671D01*
X55782197Y-57558857D01*
X55920266Y-57618106D01*
X55957150Y-57652773D01*
X55963121Y-57703039D01*
X55937788Y-57743508D01*
X55932338Y-57747942D01*
X55932333Y-57747947D01*
X55849032Y-57865958D01*
X55849027Y-57865966D01*
X55800655Y-58002075D01*
X55800652Y-58002087D01*
X55790795Y-58146197D01*
X55818346Y-58278782D01*
X55820186Y-58287634D01*
X55820187Y-58287636D01*
X55820189Y-58287642D01*
X55886643Y-58415892D01*
X55886646Y-58415896D01*
X55965194Y-58500000D01*
X55985245Y-58521469D01*
X56108672Y-58596526D01*
X56195204Y-58620771D01*
X56247771Y-58635500D01*
X56247772Y-58635500D01*
X56355942Y-58635500D01*
X56355949Y-58635500D01*
X56463111Y-58620771D01*
X56595609Y-58563219D01*
X56673315Y-58500000D01*
X64144867Y-58500000D01*
X64163302Y-58628223D01*
X64163302Y-58628224D01*
X64163303Y-58628226D01*
X64217118Y-58746063D01*
X64301951Y-58843967D01*
X64410931Y-58914004D01*
X64535228Y-58950500D01*
X64664772Y-58950500D01*
X64789069Y-58914004D01*
X64810860Y-58900000D01*
X84804867Y-58900000D01*
X84823302Y-59028223D01*
X84823302Y-59028224D01*
X84823303Y-59028226D01*
X84877118Y-59146063D01*
X84961951Y-59243967D01*
X85070931Y-59314004D01*
X85195228Y-59350500D01*
X85324772Y-59350500D01*
X85449069Y-59314004D01*
X85558049Y-59243967D01*
X85642882Y-59146063D01*
X85696697Y-59028226D01*
X85715133Y-58900000D01*
X85696697Y-58771774D01*
X85642882Y-58653937D01*
X85558049Y-58556033D01*
X85470860Y-58500000D01*
X85449068Y-58485995D01*
X85326475Y-58450000D01*
X112564867Y-58450000D01*
X112583302Y-58578223D01*
X112583302Y-58578224D01*
X112583303Y-58578226D01*
X112637118Y-58696063D01*
X112721951Y-58793967D01*
X112830931Y-58864004D01*
X112955228Y-58900500D01*
X113084772Y-58900500D01*
X113209069Y-58864004D01*
X113318049Y-58793967D01*
X113402882Y-58696063D01*
X113456697Y-58578226D01*
X113475133Y-58450000D01*
X113472257Y-58430000D01*
X113814867Y-58430000D01*
X113833302Y-58558223D01*
X113833302Y-58558224D01*
X113833303Y-58558226D01*
X113887118Y-58676063D01*
X113971951Y-58773967D01*
X114080931Y-58844004D01*
X114205228Y-58880500D01*
X114334772Y-58880500D01*
X114459069Y-58844004D01*
X114568049Y-58773967D01*
X114652882Y-58676063D01*
X114706697Y-58558226D01*
X114725133Y-58430000D01*
X114706697Y-58301774D01*
X114652882Y-58183937D01*
X114580151Y-58100000D01*
X131944867Y-58100000D01*
X131963302Y-58228223D01*
X131963302Y-58228224D01*
X131963303Y-58228226D01*
X132017118Y-58346063D01*
X132101951Y-58443967D01*
X132210931Y-58514004D01*
X132335228Y-58550500D01*
X132464772Y-58550500D01*
X132589069Y-58514004D01*
X132698049Y-58443967D01*
X132782882Y-58346063D01*
X132836697Y-58228226D01*
X132855133Y-58100000D01*
X132840755Y-58000000D01*
X133644867Y-58000000D01*
X133663302Y-58128223D01*
X133663302Y-58128224D01*
X133663303Y-58128226D01*
X133717118Y-58246063D01*
X133801951Y-58343967D01*
X133910931Y-58414004D01*
X134035228Y-58450500D01*
X134164772Y-58450500D01*
X134289069Y-58414004D01*
X134398049Y-58343967D01*
X134482882Y-58246063D01*
X134536697Y-58128226D01*
X134555133Y-58000000D01*
X134536697Y-57871774D01*
X134482882Y-57753937D01*
X134482880Y-57753935D01*
X134482880Y-57753934D01*
X134482878Y-57753932D01*
X134436882Y-57700849D01*
X134418816Y-57653563D01*
X134435372Y-57605728D01*
X134471958Y-57581386D01*
X134589069Y-57547001D01*
X134698049Y-57476964D01*
X134782882Y-57379060D01*
X134836697Y-57261223D01*
X134855133Y-57132997D01*
X134850389Y-57100000D01*
X145344867Y-57100000D01*
X145363302Y-57228223D01*
X145363302Y-57228224D01*
X145363303Y-57228226D01*
X145417118Y-57346063D01*
X145501951Y-57443967D01*
X145610931Y-57514004D01*
X145735228Y-57550500D01*
X145864772Y-57550500D01*
X145989069Y-57514004D01*
X146098049Y-57443967D01*
X146182882Y-57346063D01*
X146236697Y-57228226D01*
X146255133Y-57100000D01*
X146240755Y-57000000D01*
X146544867Y-57000000D01*
X146563302Y-57128223D01*
X146563302Y-57128224D01*
X146563303Y-57128226D01*
X146617118Y-57246063D01*
X146701951Y-57343967D01*
X146810931Y-57414004D01*
X146935228Y-57450500D01*
X147064772Y-57450500D01*
X147189069Y-57414004D01*
X147298049Y-57343967D01*
X147382882Y-57246063D01*
X147436697Y-57128226D01*
X147455133Y-57000000D01*
X147436697Y-56871774D01*
X147382882Y-56753937D01*
X147298049Y-56656033D01*
X147205381Y-56596479D01*
X147189068Y-56585995D01*
X147064772Y-56549500D01*
X146935228Y-56549500D01*
X146810931Y-56585995D01*
X146701954Y-56656031D01*
X146701950Y-56656034D01*
X146617119Y-56753935D01*
X146563302Y-56871776D01*
X146544867Y-57000000D01*
X146240755Y-57000000D01*
X146236697Y-56971774D01*
X146182882Y-56853937D01*
X146098049Y-56756033D01*
X146001474Y-56693968D01*
X145989068Y-56685995D01*
X145864772Y-56649500D01*
X145735228Y-56649500D01*
X145610931Y-56685995D01*
X145501954Y-56756031D01*
X145501950Y-56756034D01*
X145417119Y-56853935D01*
X145417118Y-56853936D01*
X145417118Y-56853937D01*
X145408972Y-56871774D01*
X145363302Y-56971776D01*
X145344867Y-57100000D01*
X134850389Y-57100000D01*
X134836697Y-57004771D01*
X134782882Y-56886934D01*
X134698049Y-56789030D01*
X134631032Y-56745961D01*
X134589068Y-56718992D01*
X134464772Y-56682497D01*
X134335228Y-56682497D01*
X134210931Y-56718992D01*
X134101954Y-56789028D01*
X134101950Y-56789031D01*
X134017119Y-56886932D01*
X134017118Y-56886933D01*
X134017118Y-56886934D01*
X133995638Y-56933968D01*
X133963302Y-57004773D01*
X133944867Y-57132997D01*
X133963302Y-57261220D01*
X133963302Y-57261221D01*
X133963303Y-57261223D01*
X134017118Y-57379060D01*
X134063118Y-57432148D01*
X134081183Y-57479433D01*
X134064627Y-57527268D01*
X134028040Y-57551610D01*
X133910931Y-57585995D01*
X133801954Y-57656031D01*
X133801950Y-57656034D01*
X133717119Y-57753935D01*
X133663302Y-57871776D01*
X133644867Y-58000000D01*
X132840755Y-58000000D01*
X132836697Y-57971774D01*
X132782882Y-57853937D01*
X132698049Y-57756033D01*
X132624870Y-57709004D01*
X132589068Y-57685995D01*
X132464772Y-57649500D01*
X132335228Y-57649500D01*
X132210931Y-57685995D01*
X132101954Y-57756031D01*
X132101950Y-57756034D01*
X132017119Y-57853935D01*
X132017118Y-57853936D01*
X132017118Y-57853937D01*
X132008972Y-57871774D01*
X131963302Y-57971776D01*
X131944867Y-58100000D01*
X114580151Y-58100000D01*
X114568049Y-58086033D01*
X114490188Y-58035995D01*
X114459068Y-58015995D01*
X114334772Y-57979500D01*
X114205228Y-57979500D01*
X114080931Y-58015995D01*
X113971954Y-58086031D01*
X113971950Y-58086034D01*
X113887119Y-58183935D01*
X113887118Y-58183936D01*
X113887118Y-58183937D01*
X113866893Y-58228223D01*
X113833302Y-58301776D01*
X113814867Y-58430000D01*
X113472257Y-58430000D01*
X113456697Y-58321774D01*
X113402882Y-58203937D01*
X113318049Y-58106033D01*
X113230082Y-58049500D01*
X113209068Y-58035995D01*
X113084772Y-57999500D01*
X112955228Y-57999500D01*
X112830931Y-58035995D01*
X112721954Y-58106031D01*
X112721950Y-58106034D01*
X112637119Y-58203935D01*
X112637118Y-58203936D01*
X112637118Y-58203937D01*
X112613327Y-58256031D01*
X112583302Y-58321776D01*
X112564867Y-58450000D01*
X85326475Y-58450000D01*
X85324772Y-58449500D01*
X85195228Y-58449500D01*
X85070931Y-58485995D01*
X84961954Y-58556031D01*
X84961950Y-58556034D01*
X84877119Y-58653935D01*
X84823302Y-58771776D01*
X84804867Y-58900000D01*
X64810860Y-58900000D01*
X64898049Y-58843967D01*
X64982882Y-58746063D01*
X65036697Y-58628226D01*
X65055133Y-58500000D01*
X65036697Y-58371774D01*
X64982882Y-58253937D01*
X64898049Y-58156033D01*
X64810860Y-58100000D01*
X64789068Y-58085995D01*
X64664772Y-58049500D01*
X64535228Y-58049500D01*
X64410931Y-58085995D01*
X64301954Y-58156031D01*
X64301950Y-58156034D01*
X64217119Y-58253935D01*
X64163302Y-58371776D01*
X64144867Y-58500000D01*
X56673315Y-58500000D01*
X56707665Y-58472054D01*
X56790971Y-58354037D01*
X56839346Y-58217921D01*
X56843580Y-58156031D01*
X56849204Y-58073802D01*
X56849204Y-58073801D01*
X56828003Y-57971776D01*
X56819814Y-57932366D01*
X56819810Y-57932360D01*
X56819810Y-57932357D01*
X56753356Y-57804107D01*
X56753353Y-57804103D01*
X56700905Y-57747946D01*
X56654755Y-57698531D01*
X56624282Y-57680000D01*
X56605551Y-57668609D01*
X56573905Y-57629102D01*
X56570000Y-57605382D01*
X56570000Y-56980000D01*
X57070000Y-56980000D01*
X57070000Y-57680000D01*
X57420711Y-57680000D01*
X57420719Y-57679999D01*
X57572333Y-57664582D01*
X57572338Y-57664580D01*
X57766384Y-57603699D01*
X57766385Y-57603698D01*
X57944217Y-57504993D01*
X57944222Y-57504989D01*
X58098528Y-57372522D01*
X58098531Y-57372520D01*
X58142813Y-57315312D01*
X64119212Y-57315312D01*
X64137647Y-57443535D01*
X64137647Y-57443536D01*
X64137648Y-57443538D01*
X64191463Y-57561375D01*
X64276296Y-57659279D01*
X64385276Y-57729316D01*
X64509573Y-57765812D01*
X64639117Y-57765812D01*
X64763414Y-57729316D01*
X64872394Y-57659279D01*
X64957227Y-57561375D01*
X65011042Y-57443538D01*
X65029478Y-57315312D01*
X65011042Y-57187086D01*
X64957227Y-57069249D01*
X64872394Y-56971345D01*
X64846961Y-56955000D01*
X84834414Y-56955000D01*
X84852849Y-57083223D01*
X84852849Y-57083224D01*
X84852850Y-57083226D01*
X84906665Y-57201063D01*
X84991498Y-57298967D01*
X85100478Y-57369004D01*
X85224775Y-57405500D01*
X85354319Y-57405500D01*
X85478616Y-57369004D01*
X85587596Y-57298967D01*
X85591033Y-57295000D01*
X89820298Y-57295000D01*
X89838733Y-57423223D01*
X89838733Y-57423224D01*
X89838734Y-57423226D01*
X89892549Y-57541063D01*
X89977382Y-57638967D01*
X90086362Y-57709004D01*
X90210659Y-57745500D01*
X90340203Y-57745500D01*
X90464500Y-57709004D01*
X90573480Y-57638967D01*
X90658313Y-57541063D01*
X90712128Y-57423226D01*
X90730564Y-57295000D01*
X90712128Y-57166774D01*
X90658313Y-57048937D01*
X90573480Y-56951033D01*
X90473737Y-56886932D01*
X90464499Y-56880995D01*
X90340203Y-56844500D01*
X90210659Y-56844500D01*
X90086362Y-56880995D01*
X89977385Y-56951031D01*
X89977381Y-56951034D01*
X89892550Y-57048935D01*
X89892549Y-57048936D01*
X89892549Y-57048937D01*
X89883280Y-57069233D01*
X89838733Y-57166776D01*
X89820298Y-57295000D01*
X85591033Y-57295000D01*
X85672429Y-57201063D01*
X85726244Y-57083226D01*
X85744680Y-56955000D01*
X85726244Y-56826774D01*
X85724598Y-56823169D01*
X96056645Y-56823169D01*
X96075080Y-56951392D01*
X96075080Y-56951393D01*
X96075081Y-56951395D01*
X96128896Y-57069232D01*
X96213729Y-57167136D01*
X96322709Y-57237173D01*
X96447006Y-57273669D01*
X96576550Y-57273669D01*
X96700847Y-57237173D01*
X96809827Y-57167136D01*
X96894660Y-57069232D01*
X96948475Y-56951395D01*
X96966911Y-56823169D01*
X96948475Y-56694943D01*
X96900549Y-56590000D01*
X98234867Y-56590000D01*
X98253302Y-56718223D01*
X98253302Y-56718224D01*
X98253303Y-56718226D01*
X98307118Y-56836063D01*
X98391951Y-56933967D01*
X98500931Y-57004004D01*
X98625228Y-57040500D01*
X98754772Y-57040500D01*
X98879069Y-57004004D01*
X98988049Y-56933967D01*
X99072882Y-56836063D01*
X99126697Y-56718226D01*
X99145133Y-56590000D01*
X99126697Y-56461774D01*
X99072882Y-56343937D01*
X98988049Y-56246033D01*
X98893080Y-56185000D01*
X98879068Y-56175995D01*
X98754772Y-56139500D01*
X98625228Y-56139500D01*
X98500931Y-56175995D01*
X98391954Y-56246031D01*
X98391950Y-56246034D01*
X98307119Y-56343935D01*
X98253302Y-56461776D01*
X98234867Y-56590000D01*
X96900549Y-56590000D01*
X96894660Y-56577106D01*
X96809827Y-56479202D01*
X96718510Y-56420516D01*
X96700846Y-56409164D01*
X96576550Y-56372669D01*
X96447006Y-56372669D01*
X96322709Y-56409164D01*
X96213732Y-56479200D01*
X96213728Y-56479203D01*
X96128897Y-56577104D01*
X96128896Y-56577105D01*
X96128896Y-56577106D01*
X96120239Y-56596063D01*
X96075080Y-56694945D01*
X96056645Y-56823169D01*
X85724598Y-56823169D01*
X85672429Y-56708937D01*
X85587596Y-56611033D01*
X85491849Y-56549500D01*
X85478615Y-56540995D01*
X85354319Y-56504500D01*
X85224775Y-56504500D01*
X85100478Y-56540995D01*
X84991501Y-56611031D01*
X84991497Y-56611034D01*
X84906666Y-56708935D01*
X84852849Y-56826776D01*
X84834414Y-56955000D01*
X64846961Y-56955000D01*
X64770004Y-56905543D01*
X64763413Y-56901307D01*
X64639117Y-56864812D01*
X64509573Y-56864812D01*
X64385276Y-56901307D01*
X64276299Y-56971343D01*
X64276295Y-56971346D01*
X64191464Y-57069247D01*
X64137647Y-57187088D01*
X64119212Y-57315312D01*
X58142813Y-57315312D01*
X58223017Y-57211696D01*
X58223019Y-57211694D01*
X58312586Y-57029097D01*
X58312588Y-57029092D01*
X58338246Y-56930000D01*
X57536111Y-56930000D01*
X57575610Y-56905543D01*
X57643201Y-56816038D01*
X57673895Y-56708160D01*
X57663546Y-56596479D01*
X57613552Y-56496078D01*
X57541069Y-56430000D01*
X58343367Y-56430000D01*
X58343069Y-56428059D01*
X58343068Y-56428054D01*
X58272434Y-56237334D01*
X58239814Y-56185000D01*
X59501204Y-56185000D01*
X59519639Y-56313223D01*
X59519639Y-56313224D01*
X59519640Y-56313226D01*
X59573455Y-56431063D01*
X59658288Y-56528967D01*
X59767268Y-56599004D01*
X59891565Y-56635500D01*
X60021109Y-56635500D01*
X60145406Y-56599004D01*
X60254386Y-56528967D01*
X60339219Y-56431063D01*
X60376240Y-56350000D01*
X80964867Y-56350000D01*
X80983302Y-56478223D01*
X80983302Y-56478224D01*
X80983303Y-56478226D01*
X81037118Y-56596063D01*
X81121951Y-56693967D01*
X81230931Y-56764004D01*
X81355228Y-56800500D01*
X81484772Y-56800500D01*
X81609069Y-56764004D01*
X81718049Y-56693967D01*
X81802882Y-56596063D01*
X81856697Y-56478226D01*
X81875133Y-56350000D01*
X81856697Y-56221774D01*
X81802882Y-56103937D01*
X81718049Y-56006033D01*
X81637034Y-55953968D01*
X81609068Y-55935995D01*
X81484772Y-55899500D01*
X81355228Y-55899500D01*
X81230931Y-55935995D01*
X81121954Y-56006031D01*
X81121950Y-56006034D01*
X81037119Y-56103935D01*
X81037118Y-56103936D01*
X81037118Y-56103937D01*
X81016856Y-56148305D01*
X80983302Y-56221776D01*
X80964867Y-56350000D01*
X60376240Y-56350000D01*
X60393034Y-56313226D01*
X60411470Y-56185000D01*
X60393034Y-56056774D01*
X60339219Y-55938937D01*
X60254386Y-55841033D01*
X60187369Y-55797964D01*
X60145405Y-55770995D01*
X60021109Y-55734500D01*
X59891565Y-55734500D01*
X59767268Y-55770995D01*
X59658291Y-55841031D01*
X59658287Y-55841034D01*
X59573456Y-55938935D01*
X59573455Y-55938936D01*
X59573455Y-55938937D01*
X59558459Y-55971774D01*
X59519639Y-56056776D01*
X59501204Y-56185000D01*
X58239814Y-56185000D01*
X58164855Y-56064739D01*
X58024731Y-55917328D01*
X57857803Y-55801143D01*
X57807003Y-55779343D01*
X57770119Y-55744675D01*
X57764149Y-55694409D01*
X57791885Y-55652066D01*
X57796164Y-55649097D01*
X57843049Y-55618967D01*
X57850819Y-55610000D01*
X66424867Y-55610000D01*
X66443302Y-55738223D01*
X66443302Y-55738224D01*
X66443303Y-55738226D01*
X66497118Y-55856063D01*
X66581951Y-55953967D01*
X66690931Y-56024004D01*
X66815228Y-56060500D01*
X66944772Y-56060500D01*
X67069069Y-56024004D01*
X67178049Y-55953967D01*
X67262882Y-55856063D01*
X67316697Y-55738226D01*
X67322501Y-55697861D01*
X96461512Y-55697861D01*
X96479947Y-55826084D01*
X96479947Y-55826085D01*
X96479948Y-55826087D01*
X96533763Y-55943924D01*
X96618596Y-56041828D01*
X96727576Y-56111865D01*
X96851873Y-56148361D01*
X96981417Y-56148361D01*
X97105714Y-56111865D01*
X97124176Y-56100000D01*
X131644867Y-56100000D01*
X131663302Y-56228223D01*
X131663302Y-56228224D01*
X131663303Y-56228226D01*
X131717118Y-56346063D01*
X131801951Y-56443967D01*
X131910931Y-56514004D01*
X132035228Y-56550500D01*
X132164772Y-56550500D01*
X132289069Y-56514004D01*
X132398049Y-56443967D01*
X132482882Y-56346063D01*
X132536697Y-56228226D01*
X132555133Y-56100000D01*
X132536697Y-55971774D01*
X132503919Y-55900000D01*
X134644867Y-55900000D01*
X134663302Y-56028223D01*
X134663302Y-56028224D01*
X134663303Y-56028226D01*
X134717118Y-56146063D01*
X134801951Y-56243967D01*
X134910931Y-56314004D01*
X135035228Y-56350500D01*
X135164772Y-56350500D01*
X135289069Y-56314004D01*
X135398049Y-56243967D01*
X135482882Y-56146063D01*
X135499352Y-56110000D01*
X142954867Y-56110000D01*
X142973302Y-56238223D01*
X142973302Y-56238224D01*
X142973303Y-56238226D01*
X143027118Y-56356063D01*
X143111951Y-56453967D01*
X143220931Y-56524004D01*
X143345228Y-56560500D01*
X143474772Y-56560500D01*
X143599069Y-56524004D01*
X143708049Y-56453967D01*
X143792882Y-56356063D01*
X143846697Y-56238226D01*
X143865133Y-56110000D01*
X143846697Y-55981774D01*
X143792882Y-55863937D01*
X143708049Y-55766033D01*
X143637880Y-55720938D01*
X143599068Y-55695995D01*
X143474772Y-55659500D01*
X143345228Y-55659500D01*
X143220931Y-55695995D01*
X143111954Y-55766031D01*
X143111950Y-55766034D01*
X143027119Y-55863935D01*
X142973302Y-55981776D01*
X142954867Y-56110000D01*
X135499352Y-56110000D01*
X135536697Y-56028226D01*
X135555133Y-55900000D01*
X135536697Y-55771774D01*
X135482882Y-55653937D01*
X135398049Y-55556033D01*
X135331032Y-55512964D01*
X135289068Y-55485995D01*
X135164772Y-55449500D01*
X135035228Y-55449500D01*
X134910931Y-55485995D01*
X134801954Y-55556031D01*
X134801950Y-55556034D01*
X134717119Y-55653935D01*
X134717118Y-55653936D01*
X134717118Y-55653937D01*
X134698174Y-55695419D01*
X134663302Y-55771776D01*
X134644867Y-55900000D01*
X132503919Y-55900000D01*
X132482882Y-55853937D01*
X132398049Y-55756033D01*
X132331032Y-55712964D01*
X132289068Y-55685995D01*
X132164772Y-55649500D01*
X132035228Y-55649500D01*
X131910931Y-55685995D01*
X131801954Y-55756031D01*
X131801950Y-55756034D01*
X131717119Y-55853935D01*
X131663302Y-55971776D01*
X131644867Y-56100000D01*
X97124176Y-56100000D01*
X97214694Y-56041828D01*
X97299527Y-55943924D01*
X97353342Y-55826087D01*
X97371778Y-55697861D01*
X97353342Y-55569635D01*
X97299527Y-55451798D01*
X97214694Y-55353894D01*
X97112581Y-55288270D01*
X97105713Y-55283856D01*
X96981417Y-55247361D01*
X96851873Y-55247361D01*
X96727576Y-55283856D01*
X96618599Y-55353892D01*
X96618595Y-55353895D01*
X96533764Y-55451796D01*
X96479947Y-55569637D01*
X96461512Y-55697861D01*
X67322501Y-55697861D01*
X67335133Y-55610000D01*
X67316697Y-55481774D01*
X67262882Y-55363937D01*
X67178049Y-55266033D01*
X67106420Y-55220000D01*
X78844867Y-55220000D01*
X78863302Y-55348223D01*
X78863302Y-55348224D01*
X78863303Y-55348226D01*
X78917118Y-55466063D01*
X79001951Y-55563967D01*
X79110931Y-55634004D01*
X79235228Y-55670500D01*
X79364772Y-55670500D01*
X79489069Y-55634004D01*
X79598049Y-55563967D01*
X79682882Y-55466063D01*
X79736697Y-55348226D01*
X79755133Y-55220000D01*
X79736697Y-55091774D01*
X79682882Y-54973937D01*
X79598049Y-54876033D01*
X79510463Y-54819745D01*
X79489068Y-54805995D01*
X79364772Y-54769500D01*
X79235228Y-54769500D01*
X79110931Y-54805995D01*
X79001954Y-54876031D01*
X79001950Y-54876034D01*
X78917119Y-54973935D01*
X78863302Y-55091776D01*
X78844867Y-55220000D01*
X67106420Y-55220000D01*
X67083858Y-55205500D01*
X67069068Y-55195995D01*
X66944772Y-55159500D01*
X66815228Y-55159500D01*
X66690931Y-55195995D01*
X66581954Y-55266031D01*
X66581950Y-55266034D01*
X66497119Y-55363935D01*
X66443302Y-55481776D01*
X66424867Y-55610000D01*
X57850819Y-55610000D01*
X57927882Y-55521063D01*
X57981697Y-55403226D01*
X58000133Y-55275000D01*
X57981697Y-55146774D01*
X57927882Y-55028937D01*
X57843049Y-54931033D01*
X57734175Y-54861064D01*
X57734068Y-54860995D01*
X57609772Y-54824500D01*
X57480228Y-54824500D01*
X57355931Y-54860995D01*
X57246954Y-54931031D01*
X57246950Y-54931034D01*
X57162119Y-55028935D01*
X57108302Y-55146776D01*
X57089867Y-55275000D01*
X57108302Y-55403223D01*
X57108302Y-55403224D01*
X57108303Y-55403226D01*
X57144175Y-55481774D01*
X57162119Y-55521065D01*
X57162120Y-55521067D01*
X57193725Y-55557541D01*
X57211790Y-55604826D01*
X57195233Y-55652661D01*
X57151803Y-55678663D01*
X57137799Y-55680000D01*
X57070000Y-55680000D01*
X57070000Y-56380000D01*
X56570000Y-56380000D01*
X56570000Y-55680000D01*
X56219280Y-55680000D01*
X56067666Y-55695417D01*
X56067661Y-55695419D01*
X55873615Y-55756300D01*
X55873614Y-55756301D01*
X55695782Y-55855006D01*
X55695777Y-55855010D01*
X55541471Y-55987477D01*
X55541468Y-55987479D01*
X55416982Y-56148303D01*
X55416980Y-56148305D01*
X55327413Y-56330902D01*
X55327411Y-56330907D01*
X55301754Y-56430000D01*
X56103889Y-56430000D01*
X56064390Y-56454457D01*
X55996799Y-56543962D01*
X55966105Y-56651840D01*
X55976454Y-56763521D01*
X56026448Y-56863922D01*
X56098931Y-56930000D01*
X55296633Y-56930000D01*
X53908246Y-56930000D01*
X53106111Y-56930000D01*
X53145610Y-56905543D01*
X53213201Y-56816038D01*
X53243895Y-56708160D01*
X53233546Y-56596479D01*
X53183552Y-56496078D01*
X53111069Y-56430000D01*
X53913367Y-56430000D01*
X53913069Y-56428059D01*
X53913068Y-56428054D01*
X53842434Y-56237334D01*
X53734855Y-56064739D01*
X53594731Y-55917328D01*
X53427801Y-55801142D01*
X53240911Y-55720941D01*
X53240901Y-55720938D01*
X53041696Y-55680000D01*
X52890000Y-55680000D01*
X52890000Y-56380000D01*
X52390000Y-56380000D01*
X52390000Y-55680000D01*
X52289280Y-55680000D01*
X52137666Y-55695417D01*
X52137661Y-55695419D01*
X51943615Y-55756300D01*
X51943614Y-55756301D01*
X51765782Y-55855006D01*
X51765777Y-55855010D01*
X51611471Y-55987477D01*
X51611468Y-55987479D01*
X51486982Y-56148303D01*
X51486980Y-56148305D01*
X51397413Y-56330902D01*
X51397411Y-56330907D01*
X51371754Y-56430000D01*
X52173889Y-56430000D01*
X52134390Y-56454457D01*
X52066799Y-56543962D01*
X52036105Y-56651840D01*
X52046454Y-56763521D01*
X52096448Y-56863922D01*
X52168931Y-56930000D01*
X51366633Y-56930000D01*
X50000500Y-56930000D01*
X50000500Y-55100000D01*
X50804867Y-55100000D01*
X50823302Y-55228223D01*
X50823302Y-55228224D01*
X50823303Y-55228226D01*
X50877118Y-55346063D01*
X50961951Y-55443967D01*
X51070931Y-55514004D01*
X51195228Y-55550500D01*
X51324772Y-55550500D01*
X51449069Y-55514004D01*
X51558049Y-55443967D01*
X51642882Y-55346063D01*
X51696697Y-55228226D01*
X51715133Y-55100000D01*
X51696697Y-54971774D01*
X51642882Y-54853937D01*
X51558049Y-54756033D01*
X51468120Y-54698239D01*
X51449068Y-54685995D01*
X51324772Y-54649500D01*
X51195228Y-54649500D01*
X51070931Y-54685995D01*
X50961954Y-54756031D01*
X50961950Y-54756034D01*
X50877119Y-54853935D01*
X50823302Y-54971776D01*
X50804867Y-55100000D01*
X50000500Y-55100000D01*
X50000500Y-54615000D01*
X55514867Y-54615000D01*
X55533302Y-54743223D01*
X55533302Y-54743224D01*
X55533303Y-54743226D01*
X55587118Y-54861063D01*
X55671951Y-54958967D01*
X55780931Y-55029004D01*
X55905228Y-55065500D01*
X56034772Y-55065500D01*
X56159069Y-55029004D01*
X56268049Y-54958967D01*
X56352882Y-54861063D01*
X56406697Y-54743226D01*
X56425133Y-54615000D01*
X56406697Y-54486774D01*
X56394470Y-54460000D01*
X57854867Y-54460000D01*
X57873302Y-54588223D01*
X57873302Y-54588224D01*
X57873303Y-54588226D01*
X57927118Y-54706063D01*
X58011951Y-54803967D01*
X58120931Y-54874004D01*
X58245228Y-54910500D01*
X58374772Y-54910500D01*
X58499069Y-54874004D01*
X58608049Y-54803967D01*
X58692882Y-54706063D01*
X58746697Y-54588226D01*
X58765133Y-54460000D01*
X60305103Y-54460000D01*
X60323538Y-54588223D01*
X60323538Y-54588224D01*
X60323539Y-54588226D01*
X60377354Y-54706063D01*
X60462187Y-54803967D01*
X60571167Y-54874004D01*
X60695464Y-54910500D01*
X60825008Y-54910500D01*
X60949305Y-54874004D01*
X61058285Y-54803967D01*
X61143118Y-54706063D01*
X61149759Y-54691522D01*
X70826870Y-54691522D01*
X70845305Y-54819745D01*
X70845305Y-54819746D01*
X70845306Y-54819748D01*
X70899121Y-54937585D01*
X70983954Y-55035489D01*
X71092934Y-55105526D01*
X71217231Y-55142022D01*
X71346775Y-55142022D01*
X71471072Y-55105526D01*
X71580052Y-55035489D01*
X71664885Y-54937585D01*
X71718700Y-54819748D01*
X71737136Y-54691522D01*
X71718700Y-54563296D01*
X71686201Y-54492133D01*
X72393517Y-54492133D01*
X72411952Y-54620356D01*
X72411952Y-54620357D01*
X72411953Y-54620359D01*
X72465768Y-54738196D01*
X72550601Y-54836100D01*
X72659581Y-54906137D01*
X72783878Y-54942633D01*
X72913422Y-54942633D01*
X73037719Y-54906137D01*
X73146699Y-54836100D01*
X73231532Y-54738196D01*
X73253543Y-54690000D01*
X75639867Y-54690000D01*
X75658302Y-54818223D01*
X75658302Y-54818224D01*
X75658303Y-54818226D01*
X75712118Y-54936063D01*
X75796951Y-55033967D01*
X75905931Y-55104004D01*
X76030228Y-55140500D01*
X76159772Y-55140500D01*
X76284069Y-55104004D01*
X76393049Y-55033967D01*
X76477882Y-54936063D01*
X76531697Y-54818226D01*
X76540787Y-54755000D01*
X85019147Y-54755000D01*
X85037582Y-54883223D01*
X85037582Y-54883224D01*
X85037583Y-54883226D01*
X85091398Y-55001063D01*
X85176231Y-55098967D01*
X85285211Y-55169004D01*
X85409508Y-55205500D01*
X85539052Y-55205500D01*
X85663349Y-55169004D01*
X85772329Y-55098967D01*
X85857162Y-55001063D01*
X85910977Y-54883226D01*
X85929413Y-54755000D01*
X85924512Y-54720913D01*
X92830780Y-54720913D01*
X92849215Y-54849136D01*
X92849215Y-54849137D01*
X92849216Y-54849139D01*
X92903031Y-54966976D01*
X92987864Y-55064880D01*
X93096844Y-55134917D01*
X93221141Y-55171413D01*
X93350685Y-55171413D01*
X93474982Y-55134917D01*
X93583962Y-55064880D01*
X93640180Y-55000000D01*
X100044867Y-55000000D01*
X100063302Y-55128223D01*
X100063302Y-55128224D01*
X100063303Y-55128226D01*
X100117118Y-55246063D01*
X100201951Y-55343967D01*
X100310931Y-55414004D01*
X100435228Y-55450500D01*
X100564772Y-55450500D01*
X100689069Y-55414004D01*
X100798049Y-55343967D01*
X100882882Y-55246063D01*
X100936697Y-55128226D01*
X100955133Y-55000000D01*
X100947125Y-54944302D01*
X104818611Y-54944302D01*
X104837046Y-55072525D01*
X104837046Y-55072526D01*
X104837047Y-55072528D01*
X104890862Y-55190365D01*
X104975695Y-55288269D01*
X105084675Y-55358306D01*
X105208972Y-55394802D01*
X105338516Y-55394802D01*
X105462813Y-55358306D01*
X105571793Y-55288269D01*
X105656626Y-55190365D01*
X105710441Y-55072528D01*
X105728877Y-54944302D01*
X105718913Y-54875000D01*
X133844867Y-54875000D01*
X133863302Y-55003223D01*
X133863302Y-55003224D01*
X133863303Y-55003226D01*
X133917118Y-55121063D01*
X134001951Y-55218967D01*
X134110931Y-55289004D01*
X134235228Y-55325500D01*
X134364772Y-55325500D01*
X134489069Y-55289004D01*
X134598049Y-55218967D01*
X134682882Y-55121063D01*
X134692501Y-55100000D01*
X147344867Y-55100000D01*
X147363302Y-55228223D01*
X147363302Y-55228224D01*
X147363303Y-55228226D01*
X147417118Y-55346063D01*
X147501951Y-55443967D01*
X147610931Y-55514004D01*
X147735228Y-55550500D01*
X147864772Y-55550500D01*
X147989069Y-55514004D01*
X148098049Y-55443967D01*
X148182882Y-55346063D01*
X148236697Y-55228226D01*
X148255133Y-55100000D01*
X148236697Y-54971774D01*
X148182882Y-54853937D01*
X148098049Y-54756033D01*
X148008120Y-54698239D01*
X147989068Y-54685995D01*
X147864772Y-54649500D01*
X147735228Y-54649500D01*
X147610931Y-54685995D01*
X147501954Y-54756031D01*
X147501950Y-54756034D01*
X147417119Y-54853935D01*
X147363302Y-54971776D01*
X147344867Y-55100000D01*
X134692501Y-55100000D01*
X134736697Y-55003226D01*
X134755133Y-54875000D01*
X134736697Y-54746774D01*
X134682882Y-54628937D01*
X134598049Y-54531033D01*
X134529180Y-54486774D01*
X134489068Y-54460995D01*
X134364772Y-54424500D01*
X134235228Y-54424500D01*
X134110931Y-54460995D01*
X134001954Y-54531031D01*
X134001950Y-54531034D01*
X133917119Y-54628935D01*
X133863302Y-54746776D01*
X133844867Y-54875000D01*
X105718913Y-54875000D01*
X105710441Y-54816076D01*
X105656626Y-54698239D01*
X105571793Y-54600335D01*
X105492692Y-54549500D01*
X105462812Y-54530297D01*
X105338516Y-54493802D01*
X105208972Y-54493802D01*
X105084675Y-54530297D01*
X104975698Y-54600333D01*
X104975694Y-54600336D01*
X104890863Y-54698237D01*
X104837046Y-54816078D01*
X104818611Y-54944302D01*
X100947125Y-54944302D01*
X100936697Y-54871774D01*
X100882882Y-54753937D01*
X100798049Y-54656033D01*
X100699484Y-54592689D01*
X100689068Y-54585995D01*
X100564772Y-54549500D01*
X100435228Y-54549500D01*
X100310931Y-54585995D01*
X100201954Y-54656031D01*
X100201950Y-54656034D01*
X100117119Y-54753935D01*
X100063302Y-54871776D01*
X100044867Y-55000000D01*
X93640180Y-55000000D01*
X93668795Y-54966976D01*
X93722610Y-54849139D01*
X93741046Y-54720913D01*
X93722610Y-54592687D01*
X93668795Y-54474850D01*
X93583962Y-54376946D01*
X93513673Y-54331774D01*
X93474981Y-54306908D01*
X93350685Y-54270413D01*
X93221141Y-54270413D01*
X93096844Y-54306908D01*
X92987867Y-54376944D01*
X92987863Y-54376947D01*
X92903032Y-54474848D01*
X92903031Y-54474849D01*
X92903031Y-54474850D01*
X92894300Y-54493968D01*
X92849215Y-54592689D01*
X92830780Y-54720913D01*
X85924512Y-54720913D01*
X85910977Y-54626774D01*
X85857162Y-54508937D01*
X85772329Y-54411033D01*
X85705312Y-54367964D01*
X85663348Y-54340995D01*
X85539052Y-54304500D01*
X85409508Y-54304500D01*
X85285211Y-54340995D01*
X85176234Y-54411031D01*
X85176230Y-54411034D01*
X85091399Y-54508935D01*
X85037582Y-54626776D01*
X85019147Y-54755000D01*
X76540787Y-54755000D01*
X76550133Y-54690000D01*
X76531697Y-54561774D01*
X76477882Y-54443937D01*
X76393049Y-54346033D01*
X76287539Y-54278226D01*
X76284068Y-54275995D01*
X76159772Y-54239500D01*
X76030228Y-54239500D01*
X75905931Y-54275995D01*
X75796954Y-54346031D01*
X75796950Y-54346034D01*
X75712119Y-54443935D01*
X75658302Y-54561776D01*
X75639867Y-54690000D01*
X73253543Y-54690000D01*
X73285347Y-54620359D01*
X73303783Y-54492133D01*
X73285347Y-54363907D01*
X73231532Y-54246070D01*
X73148288Y-54150000D01*
X94864867Y-54150000D01*
X94883302Y-54278223D01*
X94883302Y-54278224D01*
X94883303Y-54278226D01*
X94937118Y-54396063D01*
X95021951Y-54493967D01*
X95130931Y-54564004D01*
X95255228Y-54600500D01*
X95384772Y-54600500D01*
X95509069Y-54564004D01*
X95618049Y-54493967D01*
X95698550Y-54401063D01*
X131578147Y-54401063D01*
X131596582Y-54529286D01*
X131596582Y-54529287D01*
X131596583Y-54529289D01*
X131650398Y-54647126D01*
X131735231Y-54745030D01*
X131844211Y-54815067D01*
X131968508Y-54851563D01*
X132098052Y-54851563D01*
X132222349Y-54815067D01*
X132331329Y-54745030D01*
X132416162Y-54647126D01*
X132469977Y-54529289D01*
X132488413Y-54401063D01*
X132469977Y-54272837D01*
X132416162Y-54155000D01*
X132331329Y-54057096D01*
X132257268Y-54009500D01*
X132222348Y-53987058D01*
X132098052Y-53950563D01*
X131968508Y-53950563D01*
X131844211Y-53987058D01*
X131735234Y-54057094D01*
X131735230Y-54057097D01*
X131650399Y-54154998D01*
X131650398Y-54154999D01*
X131650398Y-54155000D01*
X131629393Y-54200995D01*
X131596582Y-54272839D01*
X131578147Y-54401063D01*
X95698550Y-54401063D01*
X95702882Y-54396063D01*
X95756697Y-54278226D01*
X95775133Y-54150000D01*
X95756697Y-54021774D01*
X95702882Y-53903937D01*
X95618049Y-53806033D01*
X95521474Y-53743968D01*
X95509068Y-53735995D01*
X95384772Y-53699500D01*
X95255228Y-53699500D01*
X95130931Y-53735995D01*
X95021954Y-53806031D01*
X95021950Y-53806034D01*
X94937119Y-53903935D01*
X94883302Y-54021776D01*
X94864867Y-54150000D01*
X73148288Y-54150000D01*
X73146699Y-54148166D01*
X73079682Y-54105097D01*
X73037718Y-54078128D01*
X72913422Y-54041633D01*
X72783878Y-54041633D01*
X72659581Y-54078128D01*
X72550604Y-54148164D01*
X72550600Y-54148167D01*
X72465769Y-54246068D01*
X72465768Y-54246069D01*
X72465768Y-54246070D01*
X72451406Y-54277518D01*
X72411952Y-54363909D01*
X72393517Y-54492133D01*
X71686201Y-54492133D01*
X71664885Y-54445459D01*
X71580052Y-54347555D01*
X71472174Y-54278226D01*
X71471071Y-54277517D01*
X71346775Y-54241022D01*
X71217231Y-54241022D01*
X71092934Y-54277517D01*
X70983957Y-54347553D01*
X70983953Y-54347556D01*
X70899122Y-54445457D01*
X70845305Y-54563298D01*
X70826870Y-54691522D01*
X61149759Y-54691522D01*
X61196933Y-54588226D01*
X61215369Y-54460000D01*
X61196933Y-54331774D01*
X61143118Y-54213937D01*
X61058285Y-54116033D01*
X60966574Y-54057094D01*
X60949304Y-54045995D01*
X60825008Y-54009500D01*
X60695464Y-54009500D01*
X60571167Y-54045995D01*
X60462190Y-54116031D01*
X60462186Y-54116034D01*
X60377355Y-54213935D01*
X60323538Y-54331776D01*
X60305103Y-54460000D01*
X58765133Y-54460000D01*
X58746697Y-54331774D01*
X58692882Y-54213937D01*
X58608049Y-54116033D01*
X58516338Y-54057094D01*
X58499068Y-54045995D01*
X58374772Y-54009500D01*
X58245228Y-54009500D01*
X58120931Y-54045995D01*
X58011954Y-54116031D01*
X58011950Y-54116034D01*
X57927119Y-54213935D01*
X57873302Y-54331776D01*
X57854867Y-54460000D01*
X56394470Y-54460000D01*
X56352882Y-54368937D01*
X56268049Y-54271033D01*
X56179203Y-54213935D01*
X56159068Y-54200995D01*
X56034772Y-54164500D01*
X55905228Y-54164500D01*
X55780931Y-54200995D01*
X55671954Y-54271031D01*
X55671950Y-54271034D01*
X55587119Y-54368935D01*
X55533302Y-54486776D01*
X55514867Y-54615000D01*
X50000500Y-54615000D01*
X50000500Y-53472702D01*
X135672165Y-53472702D01*
X135690600Y-53600925D01*
X135690600Y-53600926D01*
X135690601Y-53600928D01*
X135744416Y-53718765D01*
X135829249Y-53816669D01*
X135938229Y-53886706D01*
X136062526Y-53923202D01*
X136192070Y-53923202D01*
X136316367Y-53886706D01*
X136425347Y-53816669D01*
X136510180Y-53718765D01*
X136563995Y-53600928D01*
X136567067Y-53579562D01*
X136590973Y-53534944D01*
X136637966Y-53516130D01*
X136686057Y-53531925D01*
X136707624Y-53559349D01*
X136740611Y-53631578D01*
X136825444Y-53729482D01*
X136934424Y-53799519D01*
X137058721Y-53836015D01*
X137188265Y-53836015D01*
X137312562Y-53799519D01*
X137421542Y-53729482D01*
X137506375Y-53631578D01*
X137560190Y-53513741D01*
X137576543Y-53400000D01*
X140244867Y-53400000D01*
X140263302Y-53528223D01*
X140263302Y-53528224D01*
X140263303Y-53528226D01*
X140317118Y-53646063D01*
X140401951Y-53743967D01*
X140510931Y-53814004D01*
X140635228Y-53850500D01*
X140764772Y-53850500D01*
X140889069Y-53814004D01*
X140998049Y-53743967D01*
X141082882Y-53646063D01*
X141103919Y-53600000D01*
X141544867Y-53600000D01*
X141563302Y-53728223D01*
X141563302Y-53728224D01*
X141563303Y-53728226D01*
X141617118Y-53846063D01*
X141701951Y-53943967D01*
X141810931Y-54014004D01*
X141935228Y-54050500D01*
X142064772Y-54050500D01*
X142189069Y-54014004D01*
X142298049Y-53943967D01*
X142382882Y-53846063D01*
X142436697Y-53728226D01*
X142455133Y-53600000D01*
X142436697Y-53471774D01*
X142382882Y-53353937D01*
X142298049Y-53256033D01*
X142231032Y-53212964D01*
X142189068Y-53185995D01*
X142064772Y-53149500D01*
X141935228Y-53149500D01*
X141810931Y-53185995D01*
X141701954Y-53256031D01*
X141701950Y-53256034D01*
X141617119Y-53353935D01*
X141563302Y-53471776D01*
X141544867Y-53600000D01*
X141103919Y-53600000D01*
X141136697Y-53528226D01*
X141155133Y-53400000D01*
X141136697Y-53271774D01*
X141082882Y-53153937D01*
X140998049Y-53056033D01*
X140931032Y-53012964D01*
X140889068Y-52985995D01*
X140764772Y-52949500D01*
X140635228Y-52949500D01*
X140510931Y-52985995D01*
X140401954Y-53056031D01*
X140401950Y-53056034D01*
X140317119Y-53153935D01*
X140263302Y-53271776D01*
X140244867Y-53400000D01*
X137576543Y-53400000D01*
X137578626Y-53385515D01*
X137560190Y-53257289D01*
X137506375Y-53139452D01*
X137421542Y-53041548D01*
X137335100Y-52985995D01*
X137312561Y-52971510D01*
X137188265Y-52935015D01*
X137058721Y-52935015D01*
X136934424Y-52971510D01*
X136825447Y-53041546D01*
X136825443Y-53041549D01*
X136740612Y-53139450D01*
X136686794Y-53257293D01*
X136683722Y-53278657D01*
X136659815Y-53323274D01*
X136612821Y-53342086D01*
X136564730Y-53326289D01*
X136543165Y-53298866D01*
X136510180Y-53226639D01*
X136425347Y-53128735D01*
X136358330Y-53085666D01*
X136316366Y-53058697D01*
X136192070Y-53022202D01*
X136062526Y-53022202D01*
X135938229Y-53058697D01*
X135829252Y-53128733D01*
X135829248Y-53128736D01*
X135744417Y-53226637D01*
X135690600Y-53344478D01*
X135672165Y-53472702D01*
X50000500Y-53472702D01*
X50000500Y-52300000D01*
X89744867Y-52300000D01*
X89763302Y-52428223D01*
X89763302Y-52428224D01*
X89763303Y-52428226D01*
X89817118Y-52546063D01*
X89901951Y-52643967D01*
X90010931Y-52714004D01*
X90135228Y-52750500D01*
X90264772Y-52750500D01*
X90389069Y-52714004D01*
X90498049Y-52643967D01*
X90582882Y-52546063D01*
X90636697Y-52428226D01*
X90655133Y-52300000D01*
X90640755Y-52200000D01*
X100844867Y-52200000D01*
X100863302Y-52328223D01*
X100863302Y-52328224D01*
X100863303Y-52328226D01*
X100917118Y-52446063D01*
X101001951Y-52543967D01*
X101110931Y-52614004D01*
X101235228Y-52650500D01*
X101364772Y-52650500D01*
X101489069Y-52614004D01*
X101598049Y-52543967D01*
X101682882Y-52446063D01*
X101736697Y-52328226D01*
X101755133Y-52200000D01*
X101736697Y-52071774D01*
X101682882Y-51953937D01*
X101598049Y-51856033D01*
X101531032Y-51812964D01*
X101489068Y-51785995D01*
X101364772Y-51749500D01*
X101235228Y-51749500D01*
X101110931Y-51785995D01*
X101001954Y-51856031D01*
X101001950Y-51856034D01*
X100917119Y-51953935D01*
X100863302Y-52071776D01*
X100844867Y-52200000D01*
X90640755Y-52200000D01*
X90636697Y-52171774D01*
X90582882Y-52053937D01*
X90498049Y-51956033D01*
X90431032Y-51912964D01*
X90389068Y-51885995D01*
X90264772Y-51849500D01*
X90135228Y-51849500D01*
X90010931Y-51885995D01*
X89901954Y-51956031D01*
X89901950Y-51956034D01*
X89817119Y-52053935D01*
X89763302Y-52171776D01*
X89744867Y-52300000D01*
X50000500Y-52300000D01*
X50000500Y-50800000D01*
X124144867Y-50800000D01*
X124163302Y-50928223D01*
X124163302Y-50928224D01*
X124163303Y-50928226D01*
X124217118Y-51046063D01*
X124301951Y-51143967D01*
X124410931Y-51214004D01*
X124535228Y-51250500D01*
X124664772Y-51250500D01*
X124789069Y-51214004D01*
X124898049Y-51143967D01*
X124982882Y-51046063D01*
X125036697Y-50928226D01*
X125055133Y-50800000D01*
X125040755Y-50700000D01*
X127544867Y-50700000D01*
X127563302Y-50828223D01*
X127563302Y-50828224D01*
X127563303Y-50828226D01*
X127617118Y-50946063D01*
X127701951Y-51043967D01*
X127810931Y-51114004D01*
X127935228Y-51150500D01*
X128064772Y-51150500D01*
X128189069Y-51114004D01*
X128298049Y-51043967D01*
X128382882Y-50946063D01*
X128436697Y-50828226D01*
X128455133Y-50700000D01*
X128436697Y-50571774D01*
X128382882Y-50453937D01*
X128298049Y-50356033D01*
X128231032Y-50312964D01*
X128189068Y-50285995D01*
X128064772Y-50249500D01*
X127935228Y-50249500D01*
X127810931Y-50285995D01*
X127701954Y-50356031D01*
X127701950Y-50356034D01*
X127617119Y-50453935D01*
X127563302Y-50571776D01*
X127544867Y-50700000D01*
X125040755Y-50700000D01*
X125036697Y-50671774D01*
X124982882Y-50553937D01*
X124898049Y-50456033D01*
X124831032Y-50412964D01*
X124789068Y-50385995D01*
X124664772Y-50349500D01*
X124535228Y-50349500D01*
X124410931Y-50385995D01*
X124301954Y-50456031D01*
X124301950Y-50456034D01*
X124217119Y-50553935D01*
X124163302Y-50671776D01*
X124144867Y-50800000D01*
X50000500Y-50800000D01*
X50000500Y-50074500D01*
X50017813Y-50026934D01*
X50061650Y-50001624D01*
X50074500Y-50000500D01*
X149726000Y-50000500D01*
X149773566Y-50017813D01*
G37*
%TD.AperFunction*%
%TD*%
M02*
