%TF.GenerationSoftware,KiCad,Pcbnew,7.0.10+1*%
%TF.CreationDate,2024-03-12T10:53:23+01:00*%
%TF.ProjectId,IR-sensor,49522d73-656e-4736-9f72-2e6b69636164,rev?*%
%TF.SameCoordinates,Original*%
%TF.FileFunction,Paste,Top*%
%TF.FilePolarity,Positive*%
%FSLAX46Y46*%
G04 Gerber Fmt 4.6, Leading zero omitted, Abs format (unit mm)*
G04 Created by KiCad (PCBNEW 7.0.10+1) date 2024-03-12 10:53:23*
%MOMM*%
%LPD*%
G01*
G04 APERTURE LIST*
G04 Aperture macros list*
%AMRoundRect*
0 Rectangle with rounded corners*
0 $1 Rounding radius*
0 $2 $3 $4 $5 $6 $7 $8 $9 X,Y pos of 4 corners*
0 Add a 4 corners polygon primitive as box body*
4,1,4,$2,$3,$4,$5,$6,$7,$8,$9,$2,$3,0*
0 Add four circle primitives for the rounded corners*
1,1,$1+$1,$2,$3*
1,1,$1+$1,$4,$5*
1,1,$1+$1,$6,$7*
1,1,$1+$1,$8,$9*
0 Add four rect primitives between the rounded corners*
20,1,$1+$1,$2,$3,$4,$5,0*
20,1,$1+$1,$4,$5,$6,$7,0*
20,1,$1+$1,$6,$7,$8,$9,0*
20,1,$1+$1,$8,$9,$2,$3,0*%
G04 Aperture macros list end*
%ADD10RoundRect,0.218750X-0.218750X-0.256250X0.218750X-0.256250X0.218750X0.256250X-0.218750X0.256250X0*%
%ADD11RoundRect,0.125000X-0.425000X0.125000X-0.425000X-0.125000X0.425000X-0.125000X0.425000X0.125000X0*%
%ADD12RoundRect,0.250000X-0.600000X0.350000X-0.600000X-0.350000X0.600000X-0.350000X0.600000X0.350000X0*%
%ADD13R,1.600000X0.850000*%
%ADD14RoundRect,0.135000X-0.185000X0.135000X-0.185000X-0.135000X0.185000X-0.135000X0.185000X0.135000X0*%
%ADD15RoundRect,0.140000X0.140000X0.170000X-0.140000X0.170000X-0.140000X-0.170000X0.140000X-0.170000X0*%
%ADD16RoundRect,0.140000X-0.170000X0.140000X-0.170000X-0.140000X0.170000X-0.140000X0.170000X0.140000X0*%
%ADD17RoundRect,0.135000X0.185000X-0.135000X0.185000X0.135000X-0.185000X0.135000X-0.185000X-0.135000X0*%
%ADD18RoundRect,0.135000X-0.135000X-0.185000X0.135000X-0.185000X0.135000X0.185000X-0.135000X0.185000X0*%
%ADD19RoundRect,0.150000X-0.825000X-0.150000X0.825000X-0.150000X0.825000X0.150000X-0.825000X0.150000X0*%
%ADD20RoundRect,0.150000X-0.512500X-0.150000X0.512500X-0.150000X0.512500X0.150000X-0.512500X0.150000X0*%
%ADD21RoundRect,0.150000X-0.587500X-0.150000X0.587500X-0.150000X0.587500X0.150000X-0.587500X0.150000X0*%
%ADD22RoundRect,0.135000X0.135000X0.185000X-0.135000X0.185000X-0.135000X-0.185000X0.135000X-0.185000X0*%
%ADD23RoundRect,0.140000X-0.140000X-0.170000X0.140000X-0.170000X0.140000X0.170000X-0.140000X0.170000X0*%
%ADD24RoundRect,0.250000X1.075000X-0.375000X1.075000X0.375000X-1.075000X0.375000X-1.075000X-0.375000X0*%
%ADD25RoundRect,0.140000X0.170000X-0.140000X0.170000X0.140000X-0.170000X0.140000X-0.170000X-0.140000X0*%
G04 APERTURE END LIST*
D10*
%TO.C,D3*%
X74652500Y-68350000D03*
X76227500Y-68350000D03*
%TD*%
D11*
%TO.C,J1*%
X99225000Y-57225000D03*
X99225000Y-58025000D03*
X99225000Y-58825000D03*
X99225000Y-59625000D03*
X99225000Y-60425000D03*
X99225000Y-61225000D03*
X99225000Y-62025000D03*
X99225000Y-62825000D03*
D12*
X100625000Y-55925000D03*
X100625000Y-64125000D03*
%TD*%
D13*
%TO.C,D4*%
X73430000Y-51960000D03*
X73430000Y-53710000D03*
X76930000Y-53710000D03*
X76930000Y-51960000D03*
%TD*%
D14*
%TO.C,R3*%
X70875000Y-60815000D03*
X70875000Y-61835000D03*
%TD*%
D15*
%TO.C,C7*%
X63955000Y-59945000D03*
X62995000Y-59945000D03*
%TD*%
D16*
%TO.C,C5*%
X93925000Y-57045000D03*
X93925000Y-58005000D03*
%TD*%
D17*
%TO.C,R12*%
X71835000Y-66905000D03*
X71835000Y-65885000D03*
%TD*%
D18*
%TO.C,R9*%
X59420000Y-60940000D03*
X60440000Y-60940000D03*
%TD*%
D19*
%TO.C,U1*%
X73150000Y-56190000D03*
X73150000Y-57460000D03*
X73150000Y-58730000D03*
X73150000Y-60000000D03*
X73150000Y-61270000D03*
X73150000Y-62540000D03*
X73150000Y-63810000D03*
X78100000Y-63810000D03*
X78100000Y-62540000D03*
X78100000Y-61270000D03*
X78100000Y-60000000D03*
X78100000Y-58730000D03*
X78100000Y-57460000D03*
X78100000Y-56190000D03*
%TD*%
D20*
%TO.C,U2*%
X90127500Y-57045000D03*
X90127500Y-58945000D03*
X92402500Y-57995000D03*
%TD*%
D21*
%TO.C,Q1*%
X67252500Y-65620000D03*
X67252500Y-67520000D03*
X69127500Y-66570000D03*
%TD*%
D18*
%TO.C,R13*%
X77715000Y-68435000D03*
X78735000Y-68435000D03*
%TD*%
D17*
%TO.C,R1*%
X70945000Y-57385000D03*
X70945000Y-56365000D03*
%TD*%
D22*
%TO.C,R18*%
X84880000Y-56295000D03*
X83860000Y-56295000D03*
%TD*%
D23*
%TO.C,C18*%
X87705000Y-60785000D03*
X88665000Y-60785000D03*
%TD*%
D22*
%TO.C,R7*%
X84650000Y-58460000D03*
X83630000Y-58460000D03*
%TD*%
D18*
%TO.C,R11*%
X59405000Y-59945000D03*
X60425000Y-59945000D03*
%TD*%
D21*
%TO.C,Q2*%
X83457500Y-59925000D03*
X83457500Y-61825000D03*
X85332500Y-60875000D03*
%TD*%
D15*
%TO.C,C13*%
X82585000Y-57385000D03*
X81625000Y-57385000D03*
%TD*%
D24*
%TO.C,D1*%
X57670000Y-66400000D03*
X57670000Y-63600000D03*
%TD*%
D17*
%TO.C,R8*%
X70825000Y-66915000D03*
X70825000Y-65895000D03*
%TD*%
%TO.C,R16*%
X80225000Y-57955000D03*
X80225000Y-56935000D03*
%TD*%
D18*
%TO.C,R14*%
X68221000Y-60627000D03*
X69241000Y-60627000D03*
%TD*%
D22*
%TO.C,R6*%
X84970000Y-64635000D03*
X83950000Y-64635000D03*
%TD*%
D23*
%TO.C,C9*%
X80715000Y-61105000D03*
X81675000Y-61105000D03*
%TD*%
D18*
%TO.C,R4*%
X80615000Y-63965000D03*
X81635000Y-63965000D03*
%TD*%
D23*
%TO.C,C8*%
X75235000Y-65515000D03*
X76195000Y-65515000D03*
%TD*%
D24*
%TO.C,D2*%
X57700000Y-56400000D03*
X57700000Y-53600000D03*
%TD*%
D16*
%TO.C,C3*%
X78585000Y-51975000D03*
X78585000Y-52935000D03*
%TD*%
D22*
%TO.C,R17*%
X82605000Y-58485000D03*
X81585000Y-58485000D03*
%TD*%
D23*
%TO.C,C16*%
X87705000Y-61725000D03*
X88665000Y-61725000D03*
%TD*%
D25*
%TO.C,C1*%
X69385000Y-57345000D03*
X69385000Y-56385000D03*
%TD*%
D16*
%TO.C,C2*%
X70865000Y-58865000D03*
X70865000Y-59825000D03*
%TD*%
D18*
%TO.C,R15*%
X68165000Y-61675000D03*
X69185000Y-61675000D03*
%TD*%
D14*
%TO.C,R2*%
X70865000Y-62715000D03*
X70865000Y-63735000D03*
%TD*%
D23*
%TO.C,C12*%
X87685000Y-58955000D03*
X88645000Y-58955000D03*
%TD*%
D16*
%TO.C,C11*%
X85855000Y-56240000D03*
X85855000Y-57200000D03*
%TD*%
D15*
%TO.C,C4*%
X63955000Y-60895000D03*
X62995000Y-60895000D03*
%TD*%
D16*
%TO.C,C6*%
X68140000Y-62780000D03*
X68140000Y-63740000D03*
%TD*%
D18*
%TO.C,R5*%
X80675000Y-62795000D03*
X81695000Y-62795000D03*
%TD*%
D15*
%TO.C,C14*%
X63945000Y-58985000D03*
X62985000Y-58985000D03*
%TD*%
D16*
%TO.C,C10*%
X79925000Y-58965000D03*
X79925000Y-59925000D03*
%TD*%
D20*
%TO.C,U4*%
X90147500Y-60815000D03*
X90147500Y-61765000D03*
X90147500Y-62715000D03*
X92422500Y-62715000D03*
X92422500Y-60815000D03*
%TD*%
D25*
%TO.C,C17*%
X93955000Y-62085000D03*
X93955000Y-61125000D03*
%TD*%
M02*
