%TF.GenerationSoftware,KiCad,Pcbnew,7.0.10+1*%
%TF.CreationDate,2024-03-12T10:53:23+01:00*%
%TF.ProjectId,IR-sensor,49522d73-656e-4736-9f72-2e6b69636164,rev?*%
%TF.SameCoordinates,Original*%
%TF.FileFunction,Copper,L4,Bot*%
%TF.FilePolarity,Positive*%
%FSLAX46Y46*%
G04 Gerber Fmt 4.6, Leading zero omitted, Abs format (unit mm)*
G04 Created by KiCad (PCBNEW 7.0.10+1) date 2024-03-12 10:53:23*
%MOMM*%
%LPD*%
G01*
G04 APERTURE LIST*
%TA.AperFunction,ComponentPad*%
%ADD10R,1.800000X1.800000*%
%TD*%
%TA.AperFunction,ComponentPad*%
%ADD11C,1.800000*%
%TD*%
%TA.AperFunction,ViaPad*%
%ADD12C,0.800000*%
%TD*%
%TA.AperFunction,Conductor*%
%ADD13C,0.250000*%
%TD*%
G04 APERTURE END LIST*
D10*
%TO.P,D5,1,K*%
%TO.N,Net-(D2-K)*%
X62535000Y-56275000D03*
D11*
%TO.P,D5,2,A*%
%TO.N,GND*%
X62535000Y-53735000D03*
%TD*%
D10*
%TO.P,D6,1,K*%
%TO.N,Net-(D1-K)*%
X62535000Y-66275000D03*
D11*
%TO.P,D6,2,A*%
%TO.N,Net-(D1-A)*%
X62535000Y-63735000D03*
%TD*%
D12*
%TO.N,Net-(U1C-+)*%
X79800000Y-61270000D03*
X69858973Y-62095252D03*
%TO.N,GND*%
X70000000Y-58900000D03*
X61830000Y-59980000D03*
X87668939Y-62791098D03*
X61830000Y-60880000D03*
X71700000Y-53600000D03*
X95000000Y-56700000D03*
X79500000Y-53000000D03*
X70146738Y-61085451D03*
X58500000Y-52230000D03*
X68560000Y-67550000D03*
X87600000Y-59900000D03*
X61880000Y-58990000D03*
X85800000Y-58555000D03*
X73370000Y-68500000D03*
X80824807Y-59057297D03*
X97500000Y-61200000D03*
X97799990Y-58800000D03*
X81180000Y-61960000D03*
X72970000Y-66870000D03*
X83420000Y-63100000D03*
X57000000Y-52230000D03*
X97500000Y-63100000D03*
X88580000Y-57020000D03*
X92308008Y-61768008D03*
%TO.N,Net-(U1B-+)*%
X71680000Y-56190000D03*
X71724448Y-61269751D03*
%TO.N,/PWM_SEND*%
X96351041Y-57951041D03*
X70824996Y-67820000D03*
%TO.N,/PWM_RCV*%
X83630000Y-57470000D03*
X94070000Y-59490000D03*
%TO.N,+2V5*%
X88781730Y-62774323D03*
X74040000Y-65585000D03*
X70026346Y-60042373D03*
%TO.N,+5V*%
X65010000Y-59990000D03*
X97200000Y-56800000D03*
X79564166Y-51951960D03*
X95100000Y-58000000D03*
X65000000Y-58900000D03*
X65000000Y-61000000D03*
%TO.N,Net-(Q2-D)*%
X85450000Y-59800000D03*
X81100000Y-56525000D03*
%TO.N,-2V5*%
X88670000Y-59930000D03*
X81800000Y-59925000D03*
X77260000Y-65530000D03*
%TO.N,/INDICATOR*%
X98340000Y-55660000D03*
X79990000Y-68530000D03*
X96005851Y-61005851D03*
%TD*%
D13*
%TO.N,Net-(U1C-+)*%
X72045464Y-62044751D02*
X69909474Y-62044751D01*
X72390215Y-61700000D02*
X72045464Y-62044751D01*
X79370000Y-61700000D02*
X72390215Y-61700000D01*
X69909474Y-62044751D02*
X69858973Y-62095252D01*
X79800000Y-61270000D02*
X79370000Y-61700000D01*
%TO.N,Net-(U1B-+)*%
X71724448Y-61269751D02*
X71724448Y-56234448D01*
X71724448Y-56234448D02*
X71680000Y-56190000D01*
%TO.N,/PWM_SEND*%
X87905000Y-67695000D02*
X96351041Y-59248959D01*
X70824996Y-67820000D02*
X70999996Y-67645000D01*
X96351041Y-59248959D02*
X96351041Y-57951041D01*
X70945000Y-67725000D02*
X70975000Y-67695000D01*
X70975000Y-67695000D02*
X87905000Y-67695000D01*
%TO.N,/PWM_RCV*%
X89326016Y-59490000D02*
X94070000Y-59490000D01*
X87306016Y-57470000D02*
X89326016Y-59490000D01*
X94070000Y-59490000D02*
X94160000Y-59580000D01*
X83630000Y-57470000D02*
X87306016Y-57470000D01*
%TO.N,Net-(Q2-D)*%
X81100000Y-57550000D02*
X83350000Y-59800000D01*
X81100000Y-56525000D02*
X81100000Y-57550000D01*
X83350000Y-59800000D02*
X85450000Y-59800000D01*
%TO.N,/INDICATOR*%
X96005851Y-61005851D02*
X88541702Y-68470000D01*
X88541702Y-68470000D02*
X80150000Y-68470000D01*
X96825000Y-58573098D02*
X96825000Y-60186702D01*
X96825000Y-60186702D02*
X96005851Y-61005851D01*
X98340000Y-57058098D02*
X96825000Y-58573098D01*
X98340000Y-55660000D02*
X98340000Y-57058098D01*
%TD*%
M02*
