%TF.GenerationSoftware,KiCad,Pcbnew,7.0.10+1*%
%TF.CreationDate,2024-03-12T10:53:23+01:00*%
%TF.ProjectId,IR-sensor,49522d73-656e-4736-9f72-2e6b69636164,rev?*%
%TF.SameCoordinates,Original*%
%TF.FileFunction,Legend,Top*%
%TF.FilePolarity,Positive*%
%FSLAX46Y46*%
G04 Gerber Fmt 4.6, Leading zero omitted, Abs format (unit mm)*
G04 Created by KiCad (PCBNEW 7.0.10+1) date 2024-03-12 10:53:23*
%MOMM*%
%LPD*%
G01*
G04 APERTURE LIST*
%ADD10C,0.100000*%
%ADD11C,0.150000*%
%ADD12C,0.120000*%
G04 APERTURE END LIST*
D10*
X51812419Y-63616115D02*
X50812419Y-63616115D01*
X50812419Y-63616115D02*
X50812419Y-63378020D01*
X50812419Y-63378020D02*
X50860038Y-63235163D01*
X50860038Y-63235163D02*
X50955276Y-63139925D01*
X50955276Y-63139925D02*
X51050514Y-63092306D01*
X51050514Y-63092306D02*
X51240990Y-63044687D01*
X51240990Y-63044687D02*
X51383847Y-63044687D01*
X51383847Y-63044687D02*
X51574323Y-63092306D01*
X51574323Y-63092306D02*
X51669561Y-63139925D01*
X51669561Y-63139925D02*
X51764800Y-63235163D01*
X51764800Y-63235163D02*
X51812419Y-63378020D01*
X51812419Y-63378020D02*
X51812419Y-63616115D01*
X51764800Y-62235163D02*
X51812419Y-62330401D01*
X51812419Y-62330401D02*
X51812419Y-62520877D01*
X51812419Y-62520877D02*
X51764800Y-62616115D01*
X51764800Y-62616115D02*
X51669561Y-62663734D01*
X51669561Y-62663734D02*
X51288609Y-62663734D01*
X51288609Y-62663734D02*
X51193371Y-62616115D01*
X51193371Y-62616115D02*
X51145752Y-62520877D01*
X51145752Y-62520877D02*
X51145752Y-62330401D01*
X51145752Y-62330401D02*
X51193371Y-62235163D01*
X51193371Y-62235163D02*
X51288609Y-62187544D01*
X51288609Y-62187544D02*
X51383847Y-62187544D01*
X51383847Y-62187544D02*
X51479085Y-62663734D01*
X51145752Y-61854210D02*
X51812419Y-61616115D01*
X51812419Y-61616115D02*
X51145752Y-61378020D01*
X51764800Y-60616115D02*
X51812419Y-60711353D01*
X51812419Y-60711353D02*
X51812419Y-60901829D01*
X51812419Y-60901829D02*
X51764800Y-60997067D01*
X51764800Y-60997067D02*
X51669561Y-61044686D01*
X51669561Y-61044686D02*
X51288609Y-61044686D01*
X51288609Y-61044686D02*
X51193371Y-60997067D01*
X51193371Y-60997067D02*
X51145752Y-60901829D01*
X51145752Y-60901829D02*
X51145752Y-60711353D01*
X51145752Y-60711353D02*
X51193371Y-60616115D01*
X51193371Y-60616115D02*
X51288609Y-60568496D01*
X51288609Y-60568496D02*
X51383847Y-60568496D01*
X51383847Y-60568496D02*
X51479085Y-61044686D01*
X51145752Y-60139924D02*
X51812419Y-60139924D01*
X51240990Y-60139924D02*
X51193371Y-60092305D01*
X51193371Y-60092305D02*
X51145752Y-59997067D01*
X51145752Y-59997067D02*
X51145752Y-59854210D01*
X51145752Y-59854210D02*
X51193371Y-59758972D01*
X51193371Y-59758972D02*
X51288609Y-59711353D01*
X51288609Y-59711353D02*
X51812419Y-59711353D01*
X51145752Y-59378019D02*
X51145752Y-58997067D01*
X50812419Y-59235162D02*
X51669561Y-59235162D01*
X51669561Y-59235162D02*
X51764800Y-59187543D01*
X51764800Y-59187543D02*
X51812419Y-59092305D01*
X51812419Y-59092305D02*
X51812419Y-58997067D01*
X53422419Y-63616115D02*
X52422419Y-63616115D01*
X53422419Y-62568497D02*
X52946228Y-62901830D01*
X53422419Y-63139925D02*
X52422419Y-63139925D01*
X52422419Y-63139925D02*
X52422419Y-62758973D01*
X52422419Y-62758973D02*
X52470038Y-62663735D01*
X52470038Y-62663735D02*
X52517657Y-62616116D01*
X52517657Y-62616116D02*
X52612895Y-62568497D01*
X52612895Y-62568497D02*
X52755752Y-62568497D01*
X52755752Y-62568497D02*
X52850990Y-62616116D01*
X52850990Y-62616116D02*
X52898609Y-62663735D01*
X52898609Y-62663735D02*
X52946228Y-62758973D01*
X52946228Y-62758973D02*
X52946228Y-63139925D01*
X53041466Y-62139925D02*
X53041466Y-61378021D01*
X53374800Y-60949449D02*
X53422419Y-60854211D01*
X53422419Y-60854211D02*
X53422419Y-60663735D01*
X53422419Y-60663735D02*
X53374800Y-60568497D01*
X53374800Y-60568497D02*
X53279561Y-60520878D01*
X53279561Y-60520878D02*
X53231942Y-60520878D01*
X53231942Y-60520878D02*
X53136704Y-60568497D01*
X53136704Y-60568497D02*
X53089085Y-60663735D01*
X53089085Y-60663735D02*
X53089085Y-60806592D01*
X53089085Y-60806592D02*
X53041466Y-60901830D01*
X53041466Y-60901830D02*
X52946228Y-60949449D01*
X52946228Y-60949449D02*
X52898609Y-60949449D01*
X52898609Y-60949449D02*
X52803371Y-60901830D01*
X52803371Y-60901830D02*
X52755752Y-60806592D01*
X52755752Y-60806592D02*
X52755752Y-60663735D01*
X52755752Y-60663735D02*
X52803371Y-60568497D01*
X53374800Y-59711354D02*
X53422419Y-59806592D01*
X53422419Y-59806592D02*
X53422419Y-59997068D01*
X53422419Y-59997068D02*
X53374800Y-60092306D01*
X53374800Y-60092306D02*
X53279561Y-60139925D01*
X53279561Y-60139925D02*
X52898609Y-60139925D01*
X52898609Y-60139925D02*
X52803371Y-60092306D01*
X52803371Y-60092306D02*
X52755752Y-59997068D01*
X52755752Y-59997068D02*
X52755752Y-59806592D01*
X52755752Y-59806592D02*
X52803371Y-59711354D01*
X52803371Y-59711354D02*
X52898609Y-59663735D01*
X52898609Y-59663735D02*
X52993847Y-59663735D01*
X52993847Y-59663735D02*
X53089085Y-60139925D01*
X52755752Y-59235163D02*
X53422419Y-59235163D01*
X52850990Y-59235163D02*
X52803371Y-59187544D01*
X52803371Y-59187544D02*
X52755752Y-59092306D01*
X52755752Y-59092306D02*
X52755752Y-58949449D01*
X52755752Y-58949449D02*
X52803371Y-58854211D01*
X52803371Y-58854211D02*
X52898609Y-58806592D01*
X52898609Y-58806592D02*
X53422419Y-58806592D01*
X53374800Y-58378020D02*
X53422419Y-58282782D01*
X53422419Y-58282782D02*
X53422419Y-58092306D01*
X53422419Y-58092306D02*
X53374800Y-57997068D01*
X53374800Y-57997068D02*
X53279561Y-57949449D01*
X53279561Y-57949449D02*
X53231942Y-57949449D01*
X53231942Y-57949449D02*
X53136704Y-57997068D01*
X53136704Y-57997068D02*
X53089085Y-58092306D01*
X53089085Y-58092306D02*
X53089085Y-58235163D01*
X53089085Y-58235163D02*
X53041466Y-58330401D01*
X53041466Y-58330401D02*
X52946228Y-58378020D01*
X52946228Y-58378020D02*
X52898609Y-58378020D01*
X52898609Y-58378020D02*
X52803371Y-58330401D01*
X52803371Y-58330401D02*
X52755752Y-58235163D01*
X52755752Y-58235163D02*
X52755752Y-58092306D01*
X52755752Y-58092306D02*
X52803371Y-57997068D01*
X53422419Y-57378020D02*
X53374800Y-57473258D01*
X53374800Y-57473258D02*
X53327180Y-57520877D01*
X53327180Y-57520877D02*
X53231942Y-57568496D01*
X53231942Y-57568496D02*
X52946228Y-57568496D01*
X52946228Y-57568496D02*
X52850990Y-57520877D01*
X52850990Y-57520877D02*
X52803371Y-57473258D01*
X52803371Y-57473258D02*
X52755752Y-57378020D01*
X52755752Y-57378020D02*
X52755752Y-57235163D01*
X52755752Y-57235163D02*
X52803371Y-57139925D01*
X52803371Y-57139925D02*
X52850990Y-57092306D01*
X52850990Y-57092306D02*
X52946228Y-57044687D01*
X52946228Y-57044687D02*
X53231942Y-57044687D01*
X53231942Y-57044687D02*
X53327180Y-57092306D01*
X53327180Y-57092306D02*
X53374800Y-57139925D01*
X53374800Y-57139925D02*
X53422419Y-57235163D01*
X53422419Y-57235163D02*
X53422419Y-57378020D01*
X53422419Y-56616115D02*
X52755752Y-56616115D01*
X52946228Y-56616115D02*
X52850990Y-56568496D01*
X52850990Y-56568496D02*
X52803371Y-56520877D01*
X52803371Y-56520877D02*
X52755752Y-56425639D01*
X52755752Y-56425639D02*
X52755752Y-56330401D01*
X55032419Y-63044687D02*
X54556228Y-63378020D01*
X55032419Y-63616115D02*
X54032419Y-63616115D01*
X54032419Y-63616115D02*
X54032419Y-63235163D01*
X54032419Y-63235163D02*
X54080038Y-63139925D01*
X54080038Y-63139925D02*
X54127657Y-63092306D01*
X54127657Y-63092306D02*
X54222895Y-63044687D01*
X54222895Y-63044687D02*
X54365752Y-63044687D01*
X54365752Y-63044687D02*
X54460990Y-63092306D01*
X54460990Y-63092306D02*
X54508609Y-63139925D01*
X54508609Y-63139925D02*
X54556228Y-63235163D01*
X54556228Y-63235163D02*
X54556228Y-63616115D01*
X54984800Y-62235163D02*
X55032419Y-62330401D01*
X55032419Y-62330401D02*
X55032419Y-62520877D01*
X55032419Y-62520877D02*
X54984800Y-62616115D01*
X54984800Y-62616115D02*
X54889561Y-62663734D01*
X54889561Y-62663734D02*
X54508609Y-62663734D01*
X54508609Y-62663734D02*
X54413371Y-62616115D01*
X54413371Y-62616115D02*
X54365752Y-62520877D01*
X54365752Y-62520877D02*
X54365752Y-62330401D01*
X54365752Y-62330401D02*
X54413371Y-62235163D01*
X54413371Y-62235163D02*
X54508609Y-62187544D01*
X54508609Y-62187544D02*
X54603847Y-62187544D01*
X54603847Y-62187544D02*
X54699085Y-62663734D01*
X54365752Y-61854210D02*
X55032419Y-61616115D01*
X55032419Y-61616115D02*
X54365752Y-61378020D01*
X54746704Y-60282781D02*
X54746704Y-59806591D01*
X55032419Y-60378019D02*
X54032419Y-60044686D01*
X54032419Y-60044686D02*
X55032419Y-59711353D01*
X55032419Y-58854210D02*
X55032419Y-59425638D01*
X55032419Y-59139924D02*
X54032419Y-59139924D01*
X54032419Y-59139924D02*
X54175276Y-59235162D01*
X54175276Y-59235162D02*
X54270514Y-59330400D01*
X54270514Y-59330400D02*
X54318133Y-59425638D01*
D11*
X71965714Y-52414819D02*
X71394286Y-52414819D01*
X71680000Y-52414819D02*
X71680000Y-51414819D01*
X71680000Y-51414819D02*
X71584762Y-51557676D01*
X71584762Y-51557676D02*
X71489524Y-51652914D01*
X71489524Y-51652914D02*
X71394286Y-51700533D01*
D12*
%TO.C,D3*%
X73955000Y-67615000D02*
X73955000Y-69085000D01*
X73955000Y-69085000D02*
X76240000Y-69085000D01*
X76240000Y-67615000D02*
X73955000Y-67615000D01*
%TO.C,J1*%
X99515000Y-55615000D02*
X99065000Y-55615000D01*
X99065000Y-55615000D02*
X99065000Y-56715000D01*
X99065000Y-56715000D02*
X98675000Y-56715000D01*
X101285000Y-56785000D02*
X101285000Y-63265000D01*
X99515000Y-64435000D02*
X99065000Y-64435000D01*
X99065000Y-64435000D02*
X99065000Y-63335000D01*
%TO.C,D4*%
X72230000Y-50885000D02*
X78130000Y-50885000D01*
X72230000Y-54785000D02*
X78130000Y-54785000D01*
X78130000Y-54785000D02*
X78130000Y-53710000D01*
%TO.C,R3*%
X71255000Y-61171359D02*
X71255000Y-61478641D01*
X70495000Y-61171359D02*
X70495000Y-61478641D01*
%TO.C,C7*%
X63582836Y-60305000D02*
X63367164Y-60305000D01*
X63582836Y-59585000D02*
X63367164Y-59585000D01*
%TO.C,D5*%
X60990000Y-57565000D02*
X64080000Y-57565000D01*
X62535462Y-52015001D02*
G75*
G03*
X60990170Y-57564999I-462J-2989999D01*
G01*
X64079830Y-57565000D02*
G75*
G03*
X62534538Y-52015000I-1544830J2560000D01*
G01*
X65035000Y-55005000D02*
G75*
G03*
X60035000Y-55005000I-2500000J0D01*
G01*
X60035000Y-55005000D02*
G75*
G03*
X65035000Y-55005000I2500000J0D01*
G01*
%TO.C,C5*%
X94285000Y-57417164D02*
X94285000Y-57632836D01*
X93565000Y-57417164D02*
X93565000Y-57632836D01*
%TO.C,R12*%
X71455000Y-66548641D02*
X71455000Y-66241359D01*
X72215000Y-66548641D02*
X72215000Y-66241359D01*
%TO.C,R9*%
X59776359Y-60560000D02*
X60083641Y-60560000D01*
X59776359Y-61320000D02*
X60083641Y-61320000D01*
%TO.C,U1*%
X75625000Y-55565000D02*
X72175000Y-55565000D01*
X75625000Y-55565000D02*
X77575000Y-55565000D01*
X75625000Y-64435000D02*
X73675000Y-64435000D01*
X75625000Y-64435000D02*
X77575000Y-64435000D01*
%TO.C,U2*%
X91265000Y-56435000D02*
X89465000Y-56435000D01*
X91265000Y-56435000D02*
X92065000Y-56435000D01*
X91265000Y-59555000D02*
X90465000Y-59555000D01*
X91265000Y-59555000D02*
X92065000Y-59555000D01*
%TO.C,Q1*%
X68190000Y-65010000D02*
X66515000Y-65010000D01*
X68190000Y-65010000D02*
X68840000Y-65010000D01*
X68190000Y-68130000D02*
X67540000Y-68130000D01*
X68190000Y-68130000D02*
X68840000Y-68130000D01*
%TO.C,R13*%
X78071359Y-68055000D02*
X78378641Y-68055000D01*
X78071359Y-68815000D02*
X78378641Y-68815000D01*
%TO.C,R1*%
X70565000Y-57028641D02*
X70565000Y-56721359D01*
X71325000Y-57028641D02*
X71325000Y-56721359D01*
%TO.C,R18*%
X84523641Y-56675000D02*
X84216359Y-56675000D01*
X84523641Y-55915000D02*
X84216359Y-55915000D01*
%TO.C,C18*%
X88077164Y-60425000D02*
X88292836Y-60425000D01*
X88077164Y-61145000D02*
X88292836Y-61145000D01*
%TO.C,R7*%
X84293641Y-58840000D02*
X83986359Y-58840000D01*
X84293641Y-58080000D02*
X83986359Y-58080000D01*
%TO.C,R11*%
X59761359Y-59565000D02*
X60068641Y-59565000D01*
X59761359Y-60325000D02*
X60068641Y-60325000D01*
%TO.C,Q2*%
X84395000Y-59315000D02*
X82720000Y-59315000D01*
X84395000Y-59315000D02*
X85045000Y-59315000D01*
X84395000Y-62435000D02*
X83745000Y-62435000D01*
X84395000Y-62435000D02*
X85045000Y-62435000D01*
%TO.C,C13*%
X82212836Y-57745000D02*
X81997164Y-57745000D01*
X82212836Y-57025000D02*
X81997164Y-57025000D01*
%TO.C,D1*%
X56085000Y-67285000D02*
X59255000Y-67285000D01*
X59255000Y-67285000D02*
X59255000Y-63400000D01*
X56085000Y-63400000D02*
X56085000Y-67285000D01*
%TO.C,R8*%
X70445000Y-66558641D02*
X70445000Y-66251359D01*
X71205000Y-66558641D02*
X71205000Y-66251359D01*
%TO.C,D6*%
X60990000Y-67565000D02*
X64080000Y-67565000D01*
X62535462Y-62015001D02*
G75*
G03*
X60990170Y-67564999I-462J-2989999D01*
G01*
X64079830Y-67565000D02*
G75*
G03*
X62534538Y-62015000I-1544830J2560000D01*
G01*
X65035000Y-65005000D02*
G75*
G03*
X60035000Y-65005000I-2500000J0D01*
G01*
X60035000Y-65005000D02*
G75*
G03*
X65035000Y-65005000I2500000J0D01*
G01*
%TO.C,R16*%
X79845000Y-57598641D02*
X79845000Y-57291359D01*
X80605000Y-57598641D02*
X80605000Y-57291359D01*
%TO.C,R14*%
X68577359Y-60247000D02*
X68884641Y-60247000D01*
X68577359Y-61007000D02*
X68884641Y-61007000D01*
%TO.C,R6*%
X84613641Y-65015000D02*
X84306359Y-65015000D01*
X84613641Y-64255000D02*
X84306359Y-64255000D01*
%TO.C,C9*%
X81087164Y-60745000D02*
X81302836Y-60745000D01*
X81087164Y-61465000D02*
X81302836Y-61465000D01*
%TO.C,R4*%
X80971359Y-63585000D02*
X81278641Y-63585000D01*
X80971359Y-64345000D02*
X81278641Y-64345000D01*
%TO.C,C8*%
X75607164Y-65155000D02*
X75822836Y-65155000D01*
X75607164Y-65875000D02*
X75822836Y-65875000D01*
%TO.C,D2*%
X56115000Y-57285000D02*
X59285000Y-57285000D01*
X59285000Y-57285000D02*
X59285000Y-53400000D01*
X56115000Y-53400000D02*
X56115000Y-57285000D01*
%TO.C,C3*%
X78945000Y-52347164D02*
X78945000Y-52562836D01*
X78225000Y-52347164D02*
X78225000Y-52562836D01*
%TO.C,R17*%
X82248641Y-58865000D02*
X81941359Y-58865000D01*
X82248641Y-58105000D02*
X81941359Y-58105000D01*
%TO.C,C16*%
X88077164Y-61365000D02*
X88292836Y-61365000D01*
X88077164Y-62085000D02*
X88292836Y-62085000D01*
%TO.C,C1*%
X69025000Y-56972836D02*
X69025000Y-56757164D01*
X69745000Y-56972836D02*
X69745000Y-56757164D01*
%TO.C,C2*%
X71225000Y-59237164D02*
X71225000Y-59452836D01*
X70505000Y-59237164D02*
X70505000Y-59452836D01*
%TO.C,R15*%
X68521359Y-61295000D02*
X68828641Y-61295000D01*
X68521359Y-62055000D02*
X68828641Y-62055000D01*
%TO.C,R2*%
X71245000Y-63071359D02*
X71245000Y-63378641D01*
X70485000Y-63071359D02*
X70485000Y-63378641D01*
%TO.C,C12*%
X88057164Y-58595000D02*
X88272836Y-58595000D01*
X88057164Y-59315000D02*
X88272836Y-59315000D01*
%TO.C,C11*%
X86215000Y-56612164D02*
X86215000Y-56827836D01*
X85495000Y-56612164D02*
X85495000Y-56827836D01*
%TO.C,C4*%
X63582836Y-61255000D02*
X63367164Y-61255000D01*
X63582836Y-60535000D02*
X63367164Y-60535000D01*
%TO.C,C6*%
X68500000Y-63152164D02*
X68500000Y-63367836D01*
X67780000Y-63152164D02*
X67780000Y-63367836D01*
%TO.C,R5*%
X81031359Y-62415000D02*
X81338641Y-62415000D01*
X81031359Y-63175000D02*
X81338641Y-63175000D01*
%TO.C,C14*%
X63572836Y-59345000D02*
X63357164Y-59345000D01*
X63572836Y-58625000D02*
X63357164Y-58625000D01*
%TO.C,C10*%
X80285000Y-59337164D02*
X80285000Y-59552836D01*
X79565000Y-59337164D02*
X79565000Y-59552836D01*
%TO.C,U4*%
X91285000Y-60205000D02*
X89485000Y-60205000D01*
X91285000Y-60205000D02*
X92085000Y-60205000D01*
X91285000Y-63325000D02*
X90485000Y-63325000D01*
X91285000Y-63325000D02*
X92085000Y-63325000D01*
%TO.C,C17*%
X93595000Y-61712836D02*
X93595000Y-61497164D01*
X94315000Y-61712836D02*
X94315000Y-61497164D01*
%TD*%
M02*
