%TF.GenerationSoftware,KiCad,Pcbnew,7.0.10+1*%
%TF.CreationDate,2024-03-12T12:47:15+01:00*%
%TF.ProjectId,Receiver-A1,52656365-6976-4657-922d-41312e6b6963,rev?*%
%TF.SameCoordinates,Original*%
%TF.FileFunction,Copper,L4,Bot*%
%TF.FilePolarity,Positive*%
%FSLAX46Y46*%
G04 Gerber Fmt 4.6, Leading zero omitted, Abs format (unit mm)*
G04 Created by KiCad (PCBNEW 7.0.10+1) date 2024-03-12 12:47:15*
%MOMM*%
%LPD*%
G01*
G04 APERTURE LIST*
%TA.AperFunction,ComponentPad*%
%ADD10O,2.100000X1.000000*%
%TD*%
%TA.AperFunction,ComponentPad*%
%ADD11O,1.600000X1.000000*%
%TD*%
%TA.AperFunction,ViaPad*%
%ADD12C,0.600000*%
%TD*%
%TA.AperFunction,Conductor*%
%ADD13C,0.150000*%
%TD*%
%TA.AperFunction,Conductor*%
%ADD14C,0.300000*%
%TD*%
%TA.AperFunction,Conductor*%
%ADD15C,0.250000*%
%TD*%
G04 APERTURE END LIST*
D10*
%TO.P,J6,S1,SHIELD*%
%TO.N,GND*%
X56820000Y-56680000D03*
D11*
X52640000Y-56680000D03*
D10*
X56820000Y-65320000D03*
D11*
X52640000Y-65320000D03*
%TD*%
D12*
%TO.N,Net-(JP10-B)*%
X96916645Y-55697861D03*
X81420000Y-56350000D03*
X66880000Y-55610000D03*
X51260000Y-55100000D03*
X96110000Y-68650000D03*
X79170000Y-67810000D03*
X63900000Y-67670000D03*
%TO.N,/PWM_SEND_1*%
X85260000Y-58900000D03*
X85289547Y-56955000D03*
%TO.N,/PWM_SEND_0*%
X98690000Y-56590000D03*
%TO.N,/PWM_SEND_2*%
X101650000Y-64370000D03*
%TO.N,/PWM_SEND_5*%
X99190000Y-64005000D03*
%TO.N,/PWM_SEND_1*%
X96511778Y-56823169D03*
%TO.N,/PWM_SEND_4*%
X92620000Y-63420000D03*
%TO.N,/PWM_SEND_3*%
X92640000Y-59740000D03*
%TO.N,+5V*%
X69900007Y-67700007D03*
X107530000Y-63350000D03*
X100500000Y-55000000D03*
X84855000Y-67725000D03*
X54710000Y-67660000D03*
X85474280Y-54755000D03*
X55440002Y-63000000D03*
X55410000Y-59310000D03*
X106490000Y-63350000D03*
X60760236Y-54460000D03*
X76095000Y-54690000D03*
%TO.N,/PWM_SEND_1*%
X132400000Y-58100000D03*
X63100000Y-60000000D03*
%TO.N,/PWM_RCV_1*%
X57065000Y-67800000D03*
X128900002Y-63900000D03*
%TO.N,/LED_1*%
X57920000Y-67710000D03*
X139116407Y-67835646D03*
%TO.N,GND*%
X143300000Y-60600000D03*
X111500000Y-62840000D03*
X143300000Y-57800000D03*
X110670000Y-62790000D03*
X59285000Y-54595000D03*
X75450000Y-67820000D03*
X122700000Y-50700000D03*
X89433983Y-54778737D03*
X120328930Y-63375000D03*
X148320000Y-53900000D03*
X70490000Y-54685000D03*
X87033581Y-54755000D03*
X126115000Y-50700000D03*
X58600000Y-64200000D03*
X60376587Y-67733413D03*
X56266575Y-67749785D03*
X148310000Y-67690000D03*
X89400000Y-60800000D03*
X89030000Y-67730000D03*
X55170854Y-54577985D03*
X83000000Y-60800000D03*
X128400000Y-61500000D03*
X73880000Y-67880000D03*
X137900000Y-57900000D03*
X128600000Y-56500000D03*
X101900000Y-54900000D03*
X74495000Y-54645000D03*
X72078372Y-54615361D03*
X125599846Y-67650000D03*
X71480000Y-67830000D03*
X104494996Y-54699723D03*
X90954624Y-54805000D03*
X58700000Y-57800000D03*
X90650000Y-67725000D03*
X81000000Y-60900000D03*
X119169059Y-63325000D03*
X72302298Y-59052298D03*
X115648594Y-58613835D03*
X106240853Y-54666615D03*
X86625000Y-67720000D03*
X56860865Y-54635143D03*
X58680000Y-67860000D03*
X125565320Y-54175000D03*
X138000000Y-60600000D03*
%TO.N,/DOG_1*%
X145800000Y-67500000D03*
X59480000Y-67650000D03*
%TO.N,/PWM_SEND_2*%
X133100000Y-62875000D03*
X73900000Y-63600000D03*
%TO.N,/PWM_RCV_2*%
X72260000Y-67410000D03*
X136800000Y-67100000D03*
%TO.N,/LED_2*%
X140300000Y-67000000D03*
X72966719Y-66739911D03*
%TO.N,/DOG_2*%
X144600000Y-65200000D03*
X74690000Y-65410000D03*
%TO.N,/PWM_SEND_3*%
X76770000Y-60600000D03*
X132410585Y-60058324D03*
%TO.N,/PWM_RCV_3*%
X128900000Y-70800000D03*
X80880000Y-70640000D03*
%TO.N,/LED_3*%
X72848650Y-54492133D03*
X79624586Y-66075000D03*
X79300000Y-55220000D03*
X142000000Y-67800000D03*
%TO.N,/DOG_3*%
X71282003Y-54691522D03*
X143410000Y-56110000D03*
%TO.N,/PWM_SEND_0*%
X59956337Y-56185000D03*
X132100000Y-56100000D03*
%TO.N,/PWM_RCV_0*%
X58310000Y-54460000D03*
X136127298Y-53472702D03*
%TO.N,/LED_0*%
X135100000Y-55900000D03*
X57545000Y-55275000D03*
%TO.N,/DOG_0*%
X55970000Y-54615000D03*
X147800000Y-55100000D03*
%TO.N,+3.3V*%
X147000000Y-57000000D03*
X124600000Y-50800000D03*
X67600000Y-63200000D03*
X128000000Y-50700000D03*
X109600000Y-61730000D03*
X85190000Y-60070000D03*
X114270000Y-58430000D03*
X120070000Y-59710000D03*
X113020000Y-58450000D03*
%TO.N,/DOG_5*%
X90200000Y-52300000D03*
X140700000Y-53400000D03*
%TO.N,/DOG_4*%
X142000000Y-53600000D03*
X95320000Y-54150000D03*
%TO.N,Net-(U2-GPIO19{slash}U1RTS{slash}ADC2_CH8{slash}CLK_OUT2{slash}USB_D-)*%
X134400000Y-57132997D03*
X64574345Y-57315312D03*
%TO.N,Net-(U2-GPIO20{slash}U1CTS{slash}ADC2_CH9{slash}CLK_OUT1{slash}USB_D+)*%
X64600000Y-58500000D03*
X134100000Y-58000000D03*
%TO.N,/PWM_RCV_5*%
X128900000Y-64800000D03*
X88586289Y-65132811D03*
%TO.N,/PWM_SEND_4*%
X85380000Y-63610000D03*
X132200000Y-61300000D03*
%TO.N,/PWM_SEND_5*%
X87100000Y-63625000D03*
X132100000Y-62600000D03*
%TO.N,/PWM_SEND_6*%
X101300000Y-52200000D03*
X137123493Y-53385515D03*
%TO.N,/PWM_RCV_4*%
X132033280Y-54401063D03*
X93285913Y-54720913D03*
%TO.N,/LED_4*%
X133100000Y-67900000D03*
X88250000Y-67725000D03*
%TO.N,/LED_5*%
X133775000Y-60617690D03*
X87700000Y-60275000D03*
%TO.N,/PWM_RCV_6*%
X100632072Y-67100000D03*
X128473892Y-66550000D03*
%TO.N,/LED_6*%
X101600000Y-69600000D03*
X135600000Y-68000000D03*
%TO.N,/DOG_6*%
X134300000Y-54875000D03*
X105273744Y-54944302D03*
%TO.N,Net-(J8-Pin_3)*%
X71351360Y-64977526D03*
X143000000Y-64700000D03*
%TO.N,Net-(J8-Pin_2)*%
X68370000Y-66270000D03*
X144400000Y-67100000D03*
%TO.N,Net-(U2-EN)*%
X91375909Y-62613481D03*
X145800000Y-57100000D03*
X83740853Y-62676244D03*
X85040853Y-62688267D03*
X90275431Y-57295000D03*
%TO.N,Net-(U2-GPIO15{slash}U0RTS{slash}ADC2_CH4{slash}XTAL_32K_P)*%
X128500000Y-59600000D03*
X135780000Y-59540000D03*
%TO.N,Net-(U2-GPIO16{slash}U0CTS{slash}ADC2_CH5{slash}XTAL_32K_N)*%
X128521407Y-58850303D03*
X135700000Y-58600000D03*
%TO.N,Net-(U2-GPIO0{slash}BOOT)*%
X81405000Y-69885308D03*
X131800000Y-70775000D03*
%TD*%
D13*
%TO.N,Net-(JP10-B)*%
X54510000Y-55100000D02*
X55260000Y-55850000D01*
X55260000Y-55850000D02*
X59267437Y-55850000D01*
X59267437Y-55850000D02*
X59507437Y-55610000D01*
X59507437Y-55610000D02*
X66880000Y-55610000D01*
%TO.N,/LED_0*%
X133042463Y-55900000D02*
X132442463Y-55300000D01*
X132442463Y-55300000D02*
X109500000Y-55300000D01*
X71086827Y-56090000D02*
X70031827Y-55035000D01*
X109500000Y-55300000D02*
X108250000Y-56550000D01*
X70031827Y-55035000D02*
X59658173Y-55035000D01*
X108250000Y-56550000D02*
X99585356Y-56550000D01*
X59658173Y-55035000D02*
X59418173Y-55275000D01*
X97618111Y-55580000D02*
X97130945Y-55092834D01*
X97130945Y-55092834D02*
X96708498Y-55092834D01*
X96171332Y-55630000D02*
X81326827Y-55630000D01*
X59418173Y-55275000D02*
X57545000Y-55275000D01*
X99585356Y-56550000D02*
X98615356Y-55580000D01*
X135100000Y-55900000D02*
X133042463Y-55900000D01*
X81326827Y-55630000D02*
X80866827Y-56090000D01*
X80866827Y-56090000D02*
X71086827Y-56090000D01*
X96708498Y-55092834D02*
X96171332Y-55630000D01*
X98615356Y-55580000D02*
X97618111Y-55580000D01*
%TO.N,/DOG_0*%
X59695000Y-50890000D02*
X55970000Y-54615000D01*
%TO.N,/PWM_RCV_0*%
X134769596Y-52115000D02*
X110307563Y-52115000D01*
%TO.N,/DOG_0*%
X147800000Y-55100000D02*
X144080000Y-51380000D01*
%TO.N,/PWM_RCV_0*%
X136127298Y-53472702D02*
X134769596Y-52115000D01*
X110172563Y-51980000D02*
X103676947Y-51980000D01*
X103676947Y-51980000D02*
X102756947Y-52900000D01*
X61485000Y-51285000D02*
X58310000Y-54460000D01*
X102756947Y-52900000D02*
X101061701Y-52900000D01*
X101061701Y-52900000D02*
X99446701Y-51285000D01*
%TO.N,/DOG_0*%
X119630000Y-51380000D02*
X119140000Y-50890000D01*
%TO.N,/PWM_RCV_0*%
X110307563Y-52115000D02*
X110172563Y-51980000D01*
%TO.N,/DOG_0*%
X144080000Y-51380000D02*
X119630000Y-51380000D01*
X119140000Y-50890000D02*
X59695000Y-50890000D01*
%TO.N,/PWM_RCV_0*%
X99446701Y-51285000D02*
X61485000Y-51285000D01*
%TO.N,/PWM_SEND_0*%
X132100000Y-56100000D02*
X131850000Y-55850000D01*
X109050000Y-56850000D02*
X97413173Y-56850000D01*
X131850000Y-55850000D02*
X110050000Y-55850000D01*
X97413173Y-56850000D02*
X96798173Y-56235000D01*
X110050000Y-55850000D02*
X109050000Y-56850000D01*
X96798173Y-56235000D02*
X84921827Y-56235000D01*
X84921827Y-56235000D02*
X84056827Y-57100000D01*
X69625000Y-56185000D02*
X59956337Y-56185000D01*
X84056827Y-57100000D02*
X70540000Y-57100000D01*
X70540000Y-57100000D02*
X69625000Y-56185000D01*
%TO.N,/LED_3*%
X72848650Y-54492133D02*
X73576517Y-55220000D01*
X73576517Y-55220000D02*
X79300000Y-55220000D01*
%TO.N,/DOG_3*%
X71710000Y-55110000D02*
X71700481Y-55110000D01*
X71700481Y-55110000D02*
X71282003Y-54691522D01*
X109125736Y-55000000D02*
X132566727Y-55000000D01*
X132991727Y-55425000D02*
X134832537Y-55425000D01*
X71356522Y-54691522D02*
X71282003Y-54691522D01*
X97255209Y-54792834D02*
X97722375Y-55260000D01*
X72390000Y-55790000D02*
X80742563Y-55790000D01*
X71710000Y-55110000D02*
X72390000Y-55790000D01*
X80742563Y-55790000D02*
X81202563Y-55330000D01*
X95993169Y-55330000D02*
X96530335Y-54792834D01*
X81202563Y-55330000D02*
X95993169Y-55330000D01*
X96530335Y-54792834D02*
X97255209Y-54792834D01*
X97722375Y-55260000D02*
X98784264Y-55260000D01*
X98784264Y-55260000D02*
X99724264Y-56200000D01*
X99724264Y-56200000D02*
X107925736Y-56200000D01*
X107925736Y-56200000D02*
X109125736Y-55000000D01*
X132566727Y-55000000D02*
X132991727Y-55425000D01*
X134832537Y-55425000D02*
X134882537Y-55375000D01*
X134882537Y-55375000D02*
X142675000Y-55375000D01*
X142675000Y-55375000D02*
X143410000Y-56110000D01*
%TO.N,Net-(JP10-B)*%
X70962563Y-56390000D02*
X81380000Y-56390000D01*
X81380000Y-56390000D02*
X81420000Y-56350000D01*
X66880000Y-55610000D02*
X70182563Y-55610000D01*
X70182563Y-55610000D02*
X70962563Y-56390000D01*
X96679506Y-55935000D02*
X96916645Y-55697861D01*
%TO.N,/PWM_SEND_1*%
X96338609Y-56650000D02*
X96511778Y-56823169D01*
%TO.N,Net-(JP10-B)*%
X81835000Y-55935000D02*
X96679506Y-55935000D01*
X81420000Y-56350000D02*
X81835000Y-55935000D01*
%TO.N,/PWM_SEND_1*%
X85289547Y-56955000D02*
X85594547Y-56650000D01*
X85594547Y-56650000D02*
X96338609Y-56650000D01*
%TO.N,/PWM_RCV_4*%
X125927208Y-54700000D02*
X108700000Y-54700000D01*
X108700000Y-54700000D02*
X107725000Y-55675000D01*
X107725000Y-55675000D02*
X100361827Y-55675000D01*
X96177992Y-54720913D02*
X93285913Y-54720913D01*
X132033280Y-54401063D02*
X126226145Y-54401063D01*
X100361827Y-55675000D02*
X99407740Y-54720913D01*
X97607552Y-54720913D02*
X97379473Y-54492834D01*
X97379473Y-54492834D02*
X96406071Y-54492834D01*
X96406071Y-54492834D02*
X96177992Y-54720913D01*
X99407740Y-54720913D02*
X97607552Y-54720913D01*
X126226145Y-54401063D02*
X125927208Y-54700000D01*
%TO.N,/PWM_SEND_1*%
X85260000Y-58900000D02*
X97125529Y-58900000D01*
X111854771Y-58475000D02*
X112704771Y-57625000D01*
D14*
%TO.N,Net-(U2-GPIO19{slash}U1RTS{slash}ADC2_CH8{slash}CLK_OUT2{slash}USB_D-)*%
X64574345Y-57315312D02*
X64884033Y-57625000D01*
X97233803Y-57625000D02*
X110075000Y-57625000D01*
%TO.N,Net-(U2-GPIO20{slash}U1CTS{slash}ADC2_CH9{slash}CLK_OUT1{slash}USB_D+)*%
X130916423Y-57950303D02*
X131366726Y-57500000D01*
X64600000Y-58500000D02*
X65000000Y-58100000D01*
D13*
%TO.N,Net-(U2-EN)*%
X110375000Y-56425000D02*
X109563429Y-57236571D01*
X135500000Y-57100000D02*
X134925000Y-56525000D01*
D14*
%TO.N,Net-(U2-GPIO20{slash}U1CTS{slash}ADC2_CH9{slash}CLK_OUT1{slash}USB_D+)*%
X89524796Y-58100000D02*
X89823194Y-58398398D01*
D13*
%TO.N,Net-(U2-EN)*%
X134925000Y-56525000D02*
X132417463Y-56525000D01*
D14*
%TO.N,Net-(U2-GPIO20{slash}U1CTS{slash}ADC2_CH9{slash}CLK_OUT1{slash}USB_D+)*%
X89823194Y-58398398D02*
X97096801Y-58398398D01*
X133600000Y-57500000D02*
X134100000Y-58000000D01*
D13*
%TO.N,Net-(U2-EN)*%
X126143576Y-57125303D02*
X125443273Y-56425000D01*
D14*
%TO.N,Net-(U2-GPIO20{slash}U1CTS{slash}ADC2_CH9{slash}CLK_OUT1{slash}USB_D+)*%
X125801850Y-57950303D02*
X130916423Y-57950303D01*
D13*
%TO.N,/PWM_SEND_1*%
X112704771Y-57625000D02*
X124946217Y-57625000D01*
X97125529Y-58900000D02*
X97550529Y-58475000D01*
%TO.N,Net-(U2-EN)*%
X96755075Y-57573398D02*
X90553829Y-57573398D01*
X129235926Y-57125303D02*
X126143576Y-57125303D01*
D14*
%TO.N,Net-(U2-GPIO20{slash}U1CTS{slash}ADC2_CH9{slash}CLK_OUT1{slash}USB_D+)*%
X111150000Y-57250000D02*
X125101547Y-57250000D01*
D13*
%TO.N,Net-(U2-EN)*%
X97091902Y-57236571D02*
X96755075Y-57573398D01*
X125443273Y-56425000D02*
X110375000Y-56425000D01*
D14*
%TO.N,Net-(U2-GPIO20{slash}U1CTS{slash}ADC2_CH9{slash}CLK_OUT1{slash}USB_D+)*%
X65000000Y-58100000D02*
X89524796Y-58100000D01*
D13*
%TO.N,/PWM_SEND_1*%
X132174697Y-58325303D02*
X132400000Y-58100000D01*
%TO.N,Net-(U2-EN)*%
X90553829Y-57573398D02*
X90275431Y-57295000D01*
%TO.N,/PWM_SEND_1*%
X97550529Y-58475000D02*
X111854771Y-58475000D01*
%TO.N,Net-(U2-EN)*%
X145800000Y-57100000D02*
X135500000Y-57100000D01*
%TO.N,/PWM_SEND_1*%
X125646520Y-58325303D02*
X132174697Y-58325303D01*
D14*
%TO.N,Net-(U2-GPIO20{slash}U1CTS{slash}ADC2_CH9{slash}CLK_OUT1{slash}USB_D+)*%
X97096801Y-58398398D02*
X97395199Y-58100000D01*
D13*
%TO.N,Net-(U2-EN)*%
X132417463Y-56525000D02*
X132317463Y-56625000D01*
D14*
%TO.N,Net-(U2-GPIO19{slash}U1RTS{slash}ADC2_CH8{slash}CLK_OUT2{slash}USB_D-)*%
X64884033Y-57625000D02*
X89686192Y-57625000D01*
X110075000Y-57625000D02*
X110900000Y-56800000D01*
D13*
%TO.N,Net-(U2-EN)*%
X109563429Y-57236571D02*
X97091902Y-57236571D01*
D14*
%TO.N,Net-(U2-GPIO20{slash}U1CTS{slash}ADC2_CH9{slash}CLK_OUT1{slash}USB_D+)*%
X131366726Y-57500000D02*
X133600000Y-57500000D01*
X110300000Y-58100000D02*
X111150000Y-57250000D01*
D13*
%TO.N,Net-(U2-EN)*%
X129736229Y-56625000D02*
X129235926Y-57125303D01*
%TO.N,/PWM_SEND_1*%
X124946217Y-57625000D02*
X125646520Y-58325303D01*
D14*
%TO.N,Net-(U2-GPIO19{slash}U1RTS{slash}ADC2_CH8{slash}CLK_OUT2{slash}USB_D-)*%
X125988246Y-57500303D02*
X130730027Y-57500303D01*
X125287943Y-56800000D02*
X125988246Y-57500303D01*
X110900000Y-56800000D02*
X125287943Y-56800000D01*
%TO.N,Net-(U2-GPIO20{slash}U1CTS{slash}ADC2_CH9{slash}CLK_OUT1{slash}USB_D+)*%
X97395199Y-58100000D02*
X110300000Y-58100000D01*
D13*
%TO.N,Net-(U2-EN)*%
X132317463Y-56625000D02*
X129736229Y-56625000D01*
D14*
%TO.N,Net-(U2-GPIO19{slash}U1RTS{slash}ADC2_CH8{slash}CLK_OUT2{slash}USB_D-)*%
X90009590Y-57948398D02*
X96910405Y-57948398D01*
X96910405Y-57948398D02*
X97233803Y-57625000D01*
X89686192Y-57625000D02*
X90009590Y-57948398D01*
%TO.N,Net-(U2-GPIO20{slash}U1CTS{slash}ADC2_CH9{slash}CLK_OUT1{slash}USB_D+)*%
X125101547Y-57250000D02*
X125801850Y-57950303D01*
%TO.N,Net-(U2-GPIO19{slash}U1RTS{slash}ADC2_CH8{slash}CLK_OUT2{slash}USB_D-)*%
X134317003Y-57050000D02*
X134400000Y-57132997D01*
X131180330Y-57050000D02*
X134317003Y-57050000D01*
X130730027Y-57500303D02*
X131180330Y-57050000D01*
D13*
%TO.N,Net-(JP10-B)*%
X51260000Y-55100000D02*
X54510000Y-55100000D01*
%TO.N,/PWM_RCV_2*%
X136800000Y-67100000D02*
X129194974Y-67100000D01*
X127969974Y-68325000D02*
X97282437Y-68325000D01*
X129194974Y-67100000D02*
X127969974Y-68325000D01*
X97282437Y-68325000D02*
X95907437Y-66950000D01*
X95907437Y-66950000D02*
X73996827Y-66950000D01*
X73996827Y-66950000D02*
X73536827Y-67410000D01*
X73536827Y-67410000D02*
X72260000Y-67410000D01*
%TO.N,/LED_4*%
X133100000Y-67900000D02*
X132374264Y-68625736D01*
X89260000Y-68735000D02*
X88250000Y-67725000D01*
X132374264Y-68625736D02*
X97158909Y-68625736D01*
X97158909Y-68625736D02*
X96593173Y-68060000D01*
X96593173Y-68060000D02*
X93715736Y-68060000D01*
X93715736Y-68060000D02*
X93040736Y-68735000D01*
X93040736Y-68735000D02*
X89260000Y-68735000D01*
%TO.N,Net-(J8-Pin_3)*%
X93777715Y-64535000D02*
X93747715Y-64565000D01*
%TO.N,/PWM_RCV_5*%
X98076320Y-65480000D02*
X101098299Y-65480000D01*
%TO.N,/PWM_SEND_2*%
X129241729Y-63075000D02*
X129341729Y-63175000D01*
%TO.N,/PWM_RCV_1*%
X128900002Y-63900000D02*
X122900000Y-63900000D01*
%TO.N,/PWM_SEND_2*%
X89344998Y-63724998D02*
X89885000Y-64265000D01*
%TO.N,/LED_2*%
X137364264Y-66200000D02*
X129600000Y-66200000D01*
%TO.N,/PWM_SEND_2*%
X93653451Y-64235000D02*
X98606827Y-64235000D01*
%TO.N,/DOG_2*%
X93835507Y-65750000D02*
X80537023Y-65750000D01*
%TO.N,Net-(JP10-B)*%
X88652563Y-69070000D02*
X95690000Y-69070000D01*
%TO.N,/PWM_SEND_2*%
X89885000Y-64265000D02*
X93623451Y-64265000D01*
%TO.N,/LED_2*%
X129600000Y-66200000D02*
X128600000Y-67200000D01*
%TO.N,/PWM_RCV_1*%
X121620000Y-65180000D02*
X102077437Y-65180000D01*
%TO.N,Net-(J8-Pin_3)*%
X93747715Y-64565000D02*
X89468048Y-64565000D01*
%TO.N,/LED_2*%
X140000000Y-66700000D02*
X137864264Y-66700000D01*
%TO.N,Net-(J8-Pin_3)*%
X98324848Y-64880000D02*
X97979848Y-64535000D01*
%TO.N,/PWM_RCV_1*%
X72652463Y-65695000D02*
X59115000Y-65695000D01*
%TO.N,Net-(J8-Pin_3)*%
X80439105Y-64650000D02*
X80224741Y-64435636D01*
%TO.N,/PWM_SEND_2*%
X132800000Y-63175000D02*
X133100000Y-62875000D01*
%TO.N,Net-(J8-Pin_3)*%
X87553905Y-64650000D02*
X80439105Y-64650000D01*
%TO.N,/PWM_RCV_1*%
X73611827Y-64735636D02*
X72652463Y-65695000D01*
%TO.N,/LED_3*%
X140394239Y-66175000D02*
X137893198Y-66175000D01*
%TO.N,/PWM_RCV_1*%
X80294129Y-65000000D02*
X80029765Y-64735636D01*
%TO.N,Net-(J8-Pin_3)*%
X88978046Y-64074998D02*
X88128907Y-64074998D01*
%TO.N,/PWM_RCV_1*%
X88833072Y-64424998D02*
X88273882Y-64424998D01*
%TO.N,/DOG_2*%
X97979867Y-65807811D02*
X97607056Y-65435000D01*
%TO.N,Net-(J8-Pin_2)*%
X80412759Y-66050000D02*
X79862759Y-65500000D01*
%TO.N,/LED_2*%
X94523299Y-66335000D02*
X94208299Y-66650000D01*
%TO.N,Net-(J8-Pin_2)*%
X122442189Y-66157811D02*
X97905603Y-66157811D01*
%TO.N,Net-(J8-Pin_3)*%
X101953173Y-64880000D02*
X101888173Y-64945000D01*
%TO.N,Net-(J8-Pin_2)*%
X129526347Y-65340380D02*
X129141727Y-65725000D01*
%TO.N,/LED_3*%
X97358528Y-66035000D02*
X94399035Y-66035000D01*
%TO.N,Net-(J8-Pin_3)*%
X129117465Y-63375000D02*
X122670407Y-63375000D01*
%TO.N,/PWM_RCV_5*%
X97731320Y-65135000D02*
X98076320Y-65480000D01*
X121819645Y-65545000D02*
X122564645Y-64800000D01*
X88618478Y-65165000D02*
X93996243Y-65165000D01*
%TO.N,/PWM_SEND_2*%
X120970433Y-64580000D02*
X122475433Y-63075000D01*
%TO.N,Net-(J8-Pin_2)*%
X68475089Y-66164911D02*
X68370000Y-66270000D01*
%TO.N,/PWM_SEND_2*%
X87408934Y-64299997D02*
X87983932Y-63724998D01*
%TO.N,/DOG_2*%
X80537023Y-65750000D02*
X79987023Y-65200000D01*
%TO.N,/LED_2*%
X128600000Y-67200000D02*
X127300000Y-67200000D01*
%TO.N,/PWM_SEND_2*%
X93623451Y-64265000D02*
X93653451Y-64235000D01*
%TO.N,/DOG_2*%
X101039035Y-65845000D02*
X101001846Y-65807811D01*
%TO.N,/PWM_SEND_2*%
X122475433Y-63075000D02*
X129241729Y-63075000D01*
X80584076Y-64299997D02*
X87408934Y-64299997D01*
%TO.N,Net-(J8-Pin_2)*%
X74728262Y-66164911D02*
X68475089Y-66164911D01*
%TO.N,Net-(J8-Pin_3)*%
X101888173Y-64945000D02*
X101411827Y-64945000D01*
%TO.N,Net-(J8-Pin_2)*%
X97905603Y-66157811D02*
X97482792Y-65735000D01*
%TO.N,/LED_2*%
X94208299Y-66650000D02*
X73056630Y-66650000D01*
%TO.N,Net-(J8-Pin_2)*%
X79862759Y-65500000D02*
X75393173Y-65500000D01*
%TO.N,/LED_3*%
X137893198Y-66175000D02*
X137383578Y-65665380D01*
X137383578Y-65665380D02*
X129625611Y-65665380D01*
%TO.N,/DOG_2*%
X137690255Y-65017463D02*
X129425000Y-65017463D01*
%TO.N,/LED_2*%
X124200000Y-67000000D02*
X123425000Y-67775000D01*
%TO.N,/PWM_SEND_5*%
X93529187Y-63935000D02*
X99120000Y-63935000D01*
%TO.N,/DOG_2*%
X79987023Y-65200000D02*
X74900000Y-65200000D01*
%TO.N,/LED_3*%
X94084035Y-66350000D02*
X79899586Y-66350000D01*
%TO.N,/PWM_RCV_1*%
X98200584Y-65180000D02*
X97855584Y-64835000D01*
X80029765Y-64735636D02*
X73611827Y-64735636D01*
%TO.N,Net-(J8-Pin_3)*%
X88128907Y-64074998D02*
X87553905Y-64650000D01*
X101411827Y-64945000D02*
X101346827Y-64880000D01*
%TO.N,/PWM_RCV_1*%
X102012437Y-65245000D02*
X101287563Y-65245000D01*
%TO.N,/DOG_2*%
X74900000Y-65200000D02*
X74690000Y-65410000D01*
%TO.N,/PWM_RCV_5*%
X101098299Y-65480000D02*
X101163299Y-65545000D01*
%TO.N,/PWM_RCV_1*%
X97855584Y-64835000D02*
X93901979Y-64835000D01*
X122900000Y-63900000D02*
X121620000Y-65180000D01*
%TO.N,/LED_2*%
X98357044Y-66832044D02*
X97731308Y-66832044D01*
%TO.N,/LED_3*%
X129265991Y-66025000D02*
X123175000Y-66025000D01*
%TO.N,Net-(JP10-B)*%
X88541282Y-68958719D02*
X88652563Y-69070000D01*
%TO.N,/DOG_2*%
X122434619Y-65425000D02*
X122014619Y-65845000D01*
%TO.N,/PWM_RCV_5*%
X94026243Y-65135000D02*
X97731320Y-65135000D01*
%TO.N,Net-(JP10-B)*%
X80318719Y-68958719D02*
X88541282Y-68958719D01*
%TO.N,/LED_2*%
X140300000Y-67000000D02*
X140000000Y-66700000D01*
%TO.N,Net-(J8-Pin_3)*%
X89468048Y-64565000D02*
X88978046Y-64074998D01*
%TO.N,Net-(J8-Pin_2)*%
X94274771Y-65735000D02*
X93959771Y-66050000D01*
%TO.N,/PWM_RCV_5*%
X93996243Y-65165000D02*
X94026243Y-65135000D01*
%TO.N,/DOG_2*%
X94150507Y-65435000D02*
X93835507Y-65750000D01*
%TO.N,/PWM_RCV_1*%
X102077437Y-65180000D02*
X102012437Y-65245000D01*
X88273882Y-64424998D02*
X87698880Y-65000000D01*
%TO.N,/PWM_SEND_2*%
X87983932Y-63724998D02*
X89344998Y-63724998D01*
%TO.N,/LED_2*%
X123425000Y-67775000D02*
X99300000Y-67775000D01*
%TO.N,/DOG_2*%
X129425000Y-65017463D02*
X129017463Y-65425000D01*
X144600000Y-65200000D02*
X144300000Y-65500000D01*
%TO.N,Net-(JP10-B)*%
X79170000Y-67810000D02*
X80318719Y-68958719D01*
%TO.N,/LED_3*%
X123175000Y-66025000D02*
X122717189Y-66482811D01*
%TO.N,/PWM_RCV_5*%
X122564645Y-64800000D02*
X128900000Y-64800000D01*
%TO.N,/PWM_RCV_1*%
X101287563Y-65245000D02*
X101222563Y-65180000D01*
%TO.N,/PWM_RCV_5*%
X88586289Y-65132811D02*
X88618478Y-65165000D01*
%TO.N,/DOG_2*%
X122014619Y-65845000D02*
X101039035Y-65845000D01*
%TO.N,/LED_2*%
X97234264Y-66335000D02*
X94523299Y-66335000D01*
%TO.N,/PWM_RCV_1*%
X93871979Y-64865000D02*
X89273074Y-64865000D01*
X101222563Y-65180000D02*
X98200584Y-65180000D01*
%TO.N,/LED_3*%
X142000000Y-67800000D02*
X142000000Y-67780761D01*
%TO.N,/PWM_RCV_1*%
X87698880Y-65000000D02*
X80294129Y-65000000D01*
%TO.N,/LED_2*%
X137864264Y-66700000D02*
X137364264Y-66200000D01*
%TO.N,/DOG_2*%
X101001846Y-65807811D02*
X97979867Y-65807811D01*
%TO.N,/LED_2*%
X127300000Y-67200000D02*
X127100000Y-67000000D01*
%TO.N,/DOG_2*%
X97607056Y-65435000D02*
X94150507Y-65435000D01*
%TO.N,/PWM_RCV_1*%
X93901979Y-64835000D02*
X93871979Y-64865000D01*
%TO.N,/LED_2*%
X97731308Y-66832044D02*
X97234264Y-66335000D01*
%TO.N,Net-(J8-Pin_3)*%
X141775000Y-63475000D02*
X129217465Y-63475000D01*
%TO.N,/LED_3*%
X122717189Y-66482811D02*
X97806339Y-66482811D01*
X142000000Y-67780761D02*
X140394239Y-66175000D01*
%TO.N,/PWM_SEND_2*%
X79884079Y-63600000D02*
X80584076Y-64299997D01*
%TO.N,Net-(J8-Pin_2)*%
X75393173Y-65500000D02*
X74728262Y-66164911D01*
%TO.N,/LED_2*%
X73056630Y-66650000D02*
X72966719Y-66739911D01*
%TO.N,/PWM_SEND_2*%
X98951827Y-64580000D02*
X120970433Y-64580000D01*
%TO.N,Net-(J8-Pin_3)*%
X97979848Y-64535000D02*
X93777715Y-64535000D01*
%TO.N,/LED_3*%
X79899586Y-66350000D02*
X79624586Y-66075000D01*
%TO.N,Net-(J8-Pin_2)*%
X144400000Y-67100000D02*
X143150000Y-65850000D01*
X122875000Y-65725000D02*
X122442189Y-66157811D01*
%TO.N,Net-(J8-Pin_3)*%
X121165407Y-64880000D02*
X101953173Y-64880000D01*
%TO.N,/PWM_SEND_2*%
X73900000Y-63600000D02*
X79884079Y-63600000D01*
%TO.N,/PWM_SEND_5*%
X89590000Y-63410000D02*
X90145000Y-63965000D01*
%TO.N,Net-(J8-Pin_3)*%
X143000000Y-64700000D02*
X141775000Y-63475000D01*
%TO.N,/PWM_SEND_5*%
X87315000Y-63410000D02*
X89590000Y-63410000D01*
%TO.N,Net-(J8-Pin_3)*%
X71893250Y-64435636D02*
X71351360Y-64977526D01*
%TO.N,/PWM_RCV_1*%
X57075000Y-67735000D02*
X57075000Y-68040000D01*
%TO.N,Net-(J8-Pin_2)*%
X129141727Y-65725000D02*
X122875000Y-65725000D01*
%TO.N,Net-(J8-Pin_3)*%
X122670407Y-63375000D02*
X121165407Y-64880000D01*
%TO.N,/PWM_RCV_1*%
X59115000Y-65695000D02*
X57075000Y-67735000D01*
%TO.N,/PWM_SEND_5*%
X87100000Y-63625000D02*
X87315000Y-63410000D01*
%TO.N,Net-(J8-Pin_3)*%
X80224741Y-64435636D02*
X71893250Y-64435636D01*
%TO.N,/DOG_2*%
X129017463Y-65425000D02*
X122434619Y-65425000D01*
%TO.N,/LED_2*%
X99300000Y-67775000D02*
X98357044Y-66832044D01*
%TO.N,Net-(J8-Pin_2)*%
X143150000Y-65850000D02*
X138027818Y-65850000D01*
%TO.N,/PWM_RCV_1*%
X89273074Y-64865000D02*
X88833072Y-64424998D01*
%TO.N,/LED_2*%
X127100000Y-67000000D02*
X124200000Y-67000000D01*
%TO.N,/PWM_SEND_5*%
X93499187Y-63965000D02*
X93529187Y-63935000D01*
%TO.N,/DOG_2*%
X138172792Y-65500000D02*
X137690255Y-65017463D01*
%TO.N,Net-(J8-Pin_3)*%
X129217465Y-63475000D02*
X129117465Y-63375000D01*
%TO.N,Net-(J8-Pin_2)*%
X137518197Y-65340380D02*
X129526347Y-65340380D01*
%TO.N,/LED_3*%
X97806339Y-66482811D02*
X97358528Y-66035000D01*
%TO.N,/PWM_SEND_2*%
X98606827Y-64235000D02*
X98951827Y-64580000D01*
%TO.N,Net-(J8-Pin_2)*%
X93959771Y-66050000D02*
X80412759Y-66050000D01*
%TO.N,/PWM_RCV_5*%
X101163299Y-65545000D02*
X121819645Y-65545000D01*
%TO.N,Net-(J8-Pin_2)*%
X138027818Y-65850000D02*
X137518197Y-65340380D01*
%TO.N,Net-(JP10-B)*%
X95690000Y-69070000D02*
X96110000Y-68650000D01*
%TO.N,/LED_3*%
X94399035Y-66035000D02*
X94084035Y-66350000D01*
%TO.N,Net-(J8-Pin_3)*%
X101346827Y-64880000D02*
X98324848Y-64880000D01*
%TO.N,Net-(J8-Pin_2)*%
X97482792Y-65735000D02*
X94274771Y-65735000D01*
%TO.N,/LED_3*%
X129625611Y-65665380D02*
X129265991Y-66025000D01*
%TO.N,/PWM_SEND_2*%
X129341729Y-63175000D02*
X132800000Y-63175000D01*
%TO.N,/DOG_2*%
X144300000Y-65500000D02*
X138172792Y-65500000D01*
%TO.N,/PWM_SEND_5*%
X90145000Y-63965000D02*
X93499187Y-63965000D01*
X99120000Y-63935000D02*
X99190000Y-64005000D01*
%TO.N,Net-(JP10-B)*%
X63900000Y-67670000D02*
X64910000Y-68680000D01*
X78300000Y-68680000D02*
X79170000Y-67810000D01*
X64910000Y-68680000D02*
X78300000Y-68680000D01*
%TO.N,/DOG_1*%
X60890308Y-69060308D02*
X61140308Y-69310308D01*
X126230000Y-70330000D02*
X127030000Y-69530000D01*
X61140308Y-69310308D02*
X81583173Y-69310308D01*
X144390000Y-68910000D02*
X145800000Y-67500000D01*
X81583173Y-69310308D02*
X82602865Y-70330000D01*
X82602865Y-70330000D02*
X126230000Y-70330000D01*
X127030000Y-69530000D02*
X135960000Y-69530000D01*
X135960000Y-69530000D02*
X138260000Y-67230000D01*
X138260000Y-67230000D02*
X139490000Y-67230000D01*
X139490000Y-67230000D02*
X141170000Y-68910000D01*
X141170000Y-68910000D02*
X144390000Y-68910000D01*
%TO.N,/LED_1*%
X139116407Y-67835646D02*
X135627054Y-71324999D01*
X135627054Y-71324999D02*
X60928174Y-71324999D01*
%TO.N,/PWM_RCV_3*%
X128900000Y-70800000D02*
X128675001Y-71024999D01*
%TO.N,Net-(U2-GPIO0{slash}BOOT)*%
X81405000Y-69885308D02*
X82244691Y-70724999D01*
%TO.N,/PWM_RCV_3*%
X81264999Y-71024999D02*
X80880000Y-70640000D01*
%TO.N,Net-(U2-GPIO0{slash}BOOT)*%
X82244691Y-70724999D02*
X127259265Y-70724999D01*
X127259265Y-70724999D02*
X128084264Y-69900000D01*
X128084264Y-69900000D02*
X130925000Y-69900000D01*
%TO.N,/PWM_RCV_3*%
X128675001Y-71024999D02*
X81264999Y-71024999D01*
%TO.N,Net-(U2-GPIO0{slash}BOOT)*%
X130925000Y-69900000D02*
X131800000Y-70775000D01*
%TO.N,/DOG_1*%
X59480000Y-67650000D02*
X60890308Y-69060308D01*
%TO.N,/PWM_RCV_1*%
X57065000Y-67790000D02*
X57065000Y-67800000D01*
%TO.N,/DOG_4*%
X140800000Y-54800000D02*
X135994974Y-54800000D01*
X135994974Y-54800000D02*
X134004974Y-52810000D01*
X142000000Y-53600000D02*
X140800000Y-54800000D01*
X134004974Y-52810000D02*
X103944589Y-52810000D01*
X102604589Y-54150000D02*
X95320000Y-54150000D01*
X103944589Y-52810000D02*
X102604589Y-54150000D01*
%TO.N,/DOG_5*%
X103871921Y-52280000D02*
X110048299Y-52280000D01*
%TO.N,/PWM_SEND_6*%
X103243173Y-51680000D02*
X110296827Y-51680000D01*
%TO.N,/DOG_5*%
X102751921Y-53400000D02*
X103871921Y-52280000D01*
X134204974Y-52510000D02*
X135892585Y-54197611D01*
X100037437Y-52300000D02*
X101137437Y-53400000D01*
%TO.N,/PWM_SEND_6*%
X101300000Y-52200000D02*
X102723173Y-52200000D01*
%TO.N,/DOG_5*%
X110278299Y-52510000D02*
X134204974Y-52510000D01*
X135892585Y-54197611D02*
X139902389Y-54197611D01*
%TO.N,/PWM_SEND_6*%
X110296827Y-51680000D02*
X110431827Y-51815000D01*
%TO.N,/DOG_5*%
X110048299Y-52280000D02*
X110278299Y-52510000D01*
X101137437Y-53400000D02*
X102751921Y-53400000D01*
X90200000Y-52300000D02*
X100037437Y-52300000D01*
X139902389Y-54197611D02*
X140700000Y-53400000D01*
%TO.N,/PWM_SEND_6*%
X102723173Y-52200000D02*
X103243173Y-51680000D01*
X110431827Y-51815000D02*
X135552978Y-51815000D01*
X135552978Y-51815000D02*
X137123493Y-53385515D01*
%TO.N,/PWM_SEND_3*%
X132410585Y-60058324D02*
X132293909Y-60175000D01*
X128718275Y-60514998D02*
X93454998Y-60514998D01*
X132293909Y-60175000D02*
X129058273Y-60175000D01*
X129058273Y-60175000D02*
X128718275Y-60514998D01*
X93454998Y-60514998D02*
X92680000Y-59740000D01*
X92680000Y-59740000D02*
X92640000Y-59740000D01*
X91680000Y-59495000D02*
X77875000Y-59495000D01*
X91680000Y-59495000D02*
X92395000Y-59495000D01*
X92395000Y-59495000D02*
X92640000Y-59740000D01*
X77875000Y-59495000D02*
X76770000Y-60600000D01*
D14*
%TO.N,+3.3V*%
X86850000Y-61730000D02*
X85190000Y-60070000D01*
D15*
X67600000Y-63200000D02*
X70690000Y-63200000D01*
X70690000Y-63200000D02*
X72290000Y-61600000D01*
X83660000Y-61600000D02*
X85190000Y-60070000D01*
X72290000Y-61600000D02*
X83660000Y-61600000D01*
D14*
X109600000Y-61730000D02*
X86850000Y-61730000D01*
D13*
%TO.N,/LED_5*%
X87925000Y-60050000D02*
X87700000Y-60275000D01*
X130682537Y-60575000D02*
X130432537Y-60825000D01*
X91550000Y-60050000D02*
X87925000Y-60050000D01*
X132360153Y-60617690D02*
X132317463Y-60575000D01*
X92325000Y-60825000D02*
X91550000Y-60050000D01*
X133775000Y-60617690D02*
X132360153Y-60617690D01*
X132317463Y-60575000D02*
X130682537Y-60575000D01*
X130432537Y-60825000D02*
X92325000Y-60825000D01*
%TO.N,/PWM_SEND_1*%
X71529595Y-58475000D02*
X83840000Y-58475000D01*
X83840000Y-58475000D02*
X83945000Y-58475000D01*
X83945000Y-58475000D02*
X84370000Y-58900000D01*
X84370000Y-58900000D02*
X85260000Y-58900000D01*
%TO.N,/PWM_SEND_5*%
X101888173Y-63795000D02*
X102098173Y-64005000D01*
X101411827Y-63795000D02*
X101888173Y-63795000D01*
X115521041Y-62600000D02*
X132100000Y-62600000D01*
X114116041Y-64005000D02*
X115521041Y-62600000D01*
X102098173Y-64005000D02*
X114116041Y-64005000D01*
X99190000Y-64005000D02*
X101201827Y-64005000D01*
X101201827Y-64005000D02*
X101411827Y-63795000D01*
%TO.N,/PWM_SEND_1*%
X70379595Y-59625000D02*
X71529595Y-58475000D01*
X63100000Y-60000000D02*
X63475000Y-59625000D01*
X63475000Y-59625000D02*
X70379595Y-59625000D01*
%TO.N,Net-(U2-EN)*%
X85129120Y-62600000D02*
X91362428Y-62600000D01*
%TO.N,/PWM_SEND_4*%
X90550000Y-63420000D02*
X92620000Y-63420000D01*
%TO.N,Net-(U2-EN)*%
X91362428Y-62600000D02*
X91375909Y-62613481D01*
X85040853Y-62688267D02*
X85129120Y-62600000D01*
%TO.N,/PWM_SEND_4*%
X92620000Y-63420000D02*
X105346827Y-63420000D01*
%TO.N,/LED_1*%
X57920000Y-68316825D02*
X57920000Y-67710000D01*
X60928174Y-71324999D02*
X57920000Y-68316825D01*
%TO.N,/PWM_SEND_4*%
X113957463Y-62282537D02*
X131217463Y-62282537D01*
X90030000Y-62900000D02*
X90550000Y-63420000D01*
X105971827Y-62795000D02*
X109304936Y-62795000D01*
X131217463Y-62282537D02*
X132200000Y-61300000D01*
X112875000Y-63365000D02*
X113957463Y-62282537D01*
X105346827Y-63420000D02*
X105971827Y-62795000D01*
X109874936Y-63365000D02*
X112875000Y-63365000D01*
X85380000Y-63610000D02*
X86090000Y-62900000D01*
X86090000Y-62900000D02*
X90030000Y-62900000D01*
X109304936Y-62795000D02*
X109874936Y-63365000D01*
%TO.N,/PWM_RCV_6*%
X100632072Y-67100000D02*
X100832072Y-66900000D01*
X100832072Y-66900000D02*
X123600000Y-66900000D01*
X123950000Y-66550000D02*
X128473892Y-66550000D01*
X123600000Y-66900000D02*
X123950000Y-66550000D01*
%TO.N,/LED_6*%
X126905736Y-69230000D02*
X126760736Y-69375000D01*
X134370000Y-69230000D02*
X126905736Y-69230000D01*
X135600000Y-68000000D02*
X134370000Y-69230000D01*
X126760736Y-69375000D02*
X101825000Y-69375000D01*
X101825000Y-69375000D02*
X101600000Y-69600000D01*
%TO.N,/DOG_6*%
X105273744Y-54675468D02*
X106349212Y-53600000D01*
X106349212Y-53600000D02*
X133025000Y-53600000D01*
X133025000Y-53600000D02*
X134300000Y-54875000D01*
X105273744Y-54944302D02*
X105273744Y-54675468D01*
%TO.N,Net-(U2-EN)*%
X83740853Y-62676244D02*
X83752876Y-62688267D01*
X83752876Y-62688267D02*
X85040853Y-62688267D01*
%TO.N,Net-(U2-GPIO15{slash}U0RTS{slash}ADC2_CH4{slash}XTAL_32K_P)*%
X135540000Y-59300000D02*
X128800000Y-59300000D01*
X135780000Y-59540000D02*
X135540000Y-59300000D01*
X128800000Y-59300000D02*
X128500000Y-59600000D01*
%TO.N,Net-(U2-GPIO16{slash}U0CTS{slash}ADC2_CH5{slash}XTAL_32K_N)*%
X128521407Y-58850303D02*
X135449697Y-58850303D01*
X135449697Y-58850303D02*
X135700000Y-58600000D01*
%TD*%
M02*
