M48
; DRILL file {KiCad 7.0.10+1} date Tue 12 Mar 2024 12:47:14 PM CET
; FORMAT={-:-/ absolute / metric / decimal}
; #@! TF.CreationDate,2024-03-12T12:47:14+01:00
; #@! TF.GenerationSoftware,Kicad,Pcbnew,7.0.10+1
; #@! TF.FileFunction,Plated,1,4,PTH
FMAT,2
METRIC
; #@! TA.AperFunction,Plated,PTH,ViaDrill
T1C0.300
; #@! TA.AperFunction,Plated,PTH,ComponentDrill
T2C0.600
%
G90
G05
T1
X51.26Y-55.1
X54.71Y-67.66
X55.171Y-54.578
X55.41Y-59.31
X55.44Y-63.0
X55.97Y-54.615
X56.267Y-67.75
X56.861Y-54.635
X57.065Y-67.8
X57.545Y-55.275
X57.92Y-67.71
X58.31Y-54.46
X58.6Y-64.2
X58.68Y-67.86
X58.7Y-57.8
X59.285Y-54.595
X59.48Y-67.65
X59.956Y-56.185
X60.377Y-67.733
X60.76Y-54.46
X63.1Y-60.0
X63.9Y-67.67
X64.574Y-57.315
X64.6Y-58.5
X66.88Y-55.61
X67.6Y-63.2
X68.37Y-66.27
X69.9Y-67.7
X70.49Y-54.685
X71.282Y-54.692
X71.351Y-64.978
X71.48Y-67.83
X72.078Y-54.615
X72.26Y-67.41
X72.302Y-59.052
X72.849Y-54.492
X72.967Y-66.74
X73.88Y-67.88
X73.9Y-63.6
X74.495Y-54.645
X74.69Y-65.41
X75.45Y-67.82
X76.095Y-54.69
X76.77Y-60.6
X79.17Y-67.81
X79.3Y-55.22
X79.625Y-66.075
X80.88Y-70.64
X81.0Y-60.9
X81.405Y-69.885
X81.42Y-56.35
X83.0Y-60.8
X83.741Y-62.676
X84.855Y-67.725
X85.041Y-62.688
X85.19Y-60.07
X85.26Y-58.9
X85.29Y-56.955
X85.38Y-63.61
X85.474Y-54.755
X86.625Y-67.72
X87.034Y-54.755
X87.1Y-63.625
X87.7Y-60.275
X88.25Y-67.725
X88.586Y-65.133
X89.03Y-67.73
X89.4Y-60.8
X89.434Y-54.779
X90.2Y-52.3
X90.275Y-57.295
X90.65Y-67.725
X90.955Y-54.805
X91.376Y-62.613
X92.62Y-63.42
X92.64Y-59.74
X93.286Y-54.721
X95.32Y-54.15
X96.11Y-68.65
X96.512Y-56.823
X96.917Y-55.698
X98.69Y-56.59
X99.19Y-64.005
X100.5Y-55.0
X100.632Y-67.1
X101.3Y-52.2
X101.6Y-69.6
X101.65Y-64.37
X101.9Y-54.9
X104.495Y-54.7
X105.274Y-54.944
X106.241Y-54.667
X106.49Y-63.35
X107.53Y-63.35
X109.6Y-61.73
X110.67Y-62.79
X111.5Y-62.84
X113.02Y-58.45
X114.27Y-58.43
X115.649Y-58.614
X119.169Y-63.325
X120.07Y-59.71
X120.329Y-63.375
X122.7Y-50.7
X124.6Y-50.8
X125.565Y-54.175
X125.6Y-67.65
X126.115Y-50.7
X128.0Y-50.7
X128.4Y-61.5
X128.474Y-66.55
X128.5Y-59.6
X128.521Y-58.85
X128.6Y-56.5
X128.9Y-64.8
X128.9Y-70.8
X128.9Y-63.9
X131.8Y-70.775
X132.033Y-54.401
X132.1Y-56.1
X132.1Y-62.6
X132.2Y-61.3
X132.4Y-58.1
X132.411Y-60.058
X133.1Y-62.875
X133.1Y-67.9
X133.775Y-60.618
X134.1Y-58.0
X134.3Y-54.875
X134.4Y-57.133
X135.1Y-55.9
X135.6Y-68.0
X135.7Y-58.6
X135.78Y-59.54
X136.127Y-53.473
X136.8Y-67.1
X137.123Y-53.386
X137.9Y-57.9
X138.0Y-60.6
X139.116Y-67.836
X140.3Y-67.0
X140.7Y-53.4
X142.0Y-53.6
X142.0Y-67.8
X143.0Y-64.7
X143.3Y-57.8
X143.3Y-60.6
X143.41Y-56.11
X144.4Y-67.1
X144.6Y-65.2
X145.8Y-57.1
X145.8Y-67.5
X147.0Y-57.0
X147.8Y-55.1
X148.31Y-67.69
X148.32Y-53.9
T2
G00X52.94Y-56.68
M15
G01X52.34Y-56.68
M16
G05
G00X52.94Y-65.32
M15
G01X52.34Y-65.32
M16
G05
G00X57.37Y-56.68
M15
G01X56.27Y-56.68
M16
G05
G00X57.37Y-65.32
M15
G01X56.27Y-65.32
M16
G05
M30
