%TF.GenerationSoftware,KiCad,Pcbnew,8.0.8+1*%
%TF.CreationDate,2025-01-23T15:05:36+01:00*%
%TF.ProjectId,IR-sensor,49522d73-656e-4736-9f72-2e6b69636164,rev?*%
%TF.SameCoordinates,Original*%
%TF.FileFunction,Copper,L3,Inr*%
%TF.FilePolarity,Positive*%
%FSLAX46Y46*%
G04 Gerber Fmt 4.6, Leading zero omitted, Abs format (unit mm)*
G04 Created by KiCad (PCBNEW 8.0.8+1) date 2025-01-23 15:05:36*
%MOMM*%
%LPD*%
G01*
G04 APERTURE LIST*
%TA.AperFunction,ComponentPad*%
%ADD10R,1.800000X1.800000*%
%TD*%
%TA.AperFunction,ComponentPad*%
%ADD11C,1.800000*%
%TD*%
%TA.AperFunction,ComponentPad*%
%ADD12R,1.000000X1.000000*%
%TD*%
%TA.AperFunction,ComponentPad*%
%ADD13O,1.000000X1.000000*%
%TD*%
%TA.AperFunction,ViaPad*%
%ADD14C,0.800000*%
%TD*%
G04 APERTURE END LIST*
D10*
%TO.N,Net-(D5-K)*%
%TO.C,D5*%
X63535000Y-56275000D03*
D11*
%TO.N,GND*%
X63535000Y-53735000D03*
%TD*%
D10*
%TO.N,Net-(D6-K)*%
%TO.C,D6*%
X63535000Y-66275000D03*
D11*
%TO.N,Net-(D6-A)*%
X63535000Y-63735000D03*
%TD*%
D12*
%TO.N,+5V*%
%TO.C,J3*%
X53700000Y-54285000D03*
D13*
X52430000Y-54285000D03*
%TO.N,/PWM_SEND*%
X53700000Y-55555000D03*
%TO.N,/INDICATOR_OUT*%
X52430000Y-55555000D03*
%TO.N,/PWM_RCV_1*%
X53700000Y-56825000D03*
%TO.N,/DOG_1*%
X52430000Y-56825000D03*
%TO.N,/PWM_RCV_2*%
X53700000Y-58095000D03*
%TO.N,/DOG_2*%
X52430000Y-58095000D03*
%TO.N,/PWM_RCV_3*%
X53700000Y-59365000D03*
%TO.N,/DOG_3*%
X52430000Y-59365000D03*
%TO.N,/PWM_RCV_4*%
X53700000Y-60635000D03*
%TO.N,/DOG_4*%
X52430000Y-60635000D03*
%TO.N,/PWM_RCV_5*%
X53700000Y-61905000D03*
%TO.N,/DOG_5*%
X52430000Y-61905000D03*
%TO.N,/PWM_RCV_6*%
X53700000Y-63175000D03*
%TO.N,/DOG_6*%
X52430000Y-63175000D03*
%TO.N,/PWM_RCV_7*%
X53700000Y-64445000D03*
%TO.N,/DOG_7*%
X52430000Y-64445000D03*
%TO.N,GND*%
X53700000Y-65715000D03*
X52430000Y-65715000D03*
%TD*%
D12*
%TO.N,+5V*%
%TO.C,J2*%
X136225000Y-54285000D03*
D13*
X137495000Y-54285000D03*
%TO.N,/PWM_SEND*%
X136225000Y-55555000D03*
%TO.N,/INDICATOR_IN*%
X137495000Y-55555000D03*
%TO.N,/PWM_RCV_1*%
X136225000Y-56825000D03*
%TO.N,/DOG_1*%
X137495000Y-56825000D03*
%TO.N,/PWM_RCV_2*%
X136225000Y-58095000D03*
%TO.N,/DOG_2*%
X137495000Y-58095000D03*
%TO.N,/PWM_RCV_3*%
X136225000Y-59365000D03*
%TO.N,/DOG_3*%
X137495000Y-59365000D03*
%TO.N,/PWM_RCV_4*%
X136225000Y-60635000D03*
%TO.N,/DOG_4*%
X137495000Y-60635000D03*
%TO.N,/PWM_RCV_5*%
X136225000Y-61905000D03*
%TO.N,/DOG_5*%
X137495000Y-61905000D03*
%TO.N,/PWM_RCV_6*%
X136225000Y-63175000D03*
%TO.N,/DOG_6*%
X137495000Y-63175000D03*
%TO.N,/PWM_RCV_7*%
X136225000Y-64445000D03*
%TO.N,/DOG_7*%
X137495000Y-64445000D03*
%TO.N,GND*%
X136225000Y-65715000D03*
X137495000Y-65715000D03*
%TD*%
D14*
%TO.N,Net-(U1C-+)*%
X85800000Y-61270000D03*
X75858973Y-62095252D03*
%TO.N,GND*%
X76000000Y-58900000D03*
X68875000Y-60035000D03*
X93668939Y-62791098D03*
X68875000Y-60935000D03*
X77700000Y-53600000D03*
X101000000Y-56700000D03*
X85500000Y-53000000D03*
X76146738Y-61085451D03*
X74560000Y-67550000D03*
X93600000Y-59900000D03*
X68925000Y-59045000D03*
X91800000Y-58555000D03*
X86824807Y-59057297D03*
X87180000Y-61960000D03*
X78970000Y-66870000D03*
X89420000Y-63100000D03*
X94580000Y-57020000D03*
X98308008Y-61768008D03*
%TO.N,Net-(U1B-+)*%
X77680000Y-56190000D03*
X77724448Y-61269751D03*
%TO.N,/PWM_SEND*%
X128300000Y-56700000D03*
X107400000Y-66900000D03*
X126800000Y-66800000D03*
%TO.N,/PWM_RCV*%
X89630000Y-57470000D03*
X103600000Y-64800000D03*
%TO.N,+2V5*%
X94781730Y-62774323D03*
X80040000Y-65585000D03*
X76026346Y-60042373D03*
%TO.N,+5V*%
X72055000Y-60045000D03*
X85564166Y-51951960D03*
X101100000Y-58000000D03*
X72045000Y-58955000D03*
X72045000Y-61055000D03*
%TO.N,Net-(Q2-D)*%
X91450000Y-59800000D03*
X87100000Y-56525000D03*
%TO.N,-2V5*%
X94670000Y-59930000D03*
X87800000Y-59925000D03*
X83260000Y-65530000D03*
%TO.N,/INDICATOR_IN*%
X138200000Y-52100000D03*
%TO.N,/PWM_RCV_1*%
X106400000Y-62000000D03*
%TO.N,/PWM_RCV_2*%
X105900000Y-60800000D03*
X108600000Y-60400000D03*
X114000000Y-62200000D03*
%TO.N,/DOG_7*%
X130900000Y-65700000D03*
X131500000Y-63200000D03*
X131500000Y-58200000D03*
%TO.N,/DOG_4*%
X128200000Y-53100000D03*
X119000000Y-55500000D03*
X119000000Y-52900000D03*
X128750000Y-65100000D03*
%TO.N,/DOG_5*%
X121500000Y-53350000D03*
X129500000Y-67200000D03*
X129800000Y-53900000D03*
X128925000Y-63300000D03*
X121500000Y-55500000D03*
%TO.N,/PWM_RCV_3*%
X116500000Y-62200000D03*
X109000000Y-59225000D03*
X105500000Y-59700000D03*
%TO.N,/PWM_RCV_6*%
X124000000Y-62200000D03*
%TO.N,/PWM_RCV_7*%
X126500000Y-62300000D03*
%TO.N,/PWM_RCV_5*%
X121500000Y-62300000D03*
%TO.N,/DOG_2*%
X113900000Y-53800000D03*
X113900000Y-55850000D03*
X114200000Y-51000000D03*
%TO.N,/PWM_RCV_4*%
X119000000Y-62300000D03*
%TO.N,/DOG_6*%
X128400000Y-68300000D03*
X130200000Y-63200000D03*
X130400000Y-55900000D03*
%TO.N,/DOG_3*%
X116500000Y-55850000D03*
X116600000Y-53850000D03*
X116390380Y-51090380D03*
%TO.N,/DOG_1*%
X111400000Y-55800000D03*
X111200000Y-51400000D03*
%TD*%
%TA.AperFunction,Conductor*%
%TO.N,+5V*%
G36*
X139985648Y-50014352D02*
G01*
X140000000Y-50049000D01*
X140000000Y-69951000D01*
X139985648Y-69985648D01*
X139951000Y-70000000D01*
X97189000Y-70000000D01*
X97154352Y-69985648D01*
X97140000Y-69951000D01*
X97140000Y-68300000D01*
X127794318Y-68300000D01*
X127814955Y-68456761D01*
X127875461Y-68602836D01*
X127875464Y-68602841D01*
X127971718Y-68728282D01*
X128097159Y-68824536D01*
X128097161Y-68824536D01*
X128097163Y-68824538D01*
X128243238Y-68885044D01*
X128400000Y-68905682D01*
X128556762Y-68885044D01*
X128702841Y-68824536D01*
X128828282Y-68728282D01*
X128924536Y-68602841D01*
X128985044Y-68456762D01*
X129005682Y-68300000D01*
X128985044Y-68143238D01*
X128924536Y-67997159D01*
X128828282Y-67871718D01*
X128702841Y-67775464D01*
X128702836Y-67775461D01*
X128556761Y-67714955D01*
X128400000Y-67694318D01*
X128243238Y-67714955D01*
X128097163Y-67775461D01*
X128097158Y-67775464D01*
X127971718Y-67871717D01*
X127971717Y-67871718D01*
X127875464Y-67997158D01*
X127875461Y-67997163D01*
X127814955Y-68143238D01*
X127794318Y-68300000D01*
X97140000Y-68300000D01*
X97140000Y-66900000D01*
X106794318Y-66900000D01*
X106814955Y-67056761D01*
X106875461Y-67202836D01*
X106875464Y-67202841D01*
X106968843Y-67324536D01*
X106971718Y-67328282D01*
X107097159Y-67424536D01*
X107097161Y-67424536D01*
X107097163Y-67424538D01*
X107220636Y-67475682D01*
X107243238Y-67485044D01*
X107400000Y-67505682D01*
X107556762Y-67485044D01*
X107702841Y-67424536D01*
X107828282Y-67328282D01*
X107924536Y-67202841D01*
X107985044Y-67056762D01*
X108005682Y-66900000D01*
X107992517Y-66800000D01*
X126194318Y-66800000D01*
X126214955Y-66956761D01*
X126275461Y-67102836D01*
X126275464Y-67102841D01*
X126352192Y-67202836D01*
X126371718Y-67228282D01*
X126497159Y-67324536D01*
X126497161Y-67324536D01*
X126497163Y-67324538D01*
X126574957Y-67356761D01*
X126643238Y-67385044D01*
X126800000Y-67405682D01*
X126956762Y-67385044D01*
X127102841Y-67324536D01*
X127228282Y-67228282D01*
X127249983Y-67200000D01*
X128894318Y-67200000D01*
X128914955Y-67356761D01*
X128975461Y-67502836D01*
X128975464Y-67502841D01*
X129071718Y-67628282D01*
X129197159Y-67724536D01*
X129197161Y-67724536D01*
X129197163Y-67724538D01*
X129320110Y-67775464D01*
X129343238Y-67785044D01*
X129500000Y-67805682D01*
X129656762Y-67785044D01*
X129802841Y-67724536D01*
X129928282Y-67628282D01*
X130024536Y-67502841D01*
X130085044Y-67356762D01*
X130105682Y-67200000D01*
X130085044Y-67043238D01*
X130077682Y-67025464D01*
X130024538Y-66897163D01*
X130024535Y-66897158D01*
X129928282Y-66771718D01*
X129928281Y-66771717D01*
X129802841Y-66675464D01*
X129802836Y-66675461D01*
X129656761Y-66614955D01*
X129500000Y-66594318D01*
X129343238Y-66614955D01*
X129197163Y-66675461D01*
X129197158Y-66675464D01*
X129071718Y-66771717D01*
X129071717Y-66771718D01*
X128975464Y-66897158D01*
X128975461Y-66897163D01*
X128914955Y-67043238D01*
X128894318Y-67200000D01*
X127249983Y-67200000D01*
X127324536Y-67102841D01*
X127385044Y-66956762D01*
X127405682Y-66800000D01*
X127385044Y-66643238D01*
X127365959Y-66597163D01*
X127324538Y-66497163D01*
X127324535Y-66497158D01*
X127228282Y-66371718D01*
X127228281Y-66371717D01*
X127102841Y-66275464D01*
X127102836Y-66275461D01*
X126956761Y-66214955D01*
X126800000Y-66194318D01*
X126643238Y-66214955D01*
X126497163Y-66275461D01*
X126497158Y-66275464D01*
X126371718Y-66371717D01*
X126371717Y-66371718D01*
X126275464Y-66497158D01*
X126275461Y-66497163D01*
X126214955Y-66643238D01*
X126194318Y-66800000D01*
X107992517Y-66800000D01*
X107985044Y-66743238D01*
X107931908Y-66614956D01*
X107924538Y-66597163D01*
X107924535Y-66597158D01*
X107847803Y-66497159D01*
X107828282Y-66471718D01*
X107702841Y-66375464D01*
X107702836Y-66375461D01*
X107556761Y-66314955D01*
X107400000Y-66294318D01*
X107243238Y-66314955D01*
X107097163Y-66375461D01*
X107097158Y-66375464D01*
X106971718Y-66471717D01*
X106971717Y-66471718D01*
X106875464Y-66597158D01*
X106875461Y-66597163D01*
X106814955Y-66743238D01*
X106794318Y-66900000D01*
X97140000Y-66900000D01*
X97140000Y-64800000D01*
X102994318Y-64800000D01*
X103014955Y-64956761D01*
X103075461Y-65102836D01*
X103075464Y-65102841D01*
X103171718Y-65228282D01*
X103297159Y-65324536D01*
X103297161Y-65324536D01*
X103297163Y-65324538D01*
X103391854Y-65363760D01*
X103443238Y-65385044D01*
X103600000Y-65405682D01*
X103756762Y-65385044D01*
X103902841Y-65324536D01*
X104028282Y-65228282D01*
X104124536Y-65102841D01*
X104125713Y-65100000D01*
X128144318Y-65100000D01*
X128164955Y-65256761D01*
X128225461Y-65402836D01*
X128225464Y-65402841D01*
X128321718Y-65528282D01*
X128447159Y-65624536D01*
X128447161Y-65624536D01*
X128447163Y-65624538D01*
X128593238Y-65685044D01*
X128750000Y-65705682D01*
X128793159Y-65700000D01*
X130294318Y-65700000D01*
X130314955Y-65856761D01*
X130375461Y-66002836D01*
X130375464Y-66002841D01*
X130406224Y-66042929D01*
X130471718Y-66128282D01*
X130597159Y-66224536D01*
X130597161Y-66224536D01*
X130597163Y-66224538D01*
X130720110Y-66275464D01*
X130743238Y-66285044D01*
X130900000Y-66305682D01*
X131056762Y-66285044D01*
X131202841Y-66224536D01*
X131328282Y-66128282D01*
X131424536Y-66002841D01*
X131485044Y-65856762D01*
X131505682Y-65700000D01*
X131485044Y-65543238D01*
X131478849Y-65528281D01*
X131424538Y-65397163D01*
X131424535Y-65397158D01*
X131392868Y-65355889D01*
X131328282Y-65271718D01*
X131296161Y-65247071D01*
X131202841Y-65175464D01*
X131202836Y-65175461D01*
X131056761Y-65114955D01*
X130900000Y-65094318D01*
X130743238Y-65114955D01*
X130597163Y-65175461D01*
X130597158Y-65175464D01*
X130471718Y-65271717D01*
X130471717Y-65271718D01*
X130375464Y-65397158D01*
X130375461Y-65397163D01*
X130314955Y-65543238D01*
X130294318Y-65700000D01*
X128793159Y-65700000D01*
X128906762Y-65685044D01*
X129052841Y-65624536D01*
X129178282Y-65528282D01*
X129274536Y-65402841D01*
X129335044Y-65256762D01*
X129355682Y-65100000D01*
X129335044Y-64943238D01*
X129322489Y-64912928D01*
X129274538Y-64797163D01*
X129274535Y-64797158D01*
X129235342Y-64746081D01*
X129178282Y-64671718D01*
X129102895Y-64613872D01*
X129052841Y-64575464D01*
X129052836Y-64575461D01*
X128906761Y-64514955D01*
X128750000Y-64494318D01*
X128593238Y-64514955D01*
X128447163Y-64575461D01*
X128447158Y-64575464D01*
X128321718Y-64671717D01*
X128321717Y-64671718D01*
X128225464Y-64797158D01*
X128225461Y-64797163D01*
X128164955Y-64943238D01*
X128144318Y-65100000D01*
X104125713Y-65100000D01*
X104185044Y-64956762D01*
X104205682Y-64800000D01*
X104185044Y-64643238D01*
X104131908Y-64514956D01*
X104124538Y-64497163D01*
X104124535Y-64497158D01*
X104028282Y-64371718D01*
X104028281Y-64371717D01*
X103902841Y-64275464D01*
X103902836Y-64275461D01*
X103756761Y-64214955D01*
X103600000Y-64194318D01*
X103443238Y-64214955D01*
X103297163Y-64275461D01*
X103297158Y-64275464D01*
X103171718Y-64371717D01*
X103171717Y-64371718D01*
X103075464Y-64497158D01*
X103075461Y-64497163D01*
X103014955Y-64643238D01*
X102994318Y-64800000D01*
X97140000Y-64800000D01*
X97140000Y-63300000D01*
X128319318Y-63300000D01*
X128339955Y-63456761D01*
X128400461Y-63602836D01*
X128400464Y-63602841D01*
X128493843Y-63724536D01*
X128496718Y-63728282D01*
X128622159Y-63824536D01*
X128622161Y-63824536D01*
X128622163Y-63824538D01*
X128718078Y-63864267D01*
X128768238Y-63885044D01*
X128925000Y-63905682D01*
X129081762Y-63885044D01*
X129227841Y-63824536D01*
X129353282Y-63728282D01*
X129449536Y-63602841D01*
X129510044Y-63456762D01*
X129521467Y-63369992D01*
X129540218Y-63337514D01*
X129576443Y-63327807D01*
X129608922Y-63346558D01*
X129615318Y-63357636D01*
X129675463Y-63502839D01*
X129675464Y-63502841D01*
X129768843Y-63624536D01*
X129771718Y-63628282D01*
X129897159Y-63724536D01*
X129897161Y-63724536D01*
X129897163Y-63724538D01*
X130043238Y-63785044D01*
X130200000Y-63805682D01*
X130356762Y-63785044D01*
X130502841Y-63724536D01*
X130628282Y-63628282D01*
X130724536Y-63502841D01*
X130785044Y-63356762D01*
X130801419Y-63232379D01*
X130819395Y-63201246D01*
X130875537Y-63201246D01*
X130888874Y-63208947D01*
X130898581Y-63232380D01*
X130914955Y-63356761D01*
X130975461Y-63502836D01*
X130975464Y-63502841D01*
X131068843Y-63624536D01*
X131071718Y-63628282D01*
X131197159Y-63724536D01*
X131197161Y-63724536D01*
X131197163Y-63724538D01*
X131343238Y-63785044D01*
X131500000Y-63805682D01*
X131656762Y-63785044D01*
X131802841Y-63724536D01*
X131928282Y-63628282D01*
X132024536Y-63502841D01*
X132085044Y-63356762D01*
X132105682Y-63200000D01*
X132085044Y-63043238D01*
X132065959Y-62997163D01*
X132024538Y-62897163D01*
X132024535Y-62897158D01*
X132006702Y-62873918D01*
X131928282Y-62771718D01*
X131894309Y-62745650D01*
X131802841Y-62675464D01*
X131802836Y-62675461D01*
X131656761Y-62614955D01*
X131500000Y-62594318D01*
X131343238Y-62614955D01*
X131197163Y-62675461D01*
X131197158Y-62675464D01*
X131071718Y-62771717D01*
X131071717Y-62771718D01*
X130975464Y-62897158D01*
X130975461Y-62897163D01*
X130914955Y-63043238D01*
X130898581Y-63167619D01*
X130879829Y-63200097D01*
X130875537Y-63201246D01*
X130819395Y-63201246D01*
X130820171Y-63199902D01*
X130824462Y-63198752D01*
X130811126Y-63191052D01*
X130801419Y-63167619D01*
X130785044Y-63043238D01*
X130724538Y-62897163D01*
X130724535Y-62897158D01*
X130706702Y-62873918D01*
X130628282Y-62771718D01*
X130594309Y-62745650D01*
X130502841Y-62675464D01*
X130502836Y-62675461D01*
X130356761Y-62614955D01*
X130200000Y-62594318D01*
X130043238Y-62614955D01*
X129897163Y-62675461D01*
X129897158Y-62675464D01*
X129771718Y-62771717D01*
X129771717Y-62771718D01*
X129675464Y-62897158D01*
X129675461Y-62897163D01*
X129614955Y-63043238D01*
X129603532Y-63130007D01*
X129584780Y-63162485D01*
X129548555Y-63172192D01*
X129516077Y-63153440D01*
X129509681Y-63142362D01*
X129504563Y-63130007D01*
X129449536Y-62997159D01*
X129353282Y-62871718D01*
X129321157Y-62847068D01*
X129227841Y-62775464D01*
X129227836Y-62775461D01*
X129081761Y-62714955D01*
X128925000Y-62694318D01*
X128768238Y-62714955D01*
X128622163Y-62775461D01*
X128622158Y-62775464D01*
X128496718Y-62871717D01*
X128496717Y-62871718D01*
X128400464Y-62997158D01*
X128400461Y-62997163D01*
X128339955Y-63143238D01*
X128319318Y-63300000D01*
X97140000Y-63300000D01*
X97140000Y-61768008D01*
X97702326Y-61768008D01*
X97722963Y-61924769D01*
X97783469Y-62070844D01*
X97783472Y-62070849D01*
X97879726Y-62196290D01*
X98005167Y-62292544D01*
X98005169Y-62292544D01*
X98005171Y-62292546D01*
X98134320Y-62346041D01*
X98151246Y-62353052D01*
X98308008Y-62373690D01*
X98464770Y-62353052D01*
X98610849Y-62292544D01*
X98736290Y-62196290D01*
X98832544Y-62070849D01*
X98861891Y-62000000D01*
X105794318Y-62000000D01*
X105814955Y-62156761D01*
X105875461Y-62302836D01*
X105875464Y-62302841D01*
X105971718Y-62428282D01*
X106097159Y-62524536D01*
X106097161Y-62524536D01*
X106097163Y-62524538D01*
X106196494Y-62565682D01*
X106243238Y-62585044D01*
X106400000Y-62605682D01*
X106556762Y-62585044D01*
X106702841Y-62524536D01*
X106828282Y-62428282D01*
X106924536Y-62302841D01*
X106967134Y-62200000D01*
X113394318Y-62200000D01*
X113414955Y-62356761D01*
X113475461Y-62502836D01*
X113475464Y-62502841D01*
X113563491Y-62617561D01*
X113571718Y-62628282D01*
X113697159Y-62724536D01*
X113697161Y-62724536D01*
X113697163Y-62724538D01*
X113820110Y-62775464D01*
X113843238Y-62785044D01*
X114000000Y-62805682D01*
X114156762Y-62785044D01*
X114302841Y-62724536D01*
X114428282Y-62628282D01*
X114524536Y-62502841D01*
X114585044Y-62356762D01*
X114605682Y-62200000D01*
X115894318Y-62200000D01*
X115914955Y-62356761D01*
X115975461Y-62502836D01*
X115975464Y-62502841D01*
X116063491Y-62617561D01*
X116071718Y-62628282D01*
X116197159Y-62724536D01*
X116197161Y-62724536D01*
X116197163Y-62724538D01*
X116320110Y-62775464D01*
X116343238Y-62785044D01*
X116500000Y-62805682D01*
X116656762Y-62785044D01*
X116802841Y-62724536D01*
X116928282Y-62628282D01*
X117024536Y-62502841D01*
X117085044Y-62356762D01*
X117092517Y-62300000D01*
X118394318Y-62300000D01*
X118414955Y-62456761D01*
X118475461Y-62602836D01*
X118475464Y-62602841D01*
X118568843Y-62724536D01*
X118571718Y-62728282D01*
X118697159Y-62824536D01*
X118697161Y-62824536D01*
X118697163Y-62824538D01*
X118843238Y-62885044D01*
X119000000Y-62905682D01*
X119156762Y-62885044D01*
X119302841Y-62824536D01*
X119428282Y-62728282D01*
X119524536Y-62602841D01*
X119585044Y-62456762D01*
X119605682Y-62300000D01*
X120894318Y-62300000D01*
X120914955Y-62456761D01*
X120975461Y-62602836D01*
X120975464Y-62602841D01*
X121068843Y-62724536D01*
X121071718Y-62728282D01*
X121197159Y-62824536D01*
X121197161Y-62824536D01*
X121197163Y-62824538D01*
X121343238Y-62885044D01*
X121500000Y-62905682D01*
X121656762Y-62885044D01*
X121802841Y-62824536D01*
X121928282Y-62728282D01*
X122024536Y-62602841D01*
X122085044Y-62456762D01*
X122105682Y-62300000D01*
X122092517Y-62200000D01*
X123394318Y-62200000D01*
X123414955Y-62356761D01*
X123475461Y-62502836D01*
X123475464Y-62502841D01*
X123563491Y-62617561D01*
X123571718Y-62628282D01*
X123697159Y-62724536D01*
X123697161Y-62724536D01*
X123697163Y-62724538D01*
X123820110Y-62775464D01*
X123843238Y-62785044D01*
X124000000Y-62805682D01*
X124156762Y-62785044D01*
X124302841Y-62724536D01*
X124428282Y-62628282D01*
X124524536Y-62502841D01*
X124585044Y-62356762D01*
X124592517Y-62300000D01*
X125894318Y-62300000D01*
X125914955Y-62456761D01*
X125975461Y-62602836D01*
X125975464Y-62602841D01*
X126068843Y-62724536D01*
X126071718Y-62728282D01*
X126197159Y-62824536D01*
X126197161Y-62824536D01*
X126197163Y-62824538D01*
X126343238Y-62885044D01*
X126500000Y-62905682D01*
X126656762Y-62885044D01*
X126802841Y-62824536D01*
X126928282Y-62728282D01*
X127024536Y-62602841D01*
X127085044Y-62456762D01*
X127105682Y-62300000D01*
X127085044Y-62143238D01*
X127065168Y-62095252D01*
X127024538Y-61997163D01*
X127024535Y-61997158D01*
X126947803Y-61897159D01*
X126928282Y-61871718D01*
X126906227Y-61854795D01*
X126802841Y-61775464D01*
X126802836Y-61775461D01*
X126656761Y-61714955D01*
X126500000Y-61694318D01*
X126343238Y-61714955D01*
X126197163Y-61775461D01*
X126197158Y-61775464D01*
X126071718Y-61871717D01*
X126071717Y-61871718D01*
X125975464Y-61997158D01*
X125975461Y-61997163D01*
X125914955Y-62143238D01*
X125894318Y-62300000D01*
X124592517Y-62300000D01*
X124605682Y-62200000D01*
X124585044Y-62043238D01*
X124565959Y-61997163D01*
X124524538Y-61897163D01*
X124524535Y-61897158D01*
X124428282Y-61771718D01*
X124428281Y-61771717D01*
X124302841Y-61675464D01*
X124302836Y-61675461D01*
X124156761Y-61614955D01*
X124000000Y-61594318D01*
X123843238Y-61614955D01*
X123697163Y-61675461D01*
X123697158Y-61675464D01*
X123571718Y-61771717D01*
X123571717Y-61771718D01*
X123475464Y-61897158D01*
X123475461Y-61897163D01*
X123414955Y-62043238D01*
X123394318Y-62200000D01*
X122092517Y-62200000D01*
X122085044Y-62143238D01*
X122065168Y-62095252D01*
X122024538Y-61997163D01*
X122024535Y-61997158D01*
X121947803Y-61897159D01*
X121928282Y-61871718D01*
X121906227Y-61854795D01*
X121802841Y-61775464D01*
X121802836Y-61775461D01*
X121656761Y-61714955D01*
X121500000Y-61694318D01*
X121343238Y-61714955D01*
X121197163Y-61775461D01*
X121197158Y-61775464D01*
X121071718Y-61871717D01*
X121071717Y-61871718D01*
X120975464Y-61997158D01*
X120975461Y-61997163D01*
X120914955Y-62143238D01*
X120894318Y-62300000D01*
X119605682Y-62300000D01*
X119585044Y-62143238D01*
X119565168Y-62095252D01*
X119524538Y-61997163D01*
X119524535Y-61997158D01*
X119447803Y-61897159D01*
X119428282Y-61871718D01*
X119406227Y-61854795D01*
X119302841Y-61775464D01*
X119302836Y-61775461D01*
X119156761Y-61714955D01*
X119000000Y-61694318D01*
X118843238Y-61714955D01*
X118697163Y-61775461D01*
X118697158Y-61775464D01*
X118571718Y-61871717D01*
X118571717Y-61871718D01*
X118475464Y-61997158D01*
X118475461Y-61997163D01*
X118414955Y-62143238D01*
X118394318Y-62300000D01*
X117092517Y-62300000D01*
X117105682Y-62200000D01*
X117085044Y-62043238D01*
X117065959Y-61997163D01*
X117024538Y-61897163D01*
X117024535Y-61897158D01*
X116928282Y-61771718D01*
X116928281Y-61771717D01*
X116802841Y-61675464D01*
X116802836Y-61675461D01*
X116656761Y-61614955D01*
X116500000Y-61594318D01*
X116343238Y-61614955D01*
X116197163Y-61675461D01*
X116197158Y-61675464D01*
X116071718Y-61771717D01*
X116071717Y-61771718D01*
X115975464Y-61897158D01*
X115975461Y-61897163D01*
X115914955Y-62043238D01*
X115894318Y-62200000D01*
X114605682Y-62200000D01*
X114585044Y-62043238D01*
X114565959Y-61997163D01*
X114524538Y-61897163D01*
X114524535Y-61897158D01*
X114428282Y-61771718D01*
X114428281Y-61771717D01*
X114302841Y-61675464D01*
X114302836Y-61675461D01*
X114156761Y-61614955D01*
X114000000Y-61594318D01*
X113843238Y-61614955D01*
X113697163Y-61675461D01*
X113697158Y-61675464D01*
X113571718Y-61771717D01*
X113571717Y-61771718D01*
X113475464Y-61897158D01*
X113475461Y-61897163D01*
X113414955Y-62043238D01*
X113394318Y-62200000D01*
X106967134Y-62200000D01*
X106985044Y-62156762D01*
X107005682Y-62000000D01*
X106985044Y-61843238D01*
X106924538Y-61697163D01*
X106924535Y-61697158D01*
X106907886Y-61675461D01*
X106828282Y-61571718D01*
X106702841Y-61475464D01*
X106702836Y-61475461D01*
X106556761Y-61414955D01*
X106400000Y-61394318D01*
X106243238Y-61414955D01*
X106097163Y-61475461D01*
X106097158Y-61475464D01*
X105971718Y-61571717D01*
X105971717Y-61571718D01*
X105875464Y-61697158D01*
X105875461Y-61697163D01*
X105814955Y-61843238D01*
X105794318Y-62000000D01*
X98861891Y-62000000D01*
X98893052Y-61924770D01*
X98913690Y-61768008D01*
X98893052Y-61611246D01*
X98876264Y-61570716D01*
X98832546Y-61465171D01*
X98832543Y-61465166D01*
X98736290Y-61339726D01*
X98736289Y-61339725D01*
X98610849Y-61243472D01*
X98610844Y-61243469D01*
X98464769Y-61182963D01*
X98308008Y-61162326D01*
X98151246Y-61182963D01*
X98005171Y-61243469D01*
X98005166Y-61243472D01*
X97879726Y-61339725D01*
X97879725Y-61339726D01*
X97783472Y-61465166D01*
X97783469Y-61465171D01*
X97722963Y-61611246D01*
X97702326Y-61768008D01*
X97140000Y-61768008D01*
X97140000Y-59700000D01*
X104894318Y-59700000D01*
X104914955Y-59856761D01*
X104975461Y-60002836D01*
X104975464Y-60002841D01*
X105068668Y-60124308D01*
X105071718Y-60128282D01*
X105197159Y-60224536D01*
X105197161Y-60224536D01*
X105197163Y-60224538D01*
X105320110Y-60275464D01*
X105343238Y-60285044D01*
X105436190Y-60297281D01*
X105468668Y-60316032D01*
X105478375Y-60352258D01*
X105468669Y-60375691D01*
X105375461Y-60497163D01*
X105314955Y-60643238D01*
X105294318Y-60800000D01*
X105314955Y-60956761D01*
X105375461Y-61102836D01*
X105375464Y-61102841D01*
X105470436Y-61226612D01*
X105471718Y-61228282D01*
X105597159Y-61324536D01*
X105597161Y-61324536D01*
X105597163Y-61324538D01*
X105690700Y-61363282D01*
X105743238Y-61385044D01*
X105900000Y-61405682D01*
X106056762Y-61385044D01*
X106202841Y-61324536D01*
X106328282Y-61228282D01*
X106424536Y-61102841D01*
X106485044Y-60956762D01*
X106505682Y-60800000D01*
X106485044Y-60643238D01*
X106465972Y-60597193D01*
X106424538Y-60497163D01*
X106424535Y-60497158D01*
X106392317Y-60455171D01*
X106349983Y-60400000D01*
X107994318Y-60400000D01*
X108014955Y-60556761D01*
X108075461Y-60702836D01*
X108075464Y-60702841D01*
X108152987Y-60803872D01*
X108171718Y-60828282D01*
X108297159Y-60924536D01*
X108297161Y-60924536D01*
X108297163Y-60924538D01*
X108400060Y-60967159D01*
X108443238Y-60985044D01*
X108600000Y-61005682D01*
X108756762Y-60985044D01*
X108902841Y-60924536D01*
X109028282Y-60828282D01*
X109124536Y-60702841D01*
X109185044Y-60556762D01*
X109205682Y-60400000D01*
X109185044Y-60243238D01*
X109163722Y-60191762D01*
X109124538Y-60097163D01*
X109124535Y-60097158D01*
X109028282Y-59971718D01*
X109028281Y-59971717D01*
X108957351Y-59917291D01*
X108938599Y-59884813D01*
X108948306Y-59848588D01*
X108980784Y-59829836D01*
X108993574Y-59829836D01*
X109000000Y-59830682D01*
X109156762Y-59810044D01*
X109302841Y-59749536D01*
X109428282Y-59653282D01*
X109524536Y-59527841D01*
X109585044Y-59381762D01*
X109605682Y-59225000D01*
X109585044Y-59068238D01*
X109580512Y-59057297D01*
X109524538Y-58922163D01*
X109524535Y-58922158D01*
X109498507Y-58888238D01*
X109428282Y-58796718D01*
X109412055Y-58784267D01*
X109302841Y-58700464D01*
X109302836Y-58700461D01*
X109156761Y-58639955D01*
X109000000Y-58619318D01*
X108843238Y-58639955D01*
X108697163Y-58700461D01*
X108697158Y-58700464D01*
X108571718Y-58796717D01*
X108571717Y-58796718D01*
X108475464Y-58922158D01*
X108475461Y-58922163D01*
X108414955Y-59068238D01*
X108394318Y-59225000D01*
X108414955Y-59381761D01*
X108475461Y-59527836D01*
X108475464Y-59527841D01*
X108563322Y-59642341D01*
X108571718Y-59653282D01*
X108632602Y-59700000D01*
X108642648Y-59707708D01*
X108661400Y-59740186D01*
X108651693Y-59776411D01*
X108619215Y-59795163D01*
X108606427Y-59795163D01*
X108600005Y-59794318D01*
X108600001Y-59794318D01*
X108600000Y-59794318D01*
X108593582Y-59795163D01*
X108443238Y-59814955D01*
X108297163Y-59875461D01*
X108297158Y-59875464D01*
X108171718Y-59971717D01*
X108171717Y-59971718D01*
X108075464Y-60097158D01*
X108075461Y-60097163D01*
X108014955Y-60243238D01*
X107994318Y-60400000D01*
X106349983Y-60400000D01*
X106328282Y-60371718D01*
X106255710Y-60316032D01*
X106202841Y-60275464D01*
X106202836Y-60275461D01*
X106056761Y-60214955D01*
X105963809Y-60202718D01*
X105931331Y-60183966D01*
X105921624Y-60147741D01*
X105931331Y-60124308D01*
X106024536Y-60002841D01*
X106085044Y-59856762D01*
X106105682Y-59700000D01*
X106085044Y-59543238D01*
X106078664Y-59527836D01*
X106024538Y-59397163D01*
X106024535Y-59397158D01*
X105999859Y-59365000D01*
X105928282Y-59271718D01*
X105838519Y-59202841D01*
X105802841Y-59175464D01*
X105802836Y-59175461D01*
X105656761Y-59114955D01*
X105500000Y-59094318D01*
X105343238Y-59114955D01*
X105197163Y-59175461D01*
X105197158Y-59175464D01*
X105071718Y-59271717D01*
X105071717Y-59271718D01*
X104975464Y-59397158D01*
X104975461Y-59397163D01*
X104914955Y-59543238D01*
X104894318Y-59700000D01*
X97140000Y-59700000D01*
X97140000Y-58200000D01*
X130894318Y-58200000D01*
X130914955Y-58356761D01*
X130975461Y-58502836D01*
X130975464Y-58502841D01*
X131064839Y-58619318D01*
X131071718Y-58628282D01*
X131197159Y-58724536D01*
X131197161Y-58724536D01*
X131197163Y-58724538D01*
X131315098Y-58773388D01*
X131343238Y-58785044D01*
X131500000Y-58805682D01*
X131656762Y-58785044D01*
X131802841Y-58724536D01*
X131928282Y-58628282D01*
X132024536Y-58502841D01*
X132085044Y-58356762D01*
X132105682Y-58200000D01*
X132085044Y-58043238D01*
X132046141Y-57949318D01*
X132024538Y-57897163D01*
X132024535Y-57897158D01*
X131928282Y-57771718D01*
X131928281Y-57771717D01*
X131802841Y-57675464D01*
X131802836Y-57675461D01*
X131656761Y-57614955D01*
X131500000Y-57594318D01*
X131343238Y-57614955D01*
X131197163Y-57675461D01*
X131197158Y-57675464D01*
X131071718Y-57771717D01*
X131071717Y-57771718D01*
X130975464Y-57897158D01*
X130975461Y-57897163D01*
X130914955Y-58043238D01*
X130894318Y-58200000D01*
X97140000Y-58200000D01*
X97140000Y-56700000D01*
X100394318Y-56700000D01*
X100414955Y-56856761D01*
X100475461Y-57002836D01*
X100475464Y-57002841D01*
X100557723Y-57110044D01*
X100571718Y-57128282D01*
X100697159Y-57224536D01*
X100697161Y-57224536D01*
X100697163Y-57224538D01*
X100843238Y-57285044D01*
X101000000Y-57305682D01*
X101156762Y-57285044D01*
X101302841Y-57224536D01*
X101428282Y-57128282D01*
X101524536Y-57002841D01*
X101585044Y-56856762D01*
X101605682Y-56700000D01*
X127694318Y-56700000D01*
X127714955Y-56856761D01*
X127775461Y-57002836D01*
X127775464Y-57002841D01*
X127857723Y-57110044D01*
X127871718Y-57128282D01*
X127997159Y-57224536D01*
X127997161Y-57224536D01*
X127997163Y-57224538D01*
X128143238Y-57285044D01*
X128300000Y-57305682D01*
X128456762Y-57285044D01*
X128602841Y-57224536D01*
X128728282Y-57128282D01*
X128824536Y-57002841D01*
X128885044Y-56856762D01*
X128905682Y-56700000D01*
X128885044Y-56543238D01*
X128831644Y-56414318D01*
X128824538Y-56397163D01*
X128824535Y-56397158D01*
X128768810Y-56324536D01*
X128728282Y-56271718D01*
X128692508Y-56244268D01*
X128602841Y-56175464D01*
X128602836Y-56175461D01*
X128456761Y-56114955D01*
X128300000Y-56094318D01*
X128143238Y-56114955D01*
X127997163Y-56175461D01*
X127997158Y-56175464D01*
X127871718Y-56271717D01*
X127871717Y-56271718D01*
X127775464Y-56397158D01*
X127775461Y-56397163D01*
X127714955Y-56543238D01*
X127694318Y-56700000D01*
X101605682Y-56700000D01*
X101585044Y-56543238D01*
X101531644Y-56414318D01*
X101524538Y-56397163D01*
X101524535Y-56397158D01*
X101468810Y-56324536D01*
X101428282Y-56271718D01*
X101392508Y-56244268D01*
X101302841Y-56175464D01*
X101302836Y-56175461D01*
X101156761Y-56114955D01*
X101000000Y-56094318D01*
X100843238Y-56114955D01*
X100697163Y-56175461D01*
X100697158Y-56175464D01*
X100571718Y-56271717D01*
X100571717Y-56271718D01*
X100475464Y-56397158D01*
X100475461Y-56397163D01*
X100414955Y-56543238D01*
X100394318Y-56700000D01*
X97140000Y-56700000D01*
X97140000Y-55800000D01*
X110794318Y-55800000D01*
X110814955Y-55956761D01*
X110875461Y-56102836D01*
X110875464Y-56102841D01*
X110967019Y-56222159D01*
X110971718Y-56228282D01*
X111097159Y-56324536D01*
X111097161Y-56324536D01*
X111097163Y-56324538D01*
X111150817Y-56346762D01*
X111243238Y-56385044D01*
X111400000Y-56405682D01*
X111556762Y-56385044D01*
X111702841Y-56324536D01*
X111828282Y-56228282D01*
X111924536Y-56102841D01*
X111985044Y-55956762D01*
X111999099Y-55850000D01*
X113294318Y-55850000D01*
X113314955Y-56006761D01*
X113375461Y-56152836D01*
X113375464Y-56152841D01*
X113466680Y-56271717D01*
X113471718Y-56278282D01*
X113597159Y-56374536D01*
X113597161Y-56374536D01*
X113597163Y-56374538D01*
X113672352Y-56405682D01*
X113743238Y-56435044D01*
X113900000Y-56455682D01*
X114056762Y-56435044D01*
X114202841Y-56374536D01*
X114328282Y-56278282D01*
X114424536Y-56152841D01*
X114485044Y-56006762D01*
X114505682Y-55850000D01*
X115894318Y-55850000D01*
X115914955Y-56006761D01*
X115975461Y-56152836D01*
X115975464Y-56152841D01*
X116066680Y-56271717D01*
X116071718Y-56278282D01*
X116197159Y-56374536D01*
X116197161Y-56374536D01*
X116197163Y-56374538D01*
X116272352Y-56405682D01*
X116343238Y-56435044D01*
X116500000Y-56455682D01*
X116656762Y-56435044D01*
X116802841Y-56374536D01*
X116928282Y-56278282D01*
X117024536Y-56152841D01*
X117085044Y-56006762D01*
X117105682Y-55850000D01*
X117085044Y-55693238D01*
X117064333Y-55643238D01*
X117024538Y-55547163D01*
X117024535Y-55547158D01*
X116988350Y-55500000D01*
X118394318Y-55500000D01*
X118414955Y-55656761D01*
X118475461Y-55802836D01*
X118475464Y-55802841D01*
X118564839Y-55919318D01*
X118571718Y-55928282D01*
X118697159Y-56024536D01*
X118697161Y-56024536D01*
X118697163Y-56024538D01*
X118718167Y-56033238D01*
X118843238Y-56085044D01*
X119000000Y-56105682D01*
X119156762Y-56085044D01*
X119302841Y-56024536D01*
X119428282Y-55928282D01*
X119524536Y-55802841D01*
X119585044Y-55656762D01*
X119605682Y-55500000D01*
X120894318Y-55500000D01*
X120914955Y-55656761D01*
X120975461Y-55802836D01*
X120975464Y-55802841D01*
X121064839Y-55919318D01*
X121071718Y-55928282D01*
X121197159Y-56024536D01*
X121197161Y-56024536D01*
X121197163Y-56024538D01*
X121218167Y-56033238D01*
X121343238Y-56085044D01*
X121500000Y-56105682D01*
X121656762Y-56085044D01*
X121802841Y-56024536D01*
X121928282Y-55928282D01*
X121949983Y-55900000D01*
X129794318Y-55900000D01*
X129814955Y-56056761D01*
X129875461Y-56202836D01*
X129875464Y-56202841D01*
X129968843Y-56324536D01*
X129971718Y-56328282D01*
X130097159Y-56424536D01*
X130097161Y-56424536D01*
X130097163Y-56424538D01*
X130172352Y-56455682D01*
X130243238Y-56485044D01*
X130400000Y-56505682D01*
X130556762Y-56485044D01*
X130702841Y-56424536D01*
X130828282Y-56328282D01*
X130924536Y-56202841D01*
X130985044Y-56056762D01*
X131005682Y-55900000D01*
X130985044Y-55743238D01*
X130952829Y-55665464D01*
X130924538Y-55597163D01*
X130924535Y-55597158D01*
X130847803Y-55497159D01*
X130828282Y-55471718D01*
X130702841Y-55375464D01*
X130702836Y-55375461D01*
X130556761Y-55314955D01*
X130400000Y-55294318D01*
X130243238Y-55314955D01*
X130097163Y-55375461D01*
X130097158Y-55375464D01*
X129971718Y-55471717D01*
X129971717Y-55471718D01*
X129875464Y-55597158D01*
X129875461Y-55597163D01*
X129814955Y-55743238D01*
X129794318Y-55900000D01*
X121949983Y-55900000D01*
X122024536Y-55802841D01*
X122085044Y-55656762D01*
X122105682Y-55500000D01*
X122085044Y-55343238D01*
X122073329Y-55314955D01*
X122024538Y-55197163D01*
X122024535Y-55197158D01*
X121928282Y-55071718D01*
X121928281Y-55071717D01*
X121802841Y-54975464D01*
X121802836Y-54975461D01*
X121656761Y-54914955D01*
X121500000Y-54894318D01*
X121343238Y-54914955D01*
X121197163Y-54975461D01*
X121197158Y-54975464D01*
X121071718Y-55071717D01*
X121071717Y-55071718D01*
X120975464Y-55197158D01*
X120975461Y-55197163D01*
X120914955Y-55343238D01*
X120894318Y-55500000D01*
X119605682Y-55500000D01*
X119585044Y-55343238D01*
X119573329Y-55314955D01*
X119524538Y-55197163D01*
X119524535Y-55197158D01*
X119428282Y-55071718D01*
X119428281Y-55071717D01*
X119302841Y-54975464D01*
X119302836Y-54975461D01*
X119156761Y-54914955D01*
X119000000Y-54894318D01*
X118843238Y-54914955D01*
X118697163Y-54975461D01*
X118697158Y-54975464D01*
X118571718Y-55071717D01*
X118571717Y-55071718D01*
X118475464Y-55197158D01*
X118475461Y-55197163D01*
X118414955Y-55343238D01*
X118394318Y-55500000D01*
X116988350Y-55500000D01*
X116928282Y-55421718D01*
X116928281Y-55421717D01*
X116802841Y-55325464D01*
X116802836Y-55325461D01*
X116656761Y-55264955D01*
X116500000Y-55244318D01*
X116343238Y-55264955D01*
X116197163Y-55325461D01*
X116197158Y-55325464D01*
X116071718Y-55421717D01*
X116071717Y-55421718D01*
X115975464Y-55547158D01*
X115975461Y-55547163D01*
X115914955Y-55693238D01*
X115894318Y-55850000D01*
X114505682Y-55850000D01*
X114485044Y-55693238D01*
X114464333Y-55643238D01*
X114424538Y-55547163D01*
X114424535Y-55547158D01*
X114328282Y-55421718D01*
X114328281Y-55421717D01*
X114202841Y-55325464D01*
X114202836Y-55325461D01*
X114056761Y-55264955D01*
X113900000Y-55244318D01*
X113743238Y-55264955D01*
X113597163Y-55325461D01*
X113597158Y-55325464D01*
X113471718Y-55421717D01*
X113471717Y-55421718D01*
X113375464Y-55547158D01*
X113375461Y-55547163D01*
X113314955Y-55693238D01*
X113294318Y-55850000D01*
X111999099Y-55850000D01*
X112005682Y-55800000D01*
X111985044Y-55643238D01*
X111965959Y-55597163D01*
X111924538Y-55497163D01*
X111924535Y-55497158D01*
X111828282Y-55371718D01*
X111828281Y-55371717D01*
X111702841Y-55275464D01*
X111702836Y-55275461D01*
X111556761Y-55214955D01*
X111400000Y-55194318D01*
X111243238Y-55214955D01*
X111097163Y-55275461D01*
X111097158Y-55275464D01*
X110971718Y-55371717D01*
X110971717Y-55371718D01*
X110875464Y-55497158D01*
X110875461Y-55497163D01*
X110814955Y-55643238D01*
X110794318Y-55800000D01*
X97140000Y-55800000D01*
X97140000Y-54925065D01*
X72735433Y-54747880D01*
X72743750Y-69950973D01*
X72729417Y-69985629D01*
X72694777Y-70000000D01*
X50049000Y-70000000D01*
X50014352Y-69985648D01*
X50000000Y-69951000D01*
X50000000Y-54535000D01*
X51460839Y-54535000D01*
X51501650Y-54669536D01*
X51594506Y-54843258D01*
X51594511Y-54843265D01*
X51719472Y-54995527D01*
X51841359Y-55095559D01*
X51859037Y-55128634D01*
X51850599Y-55161271D01*
X51805182Y-55227068D01*
X51805181Y-55227070D01*
X51756568Y-55355255D01*
X51744860Y-55386128D01*
X51724355Y-55555000D01*
X51744860Y-55723872D01*
X51759213Y-55761718D01*
X51805181Y-55882929D01*
X51805182Y-55882931D01*
X51901816Y-56022928D01*
X51901817Y-56022929D01*
X52029148Y-56135734D01*
X52029156Y-56135738D01*
X52049875Y-56146613D01*
X52073885Y-56175423D01*
X52070490Y-56212772D01*
X52049875Y-56233387D01*
X52029156Y-56244261D01*
X52029151Y-56244264D01*
X52029148Y-56244266D01*
X52029147Y-56244267D01*
X52029146Y-56244268D01*
X51901816Y-56357071D01*
X51805182Y-56497068D01*
X51805181Y-56497070D01*
X51769287Y-56591718D01*
X51744860Y-56656128D01*
X51724355Y-56825000D01*
X51744860Y-56993872D01*
X51754769Y-57020000D01*
X51805181Y-57152929D01*
X51805182Y-57152931D01*
X51874415Y-57253231D01*
X51901817Y-57292929D01*
X52029148Y-57405734D01*
X52029156Y-57405738D01*
X52049875Y-57416613D01*
X52073885Y-57445423D01*
X52070490Y-57482772D01*
X52049875Y-57503387D01*
X52029156Y-57514261D01*
X52029151Y-57514264D01*
X52029148Y-57514266D01*
X52029147Y-57514267D01*
X52029146Y-57514268D01*
X51901816Y-57627071D01*
X51805182Y-57767068D01*
X51805181Y-57767070D01*
X51755846Y-57897159D01*
X51744860Y-57926128D01*
X51724355Y-58095000D01*
X51744860Y-58263872D01*
X51744861Y-58263874D01*
X51805181Y-58422929D01*
X51805182Y-58422931D01*
X51872503Y-58520461D01*
X51901817Y-58562929D01*
X52029148Y-58675734D01*
X52029156Y-58675738D01*
X52049875Y-58686613D01*
X52073885Y-58715423D01*
X52070490Y-58752772D01*
X52049875Y-58773387D01*
X52029156Y-58784261D01*
X52029151Y-58784264D01*
X52029148Y-58784266D01*
X52029147Y-58784267D01*
X52029146Y-58784268D01*
X51901816Y-58897071D01*
X51805182Y-59037068D01*
X51805181Y-59037070D01*
X51745546Y-59194318D01*
X51744860Y-59196128D01*
X51724355Y-59365000D01*
X51744860Y-59533872D01*
X51744861Y-59533874D01*
X51805181Y-59692929D01*
X51805182Y-59692931D01*
X51889410Y-59814955D01*
X51901817Y-59832929D01*
X52029148Y-59945734D01*
X52029156Y-59945738D01*
X52049875Y-59956613D01*
X52073885Y-59985423D01*
X52070490Y-60022772D01*
X52049875Y-60043387D01*
X52029156Y-60054261D01*
X52029151Y-60054264D01*
X52029148Y-60054266D01*
X52029147Y-60054267D01*
X52029146Y-60054268D01*
X51901816Y-60167071D01*
X51805182Y-60307068D01*
X51805181Y-60307070D01*
X51751152Y-60449536D01*
X51744860Y-60466128D01*
X51724355Y-60635000D01*
X51744860Y-60803872D01*
X51759213Y-60841718D01*
X51805181Y-60962929D01*
X51805182Y-60962931D01*
X51901756Y-61102841D01*
X51901817Y-61102929D01*
X52029148Y-61215734D01*
X52029156Y-61215738D01*
X52049875Y-61226613D01*
X52073885Y-61255423D01*
X52070490Y-61292772D01*
X52049875Y-61313387D01*
X52029156Y-61324261D01*
X52029151Y-61324264D01*
X52029148Y-61324266D01*
X52028843Y-61324536D01*
X51901816Y-61437071D01*
X51805182Y-61577068D01*
X51805181Y-61577070D01*
X51759637Y-61697163D01*
X51744860Y-61736128D01*
X51724355Y-61905000D01*
X51744860Y-62073872D01*
X51744861Y-62073874D01*
X51805181Y-62232929D01*
X51805182Y-62232931D01*
X51894836Y-62362816D01*
X51901817Y-62372929D01*
X52029148Y-62485734D01*
X52029156Y-62485738D01*
X52049875Y-62496613D01*
X52073885Y-62525423D01*
X52070490Y-62562772D01*
X52049875Y-62583387D01*
X52029156Y-62594261D01*
X52029151Y-62594264D01*
X52029148Y-62594266D01*
X52019469Y-62602841D01*
X51901816Y-62707071D01*
X51805182Y-62847068D01*
X51805181Y-62847070D01*
X51750817Y-62990420D01*
X51744860Y-63006128D01*
X51724355Y-63175000D01*
X51744860Y-63343872D01*
X51754766Y-63369993D01*
X51805181Y-63502929D01*
X51805182Y-63502931D01*
X51901816Y-63642928D01*
X51901817Y-63642929D01*
X52029148Y-63755734D01*
X52029156Y-63755738D01*
X52049875Y-63766613D01*
X52073885Y-63795423D01*
X52070490Y-63832772D01*
X52049875Y-63853387D01*
X52029156Y-63864261D01*
X52029151Y-63864264D01*
X52029148Y-63864266D01*
X52029147Y-63864267D01*
X52029146Y-63864268D01*
X51901816Y-63977071D01*
X51805182Y-64117068D01*
X51805181Y-64117070D01*
X51768059Y-64214956D01*
X51744860Y-64276128D01*
X51724355Y-64445000D01*
X51744860Y-64613872D01*
X51744861Y-64613874D01*
X51805181Y-64772929D01*
X51805182Y-64772931D01*
X51822501Y-64798021D01*
X51901817Y-64912929D01*
X52029148Y-65025734D01*
X52029156Y-65025738D01*
X52049875Y-65036613D01*
X52073885Y-65065423D01*
X52070490Y-65102772D01*
X52049875Y-65123387D01*
X52029156Y-65134261D01*
X52029151Y-65134264D01*
X52029148Y-65134266D01*
X52029147Y-65134267D01*
X52029146Y-65134268D01*
X51901816Y-65247071D01*
X51805182Y-65387068D01*
X51805181Y-65387070D01*
X51751628Y-65528281D01*
X51744860Y-65546128D01*
X51724355Y-65715000D01*
X51744860Y-65883872D01*
X51744861Y-65883874D01*
X51805181Y-66042929D01*
X51805182Y-66042931D01*
X51892923Y-66170044D01*
X51901817Y-66182929D01*
X52029148Y-66295734D01*
X52179775Y-66374790D01*
X52344944Y-66415500D01*
X52515056Y-66415500D01*
X52680225Y-66374790D01*
X52830852Y-66295734D01*
X52958183Y-66182929D01*
X53024674Y-66086601D01*
X53056168Y-66066239D01*
X53092835Y-66074110D01*
X53105326Y-66086601D01*
X53139204Y-66135682D01*
X53171817Y-66182929D01*
X53299148Y-66295734D01*
X53449775Y-66374790D01*
X53614944Y-66415500D01*
X53785056Y-66415500D01*
X53950225Y-66374790D01*
X54100852Y-66295734D01*
X54228183Y-66182929D01*
X54324818Y-66042930D01*
X54385140Y-65883872D01*
X54405645Y-65715000D01*
X54385140Y-65546128D01*
X54324818Y-65387070D01*
X54315270Y-65373238D01*
X54302855Y-65355252D01*
X62434500Y-65355252D01*
X62434500Y-67194748D01*
X62446133Y-67253231D01*
X62463882Y-67279795D01*
X62490447Y-67319552D01*
X62503513Y-67328282D01*
X62556769Y-67363867D01*
X62615252Y-67375500D01*
X62615255Y-67375500D01*
X64454745Y-67375500D01*
X64454748Y-67375500D01*
X64513231Y-67363867D01*
X64579552Y-67319552D01*
X64623867Y-67253231D01*
X64635500Y-67194748D01*
X64635500Y-65355252D01*
X64623867Y-65296769D01*
X64597134Y-65256761D01*
X64579552Y-65230447D01*
X64539795Y-65203882D01*
X64513231Y-65186133D01*
X64454748Y-65174500D01*
X62615252Y-65174500D01*
X62556769Y-65186133D01*
X62490447Y-65230447D01*
X62455895Y-65282159D01*
X62446133Y-65296769D01*
X62434500Y-65355252D01*
X54302855Y-65355252D01*
X54228183Y-65247071D01*
X54100853Y-65134267D01*
X54100852Y-65134266D01*
X54080122Y-65123386D01*
X54056114Y-65094579D01*
X54059507Y-65057229D01*
X54080122Y-65036613D01*
X54100852Y-65025734D01*
X54228183Y-64912929D01*
X54324818Y-64772930D01*
X54385140Y-64613872D01*
X54405645Y-64445000D01*
X54385140Y-64276128D01*
X54324818Y-64117070D01*
X54228183Y-63977071D01*
X54100852Y-63864266D01*
X54080122Y-63853386D01*
X54056114Y-63824579D01*
X54059507Y-63787229D01*
X54080122Y-63766613D01*
X54100852Y-63755734D01*
X54124256Y-63735000D01*
X62429785Y-63735000D01*
X62448602Y-63938079D01*
X62448603Y-63938085D01*
X62504417Y-64134248D01*
X62504420Y-64134255D01*
X62595325Y-64316818D01*
X62595328Y-64316822D01*
X62718233Y-64479576D01*
X62718236Y-64479579D01*
X62868954Y-64616977D01*
X62868955Y-64616978D01*
X62868959Y-64616981D01*
X63042363Y-64724348D01*
X63232544Y-64798024D01*
X63433024Y-64835500D01*
X63433026Y-64835500D01*
X63636974Y-64835500D01*
X63636976Y-64835500D01*
X63837456Y-64798024D01*
X64027637Y-64724348D01*
X64201041Y-64616981D01*
X64351764Y-64479579D01*
X64474673Y-64316821D01*
X64565582Y-64134250D01*
X64621397Y-63938083D01*
X64640215Y-63735000D01*
X64621397Y-63531917D01*
X64565582Y-63335750D01*
X64474673Y-63153179D01*
X64365519Y-63008635D01*
X64351766Y-62990423D01*
X64351763Y-62990420D01*
X64201045Y-62853022D01*
X64201042Y-62853020D01*
X64201041Y-62853019D01*
X64027637Y-62745652D01*
X64027634Y-62745651D01*
X64027633Y-62745650D01*
X63837462Y-62671978D01*
X63837460Y-62671977D01*
X63837456Y-62671976D01*
X63636976Y-62634500D01*
X63433024Y-62634500D01*
X63232544Y-62671976D01*
X63232540Y-62671977D01*
X63232537Y-62671978D01*
X63042366Y-62745650D01*
X62868954Y-62853022D01*
X62718236Y-62990420D01*
X62718233Y-62990423D01*
X62595328Y-63153177D01*
X62595325Y-63153181D01*
X62504420Y-63335744D01*
X62504417Y-63335751D01*
X62448603Y-63531914D01*
X62448602Y-63531920D01*
X62429785Y-63735000D01*
X54124256Y-63735000D01*
X54228183Y-63642929D01*
X54324818Y-63502930D01*
X54385140Y-63343872D01*
X54405645Y-63175000D01*
X54385140Y-63006128D01*
X54324818Y-62847070D01*
X54228183Y-62707071D01*
X54100852Y-62594266D01*
X54080122Y-62583386D01*
X54056114Y-62554579D01*
X54059507Y-62517229D01*
X54080122Y-62496613D01*
X54100852Y-62485734D01*
X54228183Y-62372929D01*
X54324818Y-62232930D01*
X54385140Y-62073872D01*
X54405645Y-61905000D01*
X54385140Y-61736128D01*
X54324818Y-61577070D01*
X54299700Y-61540681D01*
X54228183Y-61437071D01*
X54226369Y-61435464D01*
X54100852Y-61324266D01*
X54080122Y-61313386D01*
X54056114Y-61284579D01*
X54059507Y-61247229D01*
X54080122Y-61226613D01*
X54100852Y-61215734D01*
X54228183Y-61102929D01*
X54324818Y-60962930D01*
X54385140Y-60803872D01*
X54405645Y-60635000D01*
X54385140Y-60466128D01*
X54324818Y-60307070D01*
X54309614Y-60285044D01*
X54228183Y-60167071D01*
X54149267Y-60097158D01*
X54100852Y-60054266D01*
X54080122Y-60043386D01*
X54073133Y-60035000D01*
X68269318Y-60035000D01*
X68289955Y-60191761D01*
X68350461Y-60337836D01*
X68350464Y-60337841D01*
X68440494Y-60455171D01*
X68450201Y-60491396D01*
X68440494Y-60514829D01*
X68350464Y-60632158D01*
X68350461Y-60632163D01*
X68289955Y-60778238D01*
X68269318Y-60935000D01*
X68289955Y-61091761D01*
X68350461Y-61237836D01*
X68350464Y-61237841D01*
X68439839Y-61354318D01*
X68446718Y-61363282D01*
X68572159Y-61459536D01*
X68572161Y-61459536D01*
X68572163Y-61459538D01*
X68690581Y-61508588D01*
X68718238Y-61520044D01*
X68875000Y-61540682D01*
X69031762Y-61520044D01*
X69177841Y-61459536D01*
X69303282Y-61363282D01*
X69399536Y-61237841D01*
X69460044Y-61091762D01*
X69480682Y-60935000D01*
X69460044Y-60778238D01*
X69446365Y-60745215D01*
X69399538Y-60632163D01*
X69399535Y-60632158D01*
X69309504Y-60514827D01*
X69299798Y-60478604D01*
X69309504Y-60455173D01*
X69399536Y-60337841D01*
X69460044Y-60191762D01*
X69480682Y-60035000D01*
X69460044Y-59878238D01*
X69416552Y-59773238D01*
X69399538Y-59732163D01*
X69399535Y-59732158D01*
X69374859Y-59700000D01*
X69303282Y-59606718D01*
X69291994Y-59598056D01*
X69273242Y-59565580D01*
X69282948Y-59529355D01*
X69291986Y-59520315D01*
X69353282Y-59473282D01*
X69449536Y-59347841D01*
X69510044Y-59201762D01*
X69530682Y-59045000D01*
X69510044Y-58888238D01*
X69466978Y-58784267D01*
X69449538Y-58742163D01*
X69449535Y-58742158D01*
X69436012Y-58724535D01*
X69353282Y-58616718D01*
X69227841Y-58520464D01*
X69227836Y-58520461D01*
X69081761Y-58459955D01*
X68925000Y-58439318D01*
X68768238Y-58459955D01*
X68622163Y-58520461D01*
X68622158Y-58520464D01*
X68496718Y-58616717D01*
X68496717Y-58616718D01*
X68400464Y-58742158D01*
X68400461Y-58742163D01*
X68339955Y-58888238D01*
X68319318Y-59045000D01*
X68339955Y-59201761D01*
X68400461Y-59347836D01*
X68400464Y-59347841D01*
X68496718Y-59473282D01*
X68508005Y-59481942D01*
X68526756Y-59514420D01*
X68517050Y-59550645D01*
X68508005Y-59559690D01*
X68446716Y-59606719D01*
X68350464Y-59732158D01*
X68350461Y-59732163D01*
X68289955Y-59878238D01*
X68269318Y-60035000D01*
X54073133Y-60035000D01*
X54056114Y-60014579D01*
X54059507Y-59977229D01*
X54080122Y-59956613D01*
X54100852Y-59945734D01*
X54228183Y-59832929D01*
X54324818Y-59692930D01*
X54385140Y-59533872D01*
X54405645Y-59365000D01*
X54385140Y-59196128D01*
X54324818Y-59037070D01*
X54228183Y-58897071D01*
X54100852Y-58784266D01*
X54080122Y-58773386D01*
X54056114Y-58744579D01*
X54059507Y-58707229D01*
X54080122Y-58686613D01*
X54100852Y-58675734D01*
X54228183Y-58562929D01*
X54324818Y-58422930D01*
X54385140Y-58263872D01*
X54405645Y-58095000D01*
X54385140Y-57926128D01*
X54324818Y-57767070D01*
X54261584Y-57675461D01*
X54228183Y-57627071D01*
X54100853Y-57514267D01*
X54100852Y-57514266D01*
X54080122Y-57503386D01*
X54056114Y-57474579D01*
X54059507Y-57437229D01*
X54080122Y-57416613D01*
X54100852Y-57405734D01*
X54228183Y-57292929D01*
X54324818Y-57152930D01*
X54385140Y-56993872D01*
X54405645Y-56825000D01*
X54385140Y-56656128D01*
X54324818Y-56497070D01*
X54323709Y-56495464D01*
X54228183Y-56357071D01*
X54100852Y-56244266D01*
X54080122Y-56233386D01*
X54056114Y-56204579D01*
X54059507Y-56167229D01*
X54080122Y-56146613D01*
X54100852Y-56135734D01*
X54228183Y-56022929D01*
X54324818Y-55882930D01*
X54385140Y-55723872D01*
X54405645Y-55555000D01*
X54385140Y-55386128D01*
X54373430Y-55355252D01*
X62434500Y-55355252D01*
X62434500Y-57194748D01*
X62446133Y-57253231D01*
X62463882Y-57279795D01*
X62490447Y-57319552D01*
X62517012Y-57337301D01*
X62556769Y-57363867D01*
X62615252Y-57375500D01*
X62615255Y-57375500D01*
X64454745Y-57375500D01*
X64454748Y-57375500D01*
X64513231Y-57363867D01*
X64579552Y-57319552D01*
X64623867Y-57253231D01*
X64635500Y-57194748D01*
X64635500Y-55355252D01*
X64623867Y-55296769D01*
X64592208Y-55249389D01*
X64579552Y-55230447D01*
X64529732Y-55197159D01*
X64513231Y-55186133D01*
X64454748Y-55174500D01*
X62615252Y-55174500D01*
X62556769Y-55186133D01*
X62490447Y-55230447D01*
X62447771Y-55294318D01*
X62446133Y-55296769D01*
X62434500Y-55355252D01*
X54373430Y-55355252D01*
X54357247Y-55312579D01*
X54358380Y-55275095D01*
X54385687Y-55249389D01*
X54385940Y-55249294D01*
X54442090Y-55228352D01*
X54557188Y-55142188D01*
X54643351Y-55027091D01*
X54693598Y-54892373D01*
X54693598Y-54892372D01*
X54700000Y-54832834D01*
X54700000Y-54535000D01*
X53909618Y-54535000D01*
X53960064Y-54484554D01*
X54002851Y-54410445D01*
X54025000Y-54327787D01*
X54025000Y-54242213D01*
X54002851Y-54159555D01*
X53960064Y-54085446D01*
X53909618Y-54035000D01*
X53950000Y-54035000D01*
X54700000Y-54035000D01*
X54700000Y-53737165D01*
X54699767Y-53735000D01*
X62429785Y-53735000D01*
X62448602Y-53938079D01*
X62448603Y-53938085D01*
X62504417Y-54134248D01*
X62504420Y-54134255D01*
X62595325Y-54316818D01*
X62595326Y-54316820D01*
X62595327Y-54316821D01*
X62601153Y-54324536D01*
X62718233Y-54479576D01*
X62718236Y-54479579D01*
X62868954Y-54616977D01*
X62868955Y-54616978D01*
X62868959Y-54616981D01*
X63042363Y-54724348D01*
X63232544Y-54798024D01*
X63433024Y-54835500D01*
X63433026Y-54835500D01*
X63636974Y-54835500D01*
X63636976Y-54835500D01*
X63837456Y-54798024D01*
X64027637Y-54724348D01*
X64201041Y-54616981D01*
X64290970Y-54535000D01*
X135225000Y-54535000D01*
X135225000Y-54832834D01*
X135231401Y-54892372D01*
X135231401Y-54892373D01*
X135281648Y-55027091D01*
X135367811Y-55142188D01*
X135482908Y-55228351D01*
X135539060Y-55249295D01*
X135566508Y-55274851D01*
X135567847Y-55312330D01*
X135567752Y-55312581D01*
X135551568Y-55355255D01*
X135539860Y-55386128D01*
X135519355Y-55555000D01*
X135539860Y-55723872D01*
X135554213Y-55761718D01*
X135600181Y-55882929D01*
X135600182Y-55882931D01*
X135696816Y-56022928D01*
X135696817Y-56022929D01*
X135824148Y-56135734D01*
X135824156Y-56135738D01*
X135844875Y-56146613D01*
X135868885Y-56175423D01*
X135865490Y-56212772D01*
X135844875Y-56233387D01*
X135824156Y-56244261D01*
X135824151Y-56244264D01*
X135824148Y-56244266D01*
X135824147Y-56244267D01*
X135824146Y-56244268D01*
X135696816Y-56357071D01*
X135600182Y-56497068D01*
X135600181Y-56497070D01*
X135564287Y-56591718D01*
X135539860Y-56656128D01*
X135519355Y-56825000D01*
X135539860Y-56993872D01*
X135549769Y-57020000D01*
X135600181Y-57152929D01*
X135600182Y-57152931D01*
X135669415Y-57253231D01*
X135696817Y-57292929D01*
X135824148Y-57405734D01*
X135824156Y-57405738D01*
X135844875Y-57416613D01*
X135868885Y-57445423D01*
X135865490Y-57482772D01*
X135844875Y-57503387D01*
X135824156Y-57514261D01*
X135824151Y-57514264D01*
X135824148Y-57514266D01*
X135824147Y-57514267D01*
X135824146Y-57514268D01*
X135696816Y-57627071D01*
X135600182Y-57767068D01*
X135600181Y-57767070D01*
X135550846Y-57897159D01*
X135539860Y-57926128D01*
X135519355Y-58095000D01*
X135539860Y-58263872D01*
X135539861Y-58263874D01*
X135600181Y-58422929D01*
X135600182Y-58422931D01*
X135667503Y-58520461D01*
X135696817Y-58562929D01*
X135824148Y-58675734D01*
X135824156Y-58675738D01*
X135844875Y-58686613D01*
X135868885Y-58715423D01*
X135865490Y-58752772D01*
X135844875Y-58773387D01*
X135824156Y-58784261D01*
X135824151Y-58784264D01*
X135824148Y-58784266D01*
X135824147Y-58784267D01*
X135824146Y-58784268D01*
X135696816Y-58897071D01*
X135600182Y-59037068D01*
X135600181Y-59037070D01*
X135540546Y-59194318D01*
X135539860Y-59196128D01*
X135519355Y-59365000D01*
X135539860Y-59533872D01*
X135539861Y-59533874D01*
X135600181Y-59692929D01*
X135600182Y-59692931D01*
X135684410Y-59814955D01*
X135696817Y-59832929D01*
X135824148Y-59945734D01*
X135824156Y-59945738D01*
X135844875Y-59956613D01*
X135868885Y-59985423D01*
X135865490Y-60022772D01*
X135844875Y-60043387D01*
X135824156Y-60054261D01*
X135824151Y-60054264D01*
X135824148Y-60054266D01*
X135824147Y-60054267D01*
X135824146Y-60054268D01*
X135696816Y-60167071D01*
X135600182Y-60307068D01*
X135600181Y-60307070D01*
X135546152Y-60449536D01*
X135539860Y-60466128D01*
X135519355Y-60635000D01*
X135539860Y-60803872D01*
X135554213Y-60841718D01*
X135600181Y-60962929D01*
X135600182Y-60962931D01*
X135696756Y-61102841D01*
X135696817Y-61102929D01*
X135824148Y-61215734D01*
X135824156Y-61215738D01*
X135844875Y-61226613D01*
X135868885Y-61255423D01*
X135865490Y-61292772D01*
X135844875Y-61313387D01*
X135824156Y-61324261D01*
X135824151Y-61324264D01*
X135824148Y-61324266D01*
X135823843Y-61324536D01*
X135696816Y-61437071D01*
X135600182Y-61577068D01*
X135600181Y-61577070D01*
X135554637Y-61697163D01*
X135539860Y-61736128D01*
X135519355Y-61905000D01*
X135539860Y-62073872D01*
X135539861Y-62073874D01*
X135600181Y-62232929D01*
X135600182Y-62232931D01*
X135689836Y-62362816D01*
X135696817Y-62372929D01*
X135824148Y-62485734D01*
X135824156Y-62485738D01*
X135844875Y-62496613D01*
X135868885Y-62525423D01*
X135865490Y-62562772D01*
X135844875Y-62583387D01*
X135824156Y-62594261D01*
X135824151Y-62594264D01*
X135824148Y-62594266D01*
X135814469Y-62602841D01*
X135696816Y-62707071D01*
X135600182Y-62847068D01*
X135600181Y-62847070D01*
X135545817Y-62990420D01*
X135539860Y-63006128D01*
X135519355Y-63175000D01*
X135539860Y-63343872D01*
X135549766Y-63369993D01*
X135600181Y-63502929D01*
X135600182Y-63502931D01*
X135696816Y-63642928D01*
X135696817Y-63642929D01*
X135824148Y-63755734D01*
X135824156Y-63755738D01*
X135844875Y-63766613D01*
X135868885Y-63795423D01*
X135865490Y-63832772D01*
X135844875Y-63853387D01*
X135824156Y-63864261D01*
X135824151Y-63864264D01*
X135824148Y-63864266D01*
X135824147Y-63864267D01*
X135824146Y-63864268D01*
X135696816Y-63977071D01*
X135600182Y-64117068D01*
X135600181Y-64117070D01*
X135563059Y-64214956D01*
X135539860Y-64276128D01*
X135519355Y-64445000D01*
X135539860Y-64613872D01*
X135539861Y-64613874D01*
X135600181Y-64772929D01*
X135600182Y-64772931D01*
X135617501Y-64798021D01*
X135696817Y-64912929D01*
X135824148Y-65025734D01*
X135824156Y-65025738D01*
X135844875Y-65036613D01*
X135868885Y-65065423D01*
X135865490Y-65102772D01*
X135844875Y-65123387D01*
X135824156Y-65134261D01*
X135824151Y-65134264D01*
X135824148Y-65134266D01*
X135824147Y-65134267D01*
X135824146Y-65134268D01*
X135696816Y-65247071D01*
X135600182Y-65387068D01*
X135600181Y-65387070D01*
X135546628Y-65528281D01*
X135539860Y-65546128D01*
X135519355Y-65715000D01*
X135539860Y-65883872D01*
X135539861Y-65883874D01*
X135600181Y-66042929D01*
X135600182Y-66042931D01*
X135687923Y-66170044D01*
X135696817Y-66182929D01*
X135824148Y-66295734D01*
X135974775Y-66374790D01*
X136139944Y-66415500D01*
X136310056Y-66415500D01*
X136475225Y-66374790D01*
X136625852Y-66295734D01*
X136753183Y-66182929D01*
X136819674Y-66086601D01*
X136851168Y-66066239D01*
X136887835Y-66074110D01*
X136900326Y-66086601D01*
X136934204Y-66135682D01*
X136966817Y-66182929D01*
X137094148Y-66295734D01*
X137244775Y-66374790D01*
X137409944Y-66415500D01*
X137580056Y-66415500D01*
X137745225Y-66374790D01*
X137895852Y-66295734D01*
X138023183Y-66182929D01*
X138119818Y-66042930D01*
X138180140Y-65883872D01*
X138200645Y-65715000D01*
X138180140Y-65546128D01*
X138119818Y-65387070D01*
X138110270Y-65373238D01*
X138023183Y-65247071D01*
X137895853Y-65134267D01*
X137895852Y-65134266D01*
X137875122Y-65123386D01*
X137851114Y-65094579D01*
X137854507Y-65057229D01*
X137875122Y-65036613D01*
X137895852Y-65025734D01*
X138023183Y-64912929D01*
X138119818Y-64772930D01*
X138180140Y-64613872D01*
X138200645Y-64445000D01*
X138180140Y-64276128D01*
X138119818Y-64117070D01*
X138023183Y-63977071D01*
X137895852Y-63864266D01*
X137875122Y-63853386D01*
X137851114Y-63824579D01*
X137854507Y-63787229D01*
X137875122Y-63766613D01*
X137895852Y-63755734D01*
X138023183Y-63642929D01*
X138119818Y-63502930D01*
X138180140Y-63343872D01*
X138200645Y-63175000D01*
X138180140Y-63006128D01*
X138119818Y-62847070D01*
X138023183Y-62707071D01*
X137895852Y-62594266D01*
X137875122Y-62583386D01*
X137851114Y-62554579D01*
X137854507Y-62517229D01*
X137875122Y-62496613D01*
X137895852Y-62485734D01*
X138023183Y-62372929D01*
X138119818Y-62232930D01*
X138180140Y-62073872D01*
X138200645Y-61905000D01*
X138180140Y-61736128D01*
X138119818Y-61577070D01*
X138094700Y-61540681D01*
X138023183Y-61437071D01*
X138021369Y-61435464D01*
X137895852Y-61324266D01*
X137875122Y-61313386D01*
X137851114Y-61284579D01*
X137854507Y-61247229D01*
X137875122Y-61226613D01*
X137895852Y-61215734D01*
X138023183Y-61102929D01*
X138119818Y-60962930D01*
X138180140Y-60803872D01*
X138200645Y-60635000D01*
X138180140Y-60466128D01*
X138119818Y-60307070D01*
X138104614Y-60285044D01*
X138023183Y-60167071D01*
X137944267Y-60097158D01*
X137895852Y-60054266D01*
X137875122Y-60043386D01*
X137851114Y-60014579D01*
X137854507Y-59977229D01*
X137875122Y-59956613D01*
X137895852Y-59945734D01*
X138023183Y-59832929D01*
X138119818Y-59692930D01*
X138180140Y-59533872D01*
X138200645Y-59365000D01*
X138180140Y-59196128D01*
X138119818Y-59037070D01*
X138023183Y-58897071D01*
X137895852Y-58784266D01*
X137875122Y-58773386D01*
X137851114Y-58744579D01*
X137854507Y-58707229D01*
X137875122Y-58686613D01*
X137895852Y-58675734D01*
X138023183Y-58562929D01*
X138119818Y-58422930D01*
X138180140Y-58263872D01*
X138200645Y-58095000D01*
X138180140Y-57926128D01*
X138119818Y-57767070D01*
X138056584Y-57675461D01*
X138023183Y-57627071D01*
X137895853Y-57514267D01*
X137895852Y-57514266D01*
X137875122Y-57503386D01*
X137851114Y-57474579D01*
X137854507Y-57437229D01*
X137875122Y-57416613D01*
X137895852Y-57405734D01*
X138023183Y-57292929D01*
X138119818Y-57152930D01*
X138180140Y-56993872D01*
X138200645Y-56825000D01*
X138180140Y-56656128D01*
X138119818Y-56497070D01*
X138118709Y-56495464D01*
X138023183Y-56357071D01*
X137895852Y-56244266D01*
X137875122Y-56233386D01*
X137851114Y-56204579D01*
X137854507Y-56167229D01*
X137875122Y-56146613D01*
X137895852Y-56135734D01*
X138023183Y-56022929D01*
X138119818Y-55882930D01*
X138180140Y-55723872D01*
X138200645Y-55555000D01*
X138180140Y-55386128D01*
X138119818Y-55227070D01*
X138111456Y-55214956D01*
X138074400Y-55161271D01*
X138066529Y-55124604D01*
X138083641Y-55095559D01*
X138205525Y-54995530D01*
X138330488Y-54843265D01*
X138330493Y-54843258D01*
X138423349Y-54669536D01*
X138464161Y-54535000D01*
X137704618Y-54535000D01*
X137755064Y-54484554D01*
X137797851Y-54410445D01*
X137820000Y-54327787D01*
X137820000Y-54242213D01*
X137797851Y-54159555D01*
X137755064Y-54085446D01*
X137704618Y-54035000D01*
X137745000Y-54035000D01*
X138464161Y-54035000D01*
X138423349Y-53900463D01*
X138330493Y-53726741D01*
X138330488Y-53726734D01*
X138205527Y-53574472D01*
X138053265Y-53449511D01*
X138053258Y-53449506D01*
X137879536Y-53356650D01*
X137745000Y-53315838D01*
X137745000Y-54035000D01*
X137704618Y-54035000D01*
X137694554Y-54024936D01*
X137620445Y-53982149D01*
X137537787Y-53960000D01*
X137452213Y-53960000D01*
X137369555Y-53982149D01*
X137295446Y-54024936D01*
X137234936Y-54085446D01*
X137192149Y-54159555D01*
X137170000Y-54242213D01*
X137170000Y-54327787D01*
X137192149Y-54410445D01*
X137234936Y-54484554D01*
X137285382Y-54535000D01*
X136434618Y-54535000D01*
X136485064Y-54484554D01*
X136527851Y-54410445D01*
X136550000Y-54327787D01*
X136550000Y-54242213D01*
X136527851Y-54159555D01*
X136485064Y-54085446D01*
X136434618Y-54035000D01*
X136475000Y-54035000D01*
X137245000Y-54035000D01*
X137245000Y-53315838D01*
X137110468Y-53356649D01*
X137110460Y-53356652D01*
X137066007Y-53380412D01*
X137028685Y-53384087D01*
X137013545Y-53376424D01*
X136967088Y-53341647D01*
X136832373Y-53291401D01*
X136772834Y-53285000D01*
X136475000Y-53285000D01*
X136475000Y-54035000D01*
X136434618Y-54035000D01*
X136424554Y-54024936D01*
X136350445Y-53982149D01*
X136267787Y-53960000D01*
X136182213Y-53960000D01*
X136099555Y-53982149D01*
X136025446Y-54024936D01*
X135964936Y-54085446D01*
X135922149Y-54159555D01*
X135900000Y-54242213D01*
X135900000Y-54327787D01*
X135922149Y-54410445D01*
X135964936Y-54484554D01*
X136015382Y-54535000D01*
X135225000Y-54535000D01*
X64290970Y-54535000D01*
X64351764Y-54479579D01*
X64474673Y-54316821D01*
X64565582Y-54134250D01*
X64621397Y-53938083D01*
X64640215Y-53735000D01*
X64627706Y-53600000D01*
X77094318Y-53600000D01*
X77114955Y-53756761D01*
X77175461Y-53902836D01*
X77175464Y-53902841D01*
X77269150Y-54024936D01*
X77271718Y-54028282D01*
X77397159Y-54124536D01*
X77397161Y-54124536D01*
X77397163Y-54124538D01*
X77465481Y-54152836D01*
X77543238Y-54185044D01*
X77700000Y-54205682D01*
X77856762Y-54185044D01*
X78002841Y-54124536D01*
X78128282Y-54028282D01*
X78224536Y-53902841D01*
X78267134Y-53800000D01*
X113294318Y-53800000D01*
X113314955Y-53956761D01*
X113375461Y-54102836D01*
X113375464Y-54102841D01*
X113454375Y-54205681D01*
X113471718Y-54228282D01*
X113597159Y-54324536D01*
X113597161Y-54324536D01*
X113597163Y-54324538D01*
X113717867Y-54374535D01*
X113743238Y-54385044D01*
X113900000Y-54405682D01*
X114056762Y-54385044D01*
X114202841Y-54324536D01*
X114328282Y-54228282D01*
X114424536Y-54102841D01*
X114485044Y-53956762D01*
X114499099Y-53850000D01*
X115994318Y-53850000D01*
X116014955Y-54006761D01*
X116075461Y-54152836D01*
X116075464Y-54152841D01*
X116171718Y-54278282D01*
X116297159Y-54374536D01*
X116297161Y-54374536D01*
X116297163Y-54374538D01*
X116372352Y-54405682D01*
X116443238Y-54435044D01*
X116600000Y-54455682D01*
X116756762Y-54435044D01*
X116902841Y-54374536D01*
X117028282Y-54278282D01*
X117124536Y-54152841D01*
X117185044Y-54006762D01*
X117205682Y-53850000D01*
X117185044Y-53693238D01*
X117164333Y-53643238D01*
X117124538Y-53547163D01*
X117124535Y-53547158D01*
X117093537Y-53506761D01*
X117028282Y-53421718D01*
X117003674Y-53402836D01*
X116902841Y-53325464D01*
X116902836Y-53325461D01*
X116756761Y-53264955D01*
X116600000Y-53244318D01*
X116443238Y-53264955D01*
X116297163Y-53325461D01*
X116297158Y-53325464D01*
X116171718Y-53421717D01*
X116171717Y-53421718D01*
X116075464Y-53547158D01*
X116075461Y-53547163D01*
X116014955Y-53693238D01*
X115994318Y-53850000D01*
X114499099Y-53850000D01*
X114505682Y-53800000D01*
X114485044Y-53643238D01*
X114465959Y-53597163D01*
X114424538Y-53497163D01*
X114424535Y-53497158D01*
X114387974Y-53449511D01*
X114328282Y-53371718D01*
X114299978Y-53350000D01*
X114202841Y-53275464D01*
X114202836Y-53275461D01*
X114056761Y-53214955D01*
X113900000Y-53194318D01*
X113743238Y-53214955D01*
X113597163Y-53275461D01*
X113597158Y-53275464D01*
X113471718Y-53371717D01*
X113471717Y-53371718D01*
X113375464Y-53497158D01*
X113375461Y-53497163D01*
X113314955Y-53643238D01*
X113294318Y-53800000D01*
X78267134Y-53800000D01*
X78285044Y-53756762D01*
X78305682Y-53600000D01*
X78285044Y-53443238D01*
X78256970Y-53375461D01*
X78224538Y-53297163D01*
X78224535Y-53297158D01*
X78207886Y-53275461D01*
X78128282Y-53171718D01*
X78104121Y-53153179D01*
X78002841Y-53075464D01*
X78002836Y-53075461D01*
X77856761Y-53014955D01*
X77743161Y-53000000D01*
X84894318Y-53000000D01*
X84914955Y-53156761D01*
X84975461Y-53302836D01*
X84975464Y-53302841D01*
X85071356Y-53427811D01*
X85071718Y-53428282D01*
X85197159Y-53524536D01*
X85197161Y-53524536D01*
X85197163Y-53524538D01*
X85251785Y-53547163D01*
X85343238Y-53585044D01*
X85500000Y-53605682D01*
X85656762Y-53585044D01*
X85802841Y-53524536D01*
X85928282Y-53428282D01*
X86024536Y-53302841D01*
X86085044Y-53156762D01*
X86105682Y-53000000D01*
X86092517Y-52900000D01*
X118394318Y-52900000D01*
X118414955Y-53056761D01*
X118475461Y-53202836D01*
X118475464Y-53202841D01*
X118569555Y-53325464D01*
X118571718Y-53328282D01*
X118697159Y-53424536D01*
X118697161Y-53424536D01*
X118697163Y-53424538D01*
X118811064Y-53471717D01*
X118843238Y-53485044D01*
X119000000Y-53505682D01*
X119156762Y-53485044D01*
X119302841Y-53424536D01*
X119399978Y-53350000D01*
X120894318Y-53350000D01*
X120914955Y-53506761D01*
X120975461Y-53652836D01*
X120975464Y-53652841D01*
X121038506Y-53735000D01*
X121071718Y-53778282D01*
X121197159Y-53874536D01*
X121197161Y-53874536D01*
X121197163Y-53874538D01*
X121258634Y-53900000D01*
X121343238Y-53935044D01*
X121500000Y-53955682D01*
X121656762Y-53935044D01*
X121741366Y-53900000D01*
X129194318Y-53900000D01*
X129214955Y-54056761D01*
X129275461Y-54202836D01*
X129275464Y-54202841D01*
X129368843Y-54324536D01*
X129371718Y-54328282D01*
X129497159Y-54424536D01*
X129497161Y-54424536D01*
X129497163Y-54424538D01*
X129572352Y-54455682D01*
X129643238Y-54485044D01*
X129800000Y-54505682D01*
X129956762Y-54485044D01*
X130102841Y-54424536D01*
X130228282Y-54328282D01*
X130324536Y-54202841D01*
X130385044Y-54056762D01*
X130405682Y-53900000D01*
X130385044Y-53743238D01*
X130382529Y-53737165D01*
X135225000Y-53737165D01*
X135225000Y-54035000D01*
X135975000Y-54035000D01*
X135975000Y-53285000D01*
X135677166Y-53285000D01*
X135617627Y-53291401D01*
X135617626Y-53291401D01*
X135482908Y-53341648D01*
X135367811Y-53427811D01*
X135281648Y-53542908D01*
X135231401Y-53677626D01*
X135231401Y-53677627D01*
X135225000Y-53737165D01*
X130382529Y-53737165D01*
X130335876Y-53624535D01*
X130324538Y-53597163D01*
X130324535Y-53597158D01*
X130268810Y-53524536D01*
X130228282Y-53471718D01*
X130138519Y-53402841D01*
X130102841Y-53375464D01*
X130102836Y-53375461D01*
X129956761Y-53314955D01*
X129800000Y-53294318D01*
X129643238Y-53314955D01*
X129497163Y-53375461D01*
X129497158Y-53375464D01*
X129371718Y-53471717D01*
X129371717Y-53471718D01*
X129275464Y-53597158D01*
X129275461Y-53597163D01*
X129214955Y-53743238D01*
X129194318Y-53900000D01*
X121741366Y-53900000D01*
X121802841Y-53874536D01*
X121928282Y-53778282D01*
X122024536Y-53652841D01*
X122085044Y-53506762D01*
X122105682Y-53350000D01*
X122085044Y-53193238D01*
X122068450Y-53153177D01*
X122046424Y-53100000D01*
X127594318Y-53100000D01*
X127614955Y-53256761D01*
X127675461Y-53402836D01*
X127675464Y-53402841D01*
X127768843Y-53524536D01*
X127771718Y-53528282D01*
X127897159Y-53624536D01*
X127897161Y-53624536D01*
X127897163Y-53624538D01*
X127965481Y-53652836D01*
X128043238Y-53685044D01*
X128200000Y-53705682D01*
X128356762Y-53685044D01*
X128502841Y-53624536D01*
X128628282Y-53528282D01*
X128724536Y-53402841D01*
X128785044Y-53256762D01*
X128805682Y-53100000D01*
X128785044Y-52943238D01*
X128743623Y-52843238D01*
X128724538Y-52797163D01*
X128724535Y-52797158D01*
X128647803Y-52697159D01*
X128628282Y-52671718D01*
X128579778Y-52634500D01*
X128502841Y-52575464D01*
X128502836Y-52575461D01*
X128356761Y-52514955D01*
X128200000Y-52494318D01*
X128043238Y-52514955D01*
X127897163Y-52575461D01*
X127897158Y-52575464D01*
X127771718Y-52671717D01*
X127771717Y-52671718D01*
X127675464Y-52797158D01*
X127675461Y-52797163D01*
X127614955Y-52943238D01*
X127594318Y-53100000D01*
X122046424Y-53100000D01*
X122024538Y-53047163D01*
X122024535Y-53047158D01*
X121980999Y-52990421D01*
X121928282Y-52921718D01*
X121899978Y-52900000D01*
X121802841Y-52825464D01*
X121802836Y-52825461D01*
X121656761Y-52764955D01*
X121500000Y-52744318D01*
X121343238Y-52764955D01*
X121197163Y-52825461D01*
X121197158Y-52825464D01*
X121071718Y-52921717D01*
X121071717Y-52921718D01*
X120975464Y-53047158D01*
X120975461Y-53047163D01*
X120914955Y-53193238D01*
X120894318Y-53350000D01*
X119399978Y-53350000D01*
X119428282Y-53328282D01*
X119524536Y-53202841D01*
X119585044Y-53056762D01*
X119605682Y-52900000D01*
X119585044Y-52743238D01*
X119565959Y-52697163D01*
X119524538Y-52597163D01*
X119524535Y-52597158D01*
X119507886Y-52575461D01*
X119428282Y-52471718D01*
X119338519Y-52402841D01*
X119302841Y-52375464D01*
X119302836Y-52375461D01*
X119156761Y-52314955D01*
X119000000Y-52294318D01*
X118843238Y-52314955D01*
X118697163Y-52375461D01*
X118697158Y-52375464D01*
X118571718Y-52471717D01*
X118571717Y-52471718D01*
X118475464Y-52597158D01*
X118475461Y-52597163D01*
X118414955Y-52743238D01*
X118394318Y-52900000D01*
X86092517Y-52900000D01*
X86085044Y-52843238D01*
X86065959Y-52797163D01*
X86024538Y-52697163D01*
X86024535Y-52697158D01*
X85968810Y-52624536D01*
X85928282Y-52571718D01*
X85802841Y-52475464D01*
X85802836Y-52475461D01*
X85656761Y-52414955D01*
X85500000Y-52394318D01*
X85343238Y-52414955D01*
X85197163Y-52475461D01*
X85197158Y-52475464D01*
X85071718Y-52571717D01*
X85071717Y-52571718D01*
X84975464Y-52697158D01*
X84975461Y-52697163D01*
X84914955Y-52843238D01*
X84894318Y-53000000D01*
X77743161Y-53000000D01*
X77700000Y-52994318D01*
X77543238Y-53014955D01*
X77397163Y-53075461D01*
X77397158Y-53075464D01*
X77271718Y-53171717D01*
X77271717Y-53171718D01*
X77175464Y-53297158D01*
X77175461Y-53297163D01*
X77114955Y-53443238D01*
X77094318Y-53600000D01*
X64627706Y-53600000D01*
X64621397Y-53531917D01*
X64565582Y-53335750D01*
X64474673Y-53153179D01*
X64370292Y-53014956D01*
X64351766Y-52990423D01*
X64351763Y-52990420D01*
X64201045Y-52853022D01*
X64201042Y-52853020D01*
X64201041Y-52853019D01*
X64027637Y-52745652D01*
X64027634Y-52745651D01*
X64027633Y-52745650D01*
X63837462Y-52671978D01*
X63837460Y-52671977D01*
X63837456Y-52671976D01*
X63636976Y-52634500D01*
X63433024Y-52634500D01*
X63232544Y-52671976D01*
X63232540Y-52671977D01*
X63232537Y-52671978D01*
X63042366Y-52745650D01*
X62868954Y-52853022D01*
X62718236Y-52990420D01*
X62718233Y-52990423D01*
X62595328Y-53153177D01*
X62595325Y-53153181D01*
X62504420Y-53335744D01*
X62504417Y-53335751D01*
X62448603Y-53531914D01*
X62448602Y-53531920D01*
X62429785Y-53735000D01*
X54699767Y-53735000D01*
X54693598Y-53677627D01*
X54693598Y-53677626D01*
X54643351Y-53542908D01*
X54557188Y-53427811D01*
X54442091Y-53341648D01*
X54307373Y-53291401D01*
X54247834Y-53285000D01*
X53950000Y-53285000D01*
X53950000Y-54035000D01*
X53909618Y-54035000D01*
X53899554Y-54024936D01*
X53825445Y-53982149D01*
X53742787Y-53960000D01*
X53657213Y-53960000D01*
X53574555Y-53982149D01*
X53500446Y-54024936D01*
X53439936Y-54085446D01*
X53397149Y-54159555D01*
X53375000Y-54242213D01*
X53375000Y-54327787D01*
X53397149Y-54410445D01*
X53439936Y-54484554D01*
X53490382Y-54535000D01*
X52639618Y-54535000D01*
X52690064Y-54484554D01*
X52732851Y-54410445D01*
X52755000Y-54327787D01*
X52755000Y-54242213D01*
X52732851Y-54159555D01*
X52690064Y-54085446D01*
X52629554Y-54024936D01*
X52555445Y-53982149D01*
X52472787Y-53960000D01*
X52387213Y-53960000D01*
X52304555Y-53982149D01*
X52230446Y-54024936D01*
X52169936Y-54085446D01*
X52127149Y-54159555D01*
X52105000Y-54242213D01*
X52105000Y-54327787D01*
X52127149Y-54410445D01*
X52169936Y-54484554D01*
X52220382Y-54535000D01*
X51460839Y-54535000D01*
X50000000Y-54535000D01*
X50000000Y-54035000D01*
X51460838Y-54035000D01*
X52180000Y-54035000D01*
X52180000Y-53315838D01*
X52680000Y-53315838D01*
X52680000Y-54035000D01*
X53450000Y-54035000D01*
X53450000Y-53285000D01*
X53152166Y-53285000D01*
X53092627Y-53291401D01*
X53092626Y-53291401D01*
X52957908Y-53341648D01*
X52911452Y-53376424D01*
X52875114Y-53385698D01*
X52858990Y-53380411D01*
X52814536Y-53356650D01*
X52680000Y-53315838D01*
X52180000Y-53315838D01*
X52045463Y-53356650D01*
X51871741Y-53449506D01*
X51871734Y-53449511D01*
X51719472Y-53574472D01*
X51594511Y-53726734D01*
X51594506Y-53726741D01*
X51501650Y-53900463D01*
X51460838Y-54035000D01*
X50000000Y-54035000D01*
X50000000Y-52100000D01*
X137594318Y-52100000D01*
X137614955Y-52256761D01*
X137675461Y-52402836D01*
X137675464Y-52402841D01*
X137761492Y-52514956D01*
X137771718Y-52528282D01*
X137897159Y-52624536D01*
X137897161Y-52624536D01*
X137897163Y-52624538D01*
X138011064Y-52671717D01*
X138043238Y-52685044D01*
X138200000Y-52705682D01*
X138356762Y-52685044D01*
X138502841Y-52624536D01*
X138628282Y-52528282D01*
X138724536Y-52402841D01*
X138785044Y-52256762D01*
X138805682Y-52100000D01*
X138785044Y-51943238D01*
X138724536Y-51797159D01*
X138628282Y-51671718D01*
X138502841Y-51575464D01*
X138502836Y-51575461D01*
X138356761Y-51514955D01*
X138200000Y-51494318D01*
X138043238Y-51514955D01*
X137897163Y-51575461D01*
X137897158Y-51575464D01*
X137771718Y-51671717D01*
X137771717Y-51671718D01*
X137675464Y-51797158D01*
X137675461Y-51797163D01*
X137614955Y-51943238D01*
X137594318Y-52100000D01*
X50000000Y-52100000D01*
X50000000Y-51400000D01*
X110594318Y-51400000D01*
X110614955Y-51556761D01*
X110675461Y-51702836D01*
X110675464Y-51702841D01*
X110747839Y-51797163D01*
X110771718Y-51828282D01*
X110897159Y-51924536D01*
X110897161Y-51924536D01*
X110897163Y-51924538D01*
X111043238Y-51985044D01*
X111200000Y-52005682D01*
X111356762Y-51985044D01*
X111502841Y-51924536D01*
X111628282Y-51828282D01*
X111724536Y-51702841D01*
X111785044Y-51556762D01*
X111805682Y-51400000D01*
X111785044Y-51243238D01*
X111724538Y-51097163D01*
X111724535Y-51097158D01*
X111649983Y-51000000D01*
X113594318Y-51000000D01*
X113614955Y-51156761D01*
X113675461Y-51302836D01*
X113675464Y-51302841D01*
X113750016Y-51400000D01*
X113771718Y-51428282D01*
X113897159Y-51524536D01*
X113897161Y-51524536D01*
X113897163Y-51524538D01*
X114020110Y-51575464D01*
X114043238Y-51585044D01*
X114200000Y-51605682D01*
X114356762Y-51585044D01*
X114502841Y-51524536D01*
X114628282Y-51428282D01*
X114724536Y-51302841D01*
X114785044Y-51156762D01*
X114793783Y-51090380D01*
X115784698Y-51090380D01*
X115805335Y-51247141D01*
X115865841Y-51393216D01*
X115865844Y-51393221D01*
X115959253Y-51514955D01*
X115962098Y-51518662D01*
X116087539Y-51614916D01*
X116087541Y-51614916D01*
X116087543Y-51614918D01*
X116224671Y-51671718D01*
X116233618Y-51675424D01*
X116390380Y-51696062D01*
X116547142Y-51675424D01*
X116693221Y-51614916D01*
X116818662Y-51518662D01*
X116914916Y-51393221D01*
X116975424Y-51247142D01*
X116996062Y-51090380D01*
X116975424Y-50933618D01*
X116951335Y-50875461D01*
X116914918Y-50787543D01*
X116914915Y-50787538D01*
X116818662Y-50662098D01*
X116818661Y-50662097D01*
X116693221Y-50565844D01*
X116693216Y-50565841D01*
X116547141Y-50505335D01*
X116390380Y-50484698D01*
X116233618Y-50505335D01*
X116087543Y-50565841D01*
X116087538Y-50565844D01*
X115962098Y-50662097D01*
X115962097Y-50662098D01*
X115865844Y-50787538D01*
X115865841Y-50787543D01*
X115805335Y-50933618D01*
X115784698Y-51090380D01*
X114793783Y-51090380D01*
X114805682Y-51000000D01*
X114785044Y-50843238D01*
X114724536Y-50697159D01*
X114628282Y-50571718D01*
X114502841Y-50475464D01*
X114502836Y-50475461D01*
X114356761Y-50414955D01*
X114200000Y-50394318D01*
X114043238Y-50414955D01*
X113897163Y-50475461D01*
X113897158Y-50475464D01*
X113771718Y-50571717D01*
X113771717Y-50571718D01*
X113675464Y-50697158D01*
X113675461Y-50697163D01*
X113614955Y-50843238D01*
X113594318Y-51000000D01*
X111649983Y-51000000D01*
X111628282Y-50971718D01*
X111628281Y-50971717D01*
X111502841Y-50875464D01*
X111502836Y-50875461D01*
X111356761Y-50814955D01*
X111200000Y-50794318D01*
X111043238Y-50814955D01*
X110897163Y-50875461D01*
X110897158Y-50875464D01*
X110771718Y-50971717D01*
X110771717Y-50971718D01*
X110675464Y-51097158D01*
X110675461Y-51097163D01*
X110614955Y-51243238D01*
X110594318Y-51400000D01*
X50000000Y-51400000D01*
X50000000Y-50049000D01*
X50014352Y-50014352D01*
X50049000Y-50000000D01*
X139951000Y-50000000D01*
X139985648Y-50014352D01*
G37*
%TD.AperFunction*%
%TD*%
%TA.AperFunction,Conductor*%
%TO.N,+2V5*%
G36*
X81406123Y-55244813D02*
G01*
X81458412Y-55266573D01*
X81480000Y-55318813D01*
X81480000Y-66700000D01*
X91700000Y-66700000D01*
X91700000Y-62791098D01*
X93063257Y-62791098D01*
X93083894Y-62947858D01*
X93083894Y-62947859D01*
X93144403Y-63093939D01*
X93240654Y-63219377D01*
X93240659Y-63219382D01*
X93289374Y-63256762D01*
X93366098Y-63315634D01*
X93512177Y-63376142D01*
X93668939Y-63396780D01*
X93825701Y-63376142D01*
X93971780Y-63315634D01*
X94097221Y-63219380D01*
X94193475Y-63093939D01*
X94253983Y-62947860D01*
X94274621Y-62791098D01*
X94253983Y-62634336D01*
X94193475Y-62488257D01*
X94097221Y-62362816D01*
X94097218Y-62362813D01*
X93971780Y-62266562D01*
X93825700Y-62206053D01*
X93668939Y-62185416D01*
X93512178Y-62206053D01*
X93512177Y-62206053D01*
X93366097Y-62266562D01*
X93240659Y-62362813D01*
X93240654Y-62362818D01*
X93144403Y-62488256D01*
X93083894Y-62634336D01*
X93083894Y-62634337D01*
X93063257Y-62791098D01*
X91700000Y-62791098D01*
X91700000Y-61574000D01*
X91721674Y-61521674D01*
X91774000Y-61500000D01*
X96056339Y-61500000D01*
X96108665Y-61521674D01*
X96130339Y-61574000D01*
X96130339Y-61574191D01*
X96108163Y-69926000D01*
X96108162Y-69926196D01*
X96086349Y-69978465D01*
X96034162Y-70000000D01*
X73173134Y-70000000D01*
X73120808Y-69978326D01*
X73099134Y-69926000D01*
X73099134Y-67550000D01*
X73954318Y-67550000D01*
X73974955Y-67706760D01*
X73974955Y-67706761D01*
X74035464Y-67852841D01*
X74131715Y-67978279D01*
X74131720Y-67978284D01*
X74215345Y-68042451D01*
X74257159Y-68074536D01*
X74403238Y-68135044D01*
X74560000Y-68155682D01*
X74716762Y-68135044D01*
X74862841Y-68074536D01*
X74988282Y-67978282D01*
X75084536Y-67852841D01*
X75145044Y-67706762D01*
X75165682Y-67550000D01*
X75145044Y-67393238D01*
X75084536Y-67247159D01*
X74988282Y-67121718D01*
X74988279Y-67121715D01*
X74862841Y-67025464D01*
X74716761Y-66964955D01*
X74560000Y-66944318D01*
X74403239Y-66964955D01*
X74403238Y-66964955D01*
X74257158Y-67025464D01*
X74131720Y-67121715D01*
X74131715Y-67121720D01*
X74035464Y-67247158D01*
X73974955Y-67393238D01*
X73974955Y-67393239D01*
X73954318Y-67550000D01*
X73099134Y-67550000D01*
X73099134Y-66870000D01*
X78364318Y-66870000D01*
X78384955Y-67026760D01*
X78384955Y-67026761D01*
X78445464Y-67172841D01*
X78541715Y-67298279D01*
X78541720Y-67298284D01*
X78625345Y-67362451D01*
X78667159Y-67394536D01*
X78813238Y-67455044D01*
X78970000Y-67475682D01*
X79126762Y-67455044D01*
X79272841Y-67394536D01*
X79398282Y-67298282D01*
X79494536Y-67172841D01*
X79555044Y-67026762D01*
X79575682Y-66870000D01*
X79555044Y-66713238D01*
X79494536Y-66567159D01*
X79398282Y-66441718D01*
X79398279Y-66441715D01*
X79272841Y-66345464D01*
X79126761Y-66284955D01*
X78970000Y-66264318D01*
X78813239Y-66284955D01*
X78813238Y-66284955D01*
X78667158Y-66345464D01*
X78541720Y-66441715D01*
X78541715Y-66441720D01*
X78445464Y-66567158D01*
X78384955Y-66713238D01*
X78384955Y-66713239D01*
X78364318Y-66870000D01*
X73099134Y-66870000D01*
X73099134Y-62095252D01*
X75253291Y-62095252D01*
X75273928Y-62252012D01*
X75273928Y-62252013D01*
X75334437Y-62398093D01*
X75430688Y-62523531D01*
X75430693Y-62523536D01*
X75458723Y-62545044D01*
X75556132Y-62619788D01*
X75702211Y-62680296D01*
X75858973Y-62700934D01*
X76015735Y-62680296D01*
X76161814Y-62619788D01*
X76287255Y-62523534D01*
X76383509Y-62398093D01*
X76444017Y-62252014D01*
X76464655Y-62095252D01*
X76444017Y-61938490D01*
X76383509Y-61792411D01*
X76351933Y-61751260D01*
X76337274Y-61696553D01*
X76365593Y-61647504D01*
X76382320Y-61637846D01*
X76449579Y-61609987D01*
X76575020Y-61513733D01*
X76671274Y-61388292D01*
X76720375Y-61269751D01*
X77118766Y-61269751D01*
X77139403Y-61426511D01*
X77139403Y-61426512D01*
X77199912Y-61572592D01*
X77296163Y-61698030D01*
X77296168Y-61698035D01*
X77365533Y-61751260D01*
X77421607Y-61794287D01*
X77567686Y-61854795D01*
X77724448Y-61875433D01*
X77881210Y-61854795D01*
X78027289Y-61794287D01*
X78152730Y-61698033D01*
X78248984Y-61572592D01*
X78309492Y-61426513D01*
X78330130Y-61269751D01*
X78309492Y-61112989D01*
X78248984Y-60966910D01*
X78216899Y-60925096D01*
X78152732Y-60841471D01*
X78152727Y-60841466D01*
X78027289Y-60745215D01*
X77881209Y-60684706D01*
X77724448Y-60664069D01*
X77567687Y-60684706D01*
X77567686Y-60684706D01*
X77421606Y-60745215D01*
X77296168Y-60841466D01*
X77296163Y-60841471D01*
X77199912Y-60966909D01*
X77139403Y-61112989D01*
X77139403Y-61112990D01*
X77118766Y-61269751D01*
X76720375Y-61269751D01*
X76731782Y-61242213D01*
X76752420Y-61085451D01*
X76731782Y-60928689D01*
X76671274Y-60782610D01*
X76575020Y-60657169D01*
X76575017Y-60657166D01*
X76449579Y-60560915D01*
X76303499Y-60500406D01*
X76146738Y-60479769D01*
X75989977Y-60500406D01*
X75989976Y-60500406D01*
X75843896Y-60560915D01*
X75718458Y-60657166D01*
X75718453Y-60657171D01*
X75622202Y-60782609D01*
X75561693Y-60928689D01*
X75561693Y-60928690D01*
X75541056Y-61085451D01*
X75561693Y-61242211D01*
X75561693Y-61242212D01*
X75622202Y-61388292D01*
X75653777Y-61429442D01*
X75668436Y-61484149D01*
X75640117Y-61533198D01*
X75623388Y-61542857D01*
X75556131Y-61570716D01*
X75430693Y-61666967D01*
X75430688Y-61666972D01*
X75334437Y-61792410D01*
X75273928Y-61938490D01*
X75273928Y-61938491D01*
X75253291Y-62095252D01*
X73099134Y-62095252D01*
X73099134Y-58900000D01*
X75394318Y-58900000D01*
X75414955Y-59056760D01*
X75414955Y-59056761D01*
X75475464Y-59202841D01*
X75571715Y-59328279D01*
X75571720Y-59328284D01*
X75628325Y-59371718D01*
X75697159Y-59424536D01*
X75843238Y-59485044D01*
X76000000Y-59505682D01*
X76156762Y-59485044D01*
X76302841Y-59424536D01*
X76428282Y-59328282D01*
X76524536Y-59202841D01*
X76585044Y-59056762D01*
X76605682Y-58900000D01*
X76585044Y-58743238D01*
X76524536Y-58597159D01*
X76428282Y-58471718D01*
X76428279Y-58471715D01*
X76302841Y-58375464D01*
X76156761Y-58314955D01*
X76000000Y-58294318D01*
X75843239Y-58314955D01*
X75843238Y-58314955D01*
X75697158Y-58375464D01*
X75571720Y-58471715D01*
X75571715Y-58471720D01*
X75475464Y-58597158D01*
X75414955Y-58743238D01*
X75414955Y-58743239D01*
X75394318Y-58900000D01*
X73099134Y-58900000D01*
X73099134Y-56190000D01*
X77074318Y-56190000D01*
X77094955Y-56346760D01*
X77094955Y-56346761D01*
X77155464Y-56492841D01*
X77251715Y-56618279D01*
X77251720Y-56618284D01*
X77334447Y-56681762D01*
X77377159Y-56714536D01*
X77523238Y-56775044D01*
X77680000Y-56795682D01*
X77836762Y-56775044D01*
X77982841Y-56714536D01*
X78108282Y-56618282D01*
X78204536Y-56492841D01*
X78265044Y-56346762D01*
X78285682Y-56190000D01*
X78265044Y-56033238D01*
X78204536Y-55887159D01*
X78108282Y-55761718D01*
X78108279Y-55761715D01*
X77982841Y-55665464D01*
X77836761Y-55604955D01*
X77680000Y-55584318D01*
X77523239Y-55604955D01*
X77523238Y-55604955D01*
X77377158Y-55665464D01*
X77251720Y-55761715D01*
X77251715Y-55761720D01*
X77155464Y-55887158D01*
X77094955Y-56033238D01*
X77094955Y-56033239D01*
X77074318Y-56190000D01*
X73099134Y-56190000D01*
X73099134Y-55305285D01*
X73120808Y-55252959D01*
X73173132Y-55231285D01*
X81406123Y-55244813D01*
G37*
%TD.AperFunction*%
%TD*%
%TA.AperFunction,Conductor*%
%TO.N,-2V5*%
G36*
X96078326Y-55221674D02*
G01*
X96100000Y-55274000D01*
X96100000Y-60926883D01*
X96078326Y-60979209D01*
X96026889Y-61000878D01*
X90764095Y-61064096D01*
X90799479Y-66125483D01*
X90778171Y-66177959D01*
X90725998Y-66199998D01*
X90725481Y-66200000D01*
X81994000Y-66200000D01*
X81941674Y-66178326D01*
X81920000Y-66126000D01*
X81920000Y-63100000D01*
X88814318Y-63100000D01*
X88834955Y-63256760D01*
X88834955Y-63256761D01*
X88895464Y-63402841D01*
X88991715Y-63528279D01*
X88991720Y-63528284D01*
X89075345Y-63592451D01*
X89117159Y-63624536D01*
X89263238Y-63685044D01*
X89420000Y-63705682D01*
X89576762Y-63685044D01*
X89722841Y-63624536D01*
X89848282Y-63528282D01*
X89944536Y-63402841D01*
X90005044Y-63256762D01*
X90025682Y-63100000D01*
X90005044Y-62943238D01*
X89944536Y-62797159D01*
X89848282Y-62671718D01*
X89848279Y-62671715D01*
X89722841Y-62575464D01*
X89576761Y-62514955D01*
X89420000Y-62494318D01*
X89263239Y-62514955D01*
X89263238Y-62514955D01*
X89117158Y-62575464D01*
X88991720Y-62671715D01*
X88991715Y-62671720D01*
X88895464Y-62797158D01*
X88834955Y-62943238D01*
X88834955Y-62943239D01*
X88814318Y-63100000D01*
X81920000Y-63100000D01*
X81920000Y-61960000D01*
X86574318Y-61960000D01*
X86594955Y-62116760D01*
X86594955Y-62116761D01*
X86655464Y-62262841D01*
X86751715Y-62388279D01*
X86751720Y-62388284D01*
X86835345Y-62452451D01*
X86877159Y-62484536D01*
X87023238Y-62545044D01*
X87180000Y-62565682D01*
X87336762Y-62545044D01*
X87482841Y-62484536D01*
X87608282Y-62388282D01*
X87704536Y-62262841D01*
X87765044Y-62116762D01*
X87785682Y-61960000D01*
X87765044Y-61803238D01*
X87704536Y-61657159D01*
X87608282Y-61531718D01*
X87608279Y-61531715D01*
X87482841Y-61435464D01*
X87336761Y-61374955D01*
X87180000Y-61354318D01*
X87023239Y-61374955D01*
X87023238Y-61374955D01*
X86877158Y-61435464D01*
X86751720Y-61531715D01*
X86751715Y-61531720D01*
X86655464Y-61657158D01*
X86594955Y-61803238D01*
X86594955Y-61803239D01*
X86574318Y-61960000D01*
X81920000Y-61960000D01*
X81920000Y-61270000D01*
X85194318Y-61270000D01*
X85214955Y-61426760D01*
X85214955Y-61426761D01*
X85275464Y-61572841D01*
X85371715Y-61698279D01*
X85371720Y-61698284D01*
X85455345Y-61762451D01*
X85497159Y-61794536D01*
X85643238Y-61855044D01*
X85800000Y-61875682D01*
X85956762Y-61855044D01*
X86102841Y-61794536D01*
X86228282Y-61698282D01*
X86324536Y-61572841D01*
X86385044Y-61426762D01*
X86405682Y-61270000D01*
X86385044Y-61113238D01*
X86324536Y-60967159D01*
X86228282Y-60841718D01*
X86228279Y-60841715D01*
X86102841Y-60745464D01*
X85956761Y-60684955D01*
X85800000Y-60664318D01*
X85643239Y-60684955D01*
X85643238Y-60684955D01*
X85497158Y-60745464D01*
X85371720Y-60841715D01*
X85371715Y-60841720D01*
X85275464Y-60967158D01*
X85214955Y-61113238D01*
X85214955Y-61113239D01*
X85194318Y-61270000D01*
X81920000Y-61270000D01*
X81920000Y-59800000D01*
X90844318Y-59800000D01*
X90864955Y-59956760D01*
X90864955Y-59956761D01*
X90925464Y-60102841D01*
X91021715Y-60228279D01*
X91021720Y-60228284D01*
X91105345Y-60292451D01*
X91147159Y-60324536D01*
X91293238Y-60385044D01*
X91450000Y-60405682D01*
X91606762Y-60385044D01*
X91752841Y-60324536D01*
X91878282Y-60228282D01*
X91974536Y-60102841D01*
X92035044Y-59956762D01*
X92042517Y-59900000D01*
X92994318Y-59900000D01*
X93014955Y-60056760D01*
X93014955Y-60056761D01*
X93075464Y-60202841D01*
X93171715Y-60328279D01*
X93171720Y-60328284D01*
X93245692Y-60385044D01*
X93297159Y-60424536D01*
X93443238Y-60485044D01*
X93600000Y-60505682D01*
X93756762Y-60485044D01*
X93902841Y-60424536D01*
X94028282Y-60328282D01*
X94124536Y-60202841D01*
X94185044Y-60056762D01*
X94205682Y-59900000D01*
X94185044Y-59743238D01*
X94124536Y-59597159D01*
X94047803Y-59497158D01*
X94028284Y-59471720D01*
X94028279Y-59471715D01*
X93902841Y-59375464D01*
X93756761Y-59314955D01*
X93600000Y-59294318D01*
X93443239Y-59314955D01*
X93443238Y-59314955D01*
X93297158Y-59375464D01*
X93171720Y-59471715D01*
X93171715Y-59471720D01*
X93075464Y-59597158D01*
X93014955Y-59743238D01*
X93014955Y-59743239D01*
X92994318Y-59900000D01*
X92042517Y-59900000D01*
X92055682Y-59800000D01*
X92035044Y-59643238D01*
X91974536Y-59497159D01*
X91942451Y-59455345D01*
X91878284Y-59371720D01*
X91878279Y-59371715D01*
X91773801Y-59291546D01*
X91745482Y-59242497D01*
X91760141Y-59187790D01*
X91809187Y-59159472D01*
X91956762Y-59140044D01*
X92102841Y-59079536D01*
X92228282Y-58983282D01*
X92324536Y-58857841D01*
X92385044Y-58711762D01*
X92405682Y-58555000D01*
X92385044Y-58398238D01*
X92324536Y-58252159D01*
X92228282Y-58126718D01*
X92228279Y-58126715D01*
X92102841Y-58030464D01*
X91956761Y-57969955D01*
X91800000Y-57949318D01*
X91643239Y-57969955D01*
X91643238Y-57969955D01*
X91497158Y-58030464D01*
X91371720Y-58126715D01*
X91371715Y-58126720D01*
X91275464Y-58252158D01*
X91214955Y-58398238D01*
X91214955Y-58398239D01*
X91194318Y-58555000D01*
X91214955Y-58711760D01*
X91214955Y-58711761D01*
X91275464Y-58857841D01*
X91371715Y-58983279D01*
X91371720Y-58983284D01*
X91476198Y-59063453D01*
X91504517Y-59112502D01*
X91489858Y-59167209D01*
X91440809Y-59195528D01*
X91293239Y-59214955D01*
X91293238Y-59214955D01*
X91147158Y-59275464D01*
X91021720Y-59371715D01*
X91021715Y-59371720D01*
X90925464Y-59497158D01*
X90864955Y-59643238D01*
X90864955Y-59643239D01*
X90844318Y-59800000D01*
X81920000Y-59800000D01*
X81920000Y-59057297D01*
X86219125Y-59057297D01*
X86239762Y-59214057D01*
X86239762Y-59214058D01*
X86300271Y-59360138D01*
X86396522Y-59485576D01*
X86396527Y-59485581D01*
X86411615Y-59497158D01*
X86521966Y-59581833D01*
X86668045Y-59642341D01*
X86824807Y-59662979D01*
X86981569Y-59642341D01*
X87127648Y-59581833D01*
X87253089Y-59485579D01*
X87349343Y-59360138D01*
X87409851Y-59214059D01*
X87430489Y-59057297D01*
X87409851Y-58900535D01*
X87349343Y-58754456D01*
X87253089Y-58629015D01*
X87253086Y-58629012D01*
X87127648Y-58532761D01*
X86981568Y-58472252D01*
X86824807Y-58451615D01*
X86668046Y-58472252D01*
X86668045Y-58472252D01*
X86521965Y-58532761D01*
X86396527Y-58629012D01*
X86396522Y-58629017D01*
X86300271Y-58754455D01*
X86239762Y-58900535D01*
X86239762Y-58900536D01*
X86219125Y-59057297D01*
X81920000Y-59057297D01*
X81920000Y-57470000D01*
X89024318Y-57470000D01*
X89044955Y-57626760D01*
X89044955Y-57626761D01*
X89105464Y-57772841D01*
X89201715Y-57898279D01*
X89201720Y-57898284D01*
X89285345Y-57962451D01*
X89327159Y-57994536D01*
X89473238Y-58055044D01*
X89630000Y-58075682D01*
X89786762Y-58055044D01*
X89932841Y-57994536D01*
X90058282Y-57898282D01*
X90154536Y-57772841D01*
X90215044Y-57626762D01*
X90235682Y-57470000D01*
X90215044Y-57313238D01*
X90154536Y-57167159D01*
X90064281Y-57049536D01*
X90058284Y-57041720D01*
X90058279Y-57041715D01*
X90029979Y-57020000D01*
X93974318Y-57020000D01*
X93994955Y-57176760D01*
X93994955Y-57176761D01*
X94055464Y-57322841D01*
X94151715Y-57448279D01*
X94151720Y-57448284D01*
X94235345Y-57512451D01*
X94277159Y-57544536D01*
X94423238Y-57605044D01*
X94580000Y-57625682D01*
X94736762Y-57605044D01*
X94882841Y-57544536D01*
X95008282Y-57448282D01*
X95104536Y-57322841D01*
X95165044Y-57176762D01*
X95185682Y-57020000D01*
X95165044Y-56863238D01*
X95104536Y-56717159D01*
X95008282Y-56591718D01*
X95008279Y-56591715D01*
X94882841Y-56495464D01*
X94736761Y-56434955D01*
X94580000Y-56414318D01*
X94423239Y-56434955D01*
X94423238Y-56434955D01*
X94277158Y-56495464D01*
X94151720Y-56591715D01*
X94151715Y-56591720D01*
X94055464Y-56717158D01*
X93994955Y-56863238D01*
X93994955Y-56863239D01*
X93974318Y-57020000D01*
X90029979Y-57020000D01*
X89932841Y-56945464D01*
X89786761Y-56884955D01*
X89630000Y-56864318D01*
X89473239Y-56884955D01*
X89473238Y-56884955D01*
X89327158Y-56945464D01*
X89201720Y-57041715D01*
X89201715Y-57041720D01*
X89105464Y-57167158D01*
X89044955Y-57313238D01*
X89044955Y-57313239D01*
X89024318Y-57470000D01*
X81920000Y-57470000D01*
X81920000Y-56525000D01*
X86494318Y-56525000D01*
X86514955Y-56681760D01*
X86514955Y-56681761D01*
X86575464Y-56827841D01*
X86671715Y-56953279D01*
X86671720Y-56953284D01*
X86755345Y-57017451D01*
X86797159Y-57049536D01*
X86943238Y-57110044D01*
X87100000Y-57130682D01*
X87256762Y-57110044D01*
X87402841Y-57049536D01*
X87528282Y-56953282D01*
X87624536Y-56827841D01*
X87685044Y-56681762D01*
X87705682Y-56525000D01*
X87685044Y-56368238D01*
X87624536Y-56222159D01*
X87528282Y-56096718D01*
X87528279Y-56096715D01*
X87402841Y-56000464D01*
X87256761Y-55939955D01*
X87100000Y-55919318D01*
X86943239Y-55939955D01*
X86943238Y-55939955D01*
X86797158Y-56000464D01*
X86671720Y-56096715D01*
X86671715Y-56096720D01*
X86575464Y-56222158D01*
X86514955Y-56368238D01*
X86514955Y-56368239D01*
X86494318Y-56525000D01*
X81920000Y-56525000D01*
X81920000Y-55274000D01*
X81941674Y-55221674D01*
X81994000Y-55200000D01*
X96026000Y-55200000D01*
X96078326Y-55221674D01*
G37*
%TD.AperFunction*%
%TD*%
M02*
