%TF.GenerationSoftware,KiCad,Pcbnew,8.0.8+1*%
%TF.CreationDate,2025-01-23T15:05:36+01:00*%
%TF.ProjectId,IR-sensor,49522d73-656e-4736-9f72-2e6b69636164,rev?*%
%TF.SameCoordinates,Original*%
%TF.FileFunction,Legend,Top*%
%TF.FilePolarity,Positive*%
%FSLAX46Y46*%
G04 Gerber Fmt 4.6, Leading zero omitted, Abs format (unit mm)*
G04 Created by KiCad (PCBNEW 8.0.8+1) date 2025-01-23 15:05:37*
%MOMM*%
%LPD*%
G01*
G04 APERTURE LIST*
%ADD10C,0.150000*%
%ADD11C,0.100000*%
%ADD12C,0.120000*%
G04 APERTURE END LIST*
D10*
X111860588Y-61469819D02*
X111289160Y-61469819D01*
X111574874Y-61469819D02*
X111574874Y-60469819D01*
X111574874Y-60469819D02*
X111479636Y-60612676D01*
X111479636Y-60612676D02*
X111384398Y-60707914D01*
X111384398Y-60707914D02*
X111289160Y-60755533D01*
X113765351Y-60565057D02*
X113812970Y-60517438D01*
X113812970Y-60517438D02*
X113908208Y-60469819D01*
X113908208Y-60469819D02*
X114146303Y-60469819D01*
X114146303Y-60469819D02*
X114241541Y-60517438D01*
X114241541Y-60517438D02*
X114289160Y-60565057D01*
X114289160Y-60565057D02*
X114336779Y-60660295D01*
X114336779Y-60660295D02*
X114336779Y-60755533D01*
X114336779Y-60755533D02*
X114289160Y-60898390D01*
X114289160Y-60898390D02*
X113717732Y-61469819D01*
X113717732Y-61469819D02*
X114336779Y-61469819D01*
X116193923Y-60469819D02*
X116812970Y-60469819D01*
X116812970Y-60469819D02*
X116479637Y-60850771D01*
X116479637Y-60850771D02*
X116622494Y-60850771D01*
X116622494Y-60850771D02*
X116717732Y-60898390D01*
X116717732Y-60898390D02*
X116765351Y-60946009D01*
X116765351Y-60946009D02*
X116812970Y-61041247D01*
X116812970Y-61041247D02*
X116812970Y-61279342D01*
X116812970Y-61279342D02*
X116765351Y-61374580D01*
X116765351Y-61374580D02*
X116717732Y-61422200D01*
X116717732Y-61422200D02*
X116622494Y-61469819D01*
X116622494Y-61469819D02*
X116336780Y-61469819D01*
X116336780Y-61469819D02*
X116241542Y-61422200D01*
X116241542Y-61422200D02*
X116193923Y-61374580D01*
X119193923Y-60803152D02*
X119193923Y-61469819D01*
X118955828Y-60422200D02*
X118717733Y-61136485D01*
X118717733Y-61136485D02*
X119336780Y-61136485D01*
X121717733Y-60469819D02*
X121241543Y-60469819D01*
X121241543Y-60469819D02*
X121193924Y-60946009D01*
X121193924Y-60946009D02*
X121241543Y-60898390D01*
X121241543Y-60898390D02*
X121336781Y-60850771D01*
X121336781Y-60850771D02*
X121574876Y-60850771D01*
X121574876Y-60850771D02*
X121670114Y-60898390D01*
X121670114Y-60898390D02*
X121717733Y-60946009D01*
X121717733Y-60946009D02*
X121765352Y-61041247D01*
X121765352Y-61041247D02*
X121765352Y-61279342D01*
X121765352Y-61279342D02*
X121717733Y-61374580D01*
X121717733Y-61374580D02*
X121670114Y-61422200D01*
X121670114Y-61422200D02*
X121574876Y-61469819D01*
X121574876Y-61469819D02*
X121336781Y-61469819D01*
X121336781Y-61469819D02*
X121241543Y-61422200D01*
X121241543Y-61422200D02*
X121193924Y-61374580D01*
X124146305Y-60469819D02*
X123955829Y-60469819D01*
X123955829Y-60469819D02*
X123860591Y-60517438D01*
X123860591Y-60517438D02*
X123812972Y-60565057D01*
X123812972Y-60565057D02*
X123717734Y-60707914D01*
X123717734Y-60707914D02*
X123670115Y-60898390D01*
X123670115Y-60898390D02*
X123670115Y-61279342D01*
X123670115Y-61279342D02*
X123717734Y-61374580D01*
X123717734Y-61374580D02*
X123765353Y-61422200D01*
X123765353Y-61422200D02*
X123860591Y-61469819D01*
X123860591Y-61469819D02*
X124051067Y-61469819D01*
X124051067Y-61469819D02*
X124146305Y-61422200D01*
X124146305Y-61422200D02*
X124193924Y-61374580D01*
X124193924Y-61374580D02*
X124241543Y-61279342D01*
X124241543Y-61279342D02*
X124241543Y-61041247D01*
X124241543Y-61041247D02*
X124193924Y-60946009D01*
X124193924Y-60946009D02*
X124146305Y-60898390D01*
X124146305Y-60898390D02*
X124051067Y-60850771D01*
X124051067Y-60850771D02*
X123860591Y-60850771D01*
X123860591Y-60850771D02*
X123765353Y-60898390D01*
X123765353Y-60898390D02*
X123717734Y-60946009D01*
X123717734Y-60946009D02*
X123670115Y-61041247D01*
X126098687Y-60469819D02*
X126765353Y-60469819D01*
X126765353Y-60469819D02*
X126336782Y-61469819D01*
D11*
X102203884Y-52152531D02*
X102203884Y-51152531D01*
X102203884Y-51152531D02*
X102441979Y-51152531D01*
X102441979Y-51152531D02*
X102584836Y-51200150D01*
X102584836Y-51200150D02*
X102680074Y-51295388D01*
X102680074Y-51295388D02*
X102727693Y-51390626D01*
X102727693Y-51390626D02*
X102775312Y-51581102D01*
X102775312Y-51581102D02*
X102775312Y-51723959D01*
X102775312Y-51723959D02*
X102727693Y-51914435D01*
X102727693Y-51914435D02*
X102680074Y-52009673D01*
X102680074Y-52009673D02*
X102584836Y-52104912D01*
X102584836Y-52104912D02*
X102441979Y-52152531D01*
X102441979Y-52152531D02*
X102203884Y-52152531D01*
X103584836Y-52104912D02*
X103489598Y-52152531D01*
X103489598Y-52152531D02*
X103299122Y-52152531D01*
X103299122Y-52152531D02*
X103203884Y-52104912D01*
X103203884Y-52104912D02*
X103156265Y-52009673D01*
X103156265Y-52009673D02*
X103156265Y-51628721D01*
X103156265Y-51628721D02*
X103203884Y-51533483D01*
X103203884Y-51533483D02*
X103299122Y-51485864D01*
X103299122Y-51485864D02*
X103489598Y-51485864D01*
X103489598Y-51485864D02*
X103584836Y-51533483D01*
X103584836Y-51533483D02*
X103632455Y-51628721D01*
X103632455Y-51628721D02*
X103632455Y-51723959D01*
X103632455Y-51723959D02*
X103156265Y-51819197D01*
X103965789Y-51485864D02*
X104203884Y-52152531D01*
X104203884Y-52152531D02*
X104441979Y-51485864D01*
X105203884Y-52104912D02*
X105108646Y-52152531D01*
X105108646Y-52152531D02*
X104918170Y-52152531D01*
X104918170Y-52152531D02*
X104822932Y-52104912D01*
X104822932Y-52104912D02*
X104775313Y-52009673D01*
X104775313Y-52009673D02*
X104775313Y-51628721D01*
X104775313Y-51628721D02*
X104822932Y-51533483D01*
X104822932Y-51533483D02*
X104918170Y-51485864D01*
X104918170Y-51485864D02*
X105108646Y-51485864D01*
X105108646Y-51485864D02*
X105203884Y-51533483D01*
X105203884Y-51533483D02*
X105251503Y-51628721D01*
X105251503Y-51628721D02*
X105251503Y-51723959D01*
X105251503Y-51723959D02*
X104775313Y-51819197D01*
X105680075Y-51485864D02*
X105680075Y-52152531D01*
X105680075Y-51581102D02*
X105727694Y-51533483D01*
X105727694Y-51533483D02*
X105822932Y-51485864D01*
X105822932Y-51485864D02*
X105965789Y-51485864D01*
X105965789Y-51485864D02*
X106061027Y-51533483D01*
X106061027Y-51533483D02*
X106108646Y-51628721D01*
X106108646Y-51628721D02*
X106108646Y-52152531D01*
X106441980Y-51485864D02*
X106822932Y-51485864D01*
X106584837Y-51152531D02*
X106584837Y-52009673D01*
X106584837Y-52009673D02*
X106632456Y-52104912D01*
X106632456Y-52104912D02*
X106727694Y-52152531D01*
X106727694Y-52152531D02*
X106822932Y-52152531D01*
X102203884Y-53762475D02*
X102203884Y-52762475D01*
X103251502Y-53762475D02*
X102918169Y-53286284D01*
X102680074Y-53762475D02*
X102680074Y-52762475D01*
X102680074Y-52762475D02*
X103061026Y-52762475D01*
X103061026Y-52762475D02*
X103156264Y-52810094D01*
X103156264Y-52810094D02*
X103203883Y-52857713D01*
X103203883Y-52857713D02*
X103251502Y-52952951D01*
X103251502Y-52952951D02*
X103251502Y-53095808D01*
X103251502Y-53095808D02*
X103203883Y-53191046D01*
X103203883Y-53191046D02*
X103156264Y-53238665D01*
X103156264Y-53238665D02*
X103061026Y-53286284D01*
X103061026Y-53286284D02*
X102680074Y-53286284D01*
X103680074Y-53381522D02*
X104441979Y-53381522D01*
X104870550Y-53714856D02*
X104965788Y-53762475D01*
X104965788Y-53762475D02*
X105156264Y-53762475D01*
X105156264Y-53762475D02*
X105251502Y-53714856D01*
X105251502Y-53714856D02*
X105299121Y-53619617D01*
X105299121Y-53619617D02*
X105299121Y-53571998D01*
X105299121Y-53571998D02*
X105251502Y-53476760D01*
X105251502Y-53476760D02*
X105156264Y-53429141D01*
X105156264Y-53429141D02*
X105013407Y-53429141D01*
X105013407Y-53429141D02*
X104918169Y-53381522D01*
X104918169Y-53381522D02*
X104870550Y-53286284D01*
X104870550Y-53286284D02*
X104870550Y-53238665D01*
X104870550Y-53238665D02*
X104918169Y-53143427D01*
X104918169Y-53143427D02*
X105013407Y-53095808D01*
X105013407Y-53095808D02*
X105156264Y-53095808D01*
X105156264Y-53095808D02*
X105251502Y-53143427D01*
X106108645Y-53714856D02*
X106013407Y-53762475D01*
X106013407Y-53762475D02*
X105822931Y-53762475D01*
X105822931Y-53762475D02*
X105727693Y-53714856D01*
X105727693Y-53714856D02*
X105680074Y-53619617D01*
X105680074Y-53619617D02*
X105680074Y-53238665D01*
X105680074Y-53238665D02*
X105727693Y-53143427D01*
X105727693Y-53143427D02*
X105822931Y-53095808D01*
X105822931Y-53095808D02*
X106013407Y-53095808D01*
X106013407Y-53095808D02*
X106108645Y-53143427D01*
X106108645Y-53143427D02*
X106156264Y-53238665D01*
X106156264Y-53238665D02*
X106156264Y-53333903D01*
X106156264Y-53333903D02*
X105680074Y-53429141D01*
X106584836Y-53095808D02*
X106584836Y-53762475D01*
X106584836Y-53191046D02*
X106632455Y-53143427D01*
X106632455Y-53143427D02*
X106727693Y-53095808D01*
X106727693Y-53095808D02*
X106870550Y-53095808D01*
X106870550Y-53095808D02*
X106965788Y-53143427D01*
X106965788Y-53143427D02*
X107013407Y-53238665D01*
X107013407Y-53238665D02*
X107013407Y-53762475D01*
X107441979Y-53714856D02*
X107537217Y-53762475D01*
X107537217Y-53762475D02*
X107727693Y-53762475D01*
X107727693Y-53762475D02*
X107822931Y-53714856D01*
X107822931Y-53714856D02*
X107870550Y-53619617D01*
X107870550Y-53619617D02*
X107870550Y-53571998D01*
X107870550Y-53571998D02*
X107822931Y-53476760D01*
X107822931Y-53476760D02*
X107727693Y-53429141D01*
X107727693Y-53429141D02*
X107584836Y-53429141D01*
X107584836Y-53429141D02*
X107489598Y-53381522D01*
X107489598Y-53381522D02*
X107441979Y-53286284D01*
X107441979Y-53286284D02*
X107441979Y-53238665D01*
X107441979Y-53238665D02*
X107489598Y-53143427D01*
X107489598Y-53143427D02*
X107584836Y-53095808D01*
X107584836Y-53095808D02*
X107727693Y-53095808D01*
X107727693Y-53095808D02*
X107822931Y-53143427D01*
X108441979Y-53762475D02*
X108346741Y-53714856D01*
X108346741Y-53714856D02*
X108299122Y-53667236D01*
X108299122Y-53667236D02*
X108251503Y-53571998D01*
X108251503Y-53571998D02*
X108251503Y-53286284D01*
X108251503Y-53286284D02*
X108299122Y-53191046D01*
X108299122Y-53191046D02*
X108346741Y-53143427D01*
X108346741Y-53143427D02*
X108441979Y-53095808D01*
X108441979Y-53095808D02*
X108584836Y-53095808D01*
X108584836Y-53095808D02*
X108680074Y-53143427D01*
X108680074Y-53143427D02*
X108727693Y-53191046D01*
X108727693Y-53191046D02*
X108775312Y-53286284D01*
X108775312Y-53286284D02*
X108775312Y-53571998D01*
X108775312Y-53571998D02*
X108727693Y-53667236D01*
X108727693Y-53667236D02*
X108680074Y-53714856D01*
X108680074Y-53714856D02*
X108584836Y-53762475D01*
X108584836Y-53762475D02*
X108441979Y-53762475D01*
X109203884Y-53762475D02*
X109203884Y-53095808D01*
X109203884Y-53286284D02*
X109251503Y-53191046D01*
X109251503Y-53191046D02*
X109299122Y-53143427D01*
X109299122Y-53143427D02*
X109394360Y-53095808D01*
X109394360Y-53095808D02*
X109489598Y-53095808D01*
X102775312Y-55372419D02*
X102441979Y-54896228D01*
X102203884Y-55372419D02*
X102203884Y-54372419D01*
X102203884Y-54372419D02*
X102584836Y-54372419D01*
X102584836Y-54372419D02*
X102680074Y-54420038D01*
X102680074Y-54420038D02*
X102727693Y-54467657D01*
X102727693Y-54467657D02*
X102775312Y-54562895D01*
X102775312Y-54562895D02*
X102775312Y-54705752D01*
X102775312Y-54705752D02*
X102727693Y-54800990D01*
X102727693Y-54800990D02*
X102680074Y-54848609D01*
X102680074Y-54848609D02*
X102584836Y-54896228D01*
X102584836Y-54896228D02*
X102203884Y-54896228D01*
X103584836Y-55324800D02*
X103489598Y-55372419D01*
X103489598Y-55372419D02*
X103299122Y-55372419D01*
X103299122Y-55372419D02*
X103203884Y-55324800D01*
X103203884Y-55324800D02*
X103156265Y-55229561D01*
X103156265Y-55229561D02*
X103156265Y-54848609D01*
X103156265Y-54848609D02*
X103203884Y-54753371D01*
X103203884Y-54753371D02*
X103299122Y-54705752D01*
X103299122Y-54705752D02*
X103489598Y-54705752D01*
X103489598Y-54705752D02*
X103584836Y-54753371D01*
X103584836Y-54753371D02*
X103632455Y-54848609D01*
X103632455Y-54848609D02*
X103632455Y-54943847D01*
X103632455Y-54943847D02*
X103156265Y-55039085D01*
X103965789Y-54705752D02*
X104203884Y-55372419D01*
X104203884Y-55372419D02*
X104441979Y-54705752D01*
X105537218Y-55086704D02*
X106013408Y-55086704D01*
X105441980Y-55372419D02*
X105775313Y-54372419D01*
X105775313Y-54372419D02*
X106108646Y-55372419D01*
X106394361Y-54467657D02*
X106441980Y-54420038D01*
X106441980Y-54420038D02*
X106537218Y-54372419D01*
X106537218Y-54372419D02*
X106775313Y-54372419D01*
X106775313Y-54372419D02*
X106870551Y-54420038D01*
X106870551Y-54420038D02*
X106918170Y-54467657D01*
X106918170Y-54467657D02*
X106965789Y-54562895D01*
X106965789Y-54562895D02*
X106965789Y-54658133D01*
X106965789Y-54658133D02*
X106918170Y-54800990D01*
X106918170Y-54800990D02*
X106346742Y-55372419D01*
X106346742Y-55372419D02*
X106965789Y-55372419D01*
D10*
X77965714Y-52414819D02*
X77394286Y-52414819D01*
X77680000Y-52414819D02*
X77680000Y-51414819D01*
X77680000Y-51414819D02*
X77584762Y-51557676D01*
X77584762Y-51557676D02*
X77489524Y-51652914D01*
X77489524Y-51652914D02*
X77394286Y-51700533D01*
D12*
%TO.C,D4*%
X78380000Y-50835000D02*
X78380000Y-54835000D01*
X78380000Y-50835000D02*
X83980000Y-50835000D01*
X78380000Y-54835000D02*
X83380000Y-54835000D01*
X83980000Y-54235000D02*
X83380000Y-54835000D01*
X83980000Y-54235000D02*
X83980000Y-50835000D01*
%TO.C,R3*%
X76495000Y-61171359D02*
X76495000Y-61478641D01*
X77255000Y-61171359D02*
X77255000Y-61478641D01*
%TO.C,JP2*%
X113000000Y-56450000D02*
X115000000Y-56450000D01*
X113000000Y-59250000D02*
X113000000Y-56450000D01*
X115000000Y-56450000D02*
X115000000Y-59250000D01*
X115000000Y-59250000D02*
X113000000Y-59250000D01*
%TO.C,C7*%
X70627836Y-59640000D02*
X70412164Y-59640000D01*
X70627836Y-60360000D02*
X70412164Y-60360000D01*
%TO.C,D5*%
X61990000Y-57565000D02*
X65080000Y-57565000D01*
X61990170Y-57565000D02*
G75*
G02*
X63534952Y-52015000I1544830J2560000D01*
G01*
X63535048Y-52015000D02*
G75*
G02*
X65079830Y-57565000I-48J-2990000D01*
G01*
X66035000Y-55005000D02*
G75*
G02*
X61035000Y-55005000I-2500000J0D01*
G01*
X61035000Y-55005000D02*
G75*
G02*
X66035000Y-55005000I2500000J0D01*
G01*
%TO.C,C5*%
X99565000Y-57417164D02*
X99565000Y-57632836D01*
X100285000Y-57417164D02*
X100285000Y-57632836D01*
%TO.C,R12*%
X77455000Y-66548641D02*
X77455000Y-66241359D01*
X78215000Y-66548641D02*
X78215000Y-66241359D01*
%TO.C,R9*%
X70346359Y-62520000D02*
X70653641Y-62520000D01*
X70346359Y-63280000D02*
X70653641Y-63280000D01*
%TO.C,U1*%
X81625000Y-55565000D02*
X79675000Y-55565000D01*
X81625000Y-55565000D02*
X83575000Y-55565000D01*
X81625000Y-64435000D02*
X79675000Y-64435000D01*
X81625000Y-64435000D02*
X83575000Y-64435000D01*
X78925000Y-55630000D02*
X78685000Y-55300000D01*
X79165000Y-55300000D01*
X78925000Y-55630000D01*
G36*
X78925000Y-55630000D02*
G01*
X78685000Y-55300000D01*
X79165000Y-55300000D01*
X78925000Y-55630000D01*
G37*
%TO.C,U2*%
X97265000Y-56435000D02*
X96465000Y-56435000D01*
X97265000Y-56435000D02*
X98065000Y-56435000D01*
X97265000Y-59555000D02*
X96465000Y-59555000D01*
X97265000Y-59555000D02*
X98065000Y-59555000D01*
X95965000Y-56485000D02*
X95725000Y-56155000D01*
X96205000Y-56155000D01*
X95965000Y-56485000D01*
G36*
X95965000Y-56485000D02*
G01*
X95725000Y-56155000D01*
X96205000Y-56155000D01*
X95965000Y-56485000D01*
G37*
%TO.C,Q1*%
X74190000Y-65010000D02*
X73540000Y-65010000D01*
X74190000Y-65010000D02*
X74840000Y-65010000D01*
X74190000Y-68130000D02*
X73540000Y-68130000D01*
X74190000Y-68130000D02*
X74840000Y-68130000D01*
X73027500Y-65060000D02*
X72787500Y-64730000D01*
X73267500Y-64730000D01*
X73027500Y-65060000D01*
G36*
X73027500Y-65060000D02*
G01*
X72787500Y-64730000D01*
X73267500Y-64730000D01*
X73027500Y-65060000D01*
G37*
%TO.C,JP5*%
X120500000Y-56450000D02*
X122500000Y-56450000D01*
X120500000Y-59250000D02*
X120500000Y-56450000D01*
X122500000Y-56450000D02*
X122500000Y-59250000D01*
X122500000Y-59250000D02*
X120500000Y-59250000D01*
%TO.C,JP3*%
X115500000Y-56450000D02*
X117500000Y-56450000D01*
X115500000Y-59250000D02*
X115500000Y-56450000D01*
X117500000Y-56450000D02*
X117500000Y-59250000D01*
X117500000Y-59250000D02*
X115500000Y-59250000D01*
%TO.C,R1*%
X76565000Y-57028641D02*
X76565000Y-56721359D01*
X77325000Y-57028641D02*
X77325000Y-56721359D01*
%TO.C,R18*%
X90523641Y-55915000D02*
X90216359Y-55915000D01*
X90523641Y-56675000D02*
X90216359Y-56675000D01*
%TO.C,C18*%
X94077164Y-60425000D02*
X94292836Y-60425000D01*
X94077164Y-61145000D02*
X94292836Y-61145000D01*
%TO.C,R7*%
X90293641Y-58080000D02*
X89986359Y-58080000D01*
X90293641Y-58840000D02*
X89986359Y-58840000D01*
%TO.C,JP13*%
X123000000Y-62550000D02*
X125000000Y-62550000D01*
X123000000Y-65350000D02*
X123000000Y-62550000D01*
X125000000Y-62550000D02*
X125000000Y-65350000D01*
X125000000Y-65350000D02*
X123000000Y-65350000D01*
%TO.C,R11*%
X70346359Y-61520000D02*
X70653641Y-61520000D01*
X70346359Y-62280000D02*
X70653641Y-62280000D01*
%TO.C,Q2*%
X90395000Y-59315000D02*
X89745000Y-59315000D01*
X90395000Y-59315000D02*
X91045000Y-59315000D01*
X90395000Y-62435000D02*
X89745000Y-62435000D01*
X90395000Y-62435000D02*
X91045000Y-62435000D01*
X89232500Y-59365000D02*
X88992500Y-59035000D01*
X89472500Y-59035000D01*
X89232500Y-59365000D01*
G36*
X89232500Y-59365000D02*
G01*
X88992500Y-59035000D01*
X89472500Y-59035000D01*
X89232500Y-59365000D01*
G37*
%TO.C,C13*%
X88212836Y-57025000D02*
X87997164Y-57025000D01*
X88212836Y-57745000D02*
X87997164Y-57745000D01*
%TO.C,R8*%
X76445000Y-66558641D02*
X76445000Y-66251359D01*
X77205000Y-66558641D02*
X77205000Y-66251359D01*
%TO.C,D6*%
X61990000Y-67565000D02*
X65080000Y-67565000D01*
X61990170Y-67565000D02*
G75*
G02*
X63534952Y-62015000I1544830J2560000D01*
G01*
X63535048Y-62015000D02*
G75*
G02*
X65079830Y-67565000I-48J-2990000D01*
G01*
X66035000Y-65005000D02*
G75*
G02*
X61035000Y-65005000I-2500000J0D01*
G01*
X61035000Y-65005000D02*
G75*
G02*
X66035000Y-65005000I2500000J0D01*
G01*
%TO.C,JP4*%
X118000000Y-56450000D02*
X120000000Y-56450000D01*
X118000000Y-59250000D02*
X118000000Y-56450000D01*
X120000000Y-56450000D02*
X120000000Y-59250000D01*
X120000000Y-59250000D02*
X118000000Y-59250000D01*
%TO.C,R16*%
X85845000Y-57598641D02*
X85845000Y-57291359D01*
X86605000Y-57598641D02*
X86605000Y-57291359D01*
%TO.C,R14*%
X74577359Y-60247000D02*
X74884641Y-60247000D01*
X74577359Y-61007000D02*
X74884641Y-61007000D01*
%TO.C,R6*%
X90613641Y-64255000D02*
X90306359Y-64255000D01*
X90613641Y-65015000D02*
X90306359Y-65015000D01*
%TO.C,J3*%
X47820000Y-53590000D02*
X47820000Y-66410000D01*
X47820000Y-53590000D02*
X52122470Y-53590000D01*
X47820000Y-53710000D02*
X51933034Y-53710000D01*
X47820000Y-53820000D02*
X51828855Y-53820000D01*
X47820000Y-53930000D02*
X51758007Y-53930000D01*
X47820000Y-54040000D02*
X51710573Y-54040000D01*
X47820000Y-54150000D02*
X51682086Y-54150000D01*
X47820000Y-54260000D02*
X51670411Y-54260000D01*
X47820000Y-54370000D02*
X51674768Y-54370000D01*
X47820000Y-54480000D02*
X51695442Y-54480000D01*
X47820000Y-54590000D02*
X51733886Y-54590000D01*
X47820000Y-54700000D02*
X51793309Y-54700000D01*
X47820000Y-54810000D02*
X51880477Y-54810000D01*
X47820000Y-54920000D02*
X52012418Y-54920000D01*
X47820000Y-56190000D02*
X52012418Y-56190000D01*
X47820000Y-57460000D02*
X52012418Y-57460000D01*
X47820000Y-58730000D02*
X52012418Y-58730000D01*
X47820000Y-60000000D02*
X52012418Y-60000000D01*
X47820000Y-61270000D02*
X52012418Y-61270000D01*
X47820000Y-62540000D02*
X52012418Y-62540000D01*
X47820000Y-63810000D02*
X52012418Y-63810000D01*
X47820000Y-65080000D02*
X52012418Y-65080000D01*
X47820000Y-66410000D02*
X52122470Y-66410000D01*
X53700000Y-53525000D02*
X54460000Y-53525000D01*
X54460000Y-53525000D02*
X54460000Y-54285000D01*
%TO.C,C9*%
X87087164Y-60745000D02*
X87302836Y-60745000D01*
X87087164Y-61465000D02*
X87302836Y-61465000D01*
%TO.C,R4*%
X86971359Y-63585000D02*
X87278641Y-63585000D01*
X86971359Y-64345000D02*
X87278641Y-64345000D01*
%TO.C,J2*%
X135465000Y-53525000D02*
X136225000Y-53525000D01*
X135465000Y-54285000D02*
X135465000Y-53525000D01*
X137935000Y-53590000D02*
X139055000Y-53590000D01*
X137935000Y-53665323D02*
X137935000Y-53590000D01*
X137935000Y-54904677D02*
X137935000Y-54935323D01*
X137935000Y-54920000D02*
X139055000Y-54920000D01*
X137935000Y-56174677D02*
X137935000Y-56205323D01*
X137935000Y-56190000D02*
X139055000Y-56190000D01*
X137935000Y-57444677D02*
X137935000Y-57475323D01*
X137935000Y-57460000D02*
X139055000Y-57460000D01*
X137935000Y-58714677D02*
X137935000Y-58745323D01*
X137935000Y-58730000D02*
X139055000Y-58730000D01*
X137935000Y-59984677D02*
X137935000Y-60015323D01*
X137935000Y-60000000D02*
X139055000Y-60000000D01*
X137935000Y-61254677D02*
X137935000Y-61285323D01*
X137935000Y-61270000D02*
X139055000Y-61270000D01*
X137935000Y-62524677D02*
X137935000Y-62555323D01*
X137935000Y-62540000D02*
X139055000Y-62540000D01*
X137935000Y-63794677D02*
X137935000Y-63825323D01*
X137935000Y-63810000D02*
X139055000Y-63810000D01*
X137935000Y-65064677D02*
X137935000Y-65095323D01*
X137935000Y-65080000D02*
X139055000Y-65080000D01*
X137935000Y-66410000D02*
X137935000Y-66334677D01*
X139055000Y-53590000D02*
X139055000Y-66410000D01*
X139055000Y-54025000D02*
X143055000Y-54025000D01*
X139055000Y-54085000D02*
X143055000Y-54085000D01*
X139055000Y-54205000D02*
X143055000Y-54205000D01*
X139055000Y-54325000D02*
X143055000Y-54325000D01*
X139055000Y-54445000D02*
X143055000Y-54445000D01*
X139055000Y-55295000D02*
X143055000Y-55295000D01*
X139055000Y-56565000D02*
X143055000Y-56565000D01*
X139055000Y-57835000D02*
X143055000Y-57835000D01*
X139055000Y-59105000D02*
X143055000Y-59105000D01*
X139055000Y-60375000D02*
X143055000Y-60375000D01*
X139055000Y-61645000D02*
X143055000Y-61645000D01*
X139055000Y-62915000D02*
X143055000Y-62915000D01*
X139055000Y-64185000D02*
X143055000Y-64185000D01*
X139055000Y-65455000D02*
X143055000Y-65455000D01*
X139055000Y-66410000D02*
X137935000Y-66410000D01*
X143055000Y-54025000D02*
X143055000Y-54545000D01*
X143055000Y-54545000D02*
X139055000Y-54545000D01*
X143055000Y-55295000D02*
X143055000Y-55815000D01*
X143055000Y-55815000D02*
X139055000Y-55815000D01*
X143055000Y-56565000D02*
X143055000Y-57085000D01*
X143055000Y-57085000D02*
X139055000Y-57085000D01*
X143055000Y-57835000D02*
X143055000Y-58355000D01*
X143055000Y-58355000D02*
X139055000Y-58355000D01*
X143055000Y-59105000D02*
X143055000Y-59625000D01*
X143055000Y-59625000D02*
X139055000Y-59625000D01*
X143055000Y-60375000D02*
X143055000Y-60895000D01*
X143055000Y-60895000D02*
X139055000Y-60895000D01*
X143055000Y-61645000D02*
X143055000Y-62165000D01*
X143055000Y-62165000D02*
X139055000Y-62165000D01*
X143055000Y-62915000D02*
X143055000Y-63435000D01*
X143055000Y-63435000D02*
X139055000Y-63435000D01*
X143055000Y-64185000D02*
X143055000Y-64705000D01*
X143055000Y-64705000D02*
X139055000Y-64705000D01*
X143055000Y-65455000D02*
X143055000Y-65975000D01*
X143055000Y-65975000D02*
X139055000Y-65975000D01*
%TO.C,JP1*%
X110500000Y-56450000D02*
X112500000Y-56450000D01*
X110500000Y-59250000D02*
X110500000Y-56450000D01*
X112500000Y-56450000D02*
X112500000Y-59250000D01*
X112500000Y-59250000D02*
X110500000Y-59250000D01*
%TO.C,C8*%
X81607164Y-65155000D02*
X81822836Y-65155000D01*
X81607164Y-65875000D02*
X81822836Y-65875000D01*
%TO.C,JP10*%
X115500000Y-62550000D02*
X117500000Y-62550000D01*
X115500000Y-65350000D02*
X115500000Y-62550000D01*
X117500000Y-62550000D02*
X117500000Y-65350000D01*
X117500000Y-65350000D02*
X115500000Y-65350000D01*
%TO.C,JP9*%
X113000000Y-62550000D02*
X115000000Y-62550000D01*
X113000000Y-65350000D02*
X113000000Y-62550000D01*
X115000000Y-62550000D02*
X115000000Y-65350000D01*
X115000000Y-65350000D02*
X113000000Y-65350000D01*
%TO.C,C3*%
X84225000Y-52347164D02*
X84225000Y-52562836D01*
X84945000Y-52347164D02*
X84945000Y-52562836D01*
%TO.C,R17*%
X88248641Y-58105000D02*
X87941359Y-58105000D01*
X88248641Y-58865000D02*
X87941359Y-58865000D01*
%TO.C,C16*%
X94077164Y-61365000D02*
X94292836Y-61365000D01*
X94077164Y-62085000D02*
X94292836Y-62085000D01*
%TO.C,JP11*%
X118000000Y-62550000D02*
X120000000Y-62550000D01*
X118000000Y-65350000D02*
X118000000Y-62550000D01*
X120000000Y-62550000D02*
X120000000Y-65350000D01*
X120000000Y-65350000D02*
X118000000Y-65350000D01*
%TO.C,C15*%
X73877836Y-57040000D02*
X73662164Y-57040000D01*
X73877836Y-57760000D02*
X73662164Y-57760000D01*
%TO.C,C1*%
X75025000Y-56972836D02*
X75025000Y-56757164D01*
X75745000Y-56972836D02*
X75745000Y-56757164D01*
%TO.C,C2*%
X76505000Y-59237164D02*
X76505000Y-59452836D01*
X77225000Y-59237164D02*
X77225000Y-59452836D01*
%TO.C,R15*%
X74521359Y-61295000D02*
X74828641Y-61295000D01*
X74521359Y-62055000D02*
X74828641Y-62055000D01*
%TO.C,R2*%
X76485000Y-63071359D02*
X76485000Y-63378641D01*
X77245000Y-63071359D02*
X77245000Y-63378641D01*
%TO.C,C12*%
X94057164Y-58595000D02*
X94272836Y-58595000D01*
X94057164Y-59315000D02*
X94272836Y-59315000D01*
%TO.C,JP12*%
X120500000Y-62550000D02*
X122500000Y-62550000D01*
X120500000Y-65350000D02*
X120500000Y-62550000D01*
X122500000Y-62550000D02*
X122500000Y-65350000D01*
X122500000Y-65350000D02*
X120500000Y-65350000D01*
%TO.C,C11*%
X91495000Y-56612164D02*
X91495000Y-56827836D01*
X92215000Y-56612164D02*
X92215000Y-56827836D01*
%TO.C,C4*%
X70627836Y-60590000D02*
X70412164Y-60590000D01*
X70627836Y-61310000D02*
X70412164Y-61310000D01*
%TO.C,C6*%
X73780000Y-63152164D02*
X73780000Y-63367836D01*
X74500000Y-63152164D02*
X74500000Y-63367836D01*
%TO.C,JP14*%
X125500000Y-62550000D02*
X127500000Y-62550000D01*
X125500000Y-65350000D02*
X125500000Y-62550000D01*
X127500000Y-62550000D02*
X127500000Y-65350000D01*
X127500000Y-65350000D02*
X125500000Y-65350000D01*
%TO.C,JP7*%
X125500000Y-56450000D02*
X127500000Y-56450000D01*
X125500000Y-59250000D02*
X125500000Y-56450000D01*
X127500000Y-56450000D02*
X127500000Y-59250000D01*
X127500000Y-59250000D02*
X125500000Y-59250000D01*
%TO.C,R5*%
X87031359Y-62415000D02*
X87338641Y-62415000D01*
X87031359Y-63175000D02*
X87338641Y-63175000D01*
%TO.C,C14*%
X70617836Y-58680000D02*
X70402164Y-58680000D01*
X70617836Y-59400000D02*
X70402164Y-59400000D01*
%TO.C,JP6*%
X123000000Y-56450000D02*
X125000000Y-56450000D01*
X123000000Y-59250000D02*
X123000000Y-56450000D01*
X125000000Y-56450000D02*
X125000000Y-59250000D01*
X125000000Y-59250000D02*
X123000000Y-59250000D01*
%TO.C,C10*%
X85565000Y-59337164D02*
X85565000Y-59552836D01*
X86285000Y-59337164D02*
X86285000Y-59552836D01*
%TO.C,U4*%
X97285000Y-60205000D02*
X96485000Y-60205000D01*
X97285000Y-60205000D02*
X98085000Y-60205000D01*
X97285000Y-63325000D02*
X96485000Y-63325000D01*
X97285000Y-63325000D02*
X98085000Y-63325000D01*
X95985000Y-60255000D02*
X95745000Y-59925000D01*
X96225000Y-59925000D01*
X95985000Y-60255000D01*
G36*
X95985000Y-60255000D02*
G01*
X95745000Y-59925000D01*
X96225000Y-59925000D01*
X95985000Y-60255000D01*
G37*
%TO.C,JP8*%
X110500000Y-62550000D02*
X112500000Y-62550000D01*
X110500000Y-65350000D02*
X110500000Y-62550000D01*
X112500000Y-62550000D02*
X112500000Y-65350000D01*
X112500000Y-65350000D02*
X110500000Y-65350000D01*
%TO.C,C17*%
X99595000Y-61712836D02*
X99595000Y-61497164D01*
X100315000Y-61712836D02*
X100315000Y-61497164D01*
%TD*%
M02*
