%TF.GenerationSoftware,KiCad,Pcbnew,8.0.8+1*%
%TF.CreationDate,2025-01-23T15:05:36+01:00*%
%TF.ProjectId,IR-sensor,49522d73-656e-4736-9f72-2e6b69636164,rev?*%
%TF.SameCoordinates,Original*%
%TF.FileFunction,Copper,L4,Bot*%
%TF.FilePolarity,Positive*%
%FSLAX46Y46*%
G04 Gerber Fmt 4.6, Leading zero omitted, Abs format (unit mm)*
G04 Created by KiCad (PCBNEW 8.0.8+1) date 2025-01-23 15:05:36*
%MOMM*%
%LPD*%
G01*
G04 APERTURE LIST*
%TA.AperFunction,ComponentPad*%
%ADD10R,1.800000X1.800000*%
%TD*%
%TA.AperFunction,ComponentPad*%
%ADD11C,1.800000*%
%TD*%
%TA.AperFunction,ComponentPad*%
%ADD12R,1.000000X1.000000*%
%TD*%
%TA.AperFunction,ComponentPad*%
%ADD13O,1.000000X1.000000*%
%TD*%
%TA.AperFunction,ViaPad*%
%ADD14C,0.800000*%
%TD*%
%TA.AperFunction,Conductor*%
%ADD15C,0.250000*%
%TD*%
%TA.AperFunction,Conductor*%
%ADD16C,0.100000*%
%TD*%
G04 APERTURE END LIST*
D10*
%TO.P,D5,1,K*%
%TO.N,Net-(D5-K)*%
X63535000Y-56275000D03*
D11*
%TO.P,D5,2,A*%
%TO.N,GND*%
X63535000Y-53735000D03*
%TD*%
D10*
%TO.P,D6,1,K*%
%TO.N,Net-(D6-K)*%
X63535000Y-66275000D03*
D11*
%TO.P,D6,2,A*%
%TO.N,Net-(D6-A)*%
X63535000Y-63735000D03*
%TD*%
D12*
%TO.P,J3,1,Pin_1*%
%TO.N,+5V*%
X53700000Y-54285000D03*
D13*
%TO.P,J3,2,Pin_2*%
X52430000Y-54285000D03*
%TO.P,J3,3,Pin_3*%
%TO.N,/PWM_SEND*%
X53700000Y-55555000D03*
%TO.P,J3,4,Pin_4*%
%TO.N,/INDICATOR_OUT*%
X52430000Y-55555000D03*
%TO.P,J3,5,Pin_5*%
%TO.N,/PWM_RCV_1*%
X53700000Y-56825000D03*
%TO.P,J3,6,Pin_6*%
%TO.N,/DOG_1*%
X52430000Y-56825000D03*
%TO.P,J3,7,Pin_7*%
%TO.N,/PWM_RCV_2*%
X53700000Y-58095000D03*
%TO.P,J3,8,Pin_8*%
%TO.N,/DOG_2*%
X52430000Y-58095000D03*
%TO.P,J3,9,Pin_9*%
%TO.N,/PWM_RCV_3*%
X53700000Y-59365000D03*
%TO.P,J3,10,Pin_10*%
%TO.N,/DOG_3*%
X52430000Y-59365000D03*
%TO.P,J3,11,Pin_11*%
%TO.N,/PWM_RCV_4*%
X53700000Y-60635000D03*
%TO.P,J3,12,Pin_12*%
%TO.N,/DOG_4*%
X52430000Y-60635000D03*
%TO.P,J3,13,Pin_13*%
%TO.N,/PWM_RCV_5*%
X53700000Y-61905000D03*
%TO.P,J3,14,Pin_14*%
%TO.N,/DOG_5*%
X52430000Y-61905000D03*
%TO.P,J3,15,Pin_15*%
%TO.N,/PWM_RCV_6*%
X53700000Y-63175000D03*
%TO.P,J3,16,Pin_16*%
%TO.N,/DOG_6*%
X52430000Y-63175000D03*
%TO.P,J3,17,Pin_17*%
%TO.N,/PWM_RCV_7*%
X53700000Y-64445000D03*
%TO.P,J3,18,Pin_18*%
%TO.N,/DOG_7*%
X52430000Y-64445000D03*
%TO.P,J3,19,Pin_19*%
%TO.N,GND*%
X53700000Y-65715000D03*
%TO.P,J3,20,Pin_20*%
X52430000Y-65715000D03*
%TD*%
D12*
%TO.P,J2,1,Pin_1*%
%TO.N,+5V*%
X136225000Y-54285000D03*
D13*
%TO.P,J2,2,Pin_2*%
X137495000Y-54285000D03*
%TO.P,J2,3,Pin_3*%
%TO.N,/PWM_SEND*%
X136225000Y-55555000D03*
%TO.P,J2,4,Pin_4*%
%TO.N,/INDICATOR_IN*%
X137495000Y-55555000D03*
%TO.P,J2,5,Pin_5*%
%TO.N,/PWM_RCV_1*%
X136225000Y-56825000D03*
%TO.P,J2,6,Pin_6*%
%TO.N,/DOG_1*%
X137495000Y-56825000D03*
%TO.P,J2,7,Pin_7*%
%TO.N,/PWM_RCV_2*%
X136225000Y-58095000D03*
%TO.P,J2,8,Pin_8*%
%TO.N,/DOG_2*%
X137495000Y-58095000D03*
%TO.P,J2,9,Pin_9*%
%TO.N,/PWM_RCV_3*%
X136225000Y-59365000D03*
%TO.P,J2,10,Pin_10*%
%TO.N,/DOG_3*%
X137495000Y-59365000D03*
%TO.P,J2,11,Pin_11*%
%TO.N,/PWM_RCV_4*%
X136225000Y-60635000D03*
%TO.P,J2,12,Pin_12*%
%TO.N,/DOG_4*%
X137495000Y-60635000D03*
%TO.P,J2,13,Pin_13*%
%TO.N,/PWM_RCV_5*%
X136225000Y-61905000D03*
%TO.P,J2,14,Pin_14*%
%TO.N,/DOG_5*%
X137495000Y-61905000D03*
%TO.P,J2,15,Pin_15*%
%TO.N,/PWM_RCV_6*%
X136225000Y-63175000D03*
%TO.P,J2,16,Pin_16*%
%TO.N,/DOG_6*%
X137495000Y-63175000D03*
%TO.P,J2,17,Pin_17*%
%TO.N,/PWM_RCV_7*%
X136225000Y-64445000D03*
%TO.P,J2,18,Pin_18*%
%TO.N,/DOG_7*%
X137495000Y-64445000D03*
%TO.P,J2,19,Pin_19*%
%TO.N,GND*%
X136225000Y-65715000D03*
%TO.P,J2,20,Pin_20*%
X137495000Y-65715000D03*
%TD*%
D14*
%TO.N,Net-(U1C-+)*%
X85800000Y-61270000D03*
X75858973Y-62095252D03*
%TO.N,GND*%
X76000000Y-58900000D03*
X68875000Y-60035000D03*
X93668939Y-62791098D03*
X68875000Y-60935000D03*
X77700000Y-53600000D03*
X101000000Y-56700000D03*
X85500000Y-53000000D03*
X76146738Y-61085451D03*
X74560000Y-67550000D03*
X93600000Y-59900000D03*
X68925000Y-59045000D03*
X91800000Y-58555000D03*
X86824807Y-59057297D03*
X87180000Y-61960000D03*
X78970000Y-66870000D03*
X89420000Y-63100000D03*
X94580000Y-57020000D03*
X98308008Y-61768008D03*
%TO.N,Net-(U1B-+)*%
X77680000Y-56190000D03*
X77724448Y-61269751D03*
%TO.N,/PWM_SEND*%
X128300000Y-56700000D03*
X107400000Y-66900000D03*
X126800000Y-66800000D03*
%TO.N,/PWM_RCV*%
X89630000Y-57470000D03*
X103600000Y-64800000D03*
%TO.N,+2V5*%
X94781730Y-62774323D03*
X80040000Y-65585000D03*
X76026346Y-60042373D03*
%TO.N,+5V*%
X72055000Y-60045000D03*
X85564166Y-51951960D03*
X101100000Y-58000000D03*
X72045000Y-58955000D03*
X72045000Y-61055000D03*
%TO.N,Net-(Q2-D)*%
X91450000Y-59800000D03*
X87100000Y-56525000D03*
%TO.N,-2V5*%
X94670000Y-59930000D03*
X87800000Y-59925000D03*
X83260000Y-65530000D03*
%TO.N,/INDICATOR_IN*%
X138200000Y-52100000D03*
%TO.N,/PWM_RCV_1*%
X106400000Y-62000000D03*
%TO.N,/PWM_RCV_2*%
X105900000Y-60800000D03*
X108600000Y-60400000D03*
X114000000Y-62200000D03*
%TO.N,/DOG_7*%
X130900000Y-65700000D03*
X131500000Y-63200000D03*
X131500000Y-58200000D03*
%TO.N,/DOG_4*%
X128200000Y-53100000D03*
X119000000Y-55500000D03*
X119000000Y-52900000D03*
X128750000Y-65100000D03*
%TO.N,/DOG_5*%
X121500000Y-53350000D03*
X129500000Y-67200000D03*
X129800000Y-53900000D03*
X128925000Y-63300000D03*
X121500000Y-55500000D03*
%TO.N,/PWM_RCV_3*%
X116500000Y-62200000D03*
X109000000Y-59225000D03*
X105500000Y-59700000D03*
%TO.N,/PWM_RCV_6*%
X124000000Y-62200000D03*
%TO.N,/PWM_RCV_7*%
X126500000Y-62300000D03*
%TO.N,/PWM_RCV_5*%
X121500000Y-62300000D03*
%TO.N,/DOG_2*%
X113900000Y-53800000D03*
X113900000Y-55850000D03*
X114200000Y-51000000D03*
%TO.N,/PWM_RCV_4*%
X119000000Y-62300000D03*
%TO.N,/DOG_6*%
X128400000Y-68300000D03*
X130200000Y-63200000D03*
X130400000Y-55900000D03*
%TO.N,/DOG_3*%
X116500000Y-55850000D03*
X116600000Y-53850000D03*
X116390380Y-51090380D03*
%TO.N,/DOG_1*%
X111400000Y-55800000D03*
X111200000Y-51400000D03*
%TD*%
D15*
%TO.N,Net-(U1C-+)*%
X78045464Y-62044751D02*
X75909474Y-62044751D01*
X78390215Y-61700000D02*
X78045464Y-62044751D01*
X85370000Y-61700000D02*
X78390215Y-61700000D01*
X75909474Y-62044751D02*
X75858973Y-62095252D01*
X85800000Y-61270000D02*
X85370000Y-61700000D01*
%TO.N,Net-(U1B-+)*%
X77724448Y-61269751D02*
X77724448Y-56234448D01*
X77724448Y-56234448D02*
X77680000Y-56190000D01*
D16*
%TO.N,/PWM_SEND*%
X107400000Y-53000000D02*
X104700000Y-50300000D01*
D15*
X126800000Y-66800000D02*
X127400000Y-66200000D01*
X127400000Y-66200000D02*
X127400000Y-57600000D01*
D16*
X107400000Y-66900000D02*
X107400000Y-53000000D01*
X54407106Y-55555000D02*
X53700000Y-55555000D01*
X54800000Y-55162106D02*
X54407106Y-55555000D01*
X56400000Y-50300000D02*
X54800000Y-51900000D01*
X104700000Y-50300000D02*
X56400000Y-50300000D01*
D15*
X127400000Y-57600000D02*
X128300000Y-56700000D01*
D16*
X54800000Y-51900000D02*
X54800000Y-55162106D01*
D15*
%TO.N,/PWM_RCV*%
X103500000Y-58100000D02*
X101375000Y-55975000D01*
X92800000Y-57470000D02*
X89630000Y-57470000D01*
X101375000Y-55975000D02*
X94295000Y-55975000D01*
X103600000Y-64800000D02*
X103500000Y-64700000D01*
X94295000Y-55975000D02*
X92800000Y-57470000D01*
X103500000Y-64700000D02*
X103500000Y-58100000D01*
%TO.N,Net-(Q2-D)*%
X87100000Y-57550000D02*
X89350000Y-59800000D01*
X87100000Y-56525000D02*
X87100000Y-57550000D01*
X89350000Y-59800000D02*
X91450000Y-59800000D01*
D16*
%TO.N,/INDICATOR_IN*%
X137495000Y-55555000D02*
X138245000Y-54805000D01*
X138245000Y-52145000D02*
X138200000Y-52100000D01*
X138245000Y-54805000D02*
X138245000Y-52145000D01*
%TO.N,/PWM_RCV_1*%
X55100000Y-55425000D02*
X53700000Y-56825000D01*
X57000000Y-50600000D02*
X55100000Y-52500000D01*
X104575736Y-50600000D02*
X57000000Y-50600000D01*
X106700000Y-61700000D02*
X106700000Y-52724264D01*
X106700000Y-52724264D02*
X104575736Y-50600000D01*
X55100000Y-52500000D02*
X55100000Y-55425000D01*
X106400000Y-62000000D02*
X106700000Y-61700000D01*
%TO.N,/PWM_RCV_2*%
X55662132Y-52362132D02*
X55662132Y-56132868D01*
X106200000Y-60500000D02*
X106200000Y-52648528D01*
X105900000Y-60800000D02*
X106200000Y-60500000D01*
X106200000Y-52648528D02*
X104451472Y-50900000D01*
X108600000Y-60400000D02*
X110400000Y-62200000D01*
X110400000Y-62200000D02*
X114000000Y-62200000D01*
X57124264Y-50900000D02*
X55662132Y-52362132D01*
X55662132Y-56132868D02*
X53700000Y-58095000D01*
X104451472Y-50900000D02*
X57124264Y-50900000D01*
%TO.N,/DOG_7*%
X131500000Y-64700000D02*
X131500000Y-63200000D01*
X130900000Y-65700000D02*
X130900000Y-65300000D01*
X130900000Y-65300000D02*
X131500000Y-64700000D01*
X131500000Y-63200000D02*
X131500000Y-58200000D01*
%TO.N,/DOG_4*%
X128275000Y-64625000D02*
X128275000Y-62825000D01*
X128200000Y-54240687D02*
X128200000Y-53100000D01*
X128275000Y-62825000D02*
X128950000Y-62150000D01*
X119000000Y-55500000D02*
X119000000Y-52900000D01*
X128950000Y-54990687D02*
X128200000Y-54240687D01*
X128750000Y-65100000D02*
X128275000Y-64625000D01*
X128950000Y-62150000D02*
X128950000Y-54990687D01*
%TO.N,/DOG_5*%
X129400000Y-66144239D02*
X129400000Y-63775000D01*
X129800000Y-53900000D02*
X129500000Y-54200000D01*
X129400000Y-63775000D02*
X128925000Y-63300000D01*
X129500000Y-67200000D02*
X129500000Y-66244239D01*
X121500000Y-55500000D02*
X121500000Y-53500000D01*
X129500000Y-54200000D02*
X129500000Y-62725000D01*
X129500000Y-62725000D02*
X128925000Y-63300000D01*
X129500000Y-66244239D02*
X129400000Y-66144239D01*
X121500000Y-53500000D02*
X121500000Y-53350000D01*
%TO.N,/PWM_RCV_3*%
X105500000Y-52600000D02*
X104100000Y-51200000D01*
X57300000Y-51200000D02*
X57300000Y-51300000D01*
X104100000Y-51200000D02*
X57300000Y-51200000D01*
X112725000Y-59225000D02*
X114700000Y-61200000D01*
X57300000Y-51300000D02*
X56000000Y-52600000D01*
X114700000Y-61200000D02*
X115500000Y-61200000D01*
X105500000Y-59700000D02*
X105500000Y-52600000D01*
X109000000Y-59225000D02*
X112725000Y-59225000D01*
X56000000Y-57065000D02*
X53700000Y-59365000D01*
X56000000Y-52600000D02*
X56000000Y-57065000D01*
X115500000Y-61200000D02*
X116500000Y-62200000D01*
%TO.N,/PWM_RCV_6*%
X124100000Y-62300000D02*
X124100000Y-66150000D01*
X120950000Y-69300000D02*
X56800000Y-69300000D01*
X124000000Y-62200000D02*
X124100000Y-62300000D01*
X55500000Y-68000000D02*
X55500000Y-64975000D01*
X55500000Y-64975000D02*
X53700000Y-63175000D01*
X124100000Y-66150000D02*
X120950000Y-69300000D01*
X56800000Y-69300000D02*
X55500000Y-68000000D01*
%TO.N,/PWM_RCV_7*%
X122200000Y-69600000D02*
X56400000Y-69600000D01*
X55100000Y-68300000D02*
X55100000Y-65845000D01*
X56400000Y-69600000D02*
X55100000Y-68300000D01*
X126500000Y-65300000D02*
X122200000Y-69600000D01*
X55100000Y-65845000D02*
X53700000Y-64445000D01*
X126500000Y-62300000D02*
X126500000Y-65300000D01*
%TO.N,/PWM_RCV_5*%
X55800000Y-67875736D02*
X55800000Y-64005000D01*
X121400000Y-62400000D02*
X121400000Y-67100000D01*
X119500000Y-69000000D02*
X56924264Y-69000000D01*
X121500000Y-62300000D02*
X121400000Y-62400000D01*
X55800000Y-64005000D02*
X53700000Y-61905000D01*
X121400000Y-67100000D02*
X119500000Y-69000000D01*
X56924264Y-69000000D02*
X55800000Y-67875736D01*
%TO.N,/DOG_2*%
X113900000Y-53800000D02*
X113900000Y-55850000D01*
X114200000Y-51000000D02*
X114200000Y-53500000D01*
X114200000Y-53500000D02*
X113900000Y-53800000D01*
%TO.N,/PWM_RCV_4*%
X56100000Y-67751472D02*
X56100000Y-63035000D01*
X119000000Y-62300000D02*
X119000000Y-66800000D01*
X57048528Y-68700000D02*
X56100000Y-67751472D01*
X117100000Y-68700000D02*
X57048528Y-68700000D01*
X119000000Y-66800000D02*
X117100000Y-68700000D01*
X56100000Y-63035000D02*
X53700000Y-60635000D01*
%TO.N,/DOG_6*%
X130200000Y-56100000D02*
X130400000Y-55900000D01*
X129626575Y-68573425D02*
X130200000Y-68000000D01*
X130200000Y-63200000D02*
X130200000Y-56100000D01*
X130200000Y-68000000D02*
X130200000Y-63200000D01*
X128673425Y-68573425D02*
X129626575Y-68573425D01*
X128400000Y-68300000D02*
X128673425Y-68573425D01*
%TO.N,/DOG_3*%
X116600000Y-55750000D02*
X116500000Y-55850000D01*
X116600000Y-53850000D02*
X116600000Y-55750000D01*
X116600000Y-53850000D02*
X116390380Y-53640380D01*
X116390380Y-53640380D02*
X116390380Y-51090380D01*
%TO.N,/DOG_1*%
X111200000Y-55600000D02*
X111400000Y-55800000D01*
X111200000Y-51400000D02*
X111200000Y-55600000D01*
%TD*%
M02*
