%TF.GenerationSoftware,KiCad,Pcbnew,8.0.8+1*%
%TF.CreationDate,2025-01-23T15:05:36+01:00*%
%TF.ProjectId,IR-sensor,49522d73-656e-4736-9f72-2e6b69636164,rev?*%
%TF.SameCoordinates,Original*%
%TF.FileFunction,Paste,Top*%
%TF.FilePolarity,Positive*%
%FSLAX46Y46*%
G04 Gerber Fmt 4.6, Leading zero omitted, Abs format (unit mm)*
G04 Created by KiCad (PCBNEW 8.0.8+1) date 2025-01-23 15:05:36*
%MOMM*%
%LPD*%
G01*
G04 APERTURE LIST*
G04 Aperture macros list*
%AMRoundRect*
0 Rectangle with rounded corners*
0 $1 Rounding radius*
0 $2 $3 $4 $5 $6 $7 $8 $9 X,Y pos of 4 corners*
0 Add a 4 corners polygon primitive as box body*
4,1,4,$2,$3,$4,$5,$6,$7,$8,$9,$2,$3,0*
0 Add four circle primitives for the rounded corners*
1,1,$1+$1,$2,$3*
1,1,$1+$1,$4,$5*
1,1,$1+$1,$6,$7*
1,1,$1+$1,$8,$9*
0 Add four rect primitives between the rounded corners*
20,1,$1+$1,$2,$3,$4,$5,0*
20,1,$1+$1,$4,$5,$6,$7,0*
20,1,$1+$1,$6,$7,$8,$9,0*
20,1,$1+$1,$8,$9,$2,$3,0*%
G04 Aperture macros list end*
%ADD10R,1.600000X0.850000*%
%ADD11RoundRect,0.135000X-0.185000X0.135000X-0.185000X-0.135000X0.185000X-0.135000X0.185000X0.135000X0*%
%ADD12RoundRect,0.140000X0.140000X0.170000X-0.140000X0.170000X-0.140000X-0.170000X0.140000X-0.170000X0*%
%ADD13RoundRect,0.140000X-0.170000X0.140000X-0.170000X-0.140000X0.170000X-0.140000X0.170000X0.140000X0*%
%ADD14RoundRect,0.135000X0.185000X-0.135000X0.185000X0.135000X-0.185000X0.135000X-0.185000X-0.135000X0*%
%ADD15RoundRect,0.135000X-0.135000X-0.185000X0.135000X-0.185000X0.135000X0.185000X-0.135000X0.185000X0*%
%ADD16RoundRect,0.150000X-0.825000X-0.150000X0.825000X-0.150000X0.825000X0.150000X-0.825000X0.150000X0*%
%ADD17RoundRect,0.150000X-0.512500X-0.150000X0.512500X-0.150000X0.512500X0.150000X-0.512500X0.150000X0*%
%ADD18RoundRect,0.150000X-0.587500X-0.150000X0.587500X-0.150000X0.587500X0.150000X-0.587500X0.150000X0*%
%ADD19RoundRect,0.135000X0.135000X0.185000X-0.135000X0.185000X-0.135000X-0.185000X0.135000X-0.185000X0*%
%ADD20RoundRect,0.140000X-0.140000X-0.170000X0.140000X-0.170000X0.140000X0.170000X-0.140000X0.170000X0*%
%ADD21RoundRect,0.140000X0.170000X-0.140000X0.170000X0.140000X-0.170000X0.140000X-0.170000X-0.140000X0*%
G04 APERTURE END LIST*
D10*
%TO.C,D4*%
X79430000Y-51960000D03*
X79430000Y-53710000D03*
X82930000Y-53710000D03*
X82930000Y-51960000D03*
%TD*%
D11*
%TO.C,R3*%
X76875000Y-60815000D03*
X76875000Y-61835000D03*
%TD*%
D12*
%TO.C,C7*%
X71000000Y-60000000D03*
X70040000Y-60000000D03*
%TD*%
D13*
%TO.C,C5*%
X99925000Y-57045000D03*
X99925000Y-58005000D03*
%TD*%
D14*
%TO.C,R12*%
X77835000Y-66905000D03*
X77835000Y-65885000D03*
%TD*%
D15*
%TO.C,R9*%
X69990000Y-62900000D03*
X71010000Y-62900000D03*
%TD*%
D16*
%TO.C,U1*%
X79150000Y-56190000D03*
X79150000Y-57460000D03*
X79150000Y-58730000D03*
X79150000Y-60000000D03*
X79150000Y-61270000D03*
X79150000Y-62540000D03*
X79150000Y-63810000D03*
X84100000Y-63810000D03*
X84100000Y-62540000D03*
X84100000Y-61270000D03*
X84100000Y-60000000D03*
X84100000Y-58730000D03*
X84100000Y-57460000D03*
X84100000Y-56190000D03*
%TD*%
D17*
%TO.C,U2*%
X96127500Y-57045000D03*
X96127500Y-58945000D03*
X98402500Y-57995000D03*
%TD*%
D18*
%TO.C,Q1*%
X73252500Y-65620000D03*
X73252500Y-67520000D03*
X75127500Y-66570000D03*
%TD*%
D14*
%TO.C,R1*%
X76945000Y-57385000D03*
X76945000Y-56365000D03*
%TD*%
D19*
%TO.C,R18*%
X90880000Y-56295000D03*
X89860000Y-56295000D03*
%TD*%
D20*
%TO.C,C18*%
X93705000Y-60785000D03*
X94665000Y-60785000D03*
%TD*%
D19*
%TO.C,R7*%
X90650000Y-58460000D03*
X89630000Y-58460000D03*
%TD*%
D15*
%TO.C,R11*%
X69990000Y-61900000D03*
X71010000Y-61900000D03*
%TD*%
D18*
%TO.C,Q2*%
X89457500Y-59925000D03*
X89457500Y-61825000D03*
X91332500Y-60875000D03*
%TD*%
D12*
%TO.C,C13*%
X88585000Y-57385000D03*
X87625000Y-57385000D03*
%TD*%
D14*
%TO.C,R8*%
X76825000Y-66915000D03*
X76825000Y-65895000D03*
%TD*%
%TO.C,R16*%
X86225000Y-57955000D03*
X86225000Y-56935000D03*
%TD*%
D15*
%TO.C,R14*%
X74221000Y-60627000D03*
X75241000Y-60627000D03*
%TD*%
D19*
%TO.C,R6*%
X90970000Y-64635000D03*
X89950000Y-64635000D03*
%TD*%
D20*
%TO.C,C9*%
X86715000Y-61105000D03*
X87675000Y-61105000D03*
%TD*%
D15*
%TO.C,R4*%
X86615000Y-63965000D03*
X87635000Y-63965000D03*
%TD*%
D20*
%TO.C,C8*%
X81235000Y-65515000D03*
X82195000Y-65515000D03*
%TD*%
D13*
%TO.C,C3*%
X84585000Y-51975000D03*
X84585000Y-52935000D03*
%TD*%
D19*
%TO.C,R17*%
X88605000Y-58485000D03*
X87585000Y-58485000D03*
%TD*%
D20*
%TO.C,C16*%
X93705000Y-61725000D03*
X94665000Y-61725000D03*
%TD*%
D12*
%TO.C,C15*%
X74250000Y-57400000D03*
X73290000Y-57400000D03*
%TD*%
D21*
%TO.C,C1*%
X75385000Y-57345000D03*
X75385000Y-56385000D03*
%TD*%
D13*
%TO.C,C2*%
X76865000Y-58865000D03*
X76865000Y-59825000D03*
%TD*%
D15*
%TO.C,R15*%
X74165000Y-61675000D03*
X75185000Y-61675000D03*
%TD*%
D11*
%TO.C,R2*%
X76865000Y-62715000D03*
X76865000Y-63735000D03*
%TD*%
D20*
%TO.C,C12*%
X93685000Y-58955000D03*
X94645000Y-58955000D03*
%TD*%
D13*
%TO.C,C11*%
X91855000Y-56240000D03*
X91855000Y-57200000D03*
%TD*%
D12*
%TO.C,C4*%
X71000000Y-60950000D03*
X70040000Y-60950000D03*
%TD*%
D13*
%TO.C,C6*%
X74140000Y-62780000D03*
X74140000Y-63740000D03*
%TD*%
D15*
%TO.C,R5*%
X86675000Y-62795000D03*
X87695000Y-62795000D03*
%TD*%
D12*
%TO.C,C14*%
X70990000Y-59040000D03*
X70030000Y-59040000D03*
%TD*%
D13*
%TO.C,C10*%
X85925000Y-58965000D03*
X85925000Y-59925000D03*
%TD*%
D17*
%TO.C,U4*%
X96147500Y-60815000D03*
X96147500Y-61765000D03*
X96147500Y-62715000D03*
X98422500Y-62715000D03*
X98422500Y-60815000D03*
%TD*%
D21*
%TO.C,C17*%
X99955000Y-62085000D03*
X99955000Y-61125000D03*
%TD*%
M02*
