%TF.GenerationSoftware,KiCad,Pcbnew,8.0.8+1*%
%TF.CreationDate,2025-01-23T15:05:36+01:00*%
%TF.ProjectId,IR-sensor,49522d73-656e-4736-9f72-2e6b69636164,rev?*%
%TF.SameCoordinates,Original*%
%TF.FileFunction,Copper,L1,Top*%
%TF.FilePolarity,Positive*%
%FSLAX46Y46*%
G04 Gerber Fmt 4.6, Leading zero omitted, Abs format (unit mm)*
G04 Created by KiCad (PCBNEW 8.0.8+1) date 2025-01-23 15:05:36*
%MOMM*%
%LPD*%
G01*
G04 APERTURE LIST*
G04 Aperture macros list*
%AMRoundRect*
0 Rectangle with rounded corners*
0 $1 Rounding radius*
0 $2 $3 $4 $5 $6 $7 $8 $9 X,Y pos of 4 corners*
0 Add a 4 corners polygon primitive as box body*
4,1,4,$2,$3,$4,$5,$6,$7,$8,$9,$2,$3,0*
0 Add four circle primitives for the rounded corners*
1,1,$1+$1,$2,$3*
1,1,$1+$1,$4,$5*
1,1,$1+$1,$6,$7*
1,1,$1+$1,$8,$9*
0 Add four rect primitives between the rounded corners*
20,1,$1+$1,$2,$3,$4,$5,0*
20,1,$1+$1,$4,$5,$6,$7,0*
20,1,$1+$1,$6,$7,$8,$9,0*
20,1,$1+$1,$8,$9,$2,$3,0*%
G04 Aperture macros list end*
%TA.AperFunction,SMDPad,CuDef*%
%ADD10R,1.600000X0.850000*%
%TD*%
%TA.AperFunction,SMDPad,CuDef*%
%ADD11RoundRect,0.135000X-0.185000X0.135000X-0.185000X-0.135000X0.185000X-0.135000X0.185000X0.135000X0*%
%TD*%
%TA.AperFunction,SMDPad,CuDef*%
%ADD12R,1.500000X1.000000*%
%TD*%
%TA.AperFunction,SMDPad,CuDef*%
%ADD13RoundRect,0.140000X0.140000X0.170000X-0.140000X0.170000X-0.140000X-0.170000X0.140000X-0.170000X0*%
%TD*%
%TA.AperFunction,ComponentPad*%
%ADD14R,1.800000X1.800000*%
%TD*%
%TA.AperFunction,ComponentPad*%
%ADD15C,1.800000*%
%TD*%
%TA.AperFunction,SMDPad,CuDef*%
%ADD16RoundRect,0.140000X-0.170000X0.140000X-0.170000X-0.140000X0.170000X-0.140000X0.170000X0.140000X0*%
%TD*%
%TA.AperFunction,SMDPad,CuDef*%
%ADD17RoundRect,0.135000X0.185000X-0.135000X0.185000X0.135000X-0.185000X0.135000X-0.185000X-0.135000X0*%
%TD*%
%TA.AperFunction,SMDPad,CuDef*%
%ADD18RoundRect,0.135000X-0.135000X-0.185000X0.135000X-0.185000X0.135000X0.185000X-0.135000X0.185000X0*%
%TD*%
%TA.AperFunction,SMDPad,CuDef*%
%ADD19RoundRect,0.150000X-0.825000X-0.150000X0.825000X-0.150000X0.825000X0.150000X-0.825000X0.150000X0*%
%TD*%
%TA.AperFunction,SMDPad,CuDef*%
%ADD20RoundRect,0.150000X-0.512500X-0.150000X0.512500X-0.150000X0.512500X0.150000X-0.512500X0.150000X0*%
%TD*%
%TA.AperFunction,SMDPad,CuDef*%
%ADD21RoundRect,0.150000X-0.587500X-0.150000X0.587500X-0.150000X0.587500X0.150000X-0.587500X0.150000X0*%
%TD*%
%TA.AperFunction,SMDPad,CuDef*%
%ADD22RoundRect,0.135000X0.135000X0.185000X-0.135000X0.185000X-0.135000X-0.185000X0.135000X-0.185000X0*%
%TD*%
%TA.AperFunction,SMDPad,CuDef*%
%ADD23RoundRect,0.140000X-0.140000X-0.170000X0.140000X-0.170000X0.140000X0.170000X-0.140000X0.170000X0*%
%TD*%
%TA.AperFunction,ComponentPad*%
%ADD24R,1.000000X1.000000*%
%TD*%
%TA.AperFunction,ComponentPad*%
%ADD25O,1.000000X1.000000*%
%TD*%
%TA.AperFunction,SMDPad,CuDef*%
%ADD26RoundRect,0.140000X0.170000X-0.140000X0.170000X0.140000X-0.170000X0.140000X-0.170000X-0.140000X0*%
%TD*%
%TA.AperFunction,ViaPad*%
%ADD27C,0.800000*%
%TD*%
%TA.AperFunction,Conductor*%
%ADD28C,0.250000*%
%TD*%
%TA.AperFunction,Conductor*%
%ADD29C,0.400000*%
%TD*%
%TA.AperFunction,Conductor*%
%ADD30C,0.100000*%
%TD*%
G04 APERTURE END LIST*
D10*
%TO.P,D4,1,DOUT*%
%TO.N,/INDICATOR_OUT*%
X79430000Y-51960000D03*
%TO.P,D4,2,VSS*%
%TO.N,GND*%
X79430000Y-53710000D03*
%TO.P,D4,3,DIN*%
%TO.N,/INDICATOR_IN*%
X82930000Y-53710000D03*
%TO.P,D4,4,VDD*%
%TO.N,+5V*%
X82930000Y-51960000D03*
%TD*%
D11*
%TO.P,R3,1*%
%TO.N,GND*%
X76875000Y-60815000D03*
%TO.P,R3,2*%
%TO.N,Net-(U1B--)*%
X76875000Y-61835000D03*
%TD*%
D12*
%TO.P,JP2,1,A*%
%TO.N,/DOG_2*%
X114000000Y-57200000D03*
%TO.P,JP2,2,B*%
%TO.N,/DOG*%
X114000000Y-58500000D03*
%TD*%
D13*
%TO.P,C7,1*%
%TO.N,+5V*%
X71000000Y-60000000D03*
%TO.P,C7,2*%
%TO.N,GND*%
X70040000Y-60000000D03*
%TD*%
D14*
%TO.P,D5,1,K*%
%TO.N,Net-(D5-K)*%
X63535000Y-56275000D03*
D15*
%TO.P,D5,2,A*%
%TO.N,GND*%
X63535000Y-53735000D03*
%TD*%
D16*
%TO.P,C5,1*%
%TO.N,GND*%
X99925000Y-57045000D03*
%TO.P,C5,2*%
%TO.N,+5V*%
X99925000Y-58005000D03*
%TD*%
D17*
%TO.P,R12,1*%
%TO.N,GND*%
X77835000Y-66905000D03*
%TO.P,R12,2*%
%TO.N,Net-(Q1-G)*%
X77835000Y-65885000D03*
%TD*%
D18*
%TO.P,R9,1*%
%TO.N,Net-(D6-A)*%
X69990000Y-62900000D03*
%TO.P,R9,2*%
%TO.N,Net-(D6-K)*%
X71010000Y-62900000D03*
%TD*%
D19*
%TO.P,U1,1*%
%TO.N,Net-(U1B-+)*%
X79150000Y-56190000D03*
%TO.P,U1,2,-*%
%TO.N,Net-(U1A--)*%
X79150000Y-57460000D03*
%TO.P,U1,3,+*%
%TO.N,GND*%
X79150000Y-58730000D03*
%TO.P,U1,4,V+*%
%TO.N,+2V5*%
X79150000Y-60000000D03*
%TO.P,U1,5,+*%
%TO.N,Net-(U1B-+)*%
X79150000Y-61270000D03*
%TO.P,U1,6,-*%
%TO.N,Net-(U1B--)*%
X79150000Y-62540000D03*
%TO.P,U1,7*%
%TO.N,Net-(C6-Pad2)*%
X79150000Y-63810000D03*
%TO.P,U1,8*%
%TO.N,Net-(R4-Pad1)*%
X84100000Y-63810000D03*
%TO.P,U1,9,-*%
%TO.N,Net-(U1C--)*%
X84100000Y-62540000D03*
%TO.P,U1,10,+*%
%TO.N,Net-(U1C-+)*%
X84100000Y-61270000D03*
%TO.P,U1,11,V-*%
%TO.N,-2V5*%
X84100000Y-60000000D03*
%TO.P,U1,12,+*%
%TO.N,GND*%
X84100000Y-58730000D03*
%TO.P,U1,13,-*%
%TO.N,Net-(U1D--)*%
X84100000Y-57460000D03*
%TO.P,U1,14*%
%TO.N,Net-(C13-Pad1)*%
X84100000Y-56190000D03*
%TD*%
D20*
%TO.P,U2,1,GND*%
%TO.N,GND*%
X96127500Y-57045000D03*
%TO.P,U2,2,VO*%
%TO.N,+2V5*%
X96127500Y-58945000D03*
%TO.P,U2,3,VI*%
%TO.N,+5V*%
X98402500Y-57995000D03*
%TD*%
D21*
%TO.P,Q1,1,G*%
%TO.N,Net-(Q1-G)*%
X73252500Y-65620000D03*
%TO.P,Q1,2,S*%
%TO.N,GND*%
X73252500Y-67520000D03*
%TO.P,Q1,3,D*%
%TO.N,Net-(D6-K)*%
X75127500Y-66570000D03*
%TD*%
D12*
%TO.P,JP5,1,A*%
%TO.N,/DOG_5*%
X121500000Y-57200000D03*
%TO.P,JP5,2,B*%
%TO.N,/DOG*%
X121500000Y-58500000D03*
%TD*%
%TO.P,JP3,1,A*%
%TO.N,/DOG_3*%
X116500000Y-57200000D03*
%TO.P,JP3,2,B*%
%TO.N,/DOG*%
X116500000Y-58500000D03*
%TD*%
D17*
%TO.P,R1,1*%
%TO.N,Net-(U1A--)*%
X76945000Y-57385000D03*
%TO.P,R1,2*%
%TO.N,Net-(U1B-+)*%
X76945000Y-56365000D03*
%TD*%
D22*
%TO.P,R18,1*%
%TO.N,/DOG*%
X90880000Y-56295000D03*
%TO.P,R18,2*%
%TO.N,Net-(C13-Pad1)*%
X89860000Y-56295000D03*
%TD*%
D23*
%TO.P,C18,1*%
%TO.N,GND*%
X93705000Y-60785000D03*
%TO.P,C18,2*%
%TO.N,-2V5*%
X94665000Y-60785000D03*
%TD*%
D22*
%TO.P,R7,1*%
%TO.N,GND*%
X90650000Y-58460000D03*
%TO.P,R7,2*%
%TO.N,/PWM_RCV*%
X89630000Y-58460000D03*
%TD*%
D12*
%TO.P,JP13,1,A*%
%TO.N,/PWM_RCV_6*%
X124000000Y-63300000D03*
%TO.P,JP13,2,B*%
%TO.N,/PWM_RCV*%
X124000000Y-64600000D03*
%TD*%
D18*
%TO.P,R11,1*%
%TO.N,Net-(D6-A)*%
X69990000Y-61900000D03*
%TO.P,R11,2*%
%TO.N,+5V*%
X71010000Y-61900000D03*
%TD*%
D21*
%TO.P,Q2,1,G*%
%TO.N,/PWM_RCV*%
X89457500Y-59925000D03*
%TO.P,Q2,2,S*%
%TO.N,GND*%
X89457500Y-61825000D03*
%TO.P,Q2,3,D*%
%TO.N,Net-(Q2-D)*%
X91332500Y-60875000D03*
%TD*%
D13*
%TO.P,C13,1*%
%TO.N,Net-(C13-Pad1)*%
X88585000Y-57385000D03*
%TO.P,C13,2*%
%TO.N,Net-(U1D--)*%
X87625000Y-57385000D03*
%TD*%
D17*
%TO.P,R8,1*%
%TO.N,/PWM_SEND*%
X76825000Y-66915000D03*
%TO.P,R8,2*%
%TO.N,Net-(Q1-G)*%
X76825000Y-65895000D03*
%TD*%
D14*
%TO.P,D6,1,K*%
%TO.N,Net-(D6-K)*%
X63535000Y-66275000D03*
D15*
%TO.P,D6,2,A*%
%TO.N,Net-(D6-A)*%
X63535000Y-63735000D03*
%TD*%
D12*
%TO.P,JP4,1,A*%
%TO.N,/DOG_4*%
X119000000Y-57200000D03*
%TO.P,JP4,2,B*%
%TO.N,/DOG*%
X119000000Y-58500000D03*
%TD*%
D17*
%TO.P,R16,1*%
%TO.N,Net-(U1D--)*%
X86225000Y-57955000D03*
%TO.P,R16,2*%
%TO.N,Net-(Q2-D)*%
X86225000Y-56935000D03*
%TD*%
D18*
%TO.P,R14,1*%
%TO.N,Net-(C6-Pad1)*%
X74221000Y-60627000D03*
%TO.P,R14,2*%
%TO.N,GND*%
X75241000Y-60627000D03*
%TD*%
D22*
%TO.P,R6,1*%
%TO.N,Net-(Q2-D)*%
X90970000Y-64635000D03*
%TO.P,R6,2*%
%TO.N,Net-(R4-Pad1)*%
X89950000Y-64635000D03*
%TD*%
D24*
%TO.P,J3,1,Pin_1*%
%TO.N,+5V*%
X53700000Y-54285000D03*
D25*
%TO.P,J3,2,Pin_2*%
X52430000Y-54285000D03*
%TO.P,J3,3,Pin_3*%
%TO.N,/PWM_SEND*%
X53700000Y-55555000D03*
%TO.P,J3,4,Pin_4*%
%TO.N,/INDICATOR_OUT*%
X52430000Y-55555000D03*
%TO.P,J3,5,Pin_5*%
%TO.N,/PWM_RCV_1*%
X53700000Y-56825000D03*
%TO.P,J3,6,Pin_6*%
%TO.N,/DOG_1*%
X52430000Y-56825000D03*
%TO.P,J3,7,Pin_7*%
%TO.N,/PWM_RCV_2*%
X53700000Y-58095000D03*
%TO.P,J3,8,Pin_8*%
%TO.N,/DOG_2*%
X52430000Y-58095000D03*
%TO.P,J3,9,Pin_9*%
%TO.N,/PWM_RCV_3*%
X53700000Y-59365000D03*
%TO.P,J3,10,Pin_10*%
%TO.N,/DOG_3*%
X52430000Y-59365000D03*
%TO.P,J3,11,Pin_11*%
%TO.N,/PWM_RCV_4*%
X53700000Y-60635000D03*
%TO.P,J3,12,Pin_12*%
%TO.N,/DOG_4*%
X52430000Y-60635000D03*
%TO.P,J3,13,Pin_13*%
%TO.N,/PWM_RCV_5*%
X53700000Y-61905000D03*
%TO.P,J3,14,Pin_14*%
%TO.N,/DOG_5*%
X52430000Y-61905000D03*
%TO.P,J3,15,Pin_15*%
%TO.N,/PWM_RCV_6*%
X53700000Y-63175000D03*
%TO.P,J3,16,Pin_16*%
%TO.N,/DOG_6*%
X52430000Y-63175000D03*
%TO.P,J3,17,Pin_17*%
%TO.N,/PWM_RCV_7*%
X53700000Y-64445000D03*
%TO.P,J3,18,Pin_18*%
%TO.N,/DOG_7*%
X52430000Y-64445000D03*
%TO.P,J3,19,Pin_19*%
%TO.N,GND*%
X53700000Y-65715000D03*
%TO.P,J3,20,Pin_20*%
X52430000Y-65715000D03*
%TD*%
D23*
%TO.P,C9,1*%
%TO.N,Net-(U1C-+)*%
X86715000Y-61105000D03*
%TO.P,C9,2*%
%TO.N,GND*%
X87675000Y-61105000D03*
%TD*%
D18*
%TO.P,R4,1*%
%TO.N,Net-(R4-Pad1)*%
X86615000Y-63965000D03*
%TO.P,R4,2*%
%TO.N,Net-(U1C--)*%
X87635000Y-63965000D03*
%TD*%
D24*
%TO.P,J2,1,Pin_1*%
%TO.N,+5V*%
X136225000Y-54285000D03*
D25*
%TO.P,J2,2,Pin_2*%
X137495000Y-54285000D03*
%TO.P,J2,3,Pin_3*%
%TO.N,/PWM_SEND*%
X136225000Y-55555000D03*
%TO.P,J2,4,Pin_4*%
%TO.N,/INDICATOR_IN*%
X137495000Y-55555000D03*
%TO.P,J2,5,Pin_5*%
%TO.N,/PWM_RCV_1*%
X136225000Y-56825000D03*
%TO.P,J2,6,Pin_6*%
%TO.N,/DOG_1*%
X137495000Y-56825000D03*
%TO.P,J2,7,Pin_7*%
%TO.N,/PWM_RCV_2*%
X136225000Y-58095000D03*
%TO.P,J2,8,Pin_8*%
%TO.N,/DOG_2*%
X137495000Y-58095000D03*
%TO.P,J2,9,Pin_9*%
%TO.N,/PWM_RCV_3*%
X136225000Y-59365000D03*
%TO.P,J2,10,Pin_10*%
%TO.N,/DOG_3*%
X137495000Y-59365000D03*
%TO.P,J2,11,Pin_11*%
%TO.N,/PWM_RCV_4*%
X136225000Y-60635000D03*
%TO.P,J2,12,Pin_12*%
%TO.N,/DOG_4*%
X137495000Y-60635000D03*
%TO.P,J2,13,Pin_13*%
%TO.N,/PWM_RCV_5*%
X136225000Y-61905000D03*
%TO.P,J2,14,Pin_14*%
%TO.N,/DOG_5*%
X137495000Y-61905000D03*
%TO.P,J2,15,Pin_15*%
%TO.N,/PWM_RCV_6*%
X136225000Y-63175000D03*
%TO.P,J2,16,Pin_16*%
%TO.N,/DOG_6*%
X137495000Y-63175000D03*
%TO.P,J2,17,Pin_17*%
%TO.N,/PWM_RCV_7*%
X136225000Y-64445000D03*
%TO.P,J2,18,Pin_18*%
%TO.N,/DOG_7*%
X137495000Y-64445000D03*
%TO.P,J2,19,Pin_19*%
%TO.N,GND*%
X136225000Y-65715000D03*
%TO.P,J2,20,Pin_20*%
X137495000Y-65715000D03*
%TD*%
D12*
%TO.P,JP1,1,A*%
%TO.N,/DOG_1*%
X111500000Y-57200000D03*
%TO.P,JP1,2,B*%
%TO.N,/DOG*%
X111500000Y-58500000D03*
%TD*%
D23*
%TO.P,C8,1*%
%TO.N,+2V5*%
X81235000Y-65515000D03*
%TO.P,C8,2*%
%TO.N,-2V5*%
X82195000Y-65515000D03*
%TD*%
D12*
%TO.P,JP10,1,A*%
%TO.N,/PWM_RCV_3*%
X116500000Y-63300000D03*
%TO.P,JP10,2,B*%
%TO.N,/PWM_RCV*%
X116500000Y-64600000D03*
%TD*%
%TO.P,JP9,1,A*%
%TO.N,/PWM_RCV_2*%
X114000000Y-63300000D03*
%TO.P,JP9,2,B*%
%TO.N,/PWM_RCV*%
X114000000Y-64600000D03*
%TD*%
D16*
%TO.P,C3,1*%
%TO.N,+5V*%
X84585000Y-51975000D03*
%TO.P,C3,2*%
%TO.N,GND*%
X84585000Y-52935000D03*
%TD*%
D22*
%TO.P,R17,1*%
%TO.N,Net-(C13-Pad1)*%
X88605000Y-58485000D03*
%TO.P,R17,2*%
%TO.N,Net-(U1D--)*%
X87585000Y-58485000D03*
%TD*%
D23*
%TO.P,C16,1*%
%TO.N,GND*%
X93705000Y-61725000D03*
%TO.P,C16,2*%
%TO.N,+2V5*%
X94665000Y-61725000D03*
%TD*%
D12*
%TO.P,JP11,1,A*%
%TO.N,/PWM_RCV_4*%
X119000000Y-63300000D03*
%TO.P,JP11,2,B*%
%TO.N,/PWM_RCV*%
X119000000Y-64600000D03*
%TD*%
D13*
%TO.P,C15,1*%
%TO.N,Net-(U1A--)*%
X74250000Y-57400000D03*
%TO.P,C15,2*%
%TO.N,Net-(D5-K)*%
X73290000Y-57400000D03*
%TD*%
D26*
%TO.P,C1,1*%
%TO.N,Net-(U1A--)*%
X75385000Y-57345000D03*
%TO.P,C1,2*%
%TO.N,Net-(U1B-+)*%
X75385000Y-56385000D03*
%TD*%
D16*
%TO.P,C2,1*%
%TO.N,GND*%
X76865000Y-58865000D03*
%TO.P,C2,2*%
%TO.N,+2V5*%
X76865000Y-59825000D03*
%TD*%
D18*
%TO.P,R15,1*%
%TO.N,Net-(C6-Pad1)*%
X74165000Y-61675000D03*
%TO.P,R15,2*%
%TO.N,Net-(U1C-+)*%
X75185000Y-61675000D03*
%TD*%
D11*
%TO.P,R2,1*%
%TO.N,Net-(U1B--)*%
X76865000Y-62715000D03*
%TO.P,R2,2*%
%TO.N,Net-(C6-Pad2)*%
X76865000Y-63735000D03*
%TD*%
D23*
%TO.P,C12,1*%
%TO.N,GND*%
X93685000Y-58955000D03*
%TO.P,C12,2*%
%TO.N,+2V5*%
X94645000Y-58955000D03*
%TD*%
D12*
%TO.P,JP12,1,A*%
%TO.N,/PWM_RCV_5*%
X121500000Y-63300000D03*
%TO.P,JP12,2,B*%
%TO.N,/PWM_RCV*%
X121500000Y-64600000D03*
%TD*%
D16*
%TO.P,C11,1*%
%TO.N,/DOG*%
X91855000Y-56240000D03*
%TO.P,C11,2*%
%TO.N,GND*%
X91855000Y-57200000D03*
%TD*%
D13*
%TO.P,C4,1*%
%TO.N,+5V*%
X71000000Y-60950000D03*
%TO.P,C4,2*%
%TO.N,GND*%
X70040000Y-60950000D03*
%TD*%
D16*
%TO.P,C6,1*%
%TO.N,Net-(C6-Pad1)*%
X74140000Y-62780000D03*
%TO.P,C6,2*%
%TO.N,Net-(C6-Pad2)*%
X74140000Y-63740000D03*
%TD*%
D12*
%TO.P,JP14,1,A*%
%TO.N,/PWM_RCV_7*%
X126500000Y-63300000D03*
%TO.P,JP14,2,B*%
%TO.N,/PWM_RCV*%
X126500000Y-64600000D03*
%TD*%
%TO.P,JP7,1,A*%
%TO.N,/DOG_7*%
X126500000Y-57200000D03*
%TO.P,JP7,2,B*%
%TO.N,/DOG*%
X126500000Y-58500000D03*
%TD*%
D18*
%TO.P,R5,1*%
%TO.N,Net-(U1C--)*%
X86675000Y-62795000D03*
%TO.P,R5,2*%
%TO.N,GND*%
X87695000Y-62795000D03*
%TD*%
D13*
%TO.P,C14,1*%
%TO.N,+5V*%
X70990000Y-59040000D03*
%TO.P,C14,2*%
%TO.N,GND*%
X70030000Y-59040000D03*
%TD*%
D12*
%TO.P,JP6,1,A*%
%TO.N,/DOG_6*%
X124000000Y-57200000D03*
%TO.P,JP6,2,B*%
%TO.N,/DOG*%
X124000000Y-58500000D03*
%TD*%
D16*
%TO.P,C10,1*%
%TO.N,GND*%
X85925000Y-58965000D03*
%TO.P,C10,2*%
%TO.N,-2V5*%
X85925000Y-59925000D03*
%TD*%
D20*
%TO.P,U4,1,OUT*%
%TO.N,-2V5*%
X96147500Y-60815000D03*
%TO.P,U4,2,IN*%
%TO.N,+2V5*%
X96147500Y-61765000D03*
%TO.P,U4,3,CFLY-*%
%TO.N,Net-(U4-CFLY-)*%
X96147500Y-62715000D03*
%TO.P,U4,4,GND*%
%TO.N,GND*%
X98422500Y-62715000D03*
%TO.P,U4,5,CFLY+*%
%TO.N,Net-(U4-CFLY+)*%
X98422500Y-60815000D03*
%TD*%
D12*
%TO.P,JP8,1,A*%
%TO.N,/PWM_RCV_1*%
X111500000Y-63300000D03*
%TO.P,JP8,2,B*%
%TO.N,/PWM_RCV*%
X111500000Y-64600000D03*
%TD*%
D26*
%TO.P,C17,1*%
%TO.N,Net-(U4-CFLY-)*%
X99955000Y-62085000D03*
%TO.P,C17,2*%
%TO.N,Net-(U4-CFLY+)*%
X99955000Y-61125000D03*
%TD*%
D27*
%TO.N,Net-(U1C-+)*%
X85800000Y-61270000D03*
X75858973Y-62095252D03*
%TO.N,GND*%
X76000000Y-58900000D03*
X68875000Y-60035000D03*
X93668939Y-62791098D03*
X68875000Y-60935000D03*
X77700000Y-53600000D03*
X101000000Y-56700000D03*
X85500000Y-53000000D03*
X76146738Y-61085451D03*
X74560000Y-67550000D03*
X93600000Y-59900000D03*
X68925000Y-59045000D03*
X91800000Y-58555000D03*
X86824807Y-59057297D03*
X87180000Y-61960000D03*
X78970000Y-66870000D03*
X89420000Y-63100000D03*
X94580000Y-57020000D03*
X98308008Y-61768008D03*
%TO.N,Net-(U1B-+)*%
X77680000Y-56190000D03*
X77724448Y-61269751D03*
%TO.N,/PWM_SEND*%
X128300000Y-56700000D03*
X107400000Y-66900000D03*
X126800000Y-66800000D03*
%TO.N,/PWM_RCV*%
X89630000Y-57470000D03*
X103600000Y-64800000D03*
%TO.N,+2V5*%
X94781730Y-62774323D03*
X80040000Y-65585000D03*
X76026346Y-60042373D03*
%TO.N,+5V*%
X72055000Y-60045000D03*
X85564166Y-51951960D03*
X101100000Y-58000000D03*
X72045000Y-58955000D03*
X72045000Y-61055000D03*
%TO.N,Net-(Q2-D)*%
X91450000Y-59800000D03*
X87100000Y-56525000D03*
%TO.N,-2V5*%
X94670000Y-59930000D03*
X87800000Y-59925000D03*
X83260000Y-65530000D03*
%TO.N,/INDICATOR_IN*%
X138200000Y-52100000D03*
%TO.N,/PWM_RCV_1*%
X106400000Y-62000000D03*
%TO.N,/PWM_RCV_2*%
X105900000Y-60800000D03*
X108600000Y-60400000D03*
X114000000Y-62200000D03*
%TO.N,/DOG_7*%
X130900000Y-65700000D03*
X131500000Y-63200000D03*
X131500000Y-58200000D03*
%TO.N,/DOG_4*%
X128200000Y-53100000D03*
X119000000Y-55500000D03*
X119000000Y-52900000D03*
X128750000Y-65100000D03*
%TO.N,/DOG_5*%
X121500000Y-53350000D03*
X129500000Y-67200000D03*
X129800000Y-53900000D03*
X128925000Y-63300000D03*
X121500000Y-55500000D03*
%TO.N,/PWM_RCV_3*%
X116500000Y-62200000D03*
X109000000Y-59225000D03*
X105500000Y-59700000D03*
%TO.N,/PWM_RCV_6*%
X124000000Y-62200000D03*
%TO.N,/PWM_RCV_7*%
X126500000Y-62300000D03*
%TO.N,/PWM_RCV_5*%
X121500000Y-62300000D03*
%TO.N,/DOG_2*%
X113900000Y-53800000D03*
X113900000Y-55850000D03*
X114200000Y-51000000D03*
%TO.N,/PWM_RCV_4*%
X119000000Y-62300000D03*
%TO.N,/DOG_6*%
X128400000Y-68300000D03*
X130200000Y-63200000D03*
X130400000Y-55900000D03*
%TO.N,/DOG_3*%
X116500000Y-55850000D03*
X116600000Y-53850000D03*
X116390380Y-51090380D03*
%TO.N,/DOG_1*%
X111400000Y-55800000D03*
X111200000Y-51400000D03*
%TD*%
D28*
%TO.N,Net-(U1C-+)*%
X86670000Y-61270000D02*
X86700000Y-61300000D01*
X75185000Y-61675000D02*
X75438721Y-61675000D01*
X75438721Y-61675000D02*
X75858973Y-62095252D01*
X84100000Y-61270000D02*
X86670000Y-61270000D01*
%TO.N,GND*%
X74530000Y-67520000D02*
X74560000Y-67550000D01*
X70030000Y-60940000D02*
X70045000Y-60955000D01*
X75241000Y-60627000D02*
X75699451Y-61085451D01*
X87725000Y-61305000D02*
X87725000Y-61535000D01*
X78935000Y-66905000D02*
X78970000Y-66870000D01*
X84585000Y-52935000D02*
X85435000Y-52935000D01*
X98422500Y-62715000D02*
X98422500Y-61882500D01*
X87725000Y-61535000D02*
X87230000Y-62030000D01*
X93685000Y-58955000D02*
X93685000Y-62775037D01*
X79150000Y-58730000D02*
X77170000Y-58730000D01*
X91855000Y-58500000D02*
X91800000Y-58555000D01*
X96127500Y-57045000D02*
X100055000Y-57045000D01*
X85530000Y-58730000D02*
X85800000Y-59000000D01*
X94605000Y-57045000D02*
X94580000Y-57020000D01*
X73252500Y-67520000D02*
X74530000Y-67520000D01*
X70040000Y-60000000D02*
X68910000Y-60000000D01*
X70030000Y-59040000D02*
X68930000Y-59040000D01*
X76417189Y-60815000D02*
X76146738Y-61085451D01*
X86767510Y-59000000D02*
X86824807Y-59057297D01*
X77810000Y-53710000D02*
X77700000Y-53600000D01*
X87695000Y-62495000D02*
X87230000Y-62030000D01*
X87695000Y-62795000D02*
X87695000Y-62495000D01*
X93685000Y-62775037D02*
X93668939Y-62791098D01*
X85800000Y-59000000D02*
X86767510Y-59000000D01*
X90650000Y-58460000D02*
X91705000Y-58460000D01*
X89457500Y-63062500D02*
X89420000Y-63100000D01*
X77835000Y-66905000D02*
X78935000Y-66905000D01*
X96127500Y-57045000D02*
X94605000Y-57045000D01*
X84100000Y-58730000D02*
X85530000Y-58730000D01*
X79430000Y-53710000D02*
X77810000Y-53710000D01*
X68890000Y-60950000D02*
X68875000Y-60935000D01*
X100055000Y-57045000D02*
X100400000Y-56700000D01*
X75699451Y-61085451D02*
X76146738Y-61085451D01*
X99925000Y-57045000D02*
X100055000Y-57045000D01*
X76875000Y-60815000D02*
X76417189Y-60815000D01*
X68930000Y-59040000D02*
X68925000Y-59045000D01*
X68910000Y-60000000D02*
X68875000Y-60035000D01*
X89457500Y-61825000D02*
X89457500Y-63062500D01*
X91705000Y-58460000D02*
X91800000Y-58555000D01*
X85435000Y-52935000D02*
X85500000Y-53000000D01*
X100400000Y-56700000D02*
X101000000Y-56700000D01*
X70040000Y-60950000D02*
X68890000Y-60950000D01*
X77170000Y-58730000D02*
X77000000Y-58900000D01*
X70030000Y-59040000D02*
X70030000Y-60940000D01*
X91855000Y-57200000D02*
X91855000Y-58500000D01*
X98422500Y-61882500D02*
X98308008Y-61768008D01*
X77000000Y-58900000D02*
X76000000Y-58900000D01*
%TO.N,Net-(D5-K)*%
X72165000Y-56275000D02*
X73290000Y-57400000D01*
X63535000Y-56275000D02*
X72165000Y-56275000D01*
%TO.N,Net-(U1B-+)*%
X79150000Y-61270000D02*
X77724697Y-61270000D01*
X77000000Y-56400000D02*
X75500000Y-56400000D01*
X77210000Y-56190000D02*
X77000000Y-56400000D01*
X79150000Y-56190000D02*
X77210000Y-56190000D01*
X77724697Y-61270000D02*
X77724448Y-61269751D01*
%TO.N,Net-(D6-K)*%
X71790000Y-66570000D02*
X71010000Y-65790000D01*
X63535000Y-66275000D02*
X70525000Y-66275000D01*
X75127500Y-66570000D02*
X71790000Y-66570000D01*
X70525000Y-66275000D02*
X71010000Y-65790000D01*
X71010000Y-65790000D02*
X71010000Y-62900000D01*
%TO.N,Net-(U1B--)*%
X79150000Y-62540000D02*
X77060000Y-62540000D01*
X77060000Y-62540000D02*
X76900000Y-62700000D01*
X76900000Y-62000000D02*
X76950000Y-61950000D01*
X76900000Y-62700000D02*
X76900000Y-62000000D01*
%TO.N,/PWM_SEND*%
X126800000Y-66800000D02*
X126700000Y-66900000D01*
X132800000Y-56800000D02*
X128400000Y-56800000D01*
X77505000Y-67595000D02*
X76825000Y-66915000D01*
X107400000Y-66900000D02*
X79965305Y-66900000D01*
X128400000Y-56800000D02*
X128300000Y-56700000D01*
X126700000Y-66900000D02*
X107400000Y-66900000D01*
X134045000Y-55555000D02*
X132800000Y-56800000D01*
X79965305Y-66900000D02*
X79270305Y-67595000D01*
X136225000Y-55555000D02*
X134045000Y-55555000D01*
X79270305Y-67595000D02*
X77505000Y-67595000D01*
%TO.N,/PWM_RCV*%
X103600000Y-64800000D02*
X103800000Y-64600000D01*
X89640000Y-59280000D02*
X89600000Y-59240000D01*
X103800000Y-64600000D02*
X111500000Y-64600000D01*
X89457500Y-59925000D02*
X89457500Y-59462500D01*
X89457500Y-59462500D02*
X89640000Y-59280000D01*
X89630000Y-58460000D02*
X89630000Y-57470000D01*
X89600000Y-59240000D02*
X89600000Y-58540000D01*
X111500000Y-64600000D02*
X126500000Y-64600000D01*
%TO.N,Net-(U1C--)*%
X86675000Y-62795000D02*
X86675000Y-62975000D01*
X86340000Y-62540000D02*
X86600000Y-62800000D01*
X86675000Y-62975000D02*
X87600000Y-63900000D01*
X84100000Y-62540000D02*
X86340000Y-62540000D01*
%TO.N,+2V5*%
X96127500Y-58945000D02*
X94665000Y-58945000D01*
X97250000Y-59270000D02*
X96970000Y-58990000D01*
X94805000Y-61765000D02*
X94730000Y-61690000D01*
X77100000Y-60000000D02*
X76900000Y-59800000D01*
X96147500Y-61765000D02*
X94805000Y-61765000D01*
X96940000Y-58960000D02*
X96110000Y-58960000D01*
X96147500Y-61765000D02*
X96615000Y-61765000D01*
X81205000Y-65585000D02*
X80040000Y-65585000D01*
X97250000Y-61130000D02*
X97250000Y-59270000D01*
X94665000Y-62657593D02*
X94781730Y-62774323D01*
X94665000Y-58945000D02*
X94660000Y-58940000D01*
X76800000Y-59800000D02*
X76268719Y-59800000D01*
X81325000Y-65475000D02*
X81300000Y-65500000D01*
X79150000Y-60000000D02*
X77100000Y-60000000D01*
X94665000Y-61725000D02*
X94665000Y-62657593D01*
X96970000Y-58990000D02*
X96940000Y-58960000D01*
X76268719Y-59800000D02*
X76026346Y-60042373D01*
X96615000Y-61765000D02*
X97250000Y-61130000D01*
%TO.N,+5V*%
X82930000Y-51960000D02*
X85556126Y-51960000D01*
X71000000Y-59070000D02*
X70975000Y-59045000D01*
D29*
X98440000Y-57970000D02*
X101070000Y-57970000D01*
D28*
X71995000Y-59985000D02*
X72055000Y-60045000D01*
X71000000Y-60950000D02*
X71940000Y-60950000D01*
X71000000Y-61890000D02*
X71010000Y-61900000D01*
X70990000Y-59040000D02*
X71960000Y-59040000D01*
X71960000Y-59040000D02*
X72045000Y-58955000D01*
X71000000Y-59990000D02*
X70995000Y-59985000D01*
X71000000Y-60950000D02*
X71000000Y-61890000D01*
X70995000Y-59985000D02*
X71995000Y-59985000D01*
D29*
X101070000Y-57970000D02*
X101100000Y-58000000D01*
D28*
X71865000Y-60045000D02*
X72055000Y-60045000D01*
X85556126Y-51960000D02*
X85564166Y-51951960D01*
X71940000Y-60950000D02*
X72045000Y-61055000D01*
X71000000Y-60000000D02*
X71000000Y-59070000D01*
X71000000Y-60950000D02*
X71000000Y-59990000D01*
%TO.N,Net-(C6-Pad1)*%
X74140000Y-62780000D02*
X74140000Y-61740000D01*
X74165000Y-60735000D02*
X74200000Y-60700000D01*
X74165000Y-61675000D02*
X74165000Y-60735000D01*
%TO.N,Net-(Q2-D)*%
X90940000Y-62610000D02*
X90940000Y-64570000D01*
X90940000Y-62610000D02*
X90940000Y-61830000D01*
X91332500Y-60875000D02*
X91332500Y-59917500D01*
X91332500Y-59917500D02*
X91450000Y-59800000D01*
X91350000Y-61420000D02*
X91340000Y-61410000D01*
X91340000Y-61410000D02*
X91340000Y-60910000D01*
X86675000Y-56950000D02*
X87100000Y-56525000D01*
X90940000Y-61830000D02*
X91350000Y-61420000D01*
X90940000Y-64570000D02*
X90910000Y-64600000D01*
X86300000Y-56950000D02*
X86675000Y-56950000D01*
%TO.N,Net-(R4-Pad1)*%
X84100000Y-63810000D02*
X86510000Y-63810000D01*
X87300000Y-64650000D02*
X89860000Y-64650000D01*
X86510000Y-63810000D02*
X86700000Y-64000000D01*
X86615000Y-63965000D02*
X87300000Y-64650000D01*
%TO.N,/DOG*%
X92800000Y-56920000D02*
X92800000Y-63980000D01*
X99071490Y-64780000D02*
X101826490Y-62025000D01*
X91970000Y-56340000D02*
X92220000Y-56340000D01*
X92220000Y-56340000D02*
X92800000Y-56920000D01*
X101826490Y-62025000D02*
X101826490Y-61073510D01*
X90880000Y-56295000D02*
X91755000Y-56295000D01*
X91755000Y-56295000D02*
X91775000Y-56275000D01*
X93600000Y-64780000D02*
X99071490Y-64780000D01*
X92800000Y-63980000D02*
X93600000Y-64780000D01*
X111500000Y-58500000D02*
X126500000Y-58500000D01*
X101826490Y-61073510D02*
X104400000Y-58500000D01*
X104400000Y-58500000D02*
X111500000Y-58500000D01*
%TO.N,-2V5*%
X83245000Y-65515000D02*
X83260000Y-65530000D01*
X94665000Y-59935000D02*
X94670000Y-59930000D01*
X96147500Y-60815000D02*
X94825000Y-60815000D01*
X85925000Y-59925000D02*
X87800000Y-59925000D01*
X94825000Y-60815000D02*
X94800000Y-60790000D01*
X94665000Y-60785000D02*
X94665000Y-59935000D01*
X84100000Y-60000000D02*
X86200000Y-60000000D01*
X82195000Y-65515000D02*
X83245000Y-65515000D01*
%TO.N,Net-(D6-A)*%
X69990000Y-61900000D02*
X69990000Y-62900000D01*
X69155000Y-63735000D02*
X69990000Y-62900000D01*
X63535000Y-63735000D02*
X69155000Y-63735000D01*
D30*
%TO.N,/INDICATOR_IN*%
X129375736Y-51100000D02*
X137200000Y-51100000D01*
X128675736Y-51800000D02*
X129375736Y-51100000D01*
X112300000Y-51800000D02*
X128675736Y-51800000D01*
X85178984Y-53775000D02*
X110325000Y-53775000D01*
X137200000Y-51100000D02*
X138200000Y-52100000D01*
X85113984Y-53710000D02*
X85178984Y-53775000D01*
X110325000Y-53775000D02*
X112300000Y-51800000D01*
X82930000Y-53710000D02*
X85113984Y-53710000D01*
D28*
%TO.N,Net-(U1A--)*%
X77100000Y-57300000D02*
X77700000Y-57300000D01*
X77800000Y-57400000D02*
X79100000Y-57400000D01*
X77700000Y-57300000D02*
X77800000Y-57400000D01*
X74305000Y-57345000D02*
X74250000Y-57400000D01*
X75385000Y-57345000D02*
X74305000Y-57345000D01*
X75500000Y-57300000D02*
X77100000Y-57300000D01*
%TO.N,Net-(C13-Pad1)*%
X88585000Y-57385000D02*
X88585000Y-55840000D01*
X85390000Y-56190000D02*
X85780000Y-55800000D01*
X88500000Y-57400000D02*
X88500000Y-58400000D01*
X88585000Y-55840000D02*
X88625000Y-55800000D01*
X85780000Y-55800000D02*
X88625000Y-55800000D01*
X89300000Y-55800000D02*
X89825000Y-56325000D01*
X84100000Y-56190000D02*
X85390000Y-56190000D01*
X88625000Y-55800000D02*
X89300000Y-55800000D01*
%TO.N,Net-(U1D--)*%
X85800000Y-57950000D02*
X87150000Y-57950000D01*
X87535000Y-57365000D02*
X87575000Y-57325000D01*
X87535000Y-58485000D02*
X87535000Y-57365000D01*
X87150000Y-57950000D02*
X87600000Y-58400000D01*
X84100000Y-57460000D02*
X85310000Y-57460000D01*
X85310000Y-57460000D02*
X85800000Y-57950000D01*
%TO.N,Net-(C6-Pad2)*%
X77010000Y-63810000D02*
X76900000Y-63700000D01*
X75335000Y-63715000D02*
X74205000Y-63715000D01*
X79150000Y-63810000D02*
X77010000Y-63810000D01*
X76800000Y-63800000D02*
X75300000Y-63800000D01*
X74205000Y-63715000D02*
X74200000Y-63720000D01*
X76900000Y-63700000D02*
X76800000Y-63800000D01*
%TO.N,Net-(U4-CFLY-)*%
X99910000Y-62580000D02*
X99910000Y-62180000D01*
X96600000Y-63600000D02*
X98890000Y-63600000D01*
X98890000Y-63600000D02*
X99910000Y-62580000D01*
X96147500Y-63147500D02*
X96600000Y-63600000D01*
X96147500Y-62715000D02*
X96147500Y-63147500D01*
%TO.N,Net-(U4-CFLY+)*%
X98422500Y-60815000D02*
X99595000Y-60815000D01*
X99595000Y-60815000D02*
X99900000Y-61120000D01*
%TO.N,Net-(Q1-G)*%
X74580000Y-65640000D02*
X73330000Y-65640000D01*
X76925000Y-65885000D02*
X76890000Y-65850000D01*
X76820000Y-65790000D02*
X76800000Y-65810000D01*
X74580000Y-65640000D02*
X74800000Y-65860000D01*
X74800000Y-65860000D02*
X77730000Y-65860000D01*
X73330000Y-65640000D02*
X73310000Y-65620000D01*
D30*
%TO.N,/INDICATOR_OUT*%
X51680000Y-54805000D02*
X51680000Y-53620000D01*
X51680000Y-53620000D02*
X54100000Y-51200000D01*
X75900000Y-51200000D02*
X76660000Y-51960000D01*
X54100000Y-51200000D02*
X75900000Y-51200000D01*
X52430000Y-55555000D02*
X51680000Y-54805000D01*
X76660000Y-51960000D02*
X79430000Y-51960000D01*
%TO.N,/PWM_RCV_1*%
X106400000Y-62000000D02*
X106900000Y-61500000D01*
X134175000Y-56825000D02*
X136225000Y-56825000D01*
X111500000Y-61500000D02*
X112200000Y-61500000D01*
X112200000Y-61500000D02*
X113900000Y-59800000D01*
X111500000Y-63300000D02*
X111500000Y-61500000D01*
X131200000Y-59800000D02*
X134175000Y-56825000D01*
X113900000Y-59800000D02*
X131200000Y-59800000D01*
X106900000Y-61500000D02*
X111500000Y-61500000D01*
%TO.N,/PWM_RCV_2*%
X134805000Y-58095000D02*
X136225000Y-58095000D01*
X114100000Y-62200000D02*
X116200000Y-60100000D01*
X116200000Y-60100000D02*
X132800000Y-60100000D01*
X132800000Y-60100000D02*
X134805000Y-58095000D01*
X108600000Y-60400000D02*
X108200000Y-60800000D01*
X114000000Y-63300000D02*
X114000000Y-62200000D01*
X114000000Y-62200000D02*
X114100000Y-62200000D01*
X108200000Y-60800000D02*
X105900000Y-60800000D01*
%TO.N,/DOG_7*%
X126950000Y-57200000D02*
X126500000Y-57200000D01*
X131400000Y-58100000D02*
X127850000Y-58100000D01*
X130900000Y-65700000D02*
X130850000Y-65650000D01*
X136200000Y-67000000D02*
X137800000Y-67000000D01*
X54150000Y-68650000D02*
X51680000Y-66180000D01*
X138300000Y-66500000D02*
X138300000Y-65250000D01*
X131500000Y-58200000D02*
X131400000Y-58100000D01*
X126350000Y-68650000D02*
X54150000Y-68650000D01*
X137800000Y-67000000D02*
X138300000Y-66500000D01*
X130850000Y-65650000D02*
X129350000Y-65650000D01*
X131500000Y-63200000D02*
X132400000Y-63200000D01*
X132400000Y-63200000D02*
X136200000Y-67000000D01*
X138300000Y-65250000D02*
X137495000Y-64445000D01*
X51680000Y-65195000D02*
X52430000Y-64445000D01*
X51680000Y-66180000D02*
X51680000Y-65195000D01*
X127850000Y-58100000D02*
X126950000Y-57200000D01*
X129350000Y-65650000D02*
X126350000Y-68650000D01*
%TO.N,/DOG_4*%
X132351472Y-64600000D02*
X131700000Y-64600000D01*
X119000000Y-57200000D02*
X119000000Y-55500000D01*
X50780000Y-62285000D02*
X50780000Y-66552792D01*
X128750000Y-65100000D02*
X129250000Y-64600000D01*
X127800000Y-52700000D02*
X128200000Y-53100000D01*
X131700000Y-68000000D02*
X131700000Y-64600000D01*
X52430000Y-60635000D02*
X50780000Y-62285000D01*
X139200000Y-62340000D02*
X139200000Y-66948528D01*
X129250000Y-64600000D02*
X131700000Y-64600000D01*
X135651472Y-67900000D02*
X132351472Y-64600000D01*
X137495000Y-60635000D02*
X139200000Y-62340000D01*
X138248528Y-67900000D02*
X135651472Y-67900000D01*
X50780000Y-66552792D02*
X53827208Y-69600000D01*
X53827208Y-69600000D02*
X130100000Y-69600000D01*
X119000000Y-52900000D02*
X119200000Y-52700000D01*
X139200000Y-66948528D02*
X138248528Y-67900000D01*
X119200000Y-52700000D02*
X127800000Y-52700000D01*
X130100000Y-69600000D02*
X131700000Y-68000000D01*
%TO.N,/DOG_5*%
X128500000Y-69300000D02*
X53951472Y-69300000D01*
X129000000Y-64000000D02*
X129300000Y-64300000D01*
X138900000Y-63519339D02*
X137495000Y-62114339D01*
X128925000Y-63300000D02*
X129000000Y-63375000D01*
X51080000Y-66428528D02*
X51080000Y-63255000D01*
X53951472Y-69300000D02*
X51080000Y-66428528D01*
X121500000Y-57200000D02*
X121500000Y-55500000D01*
X129500000Y-68300000D02*
X128500000Y-69300000D01*
X51080000Y-63255000D02*
X52430000Y-61905000D01*
X135775736Y-67600000D02*
X138124264Y-67600000D01*
X137495000Y-62114339D02*
X137495000Y-61905000D01*
X138900000Y-66824264D02*
X138900000Y-63519339D01*
X132475736Y-64300000D02*
X135775736Y-67600000D01*
X127000000Y-53900000D02*
X126450000Y-53350000D01*
X129800000Y-53900000D02*
X127000000Y-53900000D01*
X129000000Y-63375000D02*
X129000000Y-64000000D01*
X138124264Y-67600000D02*
X138900000Y-66824264D01*
X129300000Y-64300000D02*
X132475736Y-64300000D01*
X129500000Y-67200000D02*
X129500000Y-68300000D01*
X126450000Y-53350000D02*
X121500000Y-53350000D01*
%TO.N,/PWM_RCV_3*%
X105600000Y-59600000D02*
X108600000Y-59600000D01*
X108600000Y-59600000D02*
X109000000Y-59200000D01*
X116500000Y-60800000D02*
X116900000Y-60400000D01*
X134171396Y-59365000D02*
X136225000Y-59365000D01*
X116500000Y-63300000D02*
X116500000Y-60800000D01*
X105500000Y-59700000D02*
X105600000Y-59600000D01*
X116900000Y-60400000D02*
X133136396Y-60400000D01*
X133136396Y-60400000D02*
X134171396Y-59365000D01*
%TO.N,/PWM_RCV_6*%
X124000000Y-61800000D02*
X124500000Y-61300000D01*
X132900000Y-61300000D02*
X134775000Y-63175000D01*
X134775000Y-63175000D02*
X136225000Y-63175000D01*
X124500000Y-61300000D02*
X132900000Y-61300000D01*
X124000000Y-63300000D02*
X124000000Y-61800000D01*
%TO.N,/PWM_RCV_7*%
X126700000Y-62100000D02*
X132900000Y-62100000D01*
X132900000Y-62100000D02*
X135245000Y-64445000D01*
X126500000Y-62300000D02*
X126700000Y-62100000D01*
X135245000Y-64445000D02*
X136225000Y-64445000D01*
X126500000Y-63300000D02*
X126500000Y-62300000D01*
%TO.N,/PWM_RCV_5*%
X121500000Y-63300000D02*
X121500000Y-61700000D01*
X133600000Y-61000000D02*
X134505000Y-61905000D01*
X134505000Y-61905000D02*
X136225000Y-61905000D01*
X121500000Y-61700000D02*
X122200000Y-61000000D01*
X122200000Y-61000000D02*
X133600000Y-61000000D01*
%TO.N,/DOG_2*%
X133600000Y-54700000D02*
X135200000Y-53100000D01*
X138700000Y-56890000D02*
X137495000Y-58095000D01*
X135200000Y-53100000D02*
X138424264Y-53100000D01*
X113900000Y-53800000D02*
X114600000Y-54500000D01*
X52430000Y-58095000D02*
X51080000Y-56745000D01*
X114600000Y-54500000D02*
X126375736Y-54500000D01*
X51080000Y-53295736D02*
X53775736Y-50600000D01*
X138700000Y-53375736D02*
X138700000Y-56890000D01*
X113800000Y-50600000D02*
X114200000Y-51000000D01*
X126375736Y-54500000D02*
X126575736Y-54700000D01*
X51080000Y-56745000D02*
X51080000Y-53295736D01*
X113900000Y-55850000D02*
X114000000Y-55950000D01*
X114000000Y-55950000D02*
X114000000Y-57200000D01*
X126575736Y-54700000D02*
X133600000Y-54700000D01*
X138424264Y-53100000D02*
X138700000Y-53375736D01*
X53775736Y-50600000D02*
X113800000Y-50600000D01*
%TO.N,/PWM_RCV_4*%
X136160000Y-60700000D02*
X136225000Y-60635000D01*
X119800000Y-60700000D02*
X136160000Y-60700000D01*
X119000000Y-61500000D02*
X119800000Y-60700000D01*
X119000000Y-63300000D02*
X119000000Y-61500000D01*
%TO.N,/DOG_6*%
X127750000Y-68950000D02*
X54025736Y-68950000D01*
X132400000Y-63800000D02*
X135900000Y-67300000D01*
X51380000Y-64225000D02*
X52430000Y-63175000D01*
X138600000Y-66700000D02*
X138600000Y-64280000D01*
X54025736Y-68950000D02*
X51380000Y-66304264D01*
X124000000Y-56200000D02*
X124000000Y-57200000D01*
X130850000Y-63850000D02*
X131769239Y-63850000D01*
X131819239Y-63800000D02*
X132400000Y-63800000D01*
X51380000Y-66304264D02*
X51380000Y-64225000D01*
X128400000Y-68300000D02*
X127750000Y-68950000D01*
X124300000Y-55900000D02*
X124000000Y-56200000D01*
X138600000Y-64280000D02*
X137495000Y-63175000D01*
X130400000Y-55900000D02*
X124300000Y-55900000D01*
X135900000Y-67300000D02*
X138000000Y-67300000D01*
X138000000Y-67300000D02*
X138600000Y-66700000D01*
X130200000Y-63200000D02*
X130850000Y-63850000D01*
X131769239Y-63850000D02*
X131819239Y-63800000D01*
%TO.N,/DOG_3*%
X115600000Y-50300000D02*
X116390380Y-51090380D01*
X137800000Y-52800000D02*
X138548528Y-52800000D01*
X50780000Y-57715000D02*
X50780000Y-53171472D01*
X128700000Y-52200000D02*
X129500000Y-51400000D01*
X139000000Y-57860000D02*
X137495000Y-59365000D01*
X118250000Y-52200000D02*
X128700000Y-52200000D01*
X116600000Y-53850000D02*
X118250000Y-52200000D01*
X53651472Y-50300000D02*
X115600000Y-50300000D01*
X116500000Y-55850000D02*
X116500000Y-57200000D01*
X136400000Y-51400000D02*
X137800000Y-52800000D01*
X138548528Y-52800000D02*
X139000000Y-53251472D01*
X50780000Y-53171472D02*
X53651472Y-50300000D01*
X139000000Y-53251472D02*
X139000000Y-57860000D01*
X129500000Y-51400000D02*
X136400000Y-51400000D01*
X52430000Y-59365000D02*
X50780000Y-57715000D01*
%TO.N,/DOG_1*%
X51380000Y-53420000D02*
X53900000Y-50900000D01*
X52430000Y-56825000D02*
X51380000Y-55775000D01*
X111500000Y-55700000D02*
X112000000Y-55200000D01*
X133860000Y-55000000D02*
X135460000Y-53400000D01*
X51380000Y-55775000D02*
X51380000Y-53420000D01*
X118730761Y-54850000D02*
X126301472Y-54850000D01*
X138400000Y-53500000D02*
X138400000Y-55920000D01*
X138400000Y-55920000D02*
X137495000Y-56825000D01*
X126301472Y-54850000D02*
X126451472Y-55000000D01*
X53900000Y-50900000D02*
X110700000Y-50900000D01*
X126451472Y-55000000D02*
X133860000Y-55000000D01*
X118380761Y-55200000D02*
X118730761Y-54850000D01*
X135460000Y-53400000D02*
X138300000Y-53400000D01*
X110700000Y-50900000D02*
X111200000Y-51400000D01*
X112000000Y-55200000D02*
X118380761Y-55200000D01*
X138300000Y-53400000D02*
X138400000Y-53500000D01*
X111500000Y-57200000D02*
X111500000Y-55700000D01*
%TD*%
M02*
