%TF.GenerationSoftware,KiCad,Pcbnew,7.0.10+1*%
%TF.CreationDate,2024-03-12T10:53:23+01:00*%
%TF.ProjectId,IR-sensor,49522d73-656e-4736-9f72-2e6b69636164,rev?*%
%TF.SameCoordinates,Original*%
%TF.FileFunction,Copper,L3,Inr*%
%TF.FilePolarity,Positive*%
%FSLAX46Y46*%
G04 Gerber Fmt 4.6, Leading zero omitted, Abs format (unit mm)*
G04 Created by KiCad (PCBNEW 7.0.10+1) date 2024-03-12 10:53:23*
%MOMM*%
%LPD*%
G01*
G04 APERTURE LIST*
%TA.AperFunction,ComponentPad*%
%ADD10R,1.800000X1.800000*%
%TD*%
%TA.AperFunction,ComponentPad*%
%ADD11C,1.800000*%
%TD*%
%TA.AperFunction,ViaPad*%
%ADD12C,0.800000*%
%TD*%
G04 APERTURE END LIST*
D10*
%TO.N,Net-(D2-K)*%
%TO.C,D5*%
X62535000Y-56275000D03*
D11*
%TO.N,GND*%
X62535000Y-53735000D03*
%TD*%
D10*
%TO.N,Net-(D1-K)*%
%TO.C,D6*%
X62535000Y-66275000D03*
D11*
%TO.N,Net-(D1-A)*%
X62535000Y-63735000D03*
%TD*%
D12*
%TO.N,Net-(U1C-+)*%
X79800000Y-61270000D03*
X69858973Y-62095252D03*
%TO.N,GND*%
X70000000Y-58900000D03*
X61830000Y-59980000D03*
X87668939Y-62791098D03*
X61830000Y-60880000D03*
X71700000Y-53600000D03*
X95000000Y-56700000D03*
X79500000Y-53000000D03*
X70146738Y-61085451D03*
X58500000Y-52230000D03*
X68560000Y-67550000D03*
X87600000Y-59900000D03*
X61880000Y-58990000D03*
X85800000Y-58555000D03*
X73370000Y-68500000D03*
X80824807Y-59057297D03*
X97500000Y-61200000D03*
X97799990Y-58800000D03*
X81180000Y-61960000D03*
X72970000Y-66870000D03*
X83420000Y-63100000D03*
X57000000Y-52230000D03*
X97500000Y-63100000D03*
X88580000Y-57020000D03*
X92308008Y-61768008D03*
%TO.N,Net-(U1B-+)*%
X71680000Y-56190000D03*
X71724448Y-61269751D03*
%TO.N,/PWM_SEND*%
X96351041Y-57951041D03*
X70824996Y-67820000D03*
%TO.N,/PWM_RCV*%
X83630000Y-57470000D03*
X94070000Y-59490000D03*
%TO.N,+2V5*%
X88781730Y-62774323D03*
X74040000Y-65585000D03*
X70026346Y-60042373D03*
%TO.N,+5V*%
X65010000Y-59990000D03*
X97200000Y-56800000D03*
X79564166Y-51951960D03*
X95100000Y-58000000D03*
X65000000Y-58900000D03*
X65000000Y-61000000D03*
%TO.N,Net-(Q2-D)*%
X85450000Y-59800000D03*
X81100000Y-56525000D03*
%TO.N,-2V5*%
X88670000Y-59930000D03*
X81800000Y-59925000D03*
X77260000Y-65530000D03*
%TO.N,/INDICATOR*%
X98340000Y-55660000D03*
X79990000Y-68530000D03*
X96005851Y-61005851D03*
%TD*%
%TA.AperFunction,Conductor*%
%TO.N,+5V*%
G36*
X102473066Y-50017813D02*
G01*
X102498376Y-50061650D01*
X102499500Y-50074500D01*
X102499500Y-69925500D01*
X102482187Y-69973066D01*
X102438350Y-69998376D01*
X102425500Y-69999500D01*
X90574000Y-69999500D01*
X90526434Y-69982187D01*
X90501124Y-69938350D01*
X90500000Y-69925500D01*
X90500000Y-66899337D01*
X92674500Y-66899337D01*
X92695763Y-67026762D01*
X92715429Y-67144614D01*
X92750633Y-67247159D01*
X92796172Y-67379811D01*
X92848055Y-67475682D01*
X92914526Y-67598509D01*
X93067262Y-67794744D01*
X93250215Y-67963164D01*
X93458393Y-68099173D01*
X93686119Y-68199063D01*
X93927179Y-68260108D01*
X93927182Y-68260108D01*
X93927185Y-68260109D01*
X94112925Y-68275500D01*
X94112933Y-68275500D01*
X94237075Y-68275500D01*
X94422814Y-68260109D01*
X94422816Y-68260108D01*
X94422821Y-68260108D01*
X94663881Y-68199063D01*
X94891607Y-68099173D01*
X95099785Y-67963164D01*
X95282738Y-67794744D01*
X95435474Y-67598509D01*
X95553828Y-67379810D01*
X95634571Y-67144614D01*
X95675500Y-66899335D01*
X95675500Y-66650665D01*
X95634571Y-66405386D01*
X95553828Y-66170190D01*
X95435474Y-65951491D01*
X95282738Y-65755256D01*
X95099785Y-65586836D01*
X94891607Y-65450827D01*
X94663887Y-65350939D01*
X94663883Y-65350938D01*
X94663881Y-65350937D01*
X94449970Y-65296767D01*
X94422814Y-65289890D01*
X94237075Y-65274500D01*
X94237067Y-65274500D01*
X94112933Y-65274500D01*
X94112925Y-65274500D01*
X93927185Y-65289890D01*
X93763531Y-65331333D01*
X93686119Y-65350937D01*
X93686117Y-65350937D01*
X93686112Y-65350939D01*
X93458392Y-65450827D01*
X93250214Y-65586836D01*
X93067263Y-65755254D01*
X92914529Y-65951486D01*
X92914522Y-65951498D01*
X92796172Y-66170188D01*
X92715428Y-66405389D01*
X92674500Y-66650662D01*
X92674500Y-66899337D01*
X90500000Y-66899337D01*
X90500000Y-63100000D01*
X96894318Y-63100000D01*
X96914955Y-63256760D01*
X96914955Y-63256761D01*
X96975464Y-63402841D01*
X97071715Y-63528279D01*
X97071720Y-63528284D01*
X97155345Y-63592451D01*
X97197159Y-63624536D01*
X97343238Y-63685044D01*
X97500000Y-63705682D01*
X97656762Y-63685044D01*
X97802841Y-63624536D01*
X97928282Y-63528282D01*
X98024536Y-63402841D01*
X98085044Y-63256762D01*
X98105682Y-63100000D01*
X98085044Y-62943238D01*
X98024536Y-62797159D01*
X97950700Y-62700934D01*
X97928284Y-62671720D01*
X97928279Y-62671715D01*
X97802841Y-62575464D01*
X97656761Y-62514955D01*
X97500000Y-62494318D01*
X97343239Y-62514955D01*
X97343238Y-62514955D01*
X97197158Y-62575464D01*
X97071720Y-62671715D01*
X97071715Y-62671720D01*
X96975464Y-62797158D01*
X96914955Y-62943238D01*
X96914955Y-62943239D01*
X96894318Y-63100000D01*
X90500000Y-63100000D01*
X90500000Y-61768008D01*
X91702326Y-61768008D01*
X91722963Y-61924768D01*
X91722963Y-61924769D01*
X91783472Y-62070849D01*
X91879723Y-62196287D01*
X91879728Y-62196292D01*
X91949445Y-62249787D01*
X92005167Y-62292544D01*
X92151246Y-62353052D01*
X92308008Y-62373690D01*
X92464770Y-62353052D01*
X92610849Y-62292544D01*
X92736290Y-62196290D01*
X92832544Y-62070849D01*
X92893052Y-61924770D01*
X92913690Y-61768008D01*
X92893052Y-61611246D01*
X92832544Y-61465167D01*
X92763323Y-61374956D01*
X92736292Y-61339728D01*
X92736287Y-61339723D01*
X92610849Y-61243472D01*
X92464769Y-61182963D01*
X92308008Y-61162326D01*
X92151247Y-61182963D01*
X92151246Y-61182963D01*
X92005166Y-61243472D01*
X91879728Y-61339723D01*
X91879723Y-61339728D01*
X91783472Y-61465166D01*
X91722963Y-61611246D01*
X91722963Y-61611247D01*
X91702326Y-61768008D01*
X90500000Y-61768008D01*
X90500000Y-61005851D01*
X95400169Y-61005851D01*
X95420806Y-61162611D01*
X95420806Y-61162612D01*
X95481315Y-61308692D01*
X95577566Y-61434130D01*
X95577571Y-61434135D01*
X95617853Y-61465044D01*
X95703010Y-61530387D01*
X95849089Y-61590895D01*
X96005851Y-61611533D01*
X96162613Y-61590895D01*
X96308692Y-61530387D01*
X96434133Y-61434133D01*
X96530387Y-61308692D01*
X96575409Y-61200000D01*
X96894318Y-61200000D01*
X96914955Y-61356760D01*
X96914955Y-61356761D01*
X96975464Y-61502841D01*
X97071715Y-61628279D01*
X97071720Y-61628284D01*
X97109351Y-61657159D01*
X97197159Y-61724536D01*
X97343238Y-61785044D01*
X97500000Y-61805682D01*
X97656762Y-61785044D01*
X97802841Y-61724536D01*
X97928282Y-61628282D01*
X98024536Y-61502841D01*
X98085044Y-61356762D01*
X98105682Y-61200000D01*
X98085044Y-61043238D01*
X98024536Y-60897159D01*
X97928282Y-60771718D01*
X97928279Y-60771715D01*
X97802841Y-60675464D01*
X97656761Y-60614955D01*
X97500000Y-60594318D01*
X97343239Y-60614955D01*
X97343238Y-60614955D01*
X97197158Y-60675464D01*
X97071720Y-60771715D01*
X97071715Y-60771720D01*
X96975464Y-60897158D01*
X96914955Y-61043238D01*
X96914955Y-61043239D01*
X96894318Y-61200000D01*
X96575409Y-61200000D01*
X96590895Y-61162613D01*
X96611533Y-61005851D01*
X96590895Y-60849089D01*
X96530387Y-60703010D01*
X96434133Y-60577569D01*
X96434130Y-60577566D01*
X96308692Y-60481315D01*
X96162612Y-60420806D01*
X96005851Y-60400169D01*
X95849090Y-60420806D01*
X95849089Y-60420806D01*
X95703009Y-60481315D01*
X95577571Y-60577566D01*
X95577566Y-60577571D01*
X95481315Y-60703009D01*
X95420806Y-60849089D01*
X95420806Y-60849090D01*
X95400169Y-61005851D01*
X90500000Y-61005851D01*
X90500000Y-59490000D01*
X93464318Y-59490000D01*
X93484955Y-59646760D01*
X93484955Y-59646761D01*
X93545464Y-59792841D01*
X93641715Y-59918279D01*
X93641720Y-59918284D01*
X93650473Y-59925000D01*
X93767159Y-60014536D01*
X93913238Y-60075044D01*
X94070000Y-60095682D01*
X94226762Y-60075044D01*
X94372841Y-60014536D01*
X94498282Y-59918282D01*
X94594536Y-59792841D01*
X94655044Y-59646762D01*
X94675682Y-59490000D01*
X94655044Y-59333238D01*
X94594536Y-59187159D01*
X94562451Y-59145345D01*
X94498284Y-59061720D01*
X94498279Y-59061715D01*
X94372841Y-58965464D01*
X94226761Y-58904955D01*
X94070000Y-58884318D01*
X93913239Y-58904955D01*
X93913238Y-58904955D01*
X93767158Y-58965464D01*
X93641720Y-59061715D01*
X93641715Y-59061720D01*
X93545464Y-59187158D01*
X93484955Y-59333238D01*
X93484955Y-59333239D01*
X93464318Y-59490000D01*
X90500000Y-59490000D01*
X90500000Y-58800000D01*
X97194308Y-58800000D01*
X97214945Y-58956760D01*
X97214945Y-58956761D01*
X97275454Y-59102841D01*
X97371705Y-59228279D01*
X97371710Y-59228284D01*
X97433197Y-59275464D01*
X97497149Y-59324536D01*
X97643228Y-59385044D01*
X97799990Y-59405682D01*
X97956752Y-59385044D01*
X98102831Y-59324536D01*
X98228272Y-59228282D01*
X98324526Y-59102841D01*
X98385034Y-58956762D01*
X98405672Y-58800000D01*
X98385034Y-58643238D01*
X98324526Y-58497159D01*
X98289579Y-58451615D01*
X98228274Y-58371720D01*
X98228269Y-58371715D01*
X98102831Y-58275464D01*
X97956751Y-58214955D01*
X97799990Y-58194318D01*
X97643229Y-58214955D01*
X97643228Y-58214955D01*
X97497148Y-58275464D01*
X97371710Y-58371715D01*
X97371705Y-58371720D01*
X97275454Y-58497158D01*
X97214945Y-58643238D01*
X97214945Y-58643239D01*
X97194308Y-58800000D01*
X90500000Y-58800000D01*
X90500000Y-57951041D01*
X95745359Y-57951041D01*
X95765996Y-58107801D01*
X95765996Y-58107802D01*
X95826505Y-58253882D01*
X95922756Y-58379320D01*
X95922761Y-58379325D01*
X96006386Y-58443492D01*
X96048200Y-58475577D01*
X96194279Y-58536085D01*
X96351041Y-58556723D01*
X96507803Y-58536085D01*
X96653882Y-58475577D01*
X96779323Y-58379323D01*
X96875577Y-58253882D01*
X96936085Y-58107803D01*
X96956723Y-57951041D01*
X96936085Y-57794279D01*
X96875577Y-57648200D01*
X96779323Y-57522759D01*
X96779320Y-57522756D01*
X96653882Y-57426505D01*
X96507802Y-57365996D01*
X96351041Y-57345359D01*
X96194280Y-57365996D01*
X96194279Y-57365996D01*
X96048199Y-57426505D01*
X95922761Y-57522756D01*
X95922756Y-57522761D01*
X95826505Y-57648199D01*
X95765996Y-57794279D01*
X95765996Y-57794280D01*
X95745359Y-57951041D01*
X90500000Y-57951041D01*
X90500000Y-56700000D01*
X94394318Y-56700000D01*
X94414955Y-56856760D01*
X94414955Y-56856761D01*
X94475464Y-57002841D01*
X94571715Y-57128279D01*
X94571720Y-57128284D01*
X94655345Y-57192451D01*
X94697159Y-57224536D01*
X94843238Y-57285044D01*
X95000000Y-57305682D01*
X95156762Y-57285044D01*
X95302841Y-57224536D01*
X95428282Y-57128282D01*
X95524536Y-57002841D01*
X95585044Y-56856762D01*
X95605682Y-56700000D01*
X95585044Y-56543238D01*
X95524536Y-56397159D01*
X95428282Y-56271718D01*
X95428279Y-56271715D01*
X95302841Y-56175464D01*
X95156761Y-56114955D01*
X95000000Y-56094318D01*
X94843239Y-56114955D01*
X94843238Y-56114955D01*
X94697158Y-56175464D01*
X94571720Y-56271715D01*
X94571715Y-56271720D01*
X94475464Y-56397158D01*
X94414955Y-56543238D01*
X94414955Y-56543239D01*
X94394318Y-56700000D01*
X90500000Y-56700000D01*
X90500000Y-55660000D01*
X97734318Y-55660000D01*
X97754955Y-55816760D01*
X97754955Y-55816761D01*
X97815464Y-55962841D01*
X97911715Y-56088279D01*
X97911720Y-56088284D01*
X97919584Y-56094318D01*
X98037159Y-56184536D01*
X98183238Y-56245044D01*
X98340000Y-56265682D01*
X98496762Y-56245044D01*
X98642841Y-56184536D01*
X98768282Y-56088282D01*
X98864536Y-55962841D01*
X98925044Y-55816762D01*
X98945682Y-55660000D01*
X98925044Y-55503238D01*
X98864536Y-55357159D01*
X98768282Y-55231718D01*
X98768279Y-55231715D01*
X98642841Y-55135464D01*
X98496761Y-55074955D01*
X98340000Y-55054318D01*
X98183239Y-55074955D01*
X98183238Y-55074955D01*
X98037158Y-55135464D01*
X97911720Y-55231715D01*
X97911715Y-55231720D01*
X97815464Y-55357158D01*
X97754955Y-55503238D01*
X97754955Y-55503239D01*
X97734318Y-55660000D01*
X90500000Y-55660000D01*
X90500000Y-54799999D01*
X66089999Y-54830813D01*
X66098308Y-69925459D01*
X66081021Y-69973035D01*
X66037198Y-69998369D01*
X66024308Y-69999500D01*
X50074500Y-69999500D01*
X50026934Y-69982187D01*
X50001624Y-69938350D01*
X50000500Y-69925500D01*
X50000500Y-67124337D01*
X51499500Y-67124337D01*
X51528526Y-67298282D01*
X51540429Y-67369614D01*
X51548539Y-67393238D01*
X51621172Y-67604811D01*
X51676346Y-67706762D01*
X51739526Y-67823509D01*
X51892262Y-68019744D01*
X52075215Y-68188164D01*
X52283393Y-68324173D01*
X52511119Y-68424063D01*
X52752179Y-68485108D01*
X52752182Y-68485108D01*
X52752185Y-68485109D01*
X52937925Y-68500500D01*
X52937933Y-68500500D01*
X53062075Y-68500500D01*
X53247814Y-68485109D01*
X53247816Y-68485108D01*
X53247821Y-68485108D01*
X53488881Y-68424063D01*
X53716607Y-68324173D01*
X53924785Y-68188164D01*
X54107738Y-68019744D01*
X54260474Y-67823509D01*
X54378828Y-67604810D01*
X54459571Y-67369614D01*
X54488751Y-67194746D01*
X61434500Y-67194746D01*
X61446133Y-67253232D01*
X61474353Y-67295464D01*
X61490448Y-67319552D01*
X61534560Y-67349027D01*
X61556767Y-67363866D01*
X61556768Y-67363866D01*
X61556769Y-67363867D01*
X61615252Y-67375500D01*
X61615254Y-67375500D01*
X63454746Y-67375500D01*
X63454748Y-67375500D01*
X63513231Y-67363867D01*
X63579552Y-67319552D01*
X63623867Y-67253231D01*
X63635500Y-67194748D01*
X63635500Y-65355252D01*
X63623867Y-65296769D01*
X63579552Y-65230448D01*
X63557343Y-65215608D01*
X63513232Y-65186133D01*
X63513233Y-65186133D01*
X63483989Y-65180316D01*
X63454748Y-65174500D01*
X61615252Y-65174500D01*
X61586010Y-65180316D01*
X61556767Y-65186133D01*
X61490449Y-65230447D01*
X61490447Y-65230449D01*
X61446133Y-65296767D01*
X61434500Y-65355253D01*
X61434500Y-67194746D01*
X54488751Y-67194746D01*
X54500500Y-67124335D01*
X54500500Y-66875665D01*
X54459571Y-66630386D01*
X54378828Y-66395190D01*
X54260474Y-66176491D01*
X54107738Y-65980256D01*
X54076498Y-65951498D01*
X53924785Y-65811836D01*
X53716607Y-65675827D01*
X53488887Y-65575939D01*
X53488883Y-65575938D01*
X53488881Y-65575937D01*
X53307481Y-65530000D01*
X53247814Y-65514890D01*
X53062075Y-65499500D01*
X53062067Y-65499500D01*
X52937933Y-65499500D01*
X52937925Y-65499500D01*
X52752185Y-65514890D01*
X52588531Y-65556333D01*
X52511119Y-65575937D01*
X52511117Y-65575937D01*
X52511112Y-65575939D01*
X52283392Y-65675827D01*
X52075214Y-65811836D01*
X51892263Y-65980254D01*
X51739529Y-66176486D01*
X51739522Y-66176498D01*
X51621172Y-66395188D01*
X51540428Y-66630389D01*
X51499500Y-66875662D01*
X51499500Y-67124337D01*
X50000500Y-67124337D01*
X50000500Y-63735003D01*
X61429785Y-63735003D01*
X61448601Y-63938076D01*
X61448602Y-63938082D01*
X61504416Y-64134244D01*
X61504418Y-64134250D01*
X61595327Y-64316821D01*
X61595328Y-64316822D01*
X61595329Y-64316825D01*
X61718234Y-64479578D01*
X61718235Y-64479579D01*
X61855637Y-64604836D01*
X61868959Y-64616981D01*
X62042363Y-64724348D01*
X62232544Y-64798024D01*
X62433024Y-64835500D01*
X62433026Y-64835500D01*
X62636974Y-64835500D01*
X62636976Y-64835500D01*
X62837456Y-64798024D01*
X63027637Y-64724348D01*
X63201041Y-64616981D01*
X63351764Y-64479579D01*
X63474673Y-64316821D01*
X63565582Y-64134250D01*
X63621397Y-63938083D01*
X63640215Y-63735000D01*
X63640215Y-63734996D01*
X63621398Y-63531923D01*
X63621397Y-63531917D01*
X63584671Y-63402841D01*
X63565582Y-63335750D01*
X63474673Y-63153179D01*
X63474670Y-63153175D01*
X63474670Y-63153174D01*
X63351765Y-62990421D01*
X63351764Y-62990420D01*
X63201041Y-62853019D01*
X63027637Y-62745652D01*
X62837456Y-62671976D01*
X62749407Y-62655516D01*
X62636979Y-62634500D01*
X62636976Y-62634500D01*
X62433024Y-62634500D01*
X62433020Y-62634500D01*
X62283116Y-62662522D01*
X62232544Y-62671976D01*
X62232542Y-62671976D01*
X62232540Y-62671977D01*
X62042368Y-62745650D01*
X62042363Y-62745652D01*
X62042358Y-62745654D01*
X62042358Y-62745655D01*
X61868958Y-62853019D01*
X61868957Y-62853019D01*
X61718235Y-62990420D01*
X61718234Y-62990421D01*
X61595329Y-63153174D01*
X61595328Y-63153177D01*
X61504418Y-63335750D01*
X61504416Y-63335755D01*
X61448602Y-63531917D01*
X61448601Y-63531923D01*
X61429785Y-63734996D01*
X61429785Y-63735003D01*
X50000500Y-63735003D01*
X50000500Y-60880000D01*
X61224318Y-60880000D01*
X61244955Y-61036760D01*
X61244955Y-61036761D01*
X61305464Y-61182841D01*
X61401715Y-61308279D01*
X61401720Y-61308284D01*
X61485345Y-61372451D01*
X61527159Y-61404536D01*
X61673238Y-61465044D01*
X61830000Y-61485682D01*
X61986762Y-61465044D01*
X62132841Y-61404536D01*
X62258282Y-61308282D01*
X62354536Y-61182841D01*
X62415044Y-61036762D01*
X62435682Y-60880000D01*
X62415044Y-60723238D01*
X62354536Y-60577159D01*
X62276181Y-60475045D01*
X62260961Y-60426773D01*
X62276181Y-60384954D01*
X62354536Y-60282841D01*
X62415044Y-60136762D01*
X62435682Y-59980000D01*
X62415044Y-59823238D01*
X62354536Y-59677159D01*
X62312333Y-59622159D01*
X62257415Y-59550587D01*
X62242193Y-59502311D01*
X62261565Y-59455545D01*
X62271069Y-59446836D01*
X62308282Y-59418282D01*
X62404536Y-59292841D01*
X62465044Y-59146762D01*
X62485682Y-58990000D01*
X62465044Y-58833238D01*
X62404536Y-58687159D01*
X62308282Y-58561718D01*
X62308279Y-58561715D01*
X62182841Y-58465464D01*
X62036761Y-58404955D01*
X61880000Y-58384318D01*
X61723239Y-58404955D01*
X61723238Y-58404955D01*
X61577158Y-58465464D01*
X61451720Y-58561715D01*
X61451715Y-58561720D01*
X61355464Y-58687158D01*
X61294955Y-58833238D01*
X61294955Y-58833239D01*
X61274318Y-58990000D01*
X61294955Y-59146760D01*
X61294955Y-59146761D01*
X61355464Y-59292841D01*
X61452584Y-59419411D01*
X61467806Y-59467687D01*
X61448434Y-59514453D01*
X61438926Y-59523166D01*
X61401718Y-59551717D01*
X61401715Y-59551720D01*
X61305464Y-59677158D01*
X61244955Y-59823238D01*
X61244955Y-59823239D01*
X61224318Y-59980000D01*
X61244955Y-60136760D01*
X61244955Y-60136761D01*
X61305464Y-60282841D01*
X61383815Y-60384952D01*
X61399037Y-60433228D01*
X61383815Y-60475048D01*
X61305464Y-60577158D01*
X61244955Y-60723238D01*
X61244955Y-60723239D01*
X61224318Y-60880000D01*
X50000500Y-60880000D01*
X50000500Y-57194746D01*
X61434500Y-57194746D01*
X61446133Y-57253232D01*
X61467390Y-57285044D01*
X61490448Y-57319552D01*
X61529070Y-57345359D01*
X61556767Y-57363866D01*
X61556768Y-57363866D01*
X61556769Y-57363867D01*
X61615252Y-57375500D01*
X61615254Y-57375500D01*
X63454746Y-57375500D01*
X63454748Y-57375500D01*
X63513231Y-57363867D01*
X63579552Y-57319552D01*
X63623867Y-57253231D01*
X63635500Y-57194748D01*
X63635500Y-55355252D01*
X63623867Y-55296769D01*
X63579552Y-55230448D01*
X63557343Y-55215608D01*
X63513232Y-55186133D01*
X63513233Y-55186133D01*
X63483989Y-55180316D01*
X63454748Y-55174500D01*
X61615252Y-55174500D01*
X61586010Y-55180316D01*
X61556767Y-55186133D01*
X61490449Y-55230447D01*
X61490447Y-55230449D01*
X61446133Y-55296767D01*
X61434500Y-55355253D01*
X61434500Y-57194746D01*
X50000500Y-57194746D01*
X50000500Y-53124337D01*
X51499500Y-53124337D01*
X51536257Y-53344614D01*
X51540429Y-53369614D01*
X51565704Y-53443238D01*
X51621172Y-53604811D01*
X51691625Y-53734996D01*
X51739526Y-53823509D01*
X51892262Y-54019744D01*
X52075215Y-54188164D01*
X52283393Y-54324173D01*
X52511119Y-54424063D01*
X52752179Y-54485108D01*
X52752182Y-54485108D01*
X52752185Y-54485109D01*
X52937925Y-54500500D01*
X52937933Y-54500500D01*
X53062075Y-54500500D01*
X53247814Y-54485109D01*
X53247816Y-54485108D01*
X53247821Y-54485108D01*
X53488881Y-54424063D01*
X53716607Y-54324173D01*
X53924785Y-54188164D01*
X54107738Y-54019744D01*
X54260474Y-53823509D01*
X54308371Y-53735003D01*
X61429785Y-53735003D01*
X61448601Y-53938076D01*
X61448602Y-53938082D01*
X61501654Y-54124536D01*
X61504418Y-54134250D01*
X61595327Y-54316821D01*
X61595328Y-54316822D01*
X61595329Y-54316825D01*
X61718234Y-54479578D01*
X61718235Y-54479579D01*
X61855637Y-54604836D01*
X61868959Y-54616981D01*
X62042363Y-54724348D01*
X62232544Y-54798024D01*
X62433024Y-54835500D01*
X62433026Y-54835500D01*
X62636974Y-54835500D01*
X62636976Y-54835500D01*
X62837456Y-54798024D01*
X63027637Y-54724348D01*
X63201041Y-54616981D01*
X63351764Y-54479579D01*
X63354845Y-54475500D01*
X63474670Y-54316825D01*
X63474670Y-54316824D01*
X63474673Y-54316821D01*
X63565582Y-54134250D01*
X63621397Y-53938083D01*
X63632014Y-53823513D01*
X63640215Y-53735003D01*
X63640215Y-53734996D01*
X63627706Y-53600000D01*
X71094318Y-53600000D01*
X71114955Y-53756760D01*
X71114955Y-53756761D01*
X71175464Y-53902841D01*
X71271715Y-54028279D01*
X71271720Y-54028284D01*
X71355345Y-54092451D01*
X71397159Y-54124536D01*
X71543238Y-54185044D01*
X71700000Y-54205682D01*
X71856762Y-54185044D01*
X72002841Y-54124536D01*
X72128282Y-54028282D01*
X72224536Y-53902841D01*
X72285044Y-53756762D01*
X72305682Y-53600000D01*
X72285044Y-53443238D01*
X72224536Y-53297159D01*
X72128282Y-53171718D01*
X72128279Y-53171715D01*
X72002841Y-53075464D01*
X71856761Y-53014955D01*
X71743161Y-53000000D01*
X78894318Y-53000000D01*
X78914955Y-53156760D01*
X78914955Y-53156761D01*
X78975464Y-53302841D01*
X79071715Y-53428279D01*
X79071720Y-53428284D01*
X79091209Y-53443238D01*
X79197159Y-53524536D01*
X79343238Y-53585044D01*
X79500000Y-53605682D01*
X79656762Y-53585044D01*
X79802841Y-53524536D01*
X79928282Y-53428282D01*
X80024536Y-53302841D01*
X80085044Y-53156762D01*
X80092604Y-53099337D01*
X92374500Y-53099337D01*
X92415428Y-53344610D01*
X92496172Y-53579811D01*
X92510173Y-53605682D01*
X92614526Y-53798509D01*
X92767262Y-53994744D01*
X92950215Y-54163164D01*
X93158393Y-54299173D01*
X93386119Y-54399063D01*
X93627179Y-54460108D01*
X93627182Y-54460108D01*
X93627185Y-54460109D01*
X93812925Y-54475500D01*
X93812933Y-54475500D01*
X93937075Y-54475500D01*
X94122814Y-54460109D01*
X94122816Y-54460108D01*
X94122821Y-54460108D01*
X94363881Y-54399063D01*
X94591607Y-54299173D01*
X94799785Y-54163164D01*
X94982738Y-53994744D01*
X95135474Y-53798509D01*
X95253828Y-53579810D01*
X95334571Y-53344614D01*
X95375500Y-53099335D01*
X95375500Y-52850665D01*
X95334571Y-52605386D01*
X95253828Y-52370190D01*
X95135474Y-52151491D01*
X94982738Y-51955256D01*
X94952215Y-51927158D01*
X94799785Y-51786836D01*
X94591607Y-51650827D01*
X94363887Y-51550939D01*
X94363883Y-51550938D01*
X94363881Y-51550937D01*
X94160762Y-51499500D01*
X94122814Y-51489890D01*
X93937075Y-51474500D01*
X93937067Y-51474500D01*
X93812933Y-51474500D01*
X93812925Y-51474500D01*
X93627185Y-51489890D01*
X93463531Y-51531333D01*
X93386119Y-51550937D01*
X93386117Y-51550937D01*
X93386112Y-51550939D01*
X93158392Y-51650827D01*
X92950214Y-51786836D01*
X92767263Y-51955254D01*
X92614529Y-52151486D01*
X92614522Y-52151498D01*
X92496172Y-52370188D01*
X92415428Y-52605389D01*
X92374500Y-52850662D01*
X92374500Y-53099337D01*
X80092604Y-53099337D01*
X80105682Y-53000000D01*
X80085044Y-52843238D01*
X80024536Y-52697159D01*
X79973302Y-52630389D01*
X79928284Y-52571720D01*
X79928279Y-52571715D01*
X79802841Y-52475464D01*
X79656761Y-52414955D01*
X79500000Y-52394318D01*
X79343239Y-52414955D01*
X79343238Y-52414955D01*
X79197158Y-52475464D01*
X79071720Y-52571715D01*
X79071715Y-52571720D01*
X78975464Y-52697158D01*
X78914955Y-52843238D01*
X78914955Y-52843239D01*
X78894318Y-53000000D01*
X71743161Y-53000000D01*
X71700000Y-52994318D01*
X71543239Y-53014955D01*
X71543238Y-53014955D01*
X71397158Y-53075464D01*
X71271720Y-53171715D01*
X71271715Y-53171720D01*
X71175464Y-53297158D01*
X71114955Y-53443238D01*
X71114955Y-53443239D01*
X71094318Y-53600000D01*
X63627706Y-53600000D01*
X63621398Y-53531923D01*
X63621397Y-53531917D01*
X63619297Y-53524535D01*
X63565582Y-53335750D01*
X63474673Y-53153179D01*
X63474670Y-53153175D01*
X63474670Y-53153174D01*
X63351765Y-52990421D01*
X63351764Y-52990420D01*
X63201041Y-52853019D01*
X63139709Y-52815044D01*
X63027637Y-52745652D01*
X62837456Y-52671976D01*
X62749407Y-52655516D01*
X62636979Y-52634500D01*
X62636976Y-52634500D01*
X62433024Y-52634500D01*
X62433020Y-52634500D01*
X62305790Y-52658284D01*
X62232544Y-52671976D01*
X62232542Y-52671976D01*
X62232540Y-52671977D01*
X62042368Y-52745650D01*
X62042363Y-52745652D01*
X62042358Y-52745654D01*
X62042358Y-52745655D01*
X61868958Y-52853019D01*
X61868957Y-52853019D01*
X61718235Y-52990420D01*
X61718234Y-52990421D01*
X61595329Y-53153174D01*
X61595328Y-53153177D01*
X61504418Y-53335750D01*
X61504416Y-53335755D01*
X61448602Y-53531917D01*
X61448601Y-53531923D01*
X61429785Y-53734996D01*
X61429785Y-53735003D01*
X54308371Y-53735003D01*
X54378828Y-53604810D01*
X54459571Y-53369614D01*
X54500500Y-53124335D01*
X54500500Y-52875665D01*
X54459571Y-52630386D01*
X54378828Y-52395190D01*
X54374266Y-52386761D01*
X54365298Y-52370188D01*
X54289432Y-52230000D01*
X56394318Y-52230000D01*
X56414955Y-52386760D01*
X56414955Y-52386761D01*
X56475464Y-52532841D01*
X56571715Y-52658279D01*
X56571720Y-52658284D01*
X56655345Y-52722451D01*
X56697159Y-52754536D01*
X56843238Y-52815044D01*
X57000000Y-52835682D01*
X57156762Y-52815044D01*
X57302841Y-52754536D01*
X57428282Y-52658282D01*
X57524536Y-52532841D01*
X57585044Y-52386762D01*
X57605682Y-52230000D01*
X57894318Y-52230000D01*
X57914955Y-52386760D01*
X57914955Y-52386761D01*
X57975464Y-52532841D01*
X58071715Y-52658279D01*
X58071720Y-52658284D01*
X58155345Y-52722451D01*
X58197159Y-52754536D01*
X58343238Y-52815044D01*
X58500000Y-52835682D01*
X58656762Y-52815044D01*
X58802841Y-52754536D01*
X58928282Y-52658282D01*
X59024536Y-52532841D01*
X59085044Y-52386762D01*
X59105682Y-52230000D01*
X59085044Y-52073238D01*
X59024536Y-51927159D01*
X58928282Y-51801718D01*
X58928279Y-51801715D01*
X58802841Y-51705464D01*
X58656761Y-51644955D01*
X58500000Y-51624318D01*
X58343239Y-51644955D01*
X58343238Y-51644955D01*
X58197158Y-51705464D01*
X58071720Y-51801715D01*
X58071715Y-51801720D01*
X57975464Y-51927158D01*
X57914955Y-52073238D01*
X57914955Y-52073239D01*
X57894318Y-52230000D01*
X57605682Y-52230000D01*
X57585044Y-52073238D01*
X57524536Y-51927159D01*
X57428282Y-51801718D01*
X57428279Y-51801715D01*
X57302841Y-51705464D01*
X57156761Y-51644955D01*
X57000000Y-51624318D01*
X56843239Y-51644955D01*
X56843238Y-51644955D01*
X56697158Y-51705464D01*
X56571720Y-51801715D01*
X56571715Y-51801720D01*
X56475464Y-51927158D01*
X56414955Y-52073238D01*
X56414955Y-52073239D01*
X56394318Y-52230000D01*
X54289432Y-52230000D01*
X54260474Y-52176491D01*
X54107738Y-51980256D01*
X53924785Y-51811836D01*
X53716607Y-51675827D01*
X53659613Y-51650827D01*
X53488887Y-51575939D01*
X53488883Y-51575938D01*
X53488881Y-51575937D01*
X53325233Y-51534495D01*
X53247814Y-51514890D01*
X53062075Y-51499500D01*
X53062067Y-51499500D01*
X52937933Y-51499500D01*
X52937925Y-51499500D01*
X52752185Y-51514890D01*
X52609841Y-51550937D01*
X52511119Y-51575937D01*
X52511117Y-51575937D01*
X52511112Y-51575939D01*
X52283392Y-51675827D01*
X52075214Y-51811836D01*
X51892263Y-51980254D01*
X51739529Y-52176486D01*
X51739522Y-52176498D01*
X51621172Y-52395188D01*
X51540428Y-52630389D01*
X51499500Y-52875662D01*
X51499500Y-53124337D01*
X50000500Y-53124337D01*
X50000500Y-50074500D01*
X50017813Y-50026934D01*
X50061650Y-50001624D01*
X50074500Y-50000500D01*
X102425500Y-50000500D01*
X102473066Y-50017813D01*
G37*
%TD.AperFunction*%
%TD*%
%TA.AperFunction,Conductor*%
%TO.N,+2V5*%
G36*
X75453533Y-55262263D02*
G01*
X75478868Y-55306086D01*
X75480000Y-55318978D01*
X75480000Y-66700000D01*
X85700000Y-66700000D01*
X85700000Y-62791098D01*
X87063257Y-62791098D01*
X87083894Y-62947858D01*
X87083894Y-62947859D01*
X87144403Y-63093939D01*
X87240654Y-63219377D01*
X87240659Y-63219382D01*
X87289374Y-63256762D01*
X87366098Y-63315634D01*
X87512177Y-63376142D01*
X87668939Y-63396780D01*
X87825701Y-63376142D01*
X87971780Y-63315634D01*
X88097221Y-63219380D01*
X88193475Y-63093939D01*
X88253983Y-62947860D01*
X88274621Y-62791098D01*
X88253983Y-62634336D01*
X88193475Y-62488257D01*
X88097221Y-62362816D01*
X88097218Y-62362813D01*
X87971780Y-62266562D01*
X87825700Y-62206053D01*
X87668939Y-62185416D01*
X87512178Y-62206053D01*
X87512177Y-62206053D01*
X87366097Y-62266562D01*
X87240659Y-62362813D01*
X87240654Y-62362818D01*
X87144403Y-62488256D01*
X87083894Y-62634336D01*
X87083894Y-62634337D01*
X87063257Y-62791098D01*
X85700000Y-62791098D01*
X85700000Y-61574000D01*
X85717313Y-61526434D01*
X85761150Y-61501124D01*
X85774000Y-61500000D01*
X90056339Y-61500000D01*
X90103905Y-61517313D01*
X90129215Y-61561150D01*
X90130339Y-61574196D01*
X90108163Y-69925696D01*
X90090724Y-69973217D01*
X90046819Y-69998410D01*
X90034163Y-69999500D01*
X66604000Y-69999500D01*
X66556434Y-69982187D01*
X66531124Y-69938350D01*
X66530000Y-69925500D01*
X66530000Y-68500000D01*
X72764318Y-68500000D01*
X72784955Y-68656760D01*
X72784955Y-68656761D01*
X72845464Y-68802841D01*
X72941715Y-68928279D01*
X72941720Y-68928284D01*
X72980811Y-68958279D01*
X73067159Y-69024536D01*
X73213238Y-69085044D01*
X73370000Y-69105682D01*
X73526762Y-69085044D01*
X73672841Y-69024536D01*
X73798282Y-68928282D01*
X73894536Y-68802841D01*
X73955044Y-68656762D01*
X73971732Y-68530000D01*
X79384318Y-68530000D01*
X79404955Y-68686760D01*
X79404955Y-68686761D01*
X79465464Y-68832841D01*
X79561715Y-68958279D01*
X79561720Y-68958284D01*
X79645345Y-69022451D01*
X79687159Y-69054536D01*
X79833238Y-69115044D01*
X79990000Y-69135682D01*
X80146762Y-69115044D01*
X80292841Y-69054536D01*
X80418282Y-68958282D01*
X80514536Y-68832841D01*
X80575044Y-68686762D01*
X80595682Y-68530000D01*
X80575044Y-68373238D01*
X80514536Y-68227159D01*
X80443854Y-68135044D01*
X80418284Y-68101720D01*
X80418279Y-68101715D01*
X80292841Y-68005464D01*
X80146761Y-67944955D01*
X79990000Y-67924318D01*
X79833239Y-67944955D01*
X79833238Y-67944955D01*
X79687158Y-68005464D01*
X79561720Y-68101715D01*
X79561715Y-68101720D01*
X79465464Y-68227158D01*
X79404955Y-68373238D01*
X79404955Y-68373239D01*
X79384318Y-68530000D01*
X73971732Y-68530000D01*
X73975682Y-68500000D01*
X73955044Y-68343238D01*
X73894536Y-68197159D01*
X73837510Y-68122841D01*
X73798284Y-68071720D01*
X73798279Y-68071715D01*
X73672841Y-67975464D01*
X73526761Y-67914955D01*
X73370000Y-67894318D01*
X73213239Y-67914955D01*
X73213238Y-67914955D01*
X73067158Y-67975464D01*
X72941720Y-68071715D01*
X72941715Y-68071720D01*
X72845464Y-68197158D01*
X72784955Y-68343238D01*
X72784955Y-68343239D01*
X72764318Y-68500000D01*
X66530000Y-68500000D01*
X66530000Y-67550000D01*
X67954318Y-67550000D01*
X67974955Y-67706760D01*
X67974955Y-67706761D01*
X68035464Y-67852841D01*
X68131715Y-67978279D01*
X68131720Y-67978284D01*
X68167142Y-68005464D01*
X68257159Y-68074536D01*
X68403238Y-68135044D01*
X68560000Y-68155682D01*
X68716762Y-68135044D01*
X68862841Y-68074536D01*
X68988282Y-67978282D01*
X69084536Y-67852841D01*
X69098139Y-67820000D01*
X70219314Y-67820000D01*
X70239951Y-67976760D01*
X70239951Y-67976761D01*
X70300460Y-68122841D01*
X70396711Y-68248279D01*
X70396716Y-68248284D01*
X70480341Y-68312451D01*
X70522155Y-68344536D01*
X70668234Y-68405044D01*
X70824996Y-68425682D01*
X70981758Y-68405044D01*
X71127837Y-68344536D01*
X71253278Y-68248282D01*
X71349532Y-68122841D01*
X71410040Y-67976762D01*
X71430678Y-67820000D01*
X71410040Y-67663238D01*
X71349532Y-67517159D01*
X71301870Y-67455044D01*
X71253280Y-67391720D01*
X71253275Y-67391715D01*
X71127837Y-67295464D01*
X70981757Y-67234955D01*
X70824996Y-67214318D01*
X70668235Y-67234955D01*
X70668234Y-67234955D01*
X70522154Y-67295464D01*
X70396716Y-67391715D01*
X70396711Y-67391720D01*
X70300460Y-67517158D01*
X70239951Y-67663238D01*
X70239951Y-67663239D01*
X70219314Y-67820000D01*
X69098139Y-67820000D01*
X69145044Y-67706762D01*
X69165682Y-67550000D01*
X69145044Y-67393238D01*
X69084536Y-67247159D01*
X68988282Y-67121718D01*
X68988279Y-67121715D01*
X68862841Y-67025464D01*
X68716761Y-66964955D01*
X68560000Y-66944318D01*
X68403239Y-66964955D01*
X68403238Y-66964955D01*
X68257158Y-67025464D01*
X68131720Y-67121715D01*
X68131715Y-67121720D01*
X68035464Y-67247158D01*
X67974955Y-67393238D01*
X67974955Y-67393239D01*
X67954318Y-67550000D01*
X66530000Y-67550000D01*
X66530000Y-66870000D01*
X72364318Y-66870000D01*
X72384955Y-67026760D01*
X72384955Y-67026761D01*
X72445464Y-67172841D01*
X72541715Y-67298279D01*
X72541720Y-67298284D01*
X72625345Y-67362451D01*
X72667159Y-67394536D01*
X72813238Y-67455044D01*
X72970000Y-67475682D01*
X73126762Y-67455044D01*
X73272841Y-67394536D01*
X73398282Y-67298282D01*
X73494536Y-67172841D01*
X73555044Y-67026762D01*
X73575682Y-66870000D01*
X73555044Y-66713238D01*
X73494536Y-66567159D01*
X73398282Y-66441718D01*
X73398279Y-66441715D01*
X73272841Y-66345464D01*
X73126761Y-66284955D01*
X72970000Y-66264318D01*
X72813239Y-66284955D01*
X72813238Y-66284955D01*
X72667158Y-66345464D01*
X72541720Y-66441715D01*
X72541715Y-66441720D01*
X72445464Y-66567158D01*
X72384955Y-66713238D01*
X72384955Y-66713239D01*
X72364318Y-66870000D01*
X66530000Y-66870000D01*
X66530000Y-62095252D01*
X69253291Y-62095252D01*
X69273928Y-62252012D01*
X69273928Y-62252013D01*
X69334437Y-62398093D01*
X69430688Y-62523531D01*
X69430693Y-62523536D01*
X69458723Y-62545044D01*
X69556132Y-62619788D01*
X69702211Y-62680296D01*
X69858973Y-62700934D01*
X70015735Y-62680296D01*
X70161814Y-62619788D01*
X70287255Y-62523534D01*
X70383509Y-62398093D01*
X70444017Y-62252014D01*
X70464655Y-62095252D01*
X70444017Y-61938490D01*
X70383509Y-61792411D01*
X70351933Y-61751260D01*
X70336711Y-61702984D01*
X70356082Y-61656218D01*
X70382321Y-61637845D01*
X70449579Y-61609987D01*
X70575020Y-61513733D01*
X70671274Y-61388292D01*
X70720375Y-61269751D01*
X71118766Y-61269751D01*
X71139403Y-61426511D01*
X71139403Y-61426512D01*
X71199912Y-61572592D01*
X71296163Y-61698030D01*
X71296168Y-61698035D01*
X71302618Y-61702984D01*
X71421607Y-61794287D01*
X71567686Y-61854795D01*
X71724448Y-61875433D01*
X71881210Y-61854795D01*
X72027289Y-61794287D01*
X72152730Y-61698033D01*
X72248984Y-61572592D01*
X72309492Y-61426513D01*
X72330130Y-61269751D01*
X72309492Y-61112989D01*
X72248984Y-60966910D01*
X72216899Y-60925096D01*
X72152732Y-60841471D01*
X72152727Y-60841466D01*
X72027289Y-60745215D01*
X71881209Y-60684706D01*
X71724448Y-60664069D01*
X71567687Y-60684706D01*
X71567686Y-60684706D01*
X71421606Y-60745215D01*
X71296168Y-60841466D01*
X71296163Y-60841471D01*
X71199912Y-60966909D01*
X71139403Y-61112989D01*
X71139403Y-61112990D01*
X71118766Y-61269751D01*
X70720375Y-61269751D01*
X70731782Y-61242213D01*
X70752420Y-61085451D01*
X70731782Y-60928689D01*
X70671274Y-60782610D01*
X70575020Y-60657169D01*
X70575017Y-60657166D01*
X70449579Y-60560915D01*
X70303499Y-60500406D01*
X70146738Y-60479769D01*
X69989977Y-60500406D01*
X69989976Y-60500406D01*
X69843896Y-60560915D01*
X69718458Y-60657166D01*
X69718453Y-60657171D01*
X69622202Y-60782609D01*
X69561693Y-60928689D01*
X69561693Y-60928690D01*
X69541056Y-61085451D01*
X69561693Y-61242211D01*
X69561693Y-61242212D01*
X69622202Y-61388292D01*
X69653777Y-61429442D01*
X69668999Y-61477718D01*
X69649627Y-61524484D01*
X69623388Y-61542857D01*
X69556131Y-61570716D01*
X69430693Y-61666967D01*
X69430688Y-61666972D01*
X69334437Y-61792410D01*
X69273928Y-61938490D01*
X69273928Y-61938491D01*
X69253291Y-62095252D01*
X66530000Y-62095252D01*
X66530000Y-58900000D01*
X69394318Y-58900000D01*
X69414955Y-59056760D01*
X69414955Y-59056761D01*
X69475464Y-59202841D01*
X69571715Y-59328279D01*
X69571720Y-59328284D01*
X69628325Y-59371718D01*
X69697159Y-59424536D01*
X69843238Y-59485044D01*
X70000000Y-59505682D01*
X70156762Y-59485044D01*
X70302841Y-59424536D01*
X70428282Y-59328282D01*
X70524536Y-59202841D01*
X70585044Y-59056762D01*
X70605682Y-58900000D01*
X70585044Y-58743238D01*
X70524536Y-58597159D01*
X70428282Y-58471718D01*
X70428279Y-58471715D01*
X70302841Y-58375464D01*
X70156761Y-58314955D01*
X70000000Y-58294318D01*
X69843239Y-58314955D01*
X69843238Y-58314955D01*
X69697158Y-58375464D01*
X69571720Y-58471715D01*
X69571715Y-58471720D01*
X69475464Y-58597158D01*
X69414955Y-58743238D01*
X69414955Y-58743239D01*
X69394318Y-58900000D01*
X66530000Y-58900000D01*
X66530000Y-56190000D01*
X71074318Y-56190000D01*
X71094955Y-56346760D01*
X71094955Y-56346761D01*
X71155464Y-56492841D01*
X71251715Y-56618279D01*
X71251720Y-56618284D01*
X71334447Y-56681762D01*
X71377159Y-56714536D01*
X71523238Y-56775044D01*
X71680000Y-56795682D01*
X71836762Y-56775044D01*
X71982841Y-56714536D01*
X72108282Y-56618282D01*
X72204536Y-56492841D01*
X72265044Y-56346762D01*
X72285682Y-56190000D01*
X72265044Y-56033238D01*
X72204536Y-55887159D01*
X72108282Y-55761718D01*
X72108279Y-55761715D01*
X71982841Y-55665464D01*
X71836761Y-55604955D01*
X71680000Y-55584318D01*
X71523239Y-55604955D01*
X71523238Y-55604955D01*
X71377158Y-55665464D01*
X71251720Y-55761715D01*
X71251715Y-55761720D01*
X71155464Y-55887158D01*
X71094955Y-56033238D01*
X71094955Y-56033239D01*
X71074318Y-56190000D01*
X66530000Y-56190000D01*
X66530000Y-55324114D01*
X66547313Y-55276548D01*
X66591150Y-55251238D01*
X66603947Y-55250114D01*
X75405957Y-55244978D01*
X75453533Y-55262263D01*
G37*
%TD.AperFunction*%
%TD*%
%TA.AperFunction,Conductor*%
%TO.N,-2V5*%
G36*
X90073566Y-55217313D02*
G01*
X90098876Y-55261150D01*
X90100000Y-55274000D01*
X90100000Y-60926883D01*
X90082687Y-60974449D01*
X90038850Y-60999759D01*
X90026889Y-61000878D01*
X84764095Y-61064096D01*
X84799479Y-66125483D01*
X84782499Y-66173169D01*
X84738840Y-66198784D01*
X84725481Y-66200000D01*
X75994000Y-66200000D01*
X75946434Y-66182687D01*
X75921124Y-66138850D01*
X75920000Y-66126000D01*
X75920000Y-63100000D01*
X82814318Y-63100000D01*
X82834955Y-63256760D01*
X82834955Y-63256761D01*
X82895464Y-63402841D01*
X82991715Y-63528279D01*
X82991720Y-63528284D01*
X83075345Y-63592451D01*
X83117159Y-63624536D01*
X83263238Y-63685044D01*
X83420000Y-63705682D01*
X83576762Y-63685044D01*
X83722841Y-63624536D01*
X83848282Y-63528282D01*
X83944536Y-63402841D01*
X84005044Y-63256762D01*
X84025682Y-63100000D01*
X84005044Y-62943238D01*
X83944536Y-62797159D01*
X83848282Y-62671718D01*
X83848279Y-62671715D01*
X83722841Y-62575464D01*
X83576761Y-62514955D01*
X83420000Y-62494318D01*
X83263239Y-62514955D01*
X83263238Y-62514955D01*
X83117158Y-62575464D01*
X82991720Y-62671715D01*
X82991715Y-62671720D01*
X82895464Y-62797158D01*
X82834955Y-62943238D01*
X82834955Y-62943239D01*
X82814318Y-63100000D01*
X75920000Y-63100000D01*
X75920000Y-61960000D01*
X80574318Y-61960000D01*
X80594955Y-62116760D01*
X80594955Y-62116761D01*
X80655464Y-62262841D01*
X80751715Y-62388279D01*
X80751720Y-62388284D01*
X80835345Y-62452451D01*
X80877159Y-62484536D01*
X81023238Y-62545044D01*
X81180000Y-62565682D01*
X81336762Y-62545044D01*
X81482841Y-62484536D01*
X81608282Y-62388282D01*
X81704536Y-62262841D01*
X81765044Y-62116762D01*
X81785682Y-61960000D01*
X81765044Y-61803238D01*
X81704536Y-61657159D01*
X81608282Y-61531718D01*
X81608279Y-61531715D01*
X81482841Y-61435464D01*
X81336761Y-61374955D01*
X81180000Y-61354318D01*
X81023239Y-61374955D01*
X81023238Y-61374955D01*
X80877158Y-61435464D01*
X80751720Y-61531715D01*
X80751715Y-61531720D01*
X80655464Y-61657158D01*
X80594955Y-61803238D01*
X80594955Y-61803239D01*
X80574318Y-61960000D01*
X75920000Y-61960000D01*
X75920000Y-61270000D01*
X79194318Y-61270000D01*
X79214955Y-61426760D01*
X79214955Y-61426761D01*
X79275464Y-61572841D01*
X79371715Y-61698279D01*
X79371720Y-61698284D01*
X79455345Y-61762451D01*
X79497159Y-61794536D01*
X79643238Y-61855044D01*
X79800000Y-61875682D01*
X79956762Y-61855044D01*
X80102841Y-61794536D01*
X80228282Y-61698282D01*
X80324536Y-61572841D01*
X80385044Y-61426762D01*
X80405682Y-61270000D01*
X80385044Y-61113238D01*
X80324536Y-60967159D01*
X80228282Y-60841718D01*
X80228279Y-60841715D01*
X80102841Y-60745464D01*
X79956761Y-60684955D01*
X79800000Y-60664318D01*
X79643239Y-60684955D01*
X79643238Y-60684955D01*
X79497158Y-60745464D01*
X79371720Y-60841715D01*
X79371715Y-60841720D01*
X79275464Y-60967158D01*
X79214955Y-61113238D01*
X79214955Y-61113239D01*
X79194318Y-61270000D01*
X75920000Y-61270000D01*
X75920000Y-59800000D01*
X84844318Y-59800000D01*
X84864955Y-59956760D01*
X84864955Y-59956761D01*
X84925464Y-60102841D01*
X85021715Y-60228279D01*
X85021720Y-60228284D01*
X85105345Y-60292451D01*
X85147159Y-60324536D01*
X85293238Y-60385044D01*
X85450000Y-60405682D01*
X85606762Y-60385044D01*
X85752841Y-60324536D01*
X85878282Y-60228282D01*
X85974536Y-60102841D01*
X86035044Y-59956762D01*
X86042517Y-59900000D01*
X86994318Y-59900000D01*
X87014955Y-60056760D01*
X87014955Y-60056761D01*
X87075464Y-60202841D01*
X87171715Y-60328279D01*
X87171720Y-60328284D01*
X87245692Y-60385044D01*
X87297159Y-60424536D01*
X87443238Y-60485044D01*
X87600000Y-60505682D01*
X87756762Y-60485044D01*
X87902841Y-60424536D01*
X88028282Y-60328282D01*
X88124536Y-60202841D01*
X88185044Y-60056762D01*
X88205682Y-59900000D01*
X88185044Y-59743238D01*
X88124536Y-59597159D01*
X88047803Y-59497158D01*
X88028284Y-59471720D01*
X88028279Y-59471715D01*
X87902841Y-59375464D01*
X87756761Y-59314955D01*
X87600000Y-59294318D01*
X87443239Y-59314955D01*
X87443238Y-59314955D01*
X87297158Y-59375464D01*
X87171720Y-59471715D01*
X87171715Y-59471720D01*
X87075464Y-59597158D01*
X87014955Y-59743238D01*
X87014955Y-59743239D01*
X86994318Y-59900000D01*
X86042517Y-59900000D01*
X86055682Y-59800000D01*
X86035044Y-59643238D01*
X85974536Y-59497159D01*
X85942451Y-59455345D01*
X85878284Y-59371720D01*
X85878279Y-59371715D01*
X85773801Y-59291546D01*
X85746603Y-59248854D01*
X85753210Y-59198669D01*
X85790531Y-59164471D01*
X85809183Y-59159472D01*
X85956762Y-59140044D01*
X86102841Y-59079536D01*
X86228282Y-58983282D01*
X86324536Y-58857841D01*
X86385044Y-58711762D01*
X86405682Y-58555000D01*
X86385044Y-58398238D01*
X86324536Y-58252159D01*
X86228282Y-58126718D01*
X86228279Y-58126715D01*
X86102841Y-58030464D01*
X85956761Y-57969955D01*
X85800000Y-57949318D01*
X85643239Y-57969955D01*
X85643238Y-57969955D01*
X85497158Y-58030464D01*
X85371720Y-58126715D01*
X85371715Y-58126720D01*
X85275464Y-58252158D01*
X85214955Y-58398238D01*
X85214955Y-58398239D01*
X85194318Y-58555000D01*
X85214955Y-58711760D01*
X85214955Y-58711761D01*
X85275464Y-58857841D01*
X85371715Y-58983279D01*
X85371720Y-58983284D01*
X85476198Y-59063453D01*
X85503396Y-59106144D01*
X85496789Y-59156330D01*
X85459469Y-59190528D01*
X85440809Y-59195528D01*
X85293239Y-59214955D01*
X85293238Y-59214955D01*
X85147158Y-59275464D01*
X85021720Y-59371715D01*
X85021715Y-59371720D01*
X84925464Y-59497158D01*
X84864955Y-59643238D01*
X84864955Y-59643239D01*
X84844318Y-59800000D01*
X75920000Y-59800000D01*
X75920000Y-59057297D01*
X80219125Y-59057297D01*
X80239762Y-59214057D01*
X80239762Y-59214058D01*
X80300271Y-59360138D01*
X80396522Y-59485576D01*
X80396527Y-59485581D01*
X80411615Y-59497158D01*
X80521966Y-59581833D01*
X80668045Y-59642341D01*
X80824807Y-59662979D01*
X80981569Y-59642341D01*
X81127648Y-59581833D01*
X81253089Y-59485579D01*
X81349343Y-59360138D01*
X81409851Y-59214059D01*
X81430489Y-59057297D01*
X81409851Y-58900535D01*
X81349343Y-58754456D01*
X81253089Y-58629015D01*
X81253086Y-58629012D01*
X81127648Y-58532761D01*
X80981568Y-58472252D01*
X80824807Y-58451615D01*
X80668046Y-58472252D01*
X80668045Y-58472252D01*
X80521965Y-58532761D01*
X80396527Y-58629012D01*
X80396522Y-58629017D01*
X80300271Y-58754455D01*
X80239762Y-58900535D01*
X80239762Y-58900536D01*
X80219125Y-59057297D01*
X75920000Y-59057297D01*
X75920000Y-57470000D01*
X83024318Y-57470000D01*
X83044955Y-57626760D01*
X83044955Y-57626761D01*
X83105464Y-57772841D01*
X83201715Y-57898279D01*
X83201720Y-57898284D01*
X83285345Y-57962451D01*
X83327159Y-57994536D01*
X83473238Y-58055044D01*
X83630000Y-58075682D01*
X83786762Y-58055044D01*
X83932841Y-57994536D01*
X84058282Y-57898282D01*
X84154536Y-57772841D01*
X84215044Y-57626762D01*
X84235682Y-57470000D01*
X84215044Y-57313238D01*
X84154536Y-57167159D01*
X84064281Y-57049536D01*
X84058284Y-57041720D01*
X84058279Y-57041715D01*
X84029979Y-57020000D01*
X87974318Y-57020000D01*
X87994955Y-57176760D01*
X87994955Y-57176761D01*
X88055464Y-57322841D01*
X88151715Y-57448279D01*
X88151720Y-57448284D01*
X88235345Y-57512451D01*
X88277159Y-57544536D01*
X88423238Y-57605044D01*
X88580000Y-57625682D01*
X88736762Y-57605044D01*
X88882841Y-57544536D01*
X89008282Y-57448282D01*
X89104536Y-57322841D01*
X89165044Y-57176762D01*
X89185682Y-57020000D01*
X89165044Y-56863238D01*
X89104536Y-56717159D01*
X89008282Y-56591718D01*
X89008279Y-56591715D01*
X88882841Y-56495464D01*
X88736761Y-56434955D01*
X88580000Y-56414318D01*
X88423239Y-56434955D01*
X88423238Y-56434955D01*
X88277158Y-56495464D01*
X88151720Y-56591715D01*
X88151715Y-56591720D01*
X88055464Y-56717158D01*
X87994955Y-56863238D01*
X87994955Y-56863239D01*
X87974318Y-57020000D01*
X84029979Y-57020000D01*
X83932841Y-56945464D01*
X83786761Y-56884955D01*
X83630000Y-56864318D01*
X83473239Y-56884955D01*
X83473238Y-56884955D01*
X83327158Y-56945464D01*
X83201720Y-57041715D01*
X83201715Y-57041720D01*
X83105464Y-57167158D01*
X83044955Y-57313238D01*
X83044955Y-57313239D01*
X83024318Y-57470000D01*
X75920000Y-57470000D01*
X75920000Y-56525000D01*
X80494318Y-56525000D01*
X80514955Y-56681760D01*
X80514955Y-56681761D01*
X80575464Y-56827841D01*
X80671715Y-56953279D01*
X80671720Y-56953284D01*
X80755345Y-57017451D01*
X80797159Y-57049536D01*
X80943238Y-57110044D01*
X81100000Y-57130682D01*
X81256762Y-57110044D01*
X81402841Y-57049536D01*
X81528282Y-56953282D01*
X81624536Y-56827841D01*
X81685044Y-56681762D01*
X81705682Y-56525000D01*
X81685044Y-56368238D01*
X81624536Y-56222159D01*
X81528282Y-56096718D01*
X81528279Y-56096715D01*
X81402841Y-56000464D01*
X81256761Y-55939955D01*
X81100000Y-55919318D01*
X80943239Y-55939955D01*
X80943238Y-55939955D01*
X80797158Y-56000464D01*
X80671720Y-56096715D01*
X80671715Y-56096720D01*
X80575464Y-56222158D01*
X80514955Y-56368238D01*
X80514955Y-56368239D01*
X80494318Y-56525000D01*
X75920000Y-56525000D01*
X75920000Y-55274000D01*
X75937313Y-55226434D01*
X75981150Y-55201124D01*
X75994000Y-55200000D01*
X90026000Y-55200000D01*
X90073566Y-55217313D01*
G37*
%TD.AperFunction*%
%TD*%
M02*
