%TF.GenerationSoftware,KiCad,Pcbnew,8.0.8+1*%
%TF.CreationDate,2025-01-23T15:05:37+01:00*%
%TF.ProjectId,IR-sensor,49522d73-656e-4736-9f72-2e6b69636164,rev?*%
%TF.SameCoordinates,Original*%
%TF.FileFunction,Soldermask,Bot*%
%TF.FilePolarity,Negative*%
%FSLAX46Y46*%
G04 Gerber Fmt 4.6, Leading zero omitted, Abs format (unit mm)*
G04 Created by KiCad (PCBNEW 8.0.8+1) date 2025-01-23 15:05:37*
%MOMM*%
%LPD*%
G01*
G04 APERTURE LIST*
%ADD10R,1.800000X1.800000*%
%ADD11C,1.800000*%
%ADD12R,1.000000X1.000000*%
%ADD13O,1.000000X1.000000*%
G04 APERTURE END LIST*
D10*
%TO.C,D5*%
X63535000Y-56275000D03*
D11*
X63535000Y-53735000D03*
%TD*%
D10*
%TO.C,D6*%
X63535000Y-66275000D03*
D11*
X63535000Y-63735000D03*
%TD*%
D12*
%TO.C,J3*%
X53700000Y-54285000D03*
D13*
X52430000Y-54285000D03*
X53700000Y-55555000D03*
X52430000Y-55555000D03*
X53700000Y-56825000D03*
X52430000Y-56825000D03*
X53700000Y-58095000D03*
X52430000Y-58095000D03*
X53700000Y-59365000D03*
X52430000Y-59365000D03*
X53700000Y-60635000D03*
X52430000Y-60635000D03*
X53700000Y-61905000D03*
X52430000Y-61905000D03*
X53700000Y-63175000D03*
X52430000Y-63175000D03*
X53700000Y-64445000D03*
X52430000Y-64445000D03*
X53700000Y-65715000D03*
X52430000Y-65715000D03*
%TD*%
D12*
%TO.C,J2*%
X136225000Y-54285000D03*
D13*
X137495000Y-54285000D03*
X136225000Y-55555000D03*
X137495000Y-55555000D03*
X136225000Y-56825000D03*
X137495000Y-56825000D03*
X136225000Y-58095000D03*
X137495000Y-58095000D03*
X136225000Y-59365000D03*
X137495000Y-59365000D03*
X136225000Y-60635000D03*
X137495000Y-60635000D03*
X136225000Y-61905000D03*
X137495000Y-61905000D03*
X136225000Y-63175000D03*
X137495000Y-63175000D03*
X136225000Y-64445000D03*
X137495000Y-64445000D03*
X136225000Y-65715000D03*
X137495000Y-65715000D03*
%TD*%
M02*
