M48
; DRILL file {KiCad 7.0.10+1} date Tue 12 Mar 2024 10:53:22 AM CET
; FORMAT={-:-/ absolute / metric / decimal}
; #@! TF.CreationDate,2024-03-12T10:53:22+01:00
; #@! TF.GenerationSoftware,Kicad,Pcbnew,7.0.10+1
; #@! TF.FileFunction,Plated,1,4,PTH
FMAT,2
METRIC
; #@! TA.AperFunction,Plated,PTH,ViaDrill
T1C0.400
; #@! TA.AperFunction,Plated,PTH,ComponentDrill
T2C0.900
%
G90
G05
T1
X57.0Y-52.23
X58.5Y-52.23
X61.83Y-59.98
X61.83Y-60.88
X61.88Y-58.99
X65.0Y-58.9
X65.0Y-61.0
X65.01Y-59.99
X68.56Y-67.55
X69.859Y-62.095
X70.0Y-58.9
X70.026Y-60.042
X70.147Y-61.085
X70.825Y-67.82
X71.68Y-56.19
X71.7Y-53.6
X71.724Y-61.27
X72.97Y-66.87
X73.37Y-68.5
X74.04Y-65.585
X77.26Y-65.53
X79.5Y-53.0
X79.564Y-51.952
X79.8Y-61.27
X79.99Y-68.53
X80.825Y-59.057
X81.1Y-56.525
X81.18Y-61.96
X81.8Y-59.925
X83.42Y-63.1
X83.63Y-57.47
X85.45Y-59.8
X85.8Y-58.555
X87.6Y-59.9
X87.669Y-62.791
X88.58Y-57.02
X88.67Y-59.93
X88.782Y-62.774
X92.308Y-61.768
X94.07Y-59.49
X95.0Y-56.7
X95.1Y-58.0
X96.006Y-61.006
X96.351Y-57.951
X97.2Y-56.8
X97.5Y-61.2
X97.5Y-63.1
X97.8Y-58.8
X98.34Y-55.66
T2
X62.535Y-53.735
X62.535Y-56.275
X62.535Y-63.735
X62.535Y-66.275
M30
